<?xml version="1.0" encoding="utf-8"?>
<svg version="1.1" id="Layer_1" xmlns="http://www.w3.org/2000/svg" xmlns:xlink="http://www.w3.org/1999/xlink" x="0px" y="0px"
	 viewBox="0 0 2625.901 1190.481" enable-background="new 0 0 2625.901 1190.481" xml:space="preserve">
<g fill="#c68c53">
	<path fill="#df9f9f" d="M34.05,754.177L260.449,59.388c3.973-12.193,17.405-18.511,29.331-13.796l160.52,63.458
		c11.032,4.361,16.701,16.612,12.886,27.844L228.404,828.041c-4.084,12.023-17.387,18.195-29.205,13.548L47.062,781.773
		C36.106,777.466,30.403,765.37,34.05,754.177z"/>
	<path fill="#f9ecec" d="M512.452,146.721L738.37,249.876c10.19,4.653,15.248,16.202,11.805,26.861c-51.301,158.78-127.144,330.542-215.813,509.09
		c-5.15,10.371-17.447,14.999-28.151,10.582l-186.035-76.75c-10.664-4.4-16.131-16.279-12.534-27.241L482.36,159.897
		C486.457,147.412,500.499,141.263,512.452,146.721z"/>
	<path fill="#4d4dff" d="M2194.5,151.303l154.325-49.576c11.015-3.539,22.813,2.528,26.342,13.547l216.778,676.841
		c3.676,11.477-3.073,23.68-14.748,26.668l-170.851,43.725c-10.89,2.787-22.038-3.523-25.252-14.295l-200.253-670.99
		C2177.584,166.306,2183.654,154.788,2194.5,151.303z"/>
	<path fill="#e6d6ff" d="M1936.852,237.567l198.328-66.665c11.853-3.984,24.64,2.696,28.14,14.7l157.967,541.733
		c3.464,11.88-3.544,24.28-15.509,27.44L2114.822,805.2c-10.911,2.881-22.232-2.963-26.218-13.52
		c-69.557-184.232-127.009-361.498-166.175-528.244C1919.833,252.387,1926.094,241.183,1936.852,237.567z"/>
	<path fill="#d9b38c" d="M788.771,277.067c2.318-3.095,86.356,24.978,123.298,42.296c35.479,16.633,7.389-16.881,11.116-11.468
		c-2.446-3.552,3.118-4.123,17.964-8.487c83.524-48.862,116.036-70.897,179.824-115.057c88.698-63.754,142.86-35.771,152.891-16.721
		c2.935,5.573-9.704,6.832-90.635,72.953c-40.006,32.685-50.324,69.163-73.637,222.918c-6.349,40.187-6.675,75.096,11.38,93.719
		c22.594,23.304,56.956,32.75,100.748,33.806c37.765,0.91,68.96-13.167,93.719-44.517c30.349-38.427,49.263-82.258,57.905-130.872
		c4.431-27.971,3.869-34.235,10.414-32.346c85.828,11.274,162.307,31.347,224.553,64.813c0,0,283.359,163.668,305.717,190.325
		c19.284,22.992,14.787,52.355-0.46,83.469c-13.749,28.055-30.904,40.644-59.913,36.818c-15.229-2.008-85.351-37.446-104.43-47.529
		c-21.205-12.112-81.327-32.588-88.699-35.479c-8.093-3.174-7.691,3.114-4.605,4.416
		c318.333,134.346,146.188,217.832,146.188,217.832c-33.561,14.629-84.082-12.773-176.058-60.583
		c-31.561-16.405-30.696-16.537-32.179-14.255c-4.894,7.533,53.868,32.478,83.055,58.102c14.905,13.086,49.956,25.438,34.81,71.294
		c-13.943,42.215-59.83,47.947-68.616,46.86c-40.786-5.05-75.703-31.001-163.313-67.653c-15.393-6.44,76.117,57.63,74.279,83.719
		c-1.774,25.192-43.179,71.225-72.298,59.579c-12.42-4.968-32.535-8.758-48.993-21.505c-12.396-9.601,13.546-23.91-2.51-58.24
		c-19.617-41.943-50.35-59.21-83.845-59.872l-33.858,0.238c-4.48,0.031-3.031-7.829-1.036-12.287
		c2.415-5.396,2.895-11.995-1.004-18.2c-11.673-18.577-5.146-33.806-62.131-56.106c-18.819-7.364-52.131-13.849-80.707,4.519
		c0,0-33.346,21.547-50.709,60.248c-1.211,2.699-1.362,4.342-8.073,7.188c-1.1,0.466-2.37-0.079-2.775-1.203
		c-13.586-37.616-63.687-74.875-133.747-72.635c-45.277,1.447-48.566,23.636-67.402,14.811
		c-12.774-5.985-85.577-38.701-100.288-39.161c-13.083-0.409-14.978-10.165-14.533-9.165c-0.935-2.103,1.641-2.658,3.425-3.324
		c19.809-7.391,22.189-1.137,51.085-16.066c-165.459-0.036-152.619-2.37-252.477-42.822
		C592.211,751.437,729.669,449.076,788.771,277.067z"/>
	<path d="M737.038,828.878l114.773,44.042c6.439,2.471,9.257,10.047,5.977,16.113c-35.332,65.338-108.813,62.468-123.24,0.555
		c-3.85-16.521-3.646-36.022-3.021-57.038C731.609,829.756,734.428,827.876,737.038,828.878z"/>
	<path d="M920.814,999.039c-20.772-45.548-21.723-91.841,23.095-116.48c40.157-22.076,84.73-11.524,124.513,26.61
		c18.014,17.267,23.106,38.428,9.288,62.507C1029.927,1054.948,938.236,1037.242,920.814,999.039z"/>
	<path d="M1246.704,870.716c-38.177-19.264-85.262-3.845-104.576,34.433l-31.872,63.164c-19.289,38.227-3.794,85.287,34.433,104.576
		c38.177,19.264,85.261,3.844,104.576-34.433l31.872-63.164C1300.426,937.064,1284.931,890.005,1246.704,870.716z"/>
	<path d="M1374.854,971.73c-31.693-15.992-70.78-3.192-86.814,28.585l-26.459,52.436c-16.013,31.735-3.15,70.801,28.585,86.814
		c31.693,15.992,70.78,3.192,86.814-28.585l26.459-52.436C1419.451,1026.81,1406.588,987.743,1374.854,971.73z"/>
	<path d="M1352.927,336.311c-2.674,4.887,0.748,10.451,0.837,17.907c0.834,70.333-43.841,200.308-114.137,213.546
		c-41.635,7.84-137.201-0.971-112.296-104.263c36.292-169.505,38.947-194.909,91.376-225.261
		c126.861-84.629,92.687-85.348,154.72-113.676c25.231-11.522,51.209-10.826,76.063,2.385
		c63.269,33.63,190.846,100.865,247.017,145.348c26.894,21.299,41.03,59.202,46.001,103.278c0.435,3.86,7.005,5.016,7.72-3.618
		c11.127-134.295-72.167-65.389,122.876-112.35c8.567-2.063,17.171,3.242,19.105,11.839l27.968,113.941
		c0,0,4.644,13.054-17.196,11.799c0,0,16.728,1.586,22.593,11.422c8.406,14.096,23.173,64.042,37.781,123.885
		c0,0,2.385,7.531-7.656,7.029c0,0-25.229,0.628-25.982,2.761c27.641-1.185,40.067-0.271,46.065,22.844
		c49.056,151.865,52.62,153.638,41.358,152.44h0c-66.825,2.608-63.949,5.264-73.051-2.636c-3.477-3.334,2.978-4.017,4.079-6.276
		c12.316-25.257,4.079-74.87-27.237-97.276c-68.012-48.661-49.736-42.016-181.246-116.04
		c-7.296-4.107-173.034-102.736-195.806-103.426c-44.687-10.009-88.716-20.941-132.922-25.605
		c-17.031-1.797-7.775-14.179,0.753-18.325c7.487-3.621,13.258-9.894,18.2-17.447c0.271-5.277-0.865-4.514-4.895-3.138
		C1385.598,369.256,1360.92,359.606,1352.927,336.311z"/>
</g>
</svg>
