<svg id="Layer_1" data-name="Layer 1" xmlns="http://www.w3.org/2000/svg" xmlns:xlink="http://www.w3.org/1999/xlink" viewBox="0 0 607.68 241.55"><defs><style>.cls-1,.cls-2{opacity:0.3;}.cls-1{fill:url(#linear-gradient);}.cls-2{fill:url(#linear-gradient-2);}.cls-3,.cls-8{fill:none;stroke-width:26px;}.cls-3{stroke:#0bbee9;}.cls-12,.cls-13,.cls-3,.cls-8{stroke-miterlimit:10;}.cls-4{fill:url(#linear-gradient-3);}.cls-5{fill:#2e3192;}.cls-6{fill:url(#linear-gradient-4);}.cls-7{fill:#0bbee9;}.cls-8{stroke:#231f20;}.cls-9{fill:url(#linear-gradient-5);}.cls-10{fill:#231f20;}.cls-11{fill:url(#linear-gradient-6);}.cls-12,.cls-13{stroke:#fff;}.cls-12{stroke-width:6px;fill:url(#linear-gradient-7);}.cls-13{stroke-width:3px;fill:url(#linear-gradient-8);}</style><linearGradient id="linear-gradient" x1="137.2" y1="284.45" x2="222.52" y2="284.45" gradientTransform="matrix(1, 0, 0, -1, 0, 556.8)" gradientUnits="userSpaceOnUse"><stop offset="0" stop-color="#2e3192"/><stop offset="1" stop-color="#2484c6"/></linearGradient><linearGradient id="linear-gradient-2" x1="130.04" y1="360.73" x2="229.78" y2="360.73" gradientTransform="matrix(1, 0, 0, 1, 0, 0)" xlink:href="#linear-gradient"/><linearGradient id="linear-gradient-3" x1="455.44" y1="263.53" x2="480.69" y2="230.8" gradientTransform="translate(-94.91 759.56) rotate(-90)" gradientUnits="userSpaceOnUse"><stop offset="0" stop-color="#2e3192"/><stop offset="1" stop-color="#2484c6" stop-opacity="0"/></linearGradient><linearGradient id="linear-gradient-4" x1="427.5" y1="316.91" x2="453.42" y2="280.3" gradientTransform="translate(-94.91 759.56) rotate(-90)" gradientUnits="userSpaceOnUse"><stop offset="0" stop-color="#2484c6" stop-opacity="0"/><stop offset="1" stop-color="#2e3192"/></linearGradient><linearGradient id="linear-gradient-5" x1="456.34" y1="479.22" x2="481.59" y2="446.48" gradientTransform="translate(-94.91 759.56) rotate(-90)" gradientUnits="userSpaceOnUse"><stop offset="0" stop-color="#fff" stop-opacity="0.5"/><stop offset="1"/></linearGradient><linearGradient id="linear-gradient-6" x1="428.4" y1="532.59" x2="454.32" y2="495.99" gradientTransform="translate(-94.91 759.56) rotate(-90)" gradientUnits="userSpaceOnUse"><stop offset="0" stop-color="#231f20"/><stop offset="1" stop-color="#fff" stop-opacity="0.5"/></linearGradient><linearGradient id="linear-gradient-7" x1="460.49" y1="703.74" x2="465.43" y2="697.33" xlink:href="#linear-gradient-5"/><linearGradient id="linear-gradient-8" x1="443.06" y1="724.4" x2="448.81" y2="716.28" xlink:href="#linear-gradient-6"/></defs><path class="cls-1" d="M217,273.39c-5.62,6.64-13.11,9.8-22.82,13.78a134.28,134.28,0,0,1-14.4,5c-7.22-2.52-13.06-5-17.29-6.89-14.1-6.36-17.64-9.88-19-11.29-3.26-3.5-7.36-7.83-6.07-11.76,3.34-10.19,36.63-9.73,44.71-9.62,10.18.14,37,.51,40.11,9.61C223.46,265.78,220.33,269.45,217,273.39Z" transform="translate(-93.17 -184.73)"/><path class="cls-2" d="M223.27,355.6c-9.17-10.56-26.12-18.29-41.21-18.8-15.85-.55-34.19,6.86-44.61,18-4.13,4.43-8.67,10.63-7.09,16.42,3.9,14.22,42.79,13.58,52.22,13.42,11.9-.19,43.28-.71,46.86-13.41C231,365.68,226.91,359.79,223.27,355.6Z" transform="translate(-93.17 -184.73)"/><path class="cls-3" d="M179.45,306.18c47.54-18.93,76.83-46.43,72.6-64.75-4.67-20.27-49.74-26.62-74.75-26.23-21.66.33-65.81,6.28-70.46,26.23C102.6,259.64,131.89,286.88,179.45,306.18Z" transform="translate(-93.17 -184.73)"/><path class="cls-4" d="M179.76,292.15a175.5,175.5,0,0,1-48.14-28.92l-21.34,15a159.72,159.72,0,0,0,38,27.69,178.59,178.59,0,0,1,18.47-9C171.25,295.08,175.62,293.49,179.76,292.15Z" transform="translate(-93.17 -184.73)"/><path class="cls-3" d="M179.18,306.53c-47.54,18.92-76.83,46.43-72.6,64.75,4.67,20.26,49.74,26.61,74.75,26.23,21.66-.33,65.81-6.28,70.46-26.23C256,353.06,226.74,325.83,179.18,306.53Z" transform="translate(-93.17 -184.73)"/><rect class="cls-5" x="50.5" y="0.99" width="13.53" height="240.56"/><path class="cls-6" d="M179.27,320.57c3.28,1.47,7.58,3.46,12.54,5.95.4.2,7.1,3.57,12.14,6.43a173.43,173.43,0,0,1,25.19,17.76l22.7-12.54a153.52,153.52,0,0,0-41.79-31.44c-5.47,2.87-11.37,5.74-17.7,8.51Q185.62,318.18,179.27,320.57Z" transform="translate(-93.17 -184.73)"/><rect class="cls-5" x="108.32" y="0.99" width="13.53" height="240.56"/><path class="cls-7" d="M186.46,288.92l-9.08,4c-1.28.49-2.34.86-3,1.08-8.46,3.2-14.86,6.06-18.25,7.71-4.62,2.25-8.44,4.48-8.44,4.48h0l-1.31.77c-.53.32-12.83,8-16.52,10.71-9.71,7.12-20.18,24.07-21.93,26.93l18.24,5.64c29.06-19.68,44.62-27.54,53.47-30.48.32-.11,1.73-.66,3.72-1.27a149.41,149.41,0,0,0,28-12.53l1.32-.78c6.61-4,18.06-11.76,36-27.91l-14.88-17.38C210.78,276.67,196,284.69,186.46,288.92Z" transform="translate(-93.17 -184.73)"/><path class="cls-8" d="M395.13,305.28c47.55-18.93,76.83-46.43,72.61-64.75C463.07,220.26,418,213.91,393,214.29c-21.66.33-65.81,6.29-70.45,26.24C318.29,258.74,347.57,286,395.13,305.28Z" transform="translate(-93.17 -184.73)"/><path class="cls-9" d="M395.44,291.25a176.2,176.2,0,0,1-48.14-28.92l-21.33,15a156.58,156.58,0,0,0,13.11,11.56A160.19,160.19,0,0,0,363.92,305a178.54,178.54,0,0,1,18.47-8.95C386.93,294.18,391.3,292.59,395.44,291.25Z" transform="translate(-93.17 -184.73)"/><path class="cls-8" d="M394.87,305.62c-47.55,18.93-76.83,46.44-72.61,64.75C326.93,390.64,372,397,397,396.61c21.66-.33,65.81-6.28,70.46-26.24C471.72,352.16,442.43,324.93,394.87,305.62Z" transform="translate(-93.17 -184.73)"/><rect class="cls-10" x="266.18" y="0.09" width="13.53" height="240.56"/><path class="cls-11" d="M395,319.67c3.29,1.47,7.58,3.46,12.54,5.95.4.2,7.11,3.57,12.14,6.43a172.88,172.88,0,0,1,25.19,17.76l22.7-12.55a154.24,154.24,0,0,0-41.78-31.44c-5.47,2.88-11.38,5.74-17.71,8.51Q401.31,317.29,395,319.67Z" transform="translate(-93.17 -184.73)"/><rect class="cls-10" x="324.01" y="0.09" width="13.53" height="240.56"/><path class="cls-10" d="M402.15,288l-9.08,4c-1.29.49-2.34.86-3,1.08-8.46,3.2-14.85,6.06-18.24,7.71-4.62,2.25-8.44,4.48-8.44,4.48h0l-1.3.77c-.53.32-12.83,8-16.52,10.7-9.72,7.12-20.19,24.07-21.94,26.93l18.24,5.65c29.06-19.68,44.62-27.54,53.47-30.48.33-.11,1.73-.66,3.72-1.27a149.87,149.87,0,0,0,28-12.53l1.32-.78c6.61-4,18.06-11.76,36-27.92L449.49,259C426.47,275.77,411.65,283.79,402.15,288Z" transform="translate(-93.17 -184.73)"/><path class="cls-8" d="M614.85,305.19c47.54-18.93,76.83-46.43,72.61-64.75-4.68-20.27-49.75-26.62-74.76-26.23-21.66.33-65.81,6.28-70.46,26.23C538,258.65,567.29,285.89,614.85,305.19Z" transform="translate(-93.17 -184.73)"/><path class="cls-12" d="M615.68,290.67l-23.08,9.56" transform="translate(-93.17 -184.73)"/><path class="cls-8" d="M614.58,305.54C567,324.46,537.75,352,542,370.29c4.67,20.26,49.74,26.61,74.75,26.23,21.66-.33,65.81-6.28,70.46-26.23C691.43,352.07,662.14,324.84,614.58,305.54Z" transform="translate(-93.17 -184.73)"/><rect class="cls-10" x="485.9" width="13.53" height="240.56"/><path class="cls-13" d="M615,321l26.51-10.83" transform="translate(-93.17 -184.73)"/><rect class="cls-10" x="543.72" width="13.53" height="240.56"/><path class="cls-10" d="M621.86,287.93l-9.07,4c-1.29.49-2.35.86-3,1.08-8.46,3.2-14.86,6.06-18.25,7.71-4.62,2.25-8.44,4.48-8.44,4.48h0l-1.31.77c-.53.32-12.83,8-16.52,10.71-9.71,7.12-20.18,24.07-21.93,26.93l18.24,5.64c29.06-19.68,44.62-27.54,53.47-30.48.32-.11,1.73-.66,3.72-1.27a149.41,149.41,0,0,0,28-12.53l1.32-.78c6.61-4,18.06-11.76,36-27.91l-14.88-17.38C646.18,275.68,631.36,283.7,621.86,287.93Z" transform="translate(-93.17 -184.73)"/></svg>