<?xml version="1.0" encoding="UTF-8" standalone="no"?><svg xmlns="http://www.w3.org/2000/svg" xmlns:xlink="http://www.w3.org/1999/xlink" contentStyleType="text/css" height="781px" preserveAspectRatio="none" style="width:430px;height:781px;background:#FFFFFF;" version="1.1" viewBox="0 0 430 781" width="430px" zoomAndPan="magnify"><defs/><g><ellipse cx="218.5" cy="20" fill="#222222" rx="10" ry="10" style="stroke:#222222;stroke-width:1.0;"/><rect fill="#E8E8EA" height="42" rx="12.5" ry="12.5" style="stroke:#202024;stroke-width:0.5;" width="119" x="159" y="50"/><text fill="#000033" font-family="Helvetica" font-size="11" lengthAdjust="spacing" textLength="99" x="169" y="68.4702">Receive result array</text><text fill="#000033" font-family="Helvetica" font-size="11" lengthAdjust="spacing" textLength="70" x="172" y="79.4702">of users/tallies</text><polygon fill="#E8E8EA" points="89,272.9702,166,272.9702,178,284.9702,166,296.9702,89,296.9702,77,284.9702,89,272.9702" style="stroke:#202024;stroke-width:0.5;"/><text fill="#333333" font-family="Helvetica" font-size="11" lengthAdjust="spacing" textLength="18" x="131.5" y="305.4404">yes</text><text fill="#000033" font-family="Helvetica" font-size="11" lengthAdjust="spacing" textLength="77" x="89" y="287.9404">foreign partner?</text><rect fill="#E8E8EA" height="42" rx="12.5" ry="12.5" style="stroke:#202024;stroke-width:0.5;" width="133" x="61" y="326.9404"/><text fill="#000033" font-family="Helvetica" font-size="11" lengthAdjust="spacing" textLength="113" x="71" y="345.4106">Build foreign node body</text><text fill="#000033" font-family="Helvetica" font-size="11" lengthAdjust="spacing" textLength="102" x="71" y="356.4106">(if not already exists)</text><polygon fill="#E8E8EA" points="226,272.9702,314,272.9702,326,284.9702,314,296.9702,226,296.9702,214,284.9702,226,272.9702" style="stroke:#202024;stroke-width:0.5;"/><text fill="#333333" font-family="Helvetica" font-size="11" lengthAdjust="spacing" textLength="12" x="274" y="305.4404">no</text><text fill="#000033" font-family="Helvetica" font-size="11" lengthAdjust="spacing" textLength="68" x="226" y="282.4404">partner (local)</text><text fill="#000033" font-family="Helvetica" font-size="11" lengthAdjust="spacing" textLength="88" x="226" y="293.4404">already on graph?</text><text fill="#333333" font-family="Helvetica" font-size="11" lengthAdjust="spacing" textLength="18" x="326" y="282.4404">yes</text><rect fill="#E8E8EA" height="53" rx="12.5" ry="12.5" style="stroke:#202024;stroke-width:0.5;" width="98" x="221" y="326.9404"/><text fill="#000033" font-family="Helvetica" font-size="11" lengthAdjust="spacing" textLength="52" x="231" y="345.4106">Do nothing</text><text fill="#000033" font-family="Helvetica" font-size="11" lengthAdjust="spacing" textLength="78" x="231" y="356.4106">(wait to process</text><text fill="#000033" font-family="Helvetica" font-size="11" lengthAdjust="spacing" textLength="64" x="231" y="367.4106">local partner)</text><rect fill="#E8E8EA" height="31" rx="12.5" ry="12.5" style="stroke:#202024;stroke-width:0.5;" width="177" x="130" y="453.9404"/><text fill="#000033" font-family="Helvetica" font-size="11" lengthAdjust="spacing" textLength="157" x="140" y="472.4106">Build pie slice shade/parameters</text><rect fill="#E8E8EA" height="42" rx="12.5" ry="12.5" style="stroke:#202024;stroke-width:0.5;" width="118" x="159.5" y="504.9404"/><text fill="#000033" font-family="Helvetica" font-size="11" lengthAdjust="spacing" textLength="85" x="169.5" y="523.4106">Build edge record</text><text fill="#000033" font-family="Helvetica" font-size="11" lengthAdjust="spacing" textLength="98" x="169.5" y="534.4106">push to edges array</text><polygon fill="#E8E8EA" points="188.5,219,248.5,219,260.5,231,248.5,243,188.5,243,176.5,231,188.5,219" style="stroke:#202024;stroke-width:0.5;"/><text fill="#333333" font-family="Helvetica" font-size="11" lengthAdjust="spacing" textLength="55" x="222.5" y="251.4702">more tallies</text><text fill="#000033" font-family="Helvetica" font-size="11" lengthAdjust="spacing" textLength="56" x="188.5" y="228.4702">For each of</text><text fill="#000033" font-family="Helvetica" font-size="11" lengthAdjust="spacing" textLength="60" x="188.5" y="239.4702">user's tallies</text><text fill="#333333" font-family="Helvetica" font-size="11" lengthAdjust="spacing" textLength="54" x="122.5" y="228.4702">tallies done</text><rect fill="#E8E8EA" height="31" rx="12.5" ry="12.5" style="stroke:#202024;stroke-width:0.5;" width="122" x="157.5" y="588.9404"/><text fill="#000033" font-family="Helvetica" font-size="11" lengthAdjust="spacing" textLength="102" x="167.5" y="607.4106">Build user node body</text><rect fill="#E8E8EA" height="64" rx="12.5" ry="12.5" style="stroke:#202024;stroke-width:0.5;" width="121" x="158" y="639.9404"/><text fill="#000033" font-family="Helvetica" font-size="11" lengthAdjust="spacing" textLength="101" x="168" y="658.4106">Add/update to graph:</text><text fill="#000033" font-family="Helvetica" font-size="11" lengthAdjust="spacing" textLength="22" x="174" y="669.4106">user</text><text fill="#000033" font-family="Helvetica" font-size="11" lengthAdjust="spacing" textLength="22" x="174" y="680.4106">peer</text><text fill="#000033" font-family="Helvetica" font-size="11" lengthAdjust="spacing" textLength="30" x="174" y="691.4106">edges</text><polygon fill="#E8E8EA" points="192.5,171,244.5,171,256.5,183,244.5,195,192.5,195,180.5,183,192.5,171" style="stroke:#202024;stroke-width:0.5;"/><text fill="#333333" font-family="Helvetica" font-size="11" lengthAdjust="spacing" textLength="18" x="222.5" y="203.4702">yes</text><text fill="#000033" font-family="Helvetica" font-size="11" lengthAdjust="spacing" textLength="52" x="192.5" y="180.4702">user/tallies</text><text fill="#000033" font-family="Helvetica" font-size="11" lengthAdjust="spacing" textLength="48" x="192.5" y="191.4702">changed?</text><polygon fill="#E8E8EA" points="218.5,723.9404,230.5,735.9404,218.5,747.9404,206.5,735.9404,218.5,723.9404" style="stroke:#202024;stroke-width:0.5;"/><polygon fill="#E8E8EA" points="184,112,253,112,265,124,253,136,184,136,172,124,184,112" style="stroke:#202024;stroke-width:0.5;"/><text fill="#333333" font-family="Helvetica" font-size="11" lengthAdjust="spacing" textLength="56" x="222.5" y="144.4702">more users</text><text fill="#000033" font-family="Helvetica" font-size="11" lengthAdjust="spacing" textLength="69" x="184" y="121.4702">For each user</text><text fill="#000033" font-family="Helvetica" font-size="11" lengthAdjust="spacing" textLength="59" x="184" y="132.4702">and tally-set</text><text fill="#333333" font-family="Helvetica" font-size="11" lengthAdjust="spacing" textLength="55" x="117" y="121.4702">users done</text><ellipse cx="24" cy="171" fill="none" rx="11" ry="11" style="stroke:#222222;stroke-width:1.0;"/><ellipse cx="24" cy="171" fill="#222222" rx="6" ry="6" style="stroke:#111111;stroke-width:1.0;"/><line style="stroke:#000000;stroke-width:1.0;" x1="218.5" x2="218.5" y1="30" y2="50"/><polygon fill="#000000" points="214.5,40,218.5,50,222.5,40,218.5,44" style="stroke:#000000;stroke-width:1.0;"/><line style="stroke:#000000;stroke-width:1.0;" x1="127.5" x2="127.5" y1="296.9702" y2="326.9404"/><polygon fill="#000000" points="123.5,316.9404,127.5,326.9404,131.5,316.9404,127.5,320.9404" style="stroke:#000000;stroke-width:1.0;"/><line style="stroke:#000000;stroke-width:1.0;" x1="127.5" x2="127.5" y1="368.9404" y2="423.9404"/><polygon fill="#000000" points="123.5,413.9404,127.5,423.9404,131.5,413.9404,127.5,417.9404" style="stroke:#000000;stroke-width:1.0;"/><line style="stroke:#000000;stroke-width:1.0;" x1="270" x2="270" y1="296.9702" y2="326.9404"/><polygon fill="#000000" points="266,316.9404,270,326.9404,274,316.9404,270,320.9404" style="stroke:#000000;stroke-width:1.0;"/><line style="stroke:#000000;stroke-width:1.0;" x1="270" x2="270" y1="379.9404" y2="423.9404"/><polygon fill="#000000" points="266,413.9404,270,423.9404,274,413.9404,270,417.9404" style="stroke:#000000;stroke-width:1.0;"/><line style="stroke:#000000;stroke-width:1.0;" x1="178" x2="214" y1="284.9702" y2="284.9702"/><polygon fill="#000000" points="204,280.9702,214,284.9702,204,288.9702,208,284.9702" style="stroke:#000000;stroke-width:1.0;"/><line style="stroke:#000000;stroke-width:1.0;" x1="218.5" x2="218.5" y1="243" y2="257.9702"/><line style="stroke:#000000;stroke-width:1.0;" x1="218.5" x2="127.5" y1="257.9702" y2="257.9702"/><line style="stroke:#000000;stroke-width:1.0;" x1="127.5" x2="127.5" y1="257.9702" y2="272.9702"/><polygon fill="#000000" points="123.5,262.9702,127.5,272.9702,131.5,262.9702,127.5,266.9702" style="stroke:#000000;stroke-width:1.0;"/><line style="stroke:#000000;stroke-width:1.0;" x1="326" x2="358" y1="284.9702" y2="284.9702"/><line style="stroke:#000000;stroke-width:1.0;" x1="358" x2="358" y1="284.9702" y2="423.9404"/><polygon fill="#000000" points="354,413.9404,358,423.9404,362,413.9404,358,417.9404" style="stroke:#000000;stroke-width:1.0;"/><line style="stroke:#000000;stroke-width:1.0;" x1="127.5" x2="358" y1="423.9404" y2="423.9404"/><line style="stroke:#000000;stroke-width:1.0;" x1="218.5" x2="218.5" y1="423.9404" y2="453.9404"/><polygon fill="#000000" points="214.5,443.9404,218.5,453.9404,222.5,443.9404,218.5,447.9404" style="stroke:#000000;stroke-width:1.0;"/><line style="stroke:#000000;stroke-width:1.0;" x1="218.5" x2="218.5" y1="484.9404" y2="504.9404"/><polygon fill="#000000" points="214.5,494.9404,218.5,504.9404,222.5,494.9404,218.5,498.9404" style="stroke:#000000;stroke-width:1.0;"/><line style="stroke:#000000;stroke-width:1.0;" x1="218.5" x2="218.5" y1="546.9404" y2="556.9404"/><line style="stroke:#000000;stroke-width:1.0;" x1="218.5" x2="376" y1="556.9404" y2="556.9404"/><polygon fill="#000000" points="372,403.9404,376,393.9404,380,403.9404,376,399.9404" style="stroke:#000000;stroke-width:1.0;"/><line style="stroke:#000000;stroke-width:1.0;" x1="376" x2="376" y1="231" y2="556.9404"/><line style="stroke:#000000;stroke-width:1.0;" x1="376" x2="260.5" y1="231" y2="231"/><polygon fill="#000000" points="270.5,227,260.5,231,270.5,235,266.5,231" style="stroke:#000000;stroke-width:1.0;"/><line style="stroke:#000000;stroke-width:1.0;" x1="176.5" x2="49" y1="231" y2="231"/><polygon fill="#000000" points="45,389.9404,49,399.9404,53,389.9404,49,393.9404" style="stroke:#000000;stroke-width:1.0;"/><line style="stroke:#000000;stroke-width:1.0;" x1="49" x2="49" y1="231" y2="568.9404"/><line style="stroke:#000000;stroke-width:1.0;" x1="49" x2="218.5" y1="568.9404" y2="568.9404"/><line style="stroke:#000000;stroke-width:1.0;" x1="218.5" x2="218.5" y1="568.9404" y2="588.9404"/><polygon fill="#000000" points="214.5,578.9404,218.5,588.9404,222.5,578.9404,218.5,582.9404" style="stroke:#000000;stroke-width:1.0;"/><line style="stroke:#000000;stroke-width:1.0;" x1="218.5" x2="218.5" y1="619.9404" y2="639.9404"/><polygon fill="#000000" points="214.5,629.9404,218.5,639.9404,222.5,629.9404,218.5,633.9404" style="stroke:#000000;stroke-width:1.0;"/><line style="stroke:#000000;stroke-width:1.0;" x1="218.5" x2="218.5" y1="195" y2="219"/><polygon fill="#000000" points="214.5,209,218.5,219,222.5,209,218.5,213" style="stroke:#000000;stroke-width:1.0;"/><line style="stroke:#000000;stroke-width:1.0;" x1="256.5" x2="386" y1="183" y2="183"/><polygon fill="#000000" points="382,441.4404,386,451.4404,390,441.4404,386,445.4404" style="stroke:#000000;stroke-width:1.0;"/><line style="stroke:#000000;stroke-width:1.0;" x1="386" x2="386" y1="183" y2="735.9404"/><line style="stroke:#000000;stroke-width:1.0;" x1="386" x2="230.5" y1="735.9404" y2="735.9404"/><polygon fill="#000000" points="240.5,731.9404,230.5,735.9404,240.5,739.9404,236.5,735.9404" style="stroke:#000000;stroke-width:1.0;"/><line style="stroke:#000000;stroke-width:1.0;" x1="218.5" x2="218.5" y1="703.9404" y2="723.9404"/><polygon fill="#000000" points="214.5,713.9404,218.5,723.9404,222.5,713.9404,218.5,717.9404" style="stroke:#000000;stroke-width:1.0;"/><line style="stroke:#000000;stroke-width:1.0;" x1="218.5" x2="218.5" y1="136" y2="171"/><polygon fill="#000000" points="214.5,161,218.5,171,222.5,161,218.5,165" style="stroke:#000000;stroke-width:1.0;"/><line style="stroke:#000000;stroke-width:1.0;" x1="218.5" x2="218.5" y1="747.9404" y2="757.9404"/><line style="stroke:#000000;stroke-width:1.0;" x1="218.5" x2="404" y1="757.9404" y2="757.9404"/><polygon fill="#000000" points="400,443.9404,404,433.9404,408,443.9404,404,439.9404" style="stroke:#000000;stroke-width:1.0;"/><line style="stroke:#000000;stroke-width:1.0;" x1="404" x2="404" y1="124" y2="757.9404"/><line style="stroke:#000000;stroke-width:1.0;" x1="404" x2="265" y1="124" y2="124"/><polygon fill="#000000" points="275,120,265,124,275,128,271,124" style="stroke:#000000;stroke-width:1.0;"/><line style="stroke:#000000;stroke-width:1.0;" x1="172" x2="24" y1="124" y2="124"/><line style="stroke:#000000;stroke-width:1.0;" x1="24" x2="24" y1="124" y2="160"/><polygon fill="#000000" points="20,150,24,160,28,150,24,154" style="stroke:#000000;stroke-width:1.0;"/><line style="stroke:#000000;stroke-width:1.0;" x1="218.5" x2="218.5" y1="92" y2="112"/><polygon fill="#000000" points="214.5,102,218.5,112,222.5,102,218.5,106" style="stroke:#000000;stroke-width:1.0;"/><!--SRC=[NP8zSjmm38LxdWAfB1NnzjeYuqp61qYjXYOXYMCAuF1dD-lJ6vIuzYegf149l0zumDEhvokOHSSC4qVGTdK4XFdAyHqkBXNjtGV60L8qfnBbvlbIKFrmP7on28RNbUavbDKhbRBeA3NyHOFkWX0n5Pz1nwXl8m5FK1B6TChQUuVfhDHrSHwXUnKqQhDizoDfib1ZRZyJvXvSWcxbY7jshm3S15tzkIkD92tGZFPN3tb1Wkw64YYH0FyZU1gfvZubQDaFXFl9bhbpn1PqCq6GtWZZaG3j6NuNvotSOud5cZUsqdKd6iHYWe-exGtmdqivzUUMYZvXfJHrw3mRxNlneCKpmHnrMBwun0_OFrp55qUpaAxQPSWC8RB19APiMlV23yX3-KZMJUhGI708oJiZxqLRF8c6NZ6B_UTZ8Dgvpjbmj2E5afPQG3rC-zZtS26qCJI3mJBXpbSFQdKkt-RjkSEBjQSIhCvOjJSp1jccjYi00VVlHZtNeUyDVKEtlMb8ML8Edm00]--></g></svg>