<?xml version="1.0" encoding="UTF-8" standalone="no"?><svg xmlns="http://www.w3.org/2000/svg" xmlns:xlink="http://www.w3.org/1999/xlink" contentScriptType="application/ecmascript" contentStyleType="text/css" height="792px" preserveAspectRatio="none" style="width:438px;height:792px;background:#FFFFFF;" version="1.1" viewBox="0 0 438 792" width="438px" zoomAndPan="magnify"><defs><filter height="300%" id="f1fnmquluzxgi7" width="300%" x="-1" y="-1"><feGaussianBlur result="blurOut" stdDeviation="2.0"/><feColorMatrix in="blurOut" result="blurOut2" type="matrix" values="0 0 0 0 0 0 0 0 0 0 0 0 0 0 0 0 0 0 .4 0"/><feOffset dx="4.0" dy="4.0" in="blurOut2" result="blurOut3"/><feBlend in="SourceGraphic" in2="blurOut3" mode="normal"/></filter></defs><g><ellipse cx="222.5" cy="20" fill="#000000" filter="url(#f1fnmquluzxgi7)" rx="10" ry="10" style="stroke:none;stroke-width:1.0;"/><rect fill="#E8E8EA" filter="url(#f1fnmquluzxgi7)" height="42" rx="12.5" ry="12.5" style="stroke:#202024;stroke-width:1.5;" width="119" x="163" y="50"/><text fill="#000033" font-family="Helvetica" font-size="11" lengthAdjust="spacing" textLength="99" x="173" y="68.4702">Receive result array</text><text fill="#000033" font-family="Helvetica" font-size="11" lengthAdjust="spacing" textLength="70" x="176" y="79.4702">of users/tallies</text><polygon fill="#FEFECE" filter="url(#f1fnmquluzxgi7)" points="84,278.7007,171,278.7007,183,290.7007,171,302.7007,84,302.7007,72,290.7007,84,278.7007" style="stroke:#A80036;stroke-width:1.5;"/><text fill="#333333" font-family="Helvetica" font-size="11" lengthAdjust="spacing" textLength="18" x="131.5" y="311.1709">yes</text><text fill="#000000" font-family="sans-serif" font-size="11" lengthAdjust="spacing" textLength="87" x="84" y="294.8579">foreign partner?</text><rect fill="#E8E8EA" filter="url(#f1fnmquluzxgi7)" height="42" rx="12.5" ry="12.5" style="stroke:#202024;stroke-width:1.5;" width="133" x="61" y="333.626"/><text fill="#000033" font-family="Helvetica" font-size="11" lengthAdjust="spacing" textLength="113" x="71" y="352.0962">Build foreign node body</text><text fill="#000033" font-family="Helvetica" font-size="11" lengthAdjust="spacing" textLength="102" x="71" y="363.0962">(if not already exists)</text><polygon fill="#FEFECE" filter="url(#f1fnmquluzxgi7)" points="226,277.7456,322,277.7456,334,290.7007,322,303.6558,226,303.6558,214,290.7007,226,277.7456" style="stroke:#A80036;stroke-width:1.5;"/><text fill="#333333" font-family="Helvetica" font-size="11" lengthAdjust="spacing" textLength="12" x="278" y="312.126">no</text><text fill="#000000" font-family="sans-serif" font-size="11" lengthAdjust="spacing" textLength="76" x="226" y="288.3804">partner (local)</text><text fill="#000000" font-family="sans-serif" font-size="11" lengthAdjust="spacing" textLength="96" x="226" y="301.3354">already on graph?</text><text fill="#333333" font-family="Helvetica" font-size="11" lengthAdjust="spacing" textLength="18" x="334" y="288.1709">yes</text><rect fill="#E8E8EA" filter="url(#f1fnmquluzxgi7)" height="53" rx="12.5" ry="12.5" style="stroke:#202024;stroke-width:1.5;" width="98" x="225" y="334.5811"/><text fill="#000033" font-family="Helvetica" font-size="11" lengthAdjust="spacing" textLength="52" x="235" y="353.0513">Do nothing</text><text fill="#000033" font-family="Helvetica" font-size="11" lengthAdjust="spacing" textLength="78" x="235" y="364.0513">(wait to process</text><text fill="#000033" font-family="Helvetica" font-size="11" lengthAdjust="spacing" textLength="64" x="235" y="375.0513">local partner)</text><rect fill="#E8E8EA" filter="url(#f1fnmquluzxgi7)" height="31" rx="12.5" ry="12.5" style="stroke:#202024;stroke-width:1.5;" width="177" x="134" y="464.9238"/><text fill="#000033" font-family="Helvetica" font-size="11" lengthAdjust="spacing" textLength="157" x="144" y="483.394">Build pie slice shade/parameters</text><rect fill="#E8E8EA" filter="url(#f1fnmquluzxgi7)" height="42" rx="12.5" ry="12.5" style="stroke:#202024;stroke-width:1.5;" width="118" x="163.5" y="515.9238"/><text fill="#000033" font-family="Helvetica" font-size="11" lengthAdjust="spacing" textLength="85" x="173.5" y="534.394">Build edge record</text><text fill="#000033" font-family="Helvetica" font-size="11" lengthAdjust="spacing" textLength="98" x="173.5" y="545.394">push to edges array</text><polygon fill="#FEFECE" filter="url(#f1fnmquluzxgi7)" points="189,222.8203,256,222.8203,268,235.7754,256,248.7305,189,248.7305,177,235.7754,189,222.8203" style="stroke:#A80036;stroke-width:1.5;"/><text fill="#333333" font-family="Helvetica" font-size="11" lengthAdjust="spacing" textLength="55" x="226.5" y="257.2007">more tallies</text><text fill="#000000" font-family="sans-serif" font-size="11" lengthAdjust="spacing" textLength="60" x="189" y="233.4551">For each of</text><text fill="#000000" font-family="sans-serif" font-size="11" lengthAdjust="spacing" textLength="67" x="189" y="246.4102">user's tallies</text><text fill="#333333" font-family="Helvetica" font-size="11" lengthAdjust="spacing" textLength="54" x="123" y="233.2456">tallies done</text><rect fill="#E8E8EA" filter="url(#f1fnmquluzxgi7)" height="31" rx="12.5" ry="12.5" style="stroke:#202024;stroke-width:1.5;" width="122" x="161.5" y="599.9238"/><text fill="#000033" font-family="Helvetica" font-size="11" lengthAdjust="spacing" textLength="102" x="171.5" y="618.394">Build user node body</text><rect fill="#E8E8EA" filter="url(#f1fnmquluzxgi7)" height="64" rx="12.5" ry="12.5" style="stroke:#202024;stroke-width:1.5;" width="121" x="162" y="650.9238"/><text fill="#000033" font-family="Helvetica" font-size="11" lengthAdjust="spacing" textLength="101" x="172" y="669.394">Add/update to graph:</text><text fill="#000033" font-family="Helvetica" font-size="11" lengthAdjust="spacing" textLength="22" x="178" y="680.394">user</text><text fill="#000033" font-family="Helvetica" font-size="11" lengthAdjust="spacing" textLength="22" x="178" y="691.394">peer</text><text fill="#000033" font-family="Helvetica" font-size="11" lengthAdjust="spacing" textLength="30" x="178" y="702.394">edges</text><polygon fill="#FEFECE" filter="url(#f1fnmquluzxgi7)" points="192,172.9102,253,172.9102,265,185.8652,253,198.8203,192,198.8203,180,185.8652,192,172.9102" style="stroke:#A80036;stroke-width:1.5;"/><text fill="#333333" font-family="Helvetica" font-size="11" lengthAdjust="spacing" textLength="18" x="226.5" y="207.2905">yes</text><text fill="#000000" font-family="sans-serif" font-size="11" lengthAdjust="spacing" textLength="61" x="192" y="183.5449">user/tallies</text><text fill="#000000" font-family="sans-serif" font-size="11" lengthAdjust="spacing" textLength="51" x="192" y="196.5">changed?</text><polygon fill="#FEFECE" filter="url(#f1fnmquluzxgi7)" points="222.5,734.9238,234.5,746.9238,222.5,758.9238,210.5,746.9238,222.5,734.9238" style="stroke:#A80036;stroke-width:1.5;"/><polygon fill="#FEFECE" filter="url(#f1fnmquluzxgi7)" points="186,112,259,112,271,124.9551,259,137.9102,186,137.9102,174,124.9551,186,112" style="stroke:#A80036;stroke-width:1.5;"/><text fill="#333333" font-family="Helvetica" font-size="11" lengthAdjust="spacing" textLength="56" x="226.5" y="146.3804">more users</text><text fill="#000000" font-family="sans-serif" font-size="11" lengthAdjust="spacing" textLength="73" x="186" y="122.6348">For each user</text><text fill="#000000" font-family="sans-serif" font-size="11" lengthAdjust="spacing" textLength="67" x="186" y="135.5898">and tally-set</text><text fill="#333333" font-family="Helvetica" font-size="11" lengthAdjust="spacing" textLength="55" x="119" y="122.4253">users done</text><ellipse cx="24" cy="171" fill="#FFFFFF" filter="url(#f1fnmquluzxgi7)" rx="11" ry="11" style="stroke:#000000;stroke-width:1.0;"/><ellipse cx="24" cy="171" fill="#000000" rx="6" ry="6" style="stroke:#7F7F7F;stroke-width:1.0;"/><line style="stroke:#000000;stroke-width:1.5;" x1="222.5" x2="222.5" y1="30" y2="50"/><polygon fill="#000000" points="218.5,40,222.5,50,226.5,40,222.5,44" style="stroke:#000000;stroke-width:1.0;"/><line style="stroke:#000000;stroke-width:1.5;" x1="127.5" x2="127.5" y1="302.7007" y2="333.626"/><polygon fill="#000000" points="123.5,323.626,127.5,333.626,131.5,323.626,127.5,327.626" style="stroke:#000000;stroke-width:1.0;"/><line style="stroke:#000000;stroke-width:1.5;" x1="127.5" x2="127.5" y1="375.626" y2="431.5811"/><polygon fill="#000000" points="123.5,421.5811,127.5,431.5811,131.5,421.5811,127.5,425.5811" style="stroke:#000000;stroke-width:1.0;"/><line style="stroke:#000000;stroke-width:1.5;" x1="274" x2="274" y1="303.6558" y2="334.5811"/><polygon fill="#000000" points="270,324.5811,274,334.5811,278,324.5811,274,328.5811" style="stroke:#000000;stroke-width:1.0;"/><line style="stroke:#000000;stroke-width:1.5;" x1="274" x2="274" y1="387.5811" y2="431.5811"/><polygon fill="#000000" points="270,421.5811,274,431.5811,278,421.5811,274,425.5811" style="stroke:#000000;stroke-width:1.0;"/><line style="stroke:#000000;stroke-width:1.5;" x1="183" x2="214" y1="290.7007" y2="290.7007"/><polygon fill="#000000" points="204,286.7007,214,290.7007,204,294.7007,208,290.7007" style="stroke:#000000;stroke-width:1.0;"/><line style="stroke:#000000;stroke-width:1.5;" x1="222.5" x2="222.5" y1="248.7305" y2="263.7007"/><line style="stroke:#000000;stroke-width:1.5;" x1="222.5" x2="127.5" y1="263.7007" y2="263.7007"/><line style="stroke:#000000;stroke-width:1.5;" x1="127.5" x2="127.5" y1="263.7007" y2="278.7007"/><polygon fill="#000000" points="123.5,268.7007,127.5,278.7007,131.5,268.7007,127.5,272.7007" style="stroke:#000000;stroke-width:1.0;"/><line style="stroke:#000000;stroke-width:1.5;" x1="334" x2="366" y1="290.7007" y2="290.7007"/><line style="stroke:#000000;stroke-width:1.5;" x1="366" x2="366" y1="290.7007" y2="431.5811"/><polygon fill="#000000" points="362,421.5811,366,431.5811,370,421.5811,366,425.5811" style="stroke:#000000;stroke-width:1.0;"/><line style="stroke:#000000;stroke-width:1.5;" x1="127.5" x2="366" y1="431.5811" y2="431.5811"/><line style="stroke:#000000;stroke-width:1.5;" x1="222.5" x2="222.5" y1="431.5811" y2="464.9238"/><polygon fill="#000000" points="218.5,454.9238,222.5,464.9238,226.5,454.9238,222.5,458.9238" style="stroke:#000000;stroke-width:1.0;"/><line style="stroke:#000000;stroke-width:1.5;" x1="222.5" x2="222.5" y1="495.9238" y2="515.9238"/><polygon fill="#000000" points="218.5,505.9238,222.5,515.9238,226.5,505.9238,222.5,509.9238" style="stroke:#000000;stroke-width:1.0;"/><line style="stroke:#000000;stroke-width:1.5;" x1="222.5" x2="222.5" y1="557.9238" y2="567.9238"/><line style="stroke:#000000;stroke-width:1.5;" x1="222.5" x2="384" y1="567.9238" y2="567.9238"/><polygon fill="#000000" points="380,411.5811,384,401.5811,388,411.5811,384,407.5811" style="stroke:#000000;stroke-width:1.5;"/><line style="stroke:#000000;stroke-width:1.5;" x1="384" x2="384" y1="235.7754" y2="567.9238"/><line style="stroke:#000000;stroke-width:1.5;" x1="384" x2="268" y1="235.7754" y2="235.7754"/><polygon fill="#000000" points="278,231.7754,268,235.7754,278,239.7754,274,235.7754" style="stroke:#000000;stroke-width:1.0;"/><line style="stroke:#000000;stroke-width:1.5;" x1="177" x2="49" y1="235.7754" y2="235.7754"/><polygon fill="#000000" points="45,397.5811,49,407.5811,53,397.5811,49,401.5811" style="stroke:#000000;stroke-width:1.5;"/><line style="stroke:#000000;stroke-width:1.5;" x1="49" x2="49" y1="235.7754" y2="579.9238"/><line style="stroke:#000000;stroke-width:1.5;" x1="49" x2="222.5" y1="579.9238" y2="579.9238"/><line style="stroke:#000000;stroke-width:1.5;" x1="222.5" x2="222.5" y1="579.9238" y2="599.9238"/><polygon fill="#000000" points="218.5,589.9238,222.5,599.9238,226.5,589.9238,222.5,593.9238" style="stroke:#000000;stroke-width:1.0;"/><line style="stroke:#000000;stroke-width:1.5;" x1="222.5" x2="222.5" y1="630.9238" y2="650.9238"/><polygon fill="#000000" points="218.5,640.9238,222.5,650.9238,226.5,640.9238,222.5,644.9238" style="stroke:#000000;stroke-width:1.0;"/><line style="stroke:#000000;stroke-width:1.5;" x1="222.5" x2="222.5" y1="198.8203" y2="222.8203"/><polygon fill="#000000" points="218.5,212.8203,222.5,222.8203,226.5,212.8203,222.5,216.8203" style="stroke:#000000;stroke-width:1.0;"/><line style="stroke:#000000;stroke-width:1.5;" x1="265" x2="394" y1="185.8652" y2="185.8652"/><polygon fill="#000000" points="390,450.0361,394,460.0361,398,450.0361,394,454.0361" style="stroke:#000000;stroke-width:1.5;"/><line style="stroke:#000000;stroke-width:1.5;" x1="394" x2="394" y1="185.8652" y2="746.9238"/><line style="stroke:#000000;stroke-width:1.5;" x1="394" x2="234.5" y1="746.9238" y2="746.9238"/><polygon fill="#000000" points="244.5,742.9238,234.5,746.9238,244.5,750.9238,240.5,746.9238" style="stroke:#000000;stroke-width:1.0;"/><line style="stroke:#000000;stroke-width:1.5;" x1="222.5" x2="222.5" y1="714.9238" y2="734.9238"/><polygon fill="#000000" points="218.5,724.9238,222.5,734.9238,226.5,724.9238,222.5,728.9238" style="stroke:#000000;stroke-width:1.0;"/><line style="stroke:#000000;stroke-width:1.5;" x1="222.5" x2="222.5" y1="137.9102" y2="172.9102"/><polygon fill="#000000" points="218.5,162.9102,222.5,172.9102,226.5,162.9102,222.5,166.9102" style="stroke:#000000;stroke-width:1.0;"/><line style="stroke:#000000;stroke-width:1.5;" x1="222.5" x2="222.5" y1="758.9238" y2="768.9238"/><line style="stroke:#000000;stroke-width:1.5;" x1="222.5" x2="412" y1="768.9238" y2="768.9238"/><polygon fill="#000000" points="408,451.5811,412,441.5811,416,451.5811,412,447.5811" style="stroke:#000000;stroke-width:1.5;"/><line style="stroke:#000000;stroke-width:1.5;" x1="412" x2="412" y1="124.9551" y2="768.9238"/><line style="stroke:#000000;stroke-width:1.5;" x1="412" x2="271" y1="124.9551" y2="124.9551"/><polygon fill="#000000" points="281,120.9551,271,124.9551,281,128.9551,277,124.9551" style="stroke:#000000;stroke-width:1.0;"/><line style="stroke:#000000;stroke-width:1.5;" x1="174" x2="24" y1="124.9551" y2="124.9551"/><line style="stroke:#000000;stroke-width:1.5;" x1="24" x2="24" y1="124.9551" y2="160"/><polygon fill="#000000" points="20,150,24,160,28,150,24,154" style="stroke:#000000;stroke-width:1.0;"/><line style="stroke:#000000;stroke-width:1.5;" x1="222.5" x2="222.5" y1="92" y2="112"/><polygon fill="#000000" points="218.5,102,222.5,112,226.5,102,222.5,106" style="stroke:#000000;stroke-width:1.0;"/><!--MD5=[9a7c07523f22c0e97d1237ec3cbe6185]
@startuml
'Flow chart for admin network visualizer: src/urnet.vue
!include common.puml

start

:Receive result array\n of users/tallies;

while (For each user\nand tally-set) is (more users)
  if (user/tallies\nchanged?) then (yes)

    while (For each of\nuser's tallies) is (more tallies)
      if (foreign partner?) then (yes)
        :Build foreign node body\n(if not already exists);
      elseif (partner (local)\nalready on graph?) then (no)
        :Do nothing\n(wait to process\nlocal partner);
      else (yes)
      endif
      :Build pie slice shade/parameters;
      :Build edge record\npush to edges array;
    endwhile (tallies done)
    
    :Build user node body;
    :Add/update to graph:\n  user\n  peer\n  edges;

  endif
endwhile (users done)

stop
@enduml

@startuml



skinparam backgroundColor fff
skinparam stereotypeCBackgroundColor 27d






skinparam circledCharacter {
  radius 8
  fontSize 11
  fontName Helvetica
}

skinparam class {
    backgroundColor e8e8ea
  borderColor 202024
    fontColor 003
  fontName Helvetica
  fontSize 11
  stereotypeFontColor 333
  stereotypeFontSize 11
    arrowColor 000
  arrowFontName Helvetica
  arrowFontColor 333
  arrowFontSize 11

  attributeFontColor 333
  attributeFontSize 11
  attributeIconSize 11
}

skinparam actor {
    backgroundColor 4af
  borderColor 27d
    fontColor 003
  fontName Helvetica
  fontSize 11
  stereotypeFontColor 333
  stereotypeFontSize 11
}

skinparam participant {
    backgroundColor e8e8ea
  borderColor 202024
    fontColor 003
  fontName Helvetica
  fontSize 11
  stereotypeFontColor 333
  stereotypeFontSize 11
}

skinparam collections {
    backgroundColor e8e8ea
  borderColor 202024
    fontColor 003
  fontName Helvetica
  fontSize 11
  stereotypeFontColor 333
  stereotypeFontSize 11
}

skinparam SequenceBox{
    backgroundColor e0e0e0
  borderColor cccccc
    fontColor 003
  fontName Helvetica
  fontSize 11
  stereotypeFontColor 333
  stereotypeFontSize 11
}

skinparam interface {
    backgroundColor 4af
  borderColor 27d
    fontColor 003
  fontName Helvetica
  fontSize 11
  stereotypeFontColor 333
  stereotypeFontSize 11
}

skinparam component {
    backgroundColor e8e8ea
  borderColor 202024
    fontColor 003
  fontName Helvetica
  fontSize 11
  stereotypeFontColor 333
  stereotypeFontSize 11
}



skinparam queue {
    backgroundColor e8e8ea
  borderColor 202024
    fontColor 003
  fontName Helvetica
  fontSize 11
  stereotypeFontColor 333
  stereotypeFontSize 11
}


skinparam usecase {
    backgroundColor e8e8ea
  borderColor 202024
    fontColor 003
  fontName Helvetica
  fontSize 11
  stereotypeFontColor 333
  stereotypeFontSize 11
    arrowColor 000
  arrowFontName Helvetica
  arrowFontColor 333
  arrowFontSize 11
}

skinparam activity {
    backgroundColor e8e8ea
  borderColor 202024
    fontColor 003
  fontName Helvetica
  fontSize 11
  stereotypeFontColor 333
  stereotypeFontSize 11
    arrowColor 000
  arrowFontName Helvetica
  arrowFontColor 333
  arrowFontSize 11
}

skinparam sequence {
    fontColor 003
  fontName Helvetica
  fontSize 11
  stereotypeFontColor 333
  stereotypeFontSize 11
    arrowColor 000
  arrowFontName Helvetica
  arrowFontColor 333
  arrowFontSize 11

  lifeLineBorderColor 4af
  lifeLineBackgroundColor e0e0e0
}




skinparam state {
    backgroundColor e8e8ea
  borderColor 202024
    fontColor 003
  fontName Helvetica
  fontSize 11
  stereotypeFontColor 333
  stereotypeFontSize 11
    arrowColor 000
  arrowFontName Helvetica
  arrowFontColor 333
  arrowFontSize 11
  startColor 4af
  endColor 27d
}

skinparam note {
    backgroundColor e8e8ea
  borderColor 202024
    fontColor 003
  fontName Helvetica
  fontSize 11
  stereotypeFontColor 333
  stereotypeFontSize 11
}








start

:Receive result array\n of users/tallies;

while (For each user\nand tally-set) is (more users)
  if (user/tallies\nchanged?) then (yes)

    while (For each of\nuser's tallies) is (more tallies)
      if (foreign partner?) then (yes)
        :Build foreign node body\n(if not already exists);
      elseif (partner (local)\nalready on graph?) then (no)
        :Do nothing\n(wait to process\nlocal partner);
      else (yes)
      endif
      :Build pie slice shade/parameters;
      :Build edge record\npush to edges array;
    endwhile (tallies done)
    
    :Build user node body;
    :Add/update to graph:\n  user\n  peer\n  edges;

  endif
endwhile (users done)

stop
@enduml

PlantUML version 1.2022.1(Tue Feb 01 11:19:58 MST 2022)
(GPL source distribution)
Java Runtime: OpenJDK Runtime Environment
JVM: OpenJDK 64-Bit Server VM
Default Encoding: UTF-8
Language: en
Country: US
--></g></svg>