<?xml version="1.0" encoding="UTF-8" standalone="no"?>
<!DOCTYPE svg PUBLIC "-//W3C//DTD SVG 1.1//EN"
 "http://www.w3.org/Graphics/SVG/1.1/DTD/svg11.dtd">
<!-- Generated by graphviz version 7.0.6 (20230106.0513)
 -->
<!-- Title: lift Pages: 1 -->
<svg width="317pt" height="496pt"
 viewBox="0.00 0.00 317.39 496.00" xmlns="http://www.w3.org/2000/svg" xmlns:xlink="http://www.w3.org/1999/xlink">
<g id="graph0" class="graph" transform="scale(1 1) rotate(0) translate(4 492)">
<title>lift</title>
<polygon fill="white" stroke="none" points="-4,4 -4,-492 313.39,-492 313.39,4 -4,4"/>
<text text-anchor="middle" x="154.69" y="-7.8" font-family="Times,serif" font-size="14.00">Lift Example Graph</text>
<g id="clust1" class="cluster">
<title>cluster_siteA</title>
<polygon fill="none" stroke="black" points="8,-31 8,-322 96,-322 96,-31 8,-31"/>
<text text-anchor="middle" x="52" y="-306.8" font-family="Times,serif" font-size="14.00">Site A</text>
</g>
<g id="clust2" class="cluster">
<title>cluster_siteB</title>
<polygon fill="none" stroke="black" points="104,-175 104,-322 281,-322 281,-175 104,-175"/>
<text text-anchor="middle" x="192.5" y="-306.8" font-family="Times,serif" font-size="14.00">Site B</text>
</g>
<g id="clust3" class="cluster">
<title>cluster_siteC</title>
<polygon fill="none" stroke="black" points="53,-330 53,-480 141,-480 141,-330 53,-330"/>
<text text-anchor="middle" x="97" y="-464.8" font-family="Times,serif" font-size="14.00">Site C</text>
</g>
<g id="clust4" class="cluster">
<title>cluster_siteD</title>
<polygon fill="none" stroke="black" points="193,-330 193,-405 281,-405 281,-330 193,-330"/>
<text text-anchor="middle" x="237" y="-389.8" font-family="Times,serif" font-size="14.00">Site D</text>
</g>
<!-- userA0 -->
<g id="node1" class="node">
<title>userA0</title>
<ellipse fill="none" stroke="black" cx="52" cy="-57" rx="36.29" ry="18"/>
<text text-anchor="middle" x="52" y="-53.3" font-family="Times,serif" font-size="14.00">userA0</text>
</g>
<!-- userD1 -->
<g id="node10" class="node">
<title>userD1</title>
<ellipse fill="none" stroke="black" cx="237" cy="-356" rx="36.29" ry="18"/>
<text text-anchor="middle" x="237" y="-352.3" font-family="Times,serif" font-size="14.00">userD1</text>
</g>
<!-- userA0&#45;&gt;userD1 -->
<g id="edge4" class="edge">
<title>userA0&#45;&gt;userD1</title>
<path fill="none" stroke="black" d="M86.11,-63.65C139.49,-74.52 241.16,-103.92 285,-175 319.3,-230.61 315.42,-264.18 285,-322 282.03,-327.65 277.6,-332.52 272.62,-336.65"/>
<polygon fill="black" stroke="black" points="270.62,-333.78 264.49,-342.42 274.67,-339.49 270.62,-333.78"/>
</g>
<!-- userA1 -->
<g id="node2" class="node">
<title>userA1</title>
<ellipse fill="none" stroke="black" cx="52" cy="-129" rx="36.29" ry="18"/>
<text text-anchor="middle" x="52" y="-125.3" font-family="Times,serif" font-size="14.00">userA1</text>
</g>
<!-- userA1&#45;&gt;userA0 -->
<g id="edge3" class="edge">
<title>userA1&#45;&gt;userA0</title>
<path fill="none" stroke="black" d="M52,-110.7C52,-103.41 52,-94.73 52,-86.54"/>
<polygon fill="black" stroke="black" points="55.5,-86.62 52,-76.62 48.5,-86.62 55.5,-86.62"/>
</g>
<!-- userA2 -->
<g id="node3" class="node">
<title>userA2</title>
<ellipse fill="none" stroke="black" cx="52" cy="-201" rx="36.29" ry="18"/>
<text text-anchor="middle" x="52" y="-197.3" font-family="Times,serif" font-size="14.00">userA2</text>
</g>
<!-- userA2&#45;&gt;userA1 -->
<g id="edge2" class="edge">
<title>userA2&#45;&gt;userA1</title>
<path fill="none" stroke="black" d="M52,-182.7C52,-175.41 52,-166.73 52,-158.54"/>
<polygon fill="black" stroke="black" points="55.5,-158.62 52,-148.62 48.5,-158.62 55.5,-158.62"/>
</g>
<!-- userA3 -->
<g id="node4" class="node">
<title>userA3</title>
<ellipse fill="none" stroke="black" cx="52" cy="-273" rx="36.29" ry="18"/>
<text text-anchor="middle" x="52" y="-269.3" font-family="Times,serif" font-size="14.00">userA3</text>
</g>
<!-- userA3&#45;&gt;userA2 -->
<g id="edge1" class="edge">
<title>userA3&#45;&gt;userA2</title>
<path fill="none" stroke="black" d="M52,-254.7C52,-247.41 52,-238.73 52,-230.54"/>
<polygon fill="black" stroke="black" points="55.5,-230.62 52,-220.62 48.5,-230.62 55.5,-230.62"/>
</g>
<!-- userB1 -->
<g id="node5" class="node">
<title>userB1</title>
<ellipse fill="none" stroke="black" cx="192" cy="-201" rx="36" ry="18"/>
<text text-anchor="middle" x="192" y="-197.3" font-family="Times,serif" font-size="14.00">userB1</text>
</g>
<!-- userB1&#45;&gt;userA1 -->
<g id="edge9" class="edge">
<title>userB1&#45;&gt;userA1</title>
<path fill="none" stroke="black" d="M167.29,-187.65C145.04,-176.52 112.08,-160.04 87.1,-147.55"/>
<polygon fill="black" stroke="black" points="88.79,-144.48 78.28,-143.14 85.66,-150.74 88.79,-144.48"/>
</g>
<!-- userB2 -->
<g id="node6" class="node">
<title>userB2</title>
<ellipse fill="none" stroke="black" cx="148" cy="-273" rx="36" ry="18"/>
<text text-anchor="middle" x="148" y="-269.3" font-family="Times,serif" font-size="14.00">userB2</text>
</g>
<!-- userB2&#45;&gt;userA2 -->
<g id="edge8" class="edge">
<title>userB2&#45;&gt;userA2</title>
<path fill="none" stroke="black" d="M128.11,-257.5C114.46,-247.55 96.14,-234.19 80.89,-223.07"/>
<polygon fill="black" stroke="black" points="83.23,-220.44 73.09,-217.38 79.11,-226.1 83.23,-220.44"/>
</g>
<!-- userB3 -->
<g id="node7" class="node">
<title>userB3</title>
<ellipse fill="none" stroke="black" cx="237" cy="-273" rx="36" ry="18"/>
<text text-anchor="middle" x="237" y="-269.3" font-family="Times,serif" font-size="14.00">userB3</text>
</g>
<!-- userB3&#45;&gt;userB1 -->
<g id="edge10" class="edge">
<title>userB3&#45;&gt;userB1</title>
<path fill="none" stroke="black" d="M226.34,-255.41C221.07,-247.22 214.59,-237.14 208.69,-227.95"/>
<polygon fill="black" stroke="black" points="211.76,-226.26 203.41,-219.74 205.87,-230.05 211.76,-226.26"/>
</g>
<!-- userC1 -->
<g id="node8" class="node">
<title>userC1</title>
<ellipse fill="none" stroke="black" cx="97" cy="-356" rx="36" ry="18"/>
<text text-anchor="middle" x="97" y="-352.3" font-family="Times,serif" font-size="14.00">userC1</text>
</g>
<!-- userC1&#45;&gt;userA3 -->
<g id="edge5" class="edge">
<title>userC1&#45;&gt;userA3</title>
<path fill="none" stroke="black" d="M87.68,-338.22C81.64,-327.36 73.66,-312.98 66.77,-300.59"/>
<polygon fill="black" stroke="black" points="69.96,-299.13 62.05,-292.08 63.84,-302.53 69.96,-299.13"/>
</g>
<!-- userC2 -->
<g id="node9" class="node">
<title>userC2</title>
<ellipse fill="none" stroke="black" cx="97" cy="-431" rx="36" ry="18"/>
<text text-anchor="middle" x="97" y="-427.3" font-family="Times,serif" font-size="14.00">userC2</text>
</g>
<!-- userC2&#45;&gt;userC1 -->
<g id="edge6" class="edge">
<title>userC2&#45;&gt;userC1</title>
<path fill="none" stroke="black" d="M97,-412.7C97,-404.67 97,-394.9 97,-385.8"/>
<polygon fill="black" stroke="black" points="100.5,-385.94 97,-375.94 93.5,-385.94 100.5,-385.94"/>
</g>
<!-- userD1&#45;&gt;userB3 -->
<g id="edge11" class="edge">
<title>userD1&#45;&gt;userB3</title>
<path fill="none" stroke="black" d="M237,-337.82C237,-327.69 237,-314.6 237,-302.92"/>
<polygon fill="black" stroke="black" points="240.5,-302.95 237,-292.95 233.5,-302.95 240.5,-302.95"/>
</g>
<!-- userD1&#45;&gt;userC2 -->
<g id="edge7" class="edge">
<title>userD1&#45;&gt;userC2</title>
<path fill="none" stroke="black" d="M212.79,-369.64C194.24,-379.32 168,-393.01 145,-405 140.57,-407.31 135.91,-409.74 131.3,-412.14"/>
<polygon fill="black" stroke="black" points="130.01,-408.86 122.76,-416.59 133.25,-415.07 130.01,-408.86"/>
</g>
</g>
</svg>
