<?xml version="1.0" encoding="UTF-8" standalone="no"?><svg xmlns="http://www.w3.org/2000/svg" xmlns:xlink="http://www.w3.org/1999/xlink" contentScriptType="application/ecmascript" contentStyleType="text/css" height="886px" preserveAspectRatio="none" style="width:1808px;height:886px;" version="1.1" viewBox="0 0 1808 886" width="1808px" zoomAndPan="magnify"><defs><filter height="300%" id="fpl0bnvad2b8m" width="300%" x="-1" y="-1"><feGaussianBlur result="blurOut" stdDeviation="2.0"/><feColorMatrix in="blurOut" result="blurOut2" type="matrix" values="0 0 0 0 0 0 0 0 0 0 0 0 0 0 0 0 0 0 .4 0"/><feOffset dx="4.0" dy="4.0" in="blurOut2" result="blurOut3"/><feBlend in="SourceGraphic" in2="blurOut3" mode="normal"/></filter></defs><g><!--MD5=[0d412ba7b19125dd0828b9802228843b]
cluster mobile1--><polygon fill="#FFFFFF" filter="url(#fpl0bnvad2b8m)" points="16,16,26,6,357,6,357,291,347,301,16,301,16,16" style="stroke:#000000;stroke-width:1.5;"/><line style="stroke:#000000;stroke-width:1.5;" x1="347" x2="357" y1="16" y2="6"/><line style="stroke:#000000;stroke-width:1.5;" x1="16" x2="347" y1="16" y2="16"/><line style="stroke:#000000;stroke-width:1.5;" x1="347" x2="347" y1="16" y2="301"/><text fill="#000000" font-family="sans-serif" font-size="14" font-weight="bold" lengthAdjust="spacing" textLength="102" x="131.5" y="32.5352">Mobile 1 (1..u)</text><!--MD5=[f228167ae37ab53dd6bbb3ad13bc3586]
cluster browser1--><polygon fill="#FFFFFF" filter="url(#fpl0bnvad2b8m)" points="48,72,58,62,325,62,325,259,315,269,48,269,48,72" style="stroke:#000000;stroke-width:1.5;"/><line style="stroke:#000000;stroke-width:1.5;" x1="315" x2="325" y1="72" y2="62"/><line style="stroke:#000000;stroke-width:1.5;" x1="48" x2="315" y1="72" y2="72"/><line style="stroke:#000000;stroke-width:1.5;" x1="315" x2="315" y1="72" y2="269"/><text fill="#000000" font-family="sans-serif" font-size="14" font-weight="bold" lengthAdjust="spacing" textLength="58" x="153.5" y="88.5352">Browser</text><!--MD5=[789d627cef762006d5d6451170846b79]
cluster spa1--><rect fill="#E8E8EA" filter="url(#fpl0bnvad2b8m)" height="103" style="stroke:#202024;stroke-width:1.5;" width="189" x="96" y="126"/><rect fill="#E8E8EA" height="10" style="stroke:#202024;stroke-width:1.5;" width="15" x="265" y="131"/><rect fill="#E8E8EA" height="2" style="stroke:#202024;stroke-width:1.5;" width="4" x="263" y="133"/><rect fill="#E8E8EA" height="2" style="stroke:#202024;stroke-width:1.5;" width="4" x="263" y="137"/><text fill="#000033" font-family="Helvetica" font-size="11" font-weight="bold" lengthAdjust="spacing" textLength="113" x="132.5" y="147.4702">User SPA (HTML5/JS)</text><!--MD5=[13d849b7aa0f2f4396423467c3a802bb]
cluster mobile2--><polygon fill="#FFFFFF" filter="url(#fpl0bnvad2b8m)" points="1409,134,1419,124,1592,124,1592,211,1582,221,1409,221,1409,134" style="stroke:#000000;stroke-width:1.5;"/><line style="stroke:#000000;stroke-width:1.5;" x1="1582" x2="1592" y1="134" y2="124"/><line style="stroke:#000000;stroke-width:1.5;" x1="1409" x2="1582" y1="134" y2="134"/><line style="stroke:#000000;stroke-width:1.5;" x1="1582" x2="1582" y1="134" y2="221"/><text fill="#000000" font-family="sans-serif" font-size="14" font-weight="bold" lengthAdjust="spacing" textLength="107" x="1443" y="150.5352">Mobile 2 (1..m)</text><!--MD5=[67c83377ad89bbcf7458df2f7034b627]
cluster mobile3--><polygon fill="#FFFFFF" filter="url(#fpl0bnvad2b8m)" points="1616,134,1626,124,1791,124,1791,211,1781,221,1616,221,1616,134" style="stroke:#000000;stroke-width:1.5;"/><line style="stroke:#000000;stroke-width:1.5;" x1="1781" x2="1791" y1="134" y2="124"/><line style="stroke:#000000;stroke-width:1.5;" x1="1616" x2="1781" y1="134" y2="134"/><line style="stroke:#000000;stroke-width:1.5;" x1="1781" x2="1781" y1="134" y2="221"/><text fill="#000000" font-family="sans-serif" font-size="14" font-weight="bold" lengthAdjust="spacing" textLength="99" x="1650" y="150.5352">Mobile 3 (1..r)</text><!--MD5=[4db7736c7d1b4a64e42a1a9e7772be84]
cluster computer3--><polygon fill="#FFFFFF" filter="url(#fpl0bnvad2b8m)" points="1044,16,1054,6,1385,6,1385,291,1375,301,1044,301,1044,16" style="stroke:#000000;stroke-width:1.5;"/><line style="stroke:#000000;stroke-width:1.5;" x1="1375" x2="1385" y1="16" y2="6"/><line style="stroke:#000000;stroke-width:1.5;" x1="1044" x2="1375" y1="16" y2="16"/><line style="stroke:#000000;stroke-width:1.5;" x1="1375" x2="1375" y1="16" y2="301"/><text fill="#000000" font-family="sans-serif" font-size="14" font-weight="bold" lengthAdjust="spacing" textLength="109" x="1156" y="32.5352">Computer (1..a)</text><!--MD5=[cbf765aa970ed160e99b1e1cc6f33de9]
cluster browser3--><polygon fill="#FFFFFF" filter="url(#fpl0bnvad2b8m)" points="1076,72,1086,62,1353,62,1353,259,1343,269,1076,269,1076,72" style="stroke:#000000;stroke-width:1.5;"/><line style="stroke:#000000;stroke-width:1.5;" x1="1343" x2="1353" y1="72" y2="62"/><line style="stroke:#000000;stroke-width:1.5;" x1="1076" x2="1343" y1="72" y2="72"/><line style="stroke:#000000;stroke-width:1.5;" x1="1343" x2="1343" y1="72" y2="269"/><text fill="#000000" font-family="sans-serif" font-size="14" font-weight="bold" lengthAdjust="spacing" textLength="58" x="1181.5" y="88.5352">Browser</text><!--MD5=[426903973c4dbdf3822b921a13c7f14e]
cluster spa3--><rect fill="#E8E8EA" filter="url(#fpl0bnvad2b8m)" height="103" style="stroke:#202024;stroke-width:1.5;" width="189" x="1124" y="126"/><rect fill="#E8E8EA" height="10" style="stroke:#202024;stroke-width:1.5;" width="15" x="1293" y="131"/><rect fill="#E8E8EA" height="2" style="stroke:#202024;stroke-width:1.5;" width="4" x="1291" y="133"/><rect fill="#E8E8EA" height="2" style="stroke:#202024;stroke-width:1.5;" width="4" x="1291" y="137"/><text fill="#000033" font-family="Helvetica" font-size="11" font-weight="bold" lengthAdjust="spacing" textLength="124" x="1155" y="147.4702">Admin SPA (HTML5/JS)</text><!--MD5=[3c8a5fdc50c77ffe879f2c69461a32d9]
cluster site1--><polygon fill="#FFFFFF" filter="url(#fpl0bnvad2b8m)" points="381,91,391,81,1020,81,1020,869,1010,879,381,879,381,91" style="stroke:#000000;stroke-width:1.5;"/><line style="stroke:#000000;stroke-width:1.5;" x1="1010" x2="1020" y1="91" y2="81"/><line style="stroke:#000000;stroke-width:1.5;" x1="381" x2="1010" y1="91" y2="91"/><line style="stroke:#000000;stroke-width:1.5;" x1="1010" x2="1010" y1="91" y2="879"/><text fill="#000000" font-family="sans-serif" font-size="14" font-weight="bold" lengthAdjust="spacing" textLength="130" x="631.5" y="107.5352">Site Service Group</text><!--MD5=[4d65bd28eeb2122f0be83c7f9d7eebdd]
cluster userv1--><rect fill="#FFFFFF" filter="url(#fpl0bnvad2b8m)" height="357" style="stroke:#000000;stroke-width:1.5;" width="360" x="636" y="346"/><line style="stroke:#000000;stroke-width:1.5;" x1="636" x2="996" y1="366.4883" y2="366.4883"/><text fill="#000000" font-family="sans-serif" font-size="14" font-weight="bold" lengthAdjust="spacing" textLength="125" x="753.5" y="361.5352">User Service (1..y)</text><!--MD5=[0847b9c84e5499a6c59d8b35317b8d16]
cluster userserv1--><rect fill="#E8E8EA" filter="url(#fpl0bnvad2b8m)" height="103" style="stroke:#202024;stroke-width:1.5;" width="187" x="777" y="397"/><rect fill="#E8E8EA" height="10" style="stroke:#202024;stroke-width:1.5;" width="15" x="944" y="402"/><rect fill="#E8E8EA" height="2" style="stroke:#202024;stroke-width:1.5;" width="4" x="942" y="404"/><rect fill="#E8E8EA" height="2" style="stroke:#202024;stroke-width:1.5;" width="4" x="942" y="408"/><text fill="#000033" font-family="Helvetica" font-size="11" font-weight="bold" lengthAdjust="spacing" textLength="60" x="840.5" y="418.4702">User Server</text><!--MD5=[72603f5dbbb55eb506dcc3e1b1012933]
cluster pgsql--><path d="M408,563 C408,553 510,553 510,553 C510,553 612,553 612,563 L612,845 C612,855 510,855 510,855 C510,855 408,855 408,845 L408,563 " fill="#FFFFFF" filter="url(#fpl0bnvad2b8m)" style="stroke:#000000;stroke-width:1.5;"/><path d="M408,563 C408,573 510,573 510,573 C510,573 612,573 612,563 " fill="none" style="stroke:#000000;stroke-width:1.5;"/><text fill="#000000" font-family="sans-serif" font-size="14" font-weight="bold" lengthAdjust="spacing" textLength="83" x="468.5" y="588.5352">PostgreSQL</text><!--MD5=[de07489133013c57493e45023542b00d]
cluster mychips DB--><rect fill="#FFFFFF" filter="url(#fpl0bnvad2b8m)" height="220" style="stroke:#000000;stroke-width:1.5;" width="156" x="432" y="611"/><path d="M527,611 L527,620.4883 L517,630.4883 L432,630.4883 " fill="none" style="stroke:#000000;stroke-width:1.5;"/><text fill="#000000" font-family="sans-serif" font-size="14" font-weight="bold" lengthAdjust="spacing" textLength="85" x="435" y="625.5352">mychips DB</text><!--MD5=[69ad3d1777582c9146e45abb385fd53b]
cluster pserv1--><rect fill="#FFFFFF" filter="url(#fpl0bnvad2b8m)" height="92" style="stroke:#000000;stroke-width:1.5;" width="140" x="472" y="400"/><line style="stroke:#000000;stroke-width:1.5;" x1="472" x2="612" y1="420.4883" y2="420.4883"/><text fill="#000000" font-family="sans-serif" font-size="14" font-weight="bold" lengthAdjust="spacing" textLength="124" x="480" y="415.5352">Peer Service (1..x)</text><!--MD5=[9a41b1760971bc427e5b47c4b8ef1427]
cluster sim1--><rect fill="#FFFFFF" filter="url(#fpl0bnvad2b8m)" height="92" style="stroke:#000000;stroke-width:1.5;" width="142" x="437" y="129"/><line style="stroke:#000000;stroke-width:1.5;" x1="437" x2="579" y1="149.4883" y2="149.4883"/><text fill="#000000" font-family="sans-serif" font-size="14" font-weight="bold" lengthAdjust="spacing" textLength="116" x="450" y="144.5352">Simulation (1..z)</text><!--MD5=[f9e2e10b1766cf86e00c9124af6ab292]
cluster cloud1--><path d="M1060.6133,571.4613 C1066.3867,562.3831 1073.4984,563.3075 1078.7659,571.9788 C1083.055,564.108 1092.0716,563.1283 1096.9584,571.3012 C1101.996,562.8381 1108.1507,562.5525 1113.2261,571.2654 C1119.1471,560.4546 1125.6522,562.2426 1132.8878,569.8631 C1138.5593,562.2604 1143.6423,560.4797 1149.6286,569.547 C1155.1487,561.0546 1164.0724,560.0075 1168.4621,570.6591 C1172.6508,560.9665 1180.0319,561.13 1186.7113,567.8976 C1191.8843,558.4888 1200.4538,561.4105 1204.5719,569.0057 C1209.4748,561.182 1215.8165,561.4977 1220.1808,569.5358 C1225.8289,561.0168 1234.1739,563.7203 1237.6962,571.7814 C1243.4858,562.1783 1249.1971,563.0787 1256.0017,570.7028 C1262.4875,563.147 1270.1489,562.3578 1274.9508,572.5053 C1280.3744,562.7788 1288.906,563.2775 1293.956,572.8729 C1303.3636,564.8687 1311.0843,566.6907 1316,578 C1317.0925,578.4079 1317.1784,579.0919 1316.349,579.8604 C1329.239,584.8583 1329.8467,594.4073 1320.3236,603.219 C1333.4883,606.3217 1336.1956,615.1612 1327.362,625.2818 C1338.5873,630.3387 1338.8288,637.1042 1330.8302,645.4645 C1340.9129,655.7828 1339.0162,665.3679 1325.35,670.4843 C1332.291,678.3543 1332.7068,687.7054 1320.5217,691.0949 C1332.5115,705.3833 1326.2665,716.7911 1309,719 C1309.74,718.0894 1310.6977,718.0648 1311.3468,719.1092 C1307.7669,728.8121 1300.4362,730.1424 1293.2457,722.9857 C1286.1748,731.9972 1278.9088,732.0916 1273.8883,721.0103 C1270.0801,730.9997 1261.9314,731.1469 1256.1534,722.9291 C1252.339,731.3003 1245.7441,731.0153 1240.5469,724.3657 C1235.4097,732.8373 1229.0915,733.289 1223.1823,725.174 C1218.0639,734.9347 1211.512,736.9568 1203.4757,728.2952 C1197.6915,735.1144 1191.5332,735.8951 1186.13,727.8505 C1179.1999,737.3322 1171.8298,734.7472 1167.2044,725.5192 C1162.9094,735.4161 1154.7018,736.7664 1148.7024,727.134 C1143.4636,733.9105 1135.8748,732.2266 1132.5637,724.9243 C1126.6825,732.6065 1117.5583,731.7171 1114.466,722.0201 C1109.0653,730.5789 1103.3434,730.521 1097.9343,722.0284 C1092.6795,730.5389 1082.8287,730.4072 1078.0321,721.5048 C1064.3303,731.265 1055.8967,729.0947 1052,712 C1053.7622,712.559 1054.1494,714.1549 1052.5031,715.2427 C1040.9431,709.9156 1040.733,700.9092 1048.9597,692.4992 C1035.4485,688.1661 1034.9991,676.4408 1044.4327,667.8873 C1031.1697,662.094 1029.638,655.0469 1040.5462,645.1262 C1033.7045,637.3727 1033.7314,630.088 1044.3489,625.7633 C1034.7577,616.1752 1039.2864,605.3915 1050.946,601.607 C1039.3883,589.8057 1043.2783,575.623 1059,571 C1059.6015,570.4652 1060.4031,570.6278 1060.6133,571.4613 " fill="#FFFFFF" filter="url(#fpl0bnvad2b8m)" style="stroke:#000000;stroke-width:1.5;"/><text fill="#000000" font-family="sans-serif" font-size="14" font-weight="bold" lengthAdjust="spacing" textLength="57" x="1155.5" y="589.5352">Internet</text><!--MD5=[821c05217012eef6d10b5cd61f5a43c5]
cluster peernodes--><polygon fill="#FFFFFF" filter="url(#fpl0bnvad2b8m)" points="1068,616,1078,606,1300,606,1300,693,1290,703,1068,703,1068,616" style="stroke:#000000;stroke-width:1.5;"/><line style="stroke:#000000;stroke-width:1.5;" x1="1290" x2="1300" y1="616" y2="606"/><line style="stroke:#000000;stroke-width:1.5;" x1="1068" x2="1290" y1="616" y2="616"/><line style="stroke:#000000;stroke-width:1.5;" x1="1290" x2="1290" y1="616" y2="703"/><text fill="#000000" font-family="sans-serif" font-size="14" font-weight="bold" lengthAdjust="spacing" textLength="156" x="1102" y="632.5352">Other Peer Sites (1..p)</text><!--MD5=[21e862e23e7d99feb61d4d94edafffbc]
entity wysemanC1--><rect fill="#E8E8EA" filter="url(#fpl0bnvad2b8m)" height="41" style="stroke:#202024;stroke-width:1.5;" width="121" x="139.5" y="164"/><rect fill="#E8E8EA" height="10" style="stroke:#202024;stroke-width:1.5;" width="15" x="240.5" y="169"/><rect fill="#E8E8EA" height="2" style="stroke:#202024;stroke-width:1.5;" width="4" x="238.5" y="171"/><rect fill="#E8E8EA" height="2" style="stroke:#202024;stroke-width:1.5;" width="4" x="238.5" y="175"/><text fill="#000033" font-family="Helvetica" font-size="11" lengthAdjust="spacing" textLength="81" x="154.5" y="192.4702">Wyseman C-API</text><!--MD5=[81be28259591a23f63462d93727ccfe3]
entity app2--><rect fill="#E8E8EA" filter="url(#fpl0bnvad2b8m)" height="41" style="stroke:#202024;stroke-width:1.5;" width="93" x="1425.5" y="164"/><rect fill="#E8E8EA" height="10" style="stroke:#202024;stroke-width:1.5;" width="15" x="1498.5" y="169"/><rect fill="#E8E8EA" height="2" style="stroke:#202024;stroke-width:1.5;" width="4" x="1496.5" y="171"/><rect fill="#E8E8EA" height="2" style="stroke:#202024;stroke-width:1.5;" width="4" x="1496.5" y="175"/><text fill="#000033" font-family="Helvetica" font-size="11" lengthAdjust="spacing" textLength="53" x="1440.5" y="192.4702">Native App</text><!--MD5=[640bfebe45159a20e5557f42971d9afe]
entity app3--><rect fill="#E8E8EA" filter="url(#fpl0bnvad2b8m)" height="41" style="stroke:#202024;stroke-width:1.5;" width="93" x="1632.5" y="164"/><rect fill="#E8E8EA" height="10" style="stroke:#202024;stroke-width:1.5;" width="15" x="1705.5" y="169"/><rect fill="#E8E8EA" height="2" style="stroke:#202024;stroke-width:1.5;" width="4" x="1703.5" y="171"/><rect fill="#E8E8EA" height="2" style="stroke:#202024;stroke-width:1.5;" width="4" x="1703.5" y="175"/><text fill="#000033" font-family="Helvetica" font-size="11" lengthAdjust="spacing" textLength="53" x="1647.5" y="192.4702">Native App</text><!--MD5=[c69fa5292cd251f3d50376cd9e91cc6f]
entity wysemanC3--><rect fill="#E8E8EA" filter="url(#fpl0bnvad2b8m)" height="41" style="stroke:#202024;stroke-width:1.5;" width="121" x="1148.5" y="164"/><rect fill="#E8E8EA" height="10" style="stroke:#202024;stroke-width:1.5;" width="15" x="1249.5" y="169"/><rect fill="#E8E8EA" height="2" style="stroke:#202024;stroke-width:1.5;" width="4" x="1247.5" y="171"/><rect fill="#E8E8EA" height="2" style="stroke:#202024;stroke-width:1.5;" width="4" x="1247.5" y="175"/><text fill="#000033" font-family="Helvetica" font-size="11" lengthAdjust="spacing" textLength="81" x="1163.5" y="192.4702">Wyseman C-API</text><!--MD5=[4c25f3d5adea2395455ed7f8bd1be38b]
entity spaserv1--><rect fill="#E8E8EA" filter="url(#fpl0bnvad2b8m)" height="41" style="stroke:#202024;stroke-width:1.5;" width="97" x="652.5" y="435"/><rect fill="#E8E8EA" height="10" style="stroke:#202024;stroke-width:1.5;" width="15" x="729.5" y="440"/><rect fill="#E8E8EA" height="2" style="stroke:#202024;stroke-width:1.5;" width="4" x="727.5" y="442"/><rect fill="#E8E8EA" height="2" style="stroke:#202024;stroke-width:1.5;" width="4" x="727.5" y="446"/><text fill="#000033" font-family="Helvetica" font-size="11" lengthAdjust="spacing" textLength="57" x="667.5" y="463.4702">SPA Server</text><!--MD5=[8bfdddced45975cef7e47e2a11e27fbb]
entity report1--><rect fill="#E8E8EA" filter="url(#fpl0bnvad2b8m)" height="41" style="stroke:#202024;stroke-width:1.5;" width="126" x="817" y="646"/><rect fill="#E8E8EA" height="10" style="stroke:#202024;stroke-width:1.5;" width="15" x="923" y="651"/><rect fill="#E8E8EA" height="2" style="stroke:#202024;stroke-width:1.5;" width="4" x="921" y="653"/><rect fill="#E8E8EA" height="2" style="stroke:#202024;stroke-width:1.5;" width="4" x="921" y="657"/><text fill="#000033" font-family="Helvetica" font-size="11" lengthAdjust="spacing" textLength="86" x="832" y="674.4702">Report Generator</text><!--MD5=[ca68d80c4da0eb82f0daf95b0f06b656]
entity wysemanS1--><rect fill="#E8E8EA" filter="url(#fpl0bnvad2b8m)" height="41" style="stroke:#202024;stroke-width:1.5;" width="120" x="820" y="435"/><rect fill="#E8E8EA" height="10" style="stroke:#202024;stroke-width:1.5;" width="15" x="920" y="440"/><rect fill="#E8E8EA" height="2" style="stroke:#202024;stroke-width:1.5;" width="4" x="918" y="442"/><rect fill="#E8E8EA" height="2" style="stroke:#202024;stroke-width:1.5;" width="4" x="918" y="446"/><text fill="#000033" font-family="Helvetica" font-size="11" lengthAdjust="spacing" textLength="80" x="835" y="463.4702">Wyseman S-API</text><!--MD5=[658ca87598d7f5e0afb26e10b1caad83]
entity mychips--><rect fill="#E8E8EA" filter="url(#fpl0bnvad2b8m)" height="41" style="stroke:#202024;stroke-width:1.5;" width="123" x="448.5" y="646"/><rect fill="#E8E8EA" height="10" style="stroke:#202024;stroke-width:1.5;" width="15" x="551.5" y="651"/><rect fill="#E8E8EA" height="2" style="stroke:#202024;stroke-width:1.5;" width="4" x="549.5" y="653"/><rect fill="#E8E8EA" height="2" style="stroke:#202024;stroke-width:1.5;" width="4" x="549.5" y="657"/><text fill="#000033" font-family="Helvetica" font-size="11" lengthAdjust="spacing" textLength="83" x="463.5" y="674.4702">mychips schema</text><!--MD5=[21ab09ffd5d05f413c587b952aee3778]
entity base--><rect fill="#E8E8EA" filter="url(#fpl0bnvad2b8m)" height="41" style="stroke:#202024;stroke-width:1.5;" width="96" x="462" y="774"/><rect fill="#E8E8EA" height="10" style="stroke:#202024;stroke-width:1.5;" width="15" x="538" y="779"/><rect fill="#E8E8EA" height="2" style="stroke:#202024;stroke-width:1.5;" width="4" x="536" y="781"/><rect fill="#E8E8EA" height="2" style="stroke:#202024;stroke-width:1.5;" width="4" x="536" y="785"/><text fill="#000033" font-family="Helvetica" font-size="11" lengthAdjust="spacing" textLength="56" x="477" y="802.4702">wyselib/wm</text><!--MD5=[fec14ceed61151b6a1b0486ec5116d3c]
entity peerserv1--><rect fill="#E8E8EA" filter="url(#fpl0bnvad2b8m)" height="41" style="stroke:#202024;stroke-width:1.5;" width="99" x="491.5" y="435"/><rect fill="#E8E8EA" height="10" style="stroke:#202024;stroke-width:1.5;" width="15" x="570.5" y="440"/><rect fill="#E8E8EA" height="2" style="stroke:#202024;stroke-width:1.5;" width="4" x="568.5" y="442"/><rect fill="#E8E8EA" height="2" style="stroke:#202024;stroke-width:1.5;" width="4" x="568.5" y="446"/><text fill="#000033" font-family="Helvetica" font-size="11" lengthAdjust="spacing" textLength="59" x="506.5" y="463.4702">Peer Server</text><!--MD5=[833402e9087644217c99f5118e0d0956]
entity agent1--><rect fill="#E8E8EA" filter="url(#fpl0bnvad2b8m)" height="41" style="stroke:#202024;stroke-width:1.5;" width="110" x="453" y="164"/><rect fill="#E8E8EA" height="10" style="stroke:#202024;stroke-width:1.5;" width="15" x="543" y="169"/><rect fill="#E8E8EA" height="2" style="stroke:#202024;stroke-width:1.5;" width="4" x="541" y="171"/><rect fill="#E8E8EA" height="2" style="stroke:#202024;stroke-width:1.5;" width="4" x="541" y="175"/><text fill="#000033" font-family="Helvetica" font-size="11" lengthAdjust="spacing" textLength="70" x="468" y="192.4702">Agent Modeler</text><!--MD5=[235740326534577bedb77f53d5715d69]
entity peers--><rect fill="#E8E8EA" filter="url(#fpl0bnvad2b8m)" height="41" style="stroke:#202024;stroke-width:1.5;" width="130" x="1084" y="646"/><rect fill="#E8E8EA" height="10" style="stroke:#202024;stroke-width:1.5;" width="15" x="1194" y="651"/><rect fill="#E8E8EA" height="2" style="stroke:#202024;stroke-width:1.5;" width="4" x="1192" y="653"/><rect fill="#E8E8EA" height="2" style="stroke:#202024;stroke-width:1.5;" width="4" x="1192" y="657"/><text fill="#000033" font-family="Helvetica" font-size="11" lengthAdjust="spacing" textLength="90" x="1099" y="674.4702">Other Peer Server</text><!--MD5=[228a33f464561c7ea09d51a597fd3d17]
link mychips to base--><path d="M510,687.19 C510,709.19 510,744.87 510,768.75 " fill="none" id="mychips-to-base" style="stroke:#000000;stroke-width:1.0;"/><polygon fill="#000000" points="510,773.95,514,764.95,510,768.95,506,764.95,510,773.95" style="stroke:#000000;stroke-width:1.0;"/><!--MD5=[715d67db9b42c51169b0a27a9d3cbc43]
link browser1 to spaserv1--><path d="M64.3103,269.5512 C64.38,269.7594 64.4502,269.9675 64.5209,270.1754 C64.6623,270.5912 64.8057,271.0064 64.9512,271.4209 C65.2423,272.2499 65.5415,273.0762 65.8492,273.8992 C70.7725,287.0681 77.86,299.415 88,309 C122.58,341.69 145.69,324.85 193,330 C215.87,332.49 586.34,327.88 607,338 C648.77,358.47 678.09,407.27 691.94,434.78 " fill="none" id="browser1-spaserv1" style="stroke:#EE82EE;stroke-width:1.0;"/><text fill="#EE82EE" font-family="Helvetica" font-size="11" lengthAdjust="spacing" textLength="24" x="194" y="326.4702">https</text><!--MD5=[a82690c74d7e60d6af08aa3d8eab0801]
link spa1 to report1--><path d="M105.4179,229.5502 C105.4446,229.9725 105.4719,230.396 105.4997,230.8207 C105.722,234.2183 105.9772,237.6914 106.27,241.1963 C108.6125,269.235 113.365,299.305 123,309 C138.87,324.96 152.56,307.58 173,317 C297,374.12 283.64,457.52 407,516 C453.95,538.26 470.63,529.2 522,537 C551.21,541.43 559.41,537.52 588,545 C682.7,569.79 787.3,618.59 841.96,645.87 " fill="none" id="spa1-report1" style="stroke:#EE82EE;stroke-width:1.0;"/><text fill="#EE82EE" font-family="Helvetica" font-size="11" lengthAdjust="spacing" textLength="24" x="408" y="458.4702">https</text><!--MD5=[8564a4b8ad7ef997596a49bea7d4d61a]
link browser3 to spaserv1--><path d="M1075.8897,187.5232 C1075.7209,187.5669 1075.5498,187.6113 1075.3762,187.6565 C1074.6817,187.8371 1073.9481,188.0291 1073.1764,188.2325 C1067.0029,189.8604 1058.3924,192.2227 1047.8805,195.3416 C1026.8566,201.5794 998.2269,210.8438 966.2763,223.3125 C902.375,248.25 825.19,286.005 769,338 C739.09,365.68 718.43,409.55 708.26,434.82 " fill="none" id="browser3-spaserv1" style="stroke:#EE82EE;stroke-width:1.0;"/><text fill="#EE82EE" font-family="Helvetica" font-size="11" lengthAdjust="spacing" textLength="24" x="792" y="326.4702">https</text><!--MD5=[98ea6124b49e4738659b821b866aaf9a]
link spa3 to report1--><path d="M1305.5102,229.0043 C1305.4884,229.3856 1305.4659,229.7684 1305.4425,230.1525 C1303.9475,254.7375 1299.14,285.03 1286,309 C1238.04,396.5 989.39,584.78 906.74,645.9 " fill="none" id="spa3-report1" style="stroke:#EE82EE;stroke-width:1.0;"/><text fill="#EE82EE" font-family="Helvetica" font-size="11" lengthAdjust="spacing" textLength="24" x="1265" y="458.4702">https</text><!--MD5=[b48f8fea9e7413e176a66f14088edcf0]
link wysemanC1 to wysemanS1--><path d="M220.21,205.02 C256.11,238.2 334.87,304.48 416,330 C437.2,336.67 796.98,326.49 816,338 C851.14,359.27 868.36,407.28 875.58,434.57 " fill="none" id="wysemanC1-wysemanS1" style="stroke:#008080;stroke-width:1.0;"/><text fill="#008080" font-family="Helvetica" font-size="11" lengthAdjust="spacing" textLength="99" x="417" y="326.4702">WM-API/WebSocket</text><!--MD5=[cc8fe2fd1664dbdd8d85e56c2e33dbb0]
link wysemanC3 to wysemanS1--><path d="M1205.08,205.46 C1198.32,233.94 1181.52,285.42 1145,309 C1117.33,326.87 1026.51,302.38 997,317 C944.9,342.81 906.87,403.41 889.88,434.83 " fill="none" id="wysemanC3-wysemanS1" style="stroke:#008080;stroke-width:1.0;"/><text fill="#008080" font-family="Helvetica" font-size="11" lengthAdjust="spacing" textLength="99" x="998" y="326.4702">WM-API/WebSocket</text><!--MD5=[c38c6425c30640d060e4c8164bd30daf]
link wysemanS1 to report1--><path d="M880,476.16 C880,516 880,605.82 880,645.74 " fill="none" id="wysemanS1-report1" style="stroke:#000000;stroke-width:1.0;"/><!--MD5=[a7aaeaad136012eb34f0a9e09c0e3421]
link app2 to wysemanS1--><path d="M1453.45,205.3 C1426.74,232.64 1374.73,281.67 1321,309 C1275.55,332.12 1258.75,323.06 1210,338 C1110.09,368.63 995.46,410.69 931,435 " fill="none" id="app2-wysemanS1" style="stroke:#FF0000;stroke-width:1.0;"/><text fill="#FF0000" font-family="Helvetica" font-size="11" lengthAdjust="spacing" textLength="71" x="1302" y="326.4702">WM-API/Noise</text><!--MD5=[98b1e301fd2d9cafd597f15677f7f25e]
link app3 to wysemanS1--><path d="M1662.76,205.26 C1638.29,233.51 1589.07,284.68 1535,309 C1472.4,337.15 1450.35,323.73 1382,330 C1305.79,336.99 1285.11,323.33 1210,338 C1103.11,358.88 984.12,407.64 922.38,435 " fill="none" id="app3-wysemanS1" style="stroke:#008080;stroke-width:1.0;"/><text fill="#008080" font-family="Helvetica" font-size="11" lengthAdjust="spacing" textLength="99" x="1515" y="326.4702">WM-API/WebSocket</text><!--MD5=[54e7c7eec5a411087ac239bfefd6e90e]
link userserv1 to mychips--><path d="M789.1743,500.2301 C789.1523,500.3269 789.1299,500.4236 789.1072,500.5203 C789.0164,500.9067 788.9206,501.2914 788.8194,501.6741 C788.617,502.4395 788.3935,503.1971 788.1475,503.9451 C787.6554,505.4412 787.0732,506.8988 786.3904,508.3043 C785.0247,511.1153 783.2563,513.7175 781,516 C773.09,524.01 690.87,521.08 680,524 C659.07,529.62 653.83,532.69 636,545 C592.41,575.09 549.53,620.35 526.77,645.98 " fill="none" id="userserv1-mychips" style="stroke:#0000FF;stroke-width:1.0;"/><text fill="#0000FF" font-family="Helvetica" font-size="11" lengthAdjust="spacing" textLength="22" x="681" y="533.4702">SQL</text><!--MD5=[fee57ecb2dd60761f6044a50301e9b8e]
link peerserv1 to mychips--><path d="M538.08,476.16 C532.18,516 518.85,605.82 512.93,645.74 " fill="none" id="peerserv1-mychips" style="stroke:#0000FF;stroke-width:1.0;"/><text fill="#0000FF" font-family="Helvetica" font-size="11" lengthAdjust="spacing" textLength="22" x="532" y="533.4702">SQL</text><!--MD5=[ec0c5b3c05fdfc55f29d4c0f0741efc0]
link peerserv1 to peers--><path d="M565.13,476.22 C583.41,489.95 609.77,507.31 636,516 C655.05,522.31 977.32,537.67 996,545 C1052.66,567.22 1105.28,617.77 1131.53,645.82 " fill="none" id="peerserv1-peers" style="stroke:#FF0000;stroke-width:1.0;"/><text fill="#FF0000" font-family="Helvetica" font-size="11" lengthAdjust="spacing" textLength="78" x="914" y="533.4702">MyCHIPs/Noise</text><!--MD5=[23261344b3422f7b485d1a82fbe89c28]
link agent1 to mychips--><path d="M498.07,205.08 C484.28,233.49 460,288.21 451,338 C436.93,415.85 436.22,438.28 451,516 C460.28,564.79 485.18,618.01 499.49,645.91 " fill="none" id="agent1-mychips" style="stroke:#0000FF;stroke-width:1.0;"/><text fill="#0000FF" font-family="Helvetica" font-size="11" lengthAdjust="spacing" textLength="22" x="452" y="458.4702">SQL</text><!--MD5=[da2aa0df8feea0dca874315c6b4d4e8e]
link agent1 to peerserv1--><path d="M510.43,205.28 C516.53,255.03 532.46,384.91 538.57,434.69 " fill="none" id="agent1-peerserv1" style="stroke:#000000;stroke-width:1.0;"/><text fill="#333333" font-family="Helvetica" font-size="11" lengthAdjust="spacing" textLength="47" x="527" y="326.4702">MyCHIPs</text><!--MD5=[68013cd909d36cf52dfa84a5d8f28d5a]
@startuml
!include common.puml

node mobile1 as "Mobile 1 (1..u)" {
  node browser1 as "Browser" {
    component spa1 as "User SPA (HTML5/JS) " {
      component wysemanC1 as "Wyseman C-API"
    }
  }
}

node mobile2 as "Mobile 2 (1..m)" {
  component app2 as "Native App"
}

node mobile3 as "Mobile 3 (1..r)" {
  component app3 as "Native App"
}

node computer3 as "Computer (1..a)" {
  node browser3 as "Browser" {
    component spa3 as "Admin SPA (HTML5/JS) " {
      component wysemanC3 as "Wyseman C-API"
    }
  }
}

node site1 as "Site Service Group" {

  card userv1 as "User Service (1..y)" {
    component userserv1 as "User Server" {
      component wysemanS1 as "Wyseman S-API"
    }
    component spaserv1 as "SPA Server"
    component report1 as "Report Generator"
  }

  database pgsql as "PostgreSQL" {
    frame "mychips DB" {
      component mychips as "mychips schema"
      component base as "wyselib/wm"
      mychips - -> base
    }
  }

  card pserv1 as "Peer Service (1..x)" {
    component peerserv1 as "Peer Server"
  }

  card sim1 as "Simulation (1..z)" {
    component agent1 as "Agent Modeler"
  }
}

cloud cloud1 as "Internet" {
  node peernodes as "Other Peer Sites (1..p)" {
    component peers as "Other Peer Server"
  }
}

browser1 - - spaserv1 #violet;text:violet : https
spa1 - - report1 #violet;text:violet : https
browser3 - - spaserv1 #violet;text:violet : https
spa3 - - report1 #violet;text:violet : https
wysemanC1 - - wysemanS1 #teal;text:teal : WM-API/WebSocket
wysemanC3 - - wysemanS1 #teal;text:teal : WM-API/WebSocket
wysemanS1 - - report1
app2 - - wysemanS1 #red;text:red : WM-API/Noise
app3 - - wysemanS1 #teal;text:teal : WM-API/WebSocket

userserv1 - - mychips #blue;text:blue : SQL
peerserv1 - - mychips #blue;text:blue : SQL
peerserv1 - - peers #red;text:red : MyCHIPs/Noise
agent1 - - mychips #blue;text:blue : SQL
agent1 - - peerserv1 : MyCHIPs

'Placement hints (not working very well):
'userv1 .right.> pgsql
'pgsql .r.> pserv1
'mobile1 .r.> site1
'computer3 .r.> site1
'computer3 .d.> mobile2
'cloud1 .[hidden].> pgsql
'userv1 .right.> mobile1
'userv1 .right.> computer3
'userv1 .right.> mobile2

@enduml

@startuml



skinparam backgroundColor fff
skinparam stereotypeCBackgroundColor 27d






skinparam circledCharacter {
  radius 8
  fontSize 11
  fontName Helvetica
}

skinparam class {
    backgroundColor e8e8ea
  borderColor 202024
    fontColor 003
  fontName Helvetica
  fontSize 11
  stereotypeFontColor 333
  stereotypeFontSize 11
    arrowColor 000
  arrowFontName Helvetica
  arrowFontColor 333
  arrowFontSize 11

  attributeFontColor 333
  attributeFontSize 11
  attributeIconSize 11
}

skinparam actor {
    backgroundColor 4af
  borderColor 27d
    fontColor 003
  fontName Helvetica
  fontSize 11
  stereotypeFontColor 333
  stereotypeFontSize 11
}

skinparam participant {
    backgroundColor e8e8ea
  borderColor 202024
    fontColor 003
  fontName Helvetica
  fontSize 11
  stereotypeFontColor 333
  stereotypeFontSize 11
}

skinparam collections {
    backgroundColor e8e8ea
  borderColor 202024
    fontColor 003
  fontName Helvetica
  fontSize 11
  stereotypeFontColor 333
  stereotypeFontSize 11
}

skinparam SequenceBox{
    backgroundColor e0e0e0
  borderColor cccccc
    fontColor 003
  fontName Helvetica
  fontSize 11
  stereotypeFontColor 333
  stereotypeFontSize 11
}

skinparam interface {
    backgroundColor 4af
  borderColor 27d
    fontColor 003
  fontName Helvetica
  fontSize 11
  stereotypeFontColor 333
  stereotypeFontSize 11
}

skinparam component {
    backgroundColor e8e8ea
  borderColor 202024
    fontColor 003
  fontName Helvetica
  fontSize 11
  stereotypeFontColor 333
  stereotypeFontSize 11
}



skinparam queue {
    backgroundColor e8e8ea
  borderColor 202024
    fontColor 003
  fontName Helvetica
  fontSize 11
  stereotypeFontColor 333
  stereotypeFontSize 11
}


skinparam usecase {
    backgroundColor e8e8ea
  borderColor 202024
    fontColor 003
  fontName Helvetica
  fontSize 11
  stereotypeFontColor 333
  stereotypeFontSize 11
    arrowColor 000
  arrowFontName Helvetica
  arrowFontColor 333
  arrowFontSize 11
}

skinparam activity {
    backgroundColor e8e8ea
  borderColor 202024
    fontColor 003
  fontName Helvetica
  fontSize 11
  stereotypeFontColor 333
  stereotypeFontSize 11
    arrowColor 000
  arrowFontName Helvetica
  arrowFontColor 333
  arrowFontSize 11
}

skinparam sequence {
    fontColor 003
  fontName Helvetica
  fontSize 11
  stereotypeFontColor 333
  stereotypeFontSize 11
    arrowColor 000
  arrowFontName Helvetica
  arrowFontColor 333
  arrowFontSize 11

  lifeLineBorderColor 4af
  lifeLineBackgroundColor e0e0e0
}




skinparam state {
    backgroundColor e8e8ea
  borderColor 202024
    fontColor 003
  fontName Helvetica
  fontSize 11
  stereotypeFontColor 333
  stereotypeFontSize 11
    arrowColor 000
  arrowFontName Helvetica
  arrowFontColor 333
  arrowFontSize 11
  startColor 4af
  endColor 27d
}

skinparam note {
    backgroundColor e8e8ea
  borderColor 202024
    fontColor 003
  fontName Helvetica
  fontSize 11
  stereotypeFontColor 333
  stereotypeFontSize 11
}








node mobile1 as "Mobile 1 (1..u)" {
  node browser1 as "Browser" {
    component spa1 as "User SPA (HTML5/JS) " {
      component wysemanC1 as "Wyseman C-API"
    }
  }
}

node mobile2 as "Mobile 2 (1..m)" {
  component app2 as "Native App"
}

node mobile3 as "Mobile 3 (1..r)" {
  component app3 as "Native App"
}

node computer3 as "Computer (1..a)" {
  node browser3 as "Browser" {
    component spa3 as "Admin SPA (HTML5/JS) " {
      component wysemanC3 as "Wyseman C-API"
    }
  }
}

node site1 as "Site Service Group" {

  card userv1 as "User Service (1..y)" {
    component userserv1 as "User Server" {
      component wysemanS1 as "Wyseman S-API"
    }
    component spaserv1 as "SPA Server"
    component report1 as "Report Generator"
  }

  database pgsql as "PostgreSQL" {
    frame "mychips DB" {
      component mychips as "mychips schema"
      component base as "wyselib/wm"
      mychips - -> base
    }
  }

  card pserv1 as "Peer Service (1..x)" {
    component peerserv1 as "Peer Server"
  }

  card sim1 as "Simulation (1..z)" {
    component agent1 as "Agent Modeler"
  }
}

cloud cloud1 as "Internet" {
  node peernodes as "Other Peer Sites (1..p)" {
    component peers as "Other Peer Server"
  }
}

browser1 - - spaserv1 #violet;text:violet : https
spa1 - - report1 #violet;text:violet : https
browser3 - - spaserv1 #violet;text:violet : https
spa3 - - report1 #violet;text:violet : https
wysemanC1 - - wysemanS1 #teal;text:teal : WM-API/WebSocket
wysemanC3 - - wysemanS1 #teal;text:teal : WM-API/WebSocket
wysemanS1 - - report1
app2 - - wysemanS1 #red;text:red : WM-API/Noise
app3 - - wysemanS1 #teal;text:teal : WM-API/WebSocket

userserv1 - - mychips #blue;text:blue : SQL
peerserv1 - - mychips #blue;text:blue : SQL
peerserv1 - - peers #red;text:red : MyCHIPs/Noise
agent1 - - mychips #blue;text:blue : SQL
agent1 - - peerserv1 : MyCHIPs


@enduml

PlantUML version 1.2021.00(Sun Jan 10 03:25:05 MST 2021)
(GPL source distribution)
Java Runtime: OpenJDK Runtime Environment
JVM: OpenJDK 64-Bit Server VM
Default Encoding: UTF-8
Language: en
Country: US
--></g></svg>