<?xml version="1.0" encoding="UTF-8" standalone="no"?><svg xmlns="http://www.w3.org/2000/svg" xmlns:xlink="http://www.w3.org/1999/xlink" contentStyleType="text/css" height="1220px" preserveAspectRatio="none" style="width:640px;height:1220px;background:#FFFFFF;" version="1.1" viewBox="0 0 640 1220" width="640px" zoomAndPan="magnify"><defs/><g><text fill="#000000" font-family="sans-serif" font-size="14" font-weight="bold" lengthAdjust="spacing" textLength="143" x="248" y="28.5352">Establishing a Tally</text><rect fill="none" height="53.3105" style="stroke:#000000;stroke-width:1.5;" width="254" x="321" y="519.4883"/><rect fill="none" height="495.2207" style="stroke:#000000;stroke-width:1.5;" width="565" x="10" y="586.7988"/><line style="stroke:#44AAFF;stroke-width:0.5;stroke-dasharray:5.0,5.0;" x1="47" x2="47" y1="113.4883" y2="1130.0195"/><line style="stroke:#44AAFF;stroke-width:0.5;stroke-dasharray:5.0,5.0;" x1="189.5" x2="189.5" y1="113.4883" y2="1130.0195"/><line style="stroke:#44AAFF;stroke-width:0.5;stroke-dasharray:5.0,5.0;" x1="370" x2="370" y1="113.4883" y2="1130.0195"/><line style="stroke:#44AAFF;stroke-width:0.5;stroke-dasharray:5.0,5.0;" x1="544" x2="544" y1="113.4883" y2="1130.0195"/><text fill="#000033" font-family="Helvetica" font-size="11" lengthAdjust="spacing" textLength="48" x="20" y="110.9585">Originator</text><ellipse cx="47" cy="50.9883" fill="#44AAFF" rx="8" ry="8" style="stroke:#2277DD;stroke-width:0.5;"/><path d="M47,58.9883 L47,85.9883 M34,66.9883 L60,66.9883 M47,85.9883 L34,100.9883 M47,85.9883 L60,100.9883 " fill="none" style="stroke:#2277DD;stroke-width:0.5;"/><text fill="#000033" font-family="Helvetica" font-size="11" lengthAdjust="spacing" textLength="48" x="20" y="1137.4897">Originator</text><ellipse cx="47" cy="1148.5195" fill="#44AAFF" rx="8" ry="8" style="stroke:#2277DD;stroke-width:0.5;"/><path d="M47,1156.5195 L47,1183.5195 M34,1164.5195 L60,1164.5195 M47,1183.5195 L34,1198.5195 M47,1183.5195 L60,1198.5195 " fill="none" style="stroke:#2277DD;stroke-width:0.5;"/><text fill="#000000" font-family="sans-serif" font-size="14" lengthAdjust="spacing" textLength="93" x="140.5" y="110.5352">Originator DB</text><path d="M172,61 C172,51 190,51 190,51 C190,51 208,51 208,61 L208,87 C208,97 190,97 190,97 C190,97 172,97 172,87 L172,61 " fill="#E2E2F0" style="stroke:#181818;stroke-width:1.5;"/><path d="M172,61 C172,71 190,71 190,71 C190,71 208,71 208,61 " fill="none" style="stroke:#181818;stroke-width:1.5;"/><text fill="#000000" font-family="sans-serif" font-size="14" lengthAdjust="spacing" textLength="93" x="140.5" y="1142.5547">Originator DB</text><path d="M172,1155.5078 C172,1145.5078 190,1145.5078 190,1145.5078 C190,1145.5078 208,1145.5078 208,1155.5078 L208,1181.5078 C208,1191.5078 190,1191.5078 190,1191.5078 C190,1191.5078 172,1191.5078 172,1181.5078 L172,1155.5078 " fill="#E2E2F0" style="stroke:#181818;stroke-width:1.5;"/><path d="M172,1155.5078 C172,1165.5078 190,1165.5078 190,1165.5078 C190,1165.5078 208,1165.5078 208,1155.5078 " fill="none" style="stroke:#181818;stroke-width:1.5;"/><text fill="#000000" font-family="sans-serif" font-size="14" lengthAdjust="spacing" textLength="72" x="331" y="110.5352">Subject DB</text><path d="M352,61 C352,51 370,51 370,51 C370,51 388,51 388,61 L388,87 C388,97 370,97 370,97 C370,97 352,97 352,87 L352,61 " fill="#E2E2F0" style="stroke:#181818;stroke-width:1.5;"/><path d="M352,61 C352,71 370,71 370,71 C370,71 388,71 388,61 " fill="none" style="stroke:#181818;stroke-width:1.5;"/><text fill="#000000" font-family="sans-serif" font-size="14" lengthAdjust="spacing" textLength="72" x="331" y="1142.5547">Subject DB</text><path d="M352,1155.5078 C352,1145.5078 370,1145.5078 370,1145.5078 C370,1145.5078 388,1145.5078 388,1155.5078 L388,1181.5078 C388,1191.5078 370,1191.5078 370,1191.5078 C370,1191.5078 352,1191.5078 352,1181.5078 L352,1155.5078 " fill="#E2E2F0" style="stroke:#181818;stroke-width:1.5;"/><path d="M352,1155.5078 C352,1165.5078 370,1165.5078 370,1165.5078 C370,1165.5078 388,1165.5078 388,1155.5078 " fill="none" style="stroke:#181818;stroke-width:1.5;"/><text fill="#000033" font-family="Helvetica" font-size="11" lengthAdjust="spacing" textLength="36" x="523" y="110.9585">Subject</text><ellipse cx="544" cy="50.9883" fill="#44AAFF" rx="8" ry="8" style="stroke:#2277DD;stroke-width:0.5;"/><path d="M544,58.9883 L544,85.9883 M531,66.9883 L557,66.9883 M544,85.9883 L531,100.9883 M544,85.9883 L557,100.9883 " fill="none" style="stroke:#2277DD;stroke-width:0.5;"/><text fill="#000033" font-family="Helvetica" font-size="11" lengthAdjust="spacing" textLength="36" x="523" y="1137.4897">Subject</text><ellipse cx="544" cy="1148.5195" fill="#44AAFF" rx="8" ry="8" style="stroke:#2277DD;stroke-width:0.5;"/><path d="M544,1156.5195 L544,1183.5195 M531,1164.5195 L557,1164.5195 M544,1183.5195 L531,1198.5195 M544,1183.5195 L557,1198.5195 " fill="none" style="stroke:#2277DD;stroke-width:0.5;"/><line style="stroke:#000000;stroke-width:1.0;" x1="188" x2="178" y1="140.4883" y2="136.4883"/><line style="stroke:#000000;stroke-width:1.0;" x1="188" x2="178" y1="140.4883" y2="144.4883"/><line style="stroke:#000000;stroke-width:1.0;" x1="47" x2="189" y1="140.4883" y2="140.4883"/><text fill="#333333" font-family="Helvetica" font-size="11" lengthAdjust="spacing" textLength="119" x="54" y="135.9585">Create draft tally &amp; ticket</text><path d="M50,153.4883 L50,174.4883 L329,174.4883 L329,163.4883 L319,153.4883 L50,153.4883 " fill="#E8E8EA" style="stroke:#202024;stroke-width:0.5;"/><path d="M319,153.4883 L319,163.4883 L329,163.4883 L319,153.4883 " fill="#E8E8EA" style="stroke:#202024;stroke-width:0.5;"/><text fill="#000033" font-family="Helvetica" font-size="11" lengthAdjust="spacing" textLength="258" x="56" y="166.9585">Ticket may be one-time or reusable for multiple peers</text><line style="stroke:#FF0000;stroke-width:1.0;" x1="542" x2="532" y1="196.4883" y2="192.4883"/><line style="stroke:#FF0000;stroke-width:1.0;" x1="542" x2="532" y1="196.4883" y2="200.4883"/><line style="stroke:#FF0000;stroke-width:1.0;" x1="47" x2="543" y1="196.4883" y2="196.4883"/><text fill="#333333" font-family="Helvetica" font-size="11" lengthAdjust="spacing" textLength="302" x="54" y="191.9585">Communicate ticket to subject peer via QR code (out-of-band)</text><line style="stroke:#000000;stroke-width:1.0;" x1="544" x2="586" y1="232.4883" y2="232.4883"/><line style="stroke:#000000;stroke-width:1.0;" x1="586" x2="586" y1="232.4883" y2="245.4883"/><line style="stroke:#000000;stroke-width:1.0;" x1="545" x2="586" y1="245.4883" y2="245.4883"/><line style="stroke:#000000;stroke-width:1.0;" x1="545" x2="555" y1="245.4883" y2="241.4883"/><line style="stroke:#000000;stroke-width:1.0;" x1="545" x2="555" y1="245.4883" y2="249.4883"/><text fill="#333333" font-family="Helvetica" font-size="11" lengthAdjust="spacing" textLength="82" x="551" y="216.9585">Select Certificate</text><text fill="#333333" font-family="Helvetica" font-size="11" lengthAdjust="spacing" textLength="72" x="551" y="227.9585">info to disclose</text><line style="stroke:#000000;stroke-width:1.0;" x1="371" x2="381" y1="270.4883" y2="266.4883"/><line style="stroke:#000000;stroke-width:1.0;" x1="371" x2="381" y1="270.4883" y2="274.4883"/><line style="stroke:#000000;stroke-width:1.0;" x1="370" x2="543" y1="270.4883" y2="270.4883"/><text fill="#333333" font-family="Helvetica" font-size="11" lengthAdjust="spacing" textLength="141" x="387" y="265.9585">Request to connect via ticket</text><line style="stroke:#000000;stroke-width:1.0;" x1="191" x2="201" y1="317.4883" y2="313.4883"/><line style="stroke:#000000;stroke-width:1.0;" x1="191" x2="201" y1="317.4883" y2="321.4883"/><line style="stroke:#000000;stroke-width:1.0;" x1="190" x2="369" y1="317.4883" y2="317.4883"/><text fill="#333333" font-family="Helvetica" font-size="11" lengthAdjust="spacing" textLength="147" x="207" y="290.9585">Is this a known or local agent?</text><text fill="#333333" font-family="Helvetica" font-size="11" lengthAdjust="spacing" textLength="153" x="207" y="301.9585">Connect w/ticket or known key,</text><text fill="#333333" font-family="Helvetica" font-size="11" lengthAdjust="spacing" textLength="118" x="207" y="312.9585">attach subject certificate</text><line style="stroke:#000000;stroke-width:1.0;" x1="190" x2="232" y1="342.4883" y2="342.4883"/><line style="stroke:#000000;stroke-width:1.0;" x1="232" x2="232" y1="342.4883" y2="355.4883"/><line style="stroke:#000000;stroke-width:1.0;" x1="191" x2="232" y1="355.4883" y2="355.4883"/><polygon fill="#000000" points="201,351.4883,191,355.4883,201,359.4883,197,355.4883" style="stroke:#000000;stroke-width:1.0;"/><text fill="#333333" font-family="Helvetica" font-size="11" lengthAdjust="spacing" textLength="142" x="197" y="337.9585">Construct/complete draft tally</text><line style="stroke:#000000;stroke-width:1.0;" x1="48" x2="58" y1="380.4883" y2="376.4883"/><line style="stroke:#000000;stroke-width:1.0;" x1="48" x2="58" y1="380.4883" y2="384.4883"/><line style="stroke:#000000;stroke-width:1.0;" x1="47" x2="189" y1="380.4883" y2="380.4883"/><text fill="#333333" font-family="Helvetica" font-size="11" lengthAdjust="spacing" textLength="89" x="64" y="375.9585">Present for review</text><line style="stroke:#000000;stroke-width:1.0;" x1="188" x2="178" y1="405.4883" y2="401.4883"/><line style="stroke:#000000;stroke-width:1.0;" x1="188" x2="178" y1="405.4883" y2="409.4883"/><line style="stroke:#000000;stroke-width:1.0;" x1="47" x2="189" y1="405.4883" y2="405.4883"/><text fill="#333333" font-family="Helvetica" font-size="11" lengthAdjust="spacing" textLength="71" x="54" y="400.9585">Sign/Offer tally</text><line style="stroke:#000000;stroke-width:1.0;" x1="368" x2="358" y1="430.4883" y2="426.4883"/><line style="stroke:#000000;stroke-width:1.0;" x1="368" x2="358" y1="430.4883" y2="434.4883"/><line style="stroke:#000000;stroke-width:1.0;" x1="190" x2="369" y1="430.4883" y2="430.4883"/><text fill="#333333" font-family="Helvetica" font-size="11" lengthAdjust="spacing" textLength="134" x="197" y="425.9585">Send proposed, signed tally</text><line style="stroke:#000000;stroke-width:1.0;" x1="370" x2="412" y1="466.4883" y2="466.4883"/><line style="stroke:#000000;stroke-width:1.0;" x1="412" x2="412" y1="466.4883" y2="479.4883"/><line style="stroke:#000000;stroke-width:1.0;" x1="371" x2="412" y1="479.4883" y2="479.4883"/><polygon fill="#000000" points="381,475.4883,371,479.4883,381,483.4883,377,479.4883" style="stroke:#000000;stroke-width:1.0;"/><text fill="#333333" font-family="Helvetica" font-size="11" lengthAdjust="spacing" textLength="84" x="377" y="450.9585">Store tally locally,</text><text fill="#333333" font-family="Helvetica" font-size="11" lengthAdjust="spacing" textLength="109" x="377" y="461.9585">check for local partner</text><line style="stroke:#000000;stroke-width:1.0;" x1="542" x2="532" y1="504.4883" y2="500.4883"/><line style="stroke:#000000;stroke-width:1.0;" x1="542" x2="532" y1="504.4883" y2="508.4883"/><line style="stroke:#000000;stroke-width:1.0;" x1="370" x2="543" y1="504.4883" y2="504.4883"/><text fill="#333333" font-family="Helvetica" font-size="11" lengthAdjust="spacing" textLength="111" x="377" y="499.9585">Present tally for review</text><path d="M321,519.4883 L395,519.4883 L395,526.7988 L385,536.7988 L321,536.7988 L321,519.4883 " fill="#EEEEEE" style="stroke:#000000;stroke-width:1.5;"/><rect fill="none" height="53.3105" style="stroke:#000000;stroke-width:1.5;" width="254" x="321" y="519.4883"/><text fill="#000000" font-family="sans-serif" font-size="13" font-weight="bold" lengthAdjust="spacing" textLength="29" x="336" y="533.0566">loop</text><text fill="#000000" font-family="sans-serif" font-size="11" font-weight="bold" lengthAdjust="spacing" textLength="86" x="410" y="532.123">[until satisfied]</text><line style="stroke:#000000;stroke-width:1.0;" x1="371" x2="381" y1="564.7988" y2="560.7988"/><line style="stroke:#000000;stroke-width:1.0;" x1="371" x2="381" y1="564.7988" y2="568.7988"/><line style="stroke:#000000;stroke-width:1.0;" x1="370" x2="543" y1="564.7988" y2="564.7988"/><text fill="#333333" font-family="Helvetica" font-size="11" lengthAdjust="spacing" textLength="85" x="387" y="549.269">Modify tally terms</text><text fill="#333333" font-family="Helvetica" font-size="11" lengthAdjust="spacing" textLength="145" x="387" y="560.269">(invalidates partner signature)</text><path d="M10,586.7988 L72,586.7988 L72,594.1094 L62,604.1094 L10,604.1094 L10,586.7988 " fill="#EEEEEE" style="stroke:#000000;stroke-width:1.5;"/><rect fill="none" height="495.2207" style="stroke:#000000;stroke-width:1.5;" width="565" x="10" y="586.7988"/><text fill="#000000" font-family="sans-serif" font-size="13" font-weight="bold" lengthAdjust="spacing" textLength="17" x="25" y="600.3672">alt</text><text fill="#000000" font-family="sans-serif" font-size="11" font-weight="bold" lengthAdjust="spacing" textLength="101" x="87" y="599.4336">[Terms agreeable]</text><line style="stroke:#000000;stroke-width:1.0;" x1="371" x2="381" y1="632.1094" y2="628.1094"/><line style="stroke:#000000;stroke-width:1.0;" x1="371" x2="381" y1="632.1094" y2="636.1094"/><line style="stroke:#000000;stroke-width:1.0;" x1="370" x2="543" y1="632.1094" y2="632.1094"/><text fill="#333333" font-family="Helvetica" font-size="11" lengthAdjust="spacing" textLength="79" x="387" y="616.5796">Accept/sign tally</text><text fill="#333333" font-family="Helvetica" font-size="11" lengthAdjust="spacing" textLength="103" x="387" y="627.5796">(if no changes made)</text><line style="stroke:#000000;stroke-width:1.0;" x1="191" x2="201" y1="657.1094" y2="653.1094"/><line style="stroke:#000000;stroke-width:1.0;" x1="191" x2="201" y1="657.1094" y2="661.1094"/><line style="stroke:#000000;stroke-width:1.0;" x1="190" x2="369" y1="657.1094" y2="657.1094"/><text fill="#333333" font-family="Helvetica" font-size="11" lengthAdjust="spacing" textLength="95" x="207" y="652.5796">Send accepted tally</text><line style="stroke:#000000;stroke-width:1.0;" x1="48" x2="58" y1="682.1094" y2="678.1094"/><line style="stroke:#000000;stroke-width:1.0;" x1="48" x2="58" y1="682.1094" y2="686.1094"/><line style="stroke:#000000;stroke-width:1.0;" x1="47" x2="189" y1="682.1094" y2="682.1094"/><text fill="#333333" font-family="Helvetica" font-size="11" lengthAdjust="spacing" textLength="101" x="64" y="677.5796">Store and notify user</text><line style="stroke:#EE82EE;stroke-width:1.0;" x1="190" x2="232" y1="707.1094" y2="707.1094"/><line style="stroke:#EE82EE;stroke-width:1.0;" x1="232" x2="232" y1="707.1094" y2="720.1094"/><line style="stroke:#EE82EE;stroke-width:1.0;" x1="191" x2="232" y1="720.1094" y2="720.1094"/><line style="stroke:#EE82EE;stroke-width:1.0;" x1="191" x2="201" y1="720.1094" y2="716.1094"/><line style="stroke:#EE82EE;stroke-width:1.0;" x1="191" x2="201" y1="720.1094" y2="724.1094"/><text fill="#333333" font-family="Helvetica" font-size="11" lengthAdjust="spacing" textLength="160" x="197" y="702.5796">Initiate consensus ack sequence</text><line style="stroke:#EE82EE;stroke-width:1.0;" x1="368" x2="358" y1="745.1094" y2="741.1094"/><line style="stroke:#EE82EE;stroke-width:1.0;" x1="368" x2="358" y1="745.1094" y2="749.1094"/><line style="stroke:#EE82EE;stroke-width:1.0;" x1="190" x2="369" y1="745.1094" y2="745.1094"/><text fill="#333333" font-family="Helvetica" font-size="11" lengthAdjust="spacing" textLength="156" x="197" y="740.5796">(Transmit consensus ack/nack)</text><line style="stroke:#000000;stroke-width:1.0;stroke-dasharray:2.0,2.0;" x1="10" x2="575" y1="754.1094" y2="754.1094"/><text fill="#000000" font-family="sans-serif" font-size="11" font-weight="bold" lengthAdjust="spacing" textLength="96" x="15" y="764.7441">[Want to counter]</text><line style="stroke:#000000;stroke-width:1.0;" x1="371" x2="381" y1="785.0645" y2="781.0645"/><line style="stroke:#000000;stroke-width:1.0;" x1="371" x2="381" y1="785.0645" y2="789.0645"/><line style="stroke:#000000;stroke-width:1.0;" x1="370" x2="543" y1="785.0645" y2="785.0645"/><text fill="#333333" font-family="Helvetica" font-size="11" lengthAdjust="spacing" textLength="130" x="387" y="780.5347">Sign modified counter-offer</text><line style="stroke:#000000;stroke-width:1.0;" x1="191" x2="201" y1="821.0645" y2="817.0645"/><line style="stroke:#000000;stroke-width:1.0;" x1="191" x2="201" y1="821.0645" y2="825.0645"/><line style="stroke:#000000;stroke-width:1.0;" x1="190" x2="369" y1="821.0645" y2="821.0645"/><text fill="#333333" font-family="Helvetica" font-size="11" lengthAdjust="spacing" textLength="106" x="207" y="805.5347">Update revision count</text><text fill="#333333" font-family="Helvetica" font-size="11" lengthAdjust="spacing" textLength="95" x="207" y="816.5347">send proposed tally</text><line style="stroke:#000000;stroke-width:1.0;" x1="48" x2="58" y1="846.0645" y2="842.0645"/><line style="stroke:#000000;stroke-width:1.0;" x1="48" x2="58" y1="846.0645" y2="850.0645"/><line style="stroke:#000000;stroke-width:1.0;" x1="47" x2="189" y1="846.0645" y2="846.0645"/><text fill="#333333" font-family="Helvetica" font-size="11" lengthAdjust="spacing" textLength="89" x="64" y="841.5347">Present for review</text><line style="stroke:#000000;stroke-width:1.0;" x1="188" x2="178" y1="871.0645" y2="867.0645"/><line style="stroke:#000000;stroke-width:1.0;" x1="188" x2="178" y1="871.0645" y2="875.0645"/><line style="stroke:#000000;stroke-width:1.0;" x1="47" x2="189" y1="871.0645" y2="871.0645"/><text fill="#333333" font-family="Helvetica" font-size="11" lengthAdjust="spacing" textLength="79" x="54" y="866.5347">Accept/sign tally</text><line style="stroke:#000000;stroke-width:1.0;" x1="368" x2="358" y1="896.0645" y2="892.0645"/><line style="stroke:#000000;stroke-width:1.0;" x1="368" x2="358" y1="896.0645" y2="900.0645"/><line style="stroke:#000000;stroke-width:1.0;" x1="190" x2="369" y1="896.0645" y2="896.0645"/><text fill="#333333" font-family="Helvetica" font-size="11" lengthAdjust="spacing" textLength="95" x="197" y="891.5347">Send accepted tally</text><line style="stroke:#000000;stroke-width:1.0;" x1="542" x2="532" y1="921.0645" y2="917.0645"/><line style="stroke:#000000;stroke-width:1.0;" x1="542" x2="532" y1="921.0645" y2="925.0645"/><line style="stroke:#000000;stroke-width:1.0;" x1="370" x2="543" y1="921.0645" y2="921.0645"/><text fill="#333333" font-family="Helvetica" font-size="11" lengthAdjust="spacing" textLength="53" x="377" y="916.5347">Notify user</text><line style="stroke:#EE82EE;stroke-width:1.0;" x1="370" x2="412" y1="946.0645" y2="946.0645"/><line style="stroke:#EE82EE;stroke-width:1.0;" x1="412" x2="412" y1="946.0645" y2="959.0645"/><line style="stroke:#EE82EE;stroke-width:1.0;" x1="371" x2="412" y1="959.0645" y2="959.0645"/><line style="stroke:#EE82EE;stroke-width:1.0;" x1="371" x2="381" y1="959.0645" y2="955.0645"/><line style="stroke:#EE82EE;stroke-width:1.0;" x1="371" x2="381" y1="959.0645" y2="963.0645"/><text fill="#333333" font-family="Helvetica" font-size="11" lengthAdjust="spacing" textLength="160" x="377" y="941.5347">Initiate consensus ack sequence</text><line style="stroke:#EE82EE;stroke-width:1.0;" x1="191" x2="201" y1="984.0645" y2="980.0645"/><line style="stroke:#EE82EE;stroke-width:1.0;" x1="191" x2="201" y1="984.0645" y2="988.0645"/><line style="stroke:#EE82EE;stroke-width:1.0;" x1="190" x2="369" y1="984.0645" y2="984.0645"/><text fill="#333333" font-family="Helvetica" font-size="11" lengthAdjust="spacing" textLength="156" x="207" y="979.5347">(Transmit consensus ack/nack)</text><line style="stroke:#000000;stroke-width:1.0;stroke-dasharray:2.0,2.0;" x1="10" x2="575" y1="993.0645" y2="993.0645"/><text fill="#000000" font-family="sans-serif" font-size="11" font-weight="bold" lengthAdjust="spacing" textLength="82" x="15" y="1003.6992">[Refuse terms]</text><line style="stroke:#000000;stroke-width:1.0;" x1="371" x2="381" y1="1024.0195" y2="1020.0195"/><line style="stroke:#000000;stroke-width:1.0;" x1="371" x2="381" y1="1024.0195" y2="1028.0195"/><line style="stroke:#000000;stroke-width:1.0;" x1="370" x2="543" y1="1024.0195" y2="1024.0195"/><text fill="#333333" font-family="Helvetica" font-size="11" lengthAdjust="spacing" textLength="98" x="387" y="1019.4897">Request to void tally</text><line style="stroke:#000000;stroke-width:1.0;" x1="191" x2="201" y1="1049.0195" y2="1045.0195"/><line style="stroke:#000000;stroke-width:1.0;" x1="191" x2="201" y1="1049.0195" y2="1053.0195"/><line style="stroke:#000000;stroke-width:1.0;" x1="190" x2="369" y1="1049.0195" y2="1049.0195"/><text fill="#333333" font-family="Helvetica" font-size="11" lengthAdjust="spacing" textLength="109" x="207" y="1044.4897">Send refusal message</text><line style="stroke:#000000;stroke-width:1.0;" x1="48" x2="58" y1="1074.0195" y2="1070.0195"/><line style="stroke:#000000;stroke-width:1.0;" x1="48" x2="58" y1="1074.0195" y2="1078.0195"/><line style="stroke:#000000;stroke-width:1.0;" x1="47" x2="189" y1="1074.0195" y2="1074.0195"/><text fill="#333333" font-family="Helvetica" font-size="11" lengthAdjust="spacing" textLength="101" x="64" y="1069.4897">Store and notify user</text><path d="M148,1094.0195 L148,1115.0195 L411,1115.0195 L411,1104.0195 L401,1094.0195 L148,1094.0195 " fill="#E8E8EA" style="stroke:#202024;stroke-width:0.5;"/><path d="M401,1094.0195 L401,1104.0195 L411,1104.0195 L401,1094.0195 " fill="#E8E8EA" style="stroke:#202024;stroke-width:0.5;"/><text fill="#000033" font-family="Helvetica" font-size="11" lengthAdjust="spacing" textLength="220" x="165.25" y="1107.4897">Signed tally can now be used for transactions</text><text fill="#888888" font-family="sans-serif" font-size="10" lengthAdjust="spacing" textLength="150" x="244.5" y="1210.6875">Thu Oct 26 13:25:56 MDT 2023</text><!--SRC=[ZLLDSzCm43t7ls8f39FCDEJE8GnjEN20GXE60-b1aTU9YBmoafnC_Zsx_ghTcA6NJ3ox-tRtlIVfbI5jonH1kpntzAueSvkyYIPQd7uAKMsj2Nj3Er2mLjQUPudIqNcuklTcPqZn_ojG0GhlYYHLNA02zgDmTzCbtDtqKbRbzZVgsCO3VtAyGM-2NIH9f7uoNoudDT3xoUJMeue8gLTPX2Z3mLk8HXym9kGuuexesxu0woe2kJh3bcE4ysXo_kF1OnbuKOICF_BIHbFmHu7eGuAKWe0r_N-zzfW-BfVLK383irQIqJ98tHgYguAoca30qIZu_i3yCibJLyQvo-PRHUaiaRHgfGPiXLQgRj57arMO6pAKEO5CJT3M1HmMLJmyu9yIGzLOEoA1a9uD4tNQaBdF0UBU1DRqGEv4me5rMbbGEwJuOKEt3SvfqIp56NNg0S_N6nOsAhtlzjHF4oTr4-xN4yfHYBxKSS4cOsg7eZrLr2LSyCrZu44gFJmU3Pv6v5-P7Itkiumfli3fk5c9VX9Wwj9h25o3QPFVCTDBP_DXuwMA4IlRwZtgGpLCpLAXV2JqVMeR1Tl1QuJU-DQv0agAna9GqOJCO9h0fPPVN6goSrCVqUTXGrD3HsKDdnmCRUzg4nLBZxFAeeAV9Cf6M4iH2-aHnTDZJJvgZKLS24JTINfaR7FGUqKxxfAhb86RCmb3sgMTgX0w9k5Imff9LPyUMQaCp5YJ27oEZiQn4nu7jYGJZPmajZ7J64hUWuaFuc_IE5xTRJLTUqKXDt5OlY3-cIK9MhvqVYfgpWbh8VDSaYEsWbnaO8dQH3wpMPl-_33zA4IPIkXW7DKb6vdWoNd_vcd4wd3fzGl51b13jp_NvjAbN_kAj1gFSlfVHSQgkwbVeiW3PZn7RVKnENgNsz6PPqkDEDCB7f_H74FWs-pbrkJYvEBPk6wV9O1Lx-e0hOYBJ_AGb2Alg1TbMNw-s0EzP-Cl]--></g></svg>