<?xml version="1.0" encoding="UTF-8" standalone="no"?><svg xmlns="http://www.w3.org/2000/svg" xmlns:xlink="http://www.w3.org/1999/xlink" contentStyleType="text/css" height="651px" preserveAspectRatio="none" style="width:636px;height:651px;background:#FFFFFF;" version="1.1" viewBox="0 0 636 651" width="636px" zoomAndPan="magnify"><defs/><g><text fill="#000000" font-family="sans-serif" font-size="14" font-weight="bold" lengthAdjust="spacing" textLength="218" x="207.5" y="28.5352">Lift Confirmation/Ratification</text><rect fill="none" height="91.3105" style="stroke:#000000;stroke-width:1.5;" width="319.5" x="10" y="238.9766"/><line style="stroke:#44AAFF;stroke-width:0.5;stroke-dasharray:5.0,5.0;" x1="46" x2="46" y1="104.9766" y2="569.2871"/><line style="stroke:#44AAFF;stroke-width:0.5;stroke-dasharray:5.0,5.0;" x1="194" x2="194" y1="104.9766" y2="569.2871"/><line style="stroke:#44AAFF;stroke-width:0.5;stroke-dasharray:5.0,5.0;" x1="370" x2="370" y1="104.9766" y2="569.2871"/><line style="stroke:#44AAFF;stroke-width:0.5;stroke-dasharray:5.0,5.0;" x1="546" x2="546" y1="104.9766" y2="569.2871"/><rect fill="#E8E8EA" height="25" rx="2.5" ry="2.5" style="stroke:#202024;stroke-width:0.5;" width="53" x="20" y="78.9766"/><text fill="#000033" font-family="Helvetica" font-size="11" lengthAdjust="spacing" textLength="39" x="27" y="94.4468">Referee</text><rect fill="#E8E8EA" height="25" rx="2.5" ry="2.5" style="stroke:#202024;stroke-width:0.5;" width="53" x="20" y="568.2871"/><text fill="#000033" font-family="Helvetica" font-size="11" lengthAdjust="spacing" textLength="39" x="27" y="583.7573">Referee</text><text fill="#000000" font-family="sans-serif" font-size="14" lengthAdjust="spacing" textLength="93" x="145" y="102.0234">Originator DB</text><path d="M176.5,52.4883 C176.5,42.4883 194.5,42.4883 194.5,42.4883 C194.5,42.4883 212.5,42.4883 212.5,52.4883 L212.5,78.4883 C212.5,88.4883 194.5,88.4883 194.5,88.4883 C194.5,88.4883 176.5,88.4883 176.5,78.4883 L176.5,52.4883 " fill="#E2E2F0" style="stroke:#181818;stroke-width:1.5;"/><path d="M176.5,52.4883 C176.5,62.4883 194.5,62.4883 194.5,62.4883 C194.5,62.4883 212.5,62.4883 212.5,52.4883 " fill="none" style="stroke:#181818;stroke-width:1.5;"/><text fill="#000000" font-family="sans-serif" font-size="14" lengthAdjust="spacing" textLength="93" x="145" y="581.8223">Originator DB</text><path d="M176.5,594.7754 C176.5,584.7754 194.5,584.7754 194.5,584.7754 C194.5,584.7754 212.5,584.7754 212.5,594.7754 L212.5,620.7754 C212.5,630.7754 194.5,630.7754 194.5,630.7754 C194.5,630.7754 176.5,630.7754 176.5,620.7754 L176.5,594.7754 " fill="#E2E2F0" style="stroke:#181818;stroke-width:1.5;"/><path d="M176.5,594.7754 C176.5,604.7754 194.5,604.7754 194.5,604.7754 C194.5,604.7754 212.5,604.7754 212.5,594.7754 " fill="none" style="stroke:#181818;stroke-width:1.5;"/><rect fill="#E8E8EA" height="25" style="stroke:#202024;stroke-width:0.5;" width="107" x="319" y="74.9766"/><rect fill="#E8E8EA" height="25" style="stroke:#202024;stroke-width:0.5;" width="107" x="315" y="78.9766"/><text fill="#000033" font-family="Helvetica" font-size="11" lengthAdjust="spacing" textLength="93" x="322" y="94.4468">Intermediate nodes</text><rect fill="#E8E8EA" height="25" style="stroke:#202024;stroke-width:0.5;" width="107" x="319" y="568.2871"/><rect fill="#E8E8EA" height="25" style="stroke:#202024;stroke-width:0.5;" width="107" x="315" y="572.2871"/><text fill="#000033" font-family="Helvetica" font-size="11" lengthAdjust="spacing" textLength="93" x="322" y="587.7573">Intermediate nodes</text><text fill="#000000" font-family="sans-serif" font-size="14" lengthAdjust="spacing" textLength="87" x="500" y="102.0234">Terminus DB</text><path d="M528.5,52.4883 C528.5,42.4883 546.5,42.4883 546.5,42.4883 C546.5,42.4883 564.5,42.4883 564.5,52.4883 L564.5,78.4883 C564.5,88.4883 546.5,88.4883 546.5,88.4883 C546.5,88.4883 528.5,88.4883 528.5,78.4883 L528.5,52.4883 " fill="#E2E2F0" style="stroke:#181818;stroke-width:1.5;"/><path d="M528.5,52.4883 C528.5,62.4883 546.5,62.4883 546.5,62.4883 C546.5,62.4883 564.5,62.4883 564.5,52.4883 " fill="none" style="stroke:#181818;stroke-width:1.5;"/><text fill="#000000" font-family="sans-serif" font-size="14" lengthAdjust="spacing" textLength="87" x="500" y="581.8223">Terminus DB</text><path d="M528.5,594.7754 C528.5,584.7754 546.5,584.7754 546.5,584.7754 C546.5,584.7754 564.5,584.7754 564.5,594.7754 L564.5,620.7754 C564.5,630.7754 546.5,630.7754 546.5,630.7754 C546.5,630.7754 528.5,630.7754 528.5,620.7754 L528.5,594.7754 " fill="#E2E2F0" style="stroke:#181818;stroke-width:1.5;"/><path d="M528.5,594.7754 C528.5,604.7754 546.5,604.7754 546.5,604.7754 C546.5,604.7754 564.5,604.7754 564.5,594.7754 " fill="none" style="stroke:#181818;stroke-width:1.5;"/><line style="stroke:#000000;stroke-width:1.0;" x1="368.5" x2="358.5" y1="131.9766" y2="127.9766"/><line style="stroke:#000000;stroke-width:1.0;" x1="368.5" x2="358.5" y1="131.9766" y2="135.9766"/><line style="stroke:#000000;stroke-width:1.0;" x1="194.5" x2="369.5" y1="131.9766" y2="131.9766"/><text fill="#333333" font-family="Helvetica" font-size="11" lengthAdjust="spacing" textLength="140" x="201.5" y="127.4468">Will you participate in this lift?</text><line style="stroke:#000000;stroke-width:1.0;" x1="544.5" x2="534.5" y1="156.9766" y2="152.9766"/><line style="stroke:#000000;stroke-width:1.0;" x1="544.5" x2="534.5" y1="156.9766" y2="160.9766"/><line style="stroke:#000000;stroke-width:1.0;" x1="370.5" x2="545.5" y1="156.9766" y2="156.9766"/><text fill="#333333" font-family="Helvetica" font-size="11" lengthAdjust="spacing" textLength="140" x="377.5" y="152.4468">Will you participate in this lift?</text><path d="M464,169.9766 L464,190.9766 L629,190.9766 L629,179.9766 L619,169.9766 L464,169.9766 " fill="#E8E8EA" style="stroke:#202024;stroke-width:0.5;"/><path d="M619,169.9766 L619,179.9766 L629,179.9766 L619,169.9766 " fill="#E8E8EA" style="stroke:#202024;stroke-width:0.5;"/><text fill="#000033" font-family="Helvetica" font-size="11" lengthAdjust="spacing" textLength="144" x="470" y="183.4468">The destination is a local user</text><line style="stroke:#000000;stroke-width:1.0;" x1="195.5" x2="205.5" y1="223.9766" y2="219.9766"/><line style="stroke:#000000;stroke-width:1.0;" x1="195.5" x2="205.5" y1="223.9766" y2="227.9766"/><line style="stroke:#000000;stroke-width:1.0;" x1="194.5" x2="545.5" y1="223.9766" y2="223.9766"/><text fill="#333333" font-family="Helvetica" font-size="11" lengthAdjust="spacing" textLength="92" x="211.5" y="208.4468">Terminus reached;</text><text fill="#333333" font-family="Helvetica" font-size="11" lengthAdjust="spacing" textLength="59" x="211.5" y="219.4468">authenticate</text><path d="M10,238.9766 L72,238.9766 L72,246.2871 L62,256.2871 L10,256.2871 L10,238.9766 " fill="#EEEEEE" style="stroke:#000000;stroke-width:1.5;"/><rect fill="none" height="91.3105" style="stroke:#000000;stroke-width:1.5;" width="319.5" x="10" y="238.9766"/><text fill="#000000" font-family="sans-serif" font-size="13" font-weight="bold" lengthAdjust="spacing" textLength="17" x="25" y="252.5449">alt</text><text fill="#000000" font-family="sans-serif" font-size="11" font-weight="bold" lengthAdjust="spacing" textLength="198" x="87" y="251.6113">[Originator wants to cancel the lift]</text><line style="stroke:#000000;stroke-width:1.0;" x1="194.5" x2="236.5" y1="273.2871" y2="273.2871"/><line style="stroke:#000000;stroke-width:1.0;" x1="236.5" x2="236.5" y1="273.2871" y2="286.2871"/><line style="stroke:#000000;stroke-width:1.0;" x1="195.5" x2="236.5" y1="286.2871" y2="286.2871"/><line style="stroke:#000000;stroke-width:1.0;" x1="195.5" x2="205.5" y1="286.2871" y2="282.2871"/><line style="stroke:#000000;stroke-width:1.0;" x1="195.5" x2="205.5" y1="286.2871" y2="290.2871"/><text fill="#333333" font-family="Helvetica" font-size="11" lengthAdjust="spacing" textLength="116" x="201.5" y="268.7573">Wait until lift has expired</text><line style="stroke:#000000;stroke-width:1.0;" x1="47.5" x2="57.5" y1="322.2871" y2="318.2871"/><line style="stroke:#000000;stroke-width:1.0;" x1="47.5" x2="57.5" y1="322.2871" y2="326.2871"/><line style="stroke:#000000;stroke-width:1.0;" x1="46.5" x2="193.5" y1="322.2871" y2="322.2871"/><text fill="#333333" font-family="Helvetica" font-size="11" lengthAdjust="spacing" textLength="78" x="63.5" y="306.7573">Has lift expired?</text><text fill="#333333" font-family="Helvetica" font-size="11" lengthAdjust="spacing" textLength="89" x="63.5" y="317.7573">Get void signature</text><line style="stroke:#000000;stroke-width:1.0;" x1="47.5" x2="57.5" y1="365.2871" y2="361.2871"/><line style="stroke:#000000;stroke-width:1.0;" x1="47.5" x2="57.5" y1="365.2871" y2="369.2871"/><line style="stroke:#000000;stroke-width:1.0;" x1="46.5" x2="193.5" y1="365.2871" y2="365.2871"/><text fill="#333333" font-family="Helvetica" font-size="11" lengthAdjust="spacing" textLength="124" x="63.5" y="349.7573">Request to commit this lift</text><text fill="#333333" font-family="Helvetica" font-size="11" lengthAdjust="spacing" textLength="116" x="63.5" y="360.7573">Get good/void signature</text><line style="stroke:#000000;stroke-width:1.0;" x1="192.5" x2="182.5" y1="401.2871" y2="397.2871"/><line style="stroke:#000000;stroke-width:1.0;" x1="192.5" x2="182.5" y1="401.2871" y2="405.2871"/><line style="stroke:#000000;stroke-width:1.0;" x1="46.5" x2="193.5" y1="401.2871" y2="401.2871"/><text fill="#333333" font-family="Helvetica" font-size="11" lengthAdjust="spacing" textLength="98" x="53.5" y="385.7573">Here's my signature</text><text fill="#333333" font-family="Helvetica" font-size="11" lengthAdjust="spacing" textLength="110" x="53.5" y="396.7573">(whether good or void)</text><path d="M89,414.2871 L89,479.2871 L300,479.2871 L300,424.2871 L290,414.2871 L89,414.2871 " fill="#E8E8EA" style="stroke:#202024;stroke-width:0.5;"/><path d="M290,414.2871 L290,424.2871 L300,424.2871 L290,414.2871 " fill="#E8E8EA" style="stroke:#202024;stroke-width:0.5;"/><text fill="#000033" font-family="Helvetica" font-size="11" lengthAdjust="spacing" textLength="190" x="95" y="427.7573">Lift is now irrevocably good and binding</text><text fill="#000033" font-family="Helvetica" font-size="11" lengthAdjust="spacing" textLength="176" x="95" y="438.7573">or void and safely ignorable.  A good</text><text fill="#000033" font-family="Helvetica" font-size="11" lengthAdjust="spacing" textLength="159" x="95" y="449.7573">signature is a liability to any node</text><text fill="#000033" font-family="Helvetica" font-size="11" lengthAdjust="spacing" textLength="174" x="95" y="460.7573">who doesn't deploy it (because their</text><text fill="#000033" font-family="Helvetica" font-size="11" lengthAdjust="spacing" textLength="160" x="98" y="471.7573">upstream neighbor probably will).</text><line style="stroke:#000000;stroke-width:1.0;" x1="544.5" x2="534.5" y1="501.2871" y2="497.2871"/><line style="stroke:#000000;stroke-width:1.0;" x1="544.5" x2="534.5" y1="501.2871" y2="505.2871"/><line style="stroke:#000000;stroke-width:1.0;" x1="194.5" x2="545.5" y1="501.2871" y2="501.2871"/><text fill="#333333" font-family="Helvetica" font-size="11" lengthAdjust="spacing" textLength="152" x="201.5" y="496.7573">Here's the signature; consense</text><line style="stroke:#000000;stroke-width:1.0;" x1="371.5" x2="381.5" y1="526.2871" y2="522.2871"/><line style="stroke:#000000;stroke-width:1.0;" x1="371.5" x2="381.5" y1="526.2871" y2="530.2871"/><line style="stroke:#000000;stroke-width:1.0;" x1="370.5" x2="545.5" y1="526.2871" y2="526.2871"/><text fill="#333333" font-family="Helvetica" font-size="11" lengthAdjust="spacing" textLength="152" x="387.5" y="521.7573">Here's the signature; consense</text><line style="stroke:#000000;stroke-width:1.0;" x1="195.5" x2="205.5" y1="551.2871" y2="547.2871"/><line style="stroke:#000000;stroke-width:1.0;" x1="195.5" x2="205.5" y1="551.2871" y2="555.2871"/><line style="stroke:#000000;stroke-width:1.0;" x1="194.5" x2="369.5" y1="551.2871" y2="551.2871"/><text fill="#333333" font-family="Helvetica" font-size="11" lengthAdjust="spacing" textLength="152" x="211.5" y="546.7573">Here's the signature; consense</text><text fill="#888888" font-family="sans-serif" font-size="10" lengthAdjust="spacing" textLength="142" x="245.5" y="641.4434">Fri Feb 10 23:38:51 MST 2023</text><!--SRC=[ZLFHYjim47oslc8R2fSyDFUUWpjwFUWL2eLmS2_t8akRU45UkPASD7_VbUIuIMbfmH17p8ncPjVlY8qRBOBnVUzvFOozK-yJ9OVBhxHByCdpZaAl4tc-tShFZapvirA33eaC3PeJBBQumu2u01qXr7TbTTAjZWYBRu7sn3hv04-F1JC4FpmzAkETGvFr8Yo-SCBGeoMT4DXRZ0LA-VX2x4L0n6CyIsMIIAagsJGVxk-RmjaqpIiv1oS_mcnMf8aXTHJ1IS07LQ2LLPN-ZwROova_O9WCRE2bGn3JAIULH21O3SuRxM2C4g7YwbNLh5mrfmceJOVsxetrc3hab8j6fRHBSD7VKUgMp1wCPeDEB65nf63gz5h-LLE2KSHSGK4dXU6FWGBQQyOqj4tph6l4C-pXZJzZWeCd2v7suc8Cg93jtFWLVOlVH-cWE9ITajldqghGtdjx-vkQckZNtf_bw2P2V_g5VEFbiKF978eEI25PQdKvZccr0Ce2oztiZq0Xu456qRfJPMgsq19Ruhr09vro6lKE1ILN-Y1uN0DyB1p1pKQcuP9koL4wvRYQJsLh1NRiF5YFaM-IRCJWlCWbMBPej6n2dXa541oCGqmo-1uOQT-rlhXlYykZxE1gdOk6d2sZuRBnULcdcl8YpFRkf7oEACzvwow_YdymwXVnfr7yZV4J]--></g></svg>