<?xml version="1.0" encoding="UTF-8" standalone="no"?><svg xmlns="http://www.w3.org/2000/svg" xmlns:xlink="http://www.w3.org/1999/xlink" contentScriptType="application/ecmascript" contentStyleType="text/css" height="526px" preserveAspectRatio="none" style="width:648px;height:526px;" version="1.1" viewBox="0 0 648 526" width="648px" zoomAndPan="magnify"><defs><filter height="300%" id="fpkl2h8yrld3r" width="300%" x="-1" y="-1"><feGaussianBlur result="blurOut" stdDeviation="2.0"/><feColorMatrix in="blurOut" result="blurOut2" type="matrix" values="0 0 0 0 0 0 0 0 0 0 0 0 0 0 0 0 0 0 .4 0"/><feOffset dx="4.0" dy="4.0" in="blurOut2" result="blurOut3"/><feBlend in="SourceGraphic" in2="blurOut3" mode="normal"/></filter></defs><g><text fill="#000000" font-family="sans-serif" font-size="18" lengthAdjust="spacing" textLength="109" x="267.5" y="29.4023">Lift Proposal</text><rect fill="#FFFFFF" filter="url(#fpkl2h8yrld3r)" height="104.2656" style="stroke:#000000;stroke-width:2.0;" width="267.5" x="10" y="135.1992"/><rect fill="#FFFFFF" height="61.9551" style="stroke:none;stroke-width:1.0;" width="267.5" x="10" y="177.5098"/><rect fill="#FFFFFF" filter="url(#fpkl2h8yrld3r)" height="132.2207" style="stroke:#000000;stroke-width:2.0;" width="475.5" x="158.5" y="278.4648"/><rect fill="#FFFFFF" height="39.9551" style="stroke:none;stroke-width:1.0;" width="475.5" x="158.5" y="330.7754"/><rect fill="#FFFFFF" height="39.9551" style="stroke:none;stroke-width:1.0;" width="475.5" x="158.5" y="370.7305"/><line style="stroke:#44AAFF;stroke-width:1.0;stroke-dasharray:5.0,5.0;" x1="35" x2="35" y1="118.1992" y2="427.6855"/><line style="stroke:#44AAFF;stroke-width:1.0;stroke-dasharray:5.0,5.0;" x1="96" x2="96" y1="118.1992" y2="427.6855"/><line style="stroke:#44AAFF;stroke-width:1.0;stroke-dasharray:5.0,5.0;" x1="217.5" x2="217.5" y1="118.1992" y2="427.6855"/><line style="stroke:#44AAFF;stroke-width:1.0;stroke-dasharray:5.0,5.0;" x1="379" x2="379" y1="118.1992" y2="427.6855"/><line style="stroke:#44AAFF;stroke-width:1.0;stroke-dasharray:5.0,5.0;" x1="550" x2="550" y1="118.1992" y2="427.6855"/><text fill="#000033" font-family="Helvetica" font-size="11" lengthAdjust="spacing" textLength="24" x="20" y="115.6694">User</text><ellipse cx="35" cy="50.1992" fill="#44AAFF" filter="url(#fpkl2h8yrld3r)" rx="8" ry="8" style="stroke:#2277DD;stroke-width:2.0;"/><path d="M35,58.1992 L35,85.1992 M22,66.1992 L48,66.1992 M35,85.1992 L22,100.1992 M35,85.1992 L48,100.1992 " fill="none" filter="url(#fpkl2h8yrld3r)" style="stroke:#2277DD;stroke-width:2.0;"/><text fill="#000033" font-family="Helvetica" font-size="11" lengthAdjust="spacing" textLength="24" x="20" y="435.1558">User</text><ellipse cx="35" cy="447.6855" fill="#44AAFF" filter="url(#fpkl2h8yrld3r)" rx="8" ry="8" style="stroke:#2277DD;stroke-width:2.0;"/><path d="M35,455.6855 L35,482.6855 M22,463.6855 L48,463.6855 M35,482.6855 L22,497.6855 M35,482.6855 L48,497.6855 " fill="none" filter="url(#fpkl2h8yrld3r)" style="stroke:#2277DD;stroke-width:2.0;"/><text fill="#000000" font-family="sans-serif" font-size="14" lengthAdjust="spacing" textLength="66" x="60" y="115.2461">Lift Agent</text><ellipse cx="96" cy="85.7109" fill="#FEFECE" filter="url(#fpkl2h8yrld3r)" rx="12" ry="12" style="stroke:#A80036;stroke-width:2.0;"/><polygon fill="#A80036" points="92,73.7109,98,68.7109,96,73.7109,98,78.7109,92,73.7109" style="stroke:#A80036;stroke-width:1.0;"/><text fill="#000000" font-family="sans-serif" font-size="14" lengthAdjust="spacing" textLength="66" x="60" y="440.2207">Lift Agent</text><ellipse cx="96" cy="459.1738" fill="#FEFECE" filter="url(#fpkl2h8yrld3r)" rx="12" ry="12" style="stroke:#A80036;stroke-width:2.0;"/><polygon fill="#A80036" points="92,447.1738,98,442.1738,96,447.1738,98,452.1738,92,447.1738" style="stroke:#A80036;stroke-width:1.0;"/><text fill="#000000" font-family="sans-serif" font-size="14" lengthAdjust="spacing" textLength="93" x="168.5" y="115.2461">Originator DB</text><path d="M200,65.7109 C200,55.7109 218,55.7109 218,55.7109 C218,55.7109 236,55.7109 236,65.7109 L236,91.7109 C236,101.7109 218,101.7109 218,101.7109 C218,101.7109 200,101.7109 200,91.7109 L200,65.7109 " fill="#FEFECE" filter="url(#fpkl2h8yrld3r)" style="stroke:#000000;stroke-width:1.5;"/><path d="M200,65.7109 C200,75.7109 218,75.7109 218,75.7109 C218,75.7109 236,75.7109 236,65.7109 " fill="none" style="stroke:#000000;stroke-width:1.5;"/><text fill="#000000" font-family="sans-serif" font-size="14" lengthAdjust="spacing" textLength="93" x="168.5" y="440.2207">Originator DB</text><path d="M200,453.1738 C200,443.1738 218,443.1738 218,443.1738 C218,443.1738 236,443.1738 236,453.1738 L236,479.1738 C236,489.1738 218,489.1738 218,489.1738 C218,489.1738 200,489.1738 200,479.1738 L200,453.1738 " fill="#FEFECE" filter="url(#fpkl2h8yrld3r)" style="stroke:#000000;stroke-width:1.5;"/><path d="M200,453.1738 C200,463.1738 218,463.1738 218,463.1738 C218,463.1738 236,463.1738 236,453.1738 " fill="none" style="stroke:#000000;stroke-width:1.5;"/><text fill="#000000" font-family="sans-serif" font-size="14" lengthAdjust="spacing" textLength="88" x="332" y="115.2461">Upstream DB</text><path d="M361,65.7109 C361,55.7109 379,55.7109 379,55.7109 C379,55.7109 397,55.7109 397,65.7109 L397,91.7109 C397,101.7109 379,101.7109 379,101.7109 C379,101.7109 361,101.7109 361,91.7109 L361,65.7109 " fill="#FEFECE" filter="url(#fpkl2h8yrld3r)" style="stroke:#000000;stroke-width:1.5;"/><path d="M361,65.7109 C361,75.7109 379,75.7109 379,75.7109 C379,75.7109 397,75.7109 397,65.7109 " fill="none" style="stroke:#000000;stroke-width:1.5;"/><text fill="#000000" font-family="sans-serif" font-size="14" lengthAdjust="spacing" textLength="88" x="332" y="440.2207">Upstream DB</text><path d="M361,453.1738 C361,443.1738 379,443.1738 379,443.1738 C379,443.1738 397,443.1738 397,453.1738 L397,479.1738 C397,489.1738 379,489.1738 379,489.1738 C379,489.1738 361,489.1738 361,479.1738 L361,453.1738 " fill="#FEFECE" filter="url(#fpkl2h8yrld3r)" style="stroke:#000000;stroke-width:1.5;"/><path d="M361,453.1738 C361,463.1738 379,463.1738 379,463.1738 C379,463.1738 397,463.1738 397,453.1738 " fill="none" style="stroke:#000000;stroke-width:1.5;"/><text fill="#000000" font-family="sans-serif" font-size="14" lengthAdjust="spacing" textLength="142" x="476" y="115.2461">Next Upstream Node</text><path d="M532,65.7109 C532,55.7109 550,55.7109 550,55.7109 C550,55.7109 568,55.7109 568,65.7109 L568,91.7109 C568,101.7109 550,101.7109 550,101.7109 C550,101.7109 532,101.7109 532,91.7109 L532,65.7109 " fill="#FEFECE" filter="url(#fpkl2h8yrld3r)" style="stroke:#000000;stroke-width:1.5;"/><path d="M532,65.7109 C532,75.7109 550,75.7109 550,75.7109 C550,75.7109 568,75.7109 568,65.7109 " fill="none" style="stroke:#000000;stroke-width:1.5;"/><text fill="#000000" font-family="sans-serif" font-size="14" lengthAdjust="spacing" textLength="142" x="476" y="440.2207">Next Upstream Node</text><path d="M532,453.1738 C532,443.1738 550,443.1738 550,443.1738 C550,443.1738 568,443.1738 568,453.1738 L568,479.1738 C568,489.1738 550,489.1738 550,489.1738 C550,489.1738 532,489.1738 532,479.1738 L532,453.1738 " fill="#FEFECE" filter="url(#fpkl2h8yrld3r)" style="stroke:#000000;stroke-width:1.5;"/><path d="M532,453.1738 C532,463.1738 550,463.1738 550,463.1738 C550,463.1738 568,463.1738 568,453.1738 " fill="none" style="stroke:#000000;stroke-width:1.5;"/><path d="M10,135.1992 L72,135.1992 L72,142.1992 L62,152.1992 L10,152.1992 L10,135.1992 " fill="#EEEEEE" style="stroke:#000000;stroke-width:1.0;"/><rect fill="none" height="104.2656" style="stroke:#000000;stroke-width:2.0;" width="267.5" x="10" y="135.1992"/><text fill="#000000" font-family="sans-serif" font-size="13" font-weight="bold" lengthAdjust="spacing" textLength="17" x="25" y="148.7676">alt</text><text fill="#000000" font-family="sans-serif" font-size="11" font-weight="bold" lengthAdjust="spacing" textLength="139" x="87" y="147.834">[User initiates linear lift]</text><line style="stroke:#000000;stroke-width:1.0;" x1="216" x2="206" y1="169.5098" y2="165.5098"/><line style="stroke:#000000;stroke-width:1.0;" x1="216" x2="206" y1="169.5098" y2="173.5098"/><line style="stroke:#000000;stroke-width:1.0;" x1="35" x2="217" y1="169.5098" y2="169.5098"/><text fill="#333333" font-family="Helvetica" font-size="11" lengthAdjust="spacing" textLength="159" x="42" y="164.98">Request payment to named peer</text><line style="stroke:#000000;stroke-width:1.0;stroke-dasharray:2.0,2.0;" x1="10" x2="277.5" y1="178.5098" y2="178.5098"/><text fill="#000000" font-family="sans-serif" font-size="11" font-weight="bold" lengthAdjust="spacing" textLength="230" x="15" y="189.1445">[Autonomous agent initiates circular lift]</text><line style="stroke:#000000;stroke-width:1.0;" x1="216" x2="206" y1="231.4648" y2="227.4648"/><line style="stroke:#000000;stroke-width:1.0;" x1="216" x2="206" y1="231.4648" y2="235.4648"/><line style="stroke:#000000;stroke-width:1.0;" x1="96" x2="217" y1="231.4648" y2="231.4648"/><text fill="#333333" font-family="Helvetica" font-size="11" lengthAdjust="spacing" textLength="95" x="103" y="204.9351">Request clearing lift</text><text fill="#333333" font-family="Helvetica" font-size="11" lengthAdjust="spacing" textLength="73" x="103" y="215.9351">through named</text><text fill="#333333" font-family="Helvetica" font-size="11" lengthAdjust="spacing" textLength="77" x="103" y="226.9351">destination peer</text><line style="stroke:#000000;stroke-width:1.0;" x1="377" x2="367" y1="263.4648" y2="259.4648"/><line style="stroke:#000000;stroke-width:1.0;" x1="377" x2="367" y1="263.4648" y2="267.4648"/><line style="stroke:#000000;stroke-width:1.0;" x1="218" x2="378" y1="263.4648" y2="263.4648"/><text fill="#333333" font-family="Helvetica" font-size="11" lengthAdjust="spacing" textLength="129" x="225" y="258.9351">Will you participate in a lift?</text><path d="M158.5,278.4648 L220.5,278.4648 L220.5,285.4648 L210.5,295.4648 L158.5,295.4648 L158.5,278.4648 " fill="#EEEEEE" style="stroke:#000000;stroke-width:1.0;"/><rect fill="none" height="132.2207" style="stroke:#000000;stroke-width:2.0;" width="475.5" x="158.5" y="278.4648"/><text fill="#000000" font-family="sans-serif" font-size="13" font-weight="bold" lengthAdjust="spacing" textLength="17" x="173.5" y="292.0332">alt</text><text fill="#000000" font-family="sans-serif" font-size="11" font-weight="bold" lengthAdjust="spacing" textLength="150" x="235.5" y="291.0996">[Destination found locally]</text><path d="M282,300.7754 L282,321.7754 L472,321.7754 L472,310.7754 L462,300.7754 L282,300.7754 " fill="#E8E8EA" filter="url(#fpkl2h8yrld3r)" style="stroke:#202024;stroke-width:1.0;"/><path d="M462,300.7754 L462,310.7754 L472,310.7754 L462,300.7754 " fill="#E8E8EA" style="stroke:#202024;stroke-width:1.0;"/><text fill="#000033" font-family="Helvetica" font-size="11" lengthAdjust="spacing" textLength="169" x="288" y="314.2456">This case shown in a later diagram</text><line style="stroke:#000000;stroke-width:1.0;stroke-dasharray:2.0,2.0;" x1="158.5" x2="634" y1="331.7754" y2="331.7754"/><text fill="#000000" font-family="sans-serif" font-size="11" font-weight="bold" lengthAdjust="spacing" textLength="269" x="163.5" y="342.4102">[A route can be found to the named destination]</text><line style="stroke:#000000;stroke-width:1.0;" x1="548" x2="538" y1="362.7305" y2="358.7305"/><line style="stroke:#000000;stroke-width:1.0;" x1="548" x2="538" y1="362.7305" y2="366.7305"/><line style="stroke:#000000;stroke-width:1.0;" x1="379" x2="549" y1="362.7305" y2="362.7305"/><text fill="#333333" font-family="Helvetica" font-size="11" lengthAdjust="spacing" textLength="147" x="386" y="358.2007">Propagate lift via chosen route</text><line style="stroke:#000000;stroke-width:1.0;stroke-dasharray:2.0,2.0;" x1="158.5" x2="634" y1="371.7305" y2="371.7305"/><text fill="#000000" font-family="sans-serif" font-size="11" font-weight="bold" lengthAdjust="spacing" textLength="93" x="163.5" y="382.3652">[No route found]</text><polygon fill="#000000" points="229,398.6855,219,402.6855,229,406.6855,225,402.6855" style="stroke:#000000;stroke-width:1.0;"/><line style="stroke:#000000;stroke-width:1.0;stroke-dasharray:2.0,2.0;" x1="223" x2="378" y1="402.6855" y2="402.6855"/><text fill="#333333" font-family="Helvetica" font-size="11" lengthAdjust="spacing" textLength="137" x="235" y="398.1558">Reply: lift failed with no route</text><text fill="#888888" font-family="sans-serif" font-size="10" lengthAdjust="spacing" textLength="145" x="249.5" y="518.3535">Thu Jul 01 15:51:33 MDT 2021</text><!--MD5=[858380ba2b6369412304013705f9405b]
@startuml
!include common.puml
$title(Lift Proposal)
actor "User" as user
control "Lift Agent" as agent
database "Originator DB" as propDB
database "Upstream DB" as upDB
database "Next Upstream Node" as next

alt User initiates linear lift
  user		->>	propDB:		Request payment to named peer

else Autonomous agent initiates circular lift
  agent		->>	propDB:		Request clearing lift\nthrough named\ndestination peer
end

propDB		->>	upDB:		Will you participate in a lift?

alt Destination found locally
  note over upDB: This case shown in a later diagram
  
else A route can be found to the named destination
  upDB		->>	next:		Propagate lift via chosen route

else No route found
  upDB		- ->	propDB:		Reply: lift failed with no route

end
  
@enduml

@startuml



skinparam backgroundColor fff
skinparam stereotypeCBackgroundColor 27d






skinparam circledCharacter {
  radius 8
  fontSize 11
  fontName Helvetica
}

skinparam class {
    backgroundColor e8e8ea
  borderColor 202024
    fontColor 003
  fontName Helvetica
  fontSize 11
  stereotypeFontColor 333
  stereotypeFontSize 11
    arrowColor 000
  arrowFontName Helvetica
  arrowFontColor 333
  arrowFontSize 11

  attributeFontColor 333
  attributeFontSize 11
  attributeIconSize 11
}

skinparam actor {
    backgroundColor 4af
  borderColor 27d
    fontColor 003
  fontName Helvetica
  fontSize 11
  stereotypeFontColor 333
  stereotypeFontSize 11
}

skinparam participant {
    backgroundColor e8e8ea
  borderColor 202024
    fontColor 003
  fontName Helvetica
  fontSize 11
  stereotypeFontColor 333
  stereotypeFontSize 11
}

skinparam collections {
    backgroundColor e8e8ea
  borderColor 202024
    fontColor 003
  fontName Helvetica
  fontSize 11
  stereotypeFontColor 333
  stereotypeFontSize 11
}

skinparam SequenceBox{
    backgroundColor e0e0e0
  borderColor cccccc
    fontColor 003
  fontName Helvetica
  fontSize 11
  stereotypeFontColor 333
  stereotypeFontSize 11
}

skinparam interface {
    backgroundColor 4af
  borderColor 27d
    fontColor 003
  fontName Helvetica
  fontSize 11
  stereotypeFontColor 333
  stereotypeFontSize 11
}

skinparam component {
    backgroundColor e8e8ea
  borderColor 202024
    fontColor 003
  fontName Helvetica
  fontSize 11
  stereotypeFontColor 333
  stereotypeFontSize 11
}



skinparam queue {
    backgroundColor e8e8ea
  borderColor 202024
    fontColor 003
  fontName Helvetica
  fontSize 11
  stereotypeFontColor 333
  stereotypeFontSize 11
}


skinparam usecase {
    backgroundColor e8e8ea
  borderColor 202024
    fontColor 003
  fontName Helvetica
  fontSize 11
  stereotypeFontColor 333
  stereotypeFontSize 11
    arrowColor 000
  arrowFontName Helvetica
  arrowFontColor 333
  arrowFontSize 11
}

skinparam activity {
    backgroundColor e8e8ea
  borderColor 202024
    fontColor 003
  fontName Helvetica
  fontSize 11
  stereotypeFontColor 333
  stereotypeFontSize 11
    arrowColor 000
  arrowFontName Helvetica
  arrowFontColor 333
  arrowFontSize 11
}

skinparam sequence {
    fontColor 003
  fontName Helvetica
  fontSize 11
  stereotypeFontColor 333
  stereotypeFontSize 11
    arrowColor 000
  arrowFontName Helvetica
  arrowFontColor 333
  arrowFontSize 11

  lifeLineBorderColor 4af
  lifeLineBackgroundColor e0e0e0
}




skinparam state {
    backgroundColor e8e8ea
  borderColor 202024
    fontColor 003
  fontName Helvetica
  fontSize 11
  stereotypeFontColor 333
  stereotypeFontSize 11
    arrowColor 000
  arrowFontName Helvetica
  arrowFontColor 333
  arrowFontSize 11
  startColor 4af
  endColor 27d
}

skinparam note {
    backgroundColor e8e8ea
  borderColor 202024
    fontColor 003
  fontName Helvetica
  fontSize 11
  stereotypeFontColor 333
  stereotypeFontSize 11
}







  title Lift Proposal
  footer Thu Jul 01 15:51:33 MDT 2021
actor "User" as user
control "Lift Agent" as agent
database "Originator DB" as propDB
database "Upstream DB" as upDB
database "Next Upstream Node" as next

alt User initiates linear lift
  user		->>	propDB:		Request payment to named peer

else Autonomous agent initiates circular lift
  agent		->>	propDB:		Request clearing lift\nthrough named\ndestination peer
end

propDB		->>	upDB:		Will you participate in a lift?

alt Destination found locally
  note over upDB: This case shown in a later diagram
  
else A route can be found to the named destination
  upDB		->>	next:		Propagate lift via chosen route

else No route found
  upDB		- ->	propDB:		Reply: lift failed with no route

end
  
@enduml

PlantUML version 1.2021.00(Sun Jan 10 03:25:05 MST 2021)
(GPL source distribution)
Java Runtime: OpenJDK Runtime Environment
JVM: OpenJDK 64-Bit Server VM
Default Encoding: UTF-8
Language: en
Country: US
--></g></svg>