<?xml version="1.0" encoding="UTF-8" standalone="no"?><svg xmlns="http://www.w3.org/2000/svg" xmlns:xlink="http://www.w3.org/1999/xlink" contentStyleType="text/css" height="408px" preserveAspectRatio="none" style="width:443px;height:408px;background:#FFFFFF;" version="1.1" viewBox="0 0 443 408" width="443px" zoomAndPan="magnify"><defs/><g><text fill="#000000" font-family="sans-serif" font-size="14" font-weight="bold" lengthAdjust="spacing" textLength="221" x="112.75" y="28.5352">Chit Direct Payment or Setting</text><rect fill="none" height="42.3105" style="stroke:#000000;stroke-width:1.5;" width="229.5" x="115.5" y="258.4883"/><line style="stroke:#44AAFF;stroke-width:0.5;stroke-dasharray:5.0,5.0;" x1="46" x2="46" y1="113.4883" y2="317.7988"/><line style="stroke:#44AAFF;stroke-width:0.5;stroke-dasharray:5.0,5.0;" x1="158.5" x2="158.5" y1="113.4883" y2="317.7988"/><line style="stroke:#44AAFF;stroke-width:0.5;stroke-dasharray:5.0,5.0;" x1="292" x2="292" y1="113.4883" y2="317.7988"/><line style="stroke:#44AAFF;stroke-width:0.5;stroke-dasharray:5.0,5.0;" x1="417.5" x2="417.5" y1="113.4883" y2="317.7988"/><text fill="#000033" font-family="Helvetica" font-size="11" lengthAdjust="spacing" textLength="29" x="29" y="110.9585">Payor</text><ellipse cx="46.5" cy="50.9883" fill="#44AAFF" rx="8" ry="8" style="stroke:#2277DD;stroke-width:0.5;"/><path d="M46.5,58.9883 L46.5,85.9883 M33.5,66.9883 L59.5,66.9883 M46.5,85.9883 L33.5,100.9883 M46.5,85.9883 L59.5,100.9883 " fill="none" style="stroke:#2277DD;stroke-width:0.5;"/><text fill="#000033" font-family="Helvetica" font-size="11" lengthAdjust="spacing" textLength="29" x="29" y="325.269">Payor</text><ellipse cx="46.5" cy="336.2988" fill="#44AAFF" rx="8" ry="8" style="stroke:#2277DD;stroke-width:0.5;"/><path d="M46.5,344.2988 L46.5,371.2988 M33.5,352.2988 L59.5,352.2988 M46.5,371.2988 L33.5,386.2988 M46.5,371.2988 L59.5,386.2988 " fill="none" style="stroke:#2277DD;stroke-width:0.5;"/><text fill="#000000" font-family="sans-serif" font-size="14" lengthAdjust="spacing" textLength="60" x="125.5" y="110.5352">Payor DB</text><path d="M140.5,61 C140.5,51 158.5,51 158.5,51 C158.5,51 176.5,51 176.5,61 L176.5,87 C176.5,97 158.5,97 158.5,97 C158.5,97 140.5,97 140.5,87 L140.5,61 " fill="#E2E2F0" style="stroke:#181818;stroke-width:1.5;"/><path d="M140.5,61 C140.5,71 158.5,71 158.5,71 C158.5,71 176.5,71 176.5,61 " fill="none" style="stroke:#181818;stroke-width:1.5;"/><text fill="#000000" font-family="sans-serif" font-size="14" lengthAdjust="spacing" textLength="60" x="125.5" y="330.334">Payor DB</text><path d="M140.5,343.2871 C140.5,333.2871 158.5,333.2871 158.5,333.2871 C158.5,333.2871 176.5,333.2871 176.5,343.2871 L176.5,369.2871 C176.5,379.2871 158.5,379.2871 158.5,379.2871 C158.5,379.2871 140.5,379.2871 140.5,369.2871 L140.5,343.2871 " fill="#E2E2F0" style="stroke:#181818;stroke-width:1.5;"/><path d="M140.5,343.2871 C140.5,353.2871 158.5,353.2871 158.5,353.2871 C158.5,353.2871 176.5,353.2871 176.5,343.2871 " fill="none" style="stroke:#181818;stroke-width:1.5;"/><text fill="#000000" font-family="sans-serif" font-size="14" lengthAdjust="spacing" textLength="79" x="250" y="110.5352">Receiver DB</text><path d="M274.5,61 C274.5,51 292.5,51 292.5,51 C292.5,51 310.5,51 310.5,61 L310.5,87 C310.5,97 292.5,97 292.5,97 C292.5,97 274.5,97 274.5,87 L274.5,61 " fill="#E2E2F0" style="stroke:#181818;stroke-width:1.5;"/><path d="M274.5,61 C274.5,71 292.5,71 292.5,71 C292.5,71 310.5,71 310.5,61 " fill="none" style="stroke:#181818;stroke-width:1.5;"/><text fill="#000000" font-family="sans-serif" font-size="14" lengthAdjust="spacing" textLength="79" x="250" y="330.334">Receiver DB</text><path d="M274.5,343.2871 C274.5,333.2871 292.5,333.2871 292.5,333.2871 C292.5,333.2871 310.5,333.2871 310.5,343.2871 L310.5,369.2871 C310.5,379.2871 292.5,379.2871 292.5,379.2871 C292.5,379.2871 274.5,379.2871 274.5,369.2871 L274.5,343.2871 " fill="#E2E2F0" style="stroke:#181818;stroke-width:1.5;"/><path d="M274.5,343.2871 C274.5,353.2871 292.5,353.2871 292.5,353.2871 C292.5,353.2871 310.5,353.2871 310.5,343.2871 " fill="none" style="stroke:#181818;stroke-width:1.5;"/><text fill="#000033" font-family="Helvetica" font-size="11" lengthAdjust="spacing" textLength="44" x="392.5" y="110.9585">Receiver</text><ellipse cx="417.5" cy="50.9883" fill="#44AAFF" rx="8" ry="8" style="stroke:#2277DD;stroke-width:0.5;"/><path d="M417.5,58.9883 L417.5,85.9883 M404.5,66.9883 L430.5,66.9883 M417.5,85.9883 L404.5,100.9883 M417.5,85.9883 L430.5,100.9883 " fill="none" style="stroke:#2277DD;stroke-width:0.5;"/><text fill="#000033" font-family="Helvetica" font-size="11" lengthAdjust="spacing" textLength="44" x="392.5" y="325.269">Receiver</text><ellipse cx="417.5" cy="336.2988" fill="#44AAFF" rx="8" ry="8" style="stroke:#2277DD;stroke-width:0.5;"/><path d="M417.5,344.2988 L417.5,371.2988 M404.5,352.2988 L430.5,352.2988 M417.5,371.2988 L404.5,386.2988 M417.5,371.2988 L430.5,386.2988 " fill="none" style="stroke:#2277DD;stroke-width:0.5;"/><line style="stroke:#000000;stroke-width:1.0;" x1="156.5" x2="146.5" y1="162.4883" y2="158.4883"/><line style="stroke:#000000;stroke-width:1.0;" x1="156.5" x2="146.5" y1="162.4883" y2="166.4883"/><line style="stroke:#000000;stroke-width:1.0;" x1="46.5" x2="157.5" y1="162.4883" y2="162.4883"/><text fill="#333333" font-family="Helvetica" font-size="11" lengthAdjust="spacing" textLength="88" x="53.5" y="135.9585">Submit signed chit</text><text fill="#333333" font-family="Helvetica" font-size="11" lengthAdjust="spacing" textLength="86" x="53.5" y="146.9585">value --&gt; receiver</text><text fill="#333333" font-family="Helvetica" font-size="11" lengthAdjust="spacing" textLength="45" x="53.5" y="157.9585">or setting</text><path d="M5,175.4883 L5,196.4883 L201,196.4883 L201,185.4883 L191,175.4883 L5,175.4883 " fill="#E8E8EA" style="stroke:#202024;stroke-width:0.5;"/><path d="M191,175.4883 L191,185.4883 L201,185.4883 L191,175.4883 " fill="#E8E8EA" style="stroke:#202024;stroke-width:0.5;"/><text fill="#000033" font-family="Helvetica" font-size="11" lengthAdjust="spacing" textLength="175" x="11" y="188.9585">Payable/receivable/setting is binding</text><line style="stroke:#000000;stroke-width:1.0;" x1="290.5" x2="280.5" y1="218.4883" y2="214.4883"/><line style="stroke:#000000;stroke-width:1.0;" x1="290.5" x2="280.5" y1="218.4883" y2="222.4883"/><line style="stroke:#000000;stroke-width:1.0;" x1="158.5" x2="291.5" y1="218.4883" y2="218.4883"/><text fill="#333333" font-family="Helvetica" font-size="11" lengthAdjust="spacing" textLength="89" x="165.5" y="213.9585">Store and transmit</text><line style="stroke:#000000;stroke-width:1.0;" x1="415.5" x2="405.5" y1="243.4883" y2="239.4883"/><line style="stroke:#000000;stroke-width:1.0;" x1="415.5" x2="405.5" y1="243.4883" y2="247.4883"/><line style="stroke:#000000;stroke-width:1.0;" x1="292.5" x2="416.5" y1="243.4883" y2="243.4883"/><text fill="#333333" font-family="Helvetica" font-size="11" lengthAdjust="spacing" textLength="101" x="299.5" y="238.9585">Store and notify user</text><path d="M115.5,258.4883 L189.5,258.4883 L189.5,265.7988 L179.5,275.7988 L115.5,275.7988 L115.5,258.4883 " fill="#EEEEEE" style="stroke:#000000;stroke-width:1.5;"/><rect fill="none" height="42.3105" style="stroke:#000000;stroke-width:1.5;" width="229.5" x="115.5" y="258.4883"/><text fill="#000000" font-family="sans-serif" font-size="13" font-weight="bold" lengthAdjust="spacing" textLength="29" x="130.5" y="272.0566">loop</text><text fill="#000000" font-family="sans-serif" font-size="11" font-weight="bold" lengthAdjust="spacing" textLength="96" x="204.5" y="271.123">[until consensed]</text><polygon fill="#000000" points="169.5,288.7988,159.5,292.7988,169.5,296.7988,165.5,292.7988" style="stroke:#000000;stroke-width:1.0;"/><polygon fill="#000000" points="280.5,288.7988,290.5,292.7988,280.5,296.7988,284.5,292.7988" style="stroke:#000000;stroke-width:1.0;"/><line style="stroke:#000000;stroke-width:1.0;" x1="163.5" x2="286.5" y1="292.7988" y2="292.7988"/><text fill="#333333" font-family="Helvetica" font-size="11" lengthAdjust="spacing" textLength="110" x="175.5" y="288.269">Consensus acks/naks</text><text fill="#888888" font-family="sans-serif" font-size="10" lengthAdjust="spacing" textLength="142" x="152.25" y="398.4668">Fri Feb 10 23:38:37 MST 2023</text><!--SRC=[LP3BReCm44NN-2kcKHUDL9fzLR58-82gsMOpc6bgnOmH7aVYxpisq8V4md3ctZdumR7rgIUmOHW2lunfyEPHd7XwEdqvWTPDP0NUSHw81S84Pn9nVDqRjAAlEqLXsW56674sFGfs66dz3krnG-tn3_mWI-vEFroNA5yRDxWHOpHUrKrJbPhNgZgdRb2vwAvCFLWLlV0TVIAewoP7Ilx2sXONNSD1249UgINFgn3a7yFEqs79bEEQ01UXSzpdC74FkS2KM54fnbb5bGbG1sH2Zgfb2jg6_ereX_kS8KMQZ0zXXCJYl5u-HzAdDujNzLR_BZWjC4L0Uui7nbiiFZbllW40]--></g></svg>