<?xml version="1.0" encoding="UTF-8" standalone="no"?><svg xmlns="http://www.w3.org/2000/svg" xmlns:xlink="http://www.w3.org/1999/xlink" contentStyleType="text/css" height="1005px" preserveAspectRatio="none" style="width:699px;height:1005px;background:#FFFFFF;" version="1.1" viewBox="0 0 699 1005" width="699px" zoomAndPan="magnify"><defs/><g><text fill="#000000" font-family="sans-serif" font-size="14" font-weight="bold" lengthAdjust="spacing" textLength="224" x="238.75" y="28.5352">Chit Chain Consensus Protocol</text><rect fill="none" height="767.0625" style="stroke:#000000;stroke-width:1.5;" width="682.5" x="10" y="130.4883"/><rect fill="none" height="141.2656" style="stroke:#000000;stroke-width:1.5;" width="266" x="211" y="226.7988"/><rect fill="none" height="372.5313" style="stroke:#000000;stroke-width:1.5;" width="662.5" x="20" y="518.0195"/><rect fill="none" height="167.2656" style="stroke:#000000;stroke-width:1.5;" width="642.5" x="30" y="716.2852"/><line style="stroke:#44AAFF;stroke-width:0.5;stroke-dasharray:5.0,5.0;" x1="74" x2="74" y1="113.4883" y2="914.5508"/><line style="stroke:#44AAFF;stroke-width:0.5;stroke-dasharray:5.0,5.0;" x1="253" x2="253" y1="113.4883" y2="914.5508"/><line style="stroke:#44AAFF;stroke-width:0.5;stroke-dasharray:5.0,5.0;" x1="454" x2="454" y1="113.4883" y2="914.5508"/><line style="stroke:#44AAFF;stroke-width:0.5;stroke-dasharray:5.0,5.0;" x1="633.5" x2="633.5" y1="113.4883" y2="914.5508"/><text fill="#000033" font-family="Helvetica" font-size="11" lengthAdjust="spacing" textLength="63" x="40" y="110.9585">Stock Holder</text><ellipse cx="74.5" cy="50.9883" fill="#44AAFF" rx="8" ry="8" style="stroke:#2277DD;stroke-width:0.5;"/><path d="M74.5,58.9883 L74.5,85.9883 M61.5,66.9883 L87.5,66.9883 M74.5,85.9883 L61.5,100.9883 M74.5,85.9883 L87.5,100.9883 " fill="none" style="stroke:#2277DD;stroke-width:0.5;"/><text fill="#000033" font-family="Helvetica" font-size="11" lengthAdjust="spacing" textLength="63" x="40" y="922.021">Stock Holder</text><ellipse cx="74.5" cy="933.0508" fill="#44AAFF" rx="8" ry="8" style="stroke:#2277DD;stroke-width:0.5;"/><path d="M74.5,941.0508 L74.5,968.0508 M61.5,949.0508 L87.5,949.0508 M74.5,968.0508 L61.5,983.0508 M74.5,968.0508 L87.5,983.0508 " fill="none" style="stroke:#2277DD;stroke-width:0.5;"/><text fill="#000000" font-family="sans-serif" font-size="14" lengthAdjust="spacing" textLength="59" x="221" y="110.5352">Stock DB</text><path d="M235.5,61 C235.5,51 253.5,51 253.5,51 C253.5,51 271.5,51 271.5,61 L271.5,87 C271.5,97 253.5,97 253.5,97 C253.5,97 235.5,97 235.5,87 L235.5,61 " fill="#E2E2F0" style="stroke:#181818;stroke-width:1.5;"/><path d="M235.5,61 C235.5,71 253.5,71 253.5,71 C253.5,71 271.5,71 271.5,61 " fill="none" style="stroke:#181818;stroke-width:1.5;"/><text fill="#000000" font-family="sans-serif" font-size="14" lengthAdjust="spacing" textLength="59" x="221" y="927.0859">Stock DB</text><path d="M235.5,940.0391 C235.5,930.0391 253.5,930.0391 253.5,930.0391 C253.5,930.0391 271.5,930.0391 271.5,940.0391 L271.5,966.0391 C271.5,976.0391 253.5,976.0391 253.5,976.0391 C253.5,976.0391 235.5,976.0391 235.5,966.0391 L235.5,940.0391 " fill="#E2E2F0" style="stroke:#181818;stroke-width:1.5;"/><path d="M235.5,940.0391 C235.5,950.0391 253.5,950.0391 253.5,950.0391 C253.5,950.0391 271.5,950.0391 271.5,940.0391 " fill="none" style="stroke:#181818;stroke-width:1.5;"/><text fill="#000000" font-family="sans-serif" font-size="14" lengthAdjust="spacing" textLength="47" x="428" y="110.5352">Foil DB</text><path d="M436.5,61 C436.5,51 454.5,51 454.5,51 C454.5,51 472.5,51 472.5,61 L472.5,87 C472.5,97 454.5,97 454.5,97 C454.5,97 436.5,97 436.5,87 L436.5,61 " fill="#E2E2F0" style="stroke:#181818;stroke-width:1.5;"/><path d="M436.5,61 C436.5,71 454.5,71 454.5,71 C454.5,71 472.5,71 472.5,61 " fill="none" style="stroke:#181818;stroke-width:1.5;"/><text fill="#000000" font-family="sans-serif" font-size="14" lengthAdjust="spacing" textLength="47" x="428" y="927.0859">Foil DB</text><path d="M436.5,940.0391 C436.5,930.0391 454.5,930.0391 454.5,930.0391 C454.5,930.0391 472.5,930.0391 472.5,940.0391 L472.5,966.0391 C472.5,976.0391 454.5,976.0391 454.5,976.0391 C454.5,976.0391 436.5,976.0391 436.5,966.0391 L436.5,940.0391 " fill="#E2E2F0" style="stroke:#181818;stroke-width:1.5;"/><path d="M436.5,940.0391 C436.5,950.0391 454.5,950.0391 454.5,950.0391 C454.5,950.0391 472.5,950.0391 472.5,940.0391 " fill="none" style="stroke:#181818;stroke-width:1.5;"/><text fill="#000033" font-family="Helvetica" font-size="11" lengthAdjust="spacing" textLength="52" x="604.5" y="110.9585">Foil Holder</text><ellipse cx="633.5" cy="50.9883" fill="#44AAFF" rx="8" ry="8" style="stroke:#2277DD;stroke-width:0.5;"/><path d="M633.5,58.9883 L633.5,85.9883 M620.5,66.9883 L646.5,66.9883 M633.5,85.9883 L620.5,100.9883 M633.5,85.9883 L646.5,100.9883 " fill="none" style="stroke:#2277DD;stroke-width:0.5;"/><text fill="#000033" font-family="Helvetica" font-size="11" lengthAdjust="spacing" textLength="52" x="604.5" y="922.021">Foil Holder</text><ellipse cx="633.5" cy="933.0508" fill="#44AAFF" rx="8" ry="8" style="stroke:#2277DD;stroke-width:0.5;"/><path d="M633.5,941.0508 L633.5,968.0508 M620.5,949.0508 L646.5,949.0508 M633.5,968.0508 L620.5,983.0508 M633.5,968.0508 L646.5,983.0508 " fill="none" style="stroke:#2277DD;stroke-width:0.5;"/><path d="M10,130.4883 L72,130.4883 L72,137.7988 L62,147.7988 L10,147.7988 L10,130.4883 " fill="#EEEEEE" style="stroke:#000000;stroke-width:1.5;"/><rect fill="none" height="767.0625" style="stroke:#000000;stroke-width:1.5;" width="682.5" x="10" y="130.4883"/><text fill="#000000" font-family="sans-serif" font-size="13" font-weight="bold" lengthAdjust="spacing" textLength="17" x="25" y="144.0566">alt</text><text fill="#000000" font-family="sans-serif" font-size="11" font-weight="bold" lengthAdjust="spacing" textLength="108" x="87" y="143.123">[Foil validates chit]</text><line style="stroke:#000000;stroke-width:1.0;" x1="455.5" x2="465.5" y1="164.7988" y2="160.7988"/><line style="stroke:#000000;stroke-width:1.0;" x1="455.5" x2="465.5" y1="164.7988" y2="168.7988"/><line style="stroke:#000000;stroke-width:1.0;" x1="454.5" x2="632.5" y1="164.7988" y2="164.7988"/><text fill="#333333" font-family="Helvetica" font-size="11" lengthAdjust="spacing" textLength="155" x="471.5" y="160.269">Apply validating signature to chit</text><line style="stroke:#000000;stroke-width:1.0;" x1="254.5" x2="264.5" y1="211.7988" y2="207.7988"/><line style="stroke:#000000;stroke-width:1.0;" x1="254.5" x2="264.5" y1="211.7988" y2="215.7988"/><line style="stroke:#000000;stroke-width:1.0;" x1="253.5" x2="453.5" y1="211.7988" y2="211.7988"/><text fill="#333333" font-family="Helvetica" font-size="11" lengthAdjust="spacing" textLength="113" x="270.5" y="185.269">Transmit new valid Chit</text><text fill="#333333" font-family="Helvetica" font-size="11" lengthAdjust="spacing" textLength="115" x="270.5" y="196.269">with validating signature</text><text fill="#333333" font-family="Helvetica" font-size="11" lengthAdjust="spacing" textLength="89" x="270.5" y="207.269">And new endHash</text><path d="M211,226.7988 L273,226.7988 L273,234.1094 L263,244.1094 L211,244.1094 L211,226.7988 " fill="#EEEEEE" style="stroke:#000000;stroke-width:1.5;"/><rect fill="none" height="141.2656" style="stroke:#000000;stroke-width:1.5;" width="266" x="211" y="226.7988"/><text fill="#000000" font-family="sans-serif" font-size="13" font-weight="bold" lengthAdjust="spacing" textLength="17" x="226" y="240.3672">alt</text><text fill="#000000" font-family="sans-serif" font-size="11" font-weight="bold" lengthAdjust="spacing" textLength="184" x="288" y="239.4336">[Stock agrees with new endHash]</text><line style="stroke:#000000;stroke-width:1.0;" x1="253.5" x2="295.5" y1="272.1094" y2="272.1094"/><line style="stroke:#000000;stroke-width:1.0;" x1="295.5" x2="295.5" y1="272.1094" y2="285.1094"/><line style="stroke:#000000;stroke-width:1.0;" x1="254.5" x2="295.5" y1="285.1094" y2="285.1094"/><line style="stroke:#000000;stroke-width:1.0;" x1="254.5" x2="264.5" y1="285.1094" y2="281.1094"/><line style="stroke:#000000;stroke-width:1.0;" x1="254.5" x2="264.5" y1="285.1094" y2="289.1094"/><text fill="#333333" font-family="Helvetica" font-size="11" lengthAdjust="spacing" textLength="78" x="260.5" y="256.5796">Ratchet forward</text><text fill="#333333" font-family="Helvetica" font-size="11" lengthAdjust="spacing" textLength="100" x="260.5" y="267.5796">ackHash = endHash</text><line style="stroke:#000000;stroke-width:1.0;stroke-dasharray:2.0,2.0;" x1="211" x2="477" y1="294.1094" y2="294.1094"/><text fill="#000000" font-family="sans-serif" font-size="11" font-weight="bold" lengthAdjust="spacing" textLength="248" x="216" y="304.7441">[Stock disagrees, has different end of chain]</text><line style="stroke:#000000;stroke-width:1.0;" x1="253.5" x2="295.5" y1="347.0645" y2="347.0645"/><line style="stroke:#000000;stroke-width:1.0;" x1="295.5" x2="295.5" y1="347.0645" y2="360.0645"/><line style="stroke:#000000;stroke-width:1.0;" x1="254.5" x2="295.5" y1="360.0645" y2="360.0645"/><line style="stroke:#000000;stroke-width:1.0;" x1="254.5" x2="264.5" y1="360.0645" y2="356.0645"/><line style="stroke:#000000;stroke-width:1.0;" x1="254.5" x2="264.5" y1="360.0645" y2="364.0645"/><text fill="#333333" font-family="Helvetica" font-size="11" lengthAdjust="spacing" textLength="103" x="260.5" y="320.5347">Conform to Foil chain</text><text fill="#333333" font-family="Helvetica" font-size="11" lengthAdjust="spacing" textLength="147" x="260.5" y="331.5347">Requeue/send bumped and/or</text><text fill="#333333" font-family="Helvetica" font-size="11" lengthAdjust="spacing" textLength="114" x="260.5" y="342.5347">unchained chits as new</text><line style="stroke:#000000;stroke-width:1.0;stroke-dasharray:2.0,2.0;" x1="10" x2="692.5" y1="376.0645" y2="376.0645"/><text fill="#000000" font-family="sans-serif" font-size="11" font-weight="bold" lengthAdjust="spacing" textLength="117" x="15" y="386.6992">[Stock validates chit]</text><line style="stroke:#000000;stroke-width:1.0;" x1="251.5" x2="241.5" y1="407.0195" y2="403.0195"/><line style="stroke:#000000;stroke-width:1.0;" x1="251.5" x2="241.5" y1="407.0195" y2="411.0195"/><line style="stroke:#000000;stroke-width:1.0;" x1="74.5" x2="252.5" y1="407.0195" y2="407.0195"/><text fill="#333333" font-family="Helvetica" font-size="11" lengthAdjust="spacing" textLength="155" x="81.5" y="402.4897">Apply validating signature to chit</text><line style="stroke:#000000;stroke-width:1.0;" x1="452.5" x2="442.5" y1="454.0195" y2="450.0195"/><line style="stroke:#000000;stroke-width:1.0;" x1="452.5" x2="442.5" y1="454.0195" y2="458.0195"/><line style="stroke:#000000;stroke-width:1.0;" x1="253.5" x2="453.5" y1="454.0195" y2="454.0195"/><text fill="#333333" font-family="Helvetica" font-size="11" lengthAdjust="spacing" textLength="113" x="260.5" y="427.4897">Transmit new valid Chit</text><text fill="#333333" font-family="Helvetica" font-size="11" lengthAdjust="spacing" textLength="115" x="260.5" y="438.4897">with validating signature</text><text fill="#333333" font-family="Helvetica" font-size="11" lengthAdjust="spacing" textLength="169" x="260.5" y="449.4897">And proposed endHash: propHash</text><line style="stroke:#000000;stroke-width:1.0;" x1="454.5" x2="496.5" y1="490.0195" y2="490.0195"/><line style="stroke:#000000;stroke-width:1.0;" x1="496.5" x2="496.5" y1="490.0195" y2="503.0195"/><line style="stroke:#000000;stroke-width:1.0;" x1="455.5" x2="496.5" y1="503.0195" y2="503.0195"/><line style="stroke:#000000;stroke-width:1.0;" x1="455.5" x2="465.5" y1="503.0195" y2="499.0195"/><line style="stroke:#000000;stroke-width:1.0;" x1="455.5" x2="465.5" y1="503.0195" y2="507.0195"/><text fill="#333333" font-family="Helvetica" font-size="11" lengthAdjust="spacing" textLength="106" x="461.5" y="474.4897">Add/link new valid chit</text><text fill="#333333" font-family="Helvetica" font-size="11" lengthAdjust="spacing" textLength="71" x="461.5" y="485.4897">at end of chain</text><path d="M20,518.0195 L82,518.0195 L82,525.3301 L72,535.3301 L20,535.3301 L20,518.0195 " fill="#EEEEEE" style="stroke:#000000;stroke-width:1.5;"/><rect fill="none" height="372.5313" style="stroke:#000000;stroke-width:1.5;" width="662.5" x="20" y="518.0195"/><text fill="#000000" font-family="sans-serif" font-size="13" font-weight="bold" lengthAdjust="spacing" textLength="17" x="35" y="531.5879">alt</text><text fill="#000000" font-family="sans-serif" font-size="11" font-weight="bold" lengthAdjust="spacing" textLength="248" x="97" y="530.6543">[Foil agrees with stock's proposed endHash]</text><line style="stroke:#000000;stroke-width:1.0;" x1="454.5" x2="496.5" y1="563.3301" y2="563.3301"/><line style="stroke:#000000;stroke-width:1.0;" x1="496.5" x2="496.5" y1="563.3301" y2="576.3301"/><line style="stroke:#000000;stroke-width:1.0;" x1="455.5" x2="496.5" y1="576.3301" y2="576.3301"/><line style="stroke:#000000;stroke-width:1.0;" x1="455.5" x2="465.5" y1="576.3301" y2="572.3301"/><line style="stroke:#000000;stroke-width:1.0;" x1="455.5" x2="465.5" y1="576.3301" y2="580.3301"/><text fill="#333333" font-family="Helvetica" font-size="11" lengthAdjust="spacing" textLength="78" x="461.5" y="547.8003">Ratchet forward</text><text fill="#333333" font-family="Helvetica" font-size="11" lengthAdjust="spacing" textLength="104" x="461.5" y="558.8003">ackHash = propHash</text><line style="stroke:#000000;stroke-width:1.0;" x1="254.5" x2="264.5" y1="601.3301" y2="597.3301"/><line style="stroke:#000000;stroke-width:1.0;" x1="254.5" x2="264.5" y1="601.3301" y2="605.3301"/><line style="stroke:#000000;stroke-width:1.0;" x1="253.5" x2="453.5" y1="601.3301" y2="601.3301"/><text fill="#333333" font-family="Helvetica" font-size="11" lengthAdjust="spacing" textLength="177" x="270.5" y="596.8003">Acknowledge propHash was correct</text><line style="stroke:#000000;stroke-width:1.0;" x1="253.5" x2="295.5" y1="637.3301" y2="637.3301"/><line style="stroke:#000000;stroke-width:1.0;" x1="295.5" x2="295.5" y1="637.3301" y2="650.3301"/><line style="stroke:#000000;stroke-width:1.0;" x1="254.5" x2="295.5" y1="650.3301" y2="650.3301"/><line style="stroke:#000000;stroke-width:1.0;" x1="254.5" x2="264.5" y1="650.3301" y2="646.3301"/><line style="stroke:#000000;stroke-width:1.0;" x1="254.5" x2="264.5" y1="650.3301" y2="654.3301"/><text fill="#333333" font-family="Helvetica" font-size="11" lengthAdjust="spacing" textLength="78" x="260.5" y="621.8003">Ratchet forward</text><text fill="#333333" font-family="Helvetica" font-size="11" lengthAdjust="spacing" textLength="104" x="260.5" y="632.8003">ackHash = propHash</text><line style="stroke:#000000;stroke-width:1.0;stroke-dasharray:2.0,2.0;" x1="20" x2="682.5" y1="659.3301" y2="659.3301"/><text fill="#000000" font-family="sans-serif" font-size="11" font-weight="bold" lengthAdjust="spacing" textLength="265" x="25" y="669.9648">[Foil disagrees with stock's proposed endHash]</text><line style="stroke:#000000;stroke-width:1.0;" x1="254.5" x2="264.5" y1="701.2852" y2="697.2852"/><line style="stroke:#000000;stroke-width:1.0;" x1="254.5" x2="264.5" y1="701.2852" y2="705.2852"/><line style="stroke:#000000;stroke-width:1.0;" x1="253.5" x2="453.5" y1="701.2852" y2="701.2852"/><text fill="#333333" font-family="Helvetica" font-size="11" lengthAdjust="spacing" textLength="147" x="270.5" y="685.7554">Send chits since last ackHash</text><text fill="#333333" font-family="Helvetica" font-size="11" lengthAdjust="spacing" textLength="103" x="270.5" y="696.7554">and correct endHash</text><path d="M30,716.2852 L92,716.2852 L92,723.5957 L82,733.5957 L30,733.5957 L30,716.2852 " fill="#EEEEEE" style="stroke:#000000;stroke-width:1.5;"/><rect fill="none" height="167.2656" style="stroke:#000000;stroke-width:1.5;" width="642.5" x="30" y="716.2852"/><text fill="#000000" font-family="sans-serif" font-size="13" font-weight="bold" lengthAdjust="spacing" textLength="17" x="45" y="729.8535">alt</text><text fill="#000000" font-family="sans-serif" font-size="11" font-weight="bold" lengthAdjust="spacing" textLength="327" x="107" y="728.9199">[Can chain/reconcile received chits and confirm endHash]</text><line style="stroke:#000000;stroke-width:1.0;" x1="253.5" x2="295.5" y1="772.5957" y2="772.5957"/><line style="stroke:#000000;stroke-width:1.0;" x1="295.5" x2="295.5" y1="772.5957" y2="785.5957"/><line style="stroke:#000000;stroke-width:1.0;" x1="254.5" x2="295.5" y1="785.5957" y2="785.5957"/><line style="stroke:#000000;stroke-width:1.0;" x1="254.5" x2="264.5" y1="785.5957" y2="781.5957"/><line style="stroke:#000000;stroke-width:1.0;" x1="254.5" x2="264.5" y1="785.5957" y2="789.5957"/><text fill="#333333" font-family="Helvetica" font-size="11" lengthAdjust="spacing" textLength="103" x="260.5" y="746.0659">Conform to Foil chain</text><text fill="#333333" font-family="Helvetica" font-size="11" lengthAdjust="spacing" textLength="147" x="260.5" y="757.0659">Requeue/send bumped and/or</text><text fill="#333333" font-family="Helvetica" font-size="11" lengthAdjust="spacing" textLength="114" x="260.5" y="768.0659">unchained chits as new</text><line style="stroke:#000000;stroke-width:1.0;stroke-dasharray:2.0,2.0;" x1="30" x2="672.5" y1="794.5957" y2="794.5957"/><text fill="#000000" font-family="sans-serif" font-size="11" font-weight="bold" lengthAdjust="spacing" textLength="209" x="35" y="805.2305">[Can't chain/reconcile received chits]</text><line style="stroke:#000000;stroke-width:1.0;" x1="75.5" x2="85.5" y1="825.5508" y2="821.5508"/><line style="stroke:#000000;stroke-width:1.0;" x1="75.5" x2="85.5" y1="825.5508" y2="829.5508"/><line style="stroke:#000000;stroke-width:1.0;" x1="74.5" x2="252.5" y1="825.5508" y2="825.5508"/><text fill="#333333" font-family="Helvetica" font-size="11" lengthAdjust="spacing" textLength="97" x="91.5" y="821.021">Report error to user</text><line style="stroke:#000000;stroke-width:1.0;" x1="452.5" x2="442.5" y1="850.5508" y2="846.5508"/><line style="stroke:#000000;stroke-width:1.0;" x1="452.5" x2="442.5" y1="850.5508" y2="854.5508"/><line style="stroke:#000000;stroke-width:1.0;" x1="253.5" x2="453.5" y1="850.5508" y2="850.5508"/><text fill="#333333" font-family="Helvetica" font-size="11" lengthAdjust="spacing" textLength="60" x="260.5" y="846.021">Report error</text><line style="stroke:#000000;stroke-width:1.0;" x1="631.5" x2="621.5" y1="875.5508" y2="871.5508"/><line style="stroke:#000000;stroke-width:1.0;" x1="631.5" x2="621.5" y1="875.5508" y2="879.5508"/><line style="stroke:#000000;stroke-width:1.0;" x1="454.5" x2="632.5" y1="875.5508" y2="875.5508"/><text fill="#333333" font-family="Helvetica" font-size="11" lengthAdjust="spacing" textLength="97" x="461.5" y="871.021">Report error to user</text><text fill="#888888" font-family="sans-serif" font-size="10" lengthAdjust="spacing" textLength="154" x="273.75" y="995.2188">Wed Nov 01 16:34:38 MDT 2023</text><!--SRC=[jLJ1Jjmm43qdNp55bQ0ITEz8HOAjAeu8Uip5s9EDjSuujPsD-FkExIIORg6bKdE8aioRUM_UZFD1apIZGf2sxorz7iRUr1-33WRFjfqEiEs49jXQyaX-z73dRB3Ica-raC4wE7dWrptSMgFGdO3mS41IrjLA1F4eF2w8hpSfwkDB4VncjLbYBJylPTFtegeq6YdKjJ01KkmWZEOoo27MMSECg2wkhgfOwBAgheV1F2r0JJlmUaSYZ0uXs2KjOgkKbQHnsdSdoFVSE-6Kio5QqT2aG_VRSWrTaqfmxlrM-Axcmb5fRbti7BBEb5w2WAz4-eB-NWJPOM1XRX9EDIJaFiBXIv68XitBrPNscU0SEZPAwRP5nqv4DDYM- -G9liB5SsMQFjgHJ4tOXkxnnuWZRdmiyJZs0oeGf3RMDJHI0l6NQA2Fi-6UeYHIVAyBPKSZoglnGi5VpIWBBqVxhpCQd1siP_6pbPVfospgyoei2wJKncZQ5omoiOXVt9t7dJmifvs4d_eZsZIEH5UmlJ7uGcIHjteezsGdWsg7AnAcU6YiSoZ3-nTjvLjMBNMsRjfxcblO7g9XUMKy_tGGZF01PahcZj4ijpn4sTUje6pqXkEMf3O8_8JwyBo6APzQpTjSwlZVMp_xmmfFmnyq7kd9no5E0WVhk6_d-DV7gaQFxWYzR4c1dJ6hr_aN-5R1V4ZZlSwF03y1]--></g></svg>