<?xml version="1.0" encoding="UTF-8" standalone="no"?><svg xmlns="http://www.w3.org/2000/svg" xmlns:xlink="http://www.w3.org/1999/xlink" contentScriptType="application/ecmascript" contentStyleType="text/css" height="414px" preserveAspectRatio="none" style="width:428px;height:414px;" version="1.1" viewBox="0 0 428 414" width="428px" zoomAndPan="magnify"><defs><filter height="300%" id="f1v6dt7ku5px0x" width="300%" x="-1" y="-1"><feGaussianBlur result="blurOut" stdDeviation="2.0"/><feColorMatrix in="blurOut" result="blurOut2" type="matrix" values="0 0 0 0 0 0 0 0 0 0 0 0 0 0 0 0 0 0 .4 0"/><feOffset dx="4.0" dy="4.0" in="blurOut2" result="blurOut3"/><feBlend in="SourceGraphic" in2="blurOut3" mode="normal"/></filter></defs><g><text fill="#000000" font-family="sans-serif" font-size="18" lengthAdjust="spacing" textLength="172" x="130.25" y="29.4023">Chit Direct Payment</text><rect fill="#FFFFFF" filter="url(#f1v6dt7ku5px0x)" height="42.3105" style="stroke:#000000;stroke-width:2.0;" width="229.5" x="100.5" y="256.1992"/><line style="stroke:#44AAFF;stroke-width:1.0;stroke-dasharray:5.0,5.0;" x1="31" x2="31" y1="118.1992" y2="315.5098"/><line style="stroke:#44AAFF;stroke-width:1.0;stroke-dasharray:5.0,5.0;" x1="143.5" x2="143.5" y1="118.1992" y2="315.5098"/><line style="stroke:#44AAFF;stroke-width:1.0;stroke-dasharray:5.0,5.0;" x1="277" x2="277" y1="118.1992" y2="315.5098"/><line style="stroke:#44AAFF;stroke-width:1.0;stroke-dasharray:5.0,5.0;" x1="402.5" x2="402.5" y1="118.1992" y2="315.5098"/><text fill="#000033" font-family="Helvetica" font-size="11" lengthAdjust="spacing" textLength="29" x="14" y="115.6694">Payor</text><ellipse cx="31.5" cy="50.1992" fill="#44AAFF" filter="url(#f1v6dt7ku5px0x)" rx="8" ry="8" style="stroke:#2277DD;stroke-width:2.0;"/><path d="M31.5,58.1992 L31.5,85.1992 M18.5,66.1992 L44.5,66.1992 M31.5,85.1992 L18.5,100.1992 M31.5,85.1992 L44.5,100.1992 " fill="none" filter="url(#f1v6dt7ku5px0x)" style="stroke:#2277DD;stroke-width:2.0;"/><text fill="#000033" font-family="Helvetica" font-size="11" lengthAdjust="spacing" textLength="29" x="14" y="322.98">Payor</text><ellipse cx="31.5" cy="335.5098" fill="#44AAFF" filter="url(#f1v6dt7ku5px0x)" rx="8" ry="8" style="stroke:#2277DD;stroke-width:2.0;"/><path d="M31.5,343.5098 L31.5,370.5098 M18.5,351.5098 L44.5,351.5098 M31.5,370.5098 L18.5,385.5098 M31.5,370.5098 L44.5,385.5098 " fill="none" filter="url(#f1v6dt7ku5px0x)" style="stroke:#2277DD;stroke-width:2.0;"/><text fill="#000000" font-family="sans-serif" font-size="14" lengthAdjust="spacing" textLength="60" x="110.5" y="115.2461">Payor DB</text><path d="M125.5,65.7109 C125.5,55.7109 143.5,55.7109 143.5,55.7109 C143.5,55.7109 161.5,55.7109 161.5,65.7109 L161.5,91.7109 C161.5,101.7109 143.5,101.7109 143.5,101.7109 C143.5,101.7109 125.5,101.7109 125.5,91.7109 L125.5,65.7109 " fill="#FEFECE" filter="url(#f1v6dt7ku5px0x)" style="stroke:#000000;stroke-width:1.5;"/><path d="M125.5,65.7109 C125.5,75.7109 143.5,75.7109 143.5,75.7109 C143.5,75.7109 161.5,75.7109 161.5,65.7109 " fill="none" style="stroke:#000000;stroke-width:1.5;"/><text fill="#000000" font-family="sans-serif" font-size="14" lengthAdjust="spacing" textLength="60" x="110.5" y="328.0449">Payor DB</text><path d="M125.5,340.998 C125.5,330.998 143.5,330.998 143.5,330.998 C143.5,330.998 161.5,330.998 161.5,340.998 L161.5,366.998 C161.5,376.998 143.5,376.998 143.5,376.998 C143.5,376.998 125.5,376.998 125.5,366.998 L125.5,340.998 " fill="#FEFECE" filter="url(#f1v6dt7ku5px0x)" style="stroke:#000000;stroke-width:1.5;"/><path d="M125.5,340.998 C125.5,350.998 143.5,350.998 143.5,350.998 C143.5,350.998 161.5,350.998 161.5,340.998 " fill="none" style="stroke:#000000;stroke-width:1.5;"/><text fill="#000000" font-family="sans-serif" font-size="14" lengthAdjust="spacing" textLength="79" x="235" y="115.2461">Receiver DB</text><path d="M259.5,65.7109 C259.5,55.7109 277.5,55.7109 277.5,55.7109 C277.5,55.7109 295.5,55.7109 295.5,65.7109 L295.5,91.7109 C295.5,101.7109 277.5,101.7109 277.5,101.7109 C277.5,101.7109 259.5,101.7109 259.5,91.7109 L259.5,65.7109 " fill="#FEFECE" filter="url(#f1v6dt7ku5px0x)" style="stroke:#000000;stroke-width:1.5;"/><path d="M259.5,65.7109 C259.5,75.7109 277.5,75.7109 277.5,75.7109 C277.5,75.7109 295.5,75.7109 295.5,65.7109 " fill="none" style="stroke:#000000;stroke-width:1.5;"/><text fill="#000000" font-family="sans-serif" font-size="14" lengthAdjust="spacing" textLength="79" x="235" y="328.0449">Receiver DB</text><path d="M259.5,340.998 C259.5,330.998 277.5,330.998 277.5,330.998 C277.5,330.998 295.5,330.998 295.5,340.998 L295.5,366.998 C295.5,376.998 277.5,376.998 277.5,376.998 C277.5,376.998 259.5,376.998 259.5,366.998 L259.5,340.998 " fill="#FEFECE" filter="url(#f1v6dt7ku5px0x)" style="stroke:#000000;stroke-width:1.5;"/><path d="M259.5,340.998 C259.5,350.998 277.5,350.998 277.5,350.998 C277.5,350.998 295.5,350.998 295.5,340.998 " fill="none" style="stroke:#000000;stroke-width:1.5;"/><text fill="#000033" font-family="Helvetica" font-size="11" lengthAdjust="spacing" textLength="44" x="377.5" y="115.6694">Receiver</text><ellipse cx="402.5" cy="50.1992" fill="#44AAFF" filter="url(#f1v6dt7ku5px0x)" rx="8" ry="8" style="stroke:#2277DD;stroke-width:2.0;"/><path d="M402.5,58.1992 L402.5,85.1992 M389.5,66.1992 L415.5,66.1992 M402.5,85.1992 L389.5,100.1992 M402.5,85.1992 L415.5,100.1992 " fill="none" filter="url(#f1v6dt7ku5px0x)" style="stroke:#2277DD;stroke-width:2.0;"/><text fill="#000033" font-family="Helvetica" font-size="11" lengthAdjust="spacing" textLength="44" x="377.5" y="322.98">Receiver</text><ellipse cx="402.5" cy="335.5098" fill="#44AAFF" filter="url(#f1v6dt7ku5px0x)" rx="8" ry="8" style="stroke:#2277DD;stroke-width:2.0;"/><path d="M402.5,343.5098 L402.5,370.5098 M389.5,351.5098 L415.5,351.5098 M402.5,370.5098 L389.5,385.5098 M402.5,370.5098 L415.5,385.5098 " fill="none" filter="url(#f1v6dt7ku5px0x)" style="stroke:#2277DD;stroke-width:2.0;"/><line style="stroke:#000000;stroke-width:1.0;" x1="141.5" x2="131.5" y1="156.1992" y2="152.1992"/><line style="stroke:#000000;stroke-width:1.0;" x1="141.5" x2="131.5" y1="156.1992" y2="160.1992"/><line style="stroke:#000000;stroke-width:1.0;" x1="31.5" x2="142.5" y1="156.1992" y2="156.1992"/><text fill="#333333" font-family="Helvetica" font-size="11" lengthAdjust="spacing" textLength="88" x="38.5" y="140.6694">Submit signed chit</text><text fill="#333333" font-family="Helvetica" font-size="11" lengthAdjust="spacing" textLength="86" x="38.5" y="151.6694">value --&gt; receiver</text><path d="M5,169.1992 L5,190.1992 L166,190.1992 L166,179.1992 L156,169.1992 L5,169.1992 " fill="#E8E8EA" filter="url(#f1v6dt7ku5px0x)" style="stroke:#202024;stroke-width:1.0;"/><path d="M156,169.1992 L156,179.1992 L166,179.1992 L156,169.1992 " fill="#E8E8EA" style="stroke:#202024;stroke-width:1.0;"/><text fill="#000033" font-family="Helvetica" font-size="11" lengthAdjust="spacing" textLength="140" x="11" y="182.6694">Payable/receivable is binding</text><line style="stroke:#000000;stroke-width:1.0;" x1="275.5" x2="265.5" y1="216.1992" y2="212.1992"/><line style="stroke:#000000;stroke-width:1.0;" x1="275.5" x2="265.5" y1="216.1992" y2="220.1992"/><line style="stroke:#000000;stroke-width:1.0;" x1="143.5" x2="276.5" y1="216.1992" y2="216.1992"/><text fill="#333333" font-family="Helvetica" font-size="11" lengthAdjust="spacing" textLength="89" x="150.5" y="211.6694">Store and transmit</text><line style="stroke:#000000;stroke-width:1.0;" x1="400.5" x2="390.5" y1="241.1992" y2="237.1992"/><line style="stroke:#000000;stroke-width:1.0;" x1="400.5" x2="390.5" y1="241.1992" y2="245.1992"/><line style="stroke:#000000;stroke-width:1.0;" x1="277.5" x2="401.5" y1="241.1992" y2="241.1992"/><text fill="#333333" font-family="Helvetica" font-size="11" lengthAdjust="spacing" textLength="101" x="284.5" y="236.6694">Store and notify user</text><path d="M100.5,256.1992 L174.5,256.1992 L174.5,263.1992 L164.5,273.1992 L100.5,273.1992 L100.5,256.1992 " fill="#EEEEEE" style="stroke:#000000;stroke-width:1.0;"/><rect fill="none" height="42.3105" style="stroke:#000000;stroke-width:2.0;" width="229.5" x="100.5" y="256.1992"/><text fill="#000000" font-family="sans-serif" font-size="13" font-weight="bold" lengthAdjust="spacing" textLength="29" x="115.5" y="269.7676">loop</text><text fill="#000000" font-family="sans-serif" font-size="11" font-weight="bold" lengthAdjust="spacing" textLength="96" x="189.5" y="268.834">[until consensus]</text><polygon fill="#000000" points="154.5,286.5098,144.5,290.5098,154.5,294.5098,150.5,290.5098" style="stroke:#000000;stroke-width:1.0;"/><polygon fill="#000000" points="265.5,286.5098,275.5,290.5098,265.5,294.5098,269.5,290.5098" style="stroke:#000000;stroke-width:1.0;"/><line style="stroke:#000000;stroke-width:1.0;" x1="148.5" x2="271.5" y1="290.5098" y2="290.5098"/><text fill="#333333" font-family="Helvetica" font-size="11" lengthAdjust="spacing" textLength="110" x="160.5" y="285.98">Consensus acks/naks</text><text fill="#888888" font-family="sans-serif" font-size="10" lengthAdjust="spacing" textLength="148" x="142.25" y="406.1777">Thu Feb 11 09:35:58 MST 2021</text><!--MD5=[3b88e003379827d7f4d406589ce57475]
@startuml
!include common.puml
$title(Chit Direct Payment)
actor "Payor" as pay
database "Payor DB" as payDB
database "Receiver DB" as recDB
actor "Receiver" as rec

pay	->>	payDB:		Submit signed chit\nvalue - -> receiver
note over pay, payDB
  Payable/receivable is binding
end note
payDB	->>	recDB:		Store and transmit
recDB	->>	rec:		Store and notify user
loop until consensus
 payDB	<->	recDB:		Consensus acks/naks
end loop

@enduml

@startuml



skinparam backgroundColor fff
skinparam stereotypeCBackgroundColor 27d






skinparam circledCharacter {
  radius 8
  fontSize 11
  fontName Helvetica
}

skinparam class {
    backgroundColor e8e8ea
  borderColor 202024
    fontColor 003
  fontName Helvetica
  fontSize 11
  stereotypeFontColor 333
  stereotypeFontSize 11
    arrowColor 000
  arrowFontName Helvetica
  arrowFontColor 333
  arrowFontSize 11

  attributeFontColor 333
  attributeFontSize 11
  attributeIconSize 11
}

skinparam actor {
    backgroundColor 4af
  borderColor 27d
    fontColor 003
  fontName Helvetica
  fontSize 11
  stereotypeFontColor 333
  stereotypeFontSize 11
}

skinparam participant {
    backgroundColor e8e8ea
  borderColor 202024
    fontColor 003
  fontName Helvetica
  fontSize 11
  stereotypeFontColor 333
  stereotypeFontSize 11
}

skinparam collections {
    backgroundColor e8e8ea
  borderColor 202024
    fontColor 003
  fontName Helvetica
  fontSize 11
  stereotypeFontColor 333
  stereotypeFontSize 11
}

skinparam SequenceBox{
    backgroundColor e0e0e0
  borderColor cccccc
    fontColor 003
  fontName Helvetica
  fontSize 11
  stereotypeFontColor 333
  stereotypeFontSize 11
}

skinparam interface {
    backgroundColor 4af
  borderColor 27d
    fontColor 003
  fontName Helvetica
  fontSize 11
  stereotypeFontColor 333
  stereotypeFontSize 11
}

skinparam component {
    backgroundColor e8e8ea
  borderColor 202024
    fontColor 003
  fontName Helvetica
  fontSize 11
  stereotypeFontColor 333
  stereotypeFontSize 11
}



skinparam queue {
    backgroundColor e8e8ea
  borderColor 202024
    fontColor 003
  fontName Helvetica
  fontSize 11
  stereotypeFontColor 333
  stereotypeFontSize 11
}


skinparam usecase {
    backgroundColor e8e8ea
  borderColor 202024
    fontColor 003
  fontName Helvetica
  fontSize 11
  stereotypeFontColor 333
  stereotypeFontSize 11
    arrowColor 000
  arrowFontName Helvetica
  arrowFontColor 333
  arrowFontSize 11
}

skinparam activity {
    backgroundColor e8e8ea
  borderColor 202024
    fontColor 003
  fontName Helvetica
  fontSize 11
  stereotypeFontColor 333
  stereotypeFontSize 11
    arrowColor 000
  arrowFontName Helvetica
  arrowFontColor 333
  arrowFontSize 11
}

skinparam sequence {
    fontColor 003
  fontName Helvetica
  fontSize 11
  stereotypeFontColor 333
  stereotypeFontSize 11
    arrowColor 000
  arrowFontName Helvetica
  arrowFontColor 333
  arrowFontSize 11

  lifeLineBorderColor 4af
  lifeLineBackgroundColor e0e0e0
}




skinparam state {
    backgroundColor e8e8ea
  borderColor 202024
    fontColor 003
  fontName Helvetica
  fontSize 11
  stereotypeFontColor 333
  stereotypeFontSize 11
    arrowColor 000
  arrowFontName Helvetica
  arrowFontColor 333
  arrowFontSize 11
  startColor 4af
  endColor 27d
}

skinparam note {
    backgroundColor e8e8ea
  borderColor 202024
    fontColor 003
  fontName Helvetica
  fontSize 11
  stereotypeFontColor 333
  stereotypeFontSize 11
}







  title Chit Direct Payment
  footer Thu Feb 11 09:35:58 MST 2021
actor "Payor" as pay
database "Payor DB" as payDB
database "Receiver DB" as recDB
actor "Receiver" as rec

pay	->>	payDB:		Submit signed chit\nvalue - -> receiver
note over pay, payDB
  Payable/receivable is binding
end note
payDB	->>	recDB:		Store and transmit
recDB	->>	rec:		Store and notify user
loop until consensus
 payDB	<->	recDB:		Consensus acks/naks
end loop

@enduml

PlantUML version 1.2021.00(Sun Jan 10 03:25:05 MST 2021)
(GPL source distribution)
Java Runtime: OpenJDK Runtime Environment
JVM: OpenJDK 64-Bit Server VM
Default Encoding: UTF-8
Language: en
Country: US
--></g></svg>