<?xml version="1.0" encoding="UTF-8" standalone="no"?><svg xmlns="http://www.w3.org/2000/svg" xmlns:xlink="http://www.w3.org/1999/xlink" contentStyleType="text/css" height="1030px" preserveAspectRatio="none" style="width:845px;height:1030px;background:#FFFFFF;" version="1.1" viewBox="0 0 845 1030" width="845px" zoomAndPan="magnify"><defs/><g><text fill="#000000" font-family="sans-serif" font-size="14" font-weight="bold" lengthAdjust="spacing" textLength="248" x="297.5" y="28.5352">Lift Relay and Terminus Response</text><rect fill="none" height="280.5313" style="stroke:#000000;stroke-width:1.5;" width="497.5" x="198.5" y="592.4883"/><rect fill="none" height="94.3105" style="stroke:#000000;stroke-width:1.5;" width="477.5" x="208.5" y="641.7988"/><line style="stroke:#44AAFF;stroke-width:0.5;stroke-dasharray:5.0,5.0;" x1="20" x2="20" y1="113.4883" y2="940.0195"/><line style="stroke:#44AAFF;stroke-width:0.5;stroke-dasharray:5.0,5.0;" x1="113" x2="113" y1="113.4883" y2="940.0195"/><line style="stroke:#44AAFF;stroke-width:0.5;stroke-dasharray:5.0,5.0;" x1="261.5" x2="261.5" y1="113.4883" y2="940.0195"/><line style="stroke:#44AAFF;stroke-width:0.5;stroke-dasharray:5.0,5.0;" x1="482" x2="482" y1="113.4883" y2="940.0195"/><line style="stroke:#44AAFF;stroke-width:0.5;stroke-dasharray:5.0,5.0;" x1="566" x2="566" y1="113.4883" y2="940.0195"/><line style="stroke:#44AAFF;stroke-width:0.5;stroke-dasharray:5.0,5.0;" x1="641" x2="641" y1="113.4883" y2="940.0195"/><line style="stroke:#44AAFF;stroke-width:0.5;stroke-dasharray:5.0,5.0;" x1="792" x2="792" y1="113.4883" y2="940.0195"/><text fill="#000033" font-family="Helvetica" font-size="11" lengthAdjust="spacing" textLength="24" x="5" y="110.9585">User</text><ellipse cx="20" cy="50.9883" fill="#44AAFF" rx="8" ry="8" style="stroke:#2277DD;stroke-width:0.5;"/><path d="M20,58.9883 L20,85.9883 M7,66.9883 L33,66.9883 M20,85.9883 L7,100.9883 M20,85.9883 L33,100.9883 " fill="none" style="stroke:#2277DD;stroke-width:0.5;"/><text fill="#000033" font-family="Helvetica" font-size="11" lengthAdjust="spacing" textLength="24" x="5" y="947.4897">User</text><ellipse cx="20" cy="958.5195" fill="#44AAFF" rx="8" ry="8" style="stroke:#2277DD;stroke-width:0.5;"/><path d="M20,966.5195 L20,993.5195 M7,974.5195 L33,974.5195 M20,993.5195 L7,1008.5195 M20,993.5195 L33,1008.5195 " fill="none" style="stroke:#2277DD;stroke-width:0.5;"/><text fill="#000000" font-family="sans-serif" font-size="14" lengthAdjust="spacing" textLength="131" x="45" y="110.5352">Downstream Agent</text><ellipse cx="113.5" cy="81" fill="#E2E2F0" rx="12" ry="12" style="stroke:#181818;stroke-width:0.5;"/><polygon fill="#181818" points="109.5,69,115.5,64,113.5,69,115.5,74,109.5,69" style="stroke:#181818;stroke-width:1.0;"/><text fill="#000000" font-family="sans-serif" font-size="14" lengthAdjust="spacing" textLength="131" x="45" y="952.5547">Downstream Agent</text><ellipse cx="113.5" cy="971.5078" fill="#E2E2F0" rx="12" ry="12" style="stroke:#181818;stroke-width:0.5;"/><polygon fill="#181818" points="109.5,959.5078,115.5,954.5078,113.5,959.5078,115.5,964.5078,109.5,959.5078" style="stroke:#181818;stroke-width:1.0;"/><text fill="#000000" font-family="sans-serif" font-size="14" lengthAdjust="spacing" textLength="80" x="218.5" y="110.5352">Local Agent</text><ellipse cx="261.5" cy="81" fill="#E2E2F0" rx="12" ry="12" style="stroke:#181818;stroke-width:0.5;"/><polygon fill="#181818" points="257.5,69,263.5,64,261.5,69,263.5,74,257.5,69" style="stroke:#181818;stroke-width:1.0;"/><text fill="#000000" font-family="sans-serif" font-size="14" lengthAdjust="spacing" textLength="80" x="218.5" y="952.5547">Local Agent</text><ellipse cx="261.5" cy="971.5078" fill="#E2E2F0" rx="12" ry="12" style="stroke:#181818;stroke-width:0.5;"/><polygon fill="#181818" points="257.5,959.5078,263.5,954.5078,261.5,959.5078,263.5,964.5078,257.5,959.5078" style="stroke:#181818;stroke-width:1.0;"/><text fill="#000000" font-family="sans-serif" font-size="14" lengthAdjust="spacing" textLength="81" x="439" y="110.5352">Local Model</text><path d="M464.5,61 C464.5,51 482.5,51 482.5,51 C482.5,51 500.5,51 500.5,61 L500.5,87 C500.5,97 482.5,97 482.5,97 C482.5,97 464.5,97 464.5,87 L464.5,61 " fill="#E2E2F0" style="stroke:#181818;stroke-width:1.5;"/><path d="M464.5,61 C464.5,71 482.5,71 482.5,71 C482.5,71 500.5,71 500.5,61 " fill="none" style="stroke:#181818;stroke-width:1.5;"/><text fill="#000000" font-family="sans-serif" font-size="14" lengthAdjust="spacing" textLength="81" x="439" y="952.5547">Local Model</text><path d="M464.5,965.5078 C464.5,955.5078 482.5,955.5078 482.5,955.5078 C482.5,955.5078 500.5,955.5078 500.5,965.5078 L500.5,991.5078 C500.5,1001.5078 482.5,1001.5078 482.5,1001.5078 C482.5,1001.5078 464.5,1001.5078 464.5,991.5078 L464.5,965.5078 " fill="#E2E2F0" style="stroke:#181818;stroke-width:1.5;"/><path d="M464.5,965.5078 C464.5,975.5078 482.5,975.5078 482.5,975.5078 C482.5,975.5078 500.5,975.5078 500.5,965.5078 " fill="none" style="stroke:#181818;stroke-width:1.5;"/><text fill="#000000" font-family="sans-serif" font-size="14" lengthAdjust="spacing" textLength="55" x="536" y="110.5352">ChipNet</text><ellipse cx="566.5" cy="81" fill="#E2E2F0" rx="12" ry="12" style="stroke:#181818;stroke-width:0.5;"/><polygon fill="#181818" points="562.5,69,568.5,64,566.5,69,568.5,74,562.5,69" style="stroke:#181818;stroke-width:1.0;"/><text fill="#000000" font-family="sans-serif" font-size="14" lengthAdjust="spacing" textLength="55" x="536" y="952.5547">ChipNet</text><ellipse cx="566.5" cy="971.5078" fill="#E2E2F0" rx="12" ry="12" style="stroke:#181818;stroke-width:0.5;"/><polygon fill="#181818" points="562.5,959.5078,568.5,954.5078,566.5,959.5078,568.5,964.5078,562.5,959.5078" style="stroke:#181818;stroke-width:1.0;"/><text fill="#000000" font-family="sans-serif" font-size="14" lengthAdjust="spacing" textLength="63" x="607" y="110.5352">ChipSync</text><ellipse cx="641.5" cy="81" fill="#E2E2F0" rx="12" ry="12" style="stroke:#181818;stroke-width:0.5;"/><polygon fill="#181818" points="637.5,69,643.5,64,641.5,69,643.5,74,637.5,69" style="stroke:#181818;stroke-width:1.0;"/><text fill="#000000" font-family="sans-serif" font-size="14" lengthAdjust="spacing" textLength="63" x="607" y="952.5547">ChipSync</text><ellipse cx="641.5" cy="971.5078" fill="#E2E2F0" rx="12" ry="12" style="stroke:#181818;stroke-width:0.5;"/><polygon fill="#181818" points="637.5,959.5078,643.5,954.5078,641.5,959.5078,643.5,964.5078,637.5,959.5078" style="stroke:#181818;stroke-width:1.0;"/><rect fill="#E8E8EA" height="25" style="stroke:#202024;stroke-width:0.5;" width="89" x="750" y="83.4883"/><rect fill="#E8E8EA" height="25" style="stroke:#202024;stroke-width:0.5;" width="89" x="746" y="87.4883"/><text fill="#000033" font-family="Helvetica" font-size="11" lengthAdjust="spacing" textLength="75" x="753" y="102.9585">Upstream Sites</text><rect fill="#E8E8EA" height="25" style="stroke:#202024;stroke-width:0.5;" width="89" x="750" y="939.0195"/><rect fill="#E8E8EA" height="25" style="stroke:#202024;stroke-width:0.5;" width="89" x="746" y="943.0195"/><text fill="#000033" font-family="Helvetica" font-size="11" lengthAdjust="spacing" textLength="75" x="753" y="958.4897">Upstream Sites</text><line style="stroke:#000000;stroke-width:1.0;" x1="259.5" x2="249.5" y1="140.4883" y2="136.4883"/><line style="stroke:#000000;stroke-width:1.0;" x1="259.5" x2="249.5" y1="140.4883" y2="144.4883"/><line style="stroke:#000000;stroke-width:1.0;" x1="113.5" x2="260.5" y1="140.4883" y2="140.4883"/><text fill="#333333" font-family="Helvetica" font-size="11" lengthAdjust="spacing" textLength="124" x="120.5" y="135.9585">Routing query from below</text><line style="stroke:#000000;stroke-width:1.0;" x1="261.5" x2="303.5" y1="165.4883" y2="165.4883"/><line style="stroke:#000000;stroke-width:1.0;" x1="303.5" x2="303.5" y1="165.4883" y2="178.4883"/><line style="stroke:#000000;stroke-width:1.0;" x1="262.5" x2="303.5" y1="178.4883" y2="178.4883"/><line style="stroke:#000000;stroke-width:1.0;" x1="262.5" x2="272.5" y1="178.4883" y2="174.4883"/><line style="stroke:#000000;stroke-width:1.0;" x1="262.5" x2="272.5" y1="178.4883" y2="182.4883"/><text fill="#333333" font-family="Helvetica" font-size="11" lengthAdjust="spacing" textLength="207" x="268.5" y="160.9585">Parse packet as necessary for SQL query</text><line style="stroke:#000000;stroke-width:1.0;" x1="480.5" x2="470.5" y1="236.4883" y2="232.4883"/><line style="stroke:#000000;stroke-width:1.0;" x1="480.5" x2="470.5" y1="236.4883" y2="240.4883"/><line style="stroke:#000000;stroke-width:1.0;" x1="261.5" x2="481.5" y1="236.4883" y2="236.4883"/><text fill="#333333" font-family="Helvetica" font-size="11" lengthAdjust="spacing" textLength="93" x="268.5" y="198.9585">Query local DB for:</text><text fill="#333333" font-family="Helvetica" font-size="11" lengthAdjust="spacing" textLength="125" x="268.5" y="209.9585">edge/segment candidates</text><text fill="#333333" font-family="Helvetica" font-size="11" lengthAdjust="spacing" textLength="138" x="268.5" y="220.9585">and any existing state object</text><text fill="#333333" font-family="Helvetica" font-size="11" lengthAdjust="spacing" textLength="118" x="268.5" y="231.9585">for the specified session</text><line style="stroke:#000000;stroke-width:1.0;" x1="262.5" x2="272.5" y1="261.4883" y2="257.4883"/><line style="stroke:#000000;stroke-width:1.0;" x1="262.5" x2="272.5" y1="261.4883" y2="265.4883"/><line style="stroke:#000000;stroke-width:1.0;" x1="261.5" x2="481.5" y1="261.4883" y2="261.4883"/><text fill="#333333" font-family="Helvetica" font-size="11" lengthAdjust="spacing" textLength="69" x="278.5" y="256.9585">Return results</text><line style="stroke:#000000;stroke-width:1.0;" x1="564.5" x2="554.5" y1="286.4883" y2="282.4883"/><line style="stroke:#000000;stroke-width:1.0;" x1="564.5" x2="554.5" y1="286.4883" y2="290.4883"/><line style="stroke:#000000;stroke-width:1.0;" x1="261.5" x2="565.5" y1="286.4883" y2="286.4883"/><text fill="#333333" font-family="Helvetica" font-size="11" lengthAdjust="spacing" textLength="131" x="268.5" y="281.9585">Hand off packet to ChipNet</text><polygon fill="#000000" points="577.5,307.4883,567.5,311.4883,577.5,315.4883,573.5,311.4883" style="stroke:#000000;stroke-width:1.0;"/><polygon fill="#000000" points="780.5,307.4883,790.5,311.4883,780.5,315.4883,784.5,311.4883" style="stroke:#000000;stroke-width:1.0;"/><line style="stroke:#000000;stroke-width:1.0;" x1="571.5" x2="786.5" y1="311.4883" y2="311.4883"/><text fill="#333333" font-family="Helvetica" font-size="11" lengthAdjust="spacing" textLength="136" x="583.5" y="306.9585">ChipNet negotiates pathway</text><line style="stroke:#000000;stroke-width:1.0;" x1="262.5" x2="272.5" y1="336.4883" y2="332.4883"/><line style="stroke:#000000;stroke-width:1.0;" x1="262.5" x2="272.5" y1="336.4883" y2="340.4883"/><line style="stroke:#000000;stroke-width:1.0;" x1="261.5" x2="565.5" y1="336.4883" y2="336.4883"/><text fill="#333333" font-family="Helvetica" font-size="11" lengthAdjust="spacing" textLength="131" x="278.5" y="331.9585">Update to local state object</text><line style="stroke:#000000;stroke-width:1.0;" x1="480.5" x2="470.5" y1="361.4883" y2="357.4883"/><line style="stroke:#000000;stroke-width:1.0;" x1="480.5" x2="470.5" y1="361.4883" y2="365.4883"/><line style="stroke:#000000;stroke-width:1.0;" x1="261.5" x2="481.5" y1="361.4883" y2="361.4883"/><text fill="#333333" font-family="Helvetica" font-size="11" lengthAdjust="spacing" textLength="94" x="268.5" y="356.9585">Store session state</text><path d="M225,374.4883 L225,406.4883 L677,406.4883 L677,384.4883 L667,374.4883 L225,374.4883 " fill="#E8E8EA" style="stroke:#202024;stroke-width:0.5;"/><path d="M667,374.4883 L667,384.4883 L677,384.4883 L667,374.4883 " fill="#E8E8EA" style="stroke:#202024;stroke-width:0.5;"/><text fill="#000033" font-family="Helvetica" font-size="11" lengthAdjust="spacing" textLength="204" x="344.75" y="387.9585">Respond with sequence above as needed</text><text fill="#000033" font-family="Helvetica" font-size="11" lengthAdjust="spacing" textLength="84" x="344.75" y="398.9585">to resolve routing</text><line style="stroke:#000000;stroke-width:1.0;" x1="259.5" x2="249.5" y1="439.4883" y2="435.4883"/><line style="stroke:#000000;stroke-width:1.0;" x1="259.5" x2="249.5" y1="439.4883" y2="443.4883"/><line style="stroke:#000000;stroke-width:1.0;" x1="113.5" x2="260.5" y1="439.4883" y2="439.4883"/><text fill="#333333" font-family="Helvetica" font-size="11" lengthAdjust="spacing" textLength="97" x="120.5" y="423.9585">Receive transaction</text><text fill="#333333" font-family="Helvetica" font-size="11" lengthAdjust="spacing" textLength="68" x="120.5" y="434.9585">record update</text><line style="stroke:#000000;stroke-width:1.0;" x1="639.5" x2="629.5" y1="464.4883" y2="460.4883"/><line style="stroke:#000000;stroke-width:1.0;" x1="639.5" x2="629.5" y1="464.4883" y2="468.4883"/><line style="stroke:#000000;stroke-width:1.0;" x1="261.5" x2="640.5" y1="464.4883" y2="464.4883"/><text fill="#333333" font-family="Helvetica" font-size="11" lengthAdjust="spacing" textLength="139" x="268.5" y="459.9585">Hand off packet to ChipSync</text><line style="stroke:#000000;stroke-width:1.0;" x1="262.5" x2="272.5" y1="489.4883" y2="485.4883"/><line style="stroke:#000000;stroke-width:1.0;" x1="262.5" x2="272.5" y1="489.4883" y2="493.4883"/><line style="stroke:#000000;stroke-width:1.0;" x1="261.5" x2="640.5" y1="489.4883" y2="489.4883"/><text fill="#333333" font-family="Helvetica" font-size="11" lengthAdjust="spacing" textLength="125" x="278.5" y="484.9585">Request transaction state</text><polygon fill="#000000" points="272.5,510.4883,262.5,514.4883,272.5,518.4883,268.5,514.4883" style="stroke:#000000;stroke-width:1.0;"/><polygon fill="#000000" points="470.5,510.4883,480.5,514.4883,470.5,518.4883,474.5,514.4883" style="stroke:#000000;stroke-width:1.0;"/><line style="stroke:#000000;stroke-width:1.0;" x1="266.5" x2="476.5" y1="514.4883" y2="514.4883"/><text fill="#333333" font-family="Helvetica" font-size="11" lengthAdjust="spacing" textLength="112" x="278.5" y="509.9585">Fetch transaction state</text><line style="stroke:#000000;stroke-width:1.0;" x1="639.5" x2="629.5" y1="539.4883" y2="535.4883"/><line style="stroke:#000000;stroke-width:1.0;" x1="639.5" x2="629.5" y1="539.4883" y2="543.4883"/><line style="stroke:#000000;stroke-width:1.0;" x1="261.5" x2="640.5" y1="539.4883" y2="539.4883"/><text fill="#333333" font-family="Helvetica" font-size="11" lengthAdjust="spacing" textLength="107" x="268.5" y="534.9585">Give transaction state</text><line style="stroke:#000000;stroke-width:1.0;" x1="641.5" x2="683.5" y1="564.4883" y2="564.4883"/><line style="stroke:#000000;stroke-width:1.0;" x1="683.5" x2="683.5" y1="564.4883" y2="577.4883"/><line style="stroke:#000000;stroke-width:1.0;" x1="642.5" x2="683.5" y1="577.4883" y2="577.4883"/><line style="stroke:#000000;stroke-width:1.0;" x1="642.5" x2="652.5" y1="577.4883" y2="573.4883"/><line style="stroke:#000000;stroke-width:1.0;" x1="642.5" x2="652.5" y1="577.4883" y2="581.4883"/><text fill="#333333" font-family="Helvetica" font-size="11" lengthAdjust="spacing" textLength="74" x="648.5" y="559.9585">Validate packet</text><path d="M198.5,592.4883 L260.5,592.4883 L260.5,599.7988 L250.5,609.7988 L198.5,609.7988 L198.5,592.4883 " fill="#EEEEEE" style="stroke:#000000;stroke-width:1.5;"/><rect fill="none" height="280.5313" style="stroke:#000000;stroke-width:1.5;" width="497.5" x="198.5" y="592.4883"/><text fill="#000000" font-family="sans-serif" font-size="13" font-weight="bold" lengthAdjust="spacing" textLength="17" x="213.5" y="606.0566">alt</text><text fill="#000000" font-family="sans-serif" font-size="11" font-weight="bold" lengthAdjust="spacing" textLength="112" x="275.5" y="605.123">[Next step: promise]</text><line style="stroke:#000000;stroke-width:1.0;" x1="262.5" x2="272.5" y1="626.7988" y2="622.7988"/><line style="stroke:#000000;stroke-width:1.0;" x1="262.5" x2="272.5" y1="626.7988" y2="630.7988"/><line style="stroke:#000000;stroke-width:1.0;" x1="261.5" x2="640.5" y1="626.7988" y2="626.7988"/><text fill="#333333" font-family="Helvetica" font-size="11" lengthAdjust="spacing" textLength="153" x="278.5" y="622.269">Should we proceed to promise?</text><path d="M208.5,641.7988 L270.5,641.7988 L270.5,649.1094 L260.5,659.1094 L208.5,659.1094 L208.5,641.7988 " fill="#EEEEEE" style="stroke:#000000;stroke-width:1.5;"/><rect fill="none" height="94.3105" style="stroke:#000000;stroke-width:1.5;" width="477.5" x="208.5" y="641.7988"/><text fill="#000000" font-family="sans-serif" font-size="13" font-weight="bold" lengthAdjust="spacing" textLength="17" x="223.5" y="655.3672">alt</text><text fill="#000000" font-family="sans-serif" font-size="11" font-weight="bold" lengthAdjust="spacing" textLength="93" x="285.5" y="654.4336">[Yes, promising]</text><line style="stroke:#000000;stroke-width:1.0;" x1="480.5" x2="470.5" y1="676.1094" y2="672.1094"/><line style="stroke:#000000;stroke-width:1.0;" x1="480.5" x2="470.5" y1="676.1094" y2="680.1094"/><line style="stroke:#000000;stroke-width:1.0;" x1="261.5" x2="481.5" y1="676.1094" y2="676.1094"/><text fill="#333333" font-family="Helvetica" font-size="11" lengthAdjust="spacing" textLength="103" x="268.5" y="671.5796">Build conditional chits</text><line style="stroke:#000000;stroke-width:1.0;" x1="639.5" x2="629.5" y1="701.1094" y2="697.1094"/><line style="stroke:#000000;stroke-width:1.0;" x1="639.5" x2="629.5" y1="701.1094" y2="705.1094"/><line style="stroke:#000000;stroke-width:1.0;" x1="261.5" x2="640.5" y1="701.1094" y2="701.1094"/><text fill="#333333" font-family="Helvetica" font-size="11" lengthAdjust="spacing" textLength="105" x="268.5" y="696.5796">Respond affirmatively</text><line style="stroke:#000000;stroke-width:1.0;stroke-dasharray:2.0,2.0;" x1="208.5" x2="686" y1="710.1094" y2="710.1094"/><line style="stroke:#000000;stroke-width:1.0;" x1="639.5" x2="629.5" y1="728.1094" y2="724.1094"/><line style="stroke:#000000;stroke-width:1.0;" x1="639.5" x2="629.5" y1="728.1094" y2="732.1094"/><line style="stroke:#000000;stroke-width:1.0;" x1="261.5" x2="640.5" y1="728.1094" y2="728.1094"/><text fill="#333333" font-family="Helvetica" font-size="11" lengthAdjust="spacing" textLength="96" x="268.5" y="723.5796">Respond negatively</text><line style="stroke:#000000;stroke-width:1.0;stroke-dasharray:2.0,2.0;" x1="198.5" x2="696" y1="744.1094" y2="744.1094"/><text fill="#000000" font-family="sans-serif" font-size="11" font-weight="bold" lengthAdjust="spacing" textLength="109" x="203.5" y="754.7441">[Next step: commit]</text><line style="stroke:#000000;stroke-width:1.0;" x1="262.5" x2="272.5" y1="775.0645" y2="771.0645"/><line style="stroke:#000000;stroke-width:1.0;" x1="262.5" x2="272.5" y1="775.0645" y2="779.0645"/><line style="stroke:#000000;stroke-width:1.0;" x1="261.5" x2="640.5" y1="775.0645" y2="775.0645"/><text fill="#333333" font-family="Helvetica" font-size="11" lengthAdjust="spacing" textLength="74" x="278.5" y="770.5347">Time to commit</text><line style="stroke:#000000;stroke-width:1.0;" x1="480.5" x2="470.5" y1="800.0645" y2="796.0645"/><line style="stroke:#000000;stroke-width:1.0;" x1="480.5" x2="470.5" y1="800.0645" y2="804.0645"/><line style="stroke:#000000;stroke-width:1.0;" x1="261.5" x2="481.5" y1="800.0645" y2="800.0645"/><text fill="#333333" font-family="Helvetica" font-size="11" lengthAdjust="spacing" textLength="118" x="268.5" y="795.5347">Commit provisional chits</text><line style="stroke:#000000;stroke-width:1.0;stroke-dasharray:2.0,2.0;" x1="198.5" x2="696" y1="809.0645" y2="809.0645"/><text fill="#000000" font-family="sans-serif" font-size="11" font-weight="bold" lengthAdjust="spacing" textLength="147" x="203.5" y="819.6992">[Next step: abort/rollback]</text><line style="stroke:#000000;stroke-width:1.0;" x1="262.5" x2="272.5" y1="840.0195" y2="836.0195"/><line style="stroke:#000000;stroke-width:1.0;" x1="262.5" x2="272.5" y1="840.0195" y2="844.0195"/><line style="stroke:#000000;stroke-width:1.0;" x1="261.5" x2="640.5" y1="840.0195" y2="840.0195"/><text fill="#333333" font-family="Helvetica" font-size="11" lengthAdjust="spacing" textLength="39" x="278.5" y="835.4897">Abort lift</text><line style="stroke:#000000;stroke-width:1.0;" x1="480.5" x2="470.5" y1="865.0195" y2="861.0195"/><line style="stroke:#000000;stroke-width:1.0;" x1="480.5" x2="470.5" y1="865.0195" y2="869.0195"/><line style="stroke:#000000;stroke-width:1.0;" x1="261.5" x2="481.5" y1="865.0195" y2="865.0195"/><text fill="#333333" font-family="Helvetica" font-size="11" lengthAdjust="spacing" textLength="102" x="268.5" y="860.4897">Void provisional chits</text><line style="stroke:#000000;stroke-width:1.0;" x1="790.5" x2="780.5" y1="897.0195" y2="893.0195"/><line style="stroke:#000000;stroke-width:1.0;" x1="790.5" x2="780.5" y1="897.0195" y2="901.0195"/><line style="stroke:#000000;stroke-width:1.0;" x1="641.5" x2="791.5" y1="897.0195" y2="897.0195"/><text fill="#333333" font-family="Helvetica" font-size="11" lengthAdjust="spacing" textLength="127" x="648.5" y="892.4897">Propagate update records</text><line style="stroke:#000000;stroke-width:1.0;" x1="21" x2="31" y1="922.0195" y2="918.0195"/><line style="stroke:#000000;stroke-width:1.0;" x1="21" x2="31" y1="922.0195" y2="926.0195"/><line style="stroke:#000000;stroke-width:1.0;" x1="20" x2="260.5" y1="922.0195" y2="922.0195"/><text fill="#333333" font-family="Helvetica" font-size="11" lengthAdjust="spacing" textLength="53" x="37" y="917.4897">Notify user</text><text fill="#888888" font-family="sans-serif" font-size="10" lengthAdjust="spacing" textLength="146" x="348.5" y="1020.6875">Tue Jan 23 16:37:36 MST 2024</text><!--SRC=[XLNBRjim43oBNx4DUcY1fBaRHOeuHjj36YHn4g20BpIvijbIf4gkukZlknGblzqQ1YoBCzoTsH7rpZXb6usWV5LvzwbkAYlUao6B7svDIV28LhOWdOOd39LnJUHRiVOkuaSX5Va0PyyHmnd820rV2EKT1M_XRE9NBb90MS7r0Xrr4EswwmtgrYjfjm01RKPeIN8k8mwG7rwZ7I2JyMQ7cwMfxp2pLRxUNPosJgrNqnzUjXOL6PR1xTTzbrD36BEGkhiMec-tA2wkhegXjL7nw1ioRW5_6WmjbC5NC4VhLsA0xE7lPM0XjLI_aTB-3XN6A1EN3Pm-tEQT3kYJyQWe7heYjZDXCawCqSoXNk1bn4N5Q50y7yD-OPovD2hfMi0t4xiU8_42-Fal5ZnpgHuj4MADofG6DKJkX8qGNRa3eKXDSEnuR2p5tVvwhqV5zrJJb-KWa3pS37F8lqNn-UAgw5qT5Vqgsx3mP5BVJANbIhORmcuVptMIbtREFcoBEkxQbAE9WxYC5yBvn7h5i8xP-JeKpCd9rh0oj6GgpyGf13bdHfuQQjGpnrsm8TxotP23S3eeF6Z3E0hIHTabRkO2AXyqXonfElGqDtF2r2w-Oe0TLEEM8srNwvMlYwGv31PzHLBBVu5tE_gs9wH7x_IoGRz8sqMoxry8QGdky8sOXlK8QdveJ4G1S4BCTEaRoxF015LiVRAWPtrX6d_JbZyndlUtqo20FqVpC6uCxyRdWZQfUSuGr-L87n0s4eOuoB8qePB4-ctB1BHTt__bSRotI4uBaPZR9gHJrz1f3vvCrOL-ZJigxQPRJIQychYjxQ0UHpdG9H-CTivJELttEk70yWlWLCqNR_JHYadcpgxhf_u- -5ekKYHoyY4_1tkdIdg7yFvtV32KRNwZ_0K0]--></g></svg>