<?xml version="1.0" encoding="UTF-8" standalone="no"?><svg xmlns="http://www.w3.org/2000/svg" xmlns:xlink="http://www.w3.org/1999/xlink" contentStyleType="text/css" height="1145px" preserveAspectRatio="none" style="width:813px;height:1145px;background:#FFFFFF;" version="1.1" viewBox="0 0 813 1145" width="813px" zoomAndPan="magnify"><defs/><g><text fill="#000000" font-family="sans-serif" font-size="14" font-weight="bold" lengthAdjust="spacing" textLength="272" x="269.75" y="28.5352">Payment Lift Discovery and Execution</text><rect fill="none" height="149.2656" style="stroke:#000000;stroke-width:1.5;" width="424.5" x="10" y="191.4883"/><rect fill="none" height="133.2207" style="stroke:#000000;stroke-width:1.5;" width="421.5" x="10" y="354.7539"/><rect fill="none" height="163.3105" style="stroke:#000000;stroke-width:1.5;" width="579.5" x="10" y="551.9746"/><rect fill="none" height="145.3105" style="stroke:#000000;stroke-width:1.5;" width="343" x="325.5" y="867.2852"/><line style="stroke:#44AAFF;stroke-width:0.5;stroke-dasharray:5.0,5.0;" x1="35" x2="35" y1="113.4883" y2="1054.5957"/><line style="stroke:#44AAFF;stroke-width:0.5;stroke-dasharray:5.0,5.0;" x1="231" x2="231" y1="113.4883" y2="1054.5957"/><line style="stroke:#44AAFF;stroke-width:0.5;stroke-dasharray:5.0,5.0;" x1="379.5" x2="379.5" y1="113.4883" y2="1054.5957"/><line style="stroke:#44AAFF;stroke-width:0.5;stroke-dasharray:5.0,5.0;" x1="548.5" x2="548.5" y1="113.4883" y2="1054.5957"/><line style="stroke:#44AAFF;stroke-width:0.5;stroke-dasharray:5.0,5.0;" x1="623.5" x2="623.5" y1="113.4883" y2="1054.5957"/><line style="stroke:#44AAFF;stroke-width:0.5;stroke-dasharray:5.0,5.0;" x1="760.5" x2="760.5" y1="113.4883" y2="1054.5957"/><text fill="#000033" font-family="Helvetica" font-size="11" lengthAdjust="spacing" textLength="24" x="20" y="110.9585">User</text><ellipse cx="35" cy="50.9883" fill="#44AAFF" rx="8" ry="8" style="stroke:#2277DD;stroke-width:0.5;"/><path d="M35,58.9883 L35,85.9883 M22,66.9883 L48,66.9883 M35,85.9883 L22,100.9883 M35,85.9883 L48,100.9883 " fill="none" style="stroke:#2277DD;stroke-width:0.5;"/><text fill="#000033" font-family="Helvetica" font-size="11" lengthAdjust="spacing" textLength="24" x="20" y="1062.0659">User</text><ellipse cx="35" cy="1073.0957" fill="#44AAFF" rx="8" ry="8" style="stroke:#2277DD;stroke-width:0.5;"/><path d="M35,1081.0957 L35,1108.0957 M22,1089.0957 L48,1089.0957 M35,1108.0957 L22,1123.0957 M35,1108.0957 L48,1123.0957 " fill="none" style="stroke:#2277DD;stroke-width:0.5;"/><text fill="#000000" font-family="sans-serif" font-size="14" lengthAdjust="spacing" textLength="84" x="186" y="110.5352">Payor Model</text><path d="M213,61 C213,51 231,51 231,51 C231,51 249,51 249,61 L249,87 C249,97 231,97 231,97 C231,97 213,97 213,87 L213,61 " fill="#E2E2F0" style="stroke:#181818;stroke-width:1.5;"/><path d="M213,61 C213,71 231,71 231,71 C231,71 249,71 249,61 " fill="none" style="stroke:#181818;stroke-width:1.5;"/><text fill="#000000" font-family="sans-serif" font-size="14" lengthAdjust="spacing" textLength="84" x="186" y="1067.1309">Payor Model</text><path d="M213,1080.084 C213,1070.084 231,1070.084 231,1070.084 C231,1070.084 249,1070.084 249,1080.084 L249,1106.084 C249,1116.084 231,1116.084 231,1116.084 C231,1116.084 213,1116.084 213,1106.084 L213,1080.084 " fill="#E2E2F0" style="stroke:#181818;stroke-width:1.5;"/><path d="M213,1080.084 C213,1090.084 231,1090.084 231,1090.084 C231,1090.084 249,1090.084 249,1080.084 " fill="none" style="stroke:#181818;stroke-width:1.5;"/><text fill="#000000" font-family="sans-serif" font-size="14" lengthAdjust="spacing" textLength="83" x="335.5" y="110.5352">Payor Agent</text><ellipse cx="380" cy="81" fill="#E2E2F0" rx="12" ry="12" style="stroke:#181818;stroke-width:0.5;"/><polygon fill="#181818" points="376,69,382,64,380,69,382,74,376,69" style="stroke:#181818;stroke-width:1.0;"/><text fill="#000000" font-family="sans-serif" font-size="14" lengthAdjust="spacing" textLength="83" x="335.5" y="1067.1309">Payor Agent</text><ellipse cx="380" cy="1086.084" fill="#E2E2F0" rx="12" ry="12" style="stroke:#181818;stroke-width:0.5;"/><polygon fill="#181818" points="376,1074.084,382,1069.084,380,1074.084,382,1079.084,376,1074.084" style="stroke:#181818;stroke-width:1.0;"/><text fill="#000000" font-family="sans-serif" font-size="14" lengthAdjust="spacing" textLength="55" x="518.5" y="110.5352">ChipNet</text><ellipse cx="549" cy="81" fill="#E2E2F0" rx="12" ry="12" style="stroke:#181818;stroke-width:0.5;"/><polygon fill="#181818" points="545,69,551,64,549,69,551,74,545,69" style="stroke:#181818;stroke-width:1.0;"/><text fill="#000000" font-family="sans-serif" font-size="14" lengthAdjust="spacing" textLength="55" x="518.5" y="1067.1309">ChipNet</text><ellipse cx="549" cy="1086.084" fill="#E2E2F0" rx="12" ry="12" style="stroke:#181818;stroke-width:0.5;"/><polygon fill="#181818" points="545,1074.084,551,1069.084,549,1074.084,551,1079.084,545,1074.084" style="stroke:#181818;stroke-width:1.0;"/><text fill="#000000" font-family="sans-serif" font-size="14" lengthAdjust="spacing" textLength="63" x="589.5" y="110.5352">ChipSync</text><ellipse cx="624" cy="81" fill="#E2E2F0" rx="12" ry="12" style="stroke:#181818;stroke-width:0.5;"/><polygon fill="#181818" points="620,69,626,64,624,69,626,74,620,69" style="stroke:#181818;stroke-width:1.0;"/><text fill="#000000" font-family="sans-serif" font-size="14" lengthAdjust="spacing" textLength="63" x="589.5" y="1067.1309">ChipSync</text><ellipse cx="624" cy="1086.084" fill="#E2E2F0" rx="12" ry="12" style="stroke:#181818;stroke-width:0.5;"/><polygon fill="#181818" points="620,1074.084,626,1069.084,624,1074.084,626,1079.084,620,1074.084" style="stroke:#181818;stroke-width:1.0;"/><rect fill="#E8E8EA" height="25" style="stroke:#202024;stroke-width:0.5;" width="89" x="718.5" y="83.4883"/><rect fill="#E8E8EA" height="25" style="stroke:#202024;stroke-width:0.5;" width="89" x="714.5" y="87.4883"/><text fill="#000033" font-family="Helvetica" font-size="11" lengthAdjust="spacing" textLength="75" x="721.5" y="102.9585">Upstream Sites</text><rect fill="#E8E8EA" height="25" style="stroke:#202024;stroke-width:0.5;" width="89" x="718.5" y="1053.5957"/><rect fill="#E8E8EA" height="25" style="stroke:#202024;stroke-width:0.5;" width="89" x="714.5" y="1057.5957"/><text fill="#000033" font-family="Helvetica" font-size="11" lengthAdjust="spacing" textLength="75" x="721.5" y="1073.0659">Upstream Sites</text><line style="stroke:#000000;stroke-width:1.0;" x1="229" x2="219" y1="151.4883" y2="147.4883"/><line style="stroke:#000000;stroke-width:1.0;" x1="229" x2="219" y1="151.4883" y2="155.4883"/><line style="stroke:#000000;stroke-width:1.0;" x1="35" x2="230" y1="151.4883" y2="151.4883"/><text fill="#333333" font-family="Helvetica" font-size="11" lengthAdjust="spacing" textLength="172" x="42" y="135.9585">Request payment lift to named peer</text><text fill="#333333" font-family="Helvetica" font-size="11" lengthAdjust="spacing" textLength="56" x="42" y="146.9585">request=init</text><line style="stroke:#000000;stroke-width:1.0;" x1="378" x2="368" y1="176.4883" y2="172.4883"/><line style="stroke:#000000;stroke-width:1.0;" x1="378" x2="368" y1="176.4883" y2="180.4883"/><line style="stroke:#000000;stroke-width:1.0;" x1="231" x2="379" y1="176.4883" y2="176.4883"/><text fill="#333333" font-family="Helvetica" font-size="11" lengthAdjust="spacing" textLength="97" x="238" y="171.9585">Notify payor's agent</text><path d="M10,191.4883 L72,191.4883 L72,198.7988 L62,208.7988 L10,208.7988 L10,191.4883 " fill="#EEEEEE" style="stroke:#000000;stroke-width:1.5;"/><rect fill="none" height="149.2656" style="stroke:#000000;stroke-width:1.5;" width="424.5" x="10" y="191.4883"/><text fill="#000000" font-family="sans-serif" font-size="13" font-weight="bold" lengthAdjust="spacing" textLength="17" x="25" y="205.0566">alt</text><text fill="#000000" font-family="sans-serif" font-size="11" font-weight="bold" lengthAdjust="spacing" textLength="166" x="87" y="204.123">[Can't verify user's signature]</text><line style="stroke:#000000;stroke-width:1.0;" x1="232" x2="242" y1="225.7988" y2="221.7988"/><line style="stroke:#000000;stroke-width:1.0;" x1="232" x2="242" y1="225.7988" y2="229.7988"/><line style="stroke:#000000;stroke-width:1.0;" x1="231" x2="379" y1="225.7988" y2="225.7988"/><text fill="#333333" font-family="Helvetica" font-size="11" lengthAdjust="spacing" textLength="108" x="248" y="221.269">Mark payment as void</text><line style="stroke:#000000;stroke-width:1.0;" x1="36" x2="46" y1="250.7988" y2="246.7988"/><line style="stroke:#000000;stroke-width:1.0;" x1="36" x2="46" y1="250.7988" y2="254.7988"/><line style="stroke:#000000;stroke-width:1.0;" x1="35" x2="230" y1="250.7988" y2="250.7988"/><text fill="#333333" font-family="Helvetica" font-size="11" lengthAdjust="spacing" textLength="53" x="52" y="246.269">Notify user</text><path d="M188,263.7988 L188,284.7988 L421,284.7988 L421,273.7988 L411,263.7988 L188,263.7988 " fill="#E8E8EA" style="stroke:#202024;stroke-width:0.5;"/><path d="M411,263.7988 L411,273.7988 L421,273.7988 L411,263.7988 " fill="#E8E8EA" style="stroke:#202024;stroke-width:0.5;"/><text fill="#000033" font-family="Helvetica" font-size="11" lengthAdjust="spacing" textLength="18" x="291.25" y="277.269">Exit</text><line style="stroke:#000000;stroke-width:1.0;stroke-dasharray:2.0,2.0;" x1="10" x2="434.5" y1="290.7988" y2="290.7988"/><text fill="#000000" font-family="sans-serif" font-size="11" font-weight="bold" lengthAdjust="spacing" textLength="144" x="15" y="301.4336">[User's signature is good]</text><line style="stroke:#000000;stroke-width:1.0;" x1="232" x2="242" y1="332.7539" y2="328.7539"/><line style="stroke:#000000;stroke-width:1.0;" x1="232" x2="242" y1="332.7539" y2="336.7539"/><line style="stroke:#000000;stroke-width:1.0;" x1="231" x2="379" y1="332.7539" y2="332.7539"/><text fill="#333333" font-family="Helvetica" font-size="11" lengthAdjust="spacing" textLength="105" x="248" y="317.2241">Agent signs lift record</text><text fill="#333333" font-family="Helvetica" font-size="11" lengthAdjust="spacing" textLength="68" x="248" y="328.2241">request=route</text><path d="M10,354.7539 L72,354.7539 L72,362.0645 L62,372.0645 L10,372.0645 L10,354.7539 " fill="#EEEEEE" style="stroke:#000000;stroke-width:1.5;"/><rect fill="none" height="133.2207" style="stroke:#000000;stroke-width:1.5;" width="421.5" x="10" y="354.7539"/><text fill="#000000" font-family="sans-serif" font-size="13" font-weight="bold" lengthAdjust="spacing" textLength="17" x="25" y="368.3223">alt</text><text fill="#000000" font-family="sans-serif" font-size="11" font-weight="bold" lengthAdjust="spacing" textLength="176" x="87" y="367.3887">[Payee agent is local to our site</text><text fill="#000000" font-family="sans-serif" font-size="11" font-weight="bold" lengthAdjust="spacing" textLength="197" x="87" y="380.3438">and a suitable local route is found]</text><line style="stroke:#000000;stroke-width:1.0;" x1="231" x2="273" y1="410.9746" y2="410.9746"/><line style="stroke:#000000;stroke-width:1.0;" x1="273" x2="273" y1="410.9746" y2="423.9746"/><line style="stroke:#000000;stroke-width:1.0;" x1="232" x2="273" y1="423.9746" y2="423.9746"/><line style="stroke:#000000;stroke-width:1.0;" x1="232" x2="242" y1="423.9746" y2="419.9746"/><line style="stroke:#000000;stroke-width:1.0;" x1="232" x2="242" y1="423.9746" y2="427.9746"/><text fill="#333333" font-family="Helvetica" font-size="11" lengthAdjust="spacing" textLength="135" x="238" y="395.4448">Generate/commit local chits</text><text fill="#333333" font-family="Helvetica" font-size="11" lengthAdjust="spacing" textLength="50" x="238" y="406.4448">Commit lift</text><line style="stroke:#000000;stroke-width:1.0;" x1="36" x2="46" y1="448.9746" y2="444.9746"/><line style="stroke:#000000;stroke-width:1.0;" x1="36" x2="46" y1="448.9746" y2="452.9746"/><line style="stroke:#000000;stroke-width:1.0;" x1="35" x2="230" y1="448.9746" y2="448.9746"/><text fill="#333333" font-family="Helvetica" font-size="11" lengthAdjust="spacing" textLength="53" x="52" y="444.4448">Notify user</text><path d="M188,461.9746 L188,482.9746 L421,482.9746 L421,471.9746 L411,461.9746 L188,461.9746 " fill="#E8E8EA" style="stroke:#202024;stroke-width:0.5;"/><path d="M411,461.9746 L411,471.9746 L421,471.9746 L411,461.9746 " fill="#E8E8EA" style="stroke:#202024;stroke-width:0.5;"/><text fill="#000033" font-family="Helvetica" font-size="11" lengthAdjust="spacing" textLength="18" x="291.25" y="475.4448">Exit</text><line style="stroke:#000000;stroke-width:1.0;" x1="547" x2="537" y1="511.9746" y2="507.9746"/><line style="stroke:#000000;stroke-width:1.0;" x1="547" x2="537" y1="511.9746" y2="515.9746"/><line style="stroke:#000000;stroke-width:1.0;" x1="380" x2="548" y1="511.9746" y2="511.9746"/><text fill="#333333" font-family="Helvetica" font-size="11" lengthAdjust="spacing" textLength="113" x="387" y="507.4448">Launch routing session</text><polygon fill="#000000" points="560,532.9746,550,536.9746,560,540.9746,556,536.9746" style="stroke:#000000;stroke-width:1.0;"/><polygon fill="#000000" points="749,532.9746,759,536.9746,749,540.9746,753,536.9746" style="stroke:#000000;stroke-width:1.0;"/><line style="stroke:#000000;stroke-width:1.0;" x1="554" x2="755" y1="536.9746" y2="536.9746"/><text fill="#333333" font-family="Helvetica" font-size="11" lengthAdjust="spacing" textLength="136" x="566" y="532.4448">ChipNet negotiates pathway</text><path d="M10,551.9746 L72,551.9746 L72,559.2852 L62,569.2852 L10,569.2852 L10,551.9746 " fill="#EEEEEE" style="stroke:#000000;stroke-width:1.5;"/><rect fill="none" height="163.3105" style="stroke:#000000;stroke-width:1.5;" width="579.5" x="10" y="551.9746"/><text fill="#000000" font-family="sans-serif" font-size="13" font-weight="bold" lengthAdjust="spacing" textLength="17" x="25" y="565.543">alt</text><text fill="#000000" font-family="sans-serif" font-size="11" font-weight="bold" lengthAdjust="spacing" textLength="190" x="87" y="564.6094">[ChipNet can't find suitable route]</text><line style="stroke:#000000;stroke-width:1.0;" x1="381" x2="391" y1="586.2852" y2="582.2852"/><line style="stroke:#000000;stroke-width:1.0;" x1="381" x2="391" y1="586.2852" y2="590.2852"/><line style="stroke:#000000;stroke-width:1.0;" x1="380" x2="548" y1="586.2852" y2="586.2852"/><text fill="#333333" font-family="Helvetica" font-size="11" lengthAdjust="spacing" textLength="85" x="397" y="581.7554">No route possible</text><line style="stroke:#000000;stroke-width:1.0;" x1="380" x2="422" y1="611.2852" y2="611.2852"/><line style="stroke:#000000;stroke-width:1.0;" x1="422" x2="422" y1="611.2852" y2="624.2852"/><line style="stroke:#000000;stroke-width:1.0;" x1="381" x2="422" y1="624.2852" y2="624.2852"/><line style="stroke:#000000;stroke-width:1.0;" x1="381" x2="391" y1="624.2852" y2="620.2852"/><line style="stroke:#000000;stroke-width:1.0;" x1="381" x2="391" y1="624.2852" y2="628.2852"/><text fill="#333333" font-family="Helvetica" font-size="11" lengthAdjust="spacing" textLength="69" x="387" y="606.7554">Void lift record</text><line style="stroke:#000000;stroke-width:1.0;" x1="36" x2="46" y1="649.2852" y2="645.2852"/><line style="stroke:#000000;stroke-width:1.0;" x1="36" x2="46" y1="649.2852" y2="653.2852"/><line style="stroke:#000000;stroke-width:1.0;" x1="35" x2="379" y1="649.2852" y2="649.2852"/><text fill="#333333" font-family="Helvetica" font-size="11" lengthAdjust="spacing" textLength="53" x="52" y="644.7554">Notify user</text><path d="M188,662.2852 L188,683.2852 L421,683.2852 L421,672.2852 L411,662.2852 L188,662.2852 " fill="#E8E8EA" style="stroke:#202024;stroke-width:0.5;"/><path d="M411,662.2852 L411,672.2852 L421,672.2852 L411,662.2852 " fill="#E8E8EA" style="stroke:#202024;stroke-width:0.5;"/><text fill="#000033" font-family="Helvetica" font-size="11" lengthAdjust="spacing" textLength="18" x="291.25" y="675.7554">Exit</text><line style="stroke:#000000;stroke-width:1.0;stroke-dasharray:2.0,2.0;" x1="10" x2="589.5" y1="689.2852" y2="689.2852"/><line style="stroke:#000000;stroke-width:1.0;" x1="381" x2="391" y1="707.2852" y2="703.2852"/><line style="stroke:#000000;stroke-width:1.0;" x1="381" x2="391" y1="707.2852" y2="711.2852"/><line style="stroke:#000000;stroke-width:1.0;" x1="380" x2="548" y1="707.2852" y2="707.2852"/><text fill="#333333" font-family="Helvetica" font-size="11" lengthAdjust="spacing" textLength="96" x="397" y="702.7554">Suitable route found</text><line style="stroke:#000000;stroke-width:1.0;" x1="380" x2="422" y1="739.2852" y2="739.2852"/><line style="stroke:#000000;stroke-width:1.0;" x1="422" x2="422" y1="739.2852" y2="752.2852"/><line style="stroke:#000000;stroke-width:1.0;" x1="381" x2="422" y1="752.2852" y2="752.2852"/><line style="stroke:#000000;stroke-width:1.0;" x1="381" x2="391" y1="752.2852" y2="748.2852"/><line style="stroke:#000000;stroke-width:1.0;" x1="381" x2="391" y1="752.2852" y2="756.2852"/><text fill="#333333" font-family="Helvetica" font-size="11" lengthAdjust="spacing" textLength="90" x="387" y="734.7554">Select optimal plan</text><line style="stroke:#000000;stroke-width:1.0;" x1="622" x2="612" y1="777.2852" y2="773.2852"/><line style="stroke:#000000;stroke-width:1.0;" x1="622" x2="612" y1="777.2852" y2="781.2852"/><line style="stroke:#000000;stroke-width:1.0;" x1="380" x2="623" y1="777.2852" y2="777.2852"/><text fill="#333333" font-family="Helvetica" font-size="11" lengthAdjust="spacing" textLength="106" x="387" y="772.7554">Launch lift transaction</text><line style="stroke:#000000;stroke-width:1.0;" x1="381" x2="391" y1="802.2852" y2="798.2852"/><line style="stroke:#000000;stroke-width:1.0;" x1="381" x2="391" y1="802.2852" y2="806.2852"/><line style="stroke:#000000;stroke-width:1.0;" x1="380" x2="623" y1="802.2852" y2="802.2852"/><text fill="#333333" font-family="Helvetica" font-size="11" lengthAdjust="spacing" textLength="142" x="397" y="797.7554">Time to build provisional chits</text><polygon fill="#000000" points="242,823.2852,232,827.2852,242,831.2852,238,827.2852" style="stroke:#000000;stroke-width:1.0;"/><polygon fill="#000000" points="368,823.2852,378,827.2852,368,831.2852,372,827.2852" style="stroke:#000000;stroke-width:1.0;"/><line style="stroke:#000000;stroke-width:1.0;" x1="236" x2="374" y1="827.2852" y2="827.2852"/><text fill="#333333" font-family="Helvetica" font-size="11" lengthAdjust="spacing" textLength="104" x="248" y="822.7554">Build provisional chits</text><polygon fill="#000000" points="635,848.2852,625,852.2852,635,856.2852,631,852.2852" style="stroke:#000000;stroke-width:1.0;"/><polygon fill="#000000" points="749,848.2852,759,852.2852,749,856.2852,753,852.2852" style="stroke:#000000;stroke-width:1.0;"/><line style="stroke:#000000;stroke-width:1.0;" x1="629" x2="755" y1="852.2852" y2="852.2852"/><text fill="#333333" font-family="Helvetica" font-size="11" lengthAdjust="spacing" textLength="113" x="641" y="847.7554">ChipSync negotiates lift</text><path d="M325.5,867.2852 L387.5,867.2852 L387.5,874.5957 L377.5,884.5957 L325.5,884.5957 L325.5,867.2852 " fill="#EEEEEE" style="stroke:#000000;stroke-width:1.5;"/><rect fill="none" height="145.3105" style="stroke:#000000;stroke-width:1.5;" width="343" x="325.5" y="867.2852"/><text fill="#000000" font-family="sans-serif" font-size="13" font-weight="bold" lengthAdjust="spacing" textLength="17" x="340.5" y="880.8535">alt</text><text fill="#000000" font-family="sans-serif" font-size="11" font-weight="bold" lengthAdjust="spacing" textLength="81" x="402.5" y="879.9199">[Lift succeeds]</text><line style="stroke:#000000;stroke-width:1.0;" x1="381" x2="391" y1="901.5957" y2="897.5957"/><line style="stroke:#000000;stroke-width:1.0;" x1="381" x2="391" y1="901.5957" y2="905.5957"/><line style="stroke:#000000;stroke-width:1.0;" x1="380" x2="623" y1="901.5957" y2="901.5957"/><text fill="#333333" font-family="Helvetica" font-size="11" lengthAdjust="spacing" textLength="71" x="397" y="897.0659">Lift succeeded</text><line style="stroke:#000000;stroke-width:1.0;" x1="380" x2="422" y1="926.5957" y2="926.5957"/><line style="stroke:#000000;stroke-width:1.0;" x1="422" x2="422" y1="926.5957" y2="939.5957"/><line style="stroke:#000000;stroke-width:1.0;" x1="381" x2="422" y1="939.5957" y2="939.5957"/><line style="stroke:#000000;stroke-width:1.0;" x1="381" x2="391" y1="939.5957" y2="935.5957"/><line style="stroke:#000000;stroke-width:1.0;" x1="381" x2="391" y1="939.5957" y2="943.5957"/><text fill="#333333" font-family="Helvetica" font-size="11" lengthAdjust="spacing" textLength="155" x="387" y="922.0659">Record/commit provisional chits</text><line style="stroke:#000000;stroke-width:1.0;stroke-dasharray:2.0,2.0;" x1="325.5" x2="668.5" y1="948.5957" y2="948.5957"/><line style="stroke:#000000;stroke-width:1.0;" x1="381" x2="391" y1="966.5957" y2="962.5957"/><line style="stroke:#000000;stroke-width:1.0;" x1="381" x2="391" y1="966.5957" y2="970.5957"/><line style="stroke:#000000;stroke-width:1.0;" x1="380" x2="623" y1="966.5957" y2="966.5957"/><text fill="#333333" font-family="Helvetica" font-size="11" lengthAdjust="spacing" textLength="42" x="397" y="962.0659">Lift failed</text><line style="stroke:#000000;stroke-width:1.0;" x1="380" x2="422" y1="991.5957" y2="991.5957"/><line style="stroke:#000000;stroke-width:1.0;" x1="422" x2="422" y1="991.5957" y2="1004.5957"/><line style="stroke:#000000;stroke-width:1.0;" x1="381" x2="422" y1="1004.5957" y2="1004.5957"/><line style="stroke:#000000;stroke-width:1.0;" x1="381" x2="391" y1="1004.5957" y2="1000.5957"/><line style="stroke:#000000;stroke-width:1.0;" x1="381" x2="391" y1="1004.5957" y2="1008.5957"/><text fill="#333333" font-family="Helvetica" font-size="11" lengthAdjust="spacing" textLength="102" x="387" y="987.0659">Void provisional chits</text><line style="stroke:#000000;stroke-width:1.0;" x1="36" x2="46" y1="1036.5957" y2="1032.5957"/><line style="stroke:#000000;stroke-width:1.0;" x1="36" x2="46" y1="1036.5957" y2="1040.5957"/><line style="stroke:#000000;stroke-width:1.0;" x1="35" x2="379" y1="1036.5957" y2="1036.5957"/><text fill="#333333" font-family="Helvetica" font-size="11" lengthAdjust="spacing" textLength="53" x="52" y="1032.0659">Notify user</text><text fill="#888888" font-family="sans-serif" font-size="10" lengthAdjust="spacing" textLength="146" x="332.75" y="1135.2637">Thu Jan 25 16:30:38 MST 2024</text><!--SRC=[hLJ1Rjim33tRNy450xe1wtOljW9hEkpI1aExzfIBAZE9C5dq9AfR_dwKP3jnqkmmx6QRrEFZUqz-PPosiK7GrBRatdUnjVLhDcpnpJUrRT4nt9WLmxK9cfxHRq6v1hxyHXtPa7jRAytaOVOGqCz01OZoK3UArPCA23C1aV8jDMXpcVpw-ghMvDYJ7SgVrp9dAEUNNSTyOxe5bgekpzFY_TRfiPfUf6mjwaGl2B4ki4VLmhrX38LYbv_hEd6jglFBoohJkgYgE_mPCJ1q_UusxSu4JhNOG8VebywNda_66QxpmH4ZSnUO1R5PRHCA-RC0AgzKAyimL-wCGOHCzJHVoi6idUBeiOPHW0chM-L_Z9HaWMSoJUcLsQan0Ut6fZS0QN342Ccr4VPTWHG3XJjQSUZXW0EO06kYvXIN_2MtXwAEHqs-sSdYAJBMw9goi3YCM1H8q9QqiabHYbvG69Sk1Kf1Y4OoOx7lo2Zfm8gYcouxCFcA3hrY_92oQxW_A2dWi7Jp_fim_1zAfMqcSlHHlAXkL7Hwa_aQjuQ08KZmwhvULH_FPMW9t4NLXnaSheM0S0zYAsz-gMsVZhwkSqfMHfGPTIcw2jS1Ufgv1VMQTIGCvC0B1lQjZnAVVUyEE_zDen8dE4dmVh98x-kni7i7CDrYe8vDAyPsLhbZ3zA57qqejzKh5rI-_lNGSO3ytRIOClWKZPLRxUdP9DE6zEoc9FE6k5sTQ1vd73cTlkvRdSEOVSw_r12rHcp2uEaBHFVxi3djw5tsSRW8nnodtfmQj5B6_crApiqn-B679mBq1m00]--></g></svg>