<?xml version="1.0" encoding="UTF-8" standalone="no"?><svg xmlns="http://www.w3.org/2000/svg" xmlns:xlink="http://www.w3.org/1999/xlink" contentStyleType="text/css" height="1195px" preserveAspectRatio="none" style="width:632px;height:1195px;background:#FFFFFF;" version="1.1" viewBox="0 0 632 1195" width="632px" zoomAndPan="magnify"><defs/><g><text fill="#000000" font-family="sans-serif" font-size="14" font-weight="bold" lengthAdjust="spacing" textLength="143" x="244" y="28.5352">Establishing a Tally</text><rect fill="none" height="53.3105" style="stroke:#000000;stroke-width:1.5;" width="249" x="318" y="519.4883"/><rect fill="none" height="470.2207" style="stroke:#000000;stroke-width:1.5;" width="557" x="10" y="586.7988"/><line style="stroke:#44AAFF;stroke-width:0.5;stroke-dasharray:5.0,5.0;" x1="47" x2="47" y1="113.4883" y2="1105.0195"/><line style="stroke:#44AAFF;stroke-width:0.5;stroke-dasharray:5.0,5.0;" x1="189.5" x2="189.5" y1="113.4883" y2="1105.0195"/><line style="stroke:#44AAFF;stroke-width:0.5;stroke-dasharray:5.0,5.0;" x1="367" x2="367" y1="113.4883" y2="1105.0195"/><line style="stroke:#44AAFF;stroke-width:0.5;stroke-dasharray:5.0,5.0;" x1="536" x2="536" y1="113.4883" y2="1105.0195"/><text fill="#000033" font-family="Helvetica" font-size="11" lengthAdjust="spacing" textLength="48" x="20" y="110.9585">Originator</text><ellipse cx="47" cy="50.9883" fill="#44AAFF" rx="8" ry="8" style="stroke:#2277DD;stroke-width:0.5;"/><path d="M47,58.9883 L47,85.9883 M34,66.9883 L60,66.9883 M47,85.9883 L34,100.9883 M47,85.9883 L60,100.9883 " fill="none" style="stroke:#2277DD;stroke-width:0.5;"/><text fill="#000033" font-family="Helvetica" font-size="11" lengthAdjust="spacing" textLength="48" x="20" y="1112.4897">Originator</text><ellipse cx="47" cy="1123.5195" fill="#44AAFF" rx="8" ry="8" style="stroke:#2277DD;stroke-width:0.5;"/><path d="M47,1131.5195 L47,1158.5195 M34,1139.5195 L60,1139.5195 M47,1158.5195 L34,1173.5195 M47,1158.5195 L60,1173.5195 " fill="none" style="stroke:#2277DD;stroke-width:0.5;"/><text fill="#000000" font-family="sans-serif" font-size="14" lengthAdjust="spacing" textLength="93" x="140.5" y="110.5352">Originator DB</text><path d="M172,61 C172,51 190,51 190,51 C190,51 208,51 208,61 L208,87 C208,97 190,97 190,97 C190,97 172,97 172,87 L172,61 " fill="#E2E2F0" style="stroke:#181818;stroke-width:1.5;"/><path d="M172,61 C172,71 190,71 190,71 C190,71 208,71 208,61 " fill="none" style="stroke:#181818;stroke-width:1.5;"/><text fill="#000000" font-family="sans-serif" font-size="14" lengthAdjust="spacing" textLength="93" x="140.5" y="1117.5547">Originator DB</text><path d="M172,1130.5078 C172,1120.5078 190,1120.5078 190,1120.5078 C190,1120.5078 208,1120.5078 208,1130.5078 L208,1156.5078 C208,1166.5078 190,1166.5078 190,1166.5078 C190,1166.5078 172,1166.5078 172,1156.5078 L172,1130.5078 " fill="#E2E2F0" style="stroke:#181818;stroke-width:1.5;"/><path d="M172,1130.5078 C172,1140.5078 190,1140.5078 190,1140.5078 C190,1140.5078 208,1140.5078 208,1130.5078 " fill="none" style="stroke:#181818;stroke-width:1.5;"/><text fill="#000000" font-family="sans-serif" font-size="14" lengthAdjust="spacing" textLength="72" x="328" y="110.5352">Subject DB</text><path d="M349,61 C349,51 367,51 367,51 C367,51 385,51 385,61 L385,87 C385,97 367,97 367,97 C367,97 349,97 349,87 L349,61 " fill="#E2E2F0" style="stroke:#181818;stroke-width:1.5;"/><path d="M349,61 C349,71 367,71 367,71 C367,71 385,71 385,61 " fill="none" style="stroke:#181818;stroke-width:1.5;"/><text fill="#000000" font-family="sans-serif" font-size="14" lengthAdjust="spacing" textLength="72" x="328" y="1117.5547">Subject DB</text><path d="M349,1130.5078 C349,1120.5078 367,1120.5078 367,1120.5078 C367,1120.5078 385,1120.5078 385,1130.5078 L385,1156.5078 C385,1166.5078 367,1166.5078 367,1166.5078 C367,1166.5078 349,1166.5078 349,1156.5078 L349,1130.5078 " fill="#E2E2F0" style="stroke:#181818;stroke-width:1.5;"/><path d="M349,1130.5078 C349,1140.5078 367,1140.5078 367,1140.5078 C367,1140.5078 385,1140.5078 385,1130.5078 " fill="none" style="stroke:#181818;stroke-width:1.5;"/><text fill="#000033" font-family="Helvetica" font-size="11" lengthAdjust="spacing" textLength="36" x="515" y="110.9585">Subject</text><ellipse cx="536" cy="50.9883" fill="#44AAFF" rx="8" ry="8" style="stroke:#2277DD;stroke-width:0.5;"/><path d="M536,58.9883 L536,85.9883 M523,66.9883 L549,66.9883 M536,85.9883 L523,100.9883 M536,85.9883 L549,100.9883 " fill="none" style="stroke:#2277DD;stroke-width:0.5;"/><text fill="#000033" font-family="Helvetica" font-size="11" lengthAdjust="spacing" textLength="36" x="515" y="1112.4897">Subject</text><ellipse cx="536" cy="1123.5195" fill="#44AAFF" rx="8" ry="8" style="stroke:#2277DD;stroke-width:0.5;"/><path d="M536,1131.5195 L536,1158.5195 M523,1139.5195 L549,1139.5195 M536,1158.5195 L523,1173.5195 M536,1158.5195 L549,1173.5195 " fill="none" style="stroke:#2277DD;stroke-width:0.5;"/><line style="stroke:#000000;stroke-width:1.0;" x1="188" x2="178" y1="140.4883" y2="136.4883"/><line style="stroke:#000000;stroke-width:1.0;" x1="188" x2="178" y1="140.4883" y2="144.4883"/><line style="stroke:#000000;stroke-width:1.0;" x1="47" x2="189" y1="140.4883" y2="140.4883"/><text fill="#333333" font-family="Helvetica" font-size="11" lengthAdjust="spacing" textLength="119" x="54" y="135.9585">Create draft tally &amp; ticket</text><path d="M50,153.4883 L50,174.4883 L329,174.4883 L329,163.4883 L319,153.4883 L50,153.4883 " fill="#E8E8EA" style="stroke:#202024;stroke-width:0.5;"/><path d="M319,153.4883 L319,163.4883 L329,163.4883 L319,153.4883 " fill="#E8E8EA" style="stroke:#202024;stroke-width:0.5;"/><text fill="#000033" font-family="Helvetica" font-size="11" lengthAdjust="spacing" textLength="258" x="56" y="166.9585">Ticket may be one-time or reusable for multiple peers</text><line style="stroke:#FF0000;stroke-width:1.0;" x1="534" x2="524" y1="196.4883" y2="192.4883"/><line style="stroke:#FF0000;stroke-width:1.0;" x1="534" x2="524" y1="196.4883" y2="200.4883"/><line style="stroke:#FF0000;stroke-width:1.0;" x1="47" x2="535" y1="196.4883" y2="196.4883"/><text fill="#333333" font-family="Helvetica" font-size="11" lengthAdjust="spacing" textLength="302" x="54" y="191.9585">Communicate ticket to subject peer via QR code (out-of-band)</text><line style="stroke:#000000;stroke-width:1.0;" x1="536" x2="578" y1="232.4883" y2="232.4883"/><line style="stroke:#000000;stroke-width:1.0;" x1="578" x2="578" y1="232.4883" y2="245.4883"/><line style="stroke:#000000;stroke-width:1.0;" x1="537" x2="578" y1="245.4883" y2="245.4883"/><line style="stroke:#000000;stroke-width:1.0;" x1="537" x2="547" y1="245.4883" y2="241.4883"/><line style="stroke:#000000;stroke-width:1.0;" x1="537" x2="547" y1="245.4883" y2="249.4883"/><text fill="#333333" font-family="Helvetica" font-size="11" lengthAdjust="spacing" textLength="82" x="543" y="216.9585">Select Certificate</text><text fill="#333333" font-family="Helvetica" font-size="11" lengthAdjust="spacing" textLength="72" x="543" y="227.9585">info to disclose</text><line style="stroke:#000000;stroke-width:1.0;" x1="368" x2="378" y1="270.4883" y2="266.4883"/><line style="stroke:#000000;stroke-width:1.0;" x1="368" x2="378" y1="270.4883" y2="274.4883"/><line style="stroke:#000000;stroke-width:1.0;" x1="367" x2="535" y1="270.4883" y2="270.4883"/><text fill="#333333" font-family="Helvetica" font-size="11" lengthAdjust="spacing" textLength="141" x="384" y="265.9585">Request to connect via ticket</text><line style="stroke:#000000;stroke-width:1.0;" x1="191" x2="201" y1="317.4883" y2="313.4883"/><line style="stroke:#000000;stroke-width:1.0;" x1="191" x2="201" y1="317.4883" y2="321.4883"/><line style="stroke:#000000;stroke-width:1.0;" x1="190" x2="366" y1="317.4883" y2="317.4883"/><text fill="#333333" font-family="Helvetica" font-size="11" lengthAdjust="spacing" textLength="147" x="207" y="290.9585">Is this a known or local agent?</text><text fill="#333333" font-family="Helvetica" font-size="11" lengthAdjust="spacing" textLength="153" x="207" y="301.9585">Connect w/ticket or known key,</text><text fill="#333333" font-family="Helvetica" font-size="11" lengthAdjust="spacing" textLength="124" x="207" y="312.9585">provide subject certificate</text><line style="stroke:#000000;stroke-width:1.0;" x1="190" x2="232" y1="342.4883" y2="342.4883"/><line style="stroke:#000000;stroke-width:1.0;" x1="232" x2="232" y1="342.4883" y2="355.4883"/><line style="stroke:#000000;stroke-width:1.0;" x1="191" x2="232" y1="355.4883" y2="355.4883"/><polygon fill="#000000" points="201,351.4883,191,355.4883,201,359.4883,197,355.4883" style="stroke:#000000;stroke-width:1.0;"/><text fill="#333333" font-family="Helvetica" font-size="11" lengthAdjust="spacing" textLength="142" x="197" y="337.9585">Construct/complete draft tally</text><line style="stroke:#000000;stroke-width:1.0;" x1="48" x2="58" y1="380.4883" y2="376.4883"/><line style="stroke:#000000;stroke-width:1.0;" x1="48" x2="58" y1="380.4883" y2="384.4883"/><line style="stroke:#000000;stroke-width:1.0;" x1="47" x2="189" y1="380.4883" y2="380.4883"/><text fill="#333333" font-family="Helvetica" font-size="11" lengthAdjust="spacing" textLength="89" x="64" y="375.9585">Present for review</text><line style="stroke:#000000;stroke-width:1.0;" x1="188" x2="178" y1="405.4883" y2="401.4883"/><line style="stroke:#000000;stroke-width:1.0;" x1="188" x2="178" y1="405.4883" y2="409.4883"/><line style="stroke:#000000;stroke-width:1.0;" x1="47" x2="189" y1="405.4883" y2="405.4883"/><text fill="#333333" font-family="Helvetica" font-size="11" lengthAdjust="spacing" textLength="71" x="54" y="400.9585">Sign/Offer tally</text><line style="stroke:#000000;stroke-width:1.0;" x1="365" x2="355" y1="430.4883" y2="426.4883"/><line style="stroke:#000000;stroke-width:1.0;" x1="365" x2="355" y1="430.4883" y2="434.4883"/><line style="stroke:#000000;stroke-width:1.0;" x1="190" x2="366" y1="430.4883" y2="430.4883"/><text fill="#333333" font-family="Helvetica" font-size="11" lengthAdjust="spacing" textLength="134" x="197" y="425.9585">Send proposed, signed tally</text><line style="stroke:#000000;stroke-width:1.0;" x1="367" x2="409" y1="466.4883" y2="466.4883"/><line style="stroke:#000000;stroke-width:1.0;" x1="409" x2="409" y1="466.4883" y2="479.4883"/><line style="stroke:#000000;stroke-width:1.0;" x1="368" x2="409" y1="479.4883" y2="479.4883"/><polygon fill="#000000" points="378,475.4883,368,479.4883,378,483.4883,374,479.4883" style="stroke:#000000;stroke-width:1.0;"/><text fill="#333333" font-family="Helvetica" font-size="11" lengthAdjust="spacing" textLength="84" x="374" y="450.9585">Store tally locally,</text><text fill="#333333" font-family="Helvetica" font-size="11" lengthAdjust="spacing" textLength="109" x="374" y="461.9585">check for local partner</text><line style="stroke:#000000;stroke-width:1.0;" x1="534" x2="524" y1="504.4883" y2="500.4883"/><line style="stroke:#000000;stroke-width:1.0;" x1="534" x2="524" y1="504.4883" y2="508.4883"/><line style="stroke:#000000;stroke-width:1.0;" x1="367" x2="535" y1="504.4883" y2="504.4883"/><text fill="#333333" font-family="Helvetica" font-size="11" lengthAdjust="spacing" textLength="111" x="374" y="499.9585">Present tally for review</text><path d="M318,519.4883 L392,519.4883 L392,526.7988 L382,536.7988 L318,536.7988 L318,519.4883 " fill="#EEEEEE" style="stroke:#000000;stroke-width:1.5;"/><rect fill="none" height="53.3105" style="stroke:#000000;stroke-width:1.5;" width="249" x="318" y="519.4883"/><text fill="#000000" font-family="sans-serif" font-size="13" font-weight="bold" lengthAdjust="spacing" textLength="29" x="333" y="533.0566">loop</text><text fill="#000000" font-family="sans-serif" font-size="11" font-weight="bold" lengthAdjust="spacing" textLength="86" x="407" y="532.123">[until satisfied]</text><line style="stroke:#000000;stroke-width:1.0;" x1="368" x2="378" y1="564.7988" y2="560.7988"/><line style="stroke:#000000;stroke-width:1.0;" x1="368" x2="378" y1="564.7988" y2="568.7988"/><line style="stroke:#000000;stroke-width:1.0;" x1="367" x2="535" y1="564.7988" y2="564.7988"/><text fill="#333333" font-family="Helvetica" font-size="11" lengthAdjust="spacing" textLength="85" x="384" y="549.269">Modify tally terms</text><text fill="#333333" font-family="Helvetica" font-size="11" lengthAdjust="spacing" textLength="145" x="384" y="560.269">(invalidates partner signature)</text><path d="M10,586.7988 L72,586.7988 L72,594.1094 L62,604.1094 L10,604.1094 L10,586.7988 " fill="#EEEEEE" style="stroke:#000000;stroke-width:1.5;"/><rect fill="none" height="470.2207" style="stroke:#000000;stroke-width:1.5;" width="557" x="10" y="586.7988"/><text fill="#000000" font-family="sans-serif" font-size="13" font-weight="bold" lengthAdjust="spacing" textLength="17" x="25" y="600.3672">alt</text><text fill="#000000" font-family="sans-serif" font-size="11" font-weight="bold" lengthAdjust="spacing" textLength="101" x="87" y="599.4336">[Terms agreeable]</text><line style="stroke:#000000;stroke-width:1.0;" x1="368" x2="378" y1="632.1094" y2="628.1094"/><line style="stroke:#000000;stroke-width:1.0;" x1="368" x2="378" y1="632.1094" y2="636.1094"/><line style="stroke:#000000;stroke-width:1.0;" x1="367" x2="535" y1="632.1094" y2="632.1094"/><text fill="#333333" font-family="Helvetica" font-size="11" lengthAdjust="spacing" textLength="79" x="384" y="616.5796">Accept/sign tally</text><text fill="#333333" font-family="Helvetica" font-size="11" lengthAdjust="spacing" textLength="103" x="384" y="627.5796">(if no changes made)</text><line style="stroke:#000000;stroke-width:1.0;" x1="191" x2="201" y1="657.1094" y2="653.1094"/><line style="stroke:#000000;stroke-width:1.0;" x1="191" x2="201" y1="657.1094" y2="661.1094"/><line style="stroke:#000000;stroke-width:1.0;" x1="190" x2="366" y1="657.1094" y2="657.1094"/><text fill="#333333" font-family="Helvetica" font-size="11" lengthAdjust="spacing" textLength="95" x="207" y="652.5796">Send accepted tally</text><line style="stroke:#000000;stroke-width:1.0;" x1="48" x2="58" y1="682.1094" y2="678.1094"/><line style="stroke:#000000;stroke-width:1.0;" x1="48" x2="58" y1="682.1094" y2="686.1094"/><line style="stroke:#000000;stroke-width:1.0;" x1="47" x2="189" y1="682.1094" y2="682.1094"/><text fill="#333333" font-family="Helvetica" font-size="11" lengthAdjust="spacing" textLength="101" x="64" y="677.5796">Store and notify user</text><line style="stroke:#000000;stroke-width:1.0;stroke-dasharray:2.0,2.0;" x1="10" x2="567" y1="691.1094" y2="691.1094"/><text fill="#000000" font-family="sans-serif" font-size="11" font-weight="bold" lengthAdjust="spacing" textLength="96" x="15" y="701.7441">[Want to counter]</text><line style="stroke:#000000;stroke-width:1.0;" x1="368" x2="378" y1="722.0645" y2="718.0645"/><line style="stroke:#000000;stroke-width:1.0;" x1="368" x2="378" y1="722.0645" y2="726.0645"/><line style="stroke:#000000;stroke-width:1.0;" x1="367" x2="535" y1="722.0645" y2="722.0645"/><text fill="#333333" font-family="Helvetica" font-size="11" lengthAdjust="spacing" textLength="130" x="384" y="717.5347">Sign modified counter-offer</text><line style="stroke:#000000;stroke-width:1.0;" x1="191" x2="201" y1="758.0645" y2="754.0645"/><line style="stroke:#000000;stroke-width:1.0;" x1="191" x2="201" y1="758.0645" y2="762.0645"/><line style="stroke:#000000;stroke-width:1.0;" x1="190" x2="366" y1="758.0645" y2="758.0645"/><text fill="#333333" font-family="Helvetica" font-size="11" lengthAdjust="spacing" textLength="106" x="207" y="742.5347">Update revision count</text><text fill="#333333" font-family="Helvetica" font-size="11" lengthAdjust="spacing" textLength="95" x="207" y="753.5347">send proposed tally</text><line style="stroke:#000000;stroke-width:1.0;" x1="48" x2="58" y1="783.0645" y2="779.0645"/><line style="stroke:#000000;stroke-width:1.0;" x1="48" x2="58" y1="783.0645" y2="787.0645"/><line style="stroke:#000000;stroke-width:1.0;" x1="47" x2="189" y1="783.0645" y2="783.0645"/><text fill="#333333" font-family="Helvetica" font-size="11" lengthAdjust="spacing" textLength="89" x="64" y="778.5347">Present for review</text><line style="stroke:#000000;stroke-width:1.0;" x1="188" x2="178" y1="808.0645" y2="804.0645"/><line style="stroke:#000000;stroke-width:1.0;" x1="188" x2="178" y1="808.0645" y2="812.0645"/><line style="stroke:#000000;stroke-width:1.0;" x1="47" x2="189" y1="808.0645" y2="808.0645"/><text fill="#333333" font-family="Helvetica" font-size="11" lengthAdjust="spacing" textLength="79" x="54" y="803.5347">Accept/sign tally</text><line style="stroke:#000000;stroke-width:1.0;" x1="190" x2="232" y1="833.0645" y2="833.0645"/><line style="stroke:#000000;stroke-width:1.0;" x1="232" x2="232" y1="833.0645" y2="846.0645"/><line style="stroke:#000000;stroke-width:1.0;" x1="191" x2="232" y1="846.0645" y2="846.0645"/><line style="stroke:#000000;stroke-width:1.0;" x1="191" x2="201" y1="846.0645" y2="842.0645"/><line style="stroke:#000000;stroke-width:1.0;" x1="191" x2="201" y1="846.0645" y2="850.0645"/><text fill="#333333" font-family="Helvetica" font-size="11" lengthAdjust="spacing" textLength="101" x="197" y="828.5347">Agent ack-signs tally</text><line style="stroke:#000000;stroke-width:1.0;" x1="365" x2="355" y1="871.0645" y2="867.0645"/><line style="stroke:#000000;stroke-width:1.0;" x1="365" x2="355" y1="871.0645" y2="875.0645"/><line style="stroke:#000000;stroke-width:1.0;" x1="190" x2="366" y1="871.0645" y2="871.0645"/><text fill="#333333" font-family="Helvetica" font-size="11" lengthAdjust="spacing" textLength="95" x="197" y="866.5347">Send accepted tally</text><line style="stroke:#000000;stroke-width:1.0;" x1="367" x2="409" y1="896.0645" y2="896.0645"/><line style="stroke:#000000;stroke-width:1.0;" x1="409" x2="409" y1="896.0645" y2="909.0645"/><line style="stroke:#000000;stroke-width:1.0;" x1="368" x2="409" y1="909.0645" y2="909.0645"/><line style="stroke:#000000;stroke-width:1.0;" x1="368" x2="378" y1="909.0645" y2="905.0645"/><line style="stroke:#000000;stroke-width:1.0;" x1="368" x2="378" y1="909.0645" y2="913.0645"/><text fill="#333333" font-family="Helvetica" font-size="11" lengthAdjust="spacing" textLength="101" x="374" y="891.5347">Agent ack-signs tally</text><line style="stroke:#000000;stroke-width:1.0;" x1="534" x2="524" y1="934.0645" y2="930.0645"/><line style="stroke:#000000;stroke-width:1.0;" x1="534" x2="524" y1="934.0645" y2="938.0645"/><line style="stroke:#000000;stroke-width:1.0;" x1="367" x2="535" y1="934.0645" y2="934.0645"/><text fill="#333333" font-family="Helvetica" font-size="11" lengthAdjust="spacing" textLength="53" x="374" y="929.5347">Notify user</text><line style="stroke:#000000;stroke-width:1.0;" x1="191" x2="201" y1="959.0645" y2="955.0645"/><line style="stroke:#000000;stroke-width:1.0;" x1="191" x2="201" y1="959.0645" y2="963.0645"/><line style="stroke:#000000;stroke-width:1.0;" x1="190" x2="366" y1="959.0645" y2="959.0645"/><text fill="#333333" font-family="Helvetica" font-size="11" lengthAdjust="spacing" textLength="140" x="207" y="954.5347">Agent sends ack-signed tally</text><line style="stroke:#000000;stroke-width:1.0;stroke-dasharray:2.0,2.0;" x1="10" x2="567" y1="968.0645" y2="968.0645"/><text fill="#000000" font-family="sans-serif" font-size="11" font-weight="bold" lengthAdjust="spacing" textLength="82" x="15" y="978.6992">[Refuse terms]</text><line style="stroke:#000000;stroke-width:1.0;" x1="368" x2="378" y1="999.0195" y2="995.0195"/><line style="stroke:#000000;stroke-width:1.0;" x1="368" x2="378" y1="999.0195" y2="1003.0195"/><line style="stroke:#000000;stroke-width:1.0;" x1="367" x2="535" y1="999.0195" y2="999.0195"/><text fill="#333333" font-family="Helvetica" font-size="11" lengthAdjust="spacing" textLength="98" x="384" y="994.4897">Request to void tally</text><line style="stroke:#000000;stroke-width:1.0;" x1="191" x2="201" y1="1024.0195" y2="1020.0195"/><line style="stroke:#000000;stroke-width:1.0;" x1="191" x2="201" y1="1024.0195" y2="1028.0195"/><line style="stroke:#000000;stroke-width:1.0;" x1="190" x2="366" y1="1024.0195" y2="1024.0195"/><text fill="#333333" font-family="Helvetica" font-size="11" lengthAdjust="spacing" textLength="109" x="207" y="1019.4897">Send refusal message</text><line style="stroke:#000000;stroke-width:1.0;" x1="48" x2="58" y1="1049.0195" y2="1045.0195"/><line style="stroke:#000000;stroke-width:1.0;" x1="48" x2="58" y1="1049.0195" y2="1053.0195"/><line style="stroke:#000000;stroke-width:1.0;" x1="47" x2="189" y1="1049.0195" y2="1049.0195"/><text fill="#333333" font-family="Helvetica" font-size="11" lengthAdjust="spacing" textLength="101" x="64" y="1044.4897">Store and notify user</text><path d="M148,1069.0195 L148,1090.0195 L408,1090.0195 L408,1079.0195 L398,1069.0195 L148,1069.0195 " fill="#E8E8EA" style="stroke:#202024;stroke-width:0.5;"/><path d="M398,1069.0195 L398,1079.0195 L408,1079.0195 L398,1069.0195 " fill="#E8E8EA" style="stroke:#202024;stroke-width:0.5;"/><text fill="#000033" font-family="Helvetica" font-size="11" lengthAdjust="spacing" textLength="220" x="163.75" y="1082.4897">Signed tally can now be used for transactions</text><text fill="#888888" font-family="sans-serif" font-size="10" lengthAdjust="spacing" textLength="150" x="240.5" y="1185.6875">Tue Oct 17 11:56:26 MDT 2023</text><!--SRC=[ZLN1ajCm33qtNo4MXjcTsT8xXp9ibmC7MDWkmu5oS1sbDNNaO3ljzE-HugIRDe7XbaJIa_JUi_F2aBPrZg1TMJfwKzMbpLv54orUVmXHhQq9MqCRKF2ah3tUP4f7v-7gmPkD8SNFLw02LDvLMQwuG0NiH-7-xfHmVzTBMTRhNwXZ5m_yol4MlGsU8baczPFfV3v9G6ydauL75H5ohue8KOQ3rn2Dtc7Co774xT5tVG6UcWYKwWXhZX5EeodvmOF7El2Y20M_bBMDfkAN2j6732a70Mlx_tZfCVyvdpT3oGpCMar6oo2fDKJN16KrWO2zKV3raVbbagzT7QUkcAuLvJUPf3KhjM1Bj5ArG1zDqM2ko53X138tGLiNyBoeuU4HVzSOciRQ4Gc4z6oPI6ddp7qC4BSciAOxSWSI3gpJoeBQ8CLtArgqE8TPknHdfDGT7czNn4Xxm_jqY-hdaRFKXHlsb78KegzrdB7BcDjprPuhKWaNVF4OU99648zxWuSH_PTcGxE7ec2E1pWdSfOYe0IOk_mM0jTWtkQVgEcbi_kmDLD3YPLrzHRrhXacqLGf7mbzdzjMmcxmXD0RtpfNGKtHM0Wgcb0Op3COYld9vQOujlKHVHbMT6rehwpXeuEXwzriecBjyQRngE1dcR8HdgI8bVI8Okgn9k-rnYhE129raXu5-npqLj66kvGgP-3sKC8vxT9EDGWd9c4eOM9IfUCZAzM16SlGyjd_hgYrApF2NqT6576X53AOg2wHZqxHfLzw-bib_3Hq1-CebQmezFN_-xGZXeEXumQy3Q1IcfmYfcWtbSmmadfkpqioBsprByoX0p_ts1ubAY49B-64T-gTz7d4WkkJ_SR4wTquUsSkvXvnYnSyFZSbXi1NpF_RXOkpmLr-s_qh09QzsK4hukA3tEwrY2rQHgyey3-57T6xo_y0]--></g></svg>