<?xml version="1.0" encoding="UTF-8" standalone="no"?><svg xmlns="http://www.w3.org/2000/svg" xmlns:xlink="http://www.w3.org/1999/xlink" contentScriptType="application/ecmascript" contentStyleType="text/css" height="658px" preserveAspectRatio="none" style="width:638px;height:658px;background:#FFFFFF;" version="1.1" viewBox="0 0 638 658" width="638px" zoomAndPan="magnify"><defs><filter height="300%" id="f1n8t3xqgttfep" width="300%" x="-1" y="-1"><feGaussianBlur result="blurOut" stdDeviation="2.0"/><feColorMatrix in="blurOut" result="blurOut2" type="matrix" values="0 0 0 0 0 0 0 0 0 0 0 0 0 0 0 0 0 0 .4 0"/><feOffset dx="4.0" dy="4.0" in="blurOut2" result="blurOut3"/><feBlend in="SourceGraphic" in2="blurOut3" mode="normal"/></filter></defs><g><text fill="#000000" font-family="sans-serif" font-size="18" lengthAdjust="spacing" textLength="256" x="191" y="29.4023">Lift Confirmation/Ratification</text><rect fill="#FFFFFF" filter="url(#f1n8t3xqgttfep)" height="91.3105" style="stroke:#000000;stroke-width:2.0;" width="321.5" x="10" y="240.6875"/><line style="stroke:#44AAFF;stroke-width:1.0;stroke-dasharray:5.0,5.0;" x1="48" x2="48" y1="102.6875" y2="574.998"/><line style="stroke:#44AAFF;stroke-width:1.0;stroke-dasharray:5.0,5.0;" x1="196" x2="196" y1="102.6875" y2="574.998"/><line style="stroke:#44AAFF;stroke-width:1.0;stroke-dasharray:5.0,5.0;" x1="372" x2="372" y1="102.6875" y2="574.998"/><line style="stroke:#44AAFF;stroke-width:1.0;stroke-dasharray:5.0,5.0;" x1="548" x2="548" y1="102.6875" y2="574.998"/><rect fill="#E8E8EA" filter="url(#f1n8t3xqgttfep)" height="25" style="stroke:#202024;stroke-width:1.5;" width="53" x="20" y="72.6875"/><text fill="#000033" font-family="Helvetica" font-size="11" lengthAdjust="spacing" textLength="39" x="27" y="88.1577">Referee</text><rect fill="#E8E8EA" filter="url(#f1n8t3xqgttfep)" height="25" style="stroke:#202024;stroke-width:1.5;" width="53" x="20" y="573.998"/><text fill="#000033" font-family="Helvetica" font-size="11" lengthAdjust="spacing" textLength="39" x="27" y="589.4683">Referee</text><text fill="#000000" font-family="sans-serif" font-size="14" lengthAdjust="spacing" textLength="93" x="147" y="99.7344">Originator DB</text><path d="M178.5,50.1992 C178.5,40.1992 196.5,40.1992 196.5,40.1992 C196.5,40.1992 214.5,40.1992 214.5,50.1992 L214.5,76.1992 C214.5,86.1992 196.5,86.1992 196.5,86.1992 C196.5,86.1992 178.5,86.1992 178.5,76.1992 L178.5,50.1992 " fill="#FEFECE" filter="url(#f1n8t3xqgttfep)" style="stroke:#000000;stroke-width:1.5;"/><path d="M178.5,50.1992 C178.5,60.1992 196.5,60.1992 196.5,60.1992 C196.5,60.1992 214.5,60.1992 214.5,50.1992 " fill="none" style="stroke:#000000;stroke-width:1.5;"/><text fill="#000000" font-family="sans-serif" font-size="14" lengthAdjust="spacing" textLength="93" x="147" y="587.5332">Originator DB</text><path d="M178.5,600.4863 C178.5,590.4863 196.5,590.4863 196.5,590.4863 C196.5,590.4863 214.5,590.4863 214.5,600.4863 L214.5,626.4863 C214.5,636.4863 196.5,636.4863 196.5,636.4863 C196.5,636.4863 178.5,636.4863 178.5,626.4863 L178.5,600.4863 " fill="#FEFECE" filter="url(#f1n8t3xqgttfep)" style="stroke:#000000;stroke-width:1.5;"/><path d="M178.5,600.4863 C178.5,610.4863 196.5,610.4863 196.5,610.4863 C196.5,610.4863 214.5,610.4863 214.5,600.4863 " fill="none" style="stroke:#000000;stroke-width:1.5;"/><rect fill="#E8E8EA" filter="url(#f1n8t3xqgttfep)" height="25" style="stroke:#202024;stroke-width:1.5;" width="107" x="319" y="68.6875"/><rect fill="#E8E8EA" filter="url(#f1n8t3xqgttfep)" height="25" style="stroke:#202024;stroke-width:1.5;" width="107" x="315" y="72.6875"/><text fill="#000033" font-family="Helvetica" font-size="11" lengthAdjust="spacing" textLength="93" x="322" y="88.1577">Intermediate nodes</text><rect fill="#E8E8EA" filter="url(#f1n8t3xqgttfep)" height="25" style="stroke:#202024;stroke-width:1.5;" width="107" x="319" y="573.998"/><rect fill="#E8E8EA" filter="url(#f1n8t3xqgttfep)" height="25" style="stroke:#202024;stroke-width:1.5;" width="107" x="315" y="577.998"/><text fill="#000033" font-family="Helvetica" font-size="11" lengthAdjust="spacing" textLength="93" x="322" y="593.4683">Intermediate nodes</text><text fill="#000000" font-family="sans-serif" font-size="14" lengthAdjust="spacing" textLength="87" x="502" y="99.7344">Terminus DB</text><path d="M530.5,50.1992 C530.5,40.1992 548.5,40.1992 548.5,40.1992 C548.5,40.1992 566.5,40.1992 566.5,50.1992 L566.5,76.1992 C566.5,86.1992 548.5,86.1992 548.5,86.1992 C548.5,86.1992 530.5,86.1992 530.5,76.1992 L530.5,50.1992 " fill="#FEFECE" filter="url(#f1n8t3xqgttfep)" style="stroke:#000000;stroke-width:1.5;"/><path d="M530.5,50.1992 C530.5,60.1992 548.5,60.1992 548.5,60.1992 C548.5,60.1992 566.5,60.1992 566.5,50.1992 " fill="none" style="stroke:#000000;stroke-width:1.5;"/><text fill="#000000" font-family="sans-serif" font-size="14" lengthAdjust="spacing" textLength="87" x="502" y="587.5332">Terminus DB</text><path d="M530.5,600.4863 C530.5,590.4863 548.5,590.4863 548.5,590.4863 C548.5,590.4863 566.5,590.4863 566.5,600.4863 L566.5,626.4863 C566.5,636.4863 548.5,636.4863 548.5,636.4863 C548.5,636.4863 530.5,636.4863 530.5,626.4863 L530.5,600.4863 " fill="#FEFECE" filter="url(#f1n8t3xqgttfep)" style="stroke:#000000;stroke-width:1.5;"/><path d="M530.5,600.4863 C530.5,610.4863 548.5,610.4863 548.5,610.4863 C548.5,610.4863 566.5,610.4863 566.5,600.4863 " fill="none" style="stroke:#000000;stroke-width:1.5;"/><line style="stroke:#000000;stroke-width:1.0;" x1="370.5" x2="360.5" y1="129.6875" y2="125.6875"/><line style="stroke:#000000;stroke-width:1.0;" x1="370.5" x2="360.5" y1="129.6875" y2="133.6875"/><line style="stroke:#000000;stroke-width:1.0;" x1="196.5" x2="371.5" y1="129.6875" y2="129.6875"/><text fill="#333333" font-family="Helvetica" font-size="11" lengthAdjust="spacing" textLength="140" x="203.5" y="125.1577">Will you participate in this lift?</text><line style="stroke:#000000;stroke-width:1.0;" x1="546.5" x2="536.5" y1="154.6875" y2="150.6875"/><line style="stroke:#000000;stroke-width:1.0;" x1="546.5" x2="536.5" y1="154.6875" y2="158.6875"/><line style="stroke:#000000;stroke-width:1.0;" x1="372.5" x2="547.5" y1="154.6875" y2="154.6875"/><text fill="#333333" font-family="Helvetica" font-size="11" lengthAdjust="spacing" textLength="140" x="379.5" y="150.1577">Will you participate in this lift?</text><path d="M464,167.6875 L464,188.6875 L629,188.6875 L629,177.6875 L619,167.6875 L464,167.6875 " fill="#E8E8EA" filter="url(#f1n8t3xqgttfep)" style="stroke:#202024;stroke-width:1.0;"/><path d="M619,167.6875 L619,177.6875 L629,177.6875 L619,167.6875 " fill="#E8E8EA" style="stroke:#202024;stroke-width:1.0;"/><text fill="#000033" font-family="Helvetica" font-size="11" lengthAdjust="spacing" textLength="144" x="470" y="181.1577">The destination is a local user</text><line style="stroke:#000000;stroke-width:1.0;" x1="196.5" x2="206.5" y1="225.6875" y2="221.6875"/><line style="stroke:#000000;stroke-width:1.0;" x1="196.5" x2="206.5" y1="225.6875" y2="229.6875"/><line style="stroke:#000000;stroke-width:1.0;" x1="196.5" x2="547.5" y1="225.6875" y2="225.6875"/><text fill="#333333" font-family="Helvetica" font-size="11" lengthAdjust="spacing" textLength="92" x="213.5" y="210.1577">Terminus reached;</text><text fill="#333333" font-family="Helvetica" font-size="11" lengthAdjust="spacing" textLength="59" x="213.5" y="221.1577">authenticate</text><path d="M10,240.6875 L72,240.6875 L72,247.6875 L62,257.6875 L10,257.6875 L10,240.6875 " fill="#EEEEEE" style="stroke:#000000;stroke-width:1.0;"/><rect fill="none" height="91.3105" style="stroke:#000000;stroke-width:2.0;" width="321.5" x="10" y="240.6875"/><text fill="#000000" font-family="sans-serif" font-size="13" font-weight="bold" lengthAdjust="spacing" textLength="17" x="25" y="254.2559">alt</text><text fill="#000000" font-family="sans-serif" font-size="11" font-weight="bold" lengthAdjust="spacing" textLength="198" x="87" y="253.3223">[Originator wants to cancel the lift]</text><line style="stroke:#000000;stroke-width:1.0;" x1="196.5" x2="238.5" y1="274.998" y2="274.998"/><line style="stroke:#000000;stroke-width:1.0;" x1="238.5" x2="238.5" y1="274.998" y2="287.998"/><line style="stroke:#000000;stroke-width:1.0;" x1="197.5" x2="238.5" y1="287.998" y2="287.998"/><line style="stroke:#000000;stroke-width:1.0;" x1="197.5" x2="207.5" y1="287.998" y2="283.998"/><line style="stroke:#000000;stroke-width:1.0;" x1="197.5" x2="207.5" y1="287.998" y2="291.998"/><text fill="#333333" font-family="Helvetica" font-size="11" lengthAdjust="spacing" textLength="116" x="203.5" y="270.4683">Wait until lift has expired</text><line style="stroke:#000000;stroke-width:1.0;" x1="48.5" x2="58.5" y1="323.998" y2="319.998"/><line style="stroke:#000000;stroke-width:1.0;" x1="48.5" x2="58.5" y1="323.998" y2="327.998"/><line style="stroke:#000000;stroke-width:1.0;" x1="48.5" x2="195.5" y1="323.998" y2="323.998"/><text fill="#333333" font-family="Helvetica" font-size="11" lengthAdjust="spacing" textLength="78" x="65.5" y="308.4683">Has lift expired?</text><text fill="#333333" font-family="Helvetica" font-size="11" lengthAdjust="spacing" textLength="89" x="65.5" y="319.4683">Get void signature</text><line style="stroke:#000000;stroke-width:1.0;" x1="48.5" x2="58.5" y1="366.998" y2="362.998"/><line style="stroke:#000000;stroke-width:1.0;" x1="48.5" x2="58.5" y1="366.998" y2="370.998"/><line style="stroke:#000000;stroke-width:1.0;" x1="48.5" x2="195.5" y1="366.998" y2="366.998"/><text fill="#333333" font-family="Helvetica" font-size="11" lengthAdjust="spacing" textLength="124" x="65.5" y="351.4683">Request to commit this lift</text><text fill="#333333" font-family="Helvetica" font-size="11" lengthAdjust="spacing" textLength="116" x="65.5" y="362.4683">Get good/void signature</text><line style="stroke:#000000;stroke-width:1.0;" x1="194.5" x2="184.5" y1="402.998" y2="398.998"/><line style="stroke:#000000;stroke-width:1.0;" x1="194.5" x2="184.5" y1="402.998" y2="406.998"/><line style="stroke:#000000;stroke-width:1.0;" x1="48.5" x2="195.5" y1="402.998" y2="402.998"/><text fill="#333333" font-family="Helvetica" font-size="11" lengthAdjust="spacing" textLength="98" x="55.5" y="387.4683">Here's my signature</text><text fill="#333333" font-family="Helvetica" font-size="11" lengthAdjust="spacing" textLength="110" x="55.5" y="398.4683">(whether good or void)</text><path d="M89,415.998 L89,480.998 L300,480.998 L300,425.998 L290,415.998 L89,415.998 " fill="#E8E8EA" filter="url(#f1n8t3xqgttfep)" style="stroke:#202024;stroke-width:1.0;"/><path d="M290,415.998 L290,425.998 L300,425.998 L290,415.998 " fill="#E8E8EA" style="stroke:#202024;stroke-width:1.0;"/><text fill="#000033" font-family="Helvetica" font-size="11" lengthAdjust="spacing" textLength="190" x="95" y="429.4683">Lift is now irrevocably good and binding</text><text fill="#000033" font-family="Helvetica" font-size="11" lengthAdjust="spacing" textLength="176" x="95" y="440.4683">or void and safely ignorable.  A good</text><text fill="#000033" font-family="Helvetica" font-size="11" lengthAdjust="spacing" textLength="159" x="95" y="451.4683">signature is a liability to any node</text><text fill="#000033" font-family="Helvetica" font-size="11" lengthAdjust="spacing" textLength="174" x="95" y="462.4683">who doesn't deploy it (because their</text><text fill="#000033" font-family="Helvetica" font-size="11" lengthAdjust="spacing" textLength="160" x="98" y="473.4683">upstream neighbor probably will).</text><line style="stroke:#000000;stroke-width:1.0;" x1="546.5" x2="536.5" y1="506.998" y2="502.998"/><line style="stroke:#000000;stroke-width:1.0;" x1="546.5" x2="536.5" y1="506.998" y2="510.998"/><line style="stroke:#000000;stroke-width:1.0;" x1="196.5" x2="547.5" y1="506.998" y2="506.998"/><text fill="#333333" font-family="Helvetica" font-size="11" lengthAdjust="spacing" textLength="152" x="203.5" y="502.4683">Here's the signature; consense</text><line style="stroke:#000000;stroke-width:1.0;" x1="372.5" x2="382.5" y1="531.998" y2="527.998"/><line style="stroke:#000000;stroke-width:1.0;" x1="372.5" x2="382.5" y1="531.998" y2="535.998"/><line style="stroke:#000000;stroke-width:1.0;" x1="372.5" x2="547.5" y1="531.998" y2="531.998"/><text fill="#333333" font-family="Helvetica" font-size="11" lengthAdjust="spacing" textLength="152" x="389.5" y="527.4683">Here's the signature; consense</text><line style="stroke:#000000;stroke-width:1.0;" x1="196.5" x2="206.5" y1="556.998" y2="552.998"/><line style="stroke:#000000;stroke-width:1.0;" x1="196.5" x2="206.5" y1="556.998" y2="560.998"/><line style="stroke:#000000;stroke-width:1.0;" x1="196.5" x2="371.5" y1="556.998" y2="556.998"/><text fill="#333333" font-family="Helvetica" font-size="11" lengthAdjust="spacing" textLength="152" x="213.5" y="552.4683">Here's the signature; consense</text><text fill="#888888" font-family="sans-serif" font-size="10" lengthAdjust="spacing" textLength="155" x="241.5" y="650.1543">Wed Mar 23 16:10:38 MDT 2022</text><!--MD5=[e39e3d7bafa52fecd0e4a62812748e3f]
@startuml
!include common.puml
$title(Lift Confirmation/Ratification)
participant "Referee" as referee
database "Originator DB" as propDB
collections "Intermediate nodes" as inter
database "Terminus DB" as termDB

propDB		->>	inter:		Will you participate in this lift?
inter		->>	termDB:		Will you participate in this lift?

note over termDB: The destination is a local user
termDB		->>	propDB:		Terminus reached;\nauthenticate

alt Originator wants to cancel the lift
  propDB	->>	propDB:		Wait until lift has expired
  propDB	->>	referee:	Has lift expired?\nGet void signature
end

propDB	->>	referee:	Request to commit this lift\nGet good/void signature

referee	->>	propDB:		Here's my signature\n(whether good or void)

note over propDB
  Lift is now irrevocably good and binding
  or void and safely ignorable.  A good
  signature is a liability to any node
  who doesn't deploy it (because their 
   upstream neighbor probably will).
end note
    
propDB	->>	termDB:		Here's the signature; consense
termDB	->>	inter:		Here's the signature; consense
inter	->>	propDB:		Here's the signature; consense

@enduml

@startuml



skinparam backgroundColor fff
skinparam stereotypeCBackgroundColor 27d






skinparam circledCharacter {
  radius 8
  fontSize 11
  fontName Helvetica
}

skinparam class {
    backgroundColor e8e8ea
  borderColor 202024
    fontColor 003
  fontName Helvetica
  fontSize 11
  stereotypeFontColor 333
  stereotypeFontSize 11
    arrowColor 000
  arrowFontName Helvetica
  arrowFontColor 333
  arrowFontSize 11

  attributeFontColor 333
  attributeFontSize 11
  attributeIconSize 11
}

skinparam actor {
    backgroundColor 4af
  borderColor 27d
    fontColor 003
  fontName Helvetica
  fontSize 11
  stereotypeFontColor 333
  stereotypeFontSize 11
}

skinparam participant {
    backgroundColor e8e8ea
  borderColor 202024
    fontColor 003
  fontName Helvetica
  fontSize 11
  stereotypeFontColor 333
  stereotypeFontSize 11
}

skinparam collections {
    backgroundColor e8e8ea
  borderColor 202024
    fontColor 003
  fontName Helvetica
  fontSize 11
  stereotypeFontColor 333
  stereotypeFontSize 11
}

skinparam SequenceBox{
    backgroundColor e0e0e0
  borderColor cccccc
    fontColor 003
  fontName Helvetica
  fontSize 11
  stereotypeFontColor 333
  stereotypeFontSize 11
}

skinparam interface {
    backgroundColor 4af
  borderColor 27d
    fontColor 003
  fontName Helvetica
  fontSize 11
  stereotypeFontColor 333
  stereotypeFontSize 11
}

skinparam component {
    backgroundColor e8e8ea
  borderColor 202024
    fontColor 003
  fontName Helvetica
  fontSize 11
  stereotypeFontColor 333
  stereotypeFontSize 11
}



skinparam queue {
    backgroundColor e8e8ea
  borderColor 202024
    fontColor 003
  fontName Helvetica
  fontSize 11
  stereotypeFontColor 333
  stereotypeFontSize 11
}


skinparam usecase {
    backgroundColor e8e8ea
  borderColor 202024
    fontColor 003
  fontName Helvetica
  fontSize 11
  stereotypeFontColor 333
  stereotypeFontSize 11
    arrowColor 000
  arrowFontName Helvetica
  arrowFontColor 333
  arrowFontSize 11
}

skinparam activity {
    backgroundColor e8e8ea
  borderColor 202024
    fontColor 003
  fontName Helvetica
  fontSize 11
  stereotypeFontColor 333
  stereotypeFontSize 11
    arrowColor 000
  arrowFontName Helvetica
  arrowFontColor 333
  arrowFontSize 11
}

skinparam sequence {
    fontColor 003
  fontName Helvetica
  fontSize 11
  stereotypeFontColor 333
  stereotypeFontSize 11
    arrowColor 000
  arrowFontName Helvetica
  arrowFontColor 333
  arrowFontSize 11

  lifeLineBorderColor 4af
  lifeLineBackgroundColor e0e0e0
}




skinparam state {
    backgroundColor e8e8ea
  borderColor 202024
    fontColor 003
  fontName Helvetica
  fontSize 11
  stereotypeFontColor 333
  stereotypeFontSize 11
    arrowColor 000
  arrowFontName Helvetica
  arrowFontColor 333
  arrowFontSize 11
  startColor 4af
  endColor 27d
}

skinparam note {
    backgroundColor e8e8ea
  borderColor 202024
    fontColor 003
  fontName Helvetica
  fontSize 11
  stereotypeFontColor 333
  stereotypeFontSize 11
}







  title Lift Confirmation/Ratification
  footer Wed Mar 23 16:10:38 MDT 2022
participant "Referee" as referee
database "Originator DB" as propDB
collections "Intermediate nodes" as inter
database "Terminus DB" as termDB

propDB		->>	inter:		Will you participate in this lift?
inter		->>	termDB:		Will you participate in this lift?

note over termDB: The destination is a local user
termDB		->>	propDB:		Terminus reached;\nauthenticate

alt Originator wants to cancel the lift
  propDB	->>	propDB:		Wait until lift has expired
  propDB	->>	referee:	Has lift expired?\nGet void signature
end

propDB	->>	referee:	Request to commit this lift\nGet good/void signature

referee	->>	propDB:		Here's my signature\n(whether good or void)

note over propDB
  Lift is now irrevocably good and binding
  or void and safely ignorable.  A good
  signature is a liability to any node
  who doesn't deploy it (because their 
   upstream neighbor probably will).
end note
    
propDB	->>	termDB:		Here's the signature; consense
termDB	->>	inter:		Here's the signature; consense
inter	->>	propDB:		Here's the signature; consense

@enduml

PlantUML version 1.2022.1(Tue Feb 01 11:19:58 MST 2022)
(GPL source distribution)
Java Runtime: OpenJDK Runtime Environment
JVM: OpenJDK 64-Bit Server VM
Default Encoding: UTF-8
Language: en
Country: US
--></g></svg>