<?xml version="1.0" encoding="UTF-8" standalone="no"?><svg xmlns="http://www.w3.org/2000/svg" xmlns:xlink="http://www.w3.org/1999/xlink" contentStyleType="text/css" height="857px" preserveAspectRatio="none" style="width:809px;height:857px;background:#FFFFFF;" version="1.1" viewBox="0 0 809 857" width="809px" zoomAndPan="magnify"><defs/><g><text fill="#000000" font-family="sans-serif" font-size="14" font-weight="bold" lengthAdjust="spacing" textLength="248" x="279.5" y="28.5352">Lift Relay and Terminus Response</text><rect fill="none" height="305.5313" style="stroke:#000000;stroke-width:1.5;" width="448.5" x="198.5" y="394.4883"/><rect fill="none" height="94.3105" style="stroke:#000000;stroke-width:1.5;" width="428.5" x="208.5" y="468.7988"/><line style="stroke:#44AAFF;stroke-width:0.5;stroke-dasharray:5.0,5.0;" x1="20" x2="20" y1="113.4883" y2="767.0195"/><line style="stroke:#44AAFF;stroke-width:0.5;stroke-dasharray:5.0,5.0;" x1="113" x2="113" y1="113.4883" y2="767.0195"/><line style="stroke:#44AAFF;stroke-width:0.5;stroke-dasharray:5.0,5.0;" x1="261.5" x2="261.5" y1="113.4883" y2="767.0195"/><line style="stroke:#44AAFF;stroke-width:0.5;stroke-dasharray:5.0,5.0;" x1="428" x2="428" y1="113.4883" y2="767.0195"/><line style="stroke:#44AAFF;stroke-width:0.5;stroke-dasharray:5.0,5.0;" x1="596" x2="596" y1="113.4883" y2="767.0195"/><line style="stroke:#44AAFF;stroke-width:0.5;stroke-dasharray:5.0,5.0;" x1="756" x2="756" y1="113.4883" y2="767.0195"/><text fill="#000033" font-family="Helvetica" font-size="11" lengthAdjust="spacing" textLength="24" x="5" y="110.9585">User</text><ellipse cx="20" cy="50.9883" fill="#44AAFF" rx="8" ry="8" style="stroke:#2277DD;stroke-width:0.5;"/><path d="M20,58.9883 L20,85.9883 M7,66.9883 L33,66.9883 M20,85.9883 L7,100.9883 M20,85.9883 L33,100.9883 " fill="none" style="stroke:#2277DD;stroke-width:0.5;"/><text fill="#000033" font-family="Helvetica" font-size="11" lengthAdjust="spacing" textLength="24" x="5" y="774.4897">User</text><ellipse cx="20" cy="785.5195" fill="#44AAFF" rx="8" ry="8" style="stroke:#2277DD;stroke-width:0.5;"/><path d="M20,793.5195 L20,820.5195 M7,801.5195 L33,801.5195 M20,820.5195 L7,835.5195 M20,820.5195 L33,835.5195 " fill="none" style="stroke:#2277DD;stroke-width:0.5;"/><text fill="#000000" font-family="sans-serif" font-size="14" lengthAdjust="spacing" textLength="131" x="45" y="110.5352">Downstream Agent</text><ellipse cx="113.5" cy="81" fill="#E2E2F0" rx="12" ry="12" style="stroke:#181818;stroke-width:0.5;"/><polygon fill="#181818" points="109.5,69,115.5,64,113.5,69,115.5,74,109.5,69" style="stroke:#181818;stroke-width:1.0;"/><text fill="#000000" font-family="sans-serif" font-size="14" lengthAdjust="spacing" textLength="131" x="45" y="779.5547">Downstream Agent</text><ellipse cx="113.5" cy="798.5078" fill="#E2E2F0" rx="12" ry="12" style="stroke:#181818;stroke-width:0.5;"/><polygon fill="#181818" points="109.5,786.5078,115.5,781.5078,113.5,786.5078,115.5,791.5078,109.5,786.5078" style="stroke:#181818;stroke-width:1.0;"/><text fill="#000000" font-family="sans-serif" font-size="14" lengthAdjust="spacing" textLength="80" x="218.5" y="110.5352">Local Agent</text><ellipse cx="261.5" cy="81" fill="#E2E2F0" rx="12" ry="12" style="stroke:#181818;stroke-width:0.5;"/><polygon fill="#181818" points="257.5,69,263.5,64,261.5,69,263.5,74,257.5,69" style="stroke:#181818;stroke-width:1.0;"/><text fill="#000000" font-family="sans-serif" font-size="14" lengthAdjust="spacing" textLength="80" x="218.5" y="779.5547">Local Agent</text><ellipse cx="261.5" cy="798.5078" fill="#E2E2F0" rx="12" ry="12" style="stroke:#181818;stroke-width:0.5;"/><polygon fill="#181818" points="257.5,786.5078,263.5,781.5078,261.5,786.5078,263.5,791.5078,257.5,786.5078" style="stroke:#181818;stroke-width:1.0;"/><text fill="#000000" font-family="sans-serif" font-size="14" lengthAdjust="spacing" textLength="81" x="385" y="110.5352">Local Model</text><path d="M410.5,61 C410.5,51 428.5,51 428.5,51 C428.5,51 446.5,51 446.5,61 L446.5,87 C446.5,97 428.5,97 428.5,97 C428.5,97 410.5,97 410.5,87 L410.5,61 " fill="#E2E2F0" style="stroke:#181818;stroke-width:1.5;"/><path d="M410.5,61 C410.5,71 428.5,71 428.5,71 C428.5,71 446.5,71 446.5,61 " fill="none" style="stroke:#181818;stroke-width:1.5;"/><text fill="#000000" font-family="sans-serif" font-size="14" lengthAdjust="spacing" textLength="81" x="385" y="779.5547">Local Model</text><path d="M410.5,792.5078 C410.5,782.5078 428.5,782.5078 428.5,782.5078 C428.5,782.5078 446.5,782.5078 446.5,792.5078 L446.5,818.5078 C446.5,828.5078 428.5,828.5078 428.5,828.5078 C428.5,828.5078 410.5,828.5078 410.5,818.5078 L410.5,792.5078 " fill="#E2E2F0" style="stroke:#181818;stroke-width:1.5;"/><path d="M410.5,792.5078 C410.5,802.5078 428.5,802.5078 428.5,802.5078 C428.5,802.5078 446.5,802.5078 446.5,792.5078 " fill="none" style="stroke:#181818;stroke-width:1.5;"/><text fill="#000000" font-family="sans-serif" font-size="14" lengthAdjust="spacing" textLength="55" x="566" y="110.5352">ChipNet</text><ellipse cx="596.5" cy="81" fill="#E2E2F0" rx="12" ry="12" style="stroke:#181818;stroke-width:0.5;"/><polygon fill="#181818" points="592.5,69,598.5,64,596.5,69,598.5,74,592.5,69" style="stroke:#181818;stroke-width:1.0;"/><text fill="#000000" font-family="sans-serif" font-size="14" lengthAdjust="spacing" textLength="55" x="566" y="779.5547">ChipNet</text><ellipse cx="596.5" cy="798.5078" fill="#E2E2F0" rx="12" ry="12" style="stroke:#181818;stroke-width:0.5;"/><polygon fill="#181818" points="592.5,786.5078,598.5,781.5078,596.5,786.5078,598.5,791.5078,592.5,786.5078" style="stroke:#181818;stroke-width:1.0;"/><rect fill="#E8E8EA" height="25" style="stroke:#202024;stroke-width:0.5;" width="89" x="714" y="83.4883"/><rect fill="#E8E8EA" height="25" style="stroke:#202024;stroke-width:0.5;" width="89" x="710" y="87.4883"/><text fill="#000033" font-family="Helvetica" font-size="11" lengthAdjust="spacing" textLength="75" x="717" y="102.9585">Upstream Sites</text><rect fill="#E8E8EA" height="25" style="stroke:#202024;stroke-width:0.5;" width="89" x="714" y="766.0195"/><rect fill="#E8E8EA" height="25" style="stroke:#202024;stroke-width:0.5;" width="89" x="710" y="770.0195"/><text fill="#000033" font-family="Helvetica" font-size="11" lengthAdjust="spacing" textLength="75" x="717" y="785.4897">Upstream Sites</text><line style="stroke:#000000;stroke-width:1.0;" x1="259.5" x2="249.5" y1="140.4883" y2="136.4883"/><line style="stroke:#000000;stroke-width:1.0;" x1="259.5" x2="249.5" y1="140.4883" y2="144.4883"/><line style="stroke:#000000;stroke-width:1.0;" x1="113.5" x2="260.5" y1="140.4883" y2="140.4883"/><text fill="#333333" font-family="Helvetica" font-size="11" lengthAdjust="spacing" textLength="124" x="120.5" y="135.9585">Routing query from below</text><line style="stroke:#000000;stroke-width:1.0;" x1="594.5" x2="584.5" y1="165.4883" y2="161.4883"/><line style="stroke:#000000;stroke-width:1.0;" x1="594.5" x2="584.5" y1="165.4883" y2="169.4883"/><line style="stroke:#000000;stroke-width:1.0;" x1="261.5" x2="595.5" y1="165.4883" y2="165.4883"/><text fill="#333333" font-family="Helvetica" font-size="11" lengthAdjust="spacing" textLength="132" x="268.5" y="160.9585">Packet handled by ChipNet</text><polygon fill="#000000" points="439.5,197.4883,429.5,201.4883,439.5,205.4883,435.5,201.4883" style="stroke:#000000;stroke-width:1.0;"/><polygon fill="#000000" points="584.5,197.4883,594.5,201.4883,584.5,205.4883,588.5,201.4883" style="stroke:#000000;stroke-width:1.0;"/><line style="stroke:#000000;stroke-width:1.0;" x1="433.5" x2="590.5" y1="201.4883" y2="201.4883"/><text fill="#333333" font-family="Helvetica" font-size="11" lengthAdjust="spacing" textLength="93" x="445.5" y="185.9585">Query local DB for:</text><text fill="#333333" font-family="Helvetica" font-size="11" lengthAdjust="spacing" textLength="125" x="445.5" y="196.9585">edge/segment candidates</text><polygon fill="#000000" points="607.5,222.4883,597.5,226.4883,607.5,230.4883,603.5,226.4883" style="stroke:#000000;stroke-width:1.0;"/><polygon fill="#000000" points="744.5,222.4883,754.5,226.4883,744.5,230.4883,748.5,226.4883" style="stroke:#000000;stroke-width:1.0;"/><line style="stroke:#000000;stroke-width:1.0;" x1="601.5" x2="750.5" y1="226.4883" y2="226.4883"/><text fill="#333333" font-family="Helvetica" font-size="11" lengthAdjust="spacing" textLength="136" x="613.5" y="221.9585">ChipNet negotiates pathway</text><line style="stroke:#000000;stroke-width:1.0;" x1="114.5" x2="124.5" y1="251.4883" y2="247.4883"/><line style="stroke:#000000;stroke-width:1.0;" x1="114.5" x2="124.5" y1="251.4883" y2="255.4883"/><line style="stroke:#000000;stroke-width:1.0;" x1="113.5" x2="595.5" y1="251.4883" y2="251.4883"/><text fill="#333333" font-family="Helvetica" font-size="11" lengthAdjust="spacing" textLength="130" x="130.5" y="246.9585">Propagate query response</text><path d="M227,264.4883 L227,296.4883 L630,296.4883 L630,274.4883 L620,264.4883 L227,264.4883 " fill="#E8E8EA" style="stroke:#202024;stroke-width:0.5;"/><path d="M620,264.4883 L620,274.4883 L630,274.4883 L620,264.4883 " fill="#E8E8EA" style="stroke:#202024;stroke-width:0.5;"/><text fill="#000033" font-family="Helvetica" font-size="11" lengthAdjust="spacing" textLength="204" x="322.25" y="277.9585">Respond with sequence above as needed</text><text fill="#000033" font-family="Helvetica" font-size="11" lengthAdjust="spacing" textLength="84" x="322.25" y="288.9585">to resolve routing</text><line style="stroke:#000000;stroke-width:1.0;" x1="259.5" x2="249.5" y1="329.4883" y2="325.4883"/><line style="stroke:#000000;stroke-width:1.0;" x1="259.5" x2="249.5" y1="329.4883" y2="333.4883"/><line style="stroke:#000000;stroke-width:1.0;" x1="113.5" x2="260.5" y1="329.4883" y2="329.4883"/><text fill="#333333" font-family="Helvetica" font-size="11" lengthAdjust="spacing" textLength="97" x="120.5" y="313.9585">Receive transaction</text><text fill="#333333" font-family="Helvetica" font-size="11" lengthAdjust="spacing" textLength="68" x="120.5" y="324.9585">record update</text><line style="stroke:#000000;stroke-width:1.0;" x1="594.5" x2="584.5" y1="354.4883" y2="350.4883"/><line style="stroke:#000000;stroke-width:1.0;" x1="594.5" x2="584.5" y1="354.4883" y2="358.4883"/><line style="stroke:#000000;stroke-width:1.0;" x1="261.5" x2="595.5" y1="354.4883" y2="354.4883"/><text fill="#333333" font-family="Helvetica" font-size="11" lengthAdjust="spacing" textLength="131" x="268.5" y="349.9585">Hand off packet to ChipNet</text><polygon fill="#000000" points="439.5,375.4883,429.5,379.4883,439.5,383.4883,435.5,379.4883" style="stroke:#000000;stroke-width:1.0;"/><polygon fill="#000000" points="584.5,375.4883,594.5,379.4883,584.5,383.4883,588.5,379.4883" style="stroke:#000000;stroke-width:1.0;"/><line style="stroke:#000000;stroke-width:1.0;" x1="433.5" x2="590.5" y1="379.4883" y2="379.4883"/><text fill="#333333" font-family="Helvetica" font-size="11" lengthAdjust="spacing" textLength="144" x="445.5" y="374.9585">Fetch transaction state, if any</text><path d="M198.5,394.4883 L260.5,394.4883 L260.5,401.7988 L250.5,411.7988 L198.5,411.7988 L198.5,394.4883 " fill="#EEEEEE" style="stroke:#000000;stroke-width:1.5;"/><rect fill="none" height="305.5313" style="stroke:#000000;stroke-width:1.5;" width="448.5" x="198.5" y="394.4883"/><text fill="#000000" font-family="sans-serif" font-size="13" font-weight="bold" lengthAdjust="spacing" textLength="17" x="213.5" y="408.0566">alt</text><text fill="#000000" font-family="sans-serif" font-size="11" font-weight="bold" lengthAdjust="spacing" textLength="112" x="275.5" y="407.123">[Next step: promise]</text><line style="stroke:#000000;stroke-width:1.0;" x1="262.5" x2="272.5" y1="428.7988" y2="424.7988"/><line style="stroke:#000000;stroke-width:1.0;" x1="262.5" x2="272.5" y1="428.7988" y2="432.7988"/><line style="stroke:#000000;stroke-width:1.0;" x1="261.5" x2="595.5" y1="428.7988" y2="428.7988"/><text fill="#333333" font-family="Helvetica" font-size="11" lengthAdjust="spacing" textLength="153" x="278.5" y="424.269">Should we proceed to promise?</text><polygon fill="#000000" points="272.5,449.7988,262.5,453.7988,272.5,457.7988,268.5,453.7988" style="stroke:#000000;stroke-width:1.0;"/><polygon fill="#000000" points="416.5,449.7988,426.5,453.7988,416.5,457.7988,420.5,453.7988" style="stroke:#000000;stroke-width:1.0;"/><line style="stroke:#000000;stroke-width:1.0;" x1="266.5" x2="422.5" y1="453.7988" y2="453.7988"/><text fill="#333333" font-family="Helvetica" font-size="11" lengthAdjust="spacing" textLength="112" x="278.5" y="449.269">Lift still OK to proceed?</text><path d="M208.5,468.7988 L270.5,468.7988 L270.5,476.1094 L260.5,486.1094 L208.5,486.1094 L208.5,468.7988 " fill="#EEEEEE" style="stroke:#000000;stroke-width:1.5;"/><rect fill="none" height="94.3105" style="stroke:#000000;stroke-width:1.5;" width="428.5" x="208.5" y="468.7988"/><text fill="#000000" font-family="sans-serif" font-size="13" font-weight="bold" lengthAdjust="spacing" textLength="17" x="223.5" y="482.3672">alt</text><text fill="#000000" font-family="sans-serif" font-size="11" font-weight="bold" lengthAdjust="spacing" textLength="93" x="285.5" y="481.4336">[Yes, promising]</text><line style="stroke:#000000;stroke-width:1.0;" x1="426.5" x2="416.5" y1="503.1094" y2="499.1094"/><line style="stroke:#000000;stroke-width:1.0;" x1="426.5" x2="416.5" y1="503.1094" y2="507.1094"/><line style="stroke:#000000;stroke-width:1.0;" x1="261.5" x2="427.5" y1="503.1094" y2="503.1094"/><text fill="#333333" font-family="Helvetica" font-size="11" lengthAdjust="spacing" textLength="143" x="268.5" y="498.5796">Build lift record and draft chits</text><line style="stroke:#000000;stroke-width:1.0;" x1="594.5" x2="584.5" y1="528.1094" y2="524.1094"/><line style="stroke:#000000;stroke-width:1.0;" x1="594.5" x2="584.5" y1="528.1094" y2="532.1094"/><line style="stroke:#000000;stroke-width:1.0;" x1="261.5" x2="595.5" y1="528.1094" y2="528.1094"/><text fill="#333333" font-family="Helvetica" font-size="11" lengthAdjust="spacing" textLength="105" x="268.5" y="523.5796">Respond affirmatively</text><line style="stroke:#000000;stroke-width:1.0;stroke-dasharray:2.0,2.0;" x1="208.5" x2="637" y1="537.1094" y2="537.1094"/><line style="stroke:#000000;stroke-width:1.0;" x1="594.5" x2="584.5" y1="555.1094" y2="551.1094"/><line style="stroke:#000000;stroke-width:1.0;" x1="594.5" x2="584.5" y1="555.1094" y2="559.1094"/><line style="stroke:#000000;stroke-width:1.0;" x1="261.5" x2="595.5" y1="555.1094" y2="555.1094"/><text fill="#333333" font-family="Helvetica" font-size="11" lengthAdjust="spacing" textLength="96" x="268.5" y="550.5796">Respond negatively</text><line style="stroke:#000000;stroke-width:1.0;stroke-dasharray:2.0,2.0;" x1="198.5" x2="647" y1="571.1094" y2="571.1094"/><text fill="#000000" font-family="sans-serif" font-size="11" font-weight="bold" lengthAdjust="spacing" textLength="109" x="203.5" y="581.7441">[Next step: commit]</text><line style="stroke:#000000;stroke-width:1.0;" x1="262.5" x2="272.5" y1="602.0645" y2="598.0645"/><line style="stroke:#000000;stroke-width:1.0;" x1="262.5" x2="272.5" y1="602.0645" y2="606.0645"/><line style="stroke:#000000;stroke-width:1.0;" x1="261.5" x2="595.5" y1="602.0645" y2="602.0645"/><text fill="#333333" font-family="Helvetica" font-size="11" lengthAdjust="spacing" textLength="74" x="278.5" y="597.5347">Time to commit</text><line style="stroke:#000000;stroke-width:1.0;" x1="426.5" x2="416.5" y1="627.0645" y2="623.0645"/><line style="stroke:#000000;stroke-width:1.0;" x1="426.5" x2="416.5" y1="627.0645" y2="631.0645"/><line style="stroke:#000000;stroke-width:1.0;" x1="261.5" x2="427.5" y1="627.0645" y2="627.0645"/><text fill="#333333" font-family="Helvetica" font-size="11" lengthAdjust="spacing" textLength="118" x="268.5" y="622.5347">Commit provisional chits</text><line style="stroke:#000000;stroke-width:1.0;stroke-dasharray:2.0,2.0;" x1="198.5" x2="647" y1="636.0645" y2="636.0645"/><text fill="#000000" font-family="sans-serif" font-size="11" font-weight="bold" lengthAdjust="spacing" textLength="147" x="203.5" y="646.6992">[Next step: abort/rollback]</text><line style="stroke:#000000;stroke-width:1.0;" x1="262.5" x2="272.5" y1="667.0195" y2="663.0195"/><line style="stroke:#000000;stroke-width:1.0;" x1="262.5" x2="272.5" y1="667.0195" y2="671.0195"/><line style="stroke:#000000;stroke-width:1.0;" x1="261.5" x2="595.5" y1="667.0195" y2="667.0195"/><text fill="#333333" font-family="Helvetica" font-size="11" lengthAdjust="spacing" textLength="39" x="278.5" y="662.4897">Abort lift</text><line style="stroke:#000000;stroke-width:1.0;" x1="426.5" x2="416.5" y1="692.0195" y2="688.0195"/><line style="stroke:#000000;stroke-width:1.0;" x1="426.5" x2="416.5" y1="692.0195" y2="696.0195"/><line style="stroke:#000000;stroke-width:1.0;" x1="261.5" x2="427.5" y1="692.0195" y2="692.0195"/><text fill="#333333" font-family="Helvetica" font-size="11" lengthAdjust="spacing" textLength="102" x="268.5" y="687.4897">Void provisional chits</text><line style="stroke:#000000;stroke-width:1.0;" x1="754.5" x2="744.5" y1="724.0195" y2="720.0195"/><line style="stroke:#000000;stroke-width:1.0;" x1="754.5" x2="744.5" y1="724.0195" y2="728.0195"/><line style="stroke:#000000;stroke-width:1.0;" x1="596.5" x2="755.5" y1="724.0195" y2="724.0195"/><text fill="#333333" font-family="Helvetica" font-size="11" lengthAdjust="spacing" textLength="127" x="603.5" y="719.4897">Propagate update records</text><line style="stroke:#000000;stroke-width:1.0;" x1="21" x2="31" y1="749.0195" y2="745.0195"/><line style="stroke:#000000;stroke-width:1.0;" x1="21" x2="31" y1="749.0195" y2="753.0195"/><line style="stroke:#000000;stroke-width:1.0;" x1="20" x2="260.5" y1="749.0195" y2="749.0195"/><text fill="#333333" font-family="Helvetica" font-size="11" lengthAdjust="spacing" textLength="53" x="37" y="744.4897">Notify user</text><text fill="#888888" font-family="sans-serif" font-size="10" lengthAdjust="spacing" textLength="151" x="328" y="847.6875">Mon Jun 03 10:25:05 MDT 2024</text><!--SRC=[XLHTZzCm47nEViLIyG1IZtklqA5hAuJ4KU0-a93knRKthOLZ1tjp9V-UjUEaEQuLKgLQpipixApjLzfAqoe4wUhQsNTDMvloDMao-EP6LmItQ4G7mYguHrzhsmRU2esp0T-MGfBpC7i8w6SW0hIyAAMpv9s1sTeTR22FeeRh7LfA46NJ-eYwSLAO2S2ZwH5AaDYAW0FaYrDe1iXwULHOxNMpmPuj-pL_D0ObQVR9_ffiuquJXjvfazPbcVqKnSNLLJ7KNXIthYLjT_2xHTz1vLqDMpJkK0wGXC_L5iKt8NyXmPvpCgXWsy5gCDB_5yNxYwI_NYwAudjIDQcjzH8gvnUF5jKEBmFkQbO7oKgQ4s2BpnIoxqMHzS7Ypf6EG6W4xG-YEnAYnTmVM_Ik4Ji6vfvydc9PMiURxWdzcFqSniwAVjeA3fhs4939LYA8BHDYa1PHeNgqvAAYCxph- -pEPuiIDUF82nj46jAZzIYTLpoNsFIPb3_5O-YgYZjDSNFD8URJENz4aljf7GZ4ydFG5H_fhYo58TZW7-9zR1RGy9mrHm93__yulzkxrd0K696IEuyMCka3iqRRKnFf6WNIni3NpvaGkP70lsZX9uPvred10KoaieCajMmrbpTHCESL4r5Uy0Oxfl2IEeOtp55KbVQr89w0wHYF9ZNyFngVimd7ghACn6buyGNHT3QxUrrZx7w4dUnmbRx6B9uu2sVvWlIDlIZ79z3J9Jy0PikduMpPwmXBaPqh-SDfTR9WR78gEjwzurNgZsiUHdX-REDZoF8RlfvLrp-DVm40]--></g></svg>