<?xml version="1.0" encoding="UTF-8" standalone="no"?><svg xmlns="http://www.w3.org/2000/svg" xmlns:xlink="http://www.w3.org/1999/xlink" contentStyleType="text/css" height="544px" preserveAspectRatio="none" style="width:674px;height:544px;background:#FFFFFF;" version="1.1" viewBox="0 0 674 544" width="674px" zoomAndPan="magnify"><defs/><g><text fill="#000000" font-family="sans-serif" font-size="14" font-weight="bold" lengthAdjust="spacing" textLength="93" x="291.5" y="28.5352">Lift Proposal</text><rect fill="none" height="104.2656" style="stroke:#000000;stroke-width:1.5;" width="267.5" x="10" y="130.4883"/><rect fill="none" height="163.2207" style="stroke:#000000;stroke-width:1.5;" width="390" x="277" y="273.7539"/><line style="stroke:#44AAFF;stroke-width:0.5;stroke-dasharray:5.0,5.0;" x1="35" x2="35" y1="113.4883" y2="453.9746"/><line style="stroke:#44AAFF;stroke-width:0.5;stroke-dasharray:5.0,5.0;" x1="96" x2="96" y1="113.4883" y2="453.9746"/><line style="stroke:#44AAFF;stroke-width:0.5;stroke-dasharray:5.0,5.0;" x1="217.5" x2="217.5" y1="113.4883" y2="453.9746"/><line style="stroke:#44AAFF;stroke-width:0.5;stroke-dasharray:5.0,5.0;" x1="382" x2="382" y1="113.4883" y2="453.9746"/><line style="stroke:#44AAFF;stroke-width:0.5;stroke-dasharray:5.0,5.0;" x1="583" x2="583" y1="113.4883" y2="453.9746"/><text fill="#000033" font-family="Helvetica" font-size="11" lengthAdjust="spacing" textLength="24" x="20" y="110.9585">User</text><ellipse cx="35" cy="50.9883" fill="#44AAFF" rx="8" ry="8" style="stroke:#2277DD;stroke-width:0.5;"/><path d="M35,58.9883 L35,85.9883 M22,66.9883 L48,66.9883 M35,85.9883 L22,100.9883 M35,85.9883 L48,100.9883 " fill="none" style="stroke:#2277DD;stroke-width:0.5;"/><text fill="#000033" font-family="Helvetica" font-size="11" lengthAdjust="spacing" textLength="24" x="20" y="461.4448">User</text><ellipse cx="35" cy="472.4746" fill="#44AAFF" rx="8" ry="8" style="stroke:#2277DD;stroke-width:0.5;"/><path d="M35,480.4746 L35,507.4746 M22,488.4746 L48,488.4746 M35,507.4746 L22,522.4746 M35,507.4746 L48,522.4746 " fill="none" style="stroke:#2277DD;stroke-width:0.5;"/><text fill="#000000" font-family="sans-serif" font-size="14" lengthAdjust="spacing" textLength="66" x="60" y="110.5352">Lift Agent</text><ellipse cx="96" cy="81" fill="#E2E2F0" rx="12" ry="12" style="stroke:#181818;stroke-width:0.5;"/><polygon fill="#181818" points="92,69,98,64,96,69,98,74,92,69" style="stroke:#181818;stroke-width:1.0;"/><text fill="#000000" font-family="sans-serif" font-size="14" lengthAdjust="spacing" textLength="66" x="60" y="466.5098">Lift Agent</text><ellipse cx="96" cy="485.4629" fill="#E2E2F0" rx="12" ry="12" style="stroke:#181818;stroke-width:0.5;"/><polygon fill="#181818" points="92,473.4629,98,468.4629,96,473.4629,98,478.4629,92,473.4629" style="stroke:#181818;stroke-width:1.0;"/><text fill="#000000" font-family="sans-serif" font-size="14" lengthAdjust="spacing" textLength="93" x="168.5" y="110.5352">Originator DB</text><path d="M200,61 C200,51 218,51 218,51 C218,51 236,51 236,61 L236,87 C236,97 218,97 218,97 C218,97 200,97 200,87 L200,61 " fill="#E2E2F0" style="stroke:#181818;stroke-width:1.5;"/><path d="M200,61 C200,71 218,71 218,71 C218,71 236,71 236,61 " fill="none" style="stroke:#181818;stroke-width:1.5;"/><text fill="#000000" font-family="sans-serif" font-size="14" lengthAdjust="spacing" textLength="93" x="168.5" y="466.5098">Originator DB</text><path d="M200,479.4629 C200,469.4629 218,469.4629 218,469.4629 C218,469.4629 236,469.4629 236,479.4629 L236,505.4629 C236,515.4629 218,515.4629 218,515.4629 C218,515.4629 200,515.4629 200,505.4629 L200,479.4629 " fill="#E2E2F0" style="stroke:#181818;stroke-width:1.5;"/><path d="M200,479.4629 C200,489.4629 218,489.4629 218,489.4629 C218,489.4629 236,489.4629 236,479.4629 " fill="none" style="stroke:#181818;stroke-width:1.5;"/><text fill="#000000" font-family="sans-serif" font-size="14" lengthAdjust="spacing" textLength="88" x="335" y="110.5352">Upstream DB</text><path d="M364,61 C364,51 382,51 382,51 C382,51 400,51 400,61 L400,87 C400,97 382,97 382,97 C382,97 364,97 364,87 L364,61 " fill="#E2E2F0" style="stroke:#181818;stroke-width:1.5;"/><path d="M364,61 C364,71 382,71 382,71 C382,71 400,71 400,61 " fill="none" style="stroke:#181818;stroke-width:1.5;"/><text fill="#000000" font-family="sans-serif" font-size="14" lengthAdjust="spacing" textLength="88" x="335" y="466.5098">Upstream DB</text><path d="M364,479.4629 C364,469.4629 382,469.4629 382,469.4629 C382,469.4629 400,469.4629 400,479.4629 L400,505.4629 C400,515.4629 382,515.4629 382,515.4629 C382,515.4629 364,515.4629 364,505.4629 L364,479.4629 " fill="#E2E2F0" style="stroke:#181818;stroke-width:1.5;"/><path d="M364,479.4629 C364,489.4629 382,489.4629 382,489.4629 C382,489.4629 400,489.4629 400,479.4629 " fill="none" style="stroke:#181818;stroke-width:1.5;"/><text fill="#000000" font-family="sans-serif" font-size="14" lengthAdjust="spacing" textLength="142" x="509" y="110.5352">Next Upstream Node</text><path d="M565,61 C565,51 583,51 583,51 C583,51 601,51 601,61 L601,87 C601,97 583,97 583,97 C583,97 565,97 565,87 L565,61 " fill="#E2E2F0" style="stroke:#181818;stroke-width:1.5;"/><path d="M565,61 C565,71 583,71 583,71 C583,71 601,71 601,61 " fill="none" style="stroke:#181818;stroke-width:1.5;"/><text fill="#000000" font-family="sans-serif" font-size="14" lengthAdjust="spacing" textLength="142" x="509" y="466.5098">Next Upstream Node</text><path d="M565,479.4629 C565,469.4629 583,469.4629 583,469.4629 C583,469.4629 601,469.4629 601,479.4629 L601,505.4629 C601,515.4629 583,515.4629 583,515.4629 C583,515.4629 565,515.4629 565,505.4629 L565,479.4629 " fill="#E2E2F0" style="stroke:#181818;stroke-width:1.5;"/><path d="M565,479.4629 C565,489.4629 583,489.4629 583,489.4629 C583,489.4629 601,489.4629 601,479.4629 " fill="none" style="stroke:#181818;stroke-width:1.5;"/><path d="M10,130.4883 L72,130.4883 L72,137.7988 L62,147.7988 L10,147.7988 L10,130.4883 " fill="#EEEEEE" style="stroke:#000000;stroke-width:1.5;"/><rect fill="none" height="104.2656" style="stroke:#000000;stroke-width:1.5;" width="267.5" x="10" y="130.4883"/><text fill="#000000" font-family="sans-serif" font-size="13" font-weight="bold" lengthAdjust="spacing" textLength="17" x="25" y="144.0566">alt</text><text fill="#000000" font-family="sans-serif" font-size="11" font-weight="bold" lengthAdjust="spacing" textLength="142" x="87" y="143.123">[User initiates lift, linear]</text><line style="stroke:#000000;stroke-width:1.0;" x1="216" x2="206" y1="164.7988" y2="160.7988"/><line style="stroke:#000000;stroke-width:1.0;" x1="216" x2="206" y1="164.7988" y2="168.7988"/><line style="stroke:#000000;stroke-width:1.0;" x1="35" x2="217" y1="164.7988" y2="164.7988"/><text fill="#333333" font-family="Helvetica" font-size="11" lengthAdjust="spacing" textLength="159" x="42" y="160.269">Request payment to named peer</text><line style="stroke:#000000;stroke-width:1.0;stroke-dasharray:2.0,2.0;" x1="10" x2="277.5" y1="173.7988" y2="173.7988"/><text fill="#000000" font-family="sans-serif" font-size="11" font-weight="bold" lengthAdjust="spacing" textLength="226" x="15" y="184.4336">[Autonomous agent initiates lift, circuit]</text><line style="stroke:#000000;stroke-width:1.0;" x1="216" x2="206" y1="226.7539" y2="222.7539"/><line style="stroke:#000000;stroke-width:1.0;" x1="216" x2="206" y1="226.7539" y2="230.7539"/><line style="stroke:#000000;stroke-width:1.0;" x1="96" x2="217" y1="226.7539" y2="226.7539"/><text fill="#333333" font-family="Helvetica" font-size="11" lengthAdjust="spacing" textLength="95" x="103" y="200.2241">Request clearing lift</text><text fill="#333333" font-family="Helvetica" font-size="11" lengthAdjust="spacing" textLength="73" x="103" y="211.2241">through named</text><text fill="#333333" font-family="Helvetica" font-size="11" lengthAdjust="spacing" textLength="77" x="103" y="222.2241">destination peer</text><line style="stroke:#000000;stroke-width:1.0;" x1="380" x2="370" y1="258.7539" y2="254.7539"/><line style="stroke:#000000;stroke-width:1.0;" x1="380" x2="370" y1="258.7539" y2="262.7539"/><line style="stroke:#000000;stroke-width:1.0;" x1="218" x2="381" y1="258.7539" y2="258.7539"/><text fill="#333333" font-family="Helvetica" font-size="11" lengthAdjust="spacing" textLength="140" x="225" y="254.2241">Will you participate in this lift?</text><path d="M277,273.7539 L339,273.7539 L339,281.0645 L329,291.0645 L277,291.0645 L277,273.7539 " fill="#EEEEEE" style="stroke:#000000;stroke-width:1.5;"/><rect fill="none" height="163.2207" style="stroke:#000000;stroke-width:1.5;" width="390" x="277" y="273.7539"/><text fill="#000000" font-family="sans-serif" font-size="13" font-weight="bold" lengthAdjust="spacing" textLength="17" x="292" y="287.3223">alt</text><text fill="#000000" font-family="sans-serif" font-size="11" font-weight="bold" lengthAdjust="spacing" textLength="150" x="354" y="286.3887">[Destination found locally]</text><path d="M287,296.0645 L287,317.0645 L477,317.0645 L477,306.0645 L467,296.0645 L287,296.0645 " fill="#E8E8EA" style="stroke:#202024;stroke-width:0.5;"/><path d="M467,296.0645 L467,306.0645 L477,306.0645 L467,296.0645 " fill="#E8E8EA" style="stroke:#202024;stroke-width:0.5;"/><text fill="#000033" font-family="Helvetica" font-size="11" lengthAdjust="spacing" textLength="169" x="293" y="309.5347">This case shown in a later diagram</text><line style="stroke:#000000;stroke-width:1.0;stroke-dasharray:2.0,2.0;" x1="277" x2="667" y1="323.0645" y2="323.0645"/><text fill="#000000" font-family="sans-serif" font-size="11" font-weight="bold" lengthAdjust="spacing" textLength="320" x="282" y="333.6992">[A possible route can be found to the named destination]</text><line style="stroke:#000000;stroke-width:1.0;" x1="581" x2="571" y1="365.0195" y2="361.0195"/><line style="stroke:#000000;stroke-width:1.0;" x1="581" x2="571" y1="365.0195" y2="369.0195"/><line style="stroke:#000000;stroke-width:1.0;" x1="382" x2="582" y1="365.0195" y2="365.0195"/><text fill="#333333" font-family="Helvetica" font-size="11" lengthAdjust="spacing" textLength="112" x="389" y="349.4897">Create/store draft chits</text><text fill="#333333" font-family="Helvetica" font-size="11" lengthAdjust="spacing" textLength="146" x="389" y="360.4897">propagate lift via chosen route</text><line style="stroke:#000000;stroke-width:1.0;stroke-dasharray:2.0,2.0;" x1="277" x2="667" y1="374.0195" y2="374.0195"/><text fill="#000000" font-family="sans-serif" font-size="11" font-weight="bold" lengthAdjust="spacing" textLength="93" x="282" y="384.6543">[No route found]</text><line style="stroke:#000000;stroke-width:1.0;stroke-dasharray:2.0,2.0;" x1="382" x2="424" y1="415.9746" y2="415.9746"/><line style="stroke:#000000;stroke-width:1.0;stroke-dasharray:2.0,2.0;" x1="424" x2="424" y1="415.9746" y2="428.9746"/><line style="stroke:#000000;stroke-width:1.0;stroke-dasharray:2.0,2.0;" x1="383" x2="424" y1="428.9746" y2="428.9746"/><polygon fill="#000000" points="393,424.9746,383,428.9746,393,432.9746,389,428.9746" style="stroke:#000000;stroke-width:1.0;"/><text fill="#333333" font-family="Helvetica" font-size="11" lengthAdjust="spacing" textLength="187" x="389" y="400.4448">Ignore, don't store; downstreamers will</text><text fill="#333333" font-family="Helvetica" font-size="11" lengthAdjust="spacing" textLength="125" x="389" y="411.4448">have to wait for lift timeout</text><text fill="#888888" font-family="sans-serif" font-size="10" lengthAdjust="spacing" textLength="142" x="267" y="534.6426">Fri Feb 10 23:38:49 MST 2023</text><!--SRC=[TLBDZjD033udJs4g943QXJj8YtRf1GaLX5XnwSMTU9EH9dQOyRJqxV7CX5A4k4H9R7z_zZFFBkI1mCay2xzUyXpwv-erqCjF_adXIvH54ePNFJgL29l7H743c23RI- -4DKg0JMs-7ucr5h6yzGCg7Z0HR3v7Fth6Wh1zg1sB0MyVhbeUbwIHSFxTaFykx-YdmgLd9mFLBhRVVO_1QgO7F7lrg9GWcA0RUp9XxA6gxRhRkxkk4R_jkg_q8rDIMF0ycrfG0SQP1bZ8dFKKZFO-gx3CabTB_n0u7rtsQWor_XyA5qo5vx4ExLcdA7cS6jsU1sifuNZXnaqyz7q3QO2vmNtt8S1PiacEwfrVJ8Wf0fryq_E-HR6z0doIp0C4SHZ2sMIos8mSBQiA2j_Ah2iHfqbENE0GWW5763oE4MSRMiC0EuNa3u70z1kCGuO3hHGMdqwqHdXbgOH_CLBMPKO-s1ALtYIx1u8XejsEcxocFHVNE1PVnGySFLf54d6ZNDUoarL1fVx3S7k9wkF8Xdq3W_0BXKhqpZvEt0w8OeAJfRdd2OzKj9_Ggy75ngj-9YFewoe0VW40]--></g></svg>