<?xml version="1.0" encoding="UTF-8" standalone="no"?><svg xmlns="http://www.w3.org/2000/svg" xmlns:xlink="http://www.w3.org/1999/xlink" contentStyleType="text/css" height="513px" preserveAspectRatio="none" style="width:596px;height:513px;background:#FFFFFF;" version="1.1" viewBox="0 0 596 513" width="596px" zoomAndPan="magnify"><defs/><g><text fill="#000000" font-family="sans-serif" font-size="14" font-weight="bold" lengthAdjust="spacing" textLength="100" x="249.75" y="28.5352">Atomic Model</text><line style="stroke:#44AAFF;stroke-width:0.5;stroke-dasharray:5.0,5.0;" x1="20" x2="20" y1="113.4883" y2="422.4883"/><line style="stroke:#44AAFF;stroke-width:0.5;stroke-dasharray:5.0,5.0;" x1="151" x2="151" y1="113.4883" y2="422.4883"/><line style="stroke:#44AAFF;stroke-width:0.5;stroke-dasharray:5.0,5.0;" x1="275.5" x2="275.5" y1="113.4883" y2="422.4883"/><line style="stroke:#44AAFF;stroke-width:0.5;stroke-dasharray:5.0,5.0;" x1="412" x2="412" y1="113.4883" y2="422.4883"/><line style="stroke:#44AAFF;stroke-width:0.5;stroke-dasharray:5.0,5.0;" x1="554.5" x2="554.5" y1="113.4883" y2="422.4883"/><text fill="#000033" font-family="Helvetica" font-size="11" lengthAdjust="spacing" textLength="24" x="5" y="110.9585">User</text><ellipse cx="20" cy="50.9883" fill="#44AAFF" rx="8" ry="8" style="stroke:#2277DD;stroke-width:0.5;"/><path d="M20,58.9883 L20,85.9883 M7,66.9883 L33,66.9883 M20,85.9883 L7,100.9883 M20,85.9883 L33,100.9883 " fill="none" style="stroke:#2277DD;stroke-width:0.5;"/><text fill="#000033" font-family="Helvetica" font-size="11" lengthAdjust="spacing" textLength="24" x="5" y="429.9585">User</text><ellipse cx="20" cy="440.9883" fill="#44AAFF" rx="8" ry="8" style="stroke:#2277DD;stroke-width:0.5;"/><path d="M20,448.9883 L20,475.9883 M7,456.9883 L33,456.9883 M20,475.9883 L7,490.9883 M20,475.9883 L33,490.9883 " fill="none" style="stroke:#2277DD;stroke-width:0.5;"/><text fill="#000000" font-family="sans-serif" font-size="14" lengthAdjust="spacing" textLength="92" x="102" y="110.5352">Control Layer</text><ellipse cx="151" cy="81" fill="#E2E2F0" rx="12" ry="12" style="stroke:#181818;stroke-width:0.5;"/><polygon fill="#181818" points="147,69,153,64,151,69,153,74,147,69" style="stroke:#181818;stroke-width:1.0;"/><text fill="#000000" font-family="sans-serif" font-size="14" lengthAdjust="spacing" textLength="92" x="102" y="435.0234">Control Layer</text><ellipse cx="151" cy="453.9766" fill="#E2E2F0" rx="12" ry="12" style="stroke:#181818;stroke-width:0.5;"/><polygon fill="#181818" points="147,441.9766,153,436.9766,151,441.9766,153,446.9766,147,441.9766" style="stroke:#181818;stroke-width:1.0;"/><text fill="#000000" font-family="sans-serif" font-size="14" lengthAdjust="spacing" textLength="53" x="246.5" y="110.5352">User DB</text><path d="M258,61 C258,51 276,51 276,51 C276,51 294,51 294,61 L294,87 C294,97 276,97 276,97 C276,97 258,97 258,87 L258,61 " fill="#E2E2F0" style="stroke:#181818;stroke-width:1.5;"/><path d="M258,61 C258,71 276,71 276,71 C276,71 294,71 294,61 " fill="none" style="stroke:#181818;stroke-width:1.5;"/><text fill="#000000" font-family="sans-serif" font-size="14" lengthAdjust="spacing" textLength="53" x="246.5" y="435.0234">User DB</text><path d="M258,447.9766 C258,437.9766 276,437.9766 276,437.9766 C276,437.9766 294,437.9766 294,447.9766 L294,473.9766 C294,483.9766 276,483.9766 276,483.9766 C276,483.9766 258,483.9766 258,473.9766 L258,447.9766 " fill="#E2E2F0" style="stroke:#181818;stroke-width:1.5;"/><path d="M258,447.9766 C258,457.9766 276,457.9766 276,457.9766 C276,457.9766 294,457.9766 294,447.9766 " fill="none" style="stroke:#181818;stroke-width:1.5;"/><text fill="#000000" font-family="sans-serif" font-size="14" lengthAdjust="spacing" textLength="76" x="371" y="110.5352">User Agent</text><ellipse cx="412" cy="81" fill="#E2E2F0" rx="12" ry="12" style="stroke:#181818;stroke-width:0.5;"/><polygon fill="#181818" points="408,69,414,64,412,69,414,74,408,69" style="stroke:#181818;stroke-width:1.0;"/><text fill="#000000" font-family="sans-serif" font-size="14" lengthAdjust="spacing" textLength="76" x="371" y="435.0234">User Agent</text><ellipse cx="412" cy="453.9766" fill="#E2E2F0" rx="12" ry="12" style="stroke:#181818;stroke-width:0.5;"/><polygon fill="#181818" points="408,441.9766,414,436.9766,412,441.9766,414,446.9766,408,441.9766" style="stroke:#181818;stroke-width:1.0;"/><text fill="#000000" font-family="sans-serif" font-size="14" lengthAdjust="spacing" textLength="75" x="514.5" y="110.5352">Peer Agent</text><ellipse cx="555" cy="81" fill="#E2E2F0" rx="12" ry="12" style="stroke:#181818;stroke-width:0.5;"/><polygon fill="#181818" points="551,69,557,64,555,69,557,74,551,69" style="stroke:#181818;stroke-width:1.0;"/><text fill="#000000" font-family="sans-serif" font-size="14" lengthAdjust="spacing" textLength="75" x="514.5" y="435.0234">Peer Agent</text><ellipse cx="555" cy="453.9766" fill="#E2E2F0" rx="12" ry="12" style="stroke:#181818;stroke-width:0.5;"/><polygon fill="#181818" points="551,441.9766,557,436.9766,555,441.9766,557,446.9766,551,441.9766" style="stroke:#181818;stroke-width:1.0;"/><line style="stroke:#000000;stroke-width:1.0;" x1="149" x2="139" y1="151.4883" y2="147.4883"/><line style="stroke:#000000;stroke-width:1.0;" x1="149" x2="139" y1="151.4883" y2="155.4883"/><line style="stroke:#000000;stroke-width:1.0;" x1="20" x2="150" y1="151.4883" y2="151.4883"/><text fill="#333333" font-family="Helvetica" font-size="11" lengthAdjust="spacing" textLength="107" x="27" y="135.9585">Request state change</text><text fill="#333333" font-family="Helvetica" font-size="11" lengthAdjust="spacing" textLength="67" x="27" y="146.9585">via JSON API</text><line style="stroke:#000000;stroke-width:1.0;" x1="274" x2="264" y1="176.4883" y2="172.4883"/><line style="stroke:#000000;stroke-width:1.0;" x1="274" x2="264" y1="176.4883" y2="180.4883"/><line style="stroke:#000000;stroke-width:1.0;" x1="151" x2="275" y1="176.4883" y2="176.4883"/><text fill="#333333" font-family="Helvetica" font-size="11" lengthAdjust="spacing" textLength="101" x="158" y="171.9585">SQL change request</text><line style="stroke:#000000;stroke-width:1.0;" x1="410" x2="400" y1="212.4883" y2="208.4883"/><line style="stroke:#000000;stroke-width:1.0;" x1="410" x2="400" y1="212.4883" y2="216.4883"/><line style="stroke:#000000;stroke-width:1.0;" x1="276" x2="411" y1="212.4883" y2="212.4883"/><text fill="#333333" font-family="Helvetica" font-size="11" lengthAdjust="spacing" textLength="90" x="283" y="196.9585">Async notify agent</text><text fill="#333333" font-family="Helvetica" font-size="11" lengthAdjust="spacing" textLength="49" x="283" y="207.9585">of request</text><line style="stroke:#000000;stroke-width:1.0;" x1="553" x2="543" y1="248.4883" y2="244.4883"/><line style="stroke:#000000;stroke-width:1.0;" x1="553" x2="543" y1="248.4883" y2="252.4883"/><line style="stroke:#000000;stroke-width:1.0;" x1="412" x2="554" y1="248.4883" y2="248.4883"/><text fill="#333333" font-family="Helvetica" font-size="11" lengthAdjust="spacing" textLength="110" x="419" y="232.9585">Send message to peer</text><text fill="#333333" font-family="Helvetica" font-size="11" lengthAdjust="spacing" textLength="97" x="419" y="243.9585">(MyCHIPs protocol)</text><line style="stroke:#000000;stroke-width:1.0;" x1="277" x2="287" y1="273.4883" y2="269.4883"/><line style="stroke:#000000;stroke-width:1.0;" x1="277" x2="287" y1="273.4883" y2="277.4883"/><line style="stroke:#000000;stroke-width:1.0;" x1="276" x2="411" y1="273.4883" y2="273.4883"/><text fill="#333333" font-family="Helvetica" font-size="11" lengthAdjust="spacing" textLength="112" x="293" y="268.9585">Complete state change</text><path d="M107,286.4883 L107,307.4883 L445,307.4883 L445,296.4883 L435,286.4883 L107,286.4883 " fill="#E8E8EA" style="stroke:#202024;stroke-width:0.5;"/><path d="M435,286.4883 L435,296.4883 L445,296.4883 L435,286.4883 " fill="#E8E8EA" style="stroke:#202024;stroke-width:0.5;"/><text fill="#000033" font-family="Helvetica" font-size="11" lengthAdjust="spacing" textLength="317" x="113" y="299.9585">This may propagate other state changes, messages, notifications</text><line style="stroke:#000000;stroke-width:1.0;" x1="413" x2="423" y1="329.4883" y2="325.4883"/><line style="stroke:#000000;stroke-width:1.0;" x1="413" x2="423" y1="329.4883" y2="333.4883"/><line style="stroke:#000000;stroke-width:1.0;" x1="412" x2="554" y1="329.4883" y2="329.4883"/><text fill="#333333" font-family="Helvetica" font-size="11" lengthAdjust="spacing" textLength="119" x="429" y="324.9585">Receive/parse message</text><line style="stroke:#000000;stroke-width:1.0;" x1="277" x2="287" y1="354.4883" y2="350.4883"/><line style="stroke:#000000;stroke-width:1.0;" x1="277" x2="287" y1="354.4883" y2="358.4883"/><line style="stroke:#000000;stroke-width:1.0;" x1="276" x2="411" y1="354.4883" y2="354.4883"/><text fill="#333333" font-family="Helvetica" font-size="11" lengthAdjust="spacing" textLength="107" x="293" y="349.9585">Request state change</text><line style="stroke:#000000;stroke-width:1.0;" x1="152" x2="162" y1="379.4883" y2="375.4883"/><line style="stroke:#000000;stroke-width:1.0;" x1="152" x2="162" y1="379.4883" y2="383.4883"/><line style="stroke:#000000;stroke-width:1.0;" x1="151" x2="275" y1="379.4883" y2="379.4883"/><text fill="#333333" font-family="Helvetica" font-size="11" lengthAdjust="spacing" textLength="79" x="168" y="374.9585">Notify of change</text><line style="stroke:#000000;stroke-width:1.0;" x1="21" x2="31" y1="404.4883" y2="400.4883"/><line style="stroke:#000000;stroke-width:1.0;" x1="21" x2="31" y1="404.4883" y2="408.4883"/><line style="stroke:#000000;stroke-width:1.0;" x1="20" x2="150" y1="404.4883" y2="404.4883"/><text fill="#333333" font-family="Helvetica" font-size="11" lengthAdjust="spacing" textLength="73" x="37" y="399.9585">UI notifies user</text><text fill="#888888" font-family="sans-serif" font-size="10" lengthAdjust="spacing" textLength="150" x="224.75" y="503.1563">Tue Oct 17 11:56:23 MDT 2023</text><!--SRC=[TP9DRy8m38RFpQ_mq0wRj8zx3qW53cC2nc3Sk6IfWKXDt3KkKl_zqZQ43sqtjtvUzttjtcchYZf7K6GCsPUoDeMuPyq5FcHCHYkOKux5ev2AgOB1nc4r0EcWzeLGPBcY0WRZKCna4_gX9NB9ybiwxAKm6KNrP7JMTxriZvPZktiw4qky8aey4QA5a-VXC0bicgpmfqR7u5YoZtQGTezRUzGItjSV2yYMqzFSJjURIPDa_JaBD5Jz2D7t8jPzCaqorrW5bbZl6f3jkwsbtPMe8w7LHQjfiaQRWq7dl0QOkXHR-p1lnc_JfGzL4PCYl-th2T7Wc4nPeCzqcKm8RmI1Zdv1WOIlWtPWPDEEBEM-XOaF7hWKkgUJ5rzrORIIhCaw8Q9fk8c-GeNwYA-bhFnHW_u_ltyTudAbyMABVfL-Xm6wlOyVjfa6anZ-lby0]--></g></svg>