<?xml version="1.0" encoding="UTF-8" standalone="no"?><svg xmlns="http://www.w3.org/2000/svg" xmlns:xlink="http://www.w3.org/1999/xlink" contentStyleType="text/css" height="399px" preserveAspectRatio="none" style="width:421px;height:399px;background:#FFFFFF;" version="1.1" viewBox="0 0 421 399" width="421px" zoomAndPan="magnify"><defs/><g><text fill="#000000" font-family="sans-serif" font-size="14" font-weight="bold" lengthAdjust="spacing" textLength="109" x="157.5" y="28.5352">Closing a Tally</text><rect fill="none" height="42.3105" style="stroke:#000000;stroke-width:1.5;" width="247.5" x="109.5" y="218.4883"/><line style="stroke:#44AAFF;stroke-width:0.5;stroke-dasharray:5.0,5.0;" x1="32" x2="32" y1="113.4883" y2="308.7988"/><line style="stroke:#44AAFF;stroke-width:0.5;stroke-dasharray:5.0,5.0;" x1="168.5" x2="168.5" y1="113.4883" y2="308.7988"/><line style="stroke:#44AAFF;stroke-width:0.5;stroke-dasharray:5.0,5.0;" x1="308" x2="308" y1="113.4883" y2="308.7988"/><line style="stroke:#44AAFF;stroke-width:0.5;stroke-dasharray:5.0,5.0;" x1="399" x2="399" y1="113.4883" y2="308.7988"/><text fill="#000033" font-family="Helvetica" font-size="11" lengthAdjust="spacing" textLength="48" x="5" y="110.9585">Originator</text><ellipse cx="32" cy="50.9883" fill="#44AAFF" rx="8" ry="8" style="stroke:#2277DD;stroke-width:0.5;"/><path d="M32,58.9883 L32,85.9883 M19,66.9883 L45,66.9883 M32,85.9883 L19,100.9883 M32,85.9883 L45,100.9883 " fill="none" style="stroke:#2277DD;stroke-width:0.5;"/><text fill="#000033" font-family="Helvetica" font-size="11" lengthAdjust="spacing" textLength="48" x="5" y="316.269">Originator</text><ellipse cx="32" cy="327.2988" fill="#44AAFF" rx="8" ry="8" style="stroke:#2277DD;stroke-width:0.5;"/><path d="M32,335.2988 L32,362.2988 M19,343.2988 L45,343.2988 M32,362.2988 L19,377.2988 M32,362.2988 L45,377.2988 " fill="none" style="stroke:#2277DD;stroke-width:0.5;"/><text fill="#000000" font-family="sans-serif" font-size="14" lengthAdjust="spacing" textLength="93" x="119.5" y="110.5352">Originator DB</text><path d="M151,61 C151,51 169,51 169,51 C169,51 187,51 187,61 L187,87 C187,97 169,97 169,97 C169,97 151,97 151,87 L151,61 " fill="#E2E2F0" style="stroke:#181818;stroke-width:1.5;"/><path d="M151,61 C151,71 169,71 169,71 C169,71 187,71 187,61 " fill="none" style="stroke:#181818;stroke-width:1.5;"/><text fill="#000000" font-family="sans-serif" font-size="14" lengthAdjust="spacing" textLength="93" x="119.5" y="321.334">Originator DB</text><path d="M151,334.2871 C151,324.2871 169,324.2871 169,324.2871 C169,324.2871 187,324.2871 187,334.2871 L187,360.2871 C187,370.2871 169,370.2871 169,370.2871 C169,370.2871 151,370.2871 151,360.2871 L151,334.2871 " fill="#E2E2F0" style="stroke:#181818;stroke-width:1.5;"/><path d="M151,334.2871 C151,344.2871 169,344.2871 169,344.2871 C169,344.2871 187,344.2871 187,334.2871 " fill="none" style="stroke:#181818;stroke-width:1.5;"/><text fill="#000000" font-family="sans-serif" font-size="14" lengthAdjust="spacing" textLength="72" x="269" y="110.5352">Subject DB</text><path d="M290,61 C290,51 308,51 308,51 C308,51 326,51 326,61 L326,87 C326,97 308,97 308,97 C308,97 290,97 290,87 L290,61 " fill="#E2E2F0" style="stroke:#181818;stroke-width:1.5;"/><path d="M290,61 C290,71 308,71 308,71 C308,71 326,71 326,61 " fill="none" style="stroke:#181818;stroke-width:1.5;"/><text fill="#000000" font-family="sans-serif" font-size="14" lengthAdjust="spacing" textLength="72" x="269" y="321.334">Subject DB</text><path d="M290,334.2871 C290,324.2871 308,324.2871 308,324.2871 C308,324.2871 326,324.2871 326,334.2871 L326,360.2871 C326,370.2871 308,370.2871 308,370.2871 C308,370.2871 290,370.2871 290,360.2871 L290,334.2871 " fill="#E2E2F0" style="stroke:#181818;stroke-width:1.5;"/><path d="M290,334.2871 C290,344.2871 308,344.2871 308,344.2871 C308,344.2871 326,344.2871 326,334.2871 " fill="none" style="stroke:#181818;stroke-width:1.5;"/><text fill="#000033" font-family="Helvetica" font-size="11" lengthAdjust="spacing" textLength="36" x="378" y="110.9585">Subject</text><ellipse cx="399" cy="50.9883" fill="#44AAFF" rx="8" ry="8" style="stroke:#2277DD;stroke-width:0.5;"/><path d="M399,58.9883 L399,85.9883 M386,66.9883 L412,66.9883 M399,85.9883 L386,100.9883 M399,85.9883 L412,100.9883 " fill="none" style="stroke:#2277DD;stroke-width:0.5;"/><text fill="#000033" font-family="Helvetica" font-size="11" lengthAdjust="spacing" textLength="36" x="378" y="316.269">Subject</text><ellipse cx="399" cy="327.2988" fill="#44AAFF" rx="8" ry="8" style="stroke:#2277DD;stroke-width:0.5;"/><path d="M399,335.2988 L399,362.2988 M386,343.2988 L412,343.2988 M399,362.2988 L386,377.2988 M399,362.2988 L412,377.2988 " fill="none" style="stroke:#2277DD;stroke-width:0.5;"/><line style="stroke:#000000;stroke-width:1.0;" x1="167" x2="157" y1="140.4883" y2="136.4883"/><line style="stroke:#000000;stroke-width:1.0;" x1="167" x2="157" y1="140.4883" y2="144.4883"/><line style="stroke:#000000;stroke-width:1.0;" x1="32" x2="168" y1="140.4883" y2="140.4883"/><text fill="#333333" font-family="Helvetica" font-size="11" lengthAdjust="spacing" textLength="113" x="39" y="135.9585">Request tally be closed</text><line style="stroke:#000000;stroke-width:1.0;" x1="306" x2="296" y1="165.4883" y2="161.4883"/><line style="stroke:#000000;stroke-width:1.0;" x1="306" x2="296" y1="165.4883" y2="169.4883"/><line style="stroke:#000000;stroke-width:1.0;" x1="169" x2="307" y1="165.4883" y2="165.4883"/><text fill="#333333" font-family="Helvetica" font-size="11" lengthAdjust="spacing" textLength="115" x="176" y="160.9585">Issue 'close' setting chit</text><line style="stroke:#000000;stroke-width:1.0;" x1="308" x2="350" y1="190.4883" y2="190.4883"/><line style="stroke:#000000;stroke-width:1.0;" x1="350" x2="350" y1="190.4883" y2="203.4883"/><line style="stroke:#000000;stroke-width:1.0;" x1="309" x2="350" y1="203.4883" y2="203.4883"/><polygon fill="#000000" points="319,199.4883,309,203.4883,319,207.4883,315,203.4883" style="stroke:#000000;stroke-width:1.0;"/><text fill="#333333" font-family="Helvetica" font-size="11" lengthAdjust="spacing" textLength="77" x="315" y="185.9585">Mark as closing</text><path d="M109.5,218.4883 L183.5,218.4883 L183.5,225.7988 L173.5,235.7988 L109.5,235.7988 L109.5,218.4883 " fill="#EEEEEE" style="stroke:#000000;stroke-width:1.5;"/><rect fill="none" height="42.3105" style="stroke:#000000;stroke-width:1.5;" width="247.5" x="109.5" y="218.4883"/><text fill="#000000" font-family="sans-serif" font-size="13" font-weight="bold" lengthAdjust="spacing" textLength="29" x="124.5" y="232.0566">loop</text><text fill="#000000" font-family="sans-serif" font-size="11" font-weight="bold" lengthAdjust="spacing" textLength="113" x="198.5" y="231.123">[until balance == 0]</text><polygon fill="#000000" points="180,248.7988,170,252.7988,180,256.7988,176,252.7988" style="stroke:#000000;stroke-width:1.0;"/><polygon fill="#000000" points="296,248.7988,306,252.7988,296,256.7988,300,252.7988" style="stroke:#000000;stroke-width:1.0;"/><line style="stroke:#000000;stroke-width:1.0;" x1="174" x2="302" y1="252.7988" y2="252.7988"/><text fill="#333333" font-family="Helvetica" font-size="11" lengthAdjust="spacing" textLength="81" x="186" y="248.269">Participate in lifts</text><path d="M62,272.7988 L62,293.7988 L414,293.7988 L414,282.7988 L404,272.7988 L62,272.7988 " fill="#E8E8EA" style="stroke:#202024;stroke-width:0.5;"/><path d="M404,272.7988 L404,282.7988 L414,282.7988 L404,272.7988 " fill="#E8E8EA" style="stroke:#202024;stroke-width:0.5;"/><text fill="#000033" font-family="Helvetica" font-size="11" lengthAdjust="spacing" textLength="331" x="68" y="286.269">Tally marked as closing automatically closes when balance hits zero</text><text fill="#888888" font-family="sans-serif" font-size="10" lengthAdjust="spacing" textLength="142" x="141" y="389.4668">Fri Feb 10 23:38:33 MST 2023</text><!--SRC=[JP3DJiCm48JFsQSOAgI218WpeZsKNZWW4F026sTf3OuTx3K8dXxdfoKts_Fjp8vFh3SkDm8JsZRugowtZaxLgfEpEnUIzJimNjcvdtDYeo5YyHZjpdekvmKueOkXeuQLQquoLx7T787jPeQyvFfTZ1xqLAv5dzmdyQWGzVFLvNfTZKOtLVKidrcIGlkzK9VjowhIq0WCx6XQsFkKic0v44iaKUqxcRrL6fc2_zCF73_wP3Ds9nT2X-pLEjJis1l1QeLhcahXTZxyn56jiHshm7eu-wQ9n3VeNOXyAE_XI-8qV75eZl63qPPmQMRnuAoXvM8ww4E7XE-z-ECsfKV2hyGm1FKHz0S0]--></g></svg>