<?xml version="1.0" encoding="UTF-8" standalone="no"?><svg xmlns="http://www.w3.org/2000/svg" xmlns:xlink="http://www.w3.org/1999/xlink" contentStyleType="text/css" height="717px" preserveAspectRatio="none" style="width:437px;height:717px;background:#FFFFFF;" version="1.1" viewBox="0 0 437 717" width="437px" zoomAndPan="magnify"><defs/><g><text fill="#000000" font-family="sans-serif" font-size="14" font-weight="bold" lengthAdjust="spacing" textLength="174" x="133" y="28.5352">Manual Route Discovery</text><rect fill="none" height="189.5313" style="stroke:#000000;stroke-width:1.5;" width="401" x="20" y="130.4883"/><rect fill="none" height="133.2207" style="stroke:#000000;stroke-width:1.5;" width="381" x="30" y="179.7988"/><rect fill="none" height="275.752" style="stroke:#000000;stroke-width:1.5;" width="421" x="10" y="334.0195"/><rect fill="none" height="244.4414" style="stroke:#000000;stroke-width:1.5;" width="401" x="20" y="358.3301"/><rect fill="none" height="213.1309" style="stroke:#000000;stroke-width:1.5;" width="381" x="30" y="382.6406"/><line style="stroke:#44AAFF;stroke-width:0.5;stroke-dasharray:5.0,5.0;" x1="55" x2="55" y1="113.4883" y2="626.7715"/><line style="stroke:#44AAFF;stroke-width:0.5;stroke-dasharray:5.0,5.0;" x1="230.5" x2="230.5" y1="113.4883" y2="626.7715"/><line style="stroke:#44AAFF;stroke-width:0.5;stroke-dasharray:5.0,5.0;" x1="362" x2="362" y1="113.4883" y2="626.7715"/><text fill="#000033" font-family="Helvetica" font-size="11" lengthAdjust="spacing" textLength="24" x="40" y="110.9585">User</text><ellipse cx="55" cy="50.9883" fill="#44AAFF" rx="8" ry="8" style="stroke:#2277DD;stroke-width:0.5;"/><path d="M55,58.9883 L55,85.9883 M42,66.9883 L68,66.9883 M55,85.9883 L42,100.9883 M55,85.9883 L68,100.9883 " fill="none" style="stroke:#2277DD;stroke-width:0.5;"/><text fill="#000033" font-family="Helvetica" font-size="11" lengthAdjust="spacing" textLength="24" x="40" y="634.2417">User</text><ellipse cx="55" cy="645.2715" fill="#44AAFF" rx="8" ry="8" style="stroke:#2277DD;stroke-width:0.5;"/><path d="M55,653.2715 L55,680.2715 M42,661.2715 L68,661.2715 M55,680.2715 L42,695.2715 M55,680.2715 L68,695.2715 " fill="none" style="stroke:#2277DD;stroke-width:0.5;"/><text fill="#000000" font-family="sans-serif" font-size="14" lengthAdjust="spacing" textLength="53" x="201.5" y="110.5352">User DB</text><path d="M213,61 C213,51 231,51 231,51 C231,51 249,51 249,61 L249,87 C249,97 231,97 231,97 C231,97 213,97 213,87 L213,61 " fill="#E2E2F0" style="stroke:#181818;stroke-width:1.5;"/><path d="M213,61 C213,71 231,71 231,71 C231,71 249,71 249,61 " fill="none" style="stroke:#181818;stroke-width:1.5;"/><text fill="#000000" font-family="sans-serif" font-size="14" lengthAdjust="spacing" textLength="53" x="201.5" y="639.3066">User DB</text><path d="M213,652.2598 C213,642.2598 231,642.2598 231,642.2598 C231,642.2598 249,642.2598 249,652.2598 L249,678.2598 C249,688.2598 231,688.2598 231,688.2598 C231,688.2598 213,688.2598 213,678.2598 L213,652.2598 " fill="#E2E2F0" style="stroke:#181818;stroke-width:1.5;"/><path d="M213,652.2598 C213,662.2598 231,662.2598 231,662.2598 C231,662.2598 249,662.2598 249,652.2598 " fill="none" style="stroke:#181818;stroke-width:1.5;"/><text fill="#000000" font-family="sans-serif" font-size="14" lengthAdjust="spacing" textLength="72" x="323" y="110.5352">Partner DB</text><path d="M344,61 C344,51 362,51 362,51 C362,51 380,51 380,61 L380,87 C380,97 362,97 362,97 C362,97 344,97 344,87 L344,61 " fill="#E2E2F0" style="stroke:#181818;stroke-width:1.5;"/><path d="M344,61 C344,71 362,71 362,71 C362,71 380,71 380,61 " fill="none" style="stroke:#181818;stroke-width:1.5;"/><text fill="#000000" font-family="sans-serif" font-size="14" lengthAdjust="spacing" textLength="72" x="323" y="639.3066">Partner DB</text><path d="M344,652.2598 C344,642.2598 362,642.2598 362,642.2598 C362,642.2598 380,642.2598 380,652.2598 L380,678.2598 C380,688.2598 362,688.2598 362,688.2598 C362,688.2598 344,688.2598 344,678.2598 L344,652.2598 " fill="#E2E2F0" style="stroke:#181818;stroke-width:1.5;"/><path d="M344,652.2598 C344,662.2598 362,662.2598 362,662.2598 C362,662.2598 380,662.2598 380,652.2598 " fill="none" style="stroke:#181818;stroke-width:1.5;"/><path d="M20,130.4883 L381,130.4883 L381,137.7988 L371,147.7988 L20,147.7988 L20,130.4883 " fill="#EEEEEE" style="stroke:#000000;stroke-width:1.5;"/><rect fill="none" height="189.5313" style="stroke:#000000;stroke-width:1.5;" width="401" x="20" y="130.4883"/><text fill="#000000" font-family="sans-serif" font-size="13" font-weight="bold" lengthAdjust="spacing" textLength="316" x="35" y="144.0566">User requests route via a specific tally/partner</text><line style="stroke:#000000;stroke-width:1.0;" x1="229" x2="219" y1="164.7988" y2="160.7988"/><line style="stroke:#000000;stroke-width:1.0;" x1="229" x2="219" y1="164.7988" y2="168.7988"/><line style="stroke:#000000;stroke-width:1.0;" x1="55" x2="230" y1="164.7988" y2="164.7988"/><text fill="#333333" font-family="Helvetica" font-size="11" lengthAdjust="spacing" textLength="152" x="62" y="160.269">Request route to specified peer</text><path d="M30,179.7988 L92,179.7988 L92,187.1094 L82,197.1094 L30,197.1094 L30,179.7988 " fill="#EEEEEE" style="stroke:#000000;stroke-width:1.5;"/><rect fill="none" height="133.2207" style="stroke:#000000;stroke-width:1.5;" width="381" x="30" y="179.7988"/><text fill="#000000" font-family="sans-serif" font-size="13" font-weight="bold" lengthAdjust="spacing" textLength="17" x="45" y="193.3672">alt</text><text fill="#000000" font-family="sans-serif" font-size="11" font-weight="bold" lengthAdjust="spacing" textLength="131" x="107" y="192.4336">[Pathway found locally]</text><line style="stroke:#000000;stroke-width:1.0;" x1="56" x2="66" y1="214.1094" y2="210.1094"/><line style="stroke:#000000;stroke-width:1.0;" x1="56" x2="66" y1="214.1094" y2="218.1094"/><line style="stroke:#000000;stroke-width:1.0;" x1="55" x2="230" y1="214.1094" y2="214.1094"/><text fill="#333333" font-family="Helvetica" font-size="11" lengthAdjust="spacing" textLength="83" x="72" y="209.5796">Notify user: good</text><line style="stroke:#000000;stroke-width:1.0;stroke-dasharray:2.0,2.0;" x1="30" x2="411" y1="223.1094" y2="223.1094"/><text fill="#000000" font-family="sans-serif" font-size="11" font-weight="bold" lengthAdjust="spacing" textLength="297" x="35" y="233.7441">[Existing route found, good, failed (none) or expired]</text><line style="stroke:#000000;stroke-width:1.0;" x1="360" x2="350" y1="254.0645" y2="250.0645"/><line style="stroke:#000000;stroke-width:1.0;" x1="360" x2="350" y1="254.0645" y2="258.0645"/><line style="stroke:#000000;stroke-width:1.0;" x1="231" x2="361" y1="254.0645" y2="254.0645"/><text fill="#333333" font-family="Helvetica" font-size="11" lengthAdjust="spacing" textLength="107" x="238" y="249.5347">Request route refresh</text><line style="stroke:#000000;stroke-width:1.0;stroke-dasharray:2.0,2.0;" x1="30" x2="411" y1="263.0645" y2="263.0645"/><text fill="#000000" font-family="sans-serif" font-size="11" font-weight="bold" lengthAdjust="spacing" textLength="93" x="35" y="273.6992">[No route found]</text><line style="stroke:#000000;stroke-width:1.0;" x1="360" x2="350" y1="305.0195" y2="301.0195"/><line style="stroke:#000000;stroke-width:1.0;" x1="360" x2="350" y1="305.0195" y2="309.0195"/><line style="stroke:#000000;stroke-width:1.0;" x1="231" x2="361" y1="305.0195" y2="305.0195"/><text fill="#333333" font-family="Helvetica" font-size="11" lengthAdjust="spacing" textLength="86" x="238" y="289.4897">Create draft route</text><text fill="#333333" font-family="Helvetica" font-size="11" lengthAdjust="spacing" textLength="80" x="238" y="300.4897">Query upstream</text><path d="M10,334.0195 L248,334.0195 L248,341.3301 L238,351.3301 L10,351.3301 L10,334.0195 " fill="#EEEEEE" style="stroke:#000000;stroke-width:1.5;"/><rect fill="none" height="275.752" style="stroke:#000000;stroke-width:1.5;" width="421" x="10" y="334.0195"/><text fill="#000000" font-family="sans-serif" font-size="13" font-weight="bold" lengthAdjust="spacing" textLength="193" x="25" y="347.5879">User requests any/all routes</text><path d="M20,358.3301 L94,358.3301 L94,365.6406 L84,375.6406 L20,375.6406 L20,358.3301 " fill="#EEEEEE" style="stroke:#000000;stroke-width:1.5;"/><rect fill="none" height="244.4414" style="stroke:#000000;stroke-width:1.5;" width="401" x="20" y="358.3301"/><text fill="#000000" font-family="sans-serif" font-size="13" font-weight="bold" lengthAdjust="spacing" textLength="29" x="35" y="371.8984">loop</text><text fill="#000000" font-family="sans-serif" font-size="11" font-weight="bold" lengthAdjust="spacing" textLength="226" x="109" y="370.9648">[Over all user's tallies with lift capacity]</text><path d="M30,382.6406 L92,382.6406 L92,389.9512 L82,399.9512 L30,399.9512 L30,382.6406 " fill="#EEEEEE" style="stroke:#000000;stroke-width:1.5;"/><rect fill="none" height="213.1309" style="stroke:#000000;stroke-width:1.5;" width="381" x="30" y="382.6406"/><text fill="#000000" font-family="sans-serif" font-size="13" font-weight="bold" lengthAdjust="spacing" textLength="17" x="45" y="396.209">alt</text><text fill="#000000" font-family="sans-serif" font-size="11" font-weight="bold" lengthAdjust="spacing" textLength="150" x="107" y="395.2754">[Destination found locally]</text><line style="stroke:#000000;stroke-width:1.0;" x1="56" x2="66" y1="416.9512" y2="412.9512"/><line style="stroke:#000000;stroke-width:1.0;" x1="56" x2="66" y1="416.9512" y2="420.9512"/><line style="stroke:#000000;stroke-width:1.0;" x1="55" x2="230" y1="416.9512" y2="416.9512"/><text fill="#333333" font-family="Helvetica" font-size="11" lengthAdjust="spacing" textLength="90" x="72" y="412.4214">Update user: good</text><line style="stroke:#000000;stroke-width:1.0;stroke-dasharray:2.0,2.0;" x1="30" x2="411" y1="425.9512" y2="425.9512"/><text fill="#000000" font-family="sans-serif" font-size="11" font-weight="bold" lengthAdjust="spacing" textLength="152" x="35" y="436.5859">[Current good route found]</text><line style="stroke:#000000;stroke-width:1.0;" x1="56" x2="66" y1="456.9063" y2="452.9063"/><line style="stroke:#000000;stroke-width:1.0;" x1="56" x2="66" y1="456.9063" y2="460.9063"/><line style="stroke:#000000;stroke-width:1.0;" x1="55" x2="230" y1="456.9063" y2="456.9063"/><text fill="#333333" font-family="Helvetica" font-size="11" lengthAdjust="spacing" textLength="90" x="72" y="452.3765">Update user: good</text><line style="stroke:#000000;stroke-width:1.0;stroke-dasharray:2.0,2.0;" x1="30" x2="411" y1="465.9063" y2="465.9063"/><text fill="#000000" font-family="sans-serif" font-size="11" font-weight="bold" lengthAdjust="spacing" textLength="195" x="35" y="476.541">[Current failed (none) route found]</text><line style="stroke:#000000;stroke-width:1.0;" x1="56" x2="66" y1="496.8613" y2="492.8613"/><line style="stroke:#000000;stroke-width:1.0;" x1="56" x2="66" y1="496.8613" y2="500.8613"/><line style="stroke:#000000;stroke-width:1.0;" x1="55" x2="230" y1="496.8613" y2="496.8613"/><text fill="#333333" font-family="Helvetica" font-size="11" lengthAdjust="spacing" textLength="90" x="72" y="492.3315">Update user: none</text><line style="stroke:#000000;stroke-width:1.0;stroke-dasharray:2.0,2.0;" x1="30" x2="411" y1="505.8613" y2="505.8613"/><text fill="#000000" font-family="sans-serif" font-size="11" font-weight="bold" lengthAdjust="spacing" textLength="246" x="35" y="516.4961">[Expired route found, good or failed (none)]</text><line style="stroke:#000000;stroke-width:1.0;" x1="360" x2="350" y1="536.8164" y2="532.8164"/><line style="stroke:#000000;stroke-width:1.0;" x1="360" x2="350" y1="536.8164" y2="540.8164"/><line style="stroke:#000000;stroke-width:1.0;" x1="231" x2="361" y1="536.8164" y2="536.8164"/><text fill="#333333" font-family="Helvetica" font-size="11" lengthAdjust="spacing" textLength="107" x="238" y="532.2866">Request route refresh</text><line style="stroke:#000000;stroke-width:1.0;stroke-dasharray:2.0,2.0;" x1="30" x2="411" y1="545.8164" y2="545.8164"/><text fill="#000000" font-family="sans-serif" font-size="11" font-weight="bold" lengthAdjust="spacing" textLength="141" x="35" y="556.4512">[No existing route found]</text><line style="stroke:#000000;stroke-width:1.0;" x1="360" x2="350" y1="587.7715" y2="583.7715"/><line style="stroke:#000000;stroke-width:1.0;" x1="360" x2="350" y1="587.7715" y2="591.7715"/><line style="stroke:#000000;stroke-width:1.0;" x1="231" x2="361" y1="587.7715" y2="587.7715"/><text fill="#333333" font-family="Helvetica" font-size="11" lengthAdjust="spacing" textLength="86" x="238" y="572.2417">Create draft route</text><text fill="#333333" font-family="Helvetica" font-size="11" lengthAdjust="spacing" textLength="80" x="238" y="583.2417">Query upstream</text><text fill="#888888" font-family="sans-serif" font-size="10" lengthAdjust="spacing" textLength="142" x="149" y="707.4395">Fri Feb 10 23:38:44 MST 2023</text><!--SRC=[bLB1JXin43tlViKqgWH8jDmvS81mR4YHkFKozSucLXsFQuy9-_STUnEIaD3ImqfUlvdtnc_U9-kDons1uTMA_TUGLwxzB5OSdNz3dz718sSXcDfa-9dYSD6Y4OumUKeK9u09iXxQ3WL_OgBn7gQthz3qTW-SOnI_muF-Advcs3aoOjadc3p8KYlcH341UvYHh3d-glMUf6qNaNE0AXFfTwOa2M8TyjaY8AH0nlRMWA1pmrKO9LkeqpJDbvkRPfphkcaUHu9Dl_2scJe8Ea2hNUW4vYZBDGxGS_OTE3Q5MJ7OlF2LL2bdBBOVAd0D2-PEwyZfu-zVR1Bh5nknodLPAowXH-jKyzopfmjGU-abs4ZTMutHiAF18_MHqdAhDEDzZNSvxYAX5dKH-mtH3_yzwuuXXoGAhWgX4fJlfEteXokrOcnEMksO0pneJg1S5z6pLFTWAS7QoXASLJ630OsLqS9Yy9IADLWISCBaxVYmP_DJwChm1pRNukh0NOwHl5JWo8kFqfqYF5pKVpENjZVCz-EcZrDHOd0WTopnZpZiH3GHT29-Vs7yK3Z6UEn20l07]--></g></svg>