<?xml version="1.0" encoding="UTF-8" standalone="no"?><svg xmlns="http://www.w3.org/2000/svg" xmlns:xlink="http://www.w3.org/1999/xlink" contentStyleType="text/css" height="719px" preserveAspectRatio="none" style="width:635px;height:719px;background:#FFFFFF;" version="1.1" viewBox="0 0 635 719" width="635px" zoomAndPan="magnify"><defs/><g><text fill="#000000" font-family="sans-serif" font-size="14" font-weight="bold" lengthAdjust="spacing" textLength="185" x="226" y="28.5352">NPF Connection Sequence</text><rect fill="none" height="429.1523" style="stroke:#000000;stroke-width:1.5;" width="619" x="9" y="190.9766"/><rect fill="none" height="67.3105" style="stroke:#000000;stroke-width:1.5;" width="458" x="22" y="215.2871"/><rect fill="none" height="111.3105" style="stroke:#000000;stroke-width:1.5;" width="599" x="19" y="336.5527"/><rect fill="none" height="111.3105" style="stroke:#000000;stroke-width:1.5;" width="599" x="19" y="501.8184"/><line style="stroke:#44AAFF;stroke-width:0.5;stroke-dasharray:5.0,5.0;" x1="62" x2="62" y1="104.9766" y2="637.1289"/><line style="stroke:#44AAFF;stroke-width:0.5;stroke-dasharray:5.0,5.0;" x1="430" x2="430" y1="104.9766" y2="637.1289"/><text fill="#000000" font-family="sans-serif" font-size="14" lengthAdjust="spacing" textLength="54" x="32" y="102.0234">Initiator</text><path d="M44,52.4883 C44,42.4883 62,42.4883 62,42.4883 C62,42.4883 80,42.4883 80,52.4883 L80,78.4883 C80,88.4883 62,88.4883 62,88.4883 C62,88.4883 44,88.4883 44,78.4883 L44,52.4883 " fill="#E2E2F0" style="stroke:#181818;stroke-width:1.5;"/><path d="M44,52.4883 C44,62.4883 62,62.4883 62,62.4883 C62,62.4883 80,62.4883 80,52.4883 " fill="none" style="stroke:#181818;stroke-width:1.5;"/><text fill="#000000" font-family="sans-serif" font-size="14" lengthAdjust="spacing" textLength="54" x="32" y="649.6641">Initiator</text><path d="M44,662.6172 C44,652.6172 62,652.6172 62,652.6172 C62,652.6172 80,652.6172 80,662.6172 L80,688.6172 C80,698.6172 62,698.6172 62,698.6172 C62,698.6172 44,698.6172 44,688.6172 L44,662.6172 " fill="#E2E2F0" style="stroke:#181818;stroke-width:1.5;"/><path d="M44,662.6172 C44,672.6172 62,672.6172 62,672.6172 C62,672.6172 80,672.6172 80,662.6172 " fill="none" style="stroke:#181818;stroke-width:1.5;"/><text fill="#000000" font-family="sans-serif" font-size="14" lengthAdjust="spacing" textLength="74" x="390" y="102.0234">Responder</text><path d="M412,52.4883 C412,42.4883 430,42.4883 430,42.4883 C430,42.4883 448,42.4883 448,52.4883 L448,78.4883 C448,88.4883 430,88.4883 430,88.4883 C430,88.4883 412,88.4883 412,78.4883 L412,52.4883 " fill="#E2E2F0" style="stroke:#181818;stroke-width:1.5;"/><path d="M412,52.4883 C412,62.4883 430,62.4883 430,62.4883 C430,62.4883 448,62.4883 448,52.4883 " fill="none" style="stroke:#181818;stroke-width:1.5;"/><text fill="#000000" font-family="sans-serif" font-size="14" lengthAdjust="spacing" textLength="74" x="390" y="649.6641">Responder</text><path d="M412,662.6172 C412,652.6172 430,652.6172 430,652.6172 C430,652.6172 448,652.6172 448,662.6172 L448,688.6172 C448,698.6172 430,698.6172 430,698.6172 C430,698.6172 412,698.6172 412,688.6172 L412,662.6172 " fill="#E2E2F0" style="stroke:#181818;stroke-width:1.5;"/><path d="M412,662.6172 C412,672.6172 430,672.6172 430,672.6172 C430,672.6172 448,672.6172 448,662.6172 " fill="none" style="stroke:#181818;stroke-width:1.5;"/><path d="M29,119.9766 L29,140.9766 L462,140.9766 L462,129.9766 L452,119.9766 L29,119.9766 " fill="#E8E8EA" style="stroke:#202024;stroke-width:0.5;"/><path d="M452,119.9766 L452,129.9766 L462,129.9766 L452,119.9766 " fill="#E8E8EA" style="stroke:#202024;stroke-width:0.5;"/><text fill="#000033" font-family="Helvetica" font-size="11" lengthAdjust="spacing" textLength="202" x="140" y="133.4468">Both nodes create listening server socket</text><line style="stroke:#000000;stroke-width:1.0;" x1="62" x2="104" y1="162.9766" y2="162.9766"/><line style="stroke:#000000;stroke-width:1.0;" x1="104" x2="104" y1="162.9766" y2="175.9766"/><line style="stroke:#000000;stroke-width:1.0;" x1="63" x2="104" y1="175.9766" y2="175.9766"/><line style="stroke:#000000;stroke-width:1.0;" x1="63" x2="73" y1="175.9766" y2="171.9766"/><line style="stroke:#000000;stroke-width:1.0;" x1="63" x2="73" y1="175.9766" y2="179.9766"/><text fill="#333333" font-family="Helvetica" font-size="11" lengthAdjust="spacing" textLength="143" x="69" y="158.4468">Get a packet to communicate</text><path d="M9,190.9766 L71,190.9766 L71,198.2871 L61,208.2871 L9,208.2871 L9,190.9766 " fill="#EEEEEE" style="stroke:#000000;stroke-width:1.5;"/><rect fill="none" height="429.1523" style="stroke:#000000;stroke-width:1.5;" width="619" x="9" y="190.9766"/><text fill="#000000" font-family="sans-serif" font-size="13" font-weight="bold" lengthAdjust="spacing" textLength="17" x="24" y="204.5449">alt</text><text fill="#000000" font-family="sans-serif" font-size="11" font-weight="bold" lengthAdjust="spacing" textLength="186" x="86" y="203.6113">[We already have a channel open]</text><path d="M22,215.2871 L96,215.2871 L96,222.5977 L86,232.5977 L22,232.5977 L22,215.2871 " fill="#EEEEEE" style="stroke:#000000;stroke-width:1.5;"/><rect fill="none" height="67.3105" style="stroke:#000000;stroke-width:1.5;" width="458" x="22" y="215.2871"/><text fill="#000000" font-family="sans-serif" font-size="13" font-weight="bold" lengthAdjust="spacing" textLength="29" x="37" y="228.8555">loop</text><text fill="#000000" font-family="sans-serif" font-size="11" font-weight="bold" lengthAdjust="spacing" textLength="171" x="111" y="227.9219">[As long as channel still open]</text><line style="stroke:#000000;stroke-width:1.0;" x1="428" x2="418" y1="249.5977" y2="245.5977"/><line style="stroke:#000000;stroke-width:1.0;" x1="428" x2="418" y1="249.5977" y2="253.5977"/><line style="stroke:#000000;stroke-width:1.0;" x1="62" x2="429" y1="249.5977" y2="249.5977"/><text fill="#333333" font-family="Helvetica" font-size="11" lengthAdjust="spacing" textLength="223" x="69" y="245.0679">Send/respond any upper level protocol packet</text><line style="stroke:#000000;stroke-width:1.0;" x1="63" x2="73" y1="274.5977" y2="270.5977"/><line style="stroke:#000000;stroke-width:1.0;" x1="63" x2="73" y1="274.5977" y2="278.5977"/><line style="stroke:#000000;stroke-width:1.0;" x1="62" x2="429" y1="274.5977" y2="274.5977"/><text fill="#333333" font-family="Helvetica" font-size="11" lengthAdjust="spacing" textLength="223" x="79" y="270.0679">Send/respond any upper level protocol packet</text><line style="stroke:#000000;stroke-width:1.0;stroke-dasharray:2.0,2.0;" x1="9" x2="628" y1="290.5977" y2="290.5977"/><text fill="#000000" font-family="sans-serif" font-size="11" font-weight="bold" lengthAdjust="spacing" textLength="149" x="14" y="301.2324">[Initiator has a tally ticket]</text><line style="stroke:#000000;stroke-width:1.0;" x1="428" x2="418" y1="321.5527" y2="317.5527"/><line style="stroke:#000000;stroke-width:1.0;" x1="428" x2="418" y1="321.5527" y2="325.5527"/><line style="stroke:#000000;stroke-width:1.0;" x1="62" x2="429" y1="321.5527" y2="321.5527"/><text fill="#333333" font-family="Helvetica" font-size="11" lengthAdjust="spacing" textLength="238" x="69" y="317.0229">Use IK; Give ID; Payload: ticket; Noise: e,es,s,ss</text><path d="M19,336.5527 L81,336.5527 L81,343.8633 L71,353.8633 L19,353.8633 L19,336.5527 " fill="#EEEEEE" style="stroke:#000000;stroke-width:1.5;"/><rect fill="none" height="111.3105" style="stroke:#000000;stroke-width:1.5;" width="599" x="19" y="336.5527"/><text fill="#000000" font-family="sans-serif" font-size="13" font-weight="bold" lengthAdjust="spacing" textLength="17" x="34" y="350.1211">alt</text><text fill="#000000" font-family="sans-serif" font-size="11" font-weight="bold" lengthAdjust="spacing" textLength="107" x="96" y="349.1875">[Ticket checks out]</text><line style="stroke:#000000;stroke-width:1.0;" x1="63" x2="73" y1="370.8633" y2="366.8633"/><line style="stroke:#000000;stroke-width:1.0;" x1="63" x2="73" y1="370.8633" y2="374.8633"/><line style="stroke:#000000;stroke-width:1.0;" x1="62" x2="429" y1="370.8633" y2="370.8633"/><text fill="#333333" font-family="Helvetica" font-size="11" lengthAdjust="spacing" textLength="189" x="79" y="366.3335">Payload: proposed tally; Noise: e,ee,se</text><path d="M29,383.8633 L29,404.8633 L462,404.8633 L462,393.8633 L452,383.8633 L29,383.8633 " fill="#E8E8EA" style="stroke:#202024;stroke-width:0.5;"/><path d="M452,383.8633 L452,393.8633 L462,393.8633 L452,383.8633 " fill="#E8E8EA" style="stroke:#202024;stroke-width:0.5;"/><text fill="#000033" font-family="Helvetica" font-size="11" lengthAdjust="spacing" textLength="227" x="127.5" y="397.3335">Channel is open for further packets of any kind</text><line style="stroke:#000000;stroke-width:1.0;" x1="430" x2="472" y1="426.8633" y2="426.8633"/><line style="stroke:#000000;stroke-width:1.0;" x1="472" x2="472" y1="426.8633" y2="439.8633"/><line style="stroke:#000000;stroke-width:1.0;" x1="431" x2="472" y1="439.8633" y2="439.8633"/><line style="stroke:#000000;stroke-width:1.0;" x1="431" x2="441" y1="439.8633" y2="435.8633"/><line style="stroke:#000000;stroke-width:1.0;" x1="431" x2="441" y1="439.8633" y2="443.8633"/><text fill="#333333" font-family="Helvetica" font-size="11" lengthAdjust="spacing" textLength="169" x="437" y="422.3335">Close channel after timeout occurs</text><line style="stroke:#000000;stroke-width:1.0;stroke-dasharray:2.0,2.0;" x1="9" x2="628" y1="455.8633" y2="455.8633"/><text fill="#000000" font-family="sans-serif" font-size="11" font-weight="bold" lengthAdjust="spacing" textLength="248" x="14" y="466.498">[Packet should relate to an established tally]</text><line style="stroke:#000000;stroke-width:1.0;" x1="428" x2="418" y1="486.8184" y2="482.8184"/><line style="stroke:#000000;stroke-width:1.0;" x1="428" x2="418" y1="486.8184" y2="490.8184"/><line style="stroke:#000000;stroke-width:1.0;" x1="62" x2="429" y1="486.8184" y2="486.8184"/><text fill="#333333" font-family="Helvetica" font-size="11" lengthAdjust="spacing" textLength="344" x="69" y="482.2886">Use N to give ID; Use KK; Payload: optional transaction; Noise: e,es,ss</text><path d="M19,501.8184 L81,501.8184 L81,509.1289 L71,519.1289 L19,519.1289 L19,501.8184 " fill="#EEEEEE" style="stroke:#000000;stroke-width:1.5;"/><rect fill="none" height="111.3105" style="stroke:#000000;stroke-width:1.5;" width="599" x="19" y="501.8184"/><text fill="#000000" font-family="sans-serif" font-size="13" font-weight="bold" lengthAdjust="spacing" textLength="17" x="34" y="515.3867">alt</text><text fill="#000000" font-family="sans-serif" font-size="11" font-weight="bold" lengthAdjust="spacing" textLength="128" x="96" y="514.4531">[Tally is current, open]</text><line style="stroke:#000000;stroke-width:1.0;" x1="63" x2="73" y1="536.1289" y2="532.1289"/><line style="stroke:#000000;stroke-width:1.0;" x1="63" x2="73" y1="536.1289" y2="540.1289"/><line style="stroke:#000000;stroke-width:1.0;" x1="62" x2="429" y1="536.1289" y2="536.1289"/><text fill="#333333" font-family="Helvetica" font-size="11" lengthAdjust="spacing" textLength="134" x="79" y="531.5991">Payload: null; Noise:e,ee,se</text><path d="M29,549.1289 L29,570.1289 L462,570.1289 L462,559.1289 L452,549.1289 L29,549.1289 " fill="#E8E8EA" style="stroke:#202024;stroke-width:0.5;"/><path d="M452,549.1289 L452,559.1289 L462,559.1289 L452,549.1289 " fill="#E8E8EA" style="stroke:#202024;stroke-width:0.5;"/><text fill="#000033" font-family="Helvetica" font-size="11" lengthAdjust="spacing" textLength="227" x="127.5" y="562.5991">Channel is open for further packets of any kind</text><line style="stroke:#000000;stroke-width:1.0;" x1="430" x2="472" y1="592.1289" y2="592.1289"/><line style="stroke:#000000;stroke-width:1.0;" x1="472" x2="472" y1="592.1289" y2="605.1289"/><line style="stroke:#000000;stroke-width:1.0;" x1="431" x2="472" y1="605.1289" y2="605.1289"/><line style="stroke:#000000;stroke-width:1.0;" x1="431" x2="441" y1="605.1289" y2="601.1289"/><line style="stroke:#000000;stroke-width:1.0;" x1="431" x2="441" y1="605.1289" y2="609.1289"/><text fill="#333333" font-family="Helvetica" font-size="11" lengthAdjust="spacing" textLength="169" x="437" y="587.5991">Close channel after timeout occurs</text><text fill="#888888" font-family="sans-serif" font-size="10" lengthAdjust="spacing" textLength="142" x="247.5" y="709.2852">Fri Feb 10 23:39:05 MST 2023</text><!--SRC=[rLDDYzj033t7lq9TUcZ1RUy9BBGfNPP02DsMdjMniXuoaLnB3kJVL-FONk-s47fi0Z7AIC_lG_CgSaXTHH3aU1H-ttJ7LBosQ8dUR7TVO2tC52mAmmFzweW3lIqgDFo9Id1ppz4YchGtW0fnh6OTNqaRuOek7UrO5GMB4SY9sgUnSdOEy4ci1fQA549BwDqfgX57VWIbDa-gX0DPGLn1XYkA2GhUtTukfcgvk2C3X0PpFvZqSZkE0VCK9eCV19ZyDTKPQZnv0Q56rvv06cAdaqGQ-AZ-zFUxbF5OBQQf2U0vWqdFSl7WB3yCDI2VeMiQbv3ev21DAoP1qi2mHvfcNshvHwJiJYPV59GyaIaorwakqp2bCrWSkf_nXnd_xtbsiuAxwExSVrx13iz9i5eEiolOIbHQ0fMafN_LqRApt_fZzul2GK6wlwY3cRe9rfKqebHT6CxXgLJgGQxkKFwiXw2YzYd1thNjkzPg7xkOv0VxtiX3vAgVcZRgJwepIzR9-KsBW7lp5ej7SeqW8NIjNkmVdDzTjazhwLBbE2dljEyYCf3wVV7rhaUvrvBOvi77COhypsOpYqIQV6KnWRN8Ylq5VX7G54-VlvlZV5jYAvzs-Nf6tAKqulwVmVZFRm00]--></g></svg>