<?xml version="1.0" encoding="UTF-8" standalone="no"?><svg xmlns="http://www.w3.org/2000/svg" xmlns:xlink="http://www.w3.org/1999/xlink" contentScriptType="application/ecmascript" contentStyleType="text/css" height="425px" preserveAspectRatio="none" style="width:445px;height:425px;background:#FFFFFF;" version="1.1" viewBox="0 0 445 425" width="445px" zoomAndPan="magnify"><defs><filter height="300%" id="flrkcyicfijrf" width="300%" x="-1" y="-1"><feGaussianBlur result="blurOut" stdDeviation="2.0"/><feColorMatrix in="blurOut" result="blurOut2" type="matrix" values="0 0 0 0 0 0 0 0 0 0 0 0 0 0 0 0 0 0 .4 0"/><feOffset dx="4.0" dy="4.0" in="blurOut2" result="blurOut3"/><feBlend in="SourceGraphic" in2="blurOut3" mode="normal"/></filter></defs><g><text fill="#000000" font-family="sans-serif" font-size="18" lengthAdjust="spacing" textLength="263" x="93.25" y="29.4023">Chit Direct Payment or Setting</text><rect fill="#FFFFFF" filter="url(#flrkcyicfijrf)" height="42.3105" style="stroke:#000000;stroke-width:2.0;" width="229.5" x="117.5" y="267.1992"/><line style="stroke:#44AAFF;stroke-width:1.0;stroke-dasharray:5.0,5.0;" x1="48" x2="48" y1="118.1992" y2="326.5098"/><line style="stroke:#44AAFF;stroke-width:1.0;stroke-dasharray:5.0,5.0;" x1="160.5" x2="160.5" y1="118.1992" y2="326.5098"/><line style="stroke:#44AAFF;stroke-width:1.0;stroke-dasharray:5.0,5.0;" x1="294" x2="294" y1="118.1992" y2="326.5098"/><line style="stroke:#44AAFF;stroke-width:1.0;stroke-dasharray:5.0,5.0;" x1="419.5" x2="419.5" y1="118.1992" y2="326.5098"/><text fill="#000033" font-family="Helvetica" font-size="11" lengthAdjust="spacing" textLength="29" x="31" y="115.6694">Payor</text><ellipse cx="48.5" cy="50.1992" fill="#44AAFF" filter="url(#flrkcyicfijrf)" rx="8" ry="8" style="stroke:#2277DD;stroke-width:2.0;"/><path d="M48.5,58.1992 L48.5,85.1992 M35.5,66.1992 L61.5,66.1992 M48.5,85.1992 L35.5,100.1992 M48.5,85.1992 L61.5,100.1992 " fill="none" filter="url(#flrkcyicfijrf)" style="stroke:#2277DD;stroke-width:2.0;"/><text fill="#000033" font-family="Helvetica" font-size="11" lengthAdjust="spacing" textLength="29" x="31" y="333.98">Payor</text><ellipse cx="48.5" cy="346.5098" fill="#44AAFF" filter="url(#flrkcyicfijrf)" rx="8" ry="8" style="stroke:#2277DD;stroke-width:2.0;"/><path d="M48.5,354.5098 L48.5,381.5098 M35.5,362.5098 L61.5,362.5098 M48.5,381.5098 L35.5,396.5098 M48.5,381.5098 L61.5,396.5098 " fill="none" filter="url(#flrkcyicfijrf)" style="stroke:#2277DD;stroke-width:2.0;"/><text fill="#000000" font-family="sans-serif" font-size="14" lengthAdjust="spacing" textLength="60" x="127.5" y="115.2461">Payor DB</text><path d="M142.5,65.7109 C142.5,55.7109 160.5,55.7109 160.5,55.7109 C160.5,55.7109 178.5,55.7109 178.5,65.7109 L178.5,91.7109 C178.5,101.7109 160.5,101.7109 160.5,101.7109 C160.5,101.7109 142.5,101.7109 142.5,91.7109 L142.5,65.7109 " fill="#FEFECE" filter="url(#flrkcyicfijrf)" style="stroke:#000000;stroke-width:1.5;"/><path d="M142.5,65.7109 C142.5,75.7109 160.5,75.7109 160.5,75.7109 C160.5,75.7109 178.5,75.7109 178.5,65.7109 " fill="none" style="stroke:#000000;stroke-width:1.5;"/><text fill="#000000" font-family="sans-serif" font-size="14" lengthAdjust="spacing" textLength="60" x="127.5" y="339.0449">Payor DB</text><path d="M142.5,351.998 C142.5,341.998 160.5,341.998 160.5,341.998 C160.5,341.998 178.5,341.998 178.5,351.998 L178.5,377.998 C178.5,387.998 160.5,387.998 160.5,387.998 C160.5,387.998 142.5,387.998 142.5,377.998 L142.5,351.998 " fill="#FEFECE" filter="url(#flrkcyicfijrf)" style="stroke:#000000;stroke-width:1.5;"/><path d="M142.5,351.998 C142.5,361.998 160.5,361.998 160.5,361.998 C160.5,361.998 178.5,361.998 178.5,351.998 " fill="none" style="stroke:#000000;stroke-width:1.5;"/><text fill="#000000" font-family="sans-serif" font-size="14" lengthAdjust="spacing" textLength="79" x="252" y="115.2461">Receiver DB</text><path d="M276.5,65.7109 C276.5,55.7109 294.5,55.7109 294.5,55.7109 C294.5,55.7109 312.5,55.7109 312.5,65.7109 L312.5,91.7109 C312.5,101.7109 294.5,101.7109 294.5,101.7109 C294.5,101.7109 276.5,101.7109 276.5,91.7109 L276.5,65.7109 " fill="#FEFECE" filter="url(#flrkcyicfijrf)" style="stroke:#000000;stroke-width:1.5;"/><path d="M276.5,65.7109 C276.5,75.7109 294.5,75.7109 294.5,75.7109 C294.5,75.7109 312.5,75.7109 312.5,65.7109 " fill="none" style="stroke:#000000;stroke-width:1.5;"/><text fill="#000000" font-family="sans-serif" font-size="14" lengthAdjust="spacing" textLength="79" x="252" y="339.0449">Receiver DB</text><path d="M276.5,351.998 C276.5,341.998 294.5,341.998 294.5,341.998 C294.5,341.998 312.5,341.998 312.5,351.998 L312.5,377.998 C312.5,387.998 294.5,387.998 294.5,387.998 C294.5,387.998 276.5,387.998 276.5,377.998 L276.5,351.998 " fill="#FEFECE" filter="url(#flrkcyicfijrf)" style="stroke:#000000;stroke-width:1.5;"/><path d="M276.5,351.998 C276.5,361.998 294.5,361.998 294.5,361.998 C294.5,361.998 312.5,361.998 312.5,351.998 " fill="none" style="stroke:#000000;stroke-width:1.5;"/><text fill="#000033" font-family="Helvetica" font-size="11" lengthAdjust="spacing" textLength="44" x="394.5" y="115.6694">Receiver</text><ellipse cx="419.5" cy="50.1992" fill="#44AAFF" filter="url(#flrkcyicfijrf)" rx="8" ry="8" style="stroke:#2277DD;stroke-width:2.0;"/><path d="M419.5,58.1992 L419.5,85.1992 M406.5,66.1992 L432.5,66.1992 M419.5,85.1992 L406.5,100.1992 M419.5,85.1992 L432.5,100.1992 " fill="none" filter="url(#flrkcyicfijrf)" style="stroke:#2277DD;stroke-width:2.0;"/><text fill="#000033" font-family="Helvetica" font-size="11" lengthAdjust="spacing" textLength="44" x="394.5" y="333.98">Receiver</text><ellipse cx="419.5" cy="346.5098" fill="#44AAFF" filter="url(#flrkcyicfijrf)" rx="8" ry="8" style="stroke:#2277DD;stroke-width:2.0;"/><path d="M419.5,354.5098 L419.5,381.5098 M406.5,362.5098 L432.5,362.5098 M419.5,381.5098 L406.5,396.5098 M419.5,381.5098 L432.5,396.5098 " fill="none" filter="url(#flrkcyicfijrf)" style="stroke:#2277DD;stroke-width:2.0;"/><line style="stroke:#000000;stroke-width:1.0;" x1="158.5" x2="148.5" y1="167.1992" y2="163.1992"/><line style="stroke:#000000;stroke-width:1.0;" x1="158.5" x2="148.5" y1="167.1992" y2="171.1992"/><line style="stroke:#000000;stroke-width:1.0;" x1="48.5" x2="159.5" y1="167.1992" y2="167.1992"/><text fill="#333333" font-family="Helvetica" font-size="11" lengthAdjust="spacing" textLength="88" x="55.5" y="140.6694">Submit signed chit</text><text fill="#333333" font-family="Helvetica" font-size="11" lengthAdjust="spacing" textLength="86" x="55.5" y="151.6694">value --&gt; receiver</text><text fill="#333333" font-family="Helvetica" font-size="11" lengthAdjust="spacing" textLength="45" x="55.5" y="162.6694">or setting</text><path d="M5,180.1992 L5,201.1992 L201,201.1992 L201,190.1992 L191,180.1992 L5,180.1992 " fill="#E8E8EA" filter="url(#flrkcyicfijrf)" style="stroke:#202024;stroke-width:1.0;"/><path d="M191,180.1992 L191,190.1992 L201,190.1992 L191,180.1992 " fill="#E8E8EA" style="stroke:#202024;stroke-width:1.0;"/><text fill="#000033" font-family="Helvetica" font-size="11" lengthAdjust="spacing" textLength="175" x="11" y="193.6694">Payable/receivable/setting is binding</text><line style="stroke:#000000;stroke-width:1.0;" x1="292.5" x2="282.5" y1="227.1992" y2="223.1992"/><line style="stroke:#000000;stroke-width:1.0;" x1="292.5" x2="282.5" y1="227.1992" y2="231.1992"/><line style="stroke:#000000;stroke-width:1.0;" x1="160.5" x2="293.5" y1="227.1992" y2="227.1992"/><text fill="#333333" font-family="Helvetica" font-size="11" lengthAdjust="spacing" textLength="89" x="167.5" y="222.6694">Store and transmit</text><line style="stroke:#000000;stroke-width:1.0;" x1="417.5" x2="407.5" y1="252.1992" y2="248.1992"/><line style="stroke:#000000;stroke-width:1.0;" x1="417.5" x2="407.5" y1="252.1992" y2="256.1992"/><line style="stroke:#000000;stroke-width:1.0;" x1="294.5" x2="418.5" y1="252.1992" y2="252.1992"/><text fill="#333333" font-family="Helvetica" font-size="11" lengthAdjust="spacing" textLength="101" x="301.5" y="247.6694">Store and notify user</text><path d="M117.5,267.1992 L191.5,267.1992 L191.5,274.1992 L181.5,284.1992 L117.5,284.1992 L117.5,267.1992 " fill="#EEEEEE" style="stroke:#000000;stroke-width:1.0;"/><rect fill="none" height="42.3105" style="stroke:#000000;stroke-width:2.0;" width="229.5" x="117.5" y="267.1992"/><text fill="#000000" font-family="sans-serif" font-size="13" font-weight="bold" lengthAdjust="spacing" textLength="29" x="132.5" y="280.7676">loop</text><text fill="#000000" font-family="sans-serif" font-size="11" font-weight="bold" lengthAdjust="spacing" textLength="96" x="206.5" y="279.834">[until consensed]</text><polygon fill="#000000" points="171.5,297.5098,161.5,301.5098,171.5,305.5098,167.5,301.5098" style="stroke:#000000;stroke-width:1.0;"/><polygon fill="#000000" points="282.5,297.5098,292.5,301.5098,282.5,305.5098,286.5,301.5098" style="stroke:#000000;stroke-width:1.0;"/><line style="stroke:#000000;stroke-width:1.0;" x1="165.5" x2="288.5" y1="301.5098" y2="301.5098"/><text fill="#333333" font-family="Helvetica" font-size="11" lengthAdjust="spacing" textLength="110" x="177.5" y="296.98">Consensus acks/naks</text><text fill="#888888" font-family="sans-serif" font-size="10" lengthAdjust="spacing" textLength="153" x="148.25" y="417.1777">Thu May 12 09:53:33 MDT 2022</text><!--MD5=[b1679024a8cf468e40fafa3b5c377313]
@startuml
!include common.puml
$title(Chit Direct Payment or Setting)
actor "Payor" as pay
database "Payor DB" as payDB
database "Receiver DB" as recDB
actor "Receiver" as rec

pay	->>	payDB:		Submit signed chit\nvalue - -> receiver\nor setting
note over pay, payDB
  Payable/receivable/setting is binding
end note
payDB	->>	recDB:		Store and transmit
recDB	->>	rec:		Store and notify user
loop until consensed
 payDB	<->	recDB:		Consensus acks/naks
end loop

@enduml

@startuml



skinparam backgroundColor fff
skinparam stereotypeCBackgroundColor 27d






skinparam circledCharacter {
  radius 8
  fontSize 11
  fontName Helvetica
}

skinparam class {
    backgroundColor e8e8ea
  borderColor 202024
    fontColor 003
  fontName Helvetica
  fontSize 11
  stereotypeFontColor 333
  stereotypeFontSize 11
    arrowColor 000
  arrowFontName Helvetica
  arrowFontColor 333
  arrowFontSize 11

  attributeFontColor 333
  attributeFontSize 11
  attributeIconSize 11
}

skinparam actor {
    backgroundColor 4af
  borderColor 27d
    fontColor 003
  fontName Helvetica
  fontSize 11
  stereotypeFontColor 333
  stereotypeFontSize 11
}

skinparam participant {
    backgroundColor e8e8ea
  borderColor 202024
    fontColor 003
  fontName Helvetica
  fontSize 11
  stereotypeFontColor 333
  stereotypeFontSize 11
}

skinparam collections {
    backgroundColor e8e8ea
  borderColor 202024
    fontColor 003
  fontName Helvetica
  fontSize 11
  stereotypeFontColor 333
  stereotypeFontSize 11
}

skinparam SequenceBox{
    backgroundColor e0e0e0
  borderColor cccccc
    fontColor 003
  fontName Helvetica
  fontSize 11
  stereotypeFontColor 333
  stereotypeFontSize 11
}

skinparam interface {
    backgroundColor 4af
  borderColor 27d
    fontColor 003
  fontName Helvetica
  fontSize 11
  stereotypeFontColor 333
  stereotypeFontSize 11
}

skinparam component {
    backgroundColor e8e8ea
  borderColor 202024
    fontColor 003
  fontName Helvetica
  fontSize 11
  stereotypeFontColor 333
  stereotypeFontSize 11
}



skinparam queue {
    backgroundColor e8e8ea
  borderColor 202024
    fontColor 003
  fontName Helvetica
  fontSize 11
  stereotypeFontColor 333
  stereotypeFontSize 11
}


skinparam usecase {
    backgroundColor e8e8ea
  borderColor 202024
    fontColor 003
  fontName Helvetica
  fontSize 11
  stereotypeFontColor 333
  stereotypeFontSize 11
    arrowColor 000
  arrowFontName Helvetica
  arrowFontColor 333
  arrowFontSize 11
}

skinparam activity {
    backgroundColor e8e8ea
  borderColor 202024
    fontColor 003
  fontName Helvetica
  fontSize 11
  stereotypeFontColor 333
  stereotypeFontSize 11
    arrowColor 000
  arrowFontName Helvetica
  arrowFontColor 333
  arrowFontSize 11
}

skinparam sequence {
    fontColor 003
  fontName Helvetica
  fontSize 11
  stereotypeFontColor 333
  stereotypeFontSize 11
    arrowColor 000
  arrowFontName Helvetica
  arrowFontColor 333
  arrowFontSize 11

  lifeLineBorderColor 4af
  lifeLineBackgroundColor e0e0e0
}




skinparam state {
    backgroundColor e8e8ea
  borderColor 202024
    fontColor 003
  fontName Helvetica
  fontSize 11
  stereotypeFontColor 333
  stereotypeFontSize 11
    arrowColor 000
  arrowFontName Helvetica
  arrowFontColor 333
  arrowFontSize 11
  startColor 4af
  endColor 27d
}

skinparam note {
    backgroundColor e8e8ea
  borderColor 202024
    fontColor 003
  fontName Helvetica
  fontSize 11
  stereotypeFontColor 333
  stereotypeFontSize 11
}







  title Chit Direct Payment or Setting
  footer Thu May 12 09:53:33 MDT 2022
actor "Payor" as pay
database "Payor DB" as payDB
database "Receiver DB" as recDB
actor "Receiver" as rec

pay	->>	payDB:		Submit signed chit\nvalue - -> receiver\nor setting
note over pay, payDB
  Payable/receivable/setting is binding
end note
payDB	->>	recDB:		Store and transmit
recDB	->>	rec:		Store and notify user
loop until consensed
 payDB	<->	recDB:		Consensus acks/naks
end loop

@enduml

PlantUML version 1.2022.1(Tue Feb 01 11:19:58 MST 2022)
(GPL source distribution)
Java Runtime: OpenJDK Runtime Environment
JVM: OpenJDK 64-Bit Server VM
Default Encoding: UTF-8
Language: en
Country: US
--></g></svg>