<?xml version="1.0" encoding="UTF-8" standalone="no"?><svg xmlns="http://www.w3.org/2000/svg" xmlns:xlink="http://www.w3.org/1999/xlink" contentScriptType="application/ecmascript" contentStyleType="text/css" height="561px" preserveAspectRatio="none" style="width:681px;height:561px;background:#FFFFFF;" version="1.1" viewBox="0 0 681 561" width="681px" zoomAndPan="magnify"><defs><filter height="300%" id="f105uz4t641qsl" width="300%" x="-1" y="-1"><feGaussianBlur result="blurOut" stdDeviation="2.0"/><feColorMatrix in="blurOut" result="blurOut2" type="matrix" values="0 0 0 0 0 0 0 0 0 0 0 0 0 0 0 0 0 0 .4 0"/><feOffset dx="4.0" dy="4.0" in="blurOut2" result="blurOut3"/><feBlend in="SourceGraphic" in2="blurOut3" mode="normal"/></filter></defs><g><text fill="#000000" font-family="sans-serif" font-size="18" lengthAdjust="spacing" textLength="109" x="284" y="29.4023">Lift Proposal</text><rect fill="#FFFFFF" filter="url(#f105uz4t641qsl)" height="104.2656" style="stroke:#000000;stroke-width:2.0;" width="267.5" x="10" y="135.1992"/><rect fill="#FFFFFF" height="61.9551" style="stroke:none;stroke-width:1.0;" width="267.5" x="10" y="177.5098"/><rect fill="#FFFFFF" filter="url(#f105uz4t641qsl)" height="167.2207" style="stroke:#000000;stroke-width:2.0;" width="392" x="275" y="278.4648"/><rect fill="#FFFFFF" height="50.9551" style="stroke:none;stroke-width:1.0;" width="392" x="275" y="330.7754"/><rect fill="#FFFFFF" height="63.9551" style="stroke:none;stroke-width:1.0;" width="392" x="275" y="381.7305"/><line style="stroke:#44AAFF;stroke-width:1.0;stroke-dasharray:5.0,5.0;" x1="35" x2="35" y1="118.1992" y2="462.6855"/><line style="stroke:#44AAFF;stroke-width:1.0;stroke-dasharray:5.0,5.0;" x1="96" x2="96" y1="118.1992" y2="462.6855"/><line style="stroke:#44AAFF;stroke-width:1.0;stroke-dasharray:5.0,5.0;" x1="217.5" x2="217.5" y1="118.1992" y2="462.6855"/><line style="stroke:#44AAFF;stroke-width:1.0;stroke-dasharray:5.0,5.0;" x1="382" x2="382" y1="118.1992" y2="462.6855"/><line style="stroke:#44AAFF;stroke-width:1.0;stroke-dasharray:5.0,5.0;" x1="583" x2="583" y1="118.1992" y2="462.6855"/><text fill="#000033" font-family="Helvetica" font-size="11" lengthAdjust="spacing" textLength="24" x="20" y="115.6694">User</text><ellipse cx="35" cy="50.1992" fill="#44AAFF" filter="url(#f105uz4t641qsl)" rx="8" ry="8" style="stroke:#2277DD;stroke-width:2.0;"/><path d="M35,58.1992 L35,85.1992 M22,66.1992 L48,66.1992 M35,85.1992 L22,100.1992 M35,85.1992 L48,100.1992 " fill="none" filter="url(#f105uz4t641qsl)" style="stroke:#2277DD;stroke-width:2.0;"/><text fill="#000033" font-family="Helvetica" font-size="11" lengthAdjust="spacing" textLength="24" x="20" y="470.1558">User</text><ellipse cx="35" cy="482.6855" fill="#44AAFF" filter="url(#f105uz4t641qsl)" rx="8" ry="8" style="stroke:#2277DD;stroke-width:2.0;"/><path d="M35,490.6855 L35,517.6855 M22,498.6855 L48,498.6855 M35,517.6855 L22,532.6855 M35,517.6855 L48,532.6855 " fill="none" filter="url(#f105uz4t641qsl)" style="stroke:#2277DD;stroke-width:2.0;"/><text fill="#000000" font-family="sans-serif" font-size="14" lengthAdjust="spacing" textLength="66" x="60" y="115.2461">Lift Agent</text><ellipse cx="96" cy="85.7109" fill="#FEFECE" filter="url(#f105uz4t641qsl)" rx="12" ry="12" style="stroke:#A80036;stroke-width:2.0;"/><polygon fill="#A80036" points="92,73.7109,98,68.7109,96,73.7109,98,78.7109,92,73.7109" style="stroke:#A80036;stroke-width:1.0;"/><text fill="#000000" font-family="sans-serif" font-size="14" lengthAdjust="spacing" textLength="66" x="60" y="475.2207">Lift Agent</text><ellipse cx="96" cy="494.1738" fill="#FEFECE" filter="url(#f105uz4t641qsl)" rx="12" ry="12" style="stroke:#A80036;stroke-width:2.0;"/><polygon fill="#A80036" points="92,482.1738,98,477.1738,96,482.1738,98,487.1738,92,482.1738" style="stroke:#A80036;stroke-width:1.0;"/><text fill="#000000" font-family="sans-serif" font-size="14" lengthAdjust="spacing" textLength="93" x="168.5" y="115.2461">Originator DB</text><path d="M200,65.7109 C200,55.7109 218,55.7109 218,55.7109 C218,55.7109 236,55.7109 236,65.7109 L236,91.7109 C236,101.7109 218,101.7109 218,101.7109 C218,101.7109 200,101.7109 200,91.7109 L200,65.7109 " fill="#FEFECE" filter="url(#f105uz4t641qsl)" style="stroke:#000000;stroke-width:1.5;"/><path d="M200,65.7109 C200,75.7109 218,75.7109 218,75.7109 C218,75.7109 236,75.7109 236,65.7109 " fill="none" style="stroke:#000000;stroke-width:1.5;"/><text fill="#000000" font-family="sans-serif" font-size="14" lengthAdjust="spacing" textLength="93" x="168.5" y="475.2207">Originator DB</text><path d="M200,488.1738 C200,478.1738 218,478.1738 218,478.1738 C218,478.1738 236,478.1738 236,488.1738 L236,514.1738 C236,524.1738 218,524.1738 218,524.1738 C218,524.1738 200,524.1738 200,514.1738 L200,488.1738 " fill="#FEFECE" filter="url(#f105uz4t641qsl)" style="stroke:#000000;stroke-width:1.5;"/><path d="M200,488.1738 C200,498.1738 218,498.1738 218,498.1738 C218,498.1738 236,498.1738 236,488.1738 " fill="none" style="stroke:#000000;stroke-width:1.5;"/><text fill="#000000" font-family="sans-serif" font-size="14" lengthAdjust="spacing" textLength="88" x="335" y="115.2461">Upstream DB</text><path d="M364,65.7109 C364,55.7109 382,55.7109 382,55.7109 C382,55.7109 400,55.7109 400,65.7109 L400,91.7109 C400,101.7109 382,101.7109 382,101.7109 C382,101.7109 364,101.7109 364,91.7109 L364,65.7109 " fill="#FEFECE" filter="url(#f105uz4t641qsl)" style="stroke:#000000;stroke-width:1.5;"/><path d="M364,65.7109 C364,75.7109 382,75.7109 382,75.7109 C382,75.7109 400,75.7109 400,65.7109 " fill="none" style="stroke:#000000;stroke-width:1.5;"/><text fill="#000000" font-family="sans-serif" font-size="14" lengthAdjust="spacing" textLength="88" x="335" y="475.2207">Upstream DB</text><path d="M364,488.1738 C364,478.1738 382,478.1738 382,478.1738 C382,478.1738 400,478.1738 400,488.1738 L400,514.1738 C400,524.1738 382,524.1738 382,524.1738 C382,524.1738 364,524.1738 364,514.1738 L364,488.1738 " fill="#FEFECE" filter="url(#f105uz4t641qsl)" style="stroke:#000000;stroke-width:1.5;"/><path d="M364,488.1738 C364,498.1738 382,498.1738 382,498.1738 C382,498.1738 400,498.1738 400,488.1738 " fill="none" style="stroke:#000000;stroke-width:1.5;"/><text fill="#000000" font-family="sans-serif" font-size="14" lengthAdjust="spacing" textLength="142" x="509" y="115.2461">Next Upstream Node</text><path d="M565,65.7109 C565,55.7109 583,55.7109 583,55.7109 C583,55.7109 601,55.7109 601,65.7109 L601,91.7109 C601,101.7109 583,101.7109 583,101.7109 C583,101.7109 565,101.7109 565,91.7109 L565,65.7109 " fill="#FEFECE" filter="url(#f105uz4t641qsl)" style="stroke:#000000;stroke-width:1.5;"/><path d="M565,65.7109 C565,75.7109 583,75.7109 583,75.7109 C583,75.7109 601,75.7109 601,65.7109 " fill="none" style="stroke:#000000;stroke-width:1.5;"/><text fill="#000000" font-family="sans-serif" font-size="14" lengthAdjust="spacing" textLength="142" x="509" y="475.2207">Next Upstream Node</text><path d="M565,488.1738 C565,478.1738 583,478.1738 583,478.1738 C583,478.1738 601,478.1738 601,488.1738 L601,514.1738 C601,524.1738 583,524.1738 583,524.1738 C583,524.1738 565,524.1738 565,514.1738 L565,488.1738 " fill="#FEFECE" filter="url(#f105uz4t641qsl)" style="stroke:#000000;stroke-width:1.5;"/><path d="M565,488.1738 C565,498.1738 583,498.1738 583,498.1738 C583,498.1738 601,498.1738 601,488.1738 " fill="none" style="stroke:#000000;stroke-width:1.5;"/><path d="M10,135.1992 L72,135.1992 L72,142.1992 L62,152.1992 L10,152.1992 L10,135.1992 " fill="#EEEEEE" style="stroke:#000000;stroke-width:1.0;"/><rect fill="none" height="104.2656" style="stroke:#000000;stroke-width:2.0;" width="267.5" x="10" y="135.1992"/><text fill="#000000" font-family="sans-serif" font-size="13" font-weight="bold" lengthAdjust="spacing" textLength="17" x="25" y="148.7676">alt</text><text fill="#000000" font-family="sans-serif" font-size="11" font-weight="bold" lengthAdjust="spacing" textLength="142" x="87" y="147.834">[User initiates lift, linear]</text><line style="stroke:#000000;stroke-width:1.0;" x1="216" x2="206" y1="169.5098" y2="165.5098"/><line style="stroke:#000000;stroke-width:1.0;" x1="216" x2="206" y1="169.5098" y2="173.5098"/><line style="stroke:#000000;stroke-width:1.0;" x1="35" x2="217" y1="169.5098" y2="169.5098"/><text fill="#333333" font-family="Helvetica" font-size="11" lengthAdjust="spacing" textLength="159" x="42" y="164.98">Request payment to named peer</text><line style="stroke:#000000;stroke-width:1.0;stroke-dasharray:2.0,2.0;" x1="10" x2="277.5" y1="178.5098" y2="178.5098"/><text fill="#000000" font-family="sans-serif" font-size="11" font-weight="bold" lengthAdjust="spacing" textLength="226" x="15" y="189.1445">[Autonomous agent initiates lift, circuit]</text><line style="stroke:#000000;stroke-width:1.0;" x1="216" x2="206" y1="231.4648" y2="227.4648"/><line style="stroke:#000000;stroke-width:1.0;" x1="216" x2="206" y1="231.4648" y2="235.4648"/><line style="stroke:#000000;stroke-width:1.0;" x1="96" x2="217" y1="231.4648" y2="231.4648"/><text fill="#333333" font-family="Helvetica" font-size="11" lengthAdjust="spacing" textLength="95" x="103" y="204.9351">Request clearing lift</text><text fill="#333333" font-family="Helvetica" font-size="11" lengthAdjust="spacing" textLength="73" x="103" y="215.9351">through named</text><text fill="#333333" font-family="Helvetica" font-size="11" lengthAdjust="spacing" textLength="77" x="103" y="226.9351">destination peer</text><line style="stroke:#000000;stroke-width:1.0;" x1="380" x2="370" y1="263.4648" y2="259.4648"/><line style="stroke:#000000;stroke-width:1.0;" x1="380" x2="370" y1="263.4648" y2="267.4648"/><line style="stroke:#000000;stroke-width:1.0;" x1="218" x2="381" y1="263.4648" y2="263.4648"/><text fill="#333333" font-family="Helvetica" font-size="11" lengthAdjust="spacing" textLength="140" x="225" y="258.9351">Will you participate in this lift?</text><path d="M275,278.4648 L337,278.4648 L337,285.4648 L327,295.4648 L275,295.4648 L275,278.4648 " fill="#EEEEEE" style="stroke:#000000;stroke-width:1.0;"/><rect fill="none" height="167.2207" style="stroke:#000000;stroke-width:2.0;" width="392" x="275" y="278.4648"/><text fill="#000000" font-family="sans-serif" font-size="13" font-weight="bold" lengthAdjust="spacing" textLength="17" x="290" y="292.0332">alt</text><text fill="#000000" font-family="sans-serif" font-size="11" font-weight="bold" lengthAdjust="spacing" textLength="150" x="352" y="291.0996">[Destination found locally]</text><path d="M285,300.7754 L285,321.7754 L475,321.7754 L475,310.7754 L465,300.7754 L285,300.7754 " fill="#E8E8EA" filter="url(#f105uz4t641qsl)" style="stroke:#202024;stroke-width:1.0;"/><path d="M465,300.7754 L465,310.7754 L475,310.7754 L465,300.7754 " fill="#E8E8EA" style="stroke:#202024;stroke-width:1.0;"/><text fill="#000033" font-family="Helvetica" font-size="11" lengthAdjust="spacing" textLength="169" x="291" y="314.2456">This case shown in a later diagram</text><line style="stroke:#000000;stroke-width:1.0;stroke-dasharray:2.0,2.0;" x1="275" x2="667" y1="331.7754" y2="331.7754"/><text fill="#000000" font-family="sans-serif" font-size="11" font-weight="bold" lengthAdjust="spacing" textLength="320" x="280" y="342.4102">[A possible route can be found to the named destination]</text><line style="stroke:#000000;stroke-width:1.0;" x1="581" x2="571" y1="373.7305" y2="369.7305"/><line style="stroke:#000000;stroke-width:1.0;" x1="581" x2="571" y1="373.7305" y2="377.7305"/><line style="stroke:#000000;stroke-width:1.0;" x1="382" x2="582" y1="373.7305" y2="373.7305"/><text fill="#333333" font-family="Helvetica" font-size="11" lengthAdjust="spacing" textLength="112" x="389" y="358.2007">Create/store draft chits</text><text fill="#333333" font-family="Helvetica" font-size="11" lengthAdjust="spacing" textLength="146" x="389" y="369.2007">propagate lift via chosen route</text><line style="stroke:#000000;stroke-width:1.0;stroke-dasharray:2.0,2.0;" x1="275" x2="667" y1="382.7305" y2="382.7305"/><text fill="#000000" font-family="sans-serif" font-size="11" font-weight="bold" lengthAdjust="spacing" textLength="93" x="280" y="393.3652">[No route found]</text><line style="stroke:#000000;stroke-width:1.0;stroke-dasharray:2.0,2.0;" x1="382" x2="424" y1="424.6855" y2="424.6855"/><line style="stroke:#000000;stroke-width:1.0;stroke-dasharray:2.0,2.0;" x1="424" x2="424" y1="424.6855" y2="437.6855"/><line style="stroke:#000000;stroke-width:1.0;stroke-dasharray:2.0,2.0;" x1="383" x2="424" y1="437.6855" y2="437.6855"/><polygon fill="#000000" points="393,433.6855,383,437.6855,393,441.6855,389,437.6855" style="stroke:#000000;stroke-width:1.0;"/><text fill="#333333" font-family="Helvetica" font-size="11" lengthAdjust="spacing" textLength="187" x="389" y="409.1558">Ignore, don't store; downstreamers will</text><text fill="#333333" font-family="Helvetica" font-size="11" lengthAdjust="spacing" textLength="125" x="389" y="420.1558">have to wait for lift timeout</text><text fill="#888888" font-family="sans-serif" font-size="10" lengthAdjust="spacing" textLength="155" x="261" y="553.3535">Wed Mar 23 15:49:25 MDT 2022</text><!--MD5=[aadabac0f7ad187f467f59a8b8c3506a]
@startuml
!include common.puml
$title(Lift Proposal)
actor "User" as user
control "Lift Agent" as agent
database "Originator DB" as propDB
database "Upstream DB" as upDB
database "Next Upstream Node" as next

alt User initiates lift, linear
  user		->>	propDB:		Request payment to named peer

else Autonomous agent initiates lift, circuit
  agent		->>	propDB:		Request clearing lift\nthrough named\ndestination peer
end

propDB		->>	upDB:		Will you participate in this lift?

alt Destination found locally
  note over upDB: This case shown in a later diagram
  
else A possible route can be found to the named destination
  upDB		->>	next:		Create/store draft chits\npropagate lift via chosen route

else No route found
  upDB		- ->	upDB:		Ignore, don't store; downstreamers will\nhave to wait for lift timeout

end
  
@enduml

@startuml



skinparam backgroundColor fff
skinparam stereotypeCBackgroundColor 27d






skinparam circledCharacter {
  radius 8
  fontSize 11
  fontName Helvetica
}

skinparam class {
    backgroundColor e8e8ea
  borderColor 202024
    fontColor 003
  fontName Helvetica
  fontSize 11
  stereotypeFontColor 333
  stereotypeFontSize 11
    arrowColor 000
  arrowFontName Helvetica
  arrowFontColor 333
  arrowFontSize 11

  attributeFontColor 333
  attributeFontSize 11
  attributeIconSize 11
}

skinparam actor {
    backgroundColor 4af
  borderColor 27d
    fontColor 003
  fontName Helvetica
  fontSize 11
  stereotypeFontColor 333
  stereotypeFontSize 11
}

skinparam participant {
    backgroundColor e8e8ea
  borderColor 202024
    fontColor 003
  fontName Helvetica
  fontSize 11
  stereotypeFontColor 333
  stereotypeFontSize 11
}

skinparam collections {
    backgroundColor e8e8ea
  borderColor 202024
    fontColor 003
  fontName Helvetica
  fontSize 11
  stereotypeFontColor 333
  stereotypeFontSize 11
}

skinparam SequenceBox{
    backgroundColor e0e0e0
  borderColor cccccc
    fontColor 003
  fontName Helvetica
  fontSize 11
  stereotypeFontColor 333
  stereotypeFontSize 11
}

skinparam interface {
    backgroundColor 4af
  borderColor 27d
    fontColor 003
  fontName Helvetica
  fontSize 11
  stereotypeFontColor 333
  stereotypeFontSize 11
}

skinparam component {
    backgroundColor e8e8ea
  borderColor 202024
    fontColor 003
  fontName Helvetica
  fontSize 11
  stereotypeFontColor 333
  stereotypeFontSize 11
}



skinparam queue {
    backgroundColor e8e8ea
  borderColor 202024
    fontColor 003
  fontName Helvetica
  fontSize 11
  stereotypeFontColor 333
  stereotypeFontSize 11
}


skinparam usecase {
    backgroundColor e8e8ea
  borderColor 202024
    fontColor 003
  fontName Helvetica
  fontSize 11
  stereotypeFontColor 333
  stereotypeFontSize 11
    arrowColor 000
  arrowFontName Helvetica
  arrowFontColor 333
  arrowFontSize 11
}

skinparam activity {
    backgroundColor e8e8ea
  borderColor 202024
    fontColor 003
  fontName Helvetica
  fontSize 11
  stereotypeFontColor 333
  stereotypeFontSize 11
    arrowColor 000
  arrowFontName Helvetica
  arrowFontColor 333
  arrowFontSize 11
}

skinparam sequence {
    fontColor 003
  fontName Helvetica
  fontSize 11
  stereotypeFontColor 333
  stereotypeFontSize 11
    arrowColor 000
  arrowFontName Helvetica
  arrowFontColor 333
  arrowFontSize 11

  lifeLineBorderColor 4af
  lifeLineBackgroundColor e0e0e0
}




skinparam state {
    backgroundColor e8e8ea
  borderColor 202024
    fontColor 003
  fontName Helvetica
  fontSize 11
  stereotypeFontColor 333
  stereotypeFontSize 11
    arrowColor 000
  arrowFontName Helvetica
  arrowFontColor 333
  arrowFontSize 11
  startColor 4af
  endColor 27d
}

skinparam note {
    backgroundColor e8e8ea
  borderColor 202024
    fontColor 003
  fontName Helvetica
  fontSize 11
  stereotypeFontColor 333
  stereotypeFontSize 11
}







  title Lift Proposal
  footer Wed Mar 23 15:49:25 MDT 2022
actor "User" as user
control "Lift Agent" as agent
database "Originator DB" as propDB
database "Upstream DB" as upDB
database "Next Upstream Node" as next

alt User initiates lift, linear
  user		->>	propDB:		Request payment to named peer

else Autonomous agent initiates lift, circuit
  agent		->>	propDB:		Request clearing lift\nthrough named\ndestination peer
end

propDB		->>	upDB:		Will you participate in this lift?

alt Destination found locally
  note over upDB: This case shown in a later diagram
  
else A possible route can be found to the named destination
  upDB		->>	next:		Create/store draft chits\npropagate lift via chosen route

else No route found
  upDB		- ->	upDB:		Ignore, don't store; downstreamers will\nhave to wait for lift timeout

end
  
@enduml

PlantUML version 1.2022.1(Tue Feb 01 11:19:58 MST 2022)
(GPL source distribution)
Java Runtime: OpenJDK Runtime Environment
JVM: OpenJDK 64-Bit Server VM
Default Encoding: UTF-8
Language: en
Country: US
--></g></svg>