<?xml version="1.0" encoding="UTF-8" standalone="no"?><svg xmlns="http://www.w3.org/2000/svg" xmlns:xlink="http://www.w3.org/1999/xlink" contentScriptType="application/ecmascript" contentStyleType="text/css" height="732px" preserveAspectRatio="none" style="width:482px;height:732px;" version="1.1" viewBox="0 0 482 732" width="482px" zoomAndPan="magnify"><defs><filter height="300%" id="ftwnxfmmbib5i" width="300%" x="-1" y="-1"><feGaussianBlur result="blurOut" stdDeviation="2.0"/><feColorMatrix in="blurOut" result="blurOut2" type="matrix" values="0 0 0 0 0 0 0 0 0 0 0 0 0 0 0 0 0 0 .4 0"/><feOffset dx="4.0" dy="4.0" in="blurOut2" result="blurOut3"/><feBlend in="SourceGraphic" in2="blurOut3" mode="normal"/></filter></defs><g><text fill="#000000" font-family="sans-serif" font-size="18" lengthAdjust="spacing" textLength="189" x="144.75" y="29.4023">Chit Invoice Sequence</text><rect fill="#FFFFFF" filter="url(#ftwnxfmmbib5i)" height="419.8418" style="stroke:#000000;stroke-width:2.0;" width="458.5" x="10" y="196.1992"/><rect fill="#FFFFFF" filter="url(#ftwnxfmmbib5i)" height="42.3105" style="stroke:#000000;stroke-width:2.0;" width="232.5" x="128.5" y="330.5098"/><rect fill="#FFFFFF" height="146.2656" style="stroke:none;stroke-width:1.0;" width="458.5" x="10" y="379.8203"/><rect fill="#FFFFFF" filter="url(#ftwnxfmmbib5i)" height="42.3105" style="stroke:#000000;stroke-width:2.0;" width="194.5" x="20" y="401.7754"/><rect fill="#FFFFFF" height="89.9551" style="stroke:none;stroke-width:1.0;" width="458.5" x="10" y="526.0859"/><line style="stroke:#44AAFF;stroke-width:1.0;stroke-dasharray:5.0,5.0;" x1="47" x2="47" y1="118.1992" y2="633.041"/><line style="stroke:#44AAFF;stroke-width:1.0;stroke-dasharray:5.0,5.0;" x1="171.5" x2="171.5" y1="118.1992" y2="633.041"/><line style="stroke:#44AAFF;stroke-width:1.0;stroke-dasharray:5.0,5.0;" x1="308" x2="308" y1="118.1992" y2="633.041"/><line style="stroke:#44AAFF;stroke-width:1.0;stroke-dasharray:5.0,5.0;" x1="433.5" x2="433.5" y1="118.1992" y2="633.041"/><text fill="#000033" font-family="Helvetica" font-size="11" lengthAdjust="spacing" textLength="29" x="30" y="115.6694">Payor</text><ellipse cx="47.5" cy="50.1992" fill="#44AAFF" filter="url(#ftwnxfmmbib5i)" rx="8" ry="8" style="stroke:#2277DD;stroke-width:2.0;"/><path d="M47.5,58.1992 L47.5,85.1992 M34.5,66.1992 L60.5,66.1992 M47.5,85.1992 L34.5,100.1992 M47.5,85.1992 L60.5,100.1992 " fill="none" filter="url(#ftwnxfmmbib5i)" style="stroke:#2277DD;stroke-width:2.0;"/><text fill="#000033" font-family="Helvetica" font-size="11" lengthAdjust="spacing" textLength="29" x="30" y="640.5112">Payor</text><ellipse cx="47.5" cy="653.041" fill="#44AAFF" filter="url(#ftwnxfmmbib5i)" rx="8" ry="8" style="stroke:#2277DD;stroke-width:2.0;"/><path d="M47.5,661.041 L47.5,688.041 M34.5,669.041 L60.5,669.041 M47.5,688.041 L34.5,703.041 M47.5,688.041 L60.5,703.041 " fill="none" filter="url(#ftwnxfmmbib5i)" style="stroke:#2277DD;stroke-width:2.0;"/><text fill="#000000" font-family="sans-serif" font-size="14" lengthAdjust="spacing" textLength="60" x="138.5" y="115.2461">Payor DB</text><path d="M153.5,65.7109 C153.5,55.7109 171.5,55.7109 171.5,55.7109 C171.5,55.7109 189.5,55.7109 189.5,65.7109 L189.5,91.7109 C189.5,101.7109 171.5,101.7109 171.5,101.7109 C171.5,101.7109 153.5,101.7109 153.5,91.7109 L153.5,65.7109 " fill="#FEFECE" filter="url(#ftwnxfmmbib5i)" style="stroke:#000000;stroke-width:1.5;"/><path d="M153.5,65.7109 C153.5,75.7109 171.5,75.7109 171.5,75.7109 C171.5,75.7109 189.5,75.7109 189.5,65.7109 " fill="none" style="stroke:#000000;stroke-width:1.5;"/><text fill="#000000" font-family="sans-serif" font-size="14" lengthAdjust="spacing" textLength="60" x="138.5" y="645.5762">Payor DB</text><path d="M153.5,658.5293 C153.5,648.5293 171.5,648.5293 171.5,648.5293 C171.5,648.5293 189.5,648.5293 189.5,658.5293 L189.5,684.5293 C189.5,694.5293 171.5,694.5293 171.5,694.5293 C171.5,694.5293 153.5,694.5293 153.5,684.5293 L153.5,658.5293 " fill="#FEFECE" filter="url(#ftwnxfmmbib5i)" style="stroke:#000000;stroke-width:1.5;"/><path d="M153.5,658.5293 C153.5,668.5293 171.5,668.5293 171.5,668.5293 C171.5,668.5293 189.5,668.5293 189.5,658.5293 " fill="none" style="stroke:#000000;stroke-width:1.5;"/><text fill="#000000" font-family="sans-serif" font-size="14" lengthAdjust="spacing" textLength="79" x="266" y="115.2461">Receiver DB</text><path d="M290.5,65.7109 C290.5,55.7109 308.5,55.7109 308.5,55.7109 C308.5,55.7109 326.5,55.7109 326.5,65.7109 L326.5,91.7109 C326.5,101.7109 308.5,101.7109 308.5,101.7109 C308.5,101.7109 290.5,101.7109 290.5,91.7109 L290.5,65.7109 " fill="#FEFECE" filter="url(#ftwnxfmmbib5i)" style="stroke:#000000;stroke-width:1.5;"/><path d="M290.5,65.7109 C290.5,75.7109 308.5,75.7109 308.5,75.7109 C308.5,75.7109 326.5,75.7109 326.5,65.7109 " fill="none" style="stroke:#000000;stroke-width:1.5;"/><text fill="#000000" font-family="sans-serif" font-size="14" lengthAdjust="spacing" textLength="79" x="266" y="645.5762">Receiver DB</text><path d="M290.5,658.5293 C290.5,648.5293 308.5,648.5293 308.5,648.5293 C308.5,648.5293 326.5,648.5293 326.5,658.5293 L326.5,684.5293 C326.5,694.5293 308.5,694.5293 308.5,694.5293 C308.5,694.5293 290.5,694.5293 290.5,684.5293 L290.5,658.5293 " fill="#FEFECE" filter="url(#ftwnxfmmbib5i)" style="stroke:#000000;stroke-width:1.5;"/><path d="M290.5,658.5293 C290.5,668.5293 308.5,668.5293 308.5,668.5293 C308.5,668.5293 326.5,668.5293 326.5,658.5293 " fill="none" style="stroke:#000000;stroke-width:1.5;"/><text fill="#000033" font-family="Helvetica" font-size="11" lengthAdjust="spacing" textLength="44" x="408.5" y="115.6694">Receiver</text><ellipse cx="433.5" cy="50.1992" fill="#44AAFF" filter="url(#ftwnxfmmbib5i)" rx="8" ry="8" style="stroke:#2277DD;stroke-width:2.0;"/><path d="M433.5,58.1992 L433.5,85.1992 M420.5,66.1992 L446.5,66.1992 M433.5,85.1992 L420.5,100.1992 M433.5,85.1992 L446.5,100.1992 " fill="none" filter="url(#ftwnxfmmbib5i)" style="stroke:#2277DD;stroke-width:2.0;"/><text fill="#000033" font-family="Helvetica" font-size="11" lengthAdjust="spacing" textLength="44" x="408.5" y="640.5112">Receiver</text><ellipse cx="433.5" cy="653.041" fill="#44AAFF" filter="url(#ftwnxfmmbib5i)" rx="8" ry="8" style="stroke:#2277DD;stroke-width:2.0;"/><path d="M433.5,661.041 L433.5,688.041 M420.5,669.041 L446.5,669.041 M433.5,688.041 L420.5,703.041 M433.5,688.041 L446.5,703.041 " fill="none" filter="url(#ftwnxfmmbib5i)" style="stroke:#2277DD;stroke-width:2.0;"/><line style="stroke:#000000;stroke-width:1.0;" x1="308.5" x2="318.5" y1="156.1992" y2="152.1992"/><line style="stroke:#000000;stroke-width:1.0;" x1="308.5" x2="318.5" y1="156.1992" y2="160.1992"/><line style="stroke:#000000;stroke-width:1.0;" x1="308.5" x2="432.5" y1="156.1992" y2="156.1992"/><text fill="#333333" font-family="Helvetica" font-size="11" lengthAdjust="spacing" textLength="92" x="325.5" y="140.6694">Submit draft chit w/</text><text fill="#333333" font-family="Helvetica" font-size="11" lengthAdjust="spacing" textLength="86" x="325.5" y="151.6694">value --&gt; receiver</text><line style="stroke:#000000;stroke-width:1.0;" x1="171.5" x2="181.5" y1="181.1992" y2="177.1992"/><line style="stroke:#000000;stroke-width:1.0;" x1="171.5" x2="181.5" y1="181.1992" y2="185.1992"/><line style="stroke:#000000;stroke-width:1.0;" x1="171.5" x2="307.5" y1="181.1992" y2="181.1992"/><text fill="#333333" font-family="Helvetica" font-size="11" lengthAdjust="spacing" textLength="108" x="188.5" y="176.6694">Store, transmit to peer</text><path d="M10,196.1992 L72,196.1992 L72,203.1992 L62,213.1992 L10,213.1992 L10,196.1992 " fill="#EEEEEE" style="stroke:#000000;stroke-width:1.0;"/><rect fill="none" height="419.8418" style="stroke:#000000;stroke-width:2.0;" width="458.5" x="10" y="196.1992"/><text fill="#000000" font-family="sans-serif" font-size="13" font-weight="bold" lengthAdjust="spacing" textLength="17" x="25" y="209.7676">alt</text><text fill="#000000" font-family="sans-serif" font-size="11" font-weight="bold" lengthAdjust="spacing" textLength="101" x="87" y="208.834">[Terms agreeable]</text><line style="stroke:#000000;stroke-width:1.0;" x1="169.5" x2="159.5" y1="230.5098" y2="226.5098"/><line style="stroke:#000000;stroke-width:1.0;" x1="169.5" x2="159.5" y1="230.5098" y2="234.5098"/><line style="stroke:#000000;stroke-width:1.0;" x1="47.5" x2="170.5" y1="230.5098" y2="230.5098"/><text fill="#333333" font-family="Helvetica" font-size="11" lengthAdjust="spacing" textLength="77" x="54.5" y="225.98">Accept/sign chit</text><line style="stroke:#000000;stroke-width:1.0;" x1="306.5" x2="296.5" y1="255.5098" y2="251.5098"/><line style="stroke:#000000;stroke-width:1.0;" x1="306.5" x2="296.5" y1="255.5098" y2="259.5098"/><line style="stroke:#000000;stroke-width:1.0;" x1="171.5" x2="307.5" y1="255.5098" y2="255.5098"/><text fill="#333333" font-family="Helvetica" font-size="11" lengthAdjust="spacing" textLength="93" x="178.5" y="250.98">Send accepted chit</text><line style="stroke:#000000;stroke-width:1.0;" x1="431.5" x2="421.5" y1="280.5098" y2="276.5098"/><line style="stroke:#000000;stroke-width:1.0;" x1="431.5" x2="421.5" y1="280.5098" y2="284.5098"/><line style="stroke:#000000;stroke-width:1.0;" x1="308.5" x2="432.5" y1="280.5098" y2="280.5098"/><text fill="#333333" font-family="Helvetica" font-size="11" lengthAdjust="spacing" textLength="101" x="315.5" y="275.98">Store and notify user</text><path d="M136,293.5098 L136,314.5098 L343,314.5098 L343,303.5098 L333,293.5098 L136,293.5098 " fill="#E8E8EA" filter="url(#ftwnxfmmbib5i)" style="stroke:#202024;stroke-width:1.0;"/><path d="M333,293.5098 L333,303.5098 L343,303.5098 L333,293.5098 " fill="#E8E8EA" style="stroke:#202024;stroke-width:1.0;"/><text fill="#000033" font-family="Helvetica" font-size="11" lengthAdjust="spacing" textLength="114" x="176.25" y="306.98">Payment is now binding</text><path d="M128.5,330.5098 L202.5,330.5098 L202.5,337.5098 L192.5,347.5098 L128.5,347.5098 L128.5,330.5098 " fill="#EEEEEE" style="stroke:#000000;stroke-width:1.0;"/><rect fill="none" height="42.3105" style="stroke:#000000;stroke-width:2.0;" width="232.5" x="128.5" y="330.5098"/><text fill="#000000" font-family="sans-serif" font-size="13" font-weight="bold" lengthAdjust="spacing" textLength="29" x="143.5" y="344.0781">loop</text><text fill="#000000" font-family="sans-serif" font-size="11" font-weight="bold" lengthAdjust="spacing" textLength="96" x="217.5" y="343.1445">[until consensus]</text><polygon fill="#000000" points="182.5,360.8203,172.5,364.8203,182.5,368.8203,178.5,364.8203" style="stroke:#000000;stroke-width:1.0;"/><polygon fill="#000000" points="296.5,360.8203,306.5,364.8203,296.5,368.8203,300.5,364.8203" style="stroke:#000000;stroke-width:1.0;"/><line style="stroke:#000000;stroke-width:1.0;" x1="176.5" x2="302.5" y1="364.8203" y2="364.8203"/><text fill="#333333" font-family="Helvetica" font-size="11" lengthAdjust="spacing" textLength="110" x="188.5" y="360.2905">Consensus acks/naks</text><line style="stroke:#000000;stroke-width:1.0;stroke-dasharray:2.0,2.0;" x1="10" x2="468.5" y1="380.8203" y2="380.8203"/><text fill="#000000" font-family="sans-serif" font-size="11" font-weight="bold" lengthAdjust="spacing" textLength="96" x="15" y="391.4551">[Want to counter]</text><path d="M20,401.7754 L94,401.7754 L94,408.7754 L84,418.7754 L20,418.7754 L20,401.7754 " fill="#EEEEEE" style="stroke:#000000;stroke-width:1.0;"/><rect fill="none" height="42.3105" style="stroke:#000000;stroke-width:2.0;" width="194.5" x="20" y="401.7754"/><text fill="#000000" font-family="sans-serif" font-size="13" font-weight="bold" lengthAdjust="spacing" textLength="29" x="35" y="415.3438">loop</text><text fill="#000000" font-family="sans-serif" font-size="11" font-weight="bold" lengthAdjust="spacing" textLength="86" x="109" y="414.4102">[until satisfied]</text><line style="stroke:#000000;stroke-width:1.0;" x1="169.5" x2="159.5" y1="436.0859" y2="432.0859"/><line style="stroke:#000000;stroke-width:1.0;" x1="169.5" x2="159.5" y1="436.0859" y2="440.0859"/><line style="stroke:#000000;stroke-width:1.0;" x1="47.5" x2="170.5" y1="436.0859" y2="436.0859"/><text fill="#333333" font-family="Helvetica" font-size="11" lengthAdjust="spacing" textLength="100" x="54.5" y="431.5562">Modify invoice terms</text><line style="stroke:#000000;stroke-width:1.0;" x1="169.5" x2="159.5" y1="468.0859" y2="464.0859"/><line style="stroke:#000000;stroke-width:1.0;" x1="169.5" x2="159.5" y1="468.0859" y2="472.0859"/><line style="stroke:#000000;stroke-width:1.0;" x1="47.5" x2="170.5" y1="468.0859" y2="468.0859"/><text fill="#333333" font-family="Helvetica" font-size="11" lengthAdjust="spacing" textLength="95" x="54.5" y="463.5562">Return counteroffer</text><line style="stroke:#000000;stroke-width:1.0;" x1="306.5" x2="296.5" y1="493.0859" y2="489.0859"/><line style="stroke:#000000;stroke-width:1.0;" x1="306.5" x2="296.5" y1="493.0859" y2="497.0859"/><line style="stroke:#000000;stroke-width:1.0;" x1="171.5" x2="307.5" y1="493.0859" y2="493.0859"/><text fill="#333333" font-family="Helvetica" font-size="11" lengthAdjust="spacing" textLength="113" x="178.5" y="488.5562">Send modified draft chit</text><line style="stroke:#000000;stroke-width:1.0;" x1="431.5" x2="421.5" y1="518.0859" y2="514.0859"/><line style="stroke:#000000;stroke-width:1.0;" x1="431.5" x2="421.5" y1="518.0859" y2="522.0859"/><line style="stroke:#000000;stroke-width:1.0;" x1="308.5" x2="432.5" y1="518.0859" y2="518.0859"/><text fill="#333333" font-family="Helvetica" font-size="11" lengthAdjust="spacing" textLength="101" x="315.5" y="513.5562">Store and notify user</text><line style="stroke:#000000;stroke-width:1.0;stroke-dasharray:2.0,2.0;" x1="10" x2="468.5" y1="527.0859" y2="527.0859"/><text fill="#000000" font-family="sans-serif" font-size="11" font-weight="bold" lengthAdjust="spacing" textLength="82" x="15" y="537.7207">[Refuse terms]</text><line style="stroke:#000000;stroke-width:1.0;" x1="169.5" x2="159.5" y1="558.041" y2="554.041"/><line style="stroke:#000000;stroke-width:1.0;" x1="169.5" x2="159.5" y1="558.041" y2="562.041"/><line style="stroke:#000000;stroke-width:1.0;" x1="47.5" x2="170.5" y1="558.041" y2="558.041"/><text fill="#333333" font-family="Helvetica" font-size="11" lengthAdjust="spacing" textLength="100" x="54.5" y="553.5112">Mark chit as refused</text><line style="stroke:#000000;stroke-width:1.0;" x1="306.5" x2="296.5" y1="583.041" y2="579.041"/><line style="stroke:#000000;stroke-width:1.0;" x1="306.5" x2="296.5" y1="583.041" y2="587.041"/><line style="stroke:#000000;stroke-width:1.0;" x1="171.5" x2="307.5" y1="583.041" y2="583.041"/><text fill="#333333" font-family="Helvetica" font-size="11" lengthAdjust="spacing" textLength="85" x="178.5" y="578.5112">Send refused chit</text><line style="stroke:#000000;stroke-width:1.0;" x1="431.5" x2="421.5" y1="608.041" y2="604.041"/><line style="stroke:#000000;stroke-width:1.0;" x1="431.5" x2="421.5" y1="608.041" y2="612.041"/><line style="stroke:#000000;stroke-width:1.0;" x1="308.5" x2="432.5" y1="608.041" y2="608.041"/><text fill="#333333" font-family="Helvetica" font-size="11" lengthAdjust="spacing" textLength="101" x="315.5" y="603.5112">Store and notify user</text><text fill="#888888" font-family="sans-serif" font-size="10" lengthAdjust="spacing" textLength="148" x="165.25" y="723.709">Thu Feb 11 08:45:15 MST 2021</text><!--MD5=[a853ba26ed05d81514d62a56f57d981f]
@startuml
!include common.puml
$title(Chit Invoice Sequence)
actor "Payor" as pay
database "Payor DB" as payDB
database "Receiver DB" as recDB
actor "Receiver" as rec

rec	->>	recDB:		Submit draft chit w/\nvalue - -> receiver
recDB	->>	payDB:		Store, transmit to peer

alt Terms agreeable
 pay	->>	payDB:		Accept/sign chit
 payDB	->>	recDB:		Send accepted chit
 recDB	->>	rec:		Store and notify user
 note over payDB, recDB
   Payment is now binding
 end note
loop until consensus
 payDB	<->	recDB:		Consensus acks/naks
end loop

else Want to counter
 loop until satisfied
  pay	->>	payDB:		Modify invoice terms
 end loop
 pay	->>	payDB:		Return counteroffer
 payDB	->>	recDB:		Send modified draft chit
 recDB	->>	rec:		Store and notify user

else Refuse terms
 pay	->>	payDB:		Mark chit as refused
 payDB	->>	recDB:		Send refused chit
 recDB	->>	rec:		Store and notify user
end

@enduml

@startuml



skinparam backgroundColor fff
skinparam stereotypeCBackgroundColor 27d






skinparam circledCharacter {
  radius 8
  fontSize 11
  fontName Helvetica
}

skinparam class {
    backgroundColor e8e8ea
  borderColor 202024
    fontColor 003
  fontName Helvetica
  fontSize 11
  stereotypeFontColor 333
  stereotypeFontSize 11
    arrowColor 000
  arrowFontName Helvetica
  arrowFontColor 333
  arrowFontSize 11

  attributeFontColor 333
  attributeFontSize 11
  attributeIconSize 11
}

skinparam actor {
    backgroundColor 4af
  borderColor 27d
    fontColor 003
  fontName Helvetica
  fontSize 11
  stereotypeFontColor 333
  stereotypeFontSize 11
}

skinparam participant {
    backgroundColor e8e8ea
  borderColor 202024
    fontColor 003
  fontName Helvetica
  fontSize 11
  stereotypeFontColor 333
  stereotypeFontSize 11
}

skinparam collections {
    backgroundColor e8e8ea
  borderColor 202024
    fontColor 003
  fontName Helvetica
  fontSize 11
  stereotypeFontColor 333
  stereotypeFontSize 11
}

skinparam SequenceBox{
    backgroundColor e0e0e0
  borderColor cccccc
    fontColor 003
  fontName Helvetica
  fontSize 11
  stereotypeFontColor 333
  stereotypeFontSize 11
}

skinparam interface {
    backgroundColor 4af
  borderColor 27d
    fontColor 003
  fontName Helvetica
  fontSize 11
  stereotypeFontColor 333
  stereotypeFontSize 11
}

skinparam component {
    backgroundColor e8e8ea
  borderColor 202024
    fontColor 003
  fontName Helvetica
  fontSize 11
  stereotypeFontColor 333
  stereotypeFontSize 11
}



skinparam queue {
    backgroundColor e8e8ea
  borderColor 202024
    fontColor 003
  fontName Helvetica
  fontSize 11
  stereotypeFontColor 333
  stereotypeFontSize 11
}


skinparam usecase {
    backgroundColor e8e8ea
  borderColor 202024
    fontColor 003
  fontName Helvetica
  fontSize 11
  stereotypeFontColor 333
  stereotypeFontSize 11
    arrowColor 000
  arrowFontName Helvetica
  arrowFontColor 333
  arrowFontSize 11
}

skinparam activity {
    backgroundColor e8e8ea
  borderColor 202024
    fontColor 003
  fontName Helvetica
  fontSize 11
  stereotypeFontColor 333
  stereotypeFontSize 11
    arrowColor 000
  arrowFontName Helvetica
  arrowFontColor 333
  arrowFontSize 11
}

skinparam sequence {
    fontColor 003
  fontName Helvetica
  fontSize 11
  stereotypeFontColor 333
  stereotypeFontSize 11
    arrowColor 000
  arrowFontName Helvetica
  arrowFontColor 333
  arrowFontSize 11

  lifeLineBorderColor 4af
  lifeLineBackgroundColor e0e0e0
}




skinparam state {
    backgroundColor e8e8ea
  borderColor 202024
    fontColor 003
  fontName Helvetica
  fontSize 11
  stereotypeFontColor 333
  stereotypeFontSize 11
    arrowColor 000
  arrowFontName Helvetica
  arrowFontColor 333
  arrowFontSize 11
  startColor 4af
  endColor 27d
}

skinparam note {
    backgroundColor e8e8ea
  borderColor 202024
    fontColor 003
  fontName Helvetica
  fontSize 11
  stereotypeFontColor 333
  stereotypeFontSize 11
}







  title Chit Invoice Sequence
  footer Thu Feb 11 08:45:15 MST 2021
actor "Payor" as pay
database "Payor DB" as payDB
database "Receiver DB" as recDB
actor "Receiver" as rec

rec	->>	recDB:		Submit draft chit w/\nvalue - -> receiver
recDB	->>	payDB:		Store, transmit to peer

alt Terms agreeable
 pay	->>	payDB:		Accept/sign chit
 payDB	->>	recDB:		Send accepted chit
 recDB	->>	rec:		Store and notify user
 note over payDB, recDB
   Payment is now binding
 end note
loop until consensus
 payDB	<->	recDB:		Consensus acks/naks
end loop

else Want to counter
 loop until satisfied
  pay	->>	payDB:		Modify invoice terms
 end loop
 pay	->>	payDB:		Return counteroffer
 payDB	->>	recDB:		Send modified draft chit
 recDB	->>	rec:		Store and notify user

else Refuse terms
 pay	->>	payDB:		Mark chit as refused
 payDB	->>	recDB:		Send refused chit
 recDB	->>	rec:		Store and notify user
end

@enduml

PlantUML version 1.2021.00(Sun Jan 10 03:25:05 MST 2021)
(GPL source distribution)
Java Runtime: OpenJDK Runtime Environment
JVM: OpenJDK 64-Bit Server VM
Default Encoding: UTF-8
Language: en
Country: US
--></g></svg>