<?xml version="1.0" encoding="UTF-8" standalone="no"?><svg xmlns="http://www.w3.org/2000/svg" xmlns:xlink="http://www.w3.org/1999/xlink" contentStyleType="text/css" height="1069px" preserveAspectRatio="none" style="width:642px;height:1069px;background:#FFFFFF;" version="1.1" viewBox="0 0 642 1069" width="642px" zoomAndPan="magnify"><defs/><g><text fill="#000000" font-family="sans-serif" font-size="14" font-weight="bold" lengthAdjust="spacing" textLength="224" x="210.25" y="28.5352">Chit Chain Consensus Protocol</text><rect fill="none" height="535.8867" style="stroke:#000000;stroke-width:1.5;" width="625.5" x="10" y="130.4883"/><rect fill="none" height="171.3105" style="stroke:#000000;stroke-width:1.5;" width="349.5" x="191" y="264.7988"/><rect fill="none" height="97.3105" style="stroke:#000000;stroke-width:1.5;" width="266" x="191" y="537.0645"/><rect fill="none" height="167.2656" style="stroke:#000000;stroke-width:1.5;" width="625.5" x="10" y="716.375"/><rect fill="none" height="64.3105" style="stroke:#000000;stroke-width:1.5;" width="340" x="191" y="897.6406"/><line style="stroke:#44AAFF;stroke-width:0.5;stroke-dasharray:5.0,5.0;" x1="54" x2="54" y1="113.4883" y2="978.9512"/><line style="stroke:#44AAFF;stroke-width:0.5;stroke-dasharray:5.0,5.0;" x1="233" x2="233" y1="113.4883" y2="978.9512"/><line style="stroke:#44AAFF;stroke-width:0.5;stroke-dasharray:5.0,5.0;" x1="417" x2="417" y1="113.4883" y2="978.9512"/><line style="stroke:#44AAFF;stroke-width:0.5;stroke-dasharray:5.0,5.0;" x1="596.5" x2="596.5" y1="113.4883" y2="978.9512"/><text fill="#000033" font-family="Helvetica" font-size="11" lengthAdjust="spacing" textLength="63" x="20" y="110.9585">Stock Holder</text><ellipse cx="54.5" cy="50.9883" fill="#44AAFF" rx="8" ry="8" style="stroke:#2277DD;stroke-width:0.5;"/><path d="M54.5,58.9883 L54.5,85.9883 M41.5,66.9883 L67.5,66.9883 M54.5,85.9883 L41.5,100.9883 M54.5,85.9883 L67.5,100.9883 " fill="none" style="stroke:#2277DD;stroke-width:0.5;"/><text fill="#000033" font-family="Helvetica" font-size="11" lengthAdjust="spacing" textLength="63" x="20" y="986.4214">Stock Holder</text><ellipse cx="54.5" cy="997.4512" fill="#44AAFF" rx="8" ry="8" style="stroke:#2277DD;stroke-width:0.5;"/><path d="M54.5,1005.4512 L54.5,1032.4512 M41.5,1013.4512 L67.5,1013.4512 M54.5,1032.4512 L41.5,1047.4512 M54.5,1032.4512 L67.5,1047.4512 " fill="none" style="stroke:#2277DD;stroke-width:0.5;"/><text fill="#000000" font-family="sans-serif" font-size="14" lengthAdjust="spacing" textLength="59" x="201" y="110.5352">Stock DB</text><path d="M215.5,61 C215.5,51 233.5,51 233.5,51 C233.5,51 251.5,51 251.5,61 L251.5,87 C251.5,97 233.5,97 233.5,97 C233.5,97 215.5,97 215.5,87 L215.5,61 " fill="#E2E2F0" style="stroke:#181818;stroke-width:1.5;"/><path d="M215.5,61 C215.5,71 233.5,71 233.5,71 C233.5,71 251.5,71 251.5,61 " fill="none" style="stroke:#181818;stroke-width:1.5;"/><text fill="#000000" font-family="sans-serif" font-size="14" lengthAdjust="spacing" textLength="59" x="201" y="991.4863">Stock DB</text><path d="M215.5,1004.4395 C215.5,994.4395 233.5,994.4395 233.5,994.4395 C233.5,994.4395 251.5,994.4395 251.5,1004.4395 L251.5,1030.4395 C251.5,1040.4395 233.5,1040.4395 233.5,1040.4395 C233.5,1040.4395 215.5,1040.4395 215.5,1030.4395 L215.5,1004.4395 " fill="#E2E2F0" style="stroke:#181818;stroke-width:1.5;"/><path d="M215.5,1004.4395 C215.5,1014.4395 233.5,1014.4395 233.5,1014.4395 C233.5,1014.4395 251.5,1014.4395 251.5,1004.4395 " fill="none" style="stroke:#181818;stroke-width:1.5;"/><text fill="#000000" font-family="sans-serif" font-size="14" lengthAdjust="spacing" textLength="47" x="391" y="110.5352">Foil DB</text><path d="M399.5,61 C399.5,51 417.5,51 417.5,51 C417.5,51 435.5,51 435.5,61 L435.5,87 C435.5,97 417.5,97 417.5,97 C417.5,97 399.5,97 399.5,87 L399.5,61 " fill="#E2E2F0" style="stroke:#181818;stroke-width:1.5;"/><path d="M399.5,61 C399.5,71 417.5,71 417.5,71 C417.5,71 435.5,71 435.5,61 " fill="none" style="stroke:#181818;stroke-width:1.5;"/><text fill="#000000" font-family="sans-serif" font-size="14" lengthAdjust="spacing" textLength="47" x="391" y="991.4863">Foil DB</text><path d="M399.5,1004.4395 C399.5,994.4395 417.5,994.4395 417.5,994.4395 C417.5,994.4395 435.5,994.4395 435.5,1004.4395 L435.5,1030.4395 C435.5,1040.4395 417.5,1040.4395 417.5,1040.4395 C417.5,1040.4395 399.5,1040.4395 399.5,1030.4395 L399.5,1004.4395 " fill="#E2E2F0" style="stroke:#181818;stroke-width:1.5;"/><path d="M399.5,1004.4395 C399.5,1014.4395 417.5,1014.4395 417.5,1014.4395 C417.5,1014.4395 435.5,1014.4395 435.5,1004.4395 " fill="none" style="stroke:#181818;stroke-width:1.5;"/><text fill="#000033" font-family="Helvetica" font-size="11" lengthAdjust="spacing" textLength="52" x="567.5" y="110.9585">Foil Holder</text><ellipse cx="596.5" cy="50.9883" fill="#44AAFF" rx="8" ry="8" style="stroke:#2277DD;stroke-width:0.5;"/><path d="M596.5,58.9883 L596.5,85.9883 M583.5,66.9883 L609.5,66.9883 M596.5,85.9883 L583.5,100.9883 M596.5,85.9883 L609.5,100.9883 " fill="none" style="stroke:#2277DD;stroke-width:0.5;"/><text fill="#000033" font-family="Helvetica" font-size="11" lengthAdjust="spacing" textLength="52" x="567.5" y="986.4214">Foil Holder</text><ellipse cx="596.5" cy="997.4512" fill="#44AAFF" rx="8" ry="8" style="stroke:#2277DD;stroke-width:0.5;"/><path d="M596.5,1005.4512 L596.5,1032.4512 M583.5,1013.4512 L609.5,1013.4512 M596.5,1032.4512 L583.5,1047.4512 M596.5,1032.4512 L609.5,1047.4512 " fill="none" style="stroke:#2277DD;stroke-width:0.5;"/><path d="M10,130.4883 L72,130.4883 L72,137.7988 L62,147.7988 L10,147.7988 L10,130.4883 " fill="#EEEEEE" style="stroke:#000000;stroke-width:1.5;"/><rect fill="none" height="535.8867" style="stroke:#000000;stroke-width:1.5;" width="625.5" x="10" y="130.4883"/><text fill="#000000" font-family="sans-serif" font-size="13" font-weight="bold" lengthAdjust="spacing" textLength="17" x="25" y="144.0566">alt</text><text fill="#000000" font-family="sans-serif" font-size="11" font-weight="bold" lengthAdjust="spacing" textLength="179" x="87" y="143.123">[Stock originates/validates chit]</text><line style="stroke:#000000;stroke-width:1.0;" x1="231.5" x2="221.5" y1="164.7988" y2="160.7988"/><line style="stroke:#000000;stroke-width:1.0;" x1="231.5" x2="221.5" y1="164.7988" y2="168.7988"/><line style="stroke:#000000;stroke-width:1.0;" x1="54.5" x2="232.5" y1="164.7988" y2="164.7988"/><text fill="#333333" font-family="Helvetica" font-size="11" lengthAdjust="spacing" textLength="155" x="61.5" y="160.269">Apply validating signature to chit</text><line style="stroke:#000000;stroke-width:1.0;" x1="415.5" x2="405.5" y1="211.7988" y2="207.7988"/><line style="stroke:#000000;stroke-width:1.0;" x1="415.5" x2="405.5" y1="211.7988" y2="215.7988"/><line style="stroke:#000000;stroke-width:1.0;" x1="233.5" x2="416.5" y1="211.7988" y2="211.7988"/><text fill="#333333" font-family="Helvetica" font-size="11" lengthAdjust="spacing" textLength="113" x="240.5" y="185.269">Transmit new valid Chit</text><text fill="#333333" font-family="Helvetica" font-size="11" lengthAdjust="spacing" textLength="115" x="240.5" y="196.269">with validating signature</text><text fill="#333333" font-family="Helvetica" font-size="11" lengthAdjust="spacing" textLength="148" x="240.5" y="207.269">Proposed endHash: propHash</text><line style="stroke:#000000;stroke-width:1.0;" x1="417.5" x2="459.5" y1="236.7988" y2="236.7988"/><line style="stroke:#000000;stroke-width:1.0;" x1="459.5" x2="459.5" y1="236.7988" y2="249.7988"/><line style="stroke:#000000;stroke-width:1.0;" x1="418.5" x2="459.5" y1="249.7988" y2="249.7988"/><line style="stroke:#000000;stroke-width:1.0;" x1="418.5" x2="428.5" y1="249.7988" y2="245.7988"/><line style="stroke:#000000;stroke-width:1.0;" x1="418.5" x2="428.5" y1="249.7988" y2="253.7988"/><text fill="#333333" font-family="Helvetica" font-size="11" lengthAdjust="spacing" textLength="106" x="424.5" y="232.269">Add/link new valid chit</text><path d="M191,264.7988 L253,264.7988 L253,272.1094 L243,282.1094 L191,282.1094 L191,264.7988 " fill="#EEEEEE" style="stroke:#000000;stroke-width:1.5;"/><rect fill="none" height="171.3105" style="stroke:#000000;stroke-width:1.5;" width="349.5" x="191" y="264.7988"/><text fill="#000000" font-family="sans-serif" font-size="13" font-weight="bold" lengthAdjust="spacing" textLength="17" x="206" y="278.3672">alt</text><text fill="#000000" font-family="sans-serif" font-size="11" font-weight="bold" lengthAdjust="spacing" textLength="246" x="268" y="277.4336">[Foil agrees with stock's proposed endhash]</text><line style="stroke:#000000;stroke-width:1.0;" x1="417.5" x2="459.5" y1="310.1094" y2="310.1094"/><line style="stroke:#000000;stroke-width:1.0;" x1="459.5" x2="459.5" y1="310.1094" y2="323.1094"/><line style="stroke:#000000;stroke-width:1.0;" x1="418.5" x2="459.5" y1="323.1094" y2="323.1094"/><line style="stroke:#000000;stroke-width:1.0;" x1="418.5" x2="428.5" y1="323.1094" y2="319.1094"/><line style="stroke:#000000;stroke-width:1.0;" x1="418.5" x2="428.5" y1="323.1094" y2="327.1094"/><text fill="#333333" font-family="Helvetica" font-size="11" lengthAdjust="spacing" textLength="78" x="424.5" y="294.5796">Ratchet forward</text><text fill="#333333" font-family="Helvetica" font-size="11" lengthAdjust="spacing" textLength="104" x="424.5" y="305.5796">ackHash = propHash</text><line style="stroke:#000000;stroke-width:1.0;" x1="234.5" x2="244.5" y1="348.1094" y2="344.1094"/><line style="stroke:#000000;stroke-width:1.0;" x1="234.5" x2="244.5" y1="348.1094" y2="352.1094"/><line style="stroke:#000000;stroke-width:1.0;" x1="233.5" x2="416.5" y1="348.1094" y2="348.1094"/><text fill="#333333" font-family="Helvetica" font-size="11" lengthAdjust="spacing" textLength="116" x="250.5" y="343.5796">Acknowledge propHash</text><line style="stroke:#000000;stroke-width:1.0;" x1="233.5" x2="275.5" y1="384.1094" y2="384.1094"/><line style="stroke:#000000;stroke-width:1.0;" x1="275.5" x2="275.5" y1="384.1094" y2="397.1094"/><line style="stroke:#000000;stroke-width:1.0;" x1="234.5" x2="275.5" y1="397.1094" y2="397.1094"/><line style="stroke:#000000;stroke-width:1.0;" x1="234.5" x2="244.5" y1="397.1094" y2="393.1094"/><line style="stroke:#000000;stroke-width:1.0;" x1="234.5" x2="244.5" y1="397.1094" y2="401.1094"/><text fill="#333333" font-family="Helvetica" font-size="11" lengthAdjust="spacing" textLength="78" x="240.5" y="368.5796">Ratchet forward</text><text fill="#333333" font-family="Helvetica" font-size="11" lengthAdjust="spacing" textLength="104" x="240.5" y="379.5796">ackHash = propHash</text><path d="M207,410.1094 L207,431.1094 L260,431.1094 L260,420.1094 L250,410.1094 L207,410.1094 " fill="#E8E8EA" style="stroke:#202024;stroke-width:0.5;"/><path d="M250,410.1094 L250,420.1094 L260,420.1094 L250,410.1094 " fill="#E8E8EA" style="stroke:#202024;stroke-width:0.5;"/><text fill="#000033" font-family="Helvetica" font-size="11" lengthAdjust="spacing" textLength="32" x="213" y="423.5796">DONE</text><line style="stroke:#000000;stroke-width:1.0;stroke-dasharray:2.0,2.0;" x1="10" x2="635.5" y1="444.1094" y2="444.1094"/><text fill="#000000" font-family="sans-serif" font-size="11" font-weight="bold" lengthAdjust="spacing" textLength="170" x="15" y="454.7441">[Foil originates/validates chit]</text><line style="stroke:#000000;stroke-width:1.0;" x1="418.5" x2="428.5" y1="475.0645" y2="471.0645"/><line style="stroke:#000000;stroke-width:1.0;" x1="418.5" x2="428.5" y1="475.0645" y2="479.0645"/><line style="stroke:#000000;stroke-width:1.0;" x1="417.5" x2="595.5" y1="475.0645" y2="475.0645"/><text fill="#333333" font-family="Helvetica" font-size="11" lengthAdjust="spacing" textLength="155" x="434.5" y="470.5347">Apply validating signature to chit</text><line style="stroke:#000000;stroke-width:1.0;" x1="234.5" x2="244.5" y1="522.0645" y2="518.0645"/><line style="stroke:#000000;stroke-width:1.0;" x1="234.5" x2="244.5" y1="522.0645" y2="526.0645"/><line style="stroke:#000000;stroke-width:1.0;" x1="233.5" x2="416.5" y1="522.0645" y2="522.0645"/><text fill="#333333" font-family="Helvetica" font-size="11" lengthAdjust="spacing" textLength="113" x="250.5" y="495.5347">Transmit new valid Chit</text><text fill="#333333" font-family="Helvetica" font-size="11" lengthAdjust="spacing" textLength="115" x="250.5" y="506.5347">with validating signature</text><text fill="#333333" font-family="Helvetica" font-size="11" lengthAdjust="spacing" textLength="89" x="250.5" y="517.5347">And new endHash</text><path d="M191,537.0645 L253,537.0645 L253,544.375 L243,554.375 L191,554.375 L191,537.0645 " fill="#EEEEEE" style="stroke:#000000;stroke-width:1.5;"/><rect fill="none" height="97.3105" style="stroke:#000000;stroke-width:1.5;" width="266" x="191" y="537.0645"/><text fill="#000000" font-family="sans-serif" font-size="13" font-weight="bold" lengthAdjust="spacing" textLength="17" x="206" y="550.6328">alt</text><text fill="#000000" font-family="sans-serif" font-size="11" font-weight="bold" lengthAdjust="spacing" textLength="184" x="268" y="549.6992">[Stock agrees with new endHash]</text><line style="stroke:#000000;stroke-width:1.0;" x1="233.5" x2="275.5" y1="582.375" y2="582.375"/><line style="stroke:#000000;stroke-width:1.0;" x1="275.5" x2="275.5" y1="582.375" y2="595.375"/><line style="stroke:#000000;stroke-width:1.0;" x1="234.5" x2="275.5" y1="595.375" y2="595.375"/><line style="stroke:#000000;stroke-width:1.0;" x1="234.5" x2="244.5" y1="595.375" y2="591.375"/><line style="stroke:#000000;stroke-width:1.0;" x1="234.5" x2="244.5" y1="595.375" y2="599.375"/><text fill="#333333" font-family="Helvetica" font-size="11" lengthAdjust="spacing" textLength="78" x="240.5" y="566.8452">Ratchet forward</text><text fill="#333333" font-family="Helvetica" font-size="11" lengthAdjust="spacing" textLength="100" x="240.5" y="577.8452">ackHash = endHash</text><path d="M207,608.375 L207,629.375 L260,629.375 L260,618.375 L250,608.375 L207,608.375 " fill="#E8E8EA" style="stroke:#202024;stroke-width:0.5;"/><path d="M250,608.375 L250,618.375 L260,618.375 L250,608.375 " fill="#E8E8EA" style="stroke:#202024;stroke-width:0.5;"/><text fill="#000033" font-family="Helvetica" font-size="11" lengthAdjust="spacing" textLength="32" x="213" y="621.8452">DONE</text><line style="stroke:#000000;stroke-width:1.0;" x1="415.5" x2="405.5" y1="658.375" y2="654.375"/><line style="stroke:#000000;stroke-width:1.0;" x1="415.5" x2="405.5" y1="658.375" y2="662.375"/><line style="stroke:#000000;stroke-width:1.0;" x1="233.5" x2="416.5" y1="658.375" y2="658.375"/><text fill="#333333" font-family="Helvetica" font-size="11" lengthAdjust="spacing" textLength="160" x="240.5" y="653.8452">Compare my list of unlinked chits</text><line style="stroke:#000000;stroke-width:1.0;" x1="234.5" x2="244.5" y1="701.375" y2="697.375"/><line style="stroke:#000000;stroke-width:1.0;" x1="234.5" x2="244.5" y1="701.375" y2="705.375"/><line style="stroke:#000000;stroke-width:1.0;" x1="233.5" x2="416.5" y1="701.375" y2="701.375"/><text fill="#333333" font-family="Helvetica" font-size="11" lengthAdjust="spacing" textLength="147" x="250.5" y="685.8452">Send chits since last ackHash</text><text fill="#333333" font-family="Helvetica" font-size="11" lengthAdjust="spacing" textLength="88" x="250.5" y="696.8452">and new endHash</text><path d="M10,716.375 L72,716.375 L72,723.6855 L62,733.6855 L10,733.6855 L10,716.375 " fill="#EEEEEE" style="stroke:#000000;stroke-width:1.5;"/><rect fill="none" height="167.2656" style="stroke:#000000;stroke-width:1.5;" width="625.5" x="10" y="716.375"/><text fill="#000000" font-family="sans-serif" font-size="13" font-weight="bold" lengthAdjust="spacing" textLength="17" x="25" y="729.9434">alt</text><text fill="#000000" font-family="sans-serif" font-size="11" font-weight="bold" lengthAdjust="spacing" textLength="195" x="87" y="729.0098">[All newly received chits are valid]</text><line style="stroke:#000000;stroke-width:1.0;" x1="233.5" x2="275.5" y1="772.6855" y2="772.6855"/><line style="stroke:#000000;stroke-width:1.0;" x1="275.5" x2="275.5" y1="772.6855" y2="785.6855"/><line style="stroke:#000000;stroke-width:1.0;" x1="234.5" x2="275.5" y1="785.6855" y2="785.6855"/><line style="stroke:#000000;stroke-width:1.0;" x1="234.5" x2="244.5" y1="785.6855" y2="781.6855"/><line style="stroke:#000000;stroke-width:1.0;" x1="234.5" x2="244.5" y1="785.6855" y2="789.6855"/><text fill="#333333" font-family="Helvetica" font-size="11" lengthAdjust="spacing" textLength="53" x="240.5" y="746.1558">Apply chits</text><text fill="#333333" font-family="Helvetica" font-size="11" lengthAdjust="spacing" textLength="78" x="240.5" y="757.1558">Ratchet forward</text><text fill="#333333" font-family="Helvetica" font-size="11" lengthAdjust="spacing" textLength="100" x="240.5" y="768.1558">ackHash = endHash</text><line style="stroke:#000000;stroke-width:1.0;stroke-dasharray:2.0,2.0;" x1="10" x2="635.5" y1="794.6855" y2="794.6855"/><text fill="#000000" font-family="sans-serif" font-size="11" font-weight="bold" lengthAdjust="spacing" textLength="214" x="15" y="805.3203">[Can't reconcile/accept received chits]</text><line style="stroke:#000000;stroke-width:1.0;" x1="55.5" x2="65.5" y1="825.6406" y2="821.6406"/><line style="stroke:#000000;stroke-width:1.0;" x1="55.5" x2="65.5" y1="825.6406" y2="829.6406"/><line style="stroke:#000000;stroke-width:1.0;" x1="54.5" x2="232.5" y1="825.6406" y2="825.6406"/><text fill="#333333" font-family="Helvetica" font-size="11" lengthAdjust="spacing" textLength="97" x="71.5" y="821.1108">Report error to user</text><line style="stroke:#000000;stroke-width:1.0;" x1="415.5" x2="405.5" y1="850.6406" y2="846.6406"/><line style="stroke:#000000;stroke-width:1.0;" x1="415.5" x2="405.5" y1="850.6406" y2="854.6406"/><line style="stroke:#000000;stroke-width:1.0;" x1="233.5" x2="416.5" y1="850.6406" y2="850.6406"/><text fill="#333333" font-family="Helvetica" font-size="11" lengthAdjust="spacing" textLength="60" x="240.5" y="846.1108">Report error</text><line style="stroke:#000000;stroke-width:1.0;" x1="594.5" x2="584.5" y1="875.6406" y2="871.6406"/><line style="stroke:#000000;stroke-width:1.0;" x1="594.5" x2="584.5" y1="875.6406" y2="879.6406"/><line style="stroke:#000000;stroke-width:1.0;" x1="417.5" x2="595.5" y1="875.6406" y2="875.6406"/><text fill="#333333" font-family="Helvetica" font-size="11" lengthAdjust="spacing" textLength="97" x="424.5" y="871.1108">Report error to user</text><path d="M191,897.6406 L253,897.6406 L253,904.9512 L243,914.9512 L191,914.9512 L191,897.6406 " fill="#EEEEEE" style="stroke:#000000;stroke-width:1.5;"/><rect fill="none" height="64.3105" style="stroke:#000000;stroke-width:1.5;" width="340" x="191" y="897.6406"/><text fill="#000000" font-family="sans-serif" font-size="13" font-weight="bold" lengthAdjust="spacing" textLength="17" x="206" y="911.209">alt</text><text fill="#000000" font-family="sans-serif" font-size="11" font-weight="bold" lengthAdjust="spacing" textLength="258" x="268" y="910.2754">[Does foil still have any valid, unlinked chits]</text><line style="stroke:#000000;stroke-width:1.0;" x1="415.5" x2="405.5" y1="953.9512" y2="949.9512"/><line style="stroke:#000000;stroke-width:1.0;" x1="415.5" x2="405.5" y1="953.9512" y2="957.9512"/><line style="stroke:#000000;stroke-width:1.0;" x1="233.5" x2="416.5" y1="953.9512" y2="953.9512"/><text fill="#333333" font-family="Helvetica" font-size="11" lengthAdjust="spacing" textLength="107" x="240.5" y="927.4214">Requeue/retry regular</text><text fill="#333333" font-family="Helvetica" font-size="11" lengthAdjust="spacing" textLength="110" x="240.5" y="938.4214">chit transmission to foil</text><text fill="#333333" font-family="Helvetica" font-size="11" lengthAdjust="spacing" textLength="121" x="240.5" y="949.4214">(return to top of diagram)</text><text fill="#888888" font-family="sans-serif" font-size="10" lengthAdjust="spacing" textLength="142" x="251.25" y="1059.6191">Fri Feb 10 23:38:59 MST 2023</text><!--SRC=[dLHDRzim33t7lu8h1hG5jkKUO0MoP4DFsx3kw0ihiROGcV8aEK7__IWf7fpKAxBTPF7ZFJu-wurXPGTDe5pNEVxG3vsjtaOJBTriMXDXqw9Xs3WEn648yDsxw9IpjnMgw3nSFSZd3kwTrUIl00FiYRNpbSQ8ZnXepDX-oj6GFYR1ByxOCVOavx5jlfzqLTOGnwf26w4qTDuqXZ5IMExH6frEe8Hp1KSEY_TtTuiCk5eirdrld-6OQRY1O1gf7Zn1T6DTJbxakaH6odvwvD2944o7KWr9bveF9hQpxMeMZNeNI8EmkCVGhg2NctGIYDJt166jzT8QtaqGCXl9JSDc8R3n9DDbpCpnEkIU8qfRUizq_u5HjHGbu0_eTSseTea9V9oIcXR-4Kpjs1qiwOPEKoSYZRcNeh2B16vFlZHPmVRRryyIaH6gYgmO8e_xscgB4Ku4l6IpB-VxdyskMUVqusB77HL3JfSqJVftpQQLhqa6CElPZUjwbEcxPx0cH71FC72o61LhXIhh_LAI1xal6J8qAmABKdxa9GJFfa_qyW-vjZO5P0kU59dzY0E9HLQocfMWR2wdrdo17jaX6-Jhc80SAsDfYKfH7y-GJ_7ASv0qfzxv2EIzl35YZY6GdvLmcdZYdcA_lxNAkYP5jexAUoQzZQZJufu0-MZJT-VxcAVmQw21bfwYJy8sWqLVSog0MBmRWd6Sm5D9pJUIElXy4LsVrgwDc1AxsqpiDm00]--></g></svg>