<?xml version="1.0" encoding="UTF-8" standalone="no"?><svg xmlns="http://www.w3.org/2000/svg" xmlns:xlink="http://www.w3.org/1999/xlink" contentStyleType="text/css" height="723px" preserveAspectRatio="none" style="width:504px;height:723px;background:#FFFFFF;" version="1.1" viewBox="0 0 504 723" width="504px" zoomAndPan="magnify"><defs/><g><text fill="#000000" font-family="sans-serif" font-size="14" font-weight="bold" lengthAdjust="spacing" textLength="164" x="171.25" y="28.5352">Route Query Response</text><rect fill="none" height="164.5313" style="stroke:#000000;stroke-width:1.5;" width="464.5" x="33" y="146.9766"/><rect fill="none" height="53.3105" style="stroke:#000000;stroke-width:1.5;" width="306" x="181.5" y="251.1973"/><rect fill="none" height="225.2656" style="stroke:#000000;stroke-width:1.5;" width="430" x="10" y="356.5078"/><line style="stroke:#44AAFF;stroke-width:0.5;stroke-dasharray:5.0,5.0;" x1="100" x2="100" y1="104.9766" y2="640.7734"/><line style="stroke:#44AAFF;stroke-width:0.5;stroke-dasharray:5.0,5.0;" x1="222.5" x2="222.5" y1="104.9766" y2="640.7734"/><line style="stroke:#44AAFF;stroke-width:0.5;stroke-dasharray:5.0,5.0;" x1="350" x2="350" y1="104.9766" y2="640.7734"/><text fill="#000000" font-family="sans-serif" font-size="14" lengthAdjust="spacing" textLength="108" x="43" y="102.0234">Downstream DB</text><path d="M82,52.4883 C82,42.4883 100,42.4883 100,42.4883 C100,42.4883 118,42.4883 118,52.4883 L118,78.4883 C118,88.4883 100,88.4883 100,88.4883 C100,88.4883 82,88.4883 82,78.4883 L82,52.4883 " fill="#E2E2F0" style="stroke:#181818;stroke-width:1.5;"/><path d="M82,52.4883 C82,62.4883 100,62.4883 100,62.4883 C100,62.4883 118,62.4883 118,52.4883 " fill="none" style="stroke:#181818;stroke-width:1.5;"/><text fill="#000000" font-family="sans-serif" font-size="14" lengthAdjust="spacing" textLength="108" x="43" y="653.3086">Downstream DB</text><path d="M82,666.2617 C82,656.2617 100,656.2617 100,656.2617 C100,656.2617 118,656.2617 118,666.2617 L118,692.2617 C118,702.2617 100,702.2617 100,702.2617 C100,702.2617 82,702.2617 82,692.2617 L82,666.2617 " fill="#E2E2F0" style="stroke:#181818;stroke-width:1.5;"/><path d="M82,666.2617 C82,676.2617 100,676.2617 100,676.2617 C100,676.2617 118,676.2617 118,666.2617 " fill="none" style="stroke:#181818;stroke-width:1.5;"/><text fill="#000000" font-family="sans-serif" font-size="14" lengthAdjust="spacing" textLength="57" x="191.5" y="102.0234">Local DB</text><path d="M205,52.4883 C205,42.4883 223,42.4883 223,42.4883 C223,42.4883 241,42.4883 241,52.4883 L241,78.4883 C241,88.4883 223,88.4883 223,88.4883 C223,88.4883 205,88.4883 205,78.4883 L205,52.4883 " fill="#E2E2F0" style="stroke:#181818;stroke-width:1.5;"/><path d="M205,52.4883 C205,62.4883 223,62.4883 223,62.4883 C223,62.4883 241,62.4883 241,52.4883 " fill="none" style="stroke:#181818;stroke-width:1.5;"/><text fill="#000000" font-family="sans-serif" font-size="14" lengthAdjust="spacing" textLength="57" x="191.5" y="653.3086">Local DB</text><path d="M205,666.2617 C205,656.2617 223,656.2617 223,656.2617 C223,656.2617 241,656.2617 241,666.2617 L241,692.2617 C241,702.2617 223,702.2617 223,702.2617 C223,702.2617 205,702.2617 205,692.2617 L205,666.2617 " fill="#E2E2F0" style="stroke:#181818;stroke-width:1.5;"/><path d="M205,666.2617 C205,676.2617 223,676.2617 223,676.2617 C223,676.2617 241,676.2617 241,666.2617 " fill="none" style="stroke:#181818;stroke-width:1.5;"/><text fill="#000000" font-family="sans-serif" font-size="14" lengthAdjust="spacing" textLength="88" x="303" y="102.0234">Upstream DB</text><path d="M332,52.4883 C332,42.4883 350,42.4883 350,42.4883 C350,42.4883 368,42.4883 368,52.4883 L368,78.4883 C368,88.4883 350,88.4883 350,88.4883 C350,88.4883 332,88.4883 332,78.4883 L332,52.4883 " fill="#E2E2F0" style="stroke:#181818;stroke-width:1.5;"/><path d="M332,52.4883 C332,62.4883 350,62.4883 350,62.4883 C350,62.4883 368,62.4883 368,52.4883 " fill="none" style="stroke:#181818;stroke-width:1.5;"/><text fill="#000000" font-family="sans-serif" font-size="14" lengthAdjust="spacing" textLength="88" x="303" y="653.3086">Upstream DB</text><path d="M332,666.2617 C332,656.2617 350,656.2617 350,656.2617 C350,656.2617 368,656.2617 368,666.2617 L368,692.2617 C368,702.2617 350,702.2617 350,702.2617 C350,702.2617 332,702.2617 332,692.2617 L332,666.2617 " fill="#E2E2F0" style="stroke:#181818;stroke-width:1.5;"/><path d="M332,666.2617 C332,676.2617 350,676.2617 350,676.2617 C350,676.2617 368,676.2617 368,666.2617 " fill="none" style="stroke:#181818;stroke-width:1.5;"/><line style="stroke:#000000;stroke-width:1.0;" x1="221" x2="211" y1="131.9766" y2="127.9766"/><line style="stroke:#000000;stroke-width:1.0;" x1="221" x2="211" y1="131.9766" y2="135.9766"/><line style="stroke:#000000;stroke-width:1.0;" x1="100" x2="222" y1="131.9766" y2="131.9766"/><text fill="#333333" font-family="Helvetica" font-size="11" lengthAdjust="spacing" textLength="99" x="107" y="127.4468">Receive route query</text><path d="M33,146.9766 L95,146.9766 L95,154.2871 L85,164.2871 L33,164.2871 L33,146.9766 " fill="#EEEEEE" style="stroke:#000000;stroke-width:1.5;"/><rect fill="none" height="164.5313" style="stroke:#000000;stroke-width:1.5;" width="464.5" x="33" y="146.9766"/><text fill="#000000" font-family="sans-serif" font-size="13" font-weight="bold" lengthAdjust="spacing" textLength="17" x="48" y="160.5449">alt</text><text fill="#000000" font-family="sans-serif" font-size="11" font-weight="bold" lengthAdjust="spacing" textLength="180" x="110" y="159.6113">[Route impossible via this path]</text><line style="stroke:#000000;stroke-width:1.0;" x1="101" x2="111" y1="181.2871" y2="177.2871"/><line style="stroke:#000000;stroke-width:1.0;" x1="101" x2="111" y1="181.2871" y2="185.2871"/><line style="stroke:#000000;stroke-width:1.0;" x1="100" x2="222" y1="181.2871" y2="181.2871"/><text fill="#333333" font-family="Helvetica" font-size="11" lengthAdjust="spacing" textLength="90" x="117" y="176.7573">Reply action: none</text><line style="stroke:#000000;stroke-width:1.0;stroke-dasharray:2.0,2.0;" x1="33" x2="497.5" y1="190.2871" y2="190.2871"/><text fill="#000000" font-family="sans-serif" font-size="11" font-weight="bold" lengthAdjust="spacing" textLength="178" x="38" y="200.9219">[Destination peer found locally]</text><line style="stroke:#000000;stroke-width:1.0;" x1="101" x2="111" y1="221.2422" y2="217.2422"/><line style="stroke:#000000;stroke-width:1.0;" x1="101" x2="111" y1="221.2422" y2="225.2422"/><line style="stroke:#000000;stroke-width:1.0;" x1="100" x2="222" y1="221.2422" y2="221.2422"/><text fill="#333333" font-family="Helvetica" font-size="11" lengthAdjust="spacing" textLength="90" x="117" y="216.7124">Reply action: good</text><line style="stroke:#000000;stroke-width:1.0;stroke-dasharray:2.0,2.0;" x1="33" x2="497.5" y1="230.2422" y2="230.2422"/><text fill="#000000" font-family="sans-serif" font-size="11" font-weight="bold" lengthAdjust="spacing" textLength="200" x="38" y="240.877">[Destination peer not found locally]</text><path d="M181.5,251.1973 L255.5,251.1973 L255.5,258.5078 L245.5,268.5078 L181.5,268.5078 L181.5,251.1973 " fill="#EEEEEE" style="stroke:#000000;stroke-width:1.5;"/><rect fill="none" height="53.3105" style="stroke:#000000;stroke-width:1.5;" width="306" x="181.5" y="251.1973"/><text fill="#000000" font-family="sans-serif" font-size="13" font-weight="bold" lengthAdjust="spacing" textLength="29" x="196.5" y="264.7656">loop</text><text fill="#000000" font-family="sans-serif" font-size="11" font-weight="bold" lengthAdjust="spacing" textLength="212" x="270.5" y="263.832">[On upstream peers with lift capacity]</text><line style="stroke:#000000;stroke-width:1.0;" x1="348" x2="338" y1="296.5078" y2="292.5078"/><line style="stroke:#000000;stroke-width:1.0;" x1="348" x2="338" y1="296.5078" y2="300.5078"/><line style="stroke:#000000;stroke-width:1.0;" x1="223" x2="349" y1="296.5078" y2="296.5078"/><text fill="#333333" font-family="Helvetica" font-size="11" lengthAdjust="spacing" textLength="100" x="230" y="280.978">Create draft route(s)</text><text fill="#333333" font-family="Helvetica" font-size="11" lengthAdjust="spacing" textLength="80" x="230" y="291.978">Query upstream</text><path d="M120,323.5078 L120,344.5078 L325,344.5078 L325,333.5078 L315,323.5078 L120,323.5078 " fill="#E8E8EA" style="stroke:#202024;stroke-width:0.5;"/><path d="M315,323.5078 L315,333.5078 L325,333.5078 L315,323.5078 " fill="#E8E8EA" style="stroke:#202024;stroke-width:0.5;"/><text fill="#000033" font-family="Helvetica" font-size="11" lengthAdjust="spacing" textLength="184" x="126" y="336.978">new route status indeterminate (pend)</text><path d="M10,356.5078 L72,356.5078 L72,363.8184 L62,373.8184 L10,373.8184 L10,356.5078 " fill="#EEEEEE" style="stroke:#000000;stroke-width:1.5;"/><rect fill="none" height="225.2656" style="stroke:#000000;stroke-width:1.5;" width="430" x="10" y="356.5078"/><text fill="#000000" font-family="sans-serif" font-size="13" font-weight="bold" lengthAdjust="spacing" textLength="17" x="25" y="370.0762">alt</text><text fill="#000000" font-family="sans-serif" font-size="11" font-weight="bold" lengthAdjust="spacing" textLength="110" x="87" y="369.1426">[Negative response]</text><line style="stroke:#000000;stroke-width:1.0;" x1="224" x2="234" y1="390.8184" y2="386.8184"/><line style="stroke:#000000;stroke-width:1.0;" x1="224" x2="234" y1="390.8184" y2="394.8184"/><line style="stroke:#000000;stroke-width:1.0;" x1="223" x2="349" y1="390.8184" y2="390.8184"/><text fill="#333333" font-family="Helvetica" font-size="11" lengthAdjust="spacing" textLength="83" x="240" y="386.2886">Route impossible</text><line style="stroke:#000000;stroke-width:1.0;" x1="223" x2="265" y1="415.8184" y2="415.8184"/><line style="stroke:#000000;stroke-width:1.0;" x1="265" x2="265" y1="415.8184" y2="428.8184"/><line style="stroke:#000000;stroke-width:1.0;" x1="224" x2="265" y1="428.8184" y2="428.8184"/><line style="stroke:#000000;stroke-width:1.0;" x1="224" x2="234" y1="428.8184" y2="424.8184"/><line style="stroke:#000000;stroke-width:1.0;" x1="224" x2="234" y1="428.8184" y2="432.8184"/><text fill="#333333" font-family="Helvetica" font-size="11" lengthAdjust="spacing" textLength="113" x="230" y="411.2886">Set route status = none</text><path d="M20,441.8184 L20,473.8184 L430,473.8184 L430,451.8184 L420,441.8184 L20,441.8184 " fill="#E8E8EA" style="stroke:#202024;stroke-width:0.5;"/><path d="M420,441.8184 L420,451.8184 L430,451.8184 L420,441.8184 " fill="#E8E8EA" style="stroke:#202024;stroke-width:0.5;"/><text fill="#000033" font-family="Helvetica" font-size="11" lengthAdjust="spacing" textLength="389" x="26" y="455.2886">No downstream failure reply is made because there may be multiple such routes</text><text fill="#000033" font-family="Helvetica" font-size="11" lengthAdjust="spacing" textLength="310" x="26" y="466.2886">at this level, all leading back through the same downstream tally.</text><line style="stroke:#000000;stroke-width:1.0;stroke-dasharray:2.0,2.0;" x1="10" x2="440" y1="479.8184" y2="479.8184"/><text fill="#000000" font-family="sans-serif" font-size="11" font-weight="bold" lengthAdjust="spacing" textLength="107" x="15" y="490.4531">[Positive response]</text><line style="stroke:#000000;stroke-width:1.0;" x1="224" x2="234" y1="510.7734" y2="506.7734"/><line style="stroke:#000000;stroke-width:1.0;" x1="224" x2="234" y1="510.7734" y2="514.7734"/><line style="stroke:#000000;stroke-width:1.0;" x1="223" x2="349" y1="510.7734" y2="510.7734"/><text fill="#333333" font-family="Helvetica" font-size="11" lengthAdjust="spacing" textLength="56" x="240" y="506.2437">Route good</text><line style="stroke:#000000;stroke-width:1.0;" x1="223" x2="265" y1="535.7734" y2="535.7734"/><line style="stroke:#000000;stroke-width:1.0;" x1="265" x2="265" y1="535.7734" y2="548.7734"/><line style="stroke:#000000;stroke-width:1.0;" x1="224" x2="265" y1="548.7734" y2="548.7734"/><line style="stroke:#000000;stroke-width:1.0;" x1="224" x2="234" y1="548.7734" y2="544.7734"/><line style="stroke:#000000;stroke-width:1.0;" x1="224" x2="234" y1="548.7734" y2="552.7734"/><text fill="#333333" font-family="Helvetica" font-size="11" lengthAdjust="spacing" textLength="113" x="230" y="531.2437">Set route status = good</text><line style="stroke:#000000;stroke-width:1.0;" x1="101" x2="111" y1="573.7734" y2="569.7734"/><line style="stroke:#000000;stroke-width:1.0;" x1="101" x2="111" y1="573.7734" y2="577.7734"/><line style="stroke:#000000;stroke-width:1.0;" x1="100" x2="222" y1="573.7734" y2="573.7734"/><text fill="#333333" font-family="Helvetica" font-size="11" lengthAdjust="spacing" textLength="90" x="117" y="569.2437">Reply action: good</text><path d="M151,593.7734 L151,625.7734 L295,625.7734 L295,603.7734 L285,593.7734 L151,593.7734 " fill="#E8E8EA" style="stroke:#202024;stroke-width:0.5;"/><path d="M285,593.7734 L285,603.7734 L295,603.7734 L285,593.7734 " fill="#E8E8EA" style="stroke:#202024;stroke-width:0.5;"/><text fill="#000033" font-family="Helvetica" font-size="11" lengthAdjust="spacing" textLength="123" x="157" y="607.2437">routes will eventually time</text><text fill="#000033" font-family="Helvetica" font-size="11" lengthAdjust="spacing" textLength="117" x="157" y="618.2437">out and become expired</text><text fill="#888888" font-family="sans-serif" font-size="10" lengthAdjust="spacing" textLength="142" x="182.25" y="712.9297">Fri Feb 10 23:38:42 MST 2023</text><!--SRC=[ZLBBRXin33nRNy441Me3QJx0G7D8VIpIraLllj0IxHMgLrQKNVzzgTMwy0PEuSC2Mf4S3MVcpWRjYY7GqViO7bFnJdrWouxcwrYOu4UX_WHhoYc6J0jba76BcU1-5OyXSq_eOVLy3vZ1oCtg-QBbQzJepbLNVoRbNsawNvAKLKEPVNfwceqZozcQDDa3GJzmUgsSb4B7q4XQdsBETki83XQ1EviX8NSApgyES0sveYLt0jHiOrX2Y86K8YUCLfJP1gpta8XwsCKIJCDmfvlGzZ6Qzz12v2k8CS6t8BkFMjJE34VB7JYxOz2OK5kklTFtgrfB-293ee3fKNe7UUPviGdDjZEep58mgdvo51e4yI24plf2eEEeRMRaai46Gqozh_m9vab65p8wQFv2UrcgkZ6cGWgLpDIosLjhtiZth_4dyVJjpysIZpURTxbIQtk0fivB72v6QNTeNUahxmeX6V4eqT-InY9sSKTIytYI6_35iKsIfrnqr-ZbZMZHikNeGEu1n48veh5X3rlKlwKedVkkGa56JvUFSpNyiMeuXEDxpFPc4OTGtIxVbVR_XZMOwwbeQqiMPK_PE72fEm1RJviWDK29iiWNPLFwasnFHlq5]--></g></svg>