<?xml version="1.0" encoding="UTF-8" standalone="no"?><svg xmlns="http://www.w3.org/2000/svg" xmlns:xlink="http://www.w3.org/1999/xlink" contentStyleType="text/css" height="771px" preserveAspectRatio="none" style="width:542px;height:771px;background:#FFFFFF;" version="1.1" viewBox="0 0 542 771" width="542px" zoomAndPan="magnify"><defs/><g><text fill="#000000" font-family="sans-serif" font-size="14" font-weight="bold" lengthAdjust="spacing" textLength="134" x="205" y="28.5352">Chit Direct Invoice</text><rect fill="none" height="446.8418" style="stroke:#000000;stroke-width:1.5;" width="525" x="10" y="216.4883"/><rect fill="none" height="42.3105" style="stroke:#000000;stroke-width:1.5;" width="245.5" x="128.5" y="346.7988"/><rect fill="none" height="42.3105" style="stroke:#000000;stroke-width:1.5;" width="194.5" x="20" y="418.0645"/><line style="stroke:#44AAFF;stroke-width:0.5;stroke-dasharray:5.0,5.0;" x1="47" x2="47" y1="113.4883" y2="680.3301"/><line style="stroke:#44AAFF;stroke-width:0.5;stroke-dasharray:5.0,5.0;" x1="171.5" x2="171.5" y1="113.4883" y2="680.3301"/><line style="stroke:#44AAFF;stroke-width:0.5;stroke-dasharray:5.0,5.0;" x1="321" x2="321" y1="113.4883" y2="680.3301"/><line style="stroke:#44AAFF;stroke-width:0.5;stroke-dasharray:5.0,5.0;" x1="446.5" x2="446.5" y1="113.4883" y2="680.3301"/><text fill="#000033" font-family="Helvetica" font-size="11" lengthAdjust="spacing" textLength="29" x="30" y="110.9585">Payor</text><ellipse cx="47.5" cy="50.9883" fill="#44AAFF" rx="8" ry="8" style="stroke:#2277DD;stroke-width:0.5;"/><path d="M47.5,58.9883 L47.5,85.9883 M34.5,66.9883 L60.5,66.9883 M47.5,85.9883 L34.5,100.9883 M47.5,85.9883 L60.5,100.9883 " fill="none" style="stroke:#2277DD;stroke-width:0.5;"/><text fill="#000033" font-family="Helvetica" font-size="11" lengthAdjust="spacing" textLength="29" x="30" y="687.8003">Payor</text><ellipse cx="47.5" cy="698.8301" fill="#44AAFF" rx="8" ry="8" style="stroke:#2277DD;stroke-width:0.5;"/><path d="M47.5,706.8301 L47.5,733.8301 M34.5,714.8301 L60.5,714.8301 M47.5,733.8301 L34.5,748.8301 M47.5,733.8301 L60.5,748.8301 " fill="none" style="stroke:#2277DD;stroke-width:0.5;"/><text fill="#000000" font-family="sans-serif" font-size="14" lengthAdjust="spacing" textLength="60" x="138.5" y="110.5352">Payor DB</text><path d="M153.5,61 C153.5,51 171.5,51 171.5,51 C171.5,51 189.5,51 189.5,61 L189.5,87 C189.5,97 171.5,97 171.5,97 C171.5,97 153.5,97 153.5,87 L153.5,61 " fill="#E2E2F0" style="stroke:#181818;stroke-width:1.5;"/><path d="M153.5,61 C153.5,71 171.5,71 171.5,71 C171.5,71 189.5,71 189.5,61 " fill="none" style="stroke:#181818;stroke-width:1.5;"/><text fill="#000000" font-family="sans-serif" font-size="14" lengthAdjust="spacing" textLength="60" x="138.5" y="692.8652">Payor DB</text><path d="M153.5,705.8184 C153.5,695.8184 171.5,695.8184 171.5,695.8184 C171.5,695.8184 189.5,695.8184 189.5,705.8184 L189.5,731.8184 C189.5,741.8184 171.5,741.8184 171.5,741.8184 C171.5,741.8184 153.5,741.8184 153.5,731.8184 L153.5,705.8184 " fill="#E2E2F0" style="stroke:#181818;stroke-width:1.5;"/><path d="M153.5,705.8184 C153.5,715.8184 171.5,715.8184 171.5,715.8184 C171.5,715.8184 189.5,715.8184 189.5,705.8184 " fill="none" style="stroke:#181818;stroke-width:1.5;"/><text fill="#000000" font-family="sans-serif" font-size="14" lengthAdjust="spacing" textLength="79" x="279" y="110.5352">Receiver DB</text><path d="M303.5,61 C303.5,51 321.5,51 321.5,51 C321.5,51 339.5,51 339.5,61 L339.5,87 C339.5,97 321.5,97 321.5,97 C321.5,97 303.5,97 303.5,87 L303.5,61 " fill="#E2E2F0" style="stroke:#181818;stroke-width:1.5;"/><path d="M303.5,61 C303.5,71 321.5,71 321.5,71 C321.5,71 339.5,71 339.5,61 " fill="none" style="stroke:#181818;stroke-width:1.5;"/><text fill="#000000" font-family="sans-serif" font-size="14" lengthAdjust="spacing" textLength="79" x="279" y="692.8652">Receiver DB</text><path d="M303.5,705.8184 C303.5,695.8184 321.5,695.8184 321.5,695.8184 C321.5,695.8184 339.5,695.8184 339.5,705.8184 L339.5,731.8184 C339.5,741.8184 321.5,741.8184 321.5,741.8184 C321.5,741.8184 303.5,741.8184 303.5,731.8184 L303.5,705.8184 " fill="#E2E2F0" style="stroke:#181818;stroke-width:1.5;"/><path d="M303.5,705.8184 C303.5,715.8184 321.5,715.8184 321.5,715.8184 C321.5,715.8184 339.5,715.8184 339.5,705.8184 " fill="none" style="stroke:#181818;stroke-width:1.5;"/><text fill="#000033" font-family="Helvetica" font-size="11" lengthAdjust="spacing" textLength="44" x="421.5" y="110.9585">Receiver</text><ellipse cx="446.5" cy="50.9883" fill="#44AAFF" rx="8" ry="8" style="stroke:#2277DD;stroke-width:0.5;"/><path d="M446.5,58.9883 L446.5,85.9883 M433.5,66.9883 L459.5,66.9883 M446.5,85.9883 L433.5,100.9883 M446.5,85.9883 L459.5,100.9883 " fill="none" style="stroke:#2277DD;stroke-width:0.5;"/><text fill="#000033" font-family="Helvetica" font-size="11" lengthAdjust="spacing" textLength="44" x="421.5" y="687.8003">Receiver</text><ellipse cx="446.5" cy="698.8301" fill="#44AAFF" rx="8" ry="8" style="stroke:#2277DD;stroke-width:0.5;"/><path d="M446.5,706.8301 L446.5,733.8301 M433.5,714.8301 L459.5,714.8301 M446.5,733.8301 L433.5,748.8301 M446.5,733.8301 L459.5,748.8301 " fill="none" style="stroke:#2277DD;stroke-width:0.5;"/><line style="stroke:#000000;stroke-width:1.0;" x1="322.5" x2="332.5" y1="151.4883" y2="147.4883"/><line style="stroke:#000000;stroke-width:1.0;" x1="322.5" x2="332.5" y1="151.4883" y2="155.4883"/><line style="stroke:#000000;stroke-width:1.0;" x1="321.5" x2="445.5" y1="151.4883" y2="151.4883"/><text fill="#333333" font-family="Helvetica" font-size="11" lengthAdjust="spacing" textLength="92" x="338.5" y="135.9585">Submit draft chit w/</text><text fill="#333333" font-family="Helvetica" font-size="11" lengthAdjust="spacing" textLength="86" x="338.5" y="146.9585">value --&gt; receiver</text><line style="stroke:#000000;stroke-width:1.0;" x1="172.5" x2="182.5" y1="176.4883" y2="172.4883"/><line style="stroke:#000000;stroke-width:1.0;" x1="172.5" x2="182.5" y1="176.4883" y2="180.4883"/><line style="stroke:#000000;stroke-width:1.0;" x1="171.5" x2="320.5" y1="176.4883" y2="176.4883"/><text fill="#333333" font-family="Helvetica" font-size="11" lengthAdjust="spacing" textLength="108" x="188.5" y="171.9585">Store, transmit to peer</text><line style="stroke:#000000;stroke-width:1.0;" x1="48.5" x2="58.5" y1="201.4883" y2="197.4883"/><line style="stroke:#000000;stroke-width:1.0;" x1="48.5" x2="58.5" y1="201.4883" y2="205.4883"/><line style="stroke:#000000;stroke-width:1.0;" x1="47.5" x2="170.5" y1="201.4883" y2="201.4883"/><text fill="#333333" font-family="Helvetica" font-size="11" lengthAdjust="spacing" textLength="53" x="64.5" y="196.9585">Notify user</text><path d="M10,216.4883 L72,216.4883 L72,223.7988 L62,233.7988 L10,233.7988 L10,216.4883 " fill="#EEEEEE" style="stroke:#000000;stroke-width:1.5;"/><rect fill="none" height="446.8418" style="stroke:#000000;stroke-width:1.5;" width="525" x="10" y="216.4883"/><text fill="#000000" font-family="sans-serif" font-size="13" font-weight="bold" lengthAdjust="spacing" textLength="17" x="25" y="230.0566">alt</text><text fill="#000000" font-family="sans-serif" font-size="11" font-weight="bold" lengthAdjust="spacing" textLength="101" x="87" y="229.123">[Terms agreeable]</text><line style="stroke:#000000;stroke-width:1.0;" x1="169.5" x2="159.5" y1="250.7988" y2="246.7988"/><line style="stroke:#000000;stroke-width:1.0;" x1="169.5" x2="159.5" y1="250.7988" y2="254.7988"/><line style="stroke:#000000;stroke-width:1.0;" x1="47.5" x2="170.5" y1="250.7988" y2="250.7988"/><text fill="#333333" font-family="Helvetica" font-size="11" lengthAdjust="spacing" textLength="77" x="54.5" y="246.269">Accept/sign chit</text><path d="M136,263.7988 L136,284.7988 L356,284.7988 L356,273.7988 L346,263.7988 L136,263.7988 " fill="#E8E8EA" style="stroke:#202024;stroke-width:0.5;"/><path d="M346,263.7988 L346,273.7988 L356,273.7988 L346,263.7988 " fill="#E8E8EA" style="stroke:#202024;stroke-width:0.5;"/><text fill="#000033" font-family="Helvetica" font-size="11" lengthAdjust="spacing" textLength="114" x="184.75" y="277.269">Payment is now binding</text><line style="stroke:#000000;stroke-width:1.0;" x1="319.5" x2="309.5" y1="306.7988" y2="302.7988"/><line style="stroke:#000000;stroke-width:1.0;" x1="319.5" x2="309.5" y1="306.7988" y2="310.7988"/><line style="stroke:#000000;stroke-width:1.0;" x1="171.5" x2="320.5" y1="306.7988" y2="306.7988"/><text fill="#333333" font-family="Helvetica" font-size="11" lengthAdjust="spacing" textLength="126" x="178.5" y="302.269">Store and transmit to peer</text><line style="stroke:#000000;stroke-width:1.0;" x1="444.5" x2="434.5" y1="331.7988" y2="327.7988"/><line style="stroke:#000000;stroke-width:1.0;" x1="444.5" x2="434.5" y1="331.7988" y2="335.7988"/><line style="stroke:#000000;stroke-width:1.0;" x1="321.5" x2="445.5" y1="331.7988" y2="331.7988"/><text fill="#333333" font-family="Helvetica" font-size="11" lengthAdjust="spacing" textLength="101" x="328.5" y="327.269">Store and notify user</text><path d="M128.5,346.7988 L202.5,346.7988 L202.5,354.1094 L192.5,364.1094 L128.5,364.1094 L128.5,346.7988 " fill="#EEEEEE" style="stroke:#000000;stroke-width:1.5;"/><rect fill="none" height="42.3105" style="stroke:#000000;stroke-width:1.5;" width="245.5" x="128.5" y="346.7988"/><text fill="#000000" font-family="sans-serif" font-size="13" font-weight="bold" lengthAdjust="spacing" textLength="29" x="143.5" y="360.3672">loop</text><text fill="#000000" font-family="sans-serif" font-size="11" font-weight="bold" lengthAdjust="spacing" textLength="96" x="217.5" y="359.4336">[until consensed]</text><polygon fill="#000000" points="182.5,377.1094,172.5,381.1094,182.5,385.1094,178.5,381.1094" style="stroke:#000000;stroke-width:1.0;"/><polygon fill="#000000" points="309.5,377.1094,319.5,381.1094,309.5,385.1094,313.5,381.1094" style="stroke:#000000;stroke-width:1.0;"/><line style="stroke:#000000;stroke-width:1.0;" x1="176.5" x2="315.5" y1="381.1094" y2="381.1094"/><text fill="#333333" font-family="Helvetica" font-size="11" lengthAdjust="spacing" textLength="110" x="188.5" y="376.5796">Consensus acks/naks</text><line style="stroke:#000000;stroke-width:1.0;stroke-dasharray:2.0,2.0;" x1="10" x2="535" y1="397.1094" y2="397.1094"/><text fill="#000000" font-family="sans-serif" font-size="11" font-weight="bold" lengthAdjust="spacing" textLength="96" x="15" y="407.7441">[Want to counter]</text><path d="M20,418.0645 L94,418.0645 L94,425.375 L84,435.375 L20,435.375 L20,418.0645 " fill="#EEEEEE" style="stroke:#000000;stroke-width:1.5;"/><rect fill="none" height="42.3105" style="stroke:#000000;stroke-width:1.5;" width="194.5" x="20" y="418.0645"/><text fill="#000000" font-family="sans-serif" font-size="13" font-weight="bold" lengthAdjust="spacing" textLength="29" x="35" y="431.6328">loop</text><text fill="#000000" font-family="sans-serif" font-size="11" font-weight="bold" lengthAdjust="spacing" textLength="86" x="109" y="430.6992">[until satisfied]</text><line style="stroke:#000000;stroke-width:1.0;" x1="169.5" x2="159.5" y1="452.375" y2="448.375"/><line style="stroke:#000000;stroke-width:1.0;" x1="169.5" x2="159.5" y1="452.375" y2="456.375"/><line style="stroke:#000000;stroke-width:1.0;" x1="47.5" x2="170.5" y1="452.375" y2="452.375"/><text fill="#333333" font-family="Helvetica" font-size="11" lengthAdjust="spacing" textLength="100" x="54.5" y="447.8452">Modify invoice terms</text><line style="stroke:#000000;stroke-width:1.0;" x1="169.5" x2="159.5" y1="484.375" y2="480.375"/><line style="stroke:#000000;stroke-width:1.0;" x1="169.5" x2="159.5" y1="484.375" y2="488.375"/><line style="stroke:#000000;stroke-width:1.0;" x1="47.5" x2="170.5" y1="484.375" y2="484.375"/><text fill="#333333" font-family="Helvetica" font-size="11" lengthAdjust="spacing" textLength="95" x="54.5" y="479.8452">Return counteroffer</text><line style="stroke:#000000;stroke-width:1.0;" x1="319.5" x2="309.5" y1="509.375" y2="505.375"/><line style="stroke:#000000;stroke-width:1.0;" x1="319.5" x2="309.5" y1="509.375" y2="513.375"/><line style="stroke:#000000;stroke-width:1.0;" x1="171.5" x2="320.5" y1="509.375" y2="509.375"/><text fill="#333333" font-family="Helvetica" font-size="11" lengthAdjust="spacing" textLength="113" x="178.5" y="504.8452">Send modified draft chit</text><line style="stroke:#000000;stroke-width:1.0;" x1="444.5" x2="434.5" y1="534.375" y2="530.375"/><line style="stroke:#000000;stroke-width:1.0;" x1="444.5" x2="434.5" y1="534.375" y2="538.375"/><line style="stroke:#000000;stroke-width:1.0;" x1="321.5" x2="445.5" y1="534.375" y2="534.375"/><text fill="#333333" font-family="Helvetica" font-size="11" lengthAdjust="spacing" textLength="101" x="328.5" y="529.8452">Store and notify user</text><path d="M242,547.375 L242,568.375 L525,568.375 L525,557.375 L515,547.375 L242,547.375 " fill="#E8E8EA" style="stroke:#202024;stroke-width:0.5;"/><path d="M515,547.375 L515,557.375 L525,557.375 L515,547.375 " fill="#E8E8EA" style="stroke:#202024;stroke-width:0.5;"/><text fill="#000033" font-family="Helvetica" font-size="11" lengthAdjust="spacing" textLength="262" x="248" y="560.8452">Invoice chit may then be modified/resubmitted (above)</text><line style="stroke:#000000;stroke-width:1.0;stroke-dasharray:2.0,2.0;" x1="10" x2="535" y1="574.375" y2="574.375"/><text fill="#000000" font-family="sans-serif" font-size="11" font-weight="bold" lengthAdjust="spacing" textLength="82" x="15" y="585.0098">[Refuse terms]</text><line style="stroke:#000000;stroke-width:1.0;" x1="169.5" x2="159.5" y1="605.3301" y2="601.3301"/><line style="stroke:#000000;stroke-width:1.0;" x1="169.5" x2="159.5" y1="605.3301" y2="609.3301"/><line style="stroke:#000000;stroke-width:1.0;" x1="47.5" x2="170.5" y1="605.3301" y2="605.3301"/><text fill="#333333" font-family="Helvetica" font-size="11" lengthAdjust="spacing" textLength="100" x="54.5" y="600.8003">Mark chit as refused</text><line style="stroke:#000000;stroke-width:1.0;" x1="319.5" x2="309.5" y1="630.3301" y2="626.3301"/><line style="stroke:#000000;stroke-width:1.0;" x1="319.5" x2="309.5" y1="630.3301" y2="634.3301"/><line style="stroke:#000000;stroke-width:1.0;" x1="171.5" x2="320.5" y1="630.3301" y2="630.3301"/><text fill="#333333" font-family="Helvetica" font-size="11" lengthAdjust="spacing" textLength="85" x="178.5" y="625.8003">Send refused chit</text><line style="stroke:#000000;stroke-width:1.0;" x1="444.5" x2="434.5" y1="655.3301" y2="651.3301"/><line style="stroke:#000000;stroke-width:1.0;" x1="444.5" x2="434.5" y1="655.3301" y2="659.3301"/><line style="stroke:#000000;stroke-width:1.0;" x1="321.5" x2="445.5" y1="655.3301" y2="655.3301"/><text fill="#333333" font-family="Helvetica" font-size="11" lengthAdjust="spacing" textLength="101" x="328.5" y="650.8003">Store and notify user</text><text fill="#888888" font-family="sans-serif" font-size="10" lengthAdjust="spacing" textLength="142" x="201" y="760.998">Fri Feb 10 23:38:38 MST 2023</text><!--SRC=[bLB1Qjj043rxls8QUaWWhk-b69BuqaD2SGgzz39QZPp5grcnEtBmtsTs9TaARY418OJUc_VcpSmNnzRtDO4DRHluMzUttdmL9vwk7rwSmCP5iW8_-H2SfHk3LaA4grzu3F4AC467HrEZO8M9nl-mkP-WpVqCt98bTw0JhigAZueJE276w6knNAyNXVPziNZkgrOxgYCs0ZOtzxhwomVqFS5okSv5HS6KWb9QEiYbQa6t814vPGq9q94o2punbVSKn3L7w9DY1ht0Rufj0jn58gmycPpfdVATjTJ9AhaTbvuCS122a6CMpkqO4m1qE2snW4jAUeNASUruPu2uBbK6plsSGkVE0PLnqJoSS-hNEoxFS_WGEkXPdDSjSo9zwidgn_9izJ20lUQr-xHYt2UJMylrnf3N5Vv1Blusg5vkOQQTK5ngNDQ-cD9Zg7C_RhWYa3pL8NSHl-1lIVh8aqreckprZ-5aXJPhg-tiC3uwcjckIa7PLTxKUEx3bRLu17aXXefEPgj8gPoZgF4rLgfnCrlaCAqjDMepfRsO2SRzO50EFbFh_uOSyK-bqphp1W00]--></g></svg>