<?xml version="1.0" encoding="UTF-8" standalone="no"?><svg xmlns="http://www.w3.org/2000/svg" xmlns:xlink="http://www.w3.org/1999/xlink" contentStyleType="text/css" height="1325px" preserveAspectRatio="none" style="width:780px;height:1325px;background:#FFFFFF;" version="1.1" viewBox="0 0 780 1325" width="780px" zoomAndPan="magnify"><defs/><g><text fill="#000000" font-family="sans-serif" font-size="14" font-weight="bold" lengthAdjust="spacing" textLength="272" x="253.25" y="28.5352">Payment Lift Discovery and Execution</text><rect fill="none" height="149.2656" style="stroke:#000000;stroke-width:1.5;" width="469.5" x="10" y="202.4883"/><rect fill="none" height="222.1758" style="stroke:#000000;stroke-width:1.5;" width="469.5" x="10" y="365.7539"/><rect fill="none" height="235.3105" style="stroke:#000000;stroke-width:1.5;" width="598.5" x="10" y="662.9297"/><rect fill="none" height="119.3105" style="stroke:#000000;stroke-width:1.5;" width="432.5" x="176" y="1062.2402"/><line style="stroke:#44AAFF;stroke-width:0.5;stroke-dasharray:5.0,5.0;" x1="35" x2="35" y1="113.4883" y2="1234.5508"/><line style="stroke:#44AAFF;stroke-width:0.5;stroke-dasharray:5.0,5.0;" x1="231" x2="231" y1="113.4883" y2="1234.5508"/><line style="stroke:#44AAFF;stroke-width:0.5;stroke-dasharray:5.0,5.0;" x1="424.5" x2="424.5" y1="113.4883" y2="1234.5508"/><line style="stroke:#44AAFF;stroke-width:0.5;stroke-dasharray:5.0,5.0;" x1="567.5" x2="567.5" y1="113.4883" y2="1234.5508"/><line style="stroke:#44AAFF;stroke-width:0.5;stroke-dasharray:5.0,5.0;" x1="727.5" x2="727.5" y1="113.4883" y2="1234.5508"/><text fill="#000033" font-family="Helvetica" font-size="11" lengthAdjust="spacing" textLength="24" x="20" y="110.9585">User</text><ellipse cx="35" cy="50.9883" fill="#44AAFF" rx="8" ry="8" style="stroke:#2277DD;stroke-width:0.5;"/><path d="M35,58.9883 L35,85.9883 M22,66.9883 L48,66.9883 M35,85.9883 L22,100.9883 M35,85.9883 L48,100.9883 " fill="none" style="stroke:#2277DD;stroke-width:0.5;"/><text fill="#000033" font-family="Helvetica" font-size="11" lengthAdjust="spacing" textLength="24" x="20" y="1242.021">User</text><ellipse cx="35" cy="1253.0508" fill="#44AAFF" rx="8" ry="8" style="stroke:#2277DD;stroke-width:0.5;"/><path d="M35,1261.0508 L35,1288.0508 M22,1269.0508 L48,1269.0508 M35,1288.0508 L22,1303.0508 M35,1288.0508 L48,1303.0508 " fill="none" style="stroke:#2277DD;stroke-width:0.5;"/><text fill="#000000" font-family="sans-serif" font-size="14" lengthAdjust="spacing" textLength="84" x="186" y="110.5352">Payor Model</text><path d="M213,61 C213,51 231,51 231,51 C231,51 249,51 249,61 L249,87 C249,97 231,97 231,97 C231,97 213,97 213,87 L213,61 " fill="#E2E2F0" style="stroke:#181818;stroke-width:1.5;"/><path d="M213,61 C213,71 231,71 231,71 C231,71 249,71 249,61 " fill="none" style="stroke:#181818;stroke-width:1.5;"/><text fill="#000000" font-family="sans-serif" font-size="14" lengthAdjust="spacing" textLength="84" x="186" y="1247.0859">Payor Model</text><path d="M213,1260.0391 C213,1250.0391 231,1250.0391 231,1250.0391 C231,1250.0391 249,1250.0391 249,1260.0391 L249,1286.0391 C249,1296.0391 231,1296.0391 231,1296.0391 C231,1296.0391 213,1296.0391 213,1286.0391 L213,1260.0391 " fill="#E2E2F0" style="stroke:#181818;stroke-width:1.5;"/><path d="M213,1260.0391 C213,1270.0391 231,1270.0391 231,1270.0391 C231,1270.0391 249,1270.0391 249,1260.0391 " fill="none" style="stroke:#181818;stroke-width:1.5;"/><text fill="#000000" font-family="sans-serif" font-size="14" lengthAdjust="spacing" textLength="83" x="380.5" y="110.5352">Payor Agent</text><ellipse cx="425" cy="81" fill="#E2E2F0" rx="12" ry="12" style="stroke:#181818;stroke-width:0.5;"/><polygon fill="#181818" points="421,69,427,64,425,69,427,74,421,69" style="stroke:#181818;stroke-width:1.0;"/><text fill="#000000" font-family="sans-serif" font-size="14" lengthAdjust="spacing" textLength="83" x="380.5" y="1247.0859">Payor Agent</text><ellipse cx="425" cy="1266.0391" fill="#E2E2F0" rx="12" ry="12" style="stroke:#181818;stroke-width:0.5;"/><polygon fill="#181818" points="421,1254.0391,427,1249.0391,425,1254.0391,427,1259.0391,421,1254.0391" style="stroke:#181818;stroke-width:1.0;"/><text fill="#000000" font-family="sans-serif" font-size="14" lengthAdjust="spacing" textLength="55" x="537.5" y="110.5352">ChipNet</text><ellipse cx="568" cy="81" fill="#E2E2F0" rx="12" ry="12" style="stroke:#181818;stroke-width:0.5;"/><polygon fill="#181818" points="564,69,570,64,568,69,570,74,564,69" style="stroke:#181818;stroke-width:1.0;"/><text fill="#000000" font-family="sans-serif" font-size="14" lengthAdjust="spacing" textLength="55" x="537.5" y="1247.0859">ChipNet</text><ellipse cx="568" cy="1266.0391" fill="#E2E2F0" rx="12" ry="12" style="stroke:#181818;stroke-width:0.5;"/><polygon fill="#181818" points="564,1254.0391,570,1249.0391,568,1254.0391,570,1259.0391,564,1254.0391" style="stroke:#181818;stroke-width:1.0;"/><rect fill="#E8E8EA" height="25" style="stroke:#202024;stroke-width:0.5;" width="89" x="685.5" y="83.4883"/><rect fill="#E8E8EA" height="25" style="stroke:#202024;stroke-width:0.5;" width="89" x="681.5" y="87.4883"/><text fill="#000033" font-family="Helvetica" font-size="11" lengthAdjust="spacing" textLength="75" x="688.5" y="102.9585">Upstream Sites</text><rect fill="#E8E8EA" height="25" style="stroke:#202024;stroke-width:0.5;" width="89" x="685.5" y="1233.5508"/><rect fill="#E8E8EA" height="25" style="stroke:#202024;stroke-width:0.5;" width="89" x="681.5" y="1237.5508"/><text fill="#000033" font-family="Helvetica" font-size="11" lengthAdjust="spacing" textLength="75" x="688.5" y="1253.021">Upstream Sites</text><line style="stroke:#000000;stroke-width:1.0;" x1="229" x2="219" y1="151.4883" y2="147.4883"/><line style="stroke:#000000;stroke-width:1.0;" x1="229" x2="219" y1="151.4883" y2="155.4883"/><line style="stroke:#000000;stroke-width:1.0;" x1="35" x2="230" y1="151.4883" y2="151.4883"/><text fill="#333333" font-family="Helvetica" font-size="11" lengthAdjust="spacing" textLength="172" x="42" y="135.9585">Request payment lift to named peer</text><text fill="#333333" font-family="Helvetica" font-size="11" lengthAdjust="spacing" textLength="56" x="42" y="146.9585">request=init</text><line style="stroke:#000000;stroke-width:1.0;" x1="423" x2="413" y1="187.4883" y2="183.4883"/><line style="stroke:#000000;stroke-width:1.0;" x1="423" x2="413" y1="187.4883" y2="191.4883"/><line style="stroke:#000000;stroke-width:1.0;" x1="231" x2="424" y1="187.4883" y2="187.4883"/><text fill="#333333" font-family="Helvetica" font-size="11" lengthAdjust="spacing" textLength="122" x="238" y="171.9585">Trig: Notify payor's agent</text><text fill="#333333" font-family="Helvetica" font-size="11" lengthAdjust="spacing" textLength="48" x="238" y="182.9585">action=init</text><path d="M10,202.4883 L72,202.4883 L72,209.7988 L62,219.7988 L10,219.7988 L10,202.4883 " fill="#EEEEEE" style="stroke:#000000;stroke-width:1.5;"/><rect fill="none" height="149.2656" style="stroke:#000000;stroke-width:1.5;" width="469.5" x="10" y="202.4883"/><text fill="#000000" font-family="sans-serif" font-size="13" font-weight="bold" lengthAdjust="spacing" textLength="17" x="25" y="216.0566">alt</text><text fill="#000000" font-family="sans-serif" font-size="11" font-weight="bold" lengthAdjust="spacing" textLength="206" x="87" y="215.123">[Check that user's signature is good]</text><line style="stroke:#000000;stroke-width:1.0;" x1="232" x2="242" y1="247.7988" y2="243.7988"/><line style="stroke:#000000;stroke-width:1.0;" x1="232" x2="242" y1="247.7988" y2="251.7988"/><line style="stroke:#000000;stroke-width:1.0;" x1="231" x2="424" y1="247.7988" y2="247.7988"/><text fill="#333333" font-family="Helvetica" font-size="11" lengthAdjust="spacing" textLength="105" x="248" y="232.269">Agent signs lift record</text><text fill="#333333" font-family="Helvetica" font-size="11" lengthAdjust="spacing" textLength="113" x="248" y="243.269">status=init, recipe=local</text><line style="stroke:#000000;stroke-width:1.0;stroke-dasharray:2.0,2.0;" x1="10" x2="479.5" y1="256.7988" y2="256.7988"/><text fill="#000000" font-family="sans-serif" font-size="11" font-weight="bold" lengthAdjust="spacing" textLength="166" x="15" y="267.4336">[Can't verify user's signature]</text><line style="stroke:#000000;stroke-width:1.0;" x1="232" x2="242" y1="287.7539" y2="283.7539"/><line style="stroke:#000000;stroke-width:1.0;" x1="232" x2="242" y1="287.7539" y2="291.7539"/><line style="stroke:#000000;stroke-width:1.0;" x1="231" x2="424" y1="287.7539" y2="287.7539"/><text fill="#333333" font-family="Helvetica" font-size="11" lengthAdjust="spacing" textLength="108" x="248" y="283.2241">Mark payment as void</text><line style="stroke:#000000;stroke-width:1.0;" x1="36" x2="46" y1="312.7539" y2="308.7539"/><line style="stroke:#000000;stroke-width:1.0;" x1="36" x2="46" y1="312.7539" y2="316.7539"/><line style="stroke:#000000;stroke-width:1.0;" x1="35" x2="230" y1="312.7539" y2="312.7539"/><text fill="#333333" font-family="Helvetica" font-size="11" lengthAdjust="spacing" textLength="53" x="52" y="308.2241">Notify user</text><path d="M188,325.7539 L188,346.7539 L466,346.7539 L466,335.7539 L456,325.7539 L188,325.7539 " fill="#E8E8EA" style="stroke:#202024;stroke-width:0.5;"/><path d="M456,325.7539 L456,335.7539 L466,335.7539 L456,325.7539 " fill="#E8E8EA" style="stroke:#202024;stroke-width:0.5;"/><text fill="#000033" font-family="Helvetica" font-size="11" lengthAdjust="spacing" textLength="18" x="313.75" y="339.2241">Exit</text><path d="M10,365.7539 L72,365.7539 L72,373.0645 L62,383.0645 L10,383.0645 L10,365.7539 " fill="#EEEEEE" style="stroke:#000000;stroke-width:1.5;"/><rect fill="none" height="222.1758" style="stroke:#000000;stroke-width:1.5;" width="469.5" x="10" y="365.7539"/><text fill="#000000" font-family="sans-serif" font-size="13" font-weight="bold" lengthAdjust="spacing" textLength="17" x="25" y="379.3223">alt</text><text fill="#000000" font-family="sans-serif" font-size="11" font-weight="bold" lengthAdjust="spacing" textLength="227" x="87" y="378.3887">[Check if payee agent is local to our site</text><text fill="#000000" font-family="sans-serif" font-size="11" font-weight="bold" lengthAdjust="spacing" textLength="197" x="87" y="391.3438">and a suitable local route is found]</text><line style="stroke:#000000;stroke-width:1.0;" x1="231" x2="273" y1="421.9746" y2="421.9746"/><line style="stroke:#000000;stroke-width:1.0;" x1="273" x2="273" y1="421.9746" y2="434.9746"/><line style="stroke:#000000;stroke-width:1.0;" x1="232" x2="273" y1="434.9746" y2="434.9746"/><line style="stroke:#000000;stroke-width:1.0;" x1="232" x2="242" y1="434.9746" y2="430.9746"/><line style="stroke:#000000;stroke-width:1.0;" x1="232" x2="242" y1="434.9746" y2="438.9746"/><text fill="#333333" font-family="Helvetica" font-size="11" lengthAdjust="spacing" textLength="135" x="238" y="406.4448">Generate/commit local chits</text><text fill="#333333" font-family="Helvetica" font-size="11" lengthAdjust="spacing" textLength="122" x="238" y="417.4448">Commit lift, status = good</text><line style="stroke:#000000;stroke-width:1.0;" x1="36" x2="46" y1="459.9746" y2="455.9746"/><line style="stroke:#000000;stroke-width:1.0;" x1="36" x2="46" y1="459.9746" y2="463.9746"/><line style="stroke:#000000;stroke-width:1.0;" x1="35" x2="230" y1="459.9746" y2="459.9746"/><text fill="#333333" font-family="Helvetica" font-size="11" lengthAdjust="spacing" textLength="53" x="52" y="455.4448">Notify user</text><path d="M188,472.9746 L188,493.9746 L466,493.9746 L466,482.9746 L456,472.9746 L188,472.9746 " fill="#E8E8EA" style="stroke:#202024;stroke-width:0.5;"/><path d="M456,472.9746 L456,482.9746 L466,482.9746 L456,472.9746 " fill="#E8E8EA" style="stroke:#202024;stroke-width:0.5;"/><text fill="#000033" font-family="Helvetica" font-size="11" lengthAdjust="spacing" textLength="18" x="313.75" y="486.4448">Exit</text><line style="stroke:#000000;stroke-width:1.0;stroke-dasharray:2.0,2.0;" x1="10" x2="479.5" y1="499.9746" y2="499.9746"/><text fill="#000000" font-family="sans-serif" font-size="11" font-weight="bold" lengthAdjust="spacing" textLength="118" x="15" y="510.6094">[Will try external lift]</text><line style="stroke:#000000;stroke-width:1.0;" x1="231" x2="273" y1="530.9297" y2="530.9297"/><line style="stroke:#000000;stroke-width:1.0;" x1="273" x2="273" y1="530.9297" y2="543.9297"/><line style="stroke:#000000;stroke-width:1.0;" x1="232" x2="273" y1="543.9297" y2="543.9297"/><line style="stroke:#000000;stroke-width:1.0;" x1="232" x2="242" y1="543.9297" y2="539.9297"/><line style="stroke:#000000;stroke-width:1.0;" x1="232" x2="242" y1="543.9297" y2="547.9297"/><text fill="#333333" font-family="Helvetica" font-size="11" lengthAdjust="spacing" textLength="74" x="238" y="526.3999">request = route</text><line style="stroke:#000000;stroke-width:1.0;" x1="423" x2="413" y1="579.9297" y2="575.9297"/><line style="stroke:#000000;stroke-width:1.0;" x1="423" x2="413" y1="579.9297" y2="583.9297"/><line style="stroke:#000000;stroke-width:1.0;" x1="231" x2="424" y1="579.9297" y2="579.9297"/><text fill="#333333" font-family="Helvetica" font-size="11" lengthAdjust="spacing" textLength="170" x="238" y="564.3999">Trig: Get list of outbound segments</text><text fill="#333333" font-family="Helvetica" font-size="11" lengthAdjust="spacing" textLength="124" x="238" y="575.3999">Notify agent; action=route</text><line style="stroke:#000000;stroke-width:1.0;" x1="566" x2="556" y1="622.9297" y2="618.9297"/><line style="stroke:#000000;stroke-width:1.0;" x1="566" x2="556" y1="622.9297" y2="626.9297"/><line style="stroke:#000000;stroke-width:1.0;" x1="425" x2="567" y1="622.9297" y2="622.9297"/><text fill="#333333" font-family="Helvetica" font-size="11" lengthAdjust="spacing" textLength="64" x="432" y="607.3999">Launch route</text><text fill="#333333" font-family="Helvetica" font-size="11" lengthAdjust="spacing" textLength="89" x="432" y="618.3999">discovery session</text><polygon fill="#000000" points="579,643.9297,569,647.9297,579,651.9297,575,647.9297" style="stroke:#000000;stroke-width:1.0;"/><polygon fill="#000000" points="716,643.9297,726,647.9297,716,651.9297,720,647.9297" style="stroke:#000000;stroke-width:1.0;"/><line style="stroke:#000000;stroke-width:1.0;" x1="573" x2="722" y1="647.9297" y2="647.9297"/><text fill="#333333" font-family="Helvetica" font-size="11" lengthAdjust="spacing" textLength="136" x="585" y="643.3999">ChipNet negotiates pathway</text><path d="M10,662.9297 L72,662.9297 L72,670.2402 L62,680.2402 L10,680.2402 L10,662.9297 " fill="#EEEEEE" style="stroke:#000000;stroke-width:1.5;"/><rect fill="none" height="235.3105" style="stroke:#000000;stroke-width:1.5;" width="598.5" x="10" y="662.9297"/><text fill="#000000" font-family="sans-serif" font-size="13" font-weight="bold" lengthAdjust="spacing" textLength="17" x="25" y="676.498">alt</text><text fill="#000000" font-family="sans-serif" font-size="11" font-weight="bold" lengthAdjust="spacing" textLength="190" x="87" y="675.5645">[ChipNet can't find suitable route]</text><line style="stroke:#000000;stroke-width:1.0;" x1="426" x2="436" y1="697.2402" y2="693.2402"/><line style="stroke:#000000;stroke-width:1.0;" x1="426" x2="436" y1="697.2402" y2="701.2402"/><line style="stroke:#000000;stroke-width:1.0;" x1="425" x2="567" y1="697.2402" y2="697.2402"/><text fill="#333333" font-family="Helvetica" font-size="11" lengthAdjust="spacing" textLength="85" x="442" y="692.7104">No route possible</text><line style="stroke:#000000;stroke-width:1.0;" x1="232" x2="242" y1="722.2402" y2="718.2402"/><line style="stroke:#000000;stroke-width:1.0;" x1="232" x2="242" y1="722.2402" y2="726.2402"/><line style="stroke:#000000;stroke-width:1.0;" x1="231" x2="424" y1="722.2402" y2="722.2402"/><text fill="#333333" font-family="Helvetica" font-size="11" lengthAdjust="spacing" textLength="145" x="248" y="717.7104">Update lift record, status=void</text><line style="stroke:#000000;stroke-width:1.0;" x1="36" x2="46" y1="747.2402" y2="743.2402"/><line style="stroke:#000000;stroke-width:1.0;" x1="36" x2="46" y1="747.2402" y2="751.2402"/><line style="stroke:#000000;stroke-width:1.0;" x1="35" x2="230" y1="747.2402" y2="747.2402"/><text fill="#333333" font-family="Helvetica" font-size="11" lengthAdjust="spacing" textLength="53" x="52" y="742.7104">Notify user</text><path d="M188,760.2402 L188,781.2402 L466,781.2402 L466,770.2402 L456,760.2402 L188,760.2402 " fill="#E8E8EA" style="stroke:#202024;stroke-width:0.5;"/><path d="M456,760.2402 L456,770.2402 L466,770.2402 L456,760.2402 " fill="#E8E8EA" style="stroke:#202024;stroke-width:0.5;"/><text fill="#000033" font-family="Helvetica" font-size="11" lengthAdjust="spacing" textLength="18" x="313.75" y="773.7104">Exit</text><line style="stroke:#000000;stroke-width:1.0;stroke-dasharray:2.0,2.0;" x1="10" x2="608.5" y1="787.2402" y2="787.2402"/><line style="stroke:#000000;stroke-width:1.0;" x1="426" x2="436" y1="805.2402" y2="801.2402"/><line style="stroke:#000000;stroke-width:1.0;" x1="426" x2="436" y1="805.2402" y2="809.2402"/><line style="stroke:#000000;stroke-width:1.0;" x1="425" x2="567" y1="805.2402" y2="805.2402"/><text fill="#333333" font-family="Helvetica" font-size="11" lengthAdjust="spacing" textLength="110" x="442" y="800.7104">Suitable route(s) found</text><line style="stroke:#000000;stroke-width:1.0;" x1="232" x2="242" y1="841.2402" y2="837.2402"/><line style="stroke:#000000;stroke-width:1.0;" x1="232" x2="242" y1="841.2402" y2="845.2402"/><line style="stroke:#000000;stroke-width:1.0;" x1="231" x2="424" y1="841.2402" y2="841.2402"/><text fill="#333333" font-family="Helvetica" font-size="11" lengthAdjust="spacing" textLength="48" x="248" y="825.7104">Update lift</text><text fill="#333333" font-family="Helvetica" font-size="11" lengthAdjust="spacing" textLength="121" x="248" y="836.7104">status=route, recipe=orig</text><line style="stroke:#000000;stroke-width:1.0;" x1="231" x2="273" y1="877.2402" y2="877.2402"/><line style="stroke:#000000;stroke-width:1.0;" x1="273" x2="273" y1="877.2402" y2="890.2402"/><line style="stroke:#000000;stroke-width:1.0;" x1="232" x2="273" y1="890.2402" y2="890.2402"/><line style="stroke:#000000;stroke-width:1.0;" x1="232" x2="242" y1="890.2402" y2="886.2402"/><line style="stroke:#000000;stroke-width:1.0;" x1="232" x2="242" y1="890.2402" y2="894.2402"/><text fill="#333333" font-family="Helvetica" font-size="11" lengthAdjust="spacing" textLength="90" x="238" y="861.7104">Select optimal plan</text><text fill="#333333" font-family="Helvetica" font-size="11" lengthAdjust="spacing" textLength="61" x="238" y="872.7104">request=orig</text><line style="stroke:#000000;stroke-width:1.0;" x1="423" x2="413" y1="922.2402" y2="918.2402"/><line style="stroke:#000000;stroke-width:1.0;" x1="423" x2="413" y1="922.2402" y2="926.2402"/><line style="stroke:#000000;stroke-width:1.0;" x1="231" x2="424" y1="922.2402" y2="922.2402"/><text fill="#333333" font-family="Helvetica" font-size="11" lengthAdjust="spacing" textLength="142" x="238" y="917.7104">Trig: Notify agent; action=orig</text><line style="stroke:#000000;stroke-width:1.0;" x1="566" x2="556" y1="947.2402" y2="943.2402"/><line style="stroke:#000000;stroke-width:1.0;" x1="566" x2="556" y1="947.2402" y2="951.2402"/><line style="stroke:#000000;stroke-width:1.0;" x1="425" x2="567" y1="947.2402" y2="947.2402"/><text fill="#333333" font-family="Helvetica" font-size="11" lengthAdjust="spacing" textLength="101" x="432" y="942.7104">Initiate lift transaction</text><line style="stroke:#000000;stroke-width:1.0;" x1="426" x2="436" y1="972.2402" y2="968.2402"/><line style="stroke:#000000;stroke-width:1.0;" x1="426" x2="436" y1="972.2402" y2="976.2402"/><line style="stroke:#000000;stroke-width:1.0;" x1="425" x2="567" y1="972.2402" y2="972.2402"/><text fill="#333333" font-family="Helvetica" font-size="11" lengthAdjust="spacing" textLength="112" x="442" y="967.7104">Time to build draft chits</text><polygon fill="#000000" points="242,993.2402,232,997.2402,242,1001.2402,238,997.2402" style="stroke:#000000;stroke-width:1.0;"/><polygon fill="#000000" points="413,993.2402,423,997.2402,413,1001.2402,417,997.2402" style="stroke:#000000;stroke-width:1.0;"/><line style="stroke:#000000;stroke-width:1.0;" x1="236" x2="419" y1="997.2402" y2="997.2402"/><text fill="#333333" font-family="Helvetica" font-size="11" lengthAdjust="spacing" textLength="74" x="248" y="992.7104">Build draft chits</text><line style="stroke:#000000;stroke-width:1.0;" x1="566" x2="556" y1="1022.2402" y2="1018.2402"/><line style="stroke:#000000;stroke-width:1.0;" x1="566" x2="556" y1="1022.2402" y2="1026.2402"/><line style="stroke:#000000;stroke-width:1.0;" x1="425" x2="567" y1="1022.2402" y2="1022.2402"/><text fill="#333333" font-family="Helvetica" font-size="11" lengthAdjust="spacing" textLength="119" x="432" y="1017.7104">Provisional chits created</text><polygon fill="#000000" points="579,1043.2402,569,1047.2402,579,1051.2402,575,1047.2402" style="stroke:#000000;stroke-width:1.0;"/><polygon fill="#000000" points="716,1043.2402,726,1047.2402,716,1051.2402,720,1047.2402" style="stroke:#000000;stroke-width:1.0;"/><line style="stroke:#000000;stroke-width:1.0;" x1="573" x2="722" y1="1047.2402" y2="1047.2402"/><text fill="#333333" font-family="Helvetica" font-size="11" lengthAdjust="spacing" textLength="105" x="585" y="1042.7104">ChipNet negotiates lift</text><path d="M176,1062.2402 L238,1062.2402 L238,1069.5508 L228,1079.5508 L176,1079.5508 L176,1062.2402 " fill="#EEEEEE" style="stroke:#000000;stroke-width:1.5;"/><rect fill="none" height="119.3105" style="stroke:#000000;stroke-width:1.5;" width="432.5" x="176" y="1062.2402"/><text fill="#000000" font-family="sans-serif" font-size="13" font-weight="bold" lengthAdjust="spacing" textLength="17" x="191" y="1075.8086">alt</text><text fill="#000000" font-family="sans-serif" font-size="11" font-weight="bold" lengthAdjust="spacing" textLength="81" x="253" y="1074.875">[Lift succeeds]</text><line style="stroke:#000000;stroke-width:1.0;" x1="426" x2="436" y1="1096.5508" y2="1092.5508"/><line style="stroke:#000000;stroke-width:1.0;" x1="426" x2="436" y1="1096.5508" y2="1100.5508"/><line style="stroke:#000000;stroke-width:1.0;" x1="425" x2="567" y1="1096.5508" y2="1096.5508"/><text fill="#333333" font-family="Helvetica" font-size="11" lengthAdjust="spacing" textLength="71" x="442" y="1092.021">Lift succeeded</text><line style="stroke:#000000;stroke-width:1.0;" x1="232" x2="242" y1="1121.5508" y2="1117.5508"/><line style="stroke:#000000;stroke-width:1.0;" x1="232" x2="242" y1="1121.5508" y2="1125.5508"/><line style="stroke:#000000;stroke-width:1.0;" x1="231" x2="424" y1="1121.5508" y2="1121.5508"/><text fill="#333333" font-family="Helvetica" font-size="11" lengthAdjust="spacing" textLength="166" x="248" y="1117.021">Record/commit chits, status=open</text><line style="stroke:#000000;stroke-width:1.0;stroke-dasharray:2.0,2.0;" x1="176" x2="608.5" y1="1130.5508" y2="1130.5508"/><line style="stroke:#000000;stroke-width:1.0;" x1="426" x2="436" y1="1148.5508" y2="1144.5508"/><line style="stroke:#000000;stroke-width:1.0;" x1="426" x2="436" y1="1148.5508" y2="1152.5508"/><line style="stroke:#000000;stroke-width:1.0;" x1="425" x2="567" y1="1148.5508" y2="1148.5508"/><text fill="#333333" font-family="Helvetica" font-size="11" lengthAdjust="spacing" textLength="42" x="442" y="1144.021">Lift failed</text><line style="stroke:#000000;stroke-width:1.0;" x1="232" x2="242" y1="1173.5508" y2="1169.5508"/><line style="stroke:#000000;stroke-width:1.0;" x1="232" x2="242" y1="1173.5508" y2="1177.5508"/><line style="stroke:#000000;stroke-width:1.0;" x1="231" x2="424" y1="1173.5508" y2="1173.5508"/><text fill="#333333" font-family="Helvetica" font-size="11" lengthAdjust="spacing" textLength="155" x="248" y="1169.021">Rollback draft chits, status=void</text><line style="stroke:#000000;stroke-width:1.0;" x1="36" x2="46" y1="1216.5508" y2="1212.5508"/><line style="stroke:#000000;stroke-width:1.0;" x1="36" x2="46" y1="1216.5508" y2="1220.5508"/><line style="stroke:#000000;stroke-width:1.0;" x1="35" x2="230" y1="1216.5508" y2="1216.5508"/><text fill="#333333" font-family="Helvetica" font-size="11" lengthAdjust="spacing" textLength="65" x="52" y="1201.021">Notify user of</text><text fill="#333333" font-family="Helvetica" font-size="11" lengthAdjust="spacing" textLength="74" x="52" y="1212.021">success/failure</text><text fill="#888888" font-family="sans-serif" font-size="10" lengthAdjust="spacing" textLength="147" x="315.75" y="1315.2188">Fri May 31 16:13:57 MDT 2024</text><!--SRC=[hLLDRzim33tRlu8h1hG5slMUBGNMT2W6j4NH3-oIYoBJZb1PyYIwQ_xzACbsuYnf1smtsoBv7XyVvG_AIDqM2DBMjJMVchRM-KTIfF7eJgngD0JNgYIuL5xQ5tGh4AQ0RwyeMrBM7ET2adLmyEJH7O3mqF93NWWI2-4H3hW87z_O0dKyjgwwlCYbDUIixe-_LepJ7yUNTSHigPfRJASoFVEXrYW3lcVanfD3KSE38lI9GnEVypoGoRBJy_Ciuawox1v_jkW9cguv7PeZ2qRKM423wER6fPYfCehoc3ZKYEGcsQDJrGHkBQbo5KfPT-X1XBEv4P5OIiw59fWjKJu3BGL5SJZIgye8QXs2yb1PM-GmT3vY6x_4S9-OEfJM5NFZYVDz13a97rM3Kssbq3bgbdqcp241ZolmsmRT1tOZtFEW2wluObL7h1SWLEB0hk_m1i0HnX92CCTGzoJLP9-m26YAJI5K6K0Garv1WKWy3C6sZcaIieXiCW6-LUmZZLs4ior5oKhRcYrgVHDNQD09mhDWQ4LT9Xk7_DpCkc-iv0aa2M6wCO1_x3Ce_qDfReNN15y9dM7iWBQRQ-SpfX0x-oDePBOh3CGvsfQi4os21E2n2jFYrZgkKTFFq7ambOtwZoRUxT4aknQjaSi4FpV5iECUlUS2UHUOPLzEMPMqLPEiMqamM34gY-rvehJy9LRzdDEvZ2uiLI3QJxBljAyyRlNMTaDkB1FW-7rUVMhuYi7DdUW7ElrVjatpXBrS7qOj7VdZJLk-oNXOtvWvxA_bEUysoWE6wmviGwfcHpLQcFKj5TFw6RzpLOtj4JDt6-CxNongK9YSC3ubvMjFRE6e6iCEBrgb2oYSuBouTck4OAA-fOlzOICYTyw-gE35Vej1ycLFMFozD-C2HcF6FvblfKGi_Dx1RaRXtddUHzVrrqoaDbZGDcZUzK-4AONIRs3mVsuX-CxSq6diy-svxx2wBTbleHllpm9S-WFy1W00]--></g></svg>