<?xml version="1.0" encoding="UTF-8" standalone="no"?><svg xmlns="http://www.w3.org/2000/svg" xmlns:xlink="http://www.w3.org/1999/xlink" contentStyleType="text/css" height="1184px" preserveAspectRatio="none" style="width:632px;height:1184px;background:#FFFFFF;" version="1.1" viewBox="0 0 632 1184" width="632px" zoomAndPan="magnify"><defs/><g><text fill="#000000" font-family="sans-serif" font-size="14" font-weight="bold" lengthAdjust="spacing" textLength="143" x="244" y="28.5352">Establishing a Tally</text><rect fill="none" height="53.3105" style="stroke:#000000;stroke-width:1.5;" width="249" x="318" y="519.4883"/><rect fill="none" height="459.2207" style="stroke:#000000;stroke-width:1.5;" width="557" x="10" y="586.7988"/><line style="stroke:#44AAFF;stroke-width:0.5;stroke-dasharray:5.0,5.0;" x1="47" x2="47" y1="113.4883" y2="1094.0195"/><line style="stroke:#44AAFF;stroke-width:0.5;stroke-dasharray:5.0,5.0;" x1="189.5" x2="189.5" y1="113.4883" y2="1094.0195"/><line style="stroke:#44AAFF;stroke-width:0.5;stroke-dasharray:5.0,5.0;" x1="367" x2="367" y1="113.4883" y2="1094.0195"/><line style="stroke:#44AAFF;stroke-width:0.5;stroke-dasharray:5.0,5.0;" x1="536" x2="536" y1="113.4883" y2="1094.0195"/><text fill="#000033" font-family="Helvetica" font-size="11" lengthAdjust="spacing" textLength="48" x="20" y="110.9585">Originator</text><ellipse cx="47" cy="50.9883" fill="#44AAFF" rx="8" ry="8" style="stroke:#2277DD;stroke-width:0.5;"/><path d="M47,58.9883 L47,85.9883 M34,66.9883 L60,66.9883 M47,85.9883 L34,100.9883 M47,85.9883 L60,100.9883 " fill="none" style="stroke:#2277DD;stroke-width:0.5;"/><text fill="#000033" font-family="Helvetica" font-size="11" lengthAdjust="spacing" textLength="48" x="20" y="1101.4897">Originator</text><ellipse cx="47" cy="1112.5195" fill="#44AAFF" rx="8" ry="8" style="stroke:#2277DD;stroke-width:0.5;"/><path d="M47,1120.5195 L47,1147.5195 M34,1128.5195 L60,1128.5195 M47,1147.5195 L34,1162.5195 M47,1147.5195 L60,1162.5195 " fill="none" style="stroke:#2277DD;stroke-width:0.5;"/><text fill="#000000" font-family="sans-serif" font-size="14" lengthAdjust="spacing" textLength="93" x="140.5" y="110.5352">Originator DB</text><path d="M172,61 C172,51 190,51 190,51 C190,51 208,51 208,61 L208,87 C208,97 190,97 190,97 C190,97 172,97 172,87 L172,61 " fill="#E2E2F0" style="stroke:#181818;stroke-width:1.5;"/><path d="M172,61 C172,71 190,71 190,71 C190,71 208,71 208,61 " fill="none" style="stroke:#181818;stroke-width:1.5;"/><text fill="#000000" font-family="sans-serif" font-size="14" lengthAdjust="spacing" textLength="93" x="140.5" y="1106.5547">Originator DB</text><path d="M172,1119.5078 C172,1109.5078 190,1109.5078 190,1109.5078 C190,1109.5078 208,1109.5078 208,1119.5078 L208,1145.5078 C208,1155.5078 190,1155.5078 190,1155.5078 C190,1155.5078 172,1155.5078 172,1145.5078 L172,1119.5078 " fill="#E2E2F0" style="stroke:#181818;stroke-width:1.5;"/><path d="M172,1119.5078 C172,1129.5078 190,1129.5078 190,1129.5078 C190,1129.5078 208,1129.5078 208,1119.5078 " fill="none" style="stroke:#181818;stroke-width:1.5;"/><text fill="#000000" font-family="sans-serif" font-size="14" lengthAdjust="spacing" textLength="72" x="328" y="110.5352">Subject DB</text><path d="M349,61 C349,51 367,51 367,51 C367,51 385,51 385,61 L385,87 C385,97 367,97 367,97 C367,97 349,97 349,87 L349,61 " fill="#E2E2F0" style="stroke:#181818;stroke-width:1.5;"/><path d="M349,61 C349,71 367,71 367,71 C367,71 385,71 385,61 " fill="none" style="stroke:#181818;stroke-width:1.5;"/><text fill="#000000" font-family="sans-serif" font-size="14" lengthAdjust="spacing" textLength="72" x="328" y="1106.5547">Subject DB</text><path d="M349,1119.5078 C349,1109.5078 367,1109.5078 367,1109.5078 C367,1109.5078 385,1109.5078 385,1119.5078 L385,1145.5078 C385,1155.5078 367,1155.5078 367,1155.5078 C367,1155.5078 349,1155.5078 349,1145.5078 L349,1119.5078 " fill="#E2E2F0" style="stroke:#181818;stroke-width:1.5;"/><path d="M349,1119.5078 C349,1129.5078 367,1129.5078 367,1129.5078 C367,1129.5078 385,1129.5078 385,1119.5078 " fill="none" style="stroke:#181818;stroke-width:1.5;"/><text fill="#000033" font-family="Helvetica" font-size="11" lengthAdjust="spacing" textLength="36" x="515" y="110.9585">Subject</text><ellipse cx="536" cy="50.9883" fill="#44AAFF" rx="8" ry="8" style="stroke:#2277DD;stroke-width:0.5;"/><path d="M536,58.9883 L536,85.9883 M523,66.9883 L549,66.9883 M536,85.9883 L523,100.9883 M536,85.9883 L549,100.9883 " fill="none" style="stroke:#2277DD;stroke-width:0.5;"/><text fill="#000033" font-family="Helvetica" font-size="11" lengthAdjust="spacing" textLength="36" x="515" y="1101.4897">Subject</text><ellipse cx="536" cy="1112.5195" fill="#44AAFF" rx="8" ry="8" style="stroke:#2277DD;stroke-width:0.5;"/><path d="M536,1120.5195 L536,1147.5195 M523,1128.5195 L549,1128.5195 M536,1147.5195 L523,1162.5195 M536,1147.5195 L549,1162.5195 " fill="none" style="stroke:#2277DD;stroke-width:0.5;"/><line style="stroke:#000000;stroke-width:1.0;" x1="188" x2="178" y1="140.4883" y2="136.4883"/><line style="stroke:#000000;stroke-width:1.0;" x1="188" x2="178" y1="140.4883" y2="144.4883"/><line style="stroke:#000000;stroke-width:1.0;" x1="47" x2="189" y1="140.4883" y2="140.4883"/><text fill="#333333" font-family="Helvetica" font-size="11" lengthAdjust="spacing" textLength="119" x="54" y="135.9585">Create draft tally &amp; ticket</text><path d="M50,153.4883 L50,174.4883 L329,174.4883 L329,163.4883 L319,153.4883 L50,153.4883 " fill="#E8E8EA" style="stroke:#202024;stroke-width:0.5;"/><path d="M319,153.4883 L319,163.4883 L329,163.4883 L319,153.4883 " fill="#E8E8EA" style="stroke:#202024;stroke-width:0.5;"/><text fill="#000033" font-family="Helvetica" font-size="11" lengthAdjust="spacing" textLength="258" x="56" y="166.9585">Ticket may be one-time or reusable for multiple peers</text><line style="stroke:#FF0000;stroke-width:1.0;" x1="534" x2="524" y1="196.4883" y2="192.4883"/><line style="stroke:#FF0000;stroke-width:1.0;" x1="534" x2="524" y1="196.4883" y2="200.4883"/><line style="stroke:#FF0000;stroke-width:1.0;" x1="47" x2="535" y1="196.4883" y2="196.4883"/><text fill="#333333" font-family="Helvetica" font-size="11" lengthAdjust="spacing" textLength="302" x="54" y="191.9585">Communicate ticket to subject peer via QR code (out-of-band)</text><line style="stroke:#000000;stroke-width:1.0;" x1="536" x2="578" y1="232.4883" y2="232.4883"/><line style="stroke:#000000;stroke-width:1.0;" x1="578" x2="578" y1="232.4883" y2="245.4883"/><line style="stroke:#000000;stroke-width:1.0;" x1="537" x2="578" y1="245.4883" y2="245.4883"/><line style="stroke:#000000;stroke-width:1.0;" x1="537" x2="547" y1="245.4883" y2="241.4883"/><line style="stroke:#000000;stroke-width:1.0;" x1="537" x2="547" y1="245.4883" y2="249.4883"/><text fill="#333333" font-family="Helvetica" font-size="11" lengthAdjust="spacing" textLength="82" x="543" y="216.9585">Select Certificate</text><text fill="#333333" font-family="Helvetica" font-size="11" lengthAdjust="spacing" textLength="72" x="543" y="227.9585">info to disclose</text><line style="stroke:#000000;stroke-width:1.0;" x1="368" x2="378" y1="270.4883" y2="266.4883"/><line style="stroke:#000000;stroke-width:1.0;" x1="368" x2="378" y1="270.4883" y2="274.4883"/><line style="stroke:#000000;stroke-width:1.0;" x1="367" x2="535" y1="270.4883" y2="270.4883"/><text fill="#333333" font-family="Helvetica" font-size="11" lengthAdjust="spacing" textLength="141" x="384" y="265.9585">Request to connect via ticket</text><line style="stroke:#000000;stroke-width:1.0;" x1="191" x2="201" y1="317.4883" y2="313.4883"/><line style="stroke:#000000;stroke-width:1.0;" x1="191" x2="201" y1="317.4883" y2="321.4883"/><line style="stroke:#000000;stroke-width:1.0;" x1="190" x2="366" y1="317.4883" y2="317.4883"/><text fill="#333333" font-family="Helvetica" font-size="11" lengthAdjust="spacing" textLength="147" x="207" y="290.9585">Is this a known or local agent?</text><text fill="#333333" font-family="Helvetica" font-size="11" lengthAdjust="spacing" textLength="153" x="207" y="301.9585">Connect w/ticket or known key,</text><text fill="#333333" font-family="Helvetica" font-size="11" lengthAdjust="spacing" textLength="124" x="207" y="312.9585">provide subject certificate</text><line style="stroke:#000000;stroke-width:1.0;" x1="190" x2="232" y1="342.4883" y2="342.4883"/><line style="stroke:#000000;stroke-width:1.0;" x1="232" x2="232" y1="342.4883" y2="355.4883"/><line style="stroke:#000000;stroke-width:1.0;" x1="191" x2="232" y1="355.4883" y2="355.4883"/><polygon fill="#000000" points="201,351.4883,191,355.4883,201,359.4883,197,355.4883" style="stroke:#000000;stroke-width:1.0;"/><text fill="#333333" font-family="Helvetica" font-size="11" lengthAdjust="spacing" textLength="142" x="197" y="337.9585">Construct/complete draft tally</text><line style="stroke:#000000;stroke-width:1.0;" x1="48" x2="58" y1="380.4883" y2="376.4883"/><line style="stroke:#000000;stroke-width:1.0;" x1="48" x2="58" y1="380.4883" y2="384.4883"/><line style="stroke:#000000;stroke-width:1.0;" x1="47" x2="189" y1="380.4883" y2="380.4883"/><text fill="#333333" font-family="Helvetica" font-size="11" lengthAdjust="spacing" textLength="89" x="64" y="375.9585">Present for review</text><line style="stroke:#000000;stroke-width:1.0;" x1="188" x2="178" y1="405.4883" y2="401.4883"/><line style="stroke:#000000;stroke-width:1.0;" x1="188" x2="178" y1="405.4883" y2="409.4883"/><line style="stroke:#000000;stroke-width:1.0;" x1="47" x2="189" y1="405.4883" y2="405.4883"/><text fill="#333333" font-family="Helvetica" font-size="11" lengthAdjust="spacing" textLength="71" x="54" y="400.9585">Sign/Offer tally</text><line style="stroke:#000000;stroke-width:1.0;" x1="365" x2="355" y1="430.4883" y2="426.4883"/><line style="stroke:#000000;stroke-width:1.0;" x1="365" x2="355" y1="430.4883" y2="434.4883"/><line style="stroke:#000000;stroke-width:1.0;" x1="190" x2="366" y1="430.4883" y2="430.4883"/><text fill="#333333" font-family="Helvetica" font-size="11" lengthAdjust="spacing" textLength="134" x="197" y="425.9585">Send proposed, signed tally</text><line style="stroke:#000000;stroke-width:1.0;" x1="367" x2="409" y1="466.4883" y2="466.4883"/><line style="stroke:#000000;stroke-width:1.0;" x1="409" x2="409" y1="466.4883" y2="479.4883"/><line style="stroke:#000000;stroke-width:1.0;" x1="368" x2="409" y1="479.4883" y2="479.4883"/><polygon fill="#000000" points="378,475.4883,368,479.4883,378,483.4883,374,479.4883" style="stroke:#000000;stroke-width:1.0;"/><text fill="#333333" font-family="Helvetica" font-size="11" lengthAdjust="spacing" textLength="84" x="374" y="450.9585">Store tally locally,</text><text fill="#333333" font-family="Helvetica" font-size="11" lengthAdjust="spacing" textLength="109" x="374" y="461.9585">check for local partner</text><line style="stroke:#000000;stroke-width:1.0;" x1="534" x2="524" y1="504.4883" y2="500.4883"/><line style="stroke:#000000;stroke-width:1.0;" x1="534" x2="524" y1="504.4883" y2="508.4883"/><line style="stroke:#000000;stroke-width:1.0;" x1="367" x2="535" y1="504.4883" y2="504.4883"/><text fill="#333333" font-family="Helvetica" font-size="11" lengthAdjust="spacing" textLength="111" x="374" y="499.9585">Present tally for review</text><path d="M318,519.4883 L392,519.4883 L392,526.7988 L382,536.7988 L318,536.7988 L318,519.4883 " fill="#EEEEEE" style="stroke:#000000;stroke-width:1.5;"/><rect fill="none" height="53.3105" style="stroke:#000000;stroke-width:1.5;" width="249" x="318" y="519.4883"/><text fill="#000000" font-family="sans-serif" font-size="13" font-weight="bold" lengthAdjust="spacing" textLength="29" x="333" y="533.0566">loop</text><text fill="#000000" font-family="sans-serif" font-size="11" font-weight="bold" lengthAdjust="spacing" textLength="86" x="407" y="532.123">[until satisfied]</text><line style="stroke:#000000;stroke-width:1.0;" x1="368" x2="378" y1="564.7988" y2="560.7988"/><line style="stroke:#000000;stroke-width:1.0;" x1="368" x2="378" y1="564.7988" y2="568.7988"/><line style="stroke:#000000;stroke-width:1.0;" x1="367" x2="535" y1="564.7988" y2="564.7988"/><text fill="#333333" font-family="Helvetica" font-size="11" lengthAdjust="spacing" textLength="85" x="384" y="549.269">Modify tally terms</text><text fill="#333333" font-family="Helvetica" font-size="11" lengthAdjust="spacing" textLength="145" x="384" y="560.269">(invalidates partner signature)</text><path d="M10,586.7988 L72,586.7988 L72,594.1094 L62,604.1094 L10,604.1094 L10,586.7988 " fill="#EEEEEE" style="stroke:#000000;stroke-width:1.5;"/><rect fill="none" height="459.2207" style="stroke:#000000;stroke-width:1.5;" width="557" x="10" y="586.7988"/><text fill="#000000" font-family="sans-serif" font-size="13" font-weight="bold" lengthAdjust="spacing" textLength="17" x="25" y="600.3672">alt</text><text fill="#000000" font-family="sans-serif" font-size="11" font-weight="bold" lengthAdjust="spacing" textLength="101" x="87" y="599.4336">[Terms agreeable]</text><line style="stroke:#000000;stroke-width:1.0;" x1="368" x2="378" y1="632.1094" y2="628.1094"/><line style="stroke:#000000;stroke-width:1.0;" x1="368" x2="378" y1="632.1094" y2="636.1094"/><line style="stroke:#000000;stroke-width:1.0;" x1="367" x2="535" y1="632.1094" y2="632.1094"/><text fill="#333333" font-family="Helvetica" font-size="11" lengthAdjust="spacing" textLength="79" x="384" y="616.5796">Accept/sign tally</text><text fill="#333333" font-family="Helvetica" font-size="11" lengthAdjust="spacing" textLength="103" x="384" y="627.5796">(if no changes made)</text><line style="stroke:#000000;stroke-width:1.0;" x1="191" x2="201" y1="657.1094" y2="653.1094"/><line style="stroke:#000000;stroke-width:1.0;" x1="191" x2="201" y1="657.1094" y2="661.1094"/><line style="stroke:#000000;stroke-width:1.0;" x1="190" x2="366" y1="657.1094" y2="657.1094"/><text fill="#333333" font-family="Helvetica" font-size="11" lengthAdjust="spacing" textLength="95" x="207" y="652.5796">Send accepted tally</text><line style="stroke:#000000;stroke-width:1.0;" x1="48" x2="58" y1="682.1094" y2="678.1094"/><line style="stroke:#000000;stroke-width:1.0;" x1="48" x2="58" y1="682.1094" y2="686.1094"/><line style="stroke:#000000;stroke-width:1.0;" x1="47" x2="189" y1="682.1094" y2="682.1094"/><text fill="#333333" font-family="Helvetica" font-size="11" lengthAdjust="spacing" textLength="101" x="64" y="677.5796">Store and notify user</text><line style="stroke:#000000;stroke-width:1.0;stroke-dasharray:2.0,2.0;" x1="10" x2="567" y1="691.1094" y2="691.1094"/><text fill="#000000" font-family="sans-serif" font-size="11" font-weight="bold" lengthAdjust="spacing" textLength="96" x="15" y="701.7441">[Want to counter]</text><line style="stroke:#000000;stroke-width:1.0;" x1="368" x2="378" y1="722.0645" y2="718.0645"/><line style="stroke:#000000;stroke-width:1.0;" x1="368" x2="378" y1="722.0645" y2="726.0645"/><line style="stroke:#000000;stroke-width:1.0;" x1="367" x2="535" y1="722.0645" y2="722.0645"/><text fill="#333333" font-family="Helvetica" font-size="11" lengthAdjust="spacing" textLength="130" x="384" y="717.5347">Sign modified counter-offer</text><line style="stroke:#000000;stroke-width:1.0;" x1="191" x2="201" y1="747.0645" y2="743.0645"/><line style="stroke:#000000;stroke-width:1.0;" x1="191" x2="201" y1="747.0645" y2="751.0645"/><line style="stroke:#000000;stroke-width:1.0;" x1="190" x2="366" y1="747.0645" y2="747.0645"/><text fill="#333333" font-family="Helvetica" font-size="11" lengthAdjust="spacing" textLength="96" x="207" y="742.5347">Send proposed tally</text><line style="stroke:#000000;stroke-width:1.0;" x1="48" x2="58" y1="772.0645" y2="768.0645"/><line style="stroke:#000000;stroke-width:1.0;" x1="48" x2="58" y1="772.0645" y2="776.0645"/><line style="stroke:#000000;stroke-width:1.0;" x1="47" x2="189" y1="772.0645" y2="772.0645"/><text fill="#333333" font-family="Helvetica" font-size="11" lengthAdjust="spacing" textLength="89" x="64" y="767.5347">Present for review</text><line style="stroke:#000000;stroke-width:1.0;" x1="188" x2="178" y1="797.0645" y2="793.0645"/><line style="stroke:#000000;stroke-width:1.0;" x1="188" x2="178" y1="797.0645" y2="801.0645"/><line style="stroke:#000000;stroke-width:1.0;" x1="47" x2="189" y1="797.0645" y2="797.0645"/><text fill="#333333" font-family="Helvetica" font-size="11" lengthAdjust="spacing" textLength="79" x="54" y="792.5347">Accept/sign tally</text><line style="stroke:#000000;stroke-width:1.0;" x1="190" x2="232" y1="822.0645" y2="822.0645"/><line style="stroke:#000000;stroke-width:1.0;" x1="232" x2="232" y1="822.0645" y2="835.0645"/><line style="stroke:#000000;stroke-width:1.0;" x1="191" x2="232" y1="835.0645" y2="835.0645"/><line style="stroke:#000000;stroke-width:1.0;" x1="191" x2="201" y1="835.0645" y2="831.0645"/><line style="stroke:#000000;stroke-width:1.0;" x1="191" x2="201" y1="835.0645" y2="839.0645"/><text fill="#333333" font-family="Helvetica" font-size="11" lengthAdjust="spacing" textLength="101" x="197" y="817.5347">Agent ack-signs tally</text><line style="stroke:#000000;stroke-width:1.0;" x1="365" x2="355" y1="860.0645" y2="856.0645"/><line style="stroke:#000000;stroke-width:1.0;" x1="365" x2="355" y1="860.0645" y2="864.0645"/><line style="stroke:#000000;stroke-width:1.0;" x1="190" x2="366" y1="860.0645" y2="860.0645"/><text fill="#333333" font-family="Helvetica" font-size="11" lengthAdjust="spacing" textLength="95" x="197" y="855.5347">Send accepted tally</text><line style="stroke:#000000;stroke-width:1.0;" x1="367" x2="409" y1="885.0645" y2="885.0645"/><line style="stroke:#000000;stroke-width:1.0;" x1="409" x2="409" y1="885.0645" y2="898.0645"/><line style="stroke:#000000;stroke-width:1.0;" x1="368" x2="409" y1="898.0645" y2="898.0645"/><line style="stroke:#000000;stroke-width:1.0;" x1="368" x2="378" y1="898.0645" y2="894.0645"/><line style="stroke:#000000;stroke-width:1.0;" x1="368" x2="378" y1="898.0645" y2="902.0645"/><text fill="#333333" font-family="Helvetica" font-size="11" lengthAdjust="spacing" textLength="101" x="374" y="880.5347">Agent ack-signs tally</text><line style="stroke:#000000;stroke-width:1.0;" x1="534" x2="524" y1="923.0645" y2="919.0645"/><line style="stroke:#000000;stroke-width:1.0;" x1="534" x2="524" y1="923.0645" y2="927.0645"/><line style="stroke:#000000;stroke-width:1.0;" x1="367" x2="535" y1="923.0645" y2="923.0645"/><text fill="#333333" font-family="Helvetica" font-size="11" lengthAdjust="spacing" textLength="53" x="374" y="918.5347">Notify user</text><line style="stroke:#000000;stroke-width:1.0;" x1="191" x2="201" y1="948.0645" y2="944.0645"/><line style="stroke:#000000;stroke-width:1.0;" x1="191" x2="201" y1="948.0645" y2="952.0645"/><line style="stroke:#000000;stroke-width:1.0;" x1="190" x2="366" y1="948.0645" y2="948.0645"/><text fill="#333333" font-family="Helvetica" font-size="11" lengthAdjust="spacing" textLength="140" x="207" y="943.5347">Agent sends ack-signed tally</text><line style="stroke:#000000;stroke-width:1.0;stroke-dasharray:2.0,2.0;" x1="10" x2="567" y1="957.0645" y2="957.0645"/><text fill="#000000" font-family="sans-serif" font-size="11" font-weight="bold" lengthAdjust="spacing" textLength="82" x="15" y="967.6992">[Refuse terms]</text><line style="stroke:#000000;stroke-width:1.0;" x1="368" x2="378" y1="988.0195" y2="984.0195"/><line style="stroke:#000000;stroke-width:1.0;" x1="368" x2="378" y1="988.0195" y2="992.0195"/><line style="stroke:#000000;stroke-width:1.0;" x1="367" x2="535" y1="988.0195" y2="988.0195"/><text fill="#333333" font-family="Helvetica" font-size="11" lengthAdjust="spacing" textLength="98" x="384" y="983.4897">Request to void tally</text><line style="stroke:#000000;stroke-width:1.0;" x1="191" x2="201" y1="1013.0195" y2="1009.0195"/><line style="stroke:#000000;stroke-width:1.0;" x1="191" x2="201" y1="1013.0195" y2="1017.0195"/><line style="stroke:#000000;stroke-width:1.0;" x1="190" x2="366" y1="1013.0195" y2="1013.0195"/><text fill="#333333" font-family="Helvetica" font-size="11" lengthAdjust="spacing" textLength="109" x="207" y="1008.4897">Send refusal message</text><line style="stroke:#000000;stroke-width:1.0;" x1="48" x2="58" y1="1038.0195" y2="1034.0195"/><line style="stroke:#000000;stroke-width:1.0;" x1="48" x2="58" y1="1038.0195" y2="1042.0195"/><line style="stroke:#000000;stroke-width:1.0;" x1="47" x2="189" y1="1038.0195" y2="1038.0195"/><text fill="#333333" font-family="Helvetica" font-size="11" lengthAdjust="spacing" textLength="101" x="64" y="1033.4897">Store and notify user</text><path d="M148,1058.0195 L148,1079.0195 L408,1079.0195 L408,1068.0195 L398,1058.0195 L148,1058.0195 " fill="#E8E8EA" style="stroke:#202024;stroke-width:0.5;"/><path d="M398,1058.0195 L398,1068.0195 L408,1068.0195 L398,1058.0195 " fill="#E8E8EA" style="stroke:#202024;stroke-width:0.5;"/><text fill="#000033" font-family="Helvetica" font-size="11" lengthAdjust="spacing" textLength="220" x="163.75" y="1071.4897">Signed tally can now be used for transactions</text><text fill="#888888" font-family="sans-serif" font-size="10" lengthAdjust="spacing" textLength="153" x="239" y="1174.6875">Mon Oct 16 18:37:09 MDT 2023</text><!--SRC=[ZLLDazCm33qtlq8i3BCxiwLt3cNONGuS-Dhk30VAmNMKrjIHW-sqqt-F52VPj0aCjoIIdgJtdfqNXhIjSmJjojBHcwekRVOgccZn-aE8QcDDs1dQWe8dPUtf9bCwEWzNNxpP6bByV0KgGELTbUMA2rJ0OHGUxlg4Xxj1oghU_48TktZWLuwtw6smZsIPrC_co-Ki0RsTpUuzgeYGUrL4Y38Sl8Pez1vZHeuZxe2-wmlmr4IWL2VOS8nm7at93nuyre4NHIZufQnjD1M_L8W-P4Wv25ZR_yTBZ_dFvR8PIcPWrceoMWP9hI6w9YYh2GGSZ89lZymlatpjwZXtnNoZAB_99ArPgGLRePMgU_JH50tccWmLJY1p4xHr0S-B6XuUyNUDeMci7P50IC-MYPHspjp7075d0ckw9tSauS0whIoeBL9yjwRx5kUuQ9VYZ9IwnzFjcXZfO7YVRb7zF7AMkd33WLAEGlIrZWjs6NDxhjfpHIhXWgyU0q_I2EBnOF0ueV_AR6dnfIYOun5EJyvA19G0SvVVGk0QpDlydff1EhiFMpCrb5XPL-zGxvjX4asLyf7G3xbj9Um6JmY3yQrp5TGKZOMWeWc5mJo3iPYVN6wAKriVqPTXJTU63ieQFZeOkjxD9YhM7cyQZmf-bYaRuKcAM4cFAAQUQl9UQwpYGY1I9-bHiCz1xnHjkKkfSWPk3oMSqoxjL8FGCmbZ2HEJAXqVMQaEp5Y6bi_-TqMjNPaH_ZeneeWBfP31H7M9V7IABltIqsT2_tsi2MV1s5eZWaPGAKsE2tEndqjcc4Wzz-4bQnV- -HVcs6gV1xHECfAGUDiyz7XzxoJ48nPSdtmsfSBWQZauSp7tX2syuF41AJ44lal-tnTSd8qkxTlkfm2m6imEMX4N7-KQhqLiqJ9wHO5_7eQlckTB-my0]--></g></svg>