<?xml version="1.0" encoding="UTF-8" standalone="no"?><svg xmlns="http://www.w3.org/2000/svg" xmlns:xlink="http://www.w3.org/1999/xlink" contentStyleType="text/css" height="722px" preserveAspectRatio="none" style="width:477px;height:722px;background:#FFFFFF;" version="1.1" viewBox="0 0 477 722" width="477px" zoomAndPan="magnify"><defs/><g><text fill="#000000" font-family="sans-serif" font-size="14" font-weight="bold" lengthAdjust="spacing" textLength="196" x="142.25" y="28.5352">Automatic Route Discovery</text><rect fill="none" height="177.5313" style="stroke:#000000;stroke-width:1.5;" width="302" x="169.5" y="199.9766"/><rect fill="none" height="146.2207" style="stroke:#000000;stroke-width:1.5;" width="256.5" x="179.5" y="224.2871"/><rect fill="none" height="158.2656" style="stroke:#000000;stroke-width:1.5;" width="256.5" x="179.5" y="422.5078"/><line style="stroke:#44AAFF;stroke-width:0.5;stroke-dasharray:5.0,5.0;" x1="41" x2="41" y1="104.9766" y2="639.7734"/><line style="stroke:#44AAFF;stroke-width:0.5;stroke-dasharray:5.0,5.0;" x1="220.5" x2="220.5" y1="104.9766" y2="639.7734"/><line style="stroke:#44AAFF;stroke-width:0.5;stroke-dasharray:5.0,5.0;" x1="379" x2="379" y1="104.9766" y2="639.7734"/><text fill="#000000" font-family="sans-serif" font-size="14" lengthAdjust="spacing" textLength="66" x="5" y="102.0234">Lift Agent</text><ellipse cx="41" cy="72.4883" fill="#E2E2F0" rx="12" ry="12" style="stroke:#181818;stroke-width:0.5;"/><polygon fill="#181818" points="37,60.4883,43,55.4883,41,60.4883,43,65.4883,37,60.4883" style="stroke:#181818;stroke-width:1.0;"/><text fill="#000000" font-family="sans-serif" font-size="14" lengthAdjust="spacing" textLength="66" x="5" y="652.3086">Lift Agent</text><ellipse cx="41" cy="671.2617" fill="#E2E2F0" rx="12" ry="12" style="stroke:#181818;stroke-width:0.5;"/><polygon fill="#181818" points="37,659.2617,43,654.2617,41,659.2617,43,664.2617,37,659.2617" style="stroke:#181818;stroke-width:1.0;"/><text fill="#000000" font-family="sans-serif" font-size="14" lengthAdjust="spacing" textLength="57" x="189.5" y="102.0234">Local DB</text><path d="M203,52.4883 C203,42.4883 221,42.4883 221,42.4883 C221,42.4883 239,42.4883 239,52.4883 L239,78.4883 C239,88.4883 221,88.4883 221,88.4883 C221,88.4883 203,88.4883 203,78.4883 L203,52.4883 " fill="#E2E2F0" style="stroke:#181818;stroke-width:1.5;"/><path d="M203,52.4883 C203,62.4883 221,62.4883 221,62.4883 C221,62.4883 239,62.4883 239,52.4883 " fill="none" style="stroke:#181818;stroke-width:1.5;"/><text fill="#000000" font-family="sans-serif" font-size="14" lengthAdjust="spacing" textLength="57" x="189.5" y="652.3086">Local DB</text><path d="M203,665.2617 C203,655.2617 221,655.2617 221,655.2617 C221,655.2617 239,655.2617 239,665.2617 L239,691.2617 C239,701.2617 221,701.2617 221,701.2617 C221,701.2617 203,701.2617 203,691.2617 L203,665.2617 " fill="#E2E2F0" style="stroke:#181818;stroke-width:1.5;"/><path d="M203,665.2617 C203,675.2617 221,675.2617 221,675.2617 C221,675.2617 239,675.2617 239,665.2617 " fill="none" style="stroke:#181818;stroke-width:1.5;"/><text fill="#000000" font-family="sans-serif" font-size="14" lengthAdjust="spacing" textLength="88" x="332" y="102.0234">Upstream DB</text><path d="M361,52.4883 C361,42.4883 379,42.4883 379,42.4883 C379,42.4883 397,42.4883 397,52.4883 L397,78.4883 C397,88.4883 379,88.4883 379,88.4883 C379,88.4883 361,88.4883 361,78.4883 L361,52.4883 " fill="#E2E2F0" style="stroke:#181818;stroke-width:1.5;"/><path d="M361,52.4883 C361,62.4883 379,62.4883 379,62.4883 C379,62.4883 397,62.4883 397,52.4883 " fill="none" style="stroke:#181818;stroke-width:1.5;"/><text fill="#000000" font-family="sans-serif" font-size="14" lengthAdjust="spacing" textLength="88" x="332" y="652.3086">Upstream DB</text><path d="M361,665.2617 C361,655.2617 379,655.2617 379,655.2617 C379,655.2617 397,655.2617 397,665.2617 L397,691.2617 C397,701.2617 379,701.2617 379,701.2617 C379,701.2617 361,701.2617 361,691.2617 L361,665.2617 " fill="#E2E2F0" style="stroke:#181818;stroke-width:1.5;"/><path d="M361,665.2617 C361,675.2617 379,675.2617 379,675.2617 C379,675.2617 397,675.2617 397,665.2617 " fill="none" style="stroke:#181818;stroke-width:1.5;"/><polygon fill="#000000" points="209,127.9766,219,131.9766,209,135.9766,213,131.9766" style="stroke:#000000;stroke-width:1.0;"/><line style="stroke:#000000;stroke-width:1.0;" x1="41" x2="215" y1="131.9766" y2="131.9766"/><text fill="#333333" font-family="Helvetica" font-size="11" lengthAdjust="spacing" textLength="156" x="48" y="127.4468">Request scan of local segments</text><path d="M138,144.9766 L138,187.9766 L303,187.9766 L303,154.9766 L293,144.9766 L138,144.9766 " fill="#E8E8EA" style="stroke:#202024;stroke-width:0.5;"/><path d="M293,144.9766 L293,154.9766 L303,154.9766 L293,144.9766 " fill="#E8E8EA" style="stroke:#202024;stroke-width:0.5;"/><text fill="#000033" font-family="Helvetica" font-size="11" lengthAdjust="spacing" textLength="144" x="144" y="158.4468">Query for local segments that</text><text fill="#000033" font-family="Helvetica" font-size="11" lengthAdjust="spacing" textLength="112" x="144" y="169.4468">- have lift capacity; and</text><text fill="#000033" font-family="Helvetica" font-size="11" lengthAdjust="spacing" textLength="103" x="144" y="180.4468">- need route attention</text><path d="M169.5,199.9766 L243.5,199.9766 L243.5,207.2871 L233.5,217.2871 L169.5,217.2871 L169.5,199.9766 " fill="#EEEEEE" style="stroke:#000000;stroke-width:1.5;"/><rect fill="none" height="177.5313" style="stroke:#000000;stroke-width:1.5;" width="302" x="169.5" y="199.9766"/><text fill="#000000" font-family="sans-serif" font-size="13" font-weight="bold" lengthAdjust="spacing" textLength="29" x="184.5" y="213.5449">loop</text><text fill="#000000" font-family="sans-serif" font-size="11" font-weight="bold" lengthAdjust="spacing" textLength="208" x="258.5" y="212.6113">[Over all segments with lift capacity]</text><path d="M179.5,224.2871 L241.5,224.2871 L241.5,231.5977 L231.5,241.5977 L179.5,241.5977 L179.5,224.2871 " fill="#EEEEEE" style="stroke:#000000;stroke-width:1.5;"/><rect fill="none" height="146.2207" style="stroke:#000000;stroke-width:1.5;" width="256.5" x="179.5" y="224.2871"/><text fill="#000000" font-family="sans-serif" font-size="13" font-weight="bold" lengthAdjust="spacing" textLength="17" x="194.5" y="237.8555">alt</text><text fill="#000000" font-family="sans-serif" font-size="11" font-weight="bold" lengthAdjust="spacing" textLength="143" x="256.5" y="236.9219">[Current routes available]</text><line style="stroke:#000000;stroke-width:1.0;" x1="221" x2="263" y1="258.5977" y2="258.5977"/><line style="stroke:#000000;stroke-width:1.0;" x1="263" x2="263" y1="258.5977" y2="271.5977"/><line style="stroke:#000000;stroke-width:1.0;" x1="222" x2="263" y1="271.5977" y2="271.5977"/><line style="stroke:#000000;stroke-width:1.0;" x1="222" x2="232" y1="271.5977" y2="267.5977"/><line style="stroke:#000000;stroke-width:1.0;" x1="222" x2="232" y1="271.5977" y2="275.5977"/><text fill="#333333" font-family="Helvetica" font-size="11" lengthAdjust="spacing" textLength="144" x="228" y="254.0679">Initiate lift request on segment</text><line style="stroke:#000000;stroke-width:1.0;stroke-dasharray:2.0,2.0;" x1="179.5" x2="436" y1="280.5977" y2="280.5977"/><text fill="#000000" font-family="sans-serif" font-size="11" font-weight="bold" lengthAdjust="spacing" textLength="246" x="184.5" y="291.2324">[Expired route found, good or failed (none)]</text><line style="stroke:#000000;stroke-width:1.0;" x1="377" x2="367" y1="311.5527" y2="307.5527"/><line style="stroke:#000000;stroke-width:1.0;" x1="377" x2="367" y1="311.5527" y2="315.5527"/><line style="stroke:#000000;stroke-width:1.0;" x1="221" x2="378" y1="311.5527" y2="311.5527"/><text fill="#333333" font-family="Helvetica" font-size="11" lengthAdjust="spacing" textLength="107" x="228" y="307.0229">Request route refresh</text><line style="stroke:#000000;stroke-width:1.0;stroke-dasharray:2.0,2.0;" x1="179.5" x2="436" y1="320.5527" y2="320.5527"/><text fill="#000000" font-family="sans-serif" font-size="11" font-weight="bold" lengthAdjust="spacing" textLength="93" x="184.5" y="331.1875">[No route found]</text><line style="stroke:#000000;stroke-width:1.0;" x1="377" x2="367" y1="362.5078" y2="358.5078"/><line style="stroke:#000000;stroke-width:1.0;" x1="377" x2="367" y1="362.5078" y2="366.5078"/><line style="stroke:#000000;stroke-width:1.0;" x1="221" x2="378" y1="362.5078" y2="362.5078"/><text fill="#333333" font-family="Helvetica" font-size="11" lengthAdjust="spacing" textLength="86" x="228" y="346.978">Create draft route</text><text fill="#333333" font-family="Helvetica" font-size="11" lengthAdjust="spacing" textLength="80" x="228" y="357.978">Query upstream</text><path d="M111,389.5078 L111,410.5078 L330,410.5078 L330,399.5078 L320,389.5078 L111,389.5078 " fill="#E8E8EA" style="stroke:#202024;stroke-width:0.5;"/><path d="M320,389.5078 L320,399.5078 L330,399.5078 L320,389.5078 " fill="#E8E8EA" style="stroke:#202024;stroke-width:0.5;"/><text fill="#000033" font-family="Helvetica" font-size="11" lengthAdjust="spacing" textLength="198" x="117" y="402.978">new route status indeterminate (pending)</text><path d="M179.5,422.5078 L241.5,422.5078 L241.5,429.8184 L231.5,439.8184 L179.5,439.8184 L179.5,422.5078 " fill="#EEEEEE" style="stroke:#000000;stroke-width:1.5;"/><rect fill="none" height="158.2656" style="stroke:#000000;stroke-width:1.5;" width="256.5" x="179.5" y="422.5078"/><text fill="#000000" font-family="sans-serif" font-size="13" font-weight="bold" lengthAdjust="spacing" textLength="17" x="194.5" y="436.0762">alt</text><text fill="#000000" font-family="sans-serif" font-size="11" font-weight="bold" lengthAdjust="spacing" textLength="110" x="256.5" y="435.1426">[Negative response]</text><line style="stroke:#000000;stroke-width:1.0;" x1="222" x2="232" y1="456.8184" y2="452.8184"/><line style="stroke:#000000;stroke-width:1.0;" x1="222" x2="232" y1="456.8184" y2="460.8184"/><line style="stroke:#000000;stroke-width:1.0;" x1="221" x2="378" y1="456.8184" y2="456.8184"/><text fill="#333333" font-family="Helvetica" font-size="11" lengthAdjust="spacing" textLength="118" x="238" y="452.2886">Route impossible (none)</text><line style="stroke:#000000;stroke-width:1.0;" x1="221" x2="263" y1="481.8184" y2="481.8184"/><line style="stroke:#000000;stroke-width:1.0;" x1="263" x2="263" y1="481.8184" y2="494.8184"/><line style="stroke:#000000;stroke-width:1.0;" x1="222" x2="263" y1="494.8184" y2="494.8184"/><line style="stroke:#000000;stroke-width:1.0;" x1="222" x2="232" y1="494.8184" y2="490.8184"/><line style="stroke:#000000;stroke-width:1.0;" x1="222" x2="232" y1="494.8184" y2="498.8184"/><text fill="#333333" font-family="Helvetica" font-size="11" lengthAdjust="spacing" textLength="113" x="228" y="477.2886">Set route status = none</text><line style="stroke:#000000;stroke-width:1.0;stroke-dasharray:2.0,2.0;" x1="179.5" x2="436" y1="503.8184" y2="503.8184"/><text fill="#000000" font-family="sans-serif" font-size="11" font-weight="bold" lengthAdjust="spacing" textLength="107" x="184.5" y="514.4531">[Positive response]</text><line style="stroke:#000000;stroke-width:1.0;" x1="222" x2="232" y1="534.7734" y2="530.7734"/><line style="stroke:#000000;stroke-width:1.0;" x1="222" x2="232" y1="534.7734" y2="538.7734"/><line style="stroke:#000000;stroke-width:1.0;" x1="221" x2="378" y1="534.7734" y2="534.7734"/><text fill="#333333" font-family="Helvetica" font-size="11" lengthAdjust="spacing" textLength="56" x="238" y="530.2437">Route good</text><line style="stroke:#000000;stroke-width:1.0;" x1="221" x2="263" y1="559.7734" y2="559.7734"/><line style="stroke:#000000;stroke-width:1.0;" x1="263" x2="263" y1="559.7734" y2="572.7734"/><line style="stroke:#000000;stroke-width:1.0;" x1="222" x2="263" y1="572.7734" y2="572.7734"/><line style="stroke:#000000;stroke-width:1.0;" x1="222" x2="232" y1="572.7734" y2="568.7734"/><line style="stroke:#000000;stroke-width:1.0;" x1="222" x2="232" y1="572.7734" y2="576.7734"/><text fill="#333333" font-family="Helvetica" font-size="11" lengthAdjust="spacing" textLength="113" x="228" y="555.2437">Set route status = good</text><path d="M149,592.7734 L149,624.7734 L293,624.7734 L293,602.7734 L283,592.7734 L149,592.7734 " fill="#E8E8EA" style="stroke:#202024;stroke-width:0.5;"/><path d="M283,592.7734 L283,602.7734 L293,602.7734 L283,592.7734 " fill="#E8E8EA" style="stroke:#202024;stroke-width:0.5;"/><text fill="#000033" font-family="Helvetica" font-size="11" lengthAdjust="spacing" textLength="123" x="155" y="606.2437">routes will eventually time</text><text fill="#000033" font-family="Helvetica" font-size="11" lengthAdjust="spacing" textLength="117" x="155" y="617.2437">out and become expired</text><text fill="#888888" font-family="sans-serif" font-size="10" lengthAdjust="spacing" textLength="142" x="169.25" y="711.9297">Fri Feb 10 23:38:45 MST 2023</text><!--SRC=[bLFHRjH037nEliAjaBYJA1zG15BRum495IZYZHTVukHMsjXXrvlZ_XvlahlcQ96eb4X9nZjZZoSNZYkVQe9AkaxuRPywNxvIfvvMDqcbGtKLF4XIWesBbGmK3kko4jOW7Yu_kqRXfYNMIy08c9_A6XMt6CbWgT33vdO4VNxPt2xW7ttKGDWTAr9lyEj7V2DxFg-exOlLbADGSVMXc4clY-A1VYMA2h521cacEOZKTbOQovB5PiZzdne1-9Pi76Wa_5KDkaCr_0fsE13uF6M5FLPE3-y0kHun9geXZDwWgfrpmYLn3LcgBBr83r-o8Fe5zTxfxfpHoD0htAKGh69YD2y7T1wtdWo6OyysycBcJ-pKeSuDXja0uQEOdRIBl7dvyNVlmgdTHXBNRw0LgS66Rqp9i1KBq_g9NDxAmj-98L0JAEx6ugF6lIpf_yLpP_kqcZfWCvFzv6aFQOx3YTH8ycsFJvPtRUxlPxceg2c2uvgKGkSuywzwE-guNLjOpDnxQYtAGsuyzi8nkveREZUqc9BkkbvYTERzeoVFBk0xwNaFxo7NPzz7HxvATF-jchVn0g6nVFJdMNlc5EsTPOy62qEo51v0NMT-6vPJ35ko_vw0fd0OqHy0]--></g></svg>