<?xml version="1.0" encoding="UTF-8" standalone="no"?><svg xmlns="http://www.w3.org/2000/svg" xmlns:xlink="http://www.w3.org/1999/xlink" contentStyleType="text/css" height="372px" preserveAspectRatio="none" style="width:327px;height:372px;background:#FFFFFF;" version="1.1" viewBox="0 0 327 372" width="327px" zoomAndPan="magnify"><defs/><g><text fill="#000000" font-family="sans-serif" font-size="14" font-weight="bold" lengthAdjust="spacing" textLength="115" x="104.5" y="28.5352">Referee Queries</text><rect fill="none" height="160.2207" style="stroke:#000000;stroke-width:1.5;" width="298" x="10" y="145.4883"/><line style="stroke:#44AAFF;stroke-width:0.5;stroke-dasharray:5.0,5.0;" x1="46" x2="46" y1="72.4883" y2="322.709"/><line style="stroke:#44AAFF;stroke-width:0.5;stroke-dasharray:5.0,5.0;" x1="236.5" x2="236.5" y1="72.4883" y2="322.709"/><rect fill="#E8E8EA" height="25" rx="2.5" ry="2.5" style="stroke:#202024;stroke-width:0.5;" width="53" x="20" y="46.4883"/><text fill="#000033" font-family="Helvetica" font-size="11" lengthAdjust="spacing" textLength="39" x="27" y="61.9585">Referee</text><rect fill="#E8E8EA" height="25" rx="2.5" ry="2.5" style="stroke:#202024;stroke-width:0.5;" width="53" x="20" y="321.709"/><text fill="#000033" font-family="Helvetica" font-size="11" lengthAdjust="spacing" textLength="39" x="27" y="337.1792">Referee</text><rect fill="#E8E8EA" height="25" style="stroke:#202024;stroke-width:0.5;" width="60" x="208.5" y="42.4883"/><rect fill="#E8E8EA" height="25" style="stroke:#202024;stroke-width:0.5;" width="60" x="204.5" y="46.4883"/><text fill="#000033" font-family="Helvetica" font-size="11" lengthAdjust="spacing" textLength="46" x="211.5" y="61.9585">Any node</text><rect fill="#E8E8EA" height="25" style="stroke:#202024;stroke-width:0.5;" width="60" x="208.5" y="321.709"/><rect fill="#E8E8EA" height="25" style="stroke:#202024;stroke-width:0.5;" width="60" x="204.5" y="325.709"/><text fill="#000033" font-family="Helvetica" font-size="11" lengthAdjust="spacing" textLength="46" x="211.5" y="341.1792">Any node</text><path d="M152,87.4883 L152,108.4883 L320,108.4883 L320,97.4883 L310,87.4883 L152,87.4883 " fill="#E8E8EA" style="stroke:#202024;stroke-width:0.5;"/><path d="M310,87.4883 L310,97.4883 L320,97.4883 L310,87.4883 " fill="#E8E8EA" style="stroke:#202024;stroke-width:0.5;"/><text fill="#000033" font-family="Helvetica" font-size="11" lengthAdjust="spacing" textLength="147" x="158" y="100.9585">Node suspects lift has expired</text><line style="stroke:#000000;stroke-width:1.0;" x1="47.5" x2="57.5" y1="130.4883" y2="126.4883"/><line style="stroke:#000000;stroke-width:1.0;" x1="47.5" x2="57.5" y1="130.4883" y2="134.4883"/><line style="stroke:#000000;stroke-width:1.0;" x1="46.5" x2="235.5" y1="130.4883" y2="130.4883"/><text fill="#333333" font-family="Helvetica" font-size="11" lengthAdjust="spacing" textLength="98" x="63.5" y="125.9585">Has this lift expired?</text><path d="M10,145.4883 L72,145.4883 L72,152.7988 L62,162.7988 L10,162.7988 L10,145.4883 " fill="#EEEEEE" style="stroke:#000000;stroke-width:1.5;"/><rect fill="none" height="160.2207" style="stroke:#000000;stroke-width:1.5;" width="298" x="10" y="145.4883"/><text fill="#000000" font-family="sans-serif" font-size="13" font-weight="bold" lengthAdjust="spacing" textLength="17" x="25" y="159.0566">alt</text><text fill="#000000" font-family="sans-serif" font-size="11" font-weight="bold" lengthAdjust="spacing" textLength="121" x="87" y="158.123">[Lift has been signed]</text><line style="stroke:#000000;stroke-width:1.0;" x1="234.5" x2="224.5" y1="179.7988" y2="175.7988"/><line style="stroke:#000000;stroke-width:1.0;" x1="234.5" x2="224.5" y1="179.7988" y2="183.7988"/><line style="stroke:#000000;stroke-width:1.0;" x1="46.5" x2="235.5" y1="179.7988" y2="179.7988"/><text fill="#333333" font-family="Helvetica" font-size="11" lengthAdjust="spacing" textLength="141" x="53.5" y="175.269">Its good, here's the signature</text><line style="stroke:#000000;stroke-width:1.0;stroke-dasharray:2.0,2.0;" x1="10" x2="308" y1="188.7988" y2="188.7988"/><text fill="#000000" font-family="sans-serif" font-size="11" font-weight="bold" lengthAdjust="spacing" textLength="270" x="15" y="199.4336">[Lift not committed yet, but still within timeout]</text><line style="stroke:#000000;stroke-width:1.0;" x1="234.5" x2="224.5" y1="219.7539" y2="215.7539"/><line style="stroke:#000000;stroke-width:1.0;" x1="234.5" x2="224.5" y1="219.7539" y2="223.7539"/><line style="stroke:#000000;stroke-width:1.0;" x1="46.5" x2="235.5" y1="219.7539" y2="219.7539"/><text fill="#333333" font-family="Helvetica" font-size="11" lengthAdjust="spacing" textLength="84" x="53.5" y="215.2241">Lift is still pending</text><line style="stroke:#000000;stroke-width:1.0;stroke-dasharray:2.0,2.0;" x1="10" x2="308" y1="228.7539" y2="228.7539"/><text fill="#000000" font-family="sans-serif" font-size="11" font-weight="bold" lengthAdjust="spacing" textLength="293" x="15" y="239.3887">[Never heard of lift, but it would be expired by now]</text><line style="stroke:#000000;stroke-width:1.0;" x1="46.5" x2="88.5" y1="259.709" y2="259.709"/><line style="stroke:#000000;stroke-width:1.0;" x1="88.5" x2="88.5" y1="259.709" y2="272.709"/><line style="stroke:#000000;stroke-width:1.0;" x1="47.5" x2="88.5" y1="272.709" y2="272.709"/><line style="stroke:#000000;stroke-width:1.0;" x1="47.5" x2="57.5" y1="272.709" y2="268.709"/><line style="stroke:#000000;stroke-width:1.0;" x1="47.5" x2="57.5" y1="272.709" y2="276.709"/><text fill="#333333" font-family="Helvetica" font-size="11" lengthAdjust="spacing" textLength="176" x="53.5" y="255.1792">Remember this lift judged as expired</text><line style="stroke:#000000;stroke-width:1.0;" x1="234.5" x2="224.5" y1="297.709" y2="293.709"/><line style="stroke:#000000;stroke-width:1.0;" x1="234.5" x2="224.5" y1="297.709" y2="301.709"/><line style="stroke:#000000;stroke-width:1.0;" x1="46.5" x2="235.5" y1="297.709" y2="297.709"/><text fill="#333333" font-family="Helvetica" font-size="11" lengthAdjust="spacing" textLength="53" x="53.5" y="293.1792">Lift expired</text><text fill="#888888" font-family="sans-serif" font-size="10" lengthAdjust="spacing" textLength="142" x="91" y="362.377">Fri Feb 10 23:38:52 MST 2023</text><!--SRC=[TL1BJiCm45t7fnWY940g7A2B8gekG495z0PEF4q6ERPbZoczFHCd0OHWPslU_u9SQxD1QFqmU7SNyc3L9HDRl3xW4ICYl6QCXEb61HsPMWhQCTJpjGQT84vlTMKqwqOdXFebKaTEiu-msnPGY3xijghrrcBBv5s2-i6TmNapgMXtLifvHl3l6CVlkjhB4L9EGIW9B1qPUe7YHw28HWccgcutcsfEiAuUvSezpTWPTw-KjWpF2xr1T92eSo81I_gYKqoh9_7gl3ShwELoDIfYmMlE4PL2AnMBciGjqn4p6ZWZhw3938d9MZYH9770DA3F_ATJ4P6q4o6WC-IwsM2FummzwcZ07qkXIPqOJZvR8psMXj2CGvv-UNojSi01XqRKlgTvowOJteyn_yst09J4Kvy0]--></g></svg>