<?xml version="1.0" encoding="UTF-8" standalone="no"?><svg xmlns="http://www.w3.org/2000/svg" xmlns:xlink="http://www.w3.org/1999/xlink" contentScriptType="application/ecmascript" contentStyleType="text/css" height="266px" preserveAspectRatio="none" style="width:390px;height:266px;" version="1.1" viewBox="0 0 390 266" width="390px" zoomAndPan="magnify"><defs><filter height="300%" id="ftj4x7hkzl1rk" width="300%" x="-1" y="-1"><feGaussianBlur result="blurOut" stdDeviation="2.0"/><feColorMatrix in="blurOut" result="blurOut2" type="matrix" values="0 0 0 0 0 0 0 0 0 0 0 0 0 0 0 0 0 0 .4 0"/><feOffset dx="4.0" dy="4.0" in="blurOut2" result="blurOut3"/><feBlend in="SourceGraphic" in2="blurOut3" mode="normal"/></filter></defs><g><text fill="#000000" font-family="sans-serif" font-size="18" lengthAdjust="spacing" textLength="243" x="75.75" y="29.4023">Route Query Response (WIP)</text><line style="stroke:#44AAFF;stroke-width:1.0;stroke-dasharray:5.0,5.0;" x1="41" x2="41" y1="102.6875" y2="182.6875"/><line style="stroke:#44AAFF;stroke-width:1.0;stroke-dasharray:5.0,5.0;" x1="118" x2="118" y1="102.6875" y2="182.6875"/><line style="stroke:#44AAFF;stroke-width:1.0;stroke-dasharray:5.0,5.0;" x1="218.5" x2="218.5" y1="102.6875" y2="182.6875"/><line style="stroke:#44AAFF;stroke-width:1.0;stroke-dasharray:5.0,5.0;" x1="332.5" x2="332.5" y1="102.6875" y2="182.6875"/><text fill="#000000" font-family="sans-serif" font-size="14" lengthAdjust="spacing" textLength="66" x="5" y="99.7344">Lift Agent</text><ellipse cx="41" cy="70.1992" fill="#FEFECE" filter="url(#ftj4x7hkzl1rk)" rx="12" ry="12" style="stroke:#A80036;stroke-width:2.0;"/><polygon fill="#A80036" points="37,58.1992,43,53.1992,41,58.1992,43,63.1992,37,58.1992" style="stroke:#A80036;stroke-width:1.0;"/><text fill="#000000" font-family="sans-serif" font-size="14" lengthAdjust="spacing" textLength="66" x="5" y="195.2227">Lift Agent</text><ellipse cx="41" cy="214.1758" fill="#FEFECE" filter="url(#ftj4x7hkzl1rk)" rx="12" ry="12" style="stroke:#A80036;stroke-width:2.0;"/><polygon fill="#A80036" points="37,202.1758,43,197.1758,41,202.1758,43,207.1758,37,202.1758" style="stroke:#A80036;stroke-width:1.0;"/><text fill="#000000" font-family="sans-serif" font-size="14" lengthAdjust="spacing" textLength="57" x="87" y="99.7344">Local DB</text><path d="M100.5,50.1992 C100.5,40.1992 118.5,40.1992 118.5,40.1992 C118.5,40.1992 136.5,40.1992 136.5,50.1992 L136.5,76.1992 C136.5,86.1992 118.5,86.1992 118.5,86.1992 C118.5,86.1992 100.5,86.1992 100.5,76.1992 L100.5,50.1992 " fill="#FEFECE" filter="url(#ftj4x7hkzl1rk)" style="stroke:#000000;stroke-width:1.5;"/><path d="M100.5,50.1992 C100.5,60.1992 118.5,60.1992 118.5,60.1992 C118.5,60.1992 136.5,60.1992 136.5,50.1992 " fill="none" style="stroke:#000000;stroke-width:1.5;"/><text fill="#000000" font-family="sans-serif" font-size="14" lengthAdjust="spacing" textLength="57" x="87" y="195.2227">Local DB</text><path d="M100.5,208.1758 C100.5,198.1758 118.5,198.1758 118.5,198.1758 C118.5,198.1758 136.5,198.1758 136.5,208.1758 L136.5,234.1758 C136.5,244.1758 118.5,244.1758 118.5,244.1758 C118.5,244.1758 100.5,244.1758 100.5,234.1758 L100.5,208.1758 " fill="#FEFECE" filter="url(#ftj4x7hkzl1rk)" style="stroke:#000000;stroke-width:1.5;"/><path d="M100.5,208.1758 C100.5,218.1758 118.5,218.1758 118.5,218.1758 C118.5,218.1758 136.5,218.1758 136.5,208.1758 " fill="none" style="stroke:#000000;stroke-width:1.5;"/><text fill="#000000" font-family="sans-serif" font-size="14" lengthAdjust="spacing" textLength="88" x="171.5" y="99.7344">Upstream DB</text><path d="M200.5,50.1992 C200.5,40.1992 218.5,40.1992 218.5,40.1992 C218.5,40.1992 236.5,40.1992 236.5,50.1992 L236.5,76.1992 C236.5,86.1992 218.5,86.1992 218.5,86.1992 C218.5,86.1992 200.5,86.1992 200.5,76.1992 L200.5,50.1992 " fill="#FEFECE" filter="url(#ftj4x7hkzl1rk)" style="stroke:#000000;stroke-width:1.5;"/><path d="M200.5,50.1992 C200.5,60.1992 218.5,60.1992 218.5,60.1992 C218.5,60.1992 236.5,60.1992 236.5,50.1992 " fill="none" style="stroke:#000000;stroke-width:1.5;"/><text fill="#000000" font-family="sans-serif" font-size="14" lengthAdjust="spacing" textLength="88" x="171.5" y="195.2227">Upstream DB</text><path d="M200.5,208.1758 C200.5,198.1758 218.5,198.1758 218.5,198.1758 C218.5,198.1758 236.5,198.1758 236.5,208.1758 L236.5,234.1758 C236.5,244.1758 218.5,244.1758 218.5,244.1758 C218.5,244.1758 200.5,244.1758 200.5,234.1758 L200.5,208.1758 " fill="#FEFECE" filter="url(#ftj4x7hkzl1rk)" style="stroke:#000000;stroke-width:1.5;"/><path d="M200.5,208.1758 C200.5,218.1758 218.5,218.1758 218.5,218.1758 C218.5,218.1758 236.5,218.1758 236.5,208.1758 " fill="none" style="stroke:#000000;stroke-width:1.5;"/><text fill="#000000" font-family="sans-serif" font-size="14" lengthAdjust="spacing" textLength="108" x="275.5" y="99.7344">Downstream DB</text><path d="M314.5,50.1992 C314.5,40.1992 332.5,40.1992 332.5,40.1992 C332.5,40.1992 350.5,40.1992 350.5,50.1992 L350.5,76.1992 C350.5,86.1992 332.5,86.1992 332.5,86.1992 C332.5,86.1992 314.5,86.1992 314.5,76.1992 L314.5,50.1992 " fill="#FEFECE" filter="url(#ftj4x7hkzl1rk)" style="stroke:#000000;stroke-width:1.5;"/><path d="M314.5,50.1992 C314.5,60.1992 332.5,60.1992 332.5,60.1992 C332.5,60.1992 350.5,60.1992 350.5,50.1992 " fill="none" style="stroke:#000000;stroke-width:1.5;"/><text fill="#000000" font-family="sans-serif" font-size="14" lengthAdjust="spacing" textLength="108" x="275.5" y="195.2227">Downstream DB</text><path d="M314.5,208.1758 C314.5,198.1758 332.5,198.1758 332.5,198.1758 C332.5,198.1758 350.5,198.1758 350.5,208.1758 L350.5,234.1758 C350.5,244.1758 332.5,244.1758 332.5,244.1758 C332.5,244.1758 314.5,244.1758 314.5,234.1758 L314.5,208.1758 " fill="#FEFECE" filter="url(#ftj4x7hkzl1rk)" style="stroke:#000000;stroke-width:1.5;"/><path d="M314.5,208.1758 C314.5,218.1758 332.5,218.1758 332.5,218.1758 C332.5,218.1758 350.5,218.1758 350.5,208.1758 " fill="none" style="stroke:#000000;stroke-width:1.5;"/><line style="stroke:#000000;stroke-width:1.0;" x1="216.5" x2="206.5" y1="129.6875" y2="125.6875"/><line style="stroke:#000000;stroke-width:1.0;" x1="216.5" x2="206.5" y1="129.6875" y2="133.6875"/><line style="stroke:#000000;stroke-width:1.0;" x1="118.5" x2="217.5" y1="129.6875" y2="129.6875"/><text fill="#333333" font-family="Helvetica" font-size="11" lengthAdjust="spacing" textLength="76" x="125.5" y="125.1577">Something here</text><path d="M82,142.6875 L82,163.6875 L151,163.6875 L151,152.6875 L141,142.6875 L82,142.6875 " fill="#E8E8EA" filter="url(#ftj4x7hkzl1rk)" style="stroke:#202024;stroke-width:1.0;"/><path d="M141,142.6875 L141,152.6875 L151,152.6875 L141,142.6875 " fill="#E8E8EA" style="stroke:#202024;stroke-width:1.0;"/><text fill="#000033" font-family="Helvetica" font-size="11" lengthAdjust="spacing" textLength="48" x="88" y="156.1577">Note here</text><text fill="#888888" font-family="sans-serif" font-size="10" lengthAdjust="spacing" textLength="150" x="122.25" y="257.8438">Thu Mar 11 13:51:53 MST 2021</text><!--MD5=[071f9e32ea3fcf3f7500ba697b306778]
@startuml
!include common.puml
$title(Route Query Response (WIP))
control "Lift Agent" as agent
database "Local DB" as localDB
database "Upstream DB" as upDB
database "Downstream DB" as downDB

'collections "Other Peers on Network" as net

localDB	->>	upDB:		Something here

note over localDB
  Note here
end note

'alt User specified this partner explicitly
'  userDB	->	partDB:		Request route refresh
'  
'else This tally lacks capacity
'  userDB	->	userDB:
'  note right: Do nothing
'
'else No existing route found
'  userDB	->	partDB:		Query for new route
'
'else Existing stale route found
'  userDB	->	partDB:		Request route refresh
'
'else Existing route is (recently) failed
'  userDB	->	userDB:
'  note right: do nothing
'end

@enduml

@startuml



skinparam backgroundColor fff
skinparam stereotypeCBackgroundColor 27d






skinparam circledCharacter {
  radius 8
  fontSize 11
  fontName Helvetica
}

skinparam class {
    backgroundColor e8e8ea
  borderColor 202024
    fontColor 003
  fontName Helvetica
  fontSize 11
  stereotypeFontColor 333
  stereotypeFontSize 11
    arrowColor 000
  arrowFontName Helvetica
  arrowFontColor 333
  arrowFontSize 11

  attributeFontColor 333
  attributeFontSize 11
  attributeIconSize 11
}

skinparam actor {
    backgroundColor 4af
  borderColor 27d
    fontColor 003
  fontName Helvetica
  fontSize 11
  stereotypeFontColor 333
  stereotypeFontSize 11
}

skinparam participant {
    backgroundColor e8e8ea
  borderColor 202024
    fontColor 003
  fontName Helvetica
  fontSize 11
  stereotypeFontColor 333
  stereotypeFontSize 11
}

skinparam collections {
    backgroundColor e8e8ea
  borderColor 202024
    fontColor 003
  fontName Helvetica
  fontSize 11
  stereotypeFontColor 333
  stereotypeFontSize 11
}

skinparam SequenceBox{
    backgroundColor e0e0e0
  borderColor cccccc
    fontColor 003
  fontName Helvetica
  fontSize 11
  stereotypeFontColor 333
  stereotypeFontSize 11
}

skinparam interface {
    backgroundColor 4af
  borderColor 27d
    fontColor 003
  fontName Helvetica
  fontSize 11
  stereotypeFontColor 333
  stereotypeFontSize 11
}

skinparam component {
    backgroundColor e8e8ea
  borderColor 202024
    fontColor 003
  fontName Helvetica
  fontSize 11
  stereotypeFontColor 333
  stereotypeFontSize 11
}



skinparam queue {
    backgroundColor e8e8ea
  borderColor 202024
    fontColor 003
  fontName Helvetica
  fontSize 11
  stereotypeFontColor 333
  stereotypeFontSize 11
}


skinparam usecase {
    backgroundColor e8e8ea
  borderColor 202024
    fontColor 003
  fontName Helvetica
  fontSize 11
  stereotypeFontColor 333
  stereotypeFontSize 11
    arrowColor 000
  arrowFontName Helvetica
  arrowFontColor 333
  arrowFontSize 11
}

skinparam activity {
    backgroundColor e8e8ea
  borderColor 202024
    fontColor 003
  fontName Helvetica
  fontSize 11
  stereotypeFontColor 333
  stereotypeFontSize 11
    arrowColor 000
  arrowFontName Helvetica
  arrowFontColor 333
  arrowFontSize 11
}

skinparam sequence {
    fontColor 003
  fontName Helvetica
  fontSize 11
  stereotypeFontColor 333
  stereotypeFontSize 11
    arrowColor 000
  arrowFontName Helvetica
  arrowFontColor 333
  arrowFontSize 11

  lifeLineBorderColor 4af
  lifeLineBackgroundColor e0e0e0
}




skinparam state {
    backgroundColor e8e8ea
  borderColor 202024
    fontColor 003
  fontName Helvetica
  fontSize 11
  stereotypeFontColor 333
  stereotypeFontSize 11
    arrowColor 000
  arrowFontName Helvetica
  arrowFontColor 333
  arrowFontSize 11
  startColor 4af
  endColor 27d
}

skinparam note {
    backgroundColor e8e8ea
  borderColor 202024
    fontColor 003
  fontName Helvetica
  fontSize 11
  stereotypeFontColor 333
  stereotypeFontSize 11
}







  title Route Query Response (WIP)
  footer Thu Mar 11 13:51:53 MST 2021
control "Lift Agent" as agent
database "Local DB" as localDB
database "Upstream DB" as upDB
database "Downstream DB" as downDB


localDB	->>	upDB:		Something here

note over localDB
  Note here
end note


@enduml

PlantUML version 1.2021.00(Sun Jan 10 03:25:05 MST 2021)
(GPL source distribution)
Java Runtime: OpenJDK Runtime Environment
JVM: OpenJDK 64-Bit Server VM
Default Encoding: UTF-8
Language: en
Country: US
--></g></svg>