<?xml version="1.0" encoding="UTF-8" standalone="no"?><svg xmlns="http://www.w3.org/2000/svg" xmlns:xlink="http://www.w3.org/1999/xlink" contentStyleType="text/css" height="1012px" preserveAspectRatio="none" style="width:568px;height:1012px;background:#FFFFFF;" version="1.1" viewBox="0 0 568 1012" width="568px" zoomAndPan="magnify"><defs/><g><text fill="#000000" font-family="sans-serif" font-size="14" font-weight="bold" lengthAdjust="spacing" textLength="143" x="213.5" y="28.5352">Establishing a Tally</text><rect fill="none" height="42.3105" style="stroke:#000000;stroke-width:1.5;" width="245" x="316" y="470.4883"/><rect fill="none" height="347.2207" style="stroke:#000000;stroke-width:1.5;" width="551" x="10" y="526.7988"/><line style="stroke:#44AAFF;stroke-width:0.5;stroke-dasharray:5.0,5.0;" x1="47" x2="47" y1="113.4883" y2="922.0195"/><line style="stroke:#44AAFF;stroke-width:0.5;stroke-dasharray:5.0,5.0;" x1="187.5" x2="187.5" y1="113.4883" y2="922.0195"/><line style="stroke:#44AAFF;stroke-width:0.5;stroke-dasharray:5.0,5.0;" x1="365" x2="365" y1="113.4883" y2="922.0195"/><line style="stroke:#44AAFF;stroke-width:0.5;stroke-dasharray:5.0,5.0;" x1="530" x2="530" y1="113.4883" y2="922.0195"/><text fill="#000033" font-family="Helvetica" font-size="11" lengthAdjust="spacing" textLength="48" x="20" y="110.9585">Originator</text><ellipse cx="47" cy="50.9883" fill="#44AAFF" rx="8" ry="8" style="stroke:#2277DD;stroke-width:0.5;"/><path d="M47,58.9883 L47,85.9883 M34,66.9883 L60,66.9883 M47,85.9883 L34,100.9883 M47,85.9883 L60,100.9883 " fill="none" style="stroke:#2277DD;stroke-width:0.5;"/><text fill="#000033" font-family="Helvetica" font-size="11" lengthAdjust="spacing" textLength="48" x="20" y="929.4897">Originator</text><ellipse cx="47" cy="940.5195" fill="#44AAFF" rx="8" ry="8" style="stroke:#2277DD;stroke-width:0.5;"/><path d="M47,948.5195 L47,975.5195 M34,956.5195 L60,956.5195 M47,975.5195 L34,990.5195 M47,975.5195 L60,990.5195 " fill="none" style="stroke:#2277DD;stroke-width:0.5;"/><text fill="#000000" font-family="sans-serif" font-size="14" lengthAdjust="spacing" textLength="93" x="138.5" y="110.5352">Originator DB</text><path d="M170,61 C170,51 188,51 188,51 C188,51 206,51 206,61 L206,87 C206,97 188,97 188,97 C188,97 170,97 170,87 L170,61 " fill="#E2E2F0" style="stroke:#181818;stroke-width:1.5;"/><path d="M170,61 C170,71 188,71 188,71 C188,71 206,71 206,61 " fill="none" style="stroke:#181818;stroke-width:1.5;"/><text fill="#000000" font-family="sans-serif" font-size="14" lengthAdjust="spacing" textLength="93" x="138.5" y="934.5547">Originator DB</text><path d="M170,947.5078 C170,937.5078 188,937.5078 188,937.5078 C188,937.5078 206,937.5078 206,947.5078 L206,973.5078 C206,983.5078 188,983.5078 188,983.5078 C188,983.5078 170,983.5078 170,973.5078 L170,947.5078 " fill="#E2E2F0" style="stroke:#181818;stroke-width:1.5;"/><path d="M170,947.5078 C170,957.5078 188,957.5078 188,957.5078 C188,957.5078 206,957.5078 206,947.5078 " fill="none" style="stroke:#181818;stroke-width:1.5;"/><text fill="#000000" font-family="sans-serif" font-size="14" lengthAdjust="spacing" textLength="72" x="326" y="110.5352">Subject DB</text><path d="M347,61 C347,51 365,51 365,51 C365,51 383,51 383,61 L383,87 C383,97 365,97 365,97 C365,97 347,97 347,87 L347,61 " fill="#E2E2F0" style="stroke:#181818;stroke-width:1.5;"/><path d="M347,61 C347,71 365,71 365,71 C365,71 383,71 383,61 " fill="none" style="stroke:#181818;stroke-width:1.5;"/><text fill="#000000" font-family="sans-serif" font-size="14" lengthAdjust="spacing" textLength="72" x="326" y="934.5547">Subject DB</text><path d="M347,947.5078 C347,937.5078 365,937.5078 365,937.5078 C365,937.5078 383,937.5078 383,947.5078 L383,973.5078 C383,983.5078 365,983.5078 365,983.5078 C365,983.5078 347,983.5078 347,973.5078 L347,947.5078 " fill="#E2E2F0" style="stroke:#181818;stroke-width:1.5;"/><path d="M347,947.5078 C347,957.5078 365,957.5078 365,957.5078 C365,957.5078 383,957.5078 383,947.5078 " fill="none" style="stroke:#181818;stroke-width:1.5;"/><text fill="#000033" font-family="Helvetica" font-size="11" lengthAdjust="spacing" textLength="36" x="509" y="110.9585">Subject</text><ellipse cx="530" cy="50.9883" fill="#44AAFF" rx="8" ry="8" style="stroke:#2277DD;stroke-width:0.5;"/><path d="M530,58.9883 L530,85.9883 M517,66.9883 L543,66.9883 M530,85.9883 L517,100.9883 M530,85.9883 L543,100.9883 " fill="none" style="stroke:#2277DD;stroke-width:0.5;"/><text fill="#000033" font-family="Helvetica" font-size="11" lengthAdjust="spacing" textLength="36" x="509" y="929.4897">Subject</text><ellipse cx="530" cy="940.5195" fill="#44AAFF" rx="8" ry="8" style="stroke:#2277DD;stroke-width:0.5;"/><path d="M530,948.5195 L530,975.5195 M517,956.5195 L543,956.5195 M530,975.5195 L517,990.5195 M530,975.5195 L543,990.5195 " fill="none" style="stroke:#2277DD;stroke-width:0.5;"/><line style="stroke:#000000;stroke-width:1.0;" x1="186" x2="176" y1="140.4883" y2="136.4883"/><line style="stroke:#000000;stroke-width:1.0;" x1="186" x2="176" y1="140.4883" y2="144.4883"/><line style="stroke:#000000;stroke-width:1.0;" x1="47" x2="187" y1="140.4883" y2="140.4883"/><text fill="#333333" font-family="Helvetica" font-size="11" lengthAdjust="spacing" textLength="117" x="54" y="135.9585">Create void tally &amp; ticket</text><path d="M48,153.4883 L48,174.4883 L327,174.4883 L327,163.4883 L317,153.4883 L48,153.4883 " fill="#E8E8EA" style="stroke:#202024;stroke-width:0.5;"/><path d="M317,153.4883 L317,163.4883 L327,163.4883 L317,153.4883 " fill="#E8E8EA" style="stroke:#202024;stroke-width:0.5;"/><text fill="#000033" font-family="Helvetica" font-size="11" lengthAdjust="spacing" textLength="258" x="54" y="166.9585">Ticket may be one-time or reusable for multiple peers</text><line style="stroke:#FF0000;stroke-width:1.0;" x1="528" x2="518" y1="196.4883" y2="192.4883"/><line style="stroke:#FF0000;stroke-width:1.0;" x1="528" x2="518" y1="196.4883" y2="200.4883"/><line style="stroke:#FF0000;stroke-width:1.0;" x1="47" x2="529" y1="196.4883" y2="196.4883"/><text fill="#333333" font-family="Helvetica" font-size="11" lengthAdjust="spacing" textLength="302" x="54" y="191.9585">Communicate ticket to subject peer via QR code (out-of-band)</text><line style="stroke:#000000;stroke-width:1.0;" x1="366" x2="376" y1="221.4883" y2="217.4883"/><line style="stroke:#000000;stroke-width:1.0;" x1="366" x2="376" y1="221.4883" y2="225.4883"/><line style="stroke:#000000;stroke-width:1.0;" x1="365" x2="529" y1="221.4883" y2="221.4883"/><text fill="#333333" font-family="Helvetica" font-size="11" lengthAdjust="spacing" textLength="141" x="382" y="216.9585">Request to connect via ticket</text><line style="stroke:#000000;stroke-width:1.0;" x1="189" x2="199" y1="268.4883" y2="264.4883"/><line style="stroke:#000000;stroke-width:1.0;" x1="189" x2="199" y1="268.4883" y2="272.4883"/><line style="stroke:#000000;stroke-width:1.0;" x1="188" x2="364" y1="268.4883" y2="268.4883"/><text fill="#333333" font-family="Helvetica" font-size="11" lengthAdjust="spacing" textLength="147" x="205" y="241.9585">Is this a known or local agent?</text><text fill="#333333" font-family="Helvetica" font-size="11" lengthAdjust="spacing" textLength="153" x="205" y="252.9585">Connect w/ticket or known key,</text><text fill="#333333" font-family="Helvetica" font-size="11" lengthAdjust="spacing" textLength="124" x="205" y="263.9585">provide subject certificate</text><line style="stroke:#000000;stroke-width:1.0;" x1="188" x2="230" y1="293.4883" y2="293.4883"/><line style="stroke:#000000;stroke-width:1.0;" x1="230" x2="230" y1="293.4883" y2="306.4883"/><line style="stroke:#000000;stroke-width:1.0;" x1="189" x2="230" y1="306.4883" y2="306.4883"/><polygon fill="#000000" points="199,302.4883,189,306.4883,199,310.4883,195,306.4883" style="stroke:#000000;stroke-width:1.0;"/><text fill="#333333" font-family="Helvetica" font-size="11" lengthAdjust="spacing" textLength="142" x="195" y="288.9585">Construct/complete draft tally</text><line style="stroke:#000000;stroke-width:1.0;" x1="48" x2="58" y1="331.4883" y2="327.4883"/><line style="stroke:#000000;stroke-width:1.0;" x1="48" x2="58" y1="331.4883" y2="335.4883"/><line style="stroke:#000000;stroke-width:1.0;" x1="47" x2="187" y1="331.4883" y2="331.4883"/><text fill="#333333" font-family="Helvetica" font-size="11" lengthAdjust="spacing" textLength="89" x="64" y="326.9585">Present for review</text><line style="stroke:#000000;stroke-width:1.0;" x1="186" x2="176" y1="356.4883" y2="352.4883"/><line style="stroke:#000000;stroke-width:1.0;" x1="186" x2="176" y1="356.4883" y2="360.4883"/><line style="stroke:#000000;stroke-width:1.0;" x1="47" x2="187" y1="356.4883" y2="356.4883"/><text fill="#333333" font-family="Helvetica" font-size="11" lengthAdjust="spacing" textLength="79" x="54" y="351.9585">Accept/sign tally</text><line style="stroke:#000000;stroke-width:1.0;" x1="363" x2="353" y1="381.4883" y2="377.4883"/><line style="stroke:#000000;stroke-width:1.0;" x1="363" x2="353" y1="381.4883" y2="385.4883"/><line style="stroke:#000000;stroke-width:1.0;" x1="188" x2="364" y1="381.4883" y2="381.4883"/><text fill="#333333" font-family="Helvetica" font-size="11" lengthAdjust="spacing" textLength="134" x="195" y="376.9585">Send proposed, signed tally</text><line style="stroke:#000000;stroke-width:1.0;" x1="365" x2="407" y1="417.4883" y2="417.4883"/><line style="stroke:#000000;stroke-width:1.0;" x1="407" x2="407" y1="417.4883" y2="430.4883"/><line style="stroke:#000000;stroke-width:1.0;" x1="366" x2="407" y1="430.4883" y2="430.4883"/><polygon fill="#000000" points="376,426.4883,366,430.4883,376,434.4883,372,430.4883" style="stroke:#000000;stroke-width:1.0;"/><text fill="#333333" font-family="Helvetica" font-size="11" lengthAdjust="spacing" textLength="76" x="372" y="401.9585">Enter draft tally,</text><text fill="#333333" font-family="Helvetica" font-size="11" lengthAdjust="spacing" textLength="109" x="372" y="412.9585">check for local partner</text><line style="stroke:#000000;stroke-width:1.0;" x1="528" x2="518" y1="455.4883" y2="451.4883"/><line style="stroke:#000000;stroke-width:1.0;" x1="528" x2="518" y1="455.4883" y2="459.4883"/><line style="stroke:#000000;stroke-width:1.0;" x1="365" x2="529" y1="455.4883" y2="455.4883"/><text fill="#333333" font-family="Helvetica" font-size="11" lengthAdjust="spacing" textLength="111" x="372" y="450.9585">Present tally for review</text><path d="M316,470.4883 L390,470.4883 L390,477.7988 L380,487.7988 L316,487.7988 L316,470.4883 " fill="#EEEEEE" style="stroke:#000000;stroke-width:1.5;"/><rect fill="none" height="42.3105" style="stroke:#000000;stroke-width:1.5;" width="245" x="316" y="470.4883"/><text fill="#000000" font-family="sans-serif" font-size="13" font-weight="bold" lengthAdjust="spacing" textLength="29" x="331" y="484.0566">loop</text><text fill="#000000" font-family="sans-serif" font-size="11" font-weight="bold" lengthAdjust="spacing" textLength="86" x="405" y="483.123">[until satisfied]</text><line style="stroke:#000000;stroke-width:1.0;" x1="366" x2="376" y1="504.7988" y2="500.7988"/><line style="stroke:#000000;stroke-width:1.0;" x1="366" x2="376" y1="504.7988" y2="508.7988"/><line style="stroke:#000000;stroke-width:1.0;" x1="365" x2="529" y1="504.7988" y2="504.7988"/><text fill="#333333" font-family="Helvetica" font-size="11" lengthAdjust="spacing" textLength="85" x="382" y="500.269">Modify tally terms</text><path d="M10,526.7988 L72,526.7988 L72,534.1094 L62,544.1094 L10,544.1094 L10,526.7988 " fill="#EEEEEE" style="stroke:#000000;stroke-width:1.5;"/><rect fill="none" height="347.2207" style="stroke:#000000;stroke-width:1.5;" width="551" x="10" y="526.7988"/><text fill="#000000" font-family="sans-serif" font-size="13" font-weight="bold" lengthAdjust="spacing" textLength="17" x="25" y="540.3672">alt</text><text fill="#000000" font-family="sans-serif" font-size="11" font-weight="bold" lengthAdjust="spacing" textLength="101" x="87" y="539.4336">[Terms agreeable]</text><line style="stroke:#000000;stroke-width:1.0;" x1="366" x2="376" y1="561.1094" y2="557.1094"/><line style="stroke:#000000;stroke-width:1.0;" x1="366" x2="376" y1="561.1094" y2="565.1094"/><line style="stroke:#000000;stroke-width:1.0;" x1="365" x2="529" y1="561.1094" y2="561.1094"/><text fill="#333333" font-family="Helvetica" font-size="11" lengthAdjust="spacing" textLength="79" x="382" y="556.5796">Accept/sign tally</text><line style="stroke:#000000;stroke-width:1.0;" x1="189" x2="199" y1="586.1094" y2="582.1094"/><line style="stroke:#000000;stroke-width:1.0;" x1="189" x2="199" y1="586.1094" y2="590.1094"/><line style="stroke:#000000;stroke-width:1.0;" x1="188" x2="364" y1="586.1094" y2="586.1094"/><text fill="#333333" font-family="Helvetica" font-size="11" lengthAdjust="spacing" textLength="95" x="205" y="581.5796">Send accepted tally</text><line style="stroke:#000000;stroke-width:1.0;" x1="48" x2="58" y1="611.1094" y2="607.1094"/><line style="stroke:#000000;stroke-width:1.0;" x1="48" x2="58" y1="611.1094" y2="615.1094"/><line style="stroke:#000000;stroke-width:1.0;" x1="47" x2="187" y1="611.1094" y2="611.1094"/><text fill="#333333" font-family="Helvetica" font-size="11" lengthAdjust="spacing" textLength="101" x="64" y="606.5796">Store and notify user</text><line style="stroke:#000000;stroke-width:1.0;stroke-dasharray:2.0,2.0;" x1="10" x2="561" y1="620.1094" y2="620.1094"/><text fill="#000000" font-family="sans-serif" font-size="11" font-weight="bold" lengthAdjust="spacing" textLength="96" x="15" y="630.7441">[Want to counter]</text><line style="stroke:#000000;stroke-width:1.0;" x1="366" x2="376" y1="651.0645" y2="647.0645"/><line style="stroke:#000000;stroke-width:1.0;" x1="366" x2="376" y1="651.0645" y2="655.0645"/><line style="stroke:#000000;stroke-width:1.0;" x1="365" x2="529" y1="651.0645" y2="651.0645"/><text fill="#333333" font-family="Helvetica" font-size="11" lengthAdjust="spacing" textLength="64" x="382" y="646.5347">Counter offer</text><line style="stroke:#000000;stroke-width:1.0;" x1="189" x2="199" y1="676.0645" y2="672.0645"/><line style="stroke:#000000;stroke-width:1.0;" x1="189" x2="199" y1="676.0645" y2="680.0645"/><line style="stroke:#000000;stroke-width:1.0;" x1="188" x2="364" y1="676.0645" y2="676.0645"/><text fill="#333333" font-family="Helvetica" font-size="11" lengthAdjust="spacing" textLength="96" x="205" y="671.5347">Send proposed tally</text><line style="stroke:#000000;stroke-width:1.0;" x1="48" x2="58" y1="701.0645" y2="697.0645"/><line style="stroke:#000000;stroke-width:1.0;" x1="48" x2="58" y1="701.0645" y2="705.0645"/><line style="stroke:#000000;stroke-width:1.0;" x1="47" x2="187" y1="701.0645" y2="701.0645"/><text fill="#333333" font-family="Helvetica" font-size="11" lengthAdjust="spacing" textLength="89" x="64" y="696.5347">Present for review</text><line style="stroke:#000000;stroke-width:1.0;" x1="186" x2="176" y1="726.0645" y2="722.0645"/><line style="stroke:#000000;stroke-width:1.0;" x1="186" x2="176" y1="726.0645" y2="730.0645"/><line style="stroke:#000000;stroke-width:1.0;" x1="47" x2="187" y1="726.0645" y2="726.0645"/><text fill="#333333" font-family="Helvetica" font-size="11" lengthAdjust="spacing" textLength="79" x="54" y="721.5347">Accept/sign tally</text><line style="stroke:#000000;stroke-width:1.0;" x1="363" x2="353" y1="751.0645" y2="747.0645"/><line style="stroke:#000000;stroke-width:1.0;" x1="363" x2="353" y1="751.0645" y2="755.0645"/><line style="stroke:#000000;stroke-width:1.0;" x1="188" x2="364" y1="751.0645" y2="751.0645"/><text fill="#333333" font-family="Helvetica" font-size="11" lengthAdjust="spacing" textLength="95" x="195" y="746.5347">Send accepted tally</text><line style="stroke:#000000;stroke-width:1.0;" x1="528" x2="518" y1="776.0645" y2="772.0645"/><line style="stroke:#000000;stroke-width:1.0;" x1="528" x2="518" y1="776.0645" y2="780.0645"/><line style="stroke:#000000;stroke-width:1.0;" x1="365" x2="529" y1="776.0645" y2="776.0645"/><text fill="#333333" font-family="Helvetica" font-size="11" lengthAdjust="spacing" textLength="101" x="372" y="771.5347">Store and notify user</text><line style="stroke:#000000;stroke-width:1.0;stroke-dasharray:2.0,2.0;" x1="10" x2="561" y1="785.0645" y2="785.0645"/><text fill="#000000" font-family="sans-serif" font-size="11" font-weight="bold" lengthAdjust="spacing" textLength="82" x="15" y="795.6992">[Refuse terms]</text><line style="stroke:#000000;stroke-width:1.0;" x1="366" x2="376" y1="816.0195" y2="812.0195"/><line style="stroke:#000000;stroke-width:1.0;" x1="366" x2="376" y1="816.0195" y2="820.0195"/><line style="stroke:#000000;stroke-width:1.0;" x1="365" x2="529" y1="816.0195" y2="816.0195"/><text fill="#333333" font-family="Helvetica" font-size="11" lengthAdjust="spacing" textLength="102" x="382" y="811.4897">Mark tally as refused</text><line style="stroke:#000000;stroke-width:1.0;" x1="189" x2="199" y1="841.0195" y2="837.0195"/><line style="stroke:#000000;stroke-width:1.0;" x1="189" x2="199" y1="841.0195" y2="845.0195"/><line style="stroke:#000000;stroke-width:1.0;" x1="188" x2="364" y1="841.0195" y2="841.0195"/><text fill="#333333" font-family="Helvetica" font-size="11" lengthAdjust="spacing" textLength="95" x="205" y="836.4897">Send accepted tally</text><line style="stroke:#000000;stroke-width:1.0;" x1="48" x2="58" y1="866.0195" y2="862.0195"/><line style="stroke:#000000;stroke-width:1.0;" x1="48" x2="58" y1="866.0195" y2="870.0195"/><line style="stroke:#000000;stroke-width:1.0;" x1="47" x2="187" y1="866.0195" y2="866.0195"/><text fill="#333333" font-family="Helvetica" font-size="11" lengthAdjust="spacing" textLength="101" x="64" y="861.4897">Store and notify user</text><path d="M146,886.0195 L146,907.0195 L406,907.0195 L406,896.0195 L396,886.0195 L146,886.0195 " fill="#E8E8EA" style="stroke:#202024;stroke-width:0.5;"/><path d="M396,886.0195 L396,896.0195 L406,896.0195 L396,886.0195 " fill="#E8E8EA" style="stroke:#202024;stroke-width:0.5;"/><text fill="#000033" font-family="Helvetica" font-size="11" lengthAdjust="spacing" textLength="220" x="161.75" y="899.4897">Signed tally can now be used for transactions</text><text fill="#888888" font-family="sans-serif" font-size="10" lengthAdjust="spacing" textLength="142" x="214" y="1002.6875">Fri Feb 10 23:38:31 MST 2023</text><!--SRC=[jLHBZzCm43xNls9O4DgLMdhdKCHszy010Mqb3Ym7rvcqfeuTx4ch_dl6iTEccoxYmYtEFFmznlDAMsMQ0a6vgdBsNTrKHhmXJGPl7mF9jT5Xg-q69AoaCSSx8HKv3pTVlDveA_dx1cI0shjQ598BPC1-51xkJmaFzxsKPRF-XOgwUE0ZntFt73n5X8ZreybiDagDtez6Su-I4FPE5q0H6xm5qcg79ApZWDkZxwu5MBKHgEGHrXopE25TyOS7ZqrWdWWb7wh6aAxvK2Fw8D0M49lbwt-yzbZydCrQJ142YzPOhIAET3MGQuEHMMm1UotXsuBbPOrlNKCJLqxMqXPt8gQrZ19rRhV0tms6jeToriOUiJoJIccN6dmAG5iTs9sTTGSRwHYdf06vGKiVdkmyzpbCCpxEIAaxF8wVB7VQQuRMOLReIPSj8v5kuGjxcZiRo3UAfZmlB1FpBhmiAHbmhaWbNF3LOs0ahROUzneFLvpyg1JMD0rwOuUDJkeienanu08MOuZPc9q_QtDEVxJ4ylVGCLkrHRLhiIILQkd9ekzBcvtjSAV1wg4tpjNGMD86WYGTIes5WA6NdrsXosEkPoHL6gPOBeGq1AluZttoY77whlKOwfAV2Lp8rmeZszoJ832qOial2q6cYOxOci3K1Hf-ZT-bpMFNHDckWPcd4BYox1AUJ-E5Goy3kJ8Jy2z30IzEnNFoGp__Hdw19P-oITUib7wNZUHrvDliuZzOmRLYiBh6tMO4MFOc7fIqN7o8oop2QSKaBstW3QhvbPvNrny0]--></g></svg>