<?xml version="1.0" encoding="UTF-8" standalone="no"?><svg xmlns="http://www.w3.org/2000/svg" xmlns:xlink="http://www.w3.org/1999/xlink" contentStyleType="text/css" height="593px" preserveAspectRatio="none" style="width:826px;height:593px;background:#FFFFFF;" version="1.1" viewBox="0 0 826 593" width="826px" zoomAndPan="magnify"><defs/><g><text fill="#000000" font-family="sans-serif" font-size="14" font-weight="bold" lengthAdjust="spacing" textLength="163" x="324.5" y="23.5352">NPF Connection States</text><!--cluster killable--><g id="cluster_killable"><path d="M19.5,152.4883 L576.5,152.4883 A12.5,12.5 0 0 1 589,164.9883 L589,168.4883 L7,168.4883 L7,164.9883 A12.5,12.5 0 0 1 19.5,152.4883 " fill="#E8E8EA" style="stroke:#E8E8EA;stroke-width:1.0;"/><rect fill="none" height="416" rx="12.5" ry="12.5" style="stroke:#202024;stroke-width:0.5;" width="582" x="7" y="152.4883"/><line style="stroke:#202024;stroke-width:0.5;" x1="7" x2="589" y1="168.4883" y2="168.4883"/><text fill="#000033" font-family="Helvetica" font-size="11" lengthAdjust="spacing" textLength="32" x="282" y="164.9585">killable</text></g><g id="killable.ticket"><rect fill="#E8E8EA" height="50" rx="12.5" ry="12.5" style="stroke:#202024;stroke-width:0.5;" width="147" x="220.5" y="349.4883"/><line style="stroke:#202024;stroke-width:0.5;" x1="220.5" x2="367.5" y1="370.4883" y2="370.4883"/><text fill="#000033" font-family="Helvetica" font-size="11" lengthAdjust="spacing" textLength="26" x="281" y="362.9585">ticket</text><text fill="#000033" font-family="Helvetica" font-size="11" lengthAdjust="spacing" textLength="127" x="225.5" y="383.9585">Server awaits ticket query</text></g><g id="killable.id"><rect fill="#E8E8EA" height="50" rx="12.5" ry="12.5" style="stroke:#202024;stroke-width:0.5;" width="184" x="163" y="204.4883"/><line style="stroke:#202024;stroke-width:0.5;" x1="163" x2="347" y1="225.4883" y2="225.4883"/><text fill="#000033" font-family="Helvetica" font-size="11" lengthAdjust="spacing" textLength="8" x="251" y="217.9585">id</text><text fill="#000033" font-family="Helvetica" font-size="11" lengthAdjust="spacing" textLength="164" x="168" y="238.9585">Server has peer's claimed identity</text></g><g id="killable.request"><rect fill="#E8E8EA" height="50" rx="12.5" ry="12.5" style="stroke:#202024;stroke-width:0.5;" width="139" x="39.5" y="349.4883"/><line style="stroke:#202024;stroke-width:0.5;" x1="39.5" x2="178.5" y1="370.4883" y2="370.4883"/><text fill="#000033" font-family="Helvetica" font-size="11" lengthAdjust="spacing" textLength="37" x="90.5" y="362.9585">request</text><text fill="#000033" font-family="Helvetica" font-size="11" lengthAdjust="spacing" textLength="119" x="44.5" y="383.9585">Server awaits key query</text></g><g id="killable.pending"><rect fill="#E8E8EA" height="50" rx="12.5" ry="12.5" style="stroke:#202024;stroke-width:0.5;" width="162" x="403" y="349.4883"/><line style="stroke:#202024;stroke-width:0.5;" x1="403" x2="565" y1="370.4883" y2="370.4883"/><text fill="#000033" font-family="Helvetica" font-size="11" lengthAdjust="spacing" textLength="38" x="465" y="362.9585">pending</text><text fill="#000033" font-family="Helvetica" font-size="11" lengthAdjust="spacing" textLength="142" x="408" y="383.9585">Client awaits ack from server</text></g><g id="killable.open"><rect fill="#E8E8EA" height="50" rx="12.5" ry="12.5" style="stroke:#202024;stroke-width:0.5;" width="126" x="227" y="494.4883"/><line style="stroke:#202024;stroke-width:0.5;" x1="227" x2="353" y1="515.4883" y2="515.4883"/><text fill="#000033" font-family="Helvetica" font-size="11" lengthAdjust="spacing" textLength="24" x="278" y="507.9585">open</text><text fill="#000033" font-family="Helvetica" font-size="11" lengthAdjust="spacing" textLength="106" x="232" y="528.9585">Open for transactions</text></g><ellipse cx="672" cy="53.4883" fill="#222222" rx="10" ry="10" style="stroke:none;stroke-width:1.0;"/><g id="none"><rect fill="#E8E8EA" height="50" rx="12.5" ry="12.5" style="stroke:#202024;stroke-width:0.5;" width="118" x="613" y="204.4883"/><line style="stroke:#202024;stroke-width:0.5;" x1="613" x2="731" y1="225.4883" y2="225.4883"/><text fill="#000033" font-family="Helvetica" font-size="11" lengthAdjust="spacing" textLength="24" x="660" y="217.9585">none</text><text fill="#000033" font-family="Helvetica" font-size="11" lengthAdjust="spacing" textLength="98" x="618" y="238.9585">No Peer Connection</text></g><!--link *start to none--><g id="link_*start_none"><path d="M672,63.8383 C672,88.7683 672,157.6283 672,197.9583 " fill="none" id="*start-to-none" style="stroke:#000000;stroke-width:1.0;"/><polygon fill="#000000" points="672,202.6683,676,193.6683,672,197.6683,668,193.6683,672,202.6683" style="stroke:#000000;stroke-width:1.0;"/></g><!--link none to ticket--><g id="link_none_ticket"><path d="M612.82,246.2983 C602.23,249.0683 591.3,251.8983 581,254.4883 C525.6,268.4383 506.04,256.9283 456,284.4883 C436.45,295.2583 438.57,307.1083 420,319.4883 C404.43,329.8683 386.55,338.9683 369.23,346.5883 " fill="none" id="none-to-ticket" style="stroke:#0000FF;stroke-width:1.0;"/><polygon fill="#0000FF" points="364.77,348.5183,374.6184,348.6126,369.3583,346.5314,371.4395,341.2713,364.77,348.5183" style="stroke:#0000FF;stroke-width:1.0;"/><text fill="#0000FF" font-family="Helvetica" font-size="11" lengthAdjust="spacing" textLength="26" x="501" y="293.9585">Peer:</text><text fill="#333333" font-family="Helvetica" font-size="11" lengthAdjust="spacing" textLength="114" x="457" y="304.9585">Receive client request I</text><text fill="#333333" font-family="Helvetica" font-size="11" lengthAdjust="spacing" textLength="70" x="479" y="315.9585">[Query Ticket]</text></g><!--link ticket to none--><g id="link_ticket_none"><path d="M367.92,353.5283 C374.02,352.0883 380.1,350.7183 386,349.4883 C469.68,332.0083 500.7,359.9783 576,319.4883 C594.56,309.5083 592.8,299.0883 608,284.4883 C616.93,275.9083 627,267.0683 636.46,259.0783 " fill="none" id="ticket-to-none" style="stroke:#FF0000;stroke-width:1.0;"/><polygon fill="#FF0000" points="640.18,255.9583,630.7152,258.6817,636.3506,259.1732,635.8591,264.8087,640.18,255.9583" style="stroke:#FF0000;stroke-width:1.0;"/><text fill="#000000" font-family="Helvetica" font-size="11" lengthAdjust="spacing" textLength="18" x="636.5" y="299.4585">DB:</text><text fill="#333333" font-family="Helvetica" font-size="11" lengthAdjust="spacing" textLength="73" x="609" y="310.4585">Ticket not valid</text></g><!--link ticket to open--><g id="link_ticket_open"><path d="M290.16,399.8883 C288.88,409.1283 287.63,419.7683 287,429.4883 C285.74,448.9983 286.46,470.9583 287.51,488.1783 " fill="none" id="ticket-to-open" style="stroke:#FF0000;stroke-width:1.0;"/><polygon fill="#FF0000" points="287.81,492.7783,291.2112,483.5354,287.4821,487.789,283.2285,484.0599,287.81,492.7783" style="stroke:#FF0000;stroke-width:1.0;"/><text fill="#000000" font-family="Helvetica" font-size="11" lengthAdjust="spacing" textLength="18" x="333" y="438.9585">DB:</text><text fill="#333333" font-family="Helvetica" font-size="11" lengthAdjust="spacing" textLength="55" x="314.5" y="449.9585">Ticket valid</text><text fill="#333333" font-family="Helvetica" font-size="11" lengthAdjust="spacing" textLength="108" x="288" y="460.9585">[Send acknowledge A]</text></g><!--reverse link none to killable--><g id="link_none_killable"><path d="M651.83,199.1383 C635.55,177.4583 610.53,149.8583 581,136.4883 C491.39,95.9283 458.33,127.2183 360,124.5683 C285.09,122.5583 76.96,84.4983 23,136.4883 C19.4988,139.862 16.7083,143.7222 14.5101,147.9084 C13.9605,148.955 13.448,150.0219 12.9706,151.1067 C12.8513,151.3779 12.7341,151.6502 12.6192,151.9236 C12.5617,152.0603 12.5047,152.1973 12.4483,152.3345 " fill="none" id="none-backto-killable" style="stroke:#000000;stroke-width:1.0;"/><polygon fill="#000000" points="654.68,203.0083,652.5568,193.391,651.7121,198.9844,646.1186,198.1397,654.68,203.0083" style="stroke:#000000;stroke-width:1.0;"/><text fill="#000000" font-family="Helvetica" font-size="11" lengthAdjust="spacing" textLength="31" x="298.5" y="102.9585">Timer:</text><text fill="#333333" font-family="Helvetica" font-size="11" lengthAdjust="spacing" textLength="80" x="274" y="113.9585">Timeout elapsed</text><text fill="#333333" font-family="Helvetica" font-size="11" lengthAdjust="spacing" textLength="90" x="269" y="124.9585">[Close connection]</text></g><!--link none to id--><g id="link_none_id"><path d="M612.77,229.4883 C545.33,229.4883 434.08,229.4883 353.52,229.4883 " fill="none" id="none-to-id" style="stroke:#0000FF;stroke-width:1.0;"/><polygon fill="#0000FF" points="348.8,229.4883,357.8,233.4883,353.8,229.4883,357.8,225.4883,348.8,229.4883" style="stroke:#0000FF;stroke-width:1.0;"/><text fill="#0000FF" font-family="Helvetica" font-size="11" lengthAdjust="spacing" textLength="26" x="467" y="211.9585">Peer:</text><text fill="#333333" font-family="Helvetica" font-size="11" lengthAdjust="spacing" textLength="116" x="422" y="222.9585">Receive client identity N</text></g><!--link id to request--><g id="link_id_request"><path d="M164.46,254.8583 C127.98,265.5883 93.2,277.3383 88,284.4883 C75.56,301.5883 81.75,324.9983 90.55,343.5083 " fill="none" id="id-to-request" style="stroke:#0000FF;stroke-width:1.0;"/><polygon fill="#0000FF" points="92.67,347.7383,92.2102,337.9002,90.4282,343.269,85.0594,341.487,92.67,347.7383" style="stroke:#0000FF;stroke-width:1.0;"/><text fill="#0000FF" font-family="Helvetica" font-size="11" lengthAdjust="spacing" textLength="26" x="135" y="293.9585">Peer:</text><text fill="#333333" font-family="Helvetica" font-size="11" lengthAdjust="spacing" textLength="118" x="89" y="304.9585">Receive client request K</text><text fill="#333333" font-family="Helvetica" font-size="11" lengthAdjust="spacing" textLength="94" x="101" y="315.9585">[Query for site key]</text></g><!--link request to open--><g id="link_request_open"><path d="M98.94,399.8583 C92.7,419.2783 88.2,446.1683 102,464.4883 C116.57,483.8283 173.24,498.3783 220.59,507.4683 " fill="none" id="request-to-open" style="stroke:#FF0000;stroke-width:1.0;"/><polygon fill="#FF0000" points="225.42,508.3883,217.3192,502.7868,220.5069,507.4599,215.8338,510.6477,225.42,508.3883" style="stroke:#FF0000;stroke-width:1.0;"/><text fill="#000000" font-family="Helvetica" font-size="11" lengthAdjust="spacing" textLength="34" x="173" y="438.9585">Query:</text><text fill="#333333" font-family="Helvetica" font-size="11" lengthAdjust="spacing" textLength="174" x="103" y="449.9585">Noise decrypts OK and tally current</text><text fill="#333333" font-family="Helvetica" font-size="11" lengthAdjust="spacing" textLength="108" x="136" y="460.9585">[Send acknowledge A]</text></g><!--link request to none--><g id="link_request_none"><path d="M164.07,349.0783 C180.22,340.7683 197.45,330.6983 212,319.4883 C228.7,306.6283 225.11,293.8383 244,284.4883 C311.39,251.1483 506.94,267.4583 581,254.4883 C589.37,253.0183 598.09,251.1583 606.68,249.1283 " fill="none" id="request-to-none" style="stroke:#FF0000;stroke-width:1.0;"/><polygon fill="#FF0000" points="611.13,248.0483,601.443,246.2699,606.2694,249.2206,603.3187,254.0469,611.13,248.0483" style="stroke:#FF0000;stroke-width:1.0;"/><text fill="#000000" font-family="Helvetica" font-size="11" lengthAdjust="spacing" textLength="18" x="319" y="299.4585">DB:</text><text fill="#333333" font-family="Helvetica" font-size="11" lengthAdjust="spacing" textLength="166" x="245" y="310.4585">Noise fails or tally not valid/current</text></g><!--link none to pending--><g id="link_none_pending"><path d="M686.92,254.7683 C696.71,274.1283 705.3,300.9883 691,319.4883 C675.97,338.9383 621.17,352.7083 571.72,361.4783 " fill="none" id="none-to-pending" style="stroke:#000000;stroke-width:1.0;"/><polygon fill="#000000" points="566.9,362.3083,576.4523,364.7071,571.8261,361.4516,575.0815,356.8254,566.9,362.3083" style="stroke:#000000;stroke-width:1.0;"/><text fill="#0000FF" font-family="Helvetica" font-size="11" lengthAdjust="spacing" textLength="26" x="745.5" y="293.9585">Peer:</text><text fill="#333333" font-family="Helvetica" font-size="11" lengthAdjust="spacing" textLength="119" x="699" y="304.9585">I have sent a request for</text><text fill="#333333" font-family="Helvetica" font-size="11" lengthAdjust="spacing" textLength="59" x="729" y="315.9585">connection I</text></g><!--link pending to open--><g id="link_pending_open"><path d="M465.57,399.7183 C449.96,419.0583 426.15,445.8983 401,464.4883 C387.34,474.5883 371.5,483.6083 356.13,491.2483 " fill="none" id="pending-to-open" style="stroke:#0000FF;stroke-width:1.0;"/><polygon fill="#0000FF" points="351.86,493.3383,361.7023,492.9789,356.3519,491.1422,358.1886,485.7919,351.86,493.3383" style="stroke:#0000FF;stroke-width:1.0;"/><text fill="#0000FF" font-family="Helvetica" font-size="11" lengthAdjust="spacing" textLength="26" x="487.5" y="444.4585">Peer:</text><text fill="#333333" font-family="Helvetica" font-size="11" lengthAdjust="spacing" textLength="123" x="439" y="455.4585">Received acknowledge A</text></g><text fill="#888888" font-family="sans-serif" font-size="10" lengthAdjust="spacing" textLength="142" x="335" y="583.1563">Fri Feb 10 23:39:06 MST 2023</text><!--SRC=[ZLF1QXin5Bo_htW5Gx9btTnzABGk1HDmaYQtr0T5Uaw5jT9MqZgOad_FawnLdMmelUo2TcRqPkRj1ssb6HIXT5tdxAT-w0p0BEfew7nz_HsNpbgIKJkBjr542WtSVzpWVFuPhRC4a9uBnBN3Qo9_WeUGyBZJneW7G_W74AEMEueBl2M_Px1u4Zg6Seg_1_871cbL0Rz4m9vbpm9A8tH7Yh-IvV4Iq1DJmaHkHuUgrPDLsZukS6aqyqQ8a3lSUjTXo4m6EaQoZIj-uTPvZ5xO8BAH0Cy0PzdzyLZdEFnWA2ooVvpVpzAO6qvbj3ZBqFDytluWINhFAH-dA8FZgiMRD2ZUPL839GcMKm-R4d6L-lQrFUBuEE9U6AscZAEF2IEZMmxAgcJUkYT3wf7mImDG6veF_TixxpXptwQd6oAI4NqWrbaQ5zBEZ5qtCCaXjVYl3COUSTs0LgVCMkl_H7WvHfXAusOerT_0-FdzN3AZvPtLx4AHz8UUb-Bg4WN74uKn1vI3ztpF-v5DrD_sLAItGfk0QPkoPgtjegZNs5YYRkehrxZYVu1TXxoyrJMR_Md_ne-h1Wh_DCXNdejUYN5YwGK0]--></g></svg>