<?xml version="1.0" encoding="UTF-8" standalone="no"?><svg xmlns="http://www.w3.org/2000/svg" xmlns:xlink="http://www.w3.org/1999/xlink" contentStyleType="text/css" height="1181px" preserveAspectRatio="none" style="width:948px;height:1181px;background:#FFFFFF;" version="1.1" viewBox="0 0 948 1181" width="948px" zoomAndPan="magnify"><defs/><g><text fill="#000000" font-family="sans-serif" font-size="14" font-weight="bold" lengthAdjust="spacing" textLength="143" x="395.75" y="23.5352">Tally State Diagram</text><!--cluster working--><g id="cluster_working"><path d="M428,44.4883 L775,44.4883 A12.5,12.5 0 0 1 787.5,56.9883 L787.5,60.4883 L415.5,60.4883 L415.5,56.9883 A12.5,12.5 0 0 1 428,44.4883 " fill="#E8E8EA" style="stroke:#E8E8EA;stroke-width:1.0;"/><rect fill="none" height="280" rx="12.5" ry="12.5" style="stroke:#202024;stroke-width:0.5;" width="372" x="415.5" y="44.4883"/><line style="stroke:#202024;stroke-width:0.5;" x1="415.5" x2="787.5" y1="60.4883" y2="60.4883"/><text fill="#000033" font-family="Helvetica" font-size="11" lengthAdjust="spacing" textLength="38" x="582.5" y="56.9585">working</text></g><!--cluster tradable--><g id="cluster_tradable"><path d="M390,890.4883 L832,890.4883 A12.5,12.5 0 0 1 844.5,902.9883 L844.5,906.4883 L377.5,906.4883 L377.5,902.9883 A12.5,12.5 0 0 1 390,890.4883 " fill="#E8E8EA" style="stroke:#E8E8EA;stroke-width:1.0;"/><rect fill="none" height="110" rx="12.5" ry="12.5" style="stroke:#202024;stroke-width:0.5;" width="467" x="377.5" y="890.4883"/><line style="stroke:#202024;stroke-width:0.5;" x1="377.5" x2="844.5" y1="906.4883" y2="906.4883"/><text fill="#000033" font-family="Helvetica" font-size="11" lengthAdjust="spacing" textLength="39" x="591.5" y="902.9585">tradable</text></g><g id="working.pDraft"><rect fill="#E8E8EA" height="64" rx="12.5" ry="12.5" style="stroke:#202024;stroke-width:0.5;" width="166" x="596.5" y="244.4883"/><line style="stroke:#202024;stroke-width:0.5;" x1="596.5" x2="762.5" y1="265.4883" y2="265.4883"/><text fill="#000033" font-family="Helvetica" font-size="11" lengthAdjust="spacing" textLength="32" x="663.5" y="257.9585">P.draft</text><text fill="#000033" font-family="Helvetica" font-size="11" lengthAdjust="spacing" textLength="107" x="601.5" y="278.9585">Status: draft, Req: null</text><text fill="#000033" font-family="Helvetica" font-size="11" lengthAdjust="spacing" textLength="131" x="601.5" y="289.9585">Contains partner certificate</text><text fill="#000033" font-family="Helvetica" font-size="11" lengthAdjust="spacing" textLength="146" x="601.5" y="300.9585">User: can modify, delete, offer</text></g><g id="working.draft"><rect fill="#E8E8EA" height="53" rx="12.5" ry="12.5" style="stroke:#202024;stroke-width:0.5;" width="169" x="602" y="74.4883"/><line style="stroke:#202024;stroke-width:0.5;" x1="602" x2="771" y1="95.4883" y2="95.4883"/><text fill="#000033" font-family="Helvetica" font-size="11" lengthAdjust="spacing" textLength="22" x="675.5" y="87.9585">draft</text><text fill="#000033" font-family="Helvetica" font-size="11" lengthAdjust="spacing" textLength="107" x="607" y="108.9585">Status: draft, Req: null</text><text fill="#000033" font-family="Helvetica" font-size="11" lengthAdjust="spacing" textLength="149" x="607" y="119.9585">User: can modify, delete, invite</text></g><g id="working.void"><rect fill="#E8E8EA" height="53" rx="12.5" ry="12.5" style="stroke:#202024;stroke-width:0.5;" width="135" x="432" y="74.4883"/><line style="stroke:#202024;stroke-width:0.5;" x1="432" x2="567" y1="95.4883" y2="95.4883"/><text fill="#000033" font-family="Helvetica" font-size="11" lengthAdjust="spacing" textLength="20" x="489.5" y="87.9585">void</text><text fill="#000033" font-family="Helvetica" font-size="11" lengthAdjust="spacing" textLength="105" x="437" y="108.9585">Status: void, Req: null</text><text fill="#000033" font-family="Helvetica" font-size="11" lengthAdjust="spacing" textLength="115" x="437" y="119.9585">User: can modify, clone</text></g><g id="tradable.open"><rect fill="#E8E8EA" height="64" rx="12.5" ry="12.5" style="stroke:#202024;stroke-width:0.5;" width="149" x="394" y="920.4883"/><line style="stroke:#202024;stroke-width:0.5;" x1="394" x2="543" y1="941.4883" y2="941.4883"/><text fill="#000033" font-family="Helvetica" font-size="11" lengthAdjust="spacing" textLength="24" x="456.5" y="933.9585">open</text><text fill="#000033" font-family="Helvetica" font-size="11" lengthAdjust="spacing" textLength="109" x="399" y="954.9585">Status: open, Req: null</text><text fill="#000033" font-family="Helvetica" font-size="11" lengthAdjust="spacing" textLength="129" x="399" y="965.9585">Must have both signatures</text><text fill="#000033" font-family="Helvetica" font-size="11" lengthAdjust="spacing" textLength="117" x="399" y="976.9585">User: can request close</text></g><g id="tradable.cOpen"><rect fill="#E8E8EA" height="64" rx="12.5" ry="12.5" style="stroke:#202024;stroke-width:0.5;" width="148" x="680.5" y="920.4883"/><line style="stroke:#202024;stroke-width:0.5;" x1="680.5" x2="828.5" y1="941.4883" y2="941.4883"/><text fill="#000033" font-family="Helvetica" font-size="11" lengthAdjust="spacing" textLength="35" x="737" y="933.9585">C.open</text><text fill="#000033" font-family="Helvetica" font-size="11" lengthAdjust="spacing" textLength="109" x="685.5" y="954.9585">Status: open, Req: null</text><text fill="#000033" font-family="Helvetica" font-size="11" lengthAdjust="spacing" textLength="96" x="685.5" y="965.9585">Closing chit present</text><text fill="#000033" font-family="Helvetica" font-size="11" lengthAdjust="spacing" textLength="128" x="685.5" y="976.9585">Can trade, waiting for zero</text></g><g id="pOfferVoid"><rect fill="#E8E8EA" height="53" rx="12.5" ry="12.5" style="stroke:#202024;stroke-width:0.5;" width="131" x="347" y="421.9883"/><line style="stroke:#202024;stroke-width:0.5;" x1="347" x2="478" y1="442.9883" y2="442.9883"/><text fill="#000033" font-family="Helvetica" font-size="11" lengthAdjust="spacing" textLength="55" x="385" y="435.4585">P.offer.void</text><text fill="#000033" font-family="Helvetica" font-size="11" lengthAdjust="spacing" textLength="111" x="352" y="456.4585">Status: offer, Req: void</text><text fill="#000033" font-family="Helvetica" font-size="11" lengthAdjust="spacing" textLength="103" x="352" y="467.4585">Agent: Action needed</text></g><g id="BOfferAgree"><rect fill="#E8E8EA" height="53" rx="12.5" ry="12.5" style="stroke:#202024;stroke-width:0.5;" width="139" x="7" y="580.9883"/><line style="stroke:#202024;stroke-width:0.5;" x1="7" x2="146" y1="601.9883" y2="601.9883"/><text fill="#000033" font-family="Helvetica" font-size="11" lengthAdjust="spacing" textLength="63" x="45" y="594.4585">B.offer.agree</text><text fill="#000033" font-family="Helvetica" font-size="11" lengthAdjust="spacing" textLength="119" x="12" y="615.4585">Status: offer, Req: agree</text><text fill="#000033" font-family="Helvetica" font-size="11" lengthAdjust="spacing" textLength="103" x="12" y="626.4585">Agent: Action needed</text></g><g id="draftOffer"><rect fill="#E8E8EA" height="64" rx="12.5" ry="12.5" style="stroke:#202024;stroke-width:0.5;" width="136" x="513.5" y="416.4883"/><line style="stroke:#202024;stroke-width:0.5;" x1="513.5" x2="649.5" y1="437.4883" y2="437.4883"/><text fill="#000033" font-family="Helvetica" font-size="11" lengthAdjust="spacing" textLength="47" x="558" y="429.9585">draft.offer</text><text fill="#000033" font-family="Helvetica" font-size="11" lengthAdjust="spacing" textLength="113" x="518.5" y="450.9585">Status: draft, Req: offer</text><text fill="#000033" font-family="Helvetica" font-size="11" lengthAdjust="spacing" textLength="116" x="518.5" y="461.9585">Has only user signature</text><text fill="#000033" font-family="Helvetica" font-size="11" lengthAdjust="spacing" textLength="103" x="518.5" y="472.9585">Agent: Action needed</text></g><g id="pOffer"><rect fill="#E8E8EA" height="64" rx="12.5" ry="12.5" style="stroke:#202024;stroke-width:0.5;" width="184" x="140.5" y="244.4883"/><line style="stroke:#202024;stroke-width:0.5;" x1="140.5" x2="324.5" y1="265.4883" y2="265.4883"/><text fill="#000033" font-family="Helvetica" font-size="11" lengthAdjust="spacing" textLength="32" x="216.5" y="257.9585">P.offer</text><text fill="#000033" font-family="Helvetica" font-size="11" lengthAdjust="spacing" textLength="107" x="145.5" y="278.9585">Status: offer, Req: null</text><text fill="#000033" font-family="Helvetica" font-size="11" lengthAdjust="spacing" textLength="94" x="145.5" y="289.9585">Peer signature only</text><text fill="#000033" font-family="Helvetica" font-size="11" lengthAdjust="spacing" textLength="164" x="145.5" y="300.9585">User: can accept, refuse, counter</text></g><g id="hOffer"><rect fill="#E8E8EA" height="64" rx="12.5" ry="12.5" style="stroke:#202024;stroke-width:0.5;" width="127" x="474" y="575.4883"/><line style="stroke:#202024;stroke-width:0.5;" x1="474" x2="601" y1="596.4883" y2="596.4883"/><text fill="#000033" font-family="Helvetica" font-size="11" lengthAdjust="spacing" textLength="33" x="521" y="588.9585">H.offer</text><text fill="#000033" font-family="Helvetica" font-size="11" lengthAdjust="spacing" textLength="107" x="479" y="609.9585">Status: offer, Req: null</text><text fill="#000033" font-family="Helvetica" font-size="11" lengthAdjust="spacing" textLength="95" x="479" y="620.9585">User signature only</text><text fill="#000033" font-family="Helvetica" font-size="11" lengthAdjust="spacing" textLength="93" x="479" y="631.9585">User waits for peer</text></g><g id="hAgree"><rect fill="#E8E8EA" height="53" rx="12.5" ry="12.5" style="stroke:#202024;stroke-width:0.5;" width="133" x="244" y="750.9883"/><line style="stroke:#202024;stroke-width:0.5;" x1="244" x2="377" y1="771.9883" y2="771.9883"/><text fill="#000033" font-family="Helvetica" font-size="11" lengthAdjust="spacing" textLength="39" x="291" y="764.4585">H.agree</text><text fill="#000033" font-family="Helvetica" font-size="11" lengthAdjust="spacing" textLength="113" x="249" y="785.4585">Status: agree, Req: null</text><text fill="#000033" font-family="Helvetica" font-size="11" lengthAdjust="spacing" textLength="93" x="249" y="796.4585">Has user signature</text></g><g id="bAgree"><rect fill="#E8E8EA" height="64" rx="12.5" ry="12.5" style="stroke:#202024;stroke-width:0.5;" width="139" x="449" y="745.4883"/><line style="stroke:#202024;stroke-width:0.5;" x1="449" x2="588" y1="766.4883" y2="766.4883"/><text fill="#000033" font-family="Helvetica" font-size="11" lengthAdjust="spacing" textLength="38" x="499.5" y="758.9585">B.agree</text><text fill="#000033" font-family="Helvetica" font-size="11" lengthAdjust="spacing" textLength="113" x="454" y="779.9585">Status: agree, Req: null</text><text fill="#000033" font-family="Helvetica" font-size="11" lengthAdjust="spacing" textLength="98" x="454" y="790.9585">Has both signatures</text><text fill="#000033" font-family="Helvetica" font-size="11" lengthAdjust="spacing" textLength="119" x="454" y="801.9585">Has also local agent ack</text></g><g id="close"><rect fill="#E8E8EA" height="75" rx="12.5" ry="12.5" style="stroke:#202024;stroke-width:0.5;" width="131" x="689" y="1081.4883"/><line style="stroke:#202024;stroke-width:0.5;" x1="689" x2="820" y1="1102.4883" y2="1102.4883"/><text fill="#000033" font-family="Helvetica" font-size="11" lengthAdjust="spacing" textLength="26" x="741.5" y="1094.9585">close</text><text fill="#000033" font-family="Helvetica" font-size="11" lengthAdjust="spacing" textLength="111" x="694" y="1115.9585">Status: close, Req: null</text><text fill="#000033" font-family="Helvetica" font-size="11" lengthAdjust="spacing" textLength="87" x="694" y="1126.9585">Non-zero balance</text><text fill="#000033" font-family="Helvetica" font-size="11" lengthAdjust="spacing" textLength="111" x="694" y="1137.9585">Status: close, Req: null</text><text fill="#000033" font-family="Helvetica" font-size="11" lengthAdjust="spacing" textLength="75" x="694" y="1148.9585">Balance is zero</text></g><g id="P"><rect fill="#E8E8EA" height="50" rx="12.5" ry="12.5" style="stroke:#202024;stroke-width:0.5;" width="50" x="162.5" y="75.9883"/><line style="stroke:#202024;stroke-width:0.5;" x1="162.5" x2="212.5" y1="96.9883" y2="96.9883"/><text fill="#000033" font-family="Helvetica" font-size="11" lengthAdjust="spacing" textLength="7" x="184" y="89.4585">P</text><text fill="#000033" font-family="Helvetica" font-size="11" lengthAdjust="spacing" textLength="26" x="167.5" y="110.4585">Entry</text></g><g id="H"><rect fill="#E8E8EA" height="50" rx="12.5" ry="12.5" style="stroke:#202024;stroke-width:0.5;" width="50" x="891.5" y="75.9883"/><line style="stroke:#202024;stroke-width:0.5;" x1="891.5" x2="941.5" y1="96.9883" y2="96.9883"/><text fill="#000033" font-family="Helvetica" font-size="11" lengthAdjust="spacing" textLength="8" x="912.5" y="89.4585">H</text><text fill="#000033" font-family="Helvetica" font-size="11" lengthAdjust="spacing" textLength="26" x="896.5" y="110.4585">Entry</text></g><!--reverse link draft to H--><g id="link_draft_H"><path d="M777.75,100.9883 C818.65,100.9883 863.74,100.9883 891.09,100.9883 " fill="none" id="draft-backto-H" style="stroke:#008000;stroke-width:1.0;"/><polygon fill="#008000" points="773,100.9883,782,104.9883,778,100.9883,782,96.9883,773,100.9883" style="stroke:#008000;stroke-width:1.0;"/><text fill="#008000" font-family="Helvetica" font-size="11" lengthAdjust="spacing" textLength="27" x="817.75" y="72.4585">User:</text><text fill="#333333" font-family="Helvetica" font-size="11" lengthAdjust="spacing" textLength="84" x="789.25" y="83.4585">User (or system)</text><text fill="#333333" font-family="Helvetica" font-size="11" lengthAdjust="spacing" textLength="73" x="794.75" y="94.4585">drafts new tally</text></g><!--link P to pOffer--><g id="link_P_pOffer"><path d="M182,126.4483 C177.87,149.7583 174.46,185.4983 184.5,214.4883 C187.47,223.0783 192.21,231.3683 197.58,238.9383 " fill="none" id="P-to-pOffer" style="stroke:#0000FF;stroke-width:1.0;"/><polygon fill="#0000FF" points="200.48,242.8283,198.3184,233.2196,197.496,238.8163,191.8993,237.9939,200.48,242.8283" style="stroke:#0000FF;stroke-width:1.0;"/><text fill="#0000FF" font-family="Helvetica" font-size="11" lengthAdjust="spacing" textLength="26" x="228" y="166.9585">Peer:</text><text fill="#333333" font-family="Helvetica" font-size="11" lengthAdjust="spacing" textLength="111" x="185.5" y="177.9585">Receive proposed tally</text><text fill="#333333" font-family="Helvetica" font-size="11" lengthAdjust="spacing" textLength="76" x="203" y="188.9585">[valid signature]</text><text fill="#333333" font-family="Helvetica" font-size="11" lengthAdjust="spacing" textLength="47" x="217.5" y="199.9585">/Act: offer</text><text fill="#333333" font-family="Helvetica" font-size="11" lengthAdjust="spacing" textLength="53" x="214.5" y="210.9585">Notify user</text></g><!--link draft to pDraft--><g id="link_draft_pDraft"><path d="M685.45,127.9583 C684.28,157.0283 682.37,204.3983 681.03,237.5983 " fill="none" id="draft-to-pDraft" style="stroke:#0000FF;stroke-width:1.0;"/><polygon fill="#0000FF" points="680.83,242.5283,685.1865,233.6953,681.0298,237.5323,677.1929,233.3756,680.83,242.5283" style="stroke:#0000FF;stroke-width:1.0;"/><text fill="#0000FF" font-family="Helvetica" font-size="11" lengthAdjust="spacing" textLength="26" x="725" y="172.4585">Peer:</text><text fill="#333333" font-family="Helvetica" font-size="11" lengthAdjust="spacing" textLength="107" x="684.5" y="183.4585">Receive subject ticket</text><text fill="#333333" font-family="Helvetica" font-size="11" lengthAdjust="spacing" textLength="50" x="713" y="194.4585">[valid cert]</text><text fill="#333333" font-family="Helvetica" font-size="11" lengthAdjust="spacing" textLength="56" x="710" y="205.4585">/Notify user</text></g><!--link pDraft to draftOffer--><g id="link_pDraft_draftOffer"><path d="M661.53,308.6683 C644.93,337.4583 620.27,380.2283 602.72,410.6783 " fill="none" id="pDraft-to-draftOffer" style="stroke:#008000;stroke-width:1.0;"/><polygon fill="#008000" points="600.28,414.9083,608.2367,409.1039,602.7745,410.575,601.3035,405.1127,600.28,414.9083" style="stroke:#008000;stroke-width:1.0;"/><text fill="#008000" font-family="Helvetica" font-size="11" lengthAdjust="spacing" textLength="27" x="666.5" y="349.9585">User:</text><text fill="#333333" font-family="Helvetica" font-size="11" lengthAdjust="spacing" textLength="75" x="642.5" y="360.9585">User signs tally</text><text fill="#333333" font-family="Helvetica" font-size="11" lengthAdjust="spacing" textLength="73" x="643.5" y="371.9585">[valid sig/certs]</text><text fill="#333333" font-family="Helvetica" font-size="11" lengthAdjust="spacing" textLength="69" x="645.5" y="382.9585">/Request offer</text></g><!--link pOfferVoid to void--><g id="link_pOfferVoid_void"><path d="M431.16,421.5583 C437.88,411.1083 444.92,398.6583 449.5,386.4883 C482.4,298.9783 493.9,188.0483 497.72,134.2183 " fill="none" id="pOfferVoid-to-void" style="stroke:#FF0000;stroke-width:1.0;"/><polygon fill="#FF0000" points="498.04,129.4483,493.432,138.1527,497.697,134.4365,501.4131,138.7015,498.04,129.4483" style="stroke:#FF0000;stroke-width:1.0;"/><text fill="#FF0000" font-family="Helvetica" font-size="11" lengthAdjust="spacing" textLength="31" x="514" y="268.4585">Agent:</text><text fill="#333333" font-family="Helvetica" font-size="11" lengthAdjust="spacing" textLength="88" x="485.5" y="279.4585">Req:void detected</text><text fill="#333333" font-family="Helvetica" font-size="11" lengthAdjust="spacing" textLength="88" x="485.5" y="290.4585">/Transmit Act:void</text></g><!--link pOffer to pOfferVoid--><g id="link_pOffer_pOfferVoid"><path d="M232.47,308.6783 C234.06,332.5883 239.9,365.0183 258.5,386.4883 C264.58,393.4983 303.69,408.9583 340.97,422.5483 " fill="none" id="pOffer-to-pOfferVoid" style="stroke:#008000;stroke-width:1.0;"/><polygon fill="#008000" points="345.51,424.1983,338.4072,417.3756,340.8081,422.4976,335.6861,424.8986,345.51,424.1983" style="stroke:#008000;stroke-width:1.0;"/><text fill="#008000" font-family="Helvetica" font-size="11" lengthAdjust="spacing" textLength="27" x="279.5" y="355.4585">User:</text><text fill="#333333" font-family="Helvetica" font-size="11" lengthAdjust="spacing" textLength="63" x="261.5" y="366.4585">Refuses tally</text><text fill="#333333" font-family="Helvetica" font-size="11" lengthAdjust="spacing" textLength="67" x="259.5" y="377.4585">/Request void</text></g><!--link pOffer to draftOffer--><g id="link_pOffer_draftOffer"><path d="M296.92,308.8683 C357.72,338.4783 448.65,382.7783 511.27,413.2783 " fill="none" id="pOffer-to-draftOffer" style="stroke:#008000;stroke-width:1.0;"/><polygon fill="#008000" points="515.51,415.3383,509.1814,407.7919,511.0181,413.1422,505.6677,414.9789,515.51,415.3383" style="stroke:#008000;stroke-width:1.0;"/><text fill="#008000" font-family="Helvetica" font-size="11" lengthAdjust="spacing" textLength="27" x="474" y="349.9585">User:</text><text fill="#333333" font-family="Helvetica" font-size="11" lengthAdjust="spacing" textLength="62" x="456.5" y="360.9585">Modifies tally</text><text fill="#333333" font-family="Helvetica" font-size="11" lengthAdjust="spacing" textLength="76" x="449.5" y="371.9585">[valid signature]</text><text fill="#333333" font-family="Helvetica" font-size="11" lengthAdjust="spacing" textLength="69" x="453" y="382.9585">/Request offer</text></g><!--link pOffer to BOfferAgree--><g id="link_pOffer_BOfferAgree"><path d="M181.45,308.8583 C146.65,333.3883 103.26,370.9283 82.5,416.4883 C59.06,467.9483 64.31,535.6283 70.34,574.7683 " fill="none" id="pOffer-to-BOfferAgree" style="stroke:#008000;stroke-width:1.0;"/><polygon fill="#008000" points="71.07,579.3083,73.6075,569.7919,70.2851,574.3703,65.7067,571.0478,71.07,579.3083" style="stroke:#008000;stroke-width:1.0;"/><text fill="#008000" font-family="Helvetica" font-size="11" lengthAdjust="spacing" textLength="27" x="108" y="434.9585">User:</text><text fill="#333333" font-family="Helvetica" font-size="11" lengthAdjust="spacing" textLength="62" x="90.5" y="445.9585">Accepts tally</text><text fill="#333333" font-family="Helvetica" font-size="11" lengthAdjust="spacing" textLength="76" x="83.5" y="456.9585">[valid signature]</text><text fill="#333333" font-family="Helvetica" font-size="11" lengthAdjust="spacing" textLength="75" x="84" y="467.9585">/Request agree</text></g><!--link BOfferAgree to hAgree--><g id="link_BOfferAgree_hAgree"><path d="M112.55,634.3683 C154.8,664.7083 224.69,714.8783 269.12,746.7783 " fill="none" id="BOfferAgree-to-hAgree" style="stroke:#FF0000;stroke-width:1.0;"/><polygon fill="#FF0000" points="273.18,749.6983,268.2039,741.1989,269.1191,746.7813,263.5367,747.6964,273.18,749.6983" style="stroke:#FF0000;stroke-width:1.0;"/><text fill="#FF0000" font-family="Helvetica" font-size="11" lengthAdjust="spacing" textLength="31" x="255" y="684.4585">Agent:</text><text fill="#333333" font-family="Helvetica" font-size="11" lengthAdjust="spacing" textLength="96" x="222.5" y="695.4585">Req:agree detected</text><text fill="#333333" font-family="Helvetica" font-size="11" lengthAdjust="spacing" textLength="96" x="222.5" y="706.4585">/Transmit Act:agree</text></g><!--link hAgree to open--><g id="link_hAgree_open"><path d="M332.99,804.3683 C349.99,823.8183 374,851.0183 395.5,874.4883 C407.91,888.0383 421.74,902.7183 433.99,915.5883 " fill="none" id="hAgree-to-open" style="stroke:#0000FF;stroke-width:1.0;"/><polygon fill="#0000FF" points="437.38,919.1483,434.087,909.8662,433.9385,915.5211,428.2836,915.3726,437.38,919.1483" style="stroke:#0000FF;stroke-width:1.0;"/><text fill="#0000FF" font-family="Helvetica" font-size="11" lengthAdjust="spacing" textLength="26" x="426.5" y="848.9585">Peer:</text><text fill="#333333" font-family="Helvetica" font-size="11" lengthAdjust="spacing" textLength="86" x="396.5" y="859.9585">Receive peer ack</text><text fill="#333333" font-family="Helvetica" font-size="11" lengthAdjust="spacing" textLength="49" x="415" y="870.9585">/Act: open</text></g><!--link draftOffer to hOffer--><g id="link_draftOffer_hOffer"><path d="M572.7,480.8783 C565.57,506.3383 555.49,542.2883 547.95,569.2083 " fill="none" id="draftOffer-to-hOffer" style="stroke:#FF0000;stroke-width:1.0;"/><polygon fill="#FF0000" points="546.69,573.6883,552.961,566.0939,548.0334,568.8721,545.2552,563.9445,546.69,573.6883" style="stroke:#FF0000;stroke-width:1.0;"/><text fill="#FF0000" font-family="Helvetica" font-size="11" lengthAdjust="spacing" textLength="31" x="593" y="519.9585">Agent:</text><text fill="#333333" font-family="Helvetica" font-size="11" lengthAdjust="spacing" textLength="90" x="563.5" y="530.9585">Req:offer detected</text><text fill="#333333" font-family="Helvetica" font-size="11" lengthAdjust="spacing" textLength="90" x="563.5" y="541.9585">/Transmit Act:offer</text></g><!--link hOffer to bAgree--><g id="link_hOffer_bAgree"><path d="M533.97,639.6983 C530.79,667.7783 526.12,709.0983 522.74,738.9683 " fill="none" id="hOffer-to-bAgree" style="stroke:#0000FF;stroke-width:1.0;"/><polygon fill="#0000FF" points="522.21,743.6583,527.1902,735.1613,522.7684,738.6896,519.2402,734.2678,522.21,743.6583" style="stroke:#0000FF;stroke-width:1.0;"/><text fill="#0000FF" font-family="Helvetica" font-size="11" lengthAdjust="spacing" textLength="26" x="585.5" y="678.9585">Peer:</text><text fill="#333333" font-family="Helvetica" font-size="11" lengthAdjust="spacing" textLength="125" x="536" y="689.9585">Receive peer acceptance</text><text fill="#333333" font-family="Helvetica" font-size="11" lengthAdjust="spacing" textLength="53" x="572" y="700.9585">/Act: agree</text><text fill="#333333" font-family="Helvetica" font-size="11" lengthAdjust="spacing" textLength="136" x="530.5" y="711.9585">Also transmit ack /Act: open</text></g><!--link bAgree to open--><g id="link_bAgree_open"><path d="M509.45,809.8183 C500.98,839.1183 488.32,882.9183 479.32,914.0483 " fill="none" id="bAgree-to-open" style="stroke:#0000FF;stroke-width:1.0;"/><polygon fill="#0000FF" points="477.99,918.6483,484.3293,911.1109,479.3768,913.8445,476.6432,908.8919,477.99,918.6483" style="stroke:#0000FF;stroke-width:1.0;"/><text fill="#0000FF" font-family="Helvetica" font-size="11" lengthAdjust="spacing" textLength="26" x="549" y="848.9585">Peer:</text><text fill="#333333" font-family="Helvetica" font-size="11" lengthAdjust="spacing" textLength="125" x="499.5" y="859.9585">Receive peer acceptance</text><text fill="#333333" font-family="Helvetica" font-size="11" lengthAdjust="spacing" textLength="49" x="537.5" y="870.9585">/Act: open</text></g><!--link hOffer to void--><g id="link_hOffer_void"><path d="M601.31,584.3683 C622.54,574.7983 645.16,561.9483 662.5,545.4883 C794.5,420.1683 912.71,295.0283 793.5,157.4883 C762.77,122.0283 630.32,137.5883 584.5,127.4883 C580.93,126.6983 577.3,125.8383 573.64,124.9283 " fill="none" id="hOffer-to-void" style="stroke:#0000FF;stroke-width:1.0;"/><polygon fill="#0000FF" points="568.93,123.7283,576.6532,129.84,573.7731,124.9712,578.6418,122.0911,568.93,123.7283" style="stroke:#0000FF;stroke-width:1.0;"/><text fill="#0000FF" font-family="Helvetica" font-size="11" lengthAdjust="spacing" textLength="26" x="868.5" y="355.4585">Peer:</text><text fill="#333333" font-family="Helvetica" font-size="11" lengthAdjust="spacing" textLength="101" x="831" y="366.4585">Receive peer refusal</text><text fill="#333333" font-family="Helvetica" font-size="11" lengthAdjust="spacing" textLength="104" x="829.5" y="377.4585">/Act: void; Notify user</text></g><!--link hOffer to pOffer--><g id="link_hOffer_pOffer"><path d="M473.55,601.5183 C398.7,591.8883 277.84,563.5983 221.5,480.4883 C188.02,431.0983 203.56,358.4183 217.97,314.7483 " fill="none" id="hOffer-to-pOffer" style="stroke:#0000FF;stroke-width:1.0;"/><polygon fill="#0000FF" points="219.5,310.2083,212.833,317.4575,217.9017,314.946,220.4133,320.0147,219.5,310.2083" style="stroke:#0000FF;stroke-width:1.0;"/><text fill="#0000FF" font-family="Helvetica" font-size="11" lengthAdjust="spacing" textLength="26" x="262.5" y="440.4585">Peer:</text><text fill="#333333" font-family="Helvetica" font-size="11" lengthAdjust="spacing" textLength="105" x="223" y="451.4585">Receive modified tally</text><text fill="#333333" font-family="Helvetica" font-size="11" lengthAdjust="spacing" textLength="106" x="222.5" y="462.4585">/Act: offer; Notify user</text></g><!--link void to pOffer--><g id="link_void_pOffer"><path d="M431.82,114.3383 C400.67,122.5883 364.67,136.0183 337.5,157.4883 C313.99,176.0683 320.92,191.6683 301.5,214.4883 C294.07,223.2183 285.38,231.8483 276.73,239.7483 " fill="none" id="void-to-pOffer" style="stroke:#0000FF;stroke-width:1.0;"/><polygon fill="#0000FF" points="273.07,243.0383,282.4355,239.9908,276.7865,239.6935,277.0838,234.0444,273.07,243.0383" style="stroke:#0000FF;stroke-width:1.0;"/><text fill="#0000FF" font-family="Helvetica" font-size="11" lengthAdjust="spacing" textLength="26" x="378.5" y="177.9585">Peer:</text><text fill="#333333" font-family="Helvetica" font-size="11" lengthAdjust="spacing" textLength="105" x="339" y="188.9585">Receive modified tally</text><text fill="#333333" font-family="Helvetica" font-size="11" lengthAdjust="spacing" textLength="106" x="338.5" y="199.9585">/Act: offer; Notify user</text></g><!--link open to cOpen--><g id="link_open_cOpen"><path d="M543.27,952.4883 C583.33,952.4883 632.72,952.4883 673.67,952.4883 " fill="none" id="open-to-cOpen" style="stroke:#008000;stroke-width:1.0;"/><polygon fill="#008000" points="678.65,952.4883,669.65,948.4883,673.65,952.4883,669.65,956.4883,678.65,952.4883" style="stroke:#008000;stroke-width:1.0;"/><text fill="#008000" font-family="Helvetica" font-size="11" lengthAdjust="spacing" textLength="27" x="598.25" y="923.9585">User:</text><text fill="#333333" font-family="Helvetica" font-size="11" lengthAdjust="spacing" textLength="101" x="561.25" y="934.9585">Issues close/call chit</text><text fill="#333333" font-family="Helvetica" font-size="11" lengthAdjust="spacing" textLength="76" x="573.75" y="945.9585">/Set closing flag</text></g><!--link cOpen to close--><g id="link_cOpen_close"><path d="M754.5,984.8183 C754.5,1010.2983 754.5,1046.5283 754.5,1074.7583 " fill="none" id="cOpen-to-close" style="stroke:#000000;stroke-width:1.0;"/><polygon fill="#000000" points="754.5,1079.5083,758.5,1070.5083,754.5,1074.5083,750.5,1070.5083,754.5,1079.5083" style="stroke:#000000;stroke-width:1.0;"/><text fill="#000000" font-family="Helvetica" font-size="11" lengthAdjust="spacing" textLength="39" x="782" y="1025.9585">Internal:</text><text fill="#333333" font-family="Helvetica" font-size="11" lengthAdjust="spacing" textLength="90" x="756.5" y="1036.9585">(No explicit action)</text><text fill="#333333" font-family="Helvetica" font-size="11" lengthAdjust="spacing" textLength="92" x="755.5" y="1047.9585">[Tally sum hit zero]</text></g><text fill="#888888" font-family="sans-serif" font-size="10" lengthAdjust="spacing" textLength="150" x="392.25" y="1171.1563">Tue Oct 17 12:53:48 MDT 2023</text><!--SRC=[dLTDRzms4BthLx210Ll0hdtV0WNyKS0vn36Sj9Su1qgQNR7caXkHsjGjyjyxCwGaKkkrqPoor3o-cNapd75-KQRMVGEYjjkjDUUxVgkBuiGhh-7iizJwMNpoqeEuKNBJoMrPE3w-kp-twpLqvtkhcdT2Eh7xIES_yJX0hY84Bm8mveenbtGUG4qdrpu06S9dXaN4TzizARCH_nP2ZBuP5TpUqC_9DbcQt306IZ-A7v7TTxAHbOQKtkx0C99-J9-lpqT3_P4iFsPQ938Cbjl4qiuiaonjfiXLOgaoIwsj2z_vLr6SXjequANIhhWNA_6xyTrpSJl-cig2dmZUkvNWe1RY0RwjWXmPwd83nkC_jLVM20FGG5CKIUsEC77OCzpBN5oQX8NFaSNqMe-0FnnqAr5B8xQsKUld1UQgmSD2ABDN7YK8zN-DQqHSMuCw6QoHxBo1JjJGURLMDMeueOwxv5nZy9pa4Qy1by5kgPiCFgOUsOLJ6uFNEiX1Bskrpqj7npIxQ3wC6bl4a3xpIDEA1Nq6n3saiN6yat5o8EiQTfXh1slC1XtPtdWIfdtJLPkopLtbnkzIUIVMjXCxOF9vvt6tPUG3WiIUwLnKRrwlqkkLzUrqtUL6gPqLsjPI8mkM31LvAWeQ3cdkU4pfe_b3xxnevHuEN4J0f7C7ttf0T7phF7DUSJ3Ohn5Eyx9kbHSxPCO89oFoqiZ3p4bWmf74_q1dqGCvIZpmENCH0NVMBEcAgAIMfeR_SVKgt13AHQTnX65GnYbk_AxNu5OumfOQrlxB2PNow_8tCSo44yQUyVS5zyePfk2UdOTj-MWOvl3vV1UUzbU9Ot7vvOIwY5Z6XXveoB1uW1eK5cNNsHq6seIhYxtK-Bh68YtmQSQkVZHt5cT7UD1bd5UfcvjPj9aRrrT_GUs5L_KJ-EY6fj4YOuqaova6ymmc8IXIDu_zWeWT-WxjnE6NHJhoqK5J4NqS9WDnKz6j5N_57OCHGxCuFLry9lCMsulq8Ej8byQQxPGirWUU74EW0Xd545rWEoGxdlW7cdSAt96IYLdUXzJvmiguBtdKlKdDiwJCL-IeQJjdZghofUEoHivsP1iwAyw9hA_4sByqmd4S1L53koA-pBRM5DfSq1WQIpM5bWSsz4yxaWsHLVDCNuoD5AKHa8J8kJwQIvghVl25MOYB98FgfvHumLiKv33-MVVdWu7eUED9dN3HbLz5zcWFULyVETlGlqtw6gOvCoFVn-VwKzIlCeVzi-pKfarcxh0tibSXtZk7VH-6_0MkGStB9eJ-2SB6ujMYvQQCksT9R749HBRtz6U3GJrFp-wiWBztMjLSU5e39Ru7_k-7wxU2LXcjYxBu3m00]--></g></svg>