<?xml version="1.0" encoding="UTF-8" standalone="no"?><svg xmlns="http://www.w3.org/2000/svg" xmlns:xlink="http://www.w3.org/1999/xlink" contentStyleType="text/css" height="888px" preserveAspectRatio="none" style="width:811px;height:888px;background:#FFFFFF;" version="1.1" viewBox="0 0 811 888" width="811px" zoomAndPan="magnify"><defs/><g><text fill="#000000" font-family="sans-serif" font-size="14" font-weight="bold" lengthAdjust="spacing" textLength="206" x="291.135" y="23.5352">Stock Chit Consensus States</text><!--cluster stock--><g id="cluster_stock"><path d="M68.69,44.4883 L597.69,44.4883 A12.5,12.5 0 0 1 610.19,56.9883 L610.19,60.4883 L56.19,60.4883 L56.19,56.9883 A12.5,12.5 0 0 1 68.69,44.4883 " fill="#E8E8EA" style="stroke:#E8E8EA;stroke-width:1.0;"/><rect fill="none" height="819" rx="12.5" ry="12.5" style="stroke:#202024;stroke-width:0.5;" width="554" x="56.19" y="44.4883"/><line style="stroke:#202024;stroke-width:0.5;" x1="56.19" x2="610.19" y1="60.4883" y2="60.4883"/><text fill="#000033" font-family="Helvetica" font-size="11" lengthAdjust="spacing" textLength="87" x="289.69" y="56.9585">Stock Consensus</text></g><g id="stock.unlinked"><rect fill="#E8E8EA" height="50" rx="12.5" ry="12.5" style="stroke:#202024;stroke-width:0.5;" width="100" x="98.19" y="242.9883"/><line style="stroke:#202024;stroke-width:0.5;" x1="98.19" x2="198.19" y1="263.9883" y2="263.9883"/><text fill="#000033" font-family="Helvetica" font-size="11" lengthAdjust="spacing" textLength="42" x="127.19" y="256.4585">Unlinked</text><text fill="#000033" font-family="Helvetica" font-size="11" lengthAdjust="spacing" textLength="80" x="103.19" y="277.4585">Chain Seq is null</text></g><g id="stock.linking"><rect fill="#E8E8EA" height="75" rx="12.5" ry="12.5" style="stroke:#202024;stroke-width:0.5;" width="136" x="80.19" y="424.4883"/><line style="stroke:#202024;stroke-width:0.5;" x1="80.19" x2="216.19" y1="445.4883" y2="445.4883"/><text fill="#000033" font-family="Helvetica" font-size="11" lengthAdjust="spacing" textLength="34" x="131.19" y="437.9585">Linking</text><text fill="#000033" font-family="Helvetica" font-size="11" lengthAdjust="spacing" textLength="73" x="85.19" y="458.9585">Chit local issue</text><text fill="#000033" font-family="Helvetica" font-size="11" lengthAdjust="spacing" textLength="87" x="85.19" y="469.9585">Chain Seq not null</text><text fill="#000033" font-family="Helvetica" font-size="11" lengthAdjust="spacing" textLength="116" x="85.19" y="480.9585">Chain Seq &gt; Chain Conf</text><text fill="#000033" font-family="Helvetica" font-size="11" lengthAdjust="spacing" textLength="79" x="85.19" y="491.9585">Chit not yet sent</text></g><g id="stock.pending"><rect fill="#E8E8EA" height="64" rx="12.5" ry="12.5" style="stroke:#202024;stroke-width:0.5;" width="136" x="154.19" y="605.4883"/><line style="stroke:#202024;stroke-width:0.5;" x1="154.19" x2="290.19" y1="626.4883" y2="626.4883"/><text fill="#000033" font-family="Helvetica" font-size="11" lengthAdjust="spacing" textLength="39" x="202.69" y="618.9585">Pending</text><text fill="#000033" font-family="Helvetica" font-size="11" lengthAdjust="spacing" textLength="87" x="159.19" y="639.9585">Chain Seq not null</text><text fill="#000033" font-family="Helvetica" font-size="11" lengthAdjust="spacing" textLength="116" x="159.19" y="650.9585">Chain Seq &gt; Chain Conf</text><text fill="#000033" font-family="Helvetica" font-size="11" lengthAdjust="spacing" textLength="101" x="159.19" y="661.9585">No queued message</text></g><g id="stock.notify"><rect fill="#E8E8EA" height="75" rx="12.5" ry="12.5" style="stroke:#202024;stroke-width:0.5;" width="136" x="251.19" y="424.4883"/><line style="stroke:#202024;stroke-width:0.5;" x1="251.19" x2="387.19" y1="445.4883" y2="445.4883"/><text fill="#000033" font-family="Helvetica" font-size="11" lengthAdjust="spacing" textLength="28" x="305.19" y="437.9585">Notify</text><text fill="#000033" font-family="Helvetica" font-size="11" lengthAdjust="spacing" textLength="85" x="256.19" y="458.9585">Chit remote issue</text><text fill="#000033" font-family="Helvetica" font-size="11" lengthAdjust="spacing" textLength="87" x="256.19" y="469.9585">Chain Seq not null</text><text fill="#000033" font-family="Helvetica" font-size="11" lengthAdjust="spacing" textLength="116" x="256.19" y="480.9585">Chain Seq &gt; Chain Conf</text><text fill="#000033" font-family="Helvetica" font-size="11" lengthAdjust="spacing" textLength="111" x="256.19" y="491.9585">Queued message: upd</text></g><g id="stock.linked"><rect fill="#E8E8EA" height="53" rx="12.5" ry="12.5" style="stroke:#202024;stroke-width:0.5;" width="142" x="206.19" y="786.4883"/><line style="stroke:#202024;stroke-width:0.5;" x1="206.19" x2="348.19" y1="807.4883" y2="807.4883"/><text fill="#000033" font-family="Helvetica" font-size="11" lengthAdjust="spacing" textLength="32" x="261.19" y="799.9585">Linked</text><text fill="#000033" font-family="Helvetica" font-size="11" lengthAdjust="spacing" textLength="87" x="211.19" y="820.9585">Chain Seq not null</text><text fill="#000033" font-family="Helvetica" font-size="11" lengthAdjust="spacing" textLength="122" x="211.19" y="831.9585">Chain Seq &lt;= Chain Conf</text></g><g id="error"><rect fill="#E8E8EA" height="50" rx="12.5" ry="12.5" style="stroke:#202024;stroke-width:0.5;" width="98" x="634.19" y="242.9883"/><line style="stroke:#202024;stroke-width:0.5;" x1="634.19" x2="732.19" y1="263.9883" y2="263.9883"/><text fill="#000033" font-family="Helvetica" font-size="11" lengthAdjust="spacing" textLength="24" x="671.19" y="256.4585">error</text><text fill="#000033" font-family="Helvetica" font-size="11" lengthAdjust="spacing" textLength="78" x="639.19" y="277.4585">Can't Consense</text></g><!--link stock to unlinked--><g id="link_stock_unlinked"><path d="M317.05,95.4983 C311.29,96.0183 126.77,113.0183 96.19,152.4883 C76,178.5383 97.7,213.6683 118.9,238.1283 " fill="none" id="stock-to-unlinked" style="stroke:#008000;stroke-width:1.0;"/><polygon fill="#008000" points="122.12,241.7383,119.1103,232.3606,118.7902,238.0083,113.1424,237.6882,122.12,241.7383" style="stroke:#008000;stroke-width:1.0;"/><text fill="#008000" font-family="Helvetica" font-size="11" lengthAdjust="spacing" textLength="27" x="127.19" y="167.4585">User:</text><text fill="#333333" font-family="Helvetica" font-size="11" lengthAdjust="spacing" textLength="87" x="97.19" y="178.4585">User creates new</text><text fill="#333333" font-family="Helvetica" font-size="11" lengthAdjust="spacing" textLength="86" x="97.69" y="189.4585">valid direct chit(s)</text></g><!--link stock to unlinked--><g id="link_stock_unlinked"><path d="M317.02,95.5583 C313.63,96.9783 258.75,120.1583 225.19,152.4883 C211.22,165.9483 184.12,208.1883 166.08,237.4183 " fill="none" id="stock-to-unlinked-1" style="stroke:#FF0000;stroke-width:1.0;"/><polygon fill="#FF0000" points="163.62,241.4183,171.7383,235.8421,166.2365,237.1575,164.9211,231.6557,163.62,241.4183" style="stroke:#FF0000;stroke-width:1.0;"/><text fill="#FF0000" font-family="Helvetica" font-size="11" lengthAdjust="spacing" textLength="56" x="238.69" y="167.4585">DB Trigger:</text><text fill="#333333" font-family="Helvetica" font-size="11" lengthAdjust="spacing" textLength="81" x="226.19" y="178.4585">Site creates new</text><text fill="#333333" font-family="Helvetica" font-size="11" lengthAdjust="spacing" textLength="69" x="232.19" y="189.4585">valid lift chit(s)</text></g><!--link stock to linked--><g id="link_stock_linked"><path d="M317.27,95.5283 C320.87,97.0283 436.29,145.7983 474.19,226.9883 C489.32,259.4083 478.31,271.9483 474.19,307.4883 C460.09,429.0283 455.8,461.5483 411.19,575.4883 C380.6,653.6083 327.88,737.2783 298.51,781.1183 " fill="none" id="stock-to-linked" style="stroke:#0000FF;stroke-width:1.0;"/><polygon fill="#0000FF" points="295.89,785.0083,304.2354,779.7782,298.6832,780.8612,297.6001,775.309,295.89,785.0083" style="stroke:#0000FF;stroke-width:1.0;"/><text fill="#0000FF" font-family="Helvetica" font-size="11" lengthAdjust="spacing" textLength="26" x="516.69" y="437.4585">Peer:</text><text fill="#333333" font-family="Helvetica" font-size="11" lengthAdjust="spacing" textLength="83" x="488.19" y="448.4585">Receive new chit</text><text fill="#333333" font-family="Helvetica" font-size="11" lengthAdjust="spacing" textLength="80" x="489.69" y="459.4585">from foil Act:new</text><text fill="#333333" font-family="Helvetica" font-size="11" lengthAdjust="spacing" textLength="120" x="469.69" y="470.4585">[Can reconcile endHash]</text><text fill="#333333" font-family="Helvetica" font-size="11" lengthAdjust="spacing" textLength="86" x="486.69" y="481.4585">/Conform to chain</text><text fill="#333333" font-family="Helvetica" font-size="11" lengthAdjust="spacing" textLength="143" x="458.19" y="492.4585">Ratchet ackHash = newHash</text></g><!--link stock to notify--><g id="link_stock_notify"><path d="M317.19,95.5583 C317.21,99.9583 318.43,321.9283 318.95,417.7283 " fill="none" id="stock-to-notify" style="stroke:#0000FF;stroke-width:1.0;"/><polygon fill="#0000FF" points="318.98,422.6183,322.9285,413.5956,318.9514,417.6184,314.9286,413.6413,318.98,422.6183" style="stroke:#0000FF;stroke-width:1.0;"/><text fill="#0000FF" font-family="Helvetica" font-size="11" lengthAdjust="spacing" textLength="26" x="379.69" y="237.9585">Peer:</text><text fill="#333333" font-family="Helvetica" font-size="11" lengthAdjust="spacing" textLength="83" x="351.19" y="248.9585">Receive new chit</text><text fill="#333333" font-family="Helvetica" font-size="11" lengthAdjust="spacing" textLength="80" x="352.69" y="259.9585">from foil Act:new</text><text fill="#333333" font-family="Helvetica" font-size="11" lengthAdjust="spacing" textLength="135" x="325.19" y="270.9585">[Cannot reconcile endHash]</text><text fill="#333333" font-family="Helvetica" font-size="11" lengthAdjust="spacing" textLength="140" x="322.69" y="281.9585">/Queue message request for</text><text fill="#333333" font-family="Helvetica" font-size="11" lengthAdjust="spacing" textLength="145" x="320.19" y="292.9585">chits from last confirm Act:req</text><text fill="#333333" font-family="Helvetica" font-size="11" lengthAdjust="spacing" textLength="124" x="330.69" y="303.9585">Apply specified chain Seq</text></g><!--link unlinked to linking--><g id="link_unlinked_linking"><path d="M97.87,281.7883 C69.43,291.8783 36.24,309.1283 19.19,337.4883 C6.13,359.1983 6,372.8583 19.19,394.4883 C31.65,414.9283 52.63,429.3583 74.09,439.4183 " fill="none" id="unlinked-to-linking" style="stroke:#FF0000;stroke-width:1.0;"/><polygon fill="#FF0000" points="78.47,441.3883,71.9128,434.0396,73.9128,439.3311,68.6213,441.3311,78.47,441.3883" style="stroke:#FF0000;stroke-width:1.0;"/><text fill="#FF0000" font-family="Helvetica" font-size="11" lengthAdjust="spacing" textLength="56" x="60.69" y="346.9585">DB Trigger:</text><text fill="#333333" font-family="Helvetica" font-size="11" lengthAdjust="spacing" textLength="126" x="25.69" y="357.9585">Detected new valid chit(s)</text><text fill="#333333" font-family="Helvetica" font-size="11" lengthAdjust="spacing" textLength="126" x="25.69" y="368.9585">/Add to chain provisionally</text><text fill="#333333" font-family="Helvetica" font-size="11" lengthAdjust="spacing" textLength="95" x="41.19" y="379.9585">Generate proposed</text><text fill="#333333" font-family="Helvetica" font-size="11" lengthAdjust="spacing" textLength="137" x="20.19" y="390.9585">endHash:propHash Act:new</text></g><!--link linking to pending--><g id="link_linking_pending"><path d="M121.51,499.9283 C108.53,522.7583 98.4,552.0783 112.19,575.4883 C120.68,589.8983 133.93,601.1483 148.34,609.8383 " fill="none" id="linking-to-pending" style="stroke:#FF0000;stroke-width:1.0;"/><polygon fill="#FF0000" points="152.39,612.1683,146.597,604.2033,148.0603,609.6676,142.5959,611.1309,152.39,612.1683" style="stroke:#FF0000;stroke-width:1.0;"/><text fill="#FF0000" font-family="Helvetica" font-size="11" lengthAdjust="spacing" textLength="56" x="144.69" y="544.4585">DB Trigger:</text><text fill="#333333" font-family="Helvetica" font-size="11" lengthAdjust="spacing" textLength="119" x="113.19" y="555.4585">Detect queued message</text><text fill="#333333" font-family="Helvetica" font-size="11" lengthAdjust="spacing" textLength="118" x="113.69" y="566.4585">/Send chit to foil Act:new</text></g><!--link notify to pending--><g id="link_notify_pending"><path d="M294.37,499.8383 C288.22,509.3683 281.8,519.7083 276.19,529.4883 C263.13,552.2583 249.83,578.5683 239.7,599.3983 " fill="none" id="notify-to-pending" style="stroke:#FF0000;stroke-width:1.0;"/><polygon fill="#FF0000" points="237.58,603.7583,245.0938,597.391,239.7529,599.2551,237.8888,593.9143,237.58,603.7583" style="stroke:#FF0000;stroke-width:1.0;"/><text fill="#FF0000" font-family="Helvetica" font-size="11" lengthAdjust="spacing" textLength="56" x="311.69" y="538.9585">DB Trigger:</text><text fill="#333333" font-family="Helvetica" font-size="11" lengthAdjust="spacing" textLength="119" x="280.19" y="549.9585">Detect queued message</text><text fill="#333333" font-family="Helvetica" font-size="11" lengthAdjust="spacing" textLength="125" x="277.19" y="560.9585">/Request update from Foil</text><text fill="#333333" font-family="Helvetica" font-size="11" lengthAdjust="spacing" textLength="35" x="322.19" y="571.9585">Act:req</text></g><!--link pending to linked--><g id="link_pending_linked"><path d="M153.69,644.3383 C116.85,651.3783 74.34,666.6383 51.19,699.4883 C36.59,720.1983 35.56,736.5483 51.19,756.4883 C69.56,779.9183 141.68,794.7683 199.58,803.1483 " fill="none" id="pending-to-linked" style="stroke:#0000FF;stroke-width:1.0;"/><polygon fill="#0000FF" points="204.35,803.8283,195.9998,798.6058,199.3994,803.1272,194.878,806.5268,204.35,803.8283" style="stroke:#0000FF;stroke-width:1.0;"/><text fill="#0000FF" font-family="Helvetica" font-size="11" lengthAdjust="spacing" textLength="26" x="128.69" y="708.9585">Peer:</text><text fill="#333333" font-family="Helvetica" font-size="11" lengthAdjust="spacing" textLength="110" x="86.69" y="719.9585">Receive end hash with</text><text fill="#333333" font-family="Helvetica" font-size="11" lengthAdjust="spacing" textLength="113" x="85.19" y="730.9585">optional chit list Act:upd</text><text fill="#333333" font-family="Helvetica" font-size="11" lengthAdjust="spacing" textLength="179" x="52.19" y="741.9585">[Chain now reconciles with endHash]</text><text fill="#333333" font-family="Helvetica" font-size="11" lengthAdjust="spacing" textLength="144" x="69.69" y="752.9585">/Ratchet ackHash = endHash</text></g><!--link stock to error--><g id="link_stock_error"><path d="M610.5087,216.4919 C610.6876,216.608 610.8663,216.7241 611.0448,216.84 C611.7587,217.3039 612.4691,217.7664 613.1761,218.2277 C624.4875,225.607 634.9025,232.6383 644.05,238.9483 " fill="none" id="stock-to-error" style="stroke:#0000FF;stroke-width:1.0;"/><polygon fill="#0000FF" points="648.06,241.7283,642.9295,233.3213,643.9465,238.8859,638.3818,239.9029,648.06,241.7283" style="stroke:#0000FF;stroke-width:1.0;"/><text fill="#0000FF" font-family="Helvetica" font-size="11" lengthAdjust="spacing" textLength="26" x="654.19" y="161.9585">Peer:</text><text fill="#333333" font-family="Helvetica" font-size="11" lengthAdjust="spacing" textLength="116" x="609.19" y="172.9585">Receive chit list Act:upd</text><text fill="#333333" font-family="Helvetica" font-size="11" lengthAdjust="spacing" textLength="157" x="588.69" y="183.9585">[Cannot reconcile with endHash]</text><text fill="#333333" font-family="Helvetica" font-size="11" lengthAdjust="spacing" textLength="170" x="582.19" y="194.9585">/Send error report to peer and user</text></g><!--link stock to stock--><g id="link_stock_stock"><path d="M619.53,94.0183 C631.4,74.2383 654.61,74.3983 654.61,94.4883 C654.61,114.5783 631.4,114.7383 619.53,94.9583 " fill="none" id="stock-to-stock" style="stroke:#0000FF;stroke-width:1.0;"/><polygon fill="#0000FF" points="619.53,94.9583,620.7312,104.7336,622.1028,99.2456,627.5909,100.6171,619.53,94.9583" style="stroke:#0000FF;stroke-width:1.0;"/><text fill="#0000FF" font-family="Helvetica" font-size="11" lengthAdjust="spacing" textLength="26" x="716.61" y="80.9585">Peer:</text><text fill="#333333" font-family="Helvetica" font-size="11" lengthAdjust="spacing" textLength="116" x="671.61" y="91.9585">Receive chit list Act:upd</text><text fill="#333333" font-family="Helvetica" font-size="11" lengthAdjust="spacing" textLength="126" x="666.61" y="102.9585">[Still have unlinked chit(s)]</text><text fill="#333333" font-family="Helvetica" font-size="11" lengthAdjust="spacing" textLength="138" x="660.61" y="113.9585">/Requeue chit(s) for sending</text></g><text fill="#888888" font-family="sans-serif" font-size="10" lengthAdjust="spacing" textLength="142" x="323.135" y="878.1563">Fri Feb 10 23:39:02 MST 2023</text><!--SRC=[dLJ1Qjmm4BtxAwPXmGau_O2b2OIKjeSIsYmvrJqeyZWh8akE96zOIl-zex5ixwvT2BdisdhIcpTldln16Qcx2a7Qfh7cOzirEijMGGMDvvjWvJFSRbM0Msiy6jzvs0GHq5zaFlw3vor_Ce3-_Up1Q6MUiJe3uQ5BBnFydTwLUM9KzyyJ-0DDDO1j_po1TpQeUi-OuSTZqbGnrVkRv9sb5WRrl8SrPrdEdK25GIZjrnawPzqQReN9ntun6reWO2kKWGs-W289dTPPQc3TMwIj59emt-4XCXmYqRDJ0tQTdgbgVS8QZ-qn0Aa9MTzuGXmsblJt1ITaLcyE7PKRu9yTTbX1WzwB9rn3rrPP6i8YxG9sn3lYTnPUZhYpkQD7vXn3dwuEMOUf1IUCLq5P0wxJIEFhatZvQzLvTBylhs6Qt8ftdpDIm0FzWdGOOmm6Nqkp4rfLK2c7Ce0aRy_zHP7d5nDdzRZCM3qMi56aPu5Fg_e_R2ts2a_PudfnZnBL3YCJdovDxMm3jLKQRcHOqtgHKqXf_j8QgJG2EVrD-6rUG1vDigw1OEamkLQQUn7abW8av7FS15UHcRSlA1h2y2v5SOWBed9ErZ1ysa5fy86Ekz94EWzCfmKjqk5QaVn8InjBSzEsUW- -HQbgHH6IGov8_NWtfmcDT-TWG9ynq5nfLzJVZsQQIf7VLDNe5hJExfIdL0cjzwNvYWPTZ1kjjzPZLPhKrZgki9_90TAJYazgnYimKtDo8rZ8XdQpiYZdqDpOQZ-OzrBV9y_fJiTksEylL87yxOsc4ednpVcCQhVHW5SLjgMnRM3R-WwqecgHcofIDjXROr-dU7W-TfZSUKu7aDgV1JLzh1ULBIauJUTfTJQVIMbJQnqF8RA2821-E9Qk2o-yNSKcAAt9D4B7wAOeiWF8enkMuWs9d_qu5Ih-3m00]--></g></svg>