<?xml version="1.0" encoding="UTF-8" standalone="no"?><svg xmlns="http://www.w3.org/2000/svg" xmlns:xlink="http://www.w3.org/1999/xlink" contentStyleType="text/css" height="990px" preserveAspectRatio="none" style="width:994px;height:990px;background:#FFFFFF;" version="1.1" viewBox="0 0 994 990" width="994px" zoomAndPan="magnify"><defs/><g><text fill="#000000" font-family="sans-serif" font-size="14" font-weight="bold" lengthAdjust="spacing" textLength="143" x="418.75" y="23.5352">Tally State Diagram</text><!--cluster working--><g id="cluster_working"><path d="M435,174.4883 L942,174.4883 A12.5,12.5 0 0 1 954.5,186.9883 L954.5,190.4883 L422.5,190.4883 L422.5,186.9883 A12.5,12.5 0 0 1 435,174.4883 " fill="#E8E8EA" style="stroke:#E8E8EA;stroke-width:1.0;"/><rect fill="none" height="118" rx="12.5" ry="12.5" style="stroke:#202024;stroke-width:0.5;" width="532" x="422.5" y="174.4883"/><line style="stroke:#202024;stroke-width:0.5;" x1="422.5" x2="954.5" y1="190.4883" y2="190.4883"/><text fill="#000033" font-family="Helvetica" font-size="11" lengthAdjust="spacing" textLength="38" x="669.5" y="186.9585">working</text></g><!--cluster liftable--><g id="cluster_liftable"><path d="M95,696.4883 L348,696.4883 A12.5,12.5 0 0 1 360.5,708.9883 L360.5,712.4883 L82.5,712.4883 L82.5,708.9883 A12.5,12.5 0 0 1 95,696.4883 " fill="#E8E8EA" style="stroke:#E8E8EA;stroke-width:1.0;"/><rect fill="none" height="269" rx="12.5" ry="12.5" style="stroke:#202024;stroke-width:0.5;" width="278" x="82.5" y="696.4883"/><line style="stroke:#202024;stroke-width:0.5;" x1="82.5" x2="360.5" y1="712.4883" y2="712.4883"/><text fill="#000033" font-family="Helvetica" font-size="11" lengthAdjust="spacing" textLength="30" x="206.5" y="708.9585">liftable</text></g><g id="working.draft"><rect fill="#E8E8EA" height="53" rx="12.5" ry="12.5" style="stroke:#202024;stroke-width:0.5;" width="164" x="607.5" y="213.9883"/><line style="stroke:#202024;stroke-width:0.5;" x1="607.5" x2="771.5" y1="234.9883" y2="234.9883"/><text fill="#000033" font-family="Helvetica" font-size="11" lengthAdjust="spacing" textLength="22" x="678.5" y="227.4585">draft</text><text fill="#000033" font-family="Helvetica" font-size="11" lengthAdjust="spacing" textLength="107" x="612.5" y="248.4585">Status: draft, Req: null</text><text fill="#000033" font-family="Helvetica" font-size="11" lengthAdjust="spacing" textLength="144" x="612.5" y="259.4585">User: can modify, sign, delete</text></g><g id="working.void"><rect fill="#E8E8EA" height="53" rx="12.5" ry="12.5" style="stroke:#202024;stroke-width:0.5;" width="125" x="447" y="213.9883"/><line style="stroke:#202024;stroke-width:0.5;" x1="447" x2="572" y1="234.9883" y2="234.9883"/><text fill="#000033" font-family="Helvetica" font-size="11" lengthAdjust="spacing" textLength="20" x="499.5" y="227.4585">void</text><text fill="#000033" font-family="Helvetica" font-size="11" lengthAdjust="spacing" textLength="105" x="452" y="248.4585">Status: void, Req: null</text><text fill="#000033" font-family="Helvetica" font-size="11" lengthAdjust="spacing" textLength="83" x="452" y="259.4585">User: can modify</text></g><g id="liftable.open"><rect fill="#E8E8EA" height="64" rx="12.5" ry="12.5" style="stroke:#202024;stroke-width:0.5;" width="149" x="147" y="726.4883"/><line style="stroke:#202024;stroke-width:0.5;" x1="147" x2="296" y1="747.4883" y2="747.4883"/><text fill="#000033" font-family="Helvetica" font-size="11" lengthAdjust="spacing" textLength="24" x="209.5" y="739.9585">open</text><text fill="#000033" font-family="Helvetica" font-size="11" lengthAdjust="spacing" textLength="109" x="152" y="760.9585">Status: open, Req: null</text><text fill="#000033" font-family="Helvetica" font-size="11" lengthAdjust="spacing" textLength="129" x="152" y="771.9585">Must have both signatures</text><text fill="#000033" font-family="Helvetica" font-size="11" lengthAdjust="spacing" textLength="117" x="152" y="782.9585">User: can request close</text></g><g id="liftable.close"><rect fill="#E8E8EA" height="53" rx="12.5" ry="12.5" style="stroke:#202024;stroke-width:0.5;" width="131" x="165" y="896.4883"/><line style="stroke:#202024;stroke-width:0.5;" x1="165" x2="296" y1="917.4883" y2="917.4883"/><text fill="#000033" font-family="Helvetica" font-size="11" lengthAdjust="spacing" textLength="26" x="217.5" y="909.9585">close</text><text fill="#000033" font-family="Helvetica" font-size="11" lengthAdjust="spacing" textLength="111" x="170" y="930.9585">Status: close, Req: null</text><text fill="#000033" font-family="Helvetica" font-size="11" lengthAdjust="spacing" textLength="87" x="170" y="941.9585">Non-zero balance</text></g><g id="pOfferVoid"><rect fill="#E8E8EA" height="53" rx="12.5" ry="12.5" style="stroke:#202024;stroke-width:0.5;" width="131" x="356" y="397.9883"/><line style="stroke:#202024;stroke-width:0.5;" x1="356" x2="487" y1="418.9883" y2="418.9883"/><text fill="#000033" font-family="Helvetica" font-size="11" lengthAdjust="spacing" textLength="55" x="394" y="411.4585">P.offer.void</text><text fill="#000033" font-family="Helvetica" font-size="11" lengthAdjust="spacing" textLength="111" x="361" y="432.4585">Status: offer, Req: void</text><text fill="#000033" font-family="Helvetica" font-size="11" lengthAdjust="spacing" textLength="79" x="361" y="443.4585">Agent: Attention!</text></g><g id="BOfferOpen"><rect fill="#E8E8EA" height="53" rx="12.5" ry="12.5" style="stroke:#202024;stroke-width:0.5;" width="135" x="7" y="397.9883"/><line style="stroke:#202024;stroke-width:0.5;" x1="7" x2="142" y1="418.9883" y2="418.9883"/><text fill="#000033" font-family="Helvetica" font-size="11" lengthAdjust="spacing" textLength="59" x="45" y="411.4585">B.offer.open</text><text fill="#000033" font-family="Helvetica" font-size="11" lengthAdjust="spacing" textLength="115" x="12" y="432.4585">Status: offer, Req: open</text><text fill="#000033" font-family="Helvetica" font-size="11" lengthAdjust="spacing" textLength="79" x="12" y="443.4585">Agent: Attention!</text></g><g id="DraftOffer"><rect fill="#E8E8EA" height="64" rx="12.5" ry="12.5" style="stroke:#202024;stroke-width:0.5;" width="144" x="522.5" y="392.4883"/><line style="stroke:#202024;stroke-width:0.5;" x1="522.5" x2="666.5" y1="413.4883" y2="413.4883"/><text fill="#000033" font-family="Helvetica" font-size="11" lengthAdjust="spacing" textLength="47" x="571" y="405.9585">draft.offer</text><text fill="#000033" font-family="Helvetica" font-size="11" lengthAdjust="spacing" textLength="113" x="527.5" y="426.9585">Status: draft, Req: offer</text><text fill="#000033" font-family="Helvetica" font-size="11" lengthAdjust="spacing" textLength="124" x="527.5" y="437.9585">Must have user signature</text><text fill="#000033" font-family="Helvetica" font-size="11" lengthAdjust="spacing" textLength="79" x="527.5" y="448.9585">Agent: Attention!</text></g><g id="pOffer"><rect fill="#E8E8EA" height="64" rx="12.5" ry="12.5" style="stroke:#202024;stroke-width:0.5;" width="184" x="120.5" y="208.4883"/><line style="stroke:#202024;stroke-width:0.5;" x1="120.5" x2="304.5" y1="229.4883" y2="229.4883"/><text fill="#000033" font-family="Helvetica" font-size="11" lengthAdjust="spacing" textLength="32" x="196.5" y="221.9585">P.offer</text><text fill="#000033" font-family="Helvetica" font-size="11" lengthAdjust="spacing" textLength="107" x="125.5" y="242.9585">Status: offer, Req: null</text><text fill="#000033" font-family="Helvetica" font-size="11" lengthAdjust="spacing" textLength="94" x="125.5" y="253.9585">Peer signature only</text><text fill="#000033" font-family="Helvetica" font-size="11" lengthAdjust="spacing" textLength="164" x="125.5" y="264.9585">User: can accept, refuse, counter</text></g><g id="hOffer"><rect fill="#E8E8EA" height="64" rx="12.5" ry="12.5" style="stroke:#202024;stroke-width:0.5;" width="127" x="337" y="551.4883"/><line style="stroke:#202024;stroke-width:0.5;" x1="337" x2="464" y1="572.4883" y2="572.4883"/><text fill="#000033" font-family="Helvetica" font-size="11" lengthAdjust="spacing" textLength="33" x="384" y="564.9585">H.offer</text><text fill="#000033" font-family="Helvetica" font-size="11" lengthAdjust="spacing" textLength="107" x="342" y="585.9585">Status: offer, Req: null</text><text fill="#000033" font-family="Helvetica" font-size="11" lengthAdjust="spacing" textLength="95" x="342" y="596.9585">User signature only</text><text fill="#000033" font-family="Helvetica" font-size="11" lengthAdjust="spacing" textLength="93" x="342" y="607.9585">User waits for peer</text></g><g id="closed"><rect fill="#E8E8EA" height="53" rx="12.5" ry="12.5" style="stroke:#202024;stroke-width:0.5;" width="137" x="423" y="896.4883"/><line style="stroke:#202024;stroke-width:0.5;" x1="423" x2="560" y1="917.4883" y2="917.4883"/><text fill="#000033" font-family="Helvetica" font-size="11" lengthAdjust="spacing" textLength="100" x="441.5" y="909.9585">close (zero balance)</text><text fill="#000033" font-family="Helvetica" font-size="11" lengthAdjust="spacing" textLength="117" x="428" y="930.9585">Status: closed, Req: null</text><text fill="#000033" font-family="Helvetica" font-size="11" lengthAdjust="spacing" textLength="75" x="428" y="941.9585">Balance is zero</text></g><ellipse cx="450.5" cy="53.4883" fill="#222222" rx="10" ry="10" style="stroke:none;stroke-width:1.0;"/><!--link *start to draft--><g id="link_*start_draft"><path d="M460.24,57.2683 C477.71,62.5283 515.14,75.1083 542.5,93.4883 C591.31,126.2683 637.72,176.7183 664.89,208.8983 " fill="none" id="*start-to-draft" style="stroke:#008000;stroke-width:1.0;"/><polygon fill="#008000" points="667.79,212.3483,665.0666,202.8835,664.575,208.5189,658.9396,208.0274,667.79,212.3483" style="stroke:#008000;stroke-width:1.0;"/><text fill="#008000" font-family="Helvetica" font-size="11" lengthAdjust="spacing" textLength="27" x="633" y="113.9585">User:</text><text fill="#333333" font-family="Helvetica" font-size="11" lengthAdjust="spacing" textLength="76" x="608.5" y="124.9585">User or system</text><text fill="#333333" font-family="Helvetica" font-size="11" lengthAdjust="spacing" textLength="73" x="610" y="135.9585">drafts new tally</text></g><!--link *start to pOffer--><g id="link_*start_pOffer"><path d="M442.85,60.4383 C414.84,82.2083 316.41,158.7183 257.67,204.3783 " fill="none" id="*start-to-pOffer" style="stroke:#0000FF;stroke-width:1.0;"/><polygon fill="#0000FF" points="254.01,207.2283,263.5681,204.853,257.9545,204.1556,258.6519,198.5419,254.01,207.2283" style="stroke:#0000FF;stroke-width:1.0;"/><text fill="#0000FF" font-family="Helvetica" font-size="11" lengthAdjust="spacing" textLength="26" x="453.5" y="102.9585">Peer:</text><text fill="#333333" font-family="Helvetica" font-size="11" lengthAdjust="spacing" textLength="134" x="399.5" y="113.9585">Receive new proposed tally</text><text fill="#333333" font-family="Helvetica" font-size="11" lengthAdjust="spacing" textLength="76" x="428.5" y="124.9585">[valid signature]</text><text fill="#333333" font-family="Helvetica" font-size="11" lengthAdjust="spacing" textLength="47" x="443" y="135.9585">/Act: offer</text><text fill="#333333" font-family="Helvetica" font-size="11" lengthAdjust="spacing" textLength="53" x="440" y="146.9585">Notify user</text></g><!--link working to DraftOffer--><g id="link_working_DraftOffer"><path d="M937.8087,292.5092 C937.7124,292.7265 937.615,292.9433 937.5166,293.1596 C937.3198,293.5922 937.1187,294.0228 936.9133,294.4511 C936.0918,296.1643 935.2012,297.8411 934.2358,299.4667 C932.305,302.718 930.075,305.7645 927.5,308.4883 C918.37,318.1483 768.05,367.7283 672.53,398.5483 " fill="none" id="working-to-DraftOffer" style="stroke:#008000;stroke-width:1.0;"/><polygon fill="#008000" points="668.04,399.9983,677.835,401.0266,672.7961,398.4558,675.367,393.4168,668.04,399.9983" style="stroke:#008000;stroke-width:1.0;"/><text fill="#008000" font-family="Helvetica" font-size="11" lengthAdjust="spacing" textLength="27" x="935.5" y="325.9585">User:</text><text fill="#333333" font-family="Helvetica" font-size="11" lengthAdjust="spacing" textLength="75" x="911.5" y="336.9585">User signs tally</text><text fill="#333333" font-family="Helvetica" font-size="11" lengthAdjust="spacing" textLength="50" x="924" y="347.9585">[valid cert]</text><text fill="#333333" font-family="Helvetica" font-size="11" lengthAdjust="spacing" textLength="69" x="914.5" y="358.9585">/Request offer</text></g><!--link draft to draft--><g id="link_draft_draft"><path d="M771.78,222.2383 C791.7,223.6283 806.5,229.7083 806.5,240.4883 C806.5,250.0883 794.76,255.9683 778.12,258.1183 " fill="none" id="draft-to-draft" style="stroke:#0000FF;stroke-width:1.0;"/><polygon fill="#0000FF" points="773.28,258.5983,782.6254,261.7068,778.2564,258.1135,781.8497,253.7445,773.28,258.5983" style="stroke:#0000FF;stroke-width:1.0;"/><text fill="#0000FF" font-family="Helvetica" font-size="11" lengthAdjust="spacing" textLength="26" x="854.5" y="226.9585">Peer:</text><text fill="#333333" font-family="Helvetica" font-size="11" lengthAdjust="spacing" textLength="104" x="815.5" y="237.9585">Ticketed tally request</text><text fill="#333333" font-family="Helvetica" font-size="11" lengthAdjust="spacing" textLength="79" x="828" y="248.9585">[Have peer cert]</text><text fill="#333333" font-family="Helvetica" font-size="11" lengthAdjust="spacing" textLength="110" x="812.5" y="259.9585">/Act: ticket; Notify user</text></g><!--link pOfferVoid to void--><g id="link_pOfferVoid_void"><path d="M445.16,397.5683 C453.7,387.2183 462.87,374.8383 469.5,362.4883 C484.85,333.9183 495.73,298.3983 502.24,273.2483 " fill="none" id="pOfferVoid-to-void" style="stroke:#FF0000;stroke-width:1.0;"/><polygon fill="#FF0000" points="503.42,268.5583,497.3297,276.2984,502.1905,273.4048,505.0841,278.2655,503.42,268.5583" style="stroke:#FF0000;stroke-width:1.0;"/><text fill="#FF0000" font-family="Helvetica" font-size="11" lengthAdjust="spacing" textLength="56" x="505.5" y="331.4585">DB Trigger:</text><text fill="#333333" font-family="Helvetica" font-size="11" lengthAdjust="spacing" textLength="88" x="489.5" y="342.4585">Req:void detected</text><text fill="#333333" font-family="Helvetica" font-size="11" lengthAdjust="spacing" textLength="88" x="489.5" y="353.4585">/Transmit Act:void</text></g><!--link pOffer to pOfferVoid--><g id="link_pOffer_pOfferVoid"><path d="M222.03,272.8483 C231.64,299.7883 248.91,338.0483 275.5,362.4883 C287.4,373.4283 319.21,387.1983 350.11,398.8883 " fill="none" id="pOffer-to-pOfferVoid" style="stroke:#008000;stroke-width:1.0;"/><polygon fill="#008000" points="354.45,400.5083,347.4275,393.6029,349.7684,398.7527,344.6185,401.0935,354.45,400.5083" style="stroke:#008000;stroke-width:1.0;"/><text fill="#008000" font-family="Helvetica" font-size="11" lengthAdjust="spacing" textLength="27" x="296.5" y="331.4585">User:</text><text fill="#333333" font-family="Helvetica" font-size="11" lengthAdjust="spacing" textLength="63" x="278.5" y="342.4585">Refuses tally</text><text fill="#333333" font-family="Helvetica" font-size="11" lengthAdjust="spacing" textLength="67" x="276.5" y="353.4585">/Request void</text></g><!--link pOffer to DraftOffer--><g id="link_pOffer_DraftOffer"><path d="M282.51,272.9383 C304.88,284.7983 328.91,299.5683 348.5,316.4883 C367.95,333.2783 362.04,348.3683 383.5,362.4883 C429.79,392.9283 451.37,376.7883 504.5,392.4883 C508.44,393.6483 512.46,394.8883 516.52,396.1583 " fill="none" id="pOffer-to-DraftOffer" style="stroke:#008000;stroke-width:1.0;"/><polygon fill="#008000" points="521.03,397.5883,513.6616,391.0532,516.2642,396.0758,511.2417,398.6784,521.03,397.5883" style="stroke:#008000;stroke-width:1.0;"/><text fill="#008000" font-family="Helvetica" font-size="11" lengthAdjust="spacing" textLength="27" x="409" y="325.9585">User:</text><text fill="#333333" font-family="Helvetica" font-size="11" lengthAdjust="spacing" textLength="62" x="391.5" y="336.9585">Modifies tally</text><text fill="#333333" font-family="Helvetica" font-size="11" lengthAdjust="spacing" textLength="76" x="384.5" y="347.9585">[valid signature]</text><text fill="#333333" font-family="Helvetica" font-size="11" lengthAdjust="spacing" textLength="69" x="388" y="358.9585">/Request offer</text></g><!--link pOffer to BOfferOpen--><g id="link_pOffer_BOfferOpen"><path d="M155.56,272.8483 C138.43,284.6183 120.91,299.3583 108.5,316.4883 C92.41,338.7083 83.73,368.8483 79.18,391.4683 " fill="none" id="pOffer-to-BOfferOpen" style="stroke:#008000;stroke-width:1.0;"/><polygon fill="#008000" points="78.29,396.1583,83.8958,388.0604,79.221,391.2457,76.0357,386.5709,78.29,396.1583" style="stroke:#008000;stroke-width:1.0;"/><text fill="#008000" font-family="Helvetica" font-size="11" lengthAdjust="spacing" textLength="27" x="134" y="325.9585">User:</text><text fill="#333333" font-family="Helvetica" font-size="11" lengthAdjust="spacing" textLength="62" x="116.5" y="336.9585">Accepts tally</text><text fill="#333333" font-family="Helvetica" font-size="11" lengthAdjust="spacing" textLength="76" x="109.5" y="347.9585">[valid signature]</text><text fill="#333333" font-family="Helvetica" font-size="11" lengthAdjust="spacing" textLength="71" x="112" y="358.9585">/Request open</text></g><!--link BOfferOpen to open--><g id="link_BOfferOpen_open"><path d="M85.91,451.2683 C111.78,509.6783 174.94,652.3383 205.04,720.3083 " fill="none" id="BOfferOpen-to-open" style="stroke:#FF0000;stroke-width:1.0;"/><polygon fill="#FF0000" points="207.06,724.8683,207.0657,715.0194,205.032,720.298,199.7533,718.2643,207.06,724.8683" style="stroke:#FF0000;stroke-width:1.0;"/><text fill="#FF0000" font-family="Helvetica" font-size="11" lengthAdjust="spacing" textLength="56" x="177.5" y="575.4585">DB Trigger:</text><text fill="#333333" font-family="Helvetica" font-size="11" lengthAdjust="spacing" textLength="88" x="161.5" y="586.4585">req:open detected</text><text fill="#333333" font-family="Helvetica" font-size="11" lengthAdjust="spacing" textLength="92" x="159.5" y="597.4585">/Transmit Act:open</text></g><!--link DraftOffer to hOffer--><g id="link_DraftOffer_hOffer"><path d="M555.71,456.8783 C523.46,482.9783 477.59,520.1083 444.08,547.2183 " fill="none" id="DraftOffer-to-hOffer" style="stroke:#FF0000;stroke-width:1.0;"/><polygon fill="#FF0000" points="440.4,550.1983,449.9131,547.6485,444.2876,547.0539,444.8821,541.4284,440.4,550.1983" style="stroke:#FF0000;stroke-width:1.0;"/><text fill="#FF0000" font-family="Helvetica" font-size="11" lengthAdjust="spacing" textLength="56" x="532.5" y="495.9585">DB Trigger:</text><text fill="#333333" font-family="Helvetica" font-size="11" lengthAdjust="spacing" textLength="90" x="515.5" y="506.9585">Req:offer detected</text><text fill="#333333" font-family="Helvetica" font-size="11" lengthAdjust="spacing" textLength="90" x="515.5" y="517.9585">/Transmit Act:offer</text></g><!--link hOffer to open--><g id="link_hOffer_open"><path d="M368.08,615.8183 C337.26,645.6083 290.93,690.3883 258.64,721.5983 " fill="none" id="hOffer-to-open" style="stroke:#0000FF;stroke-width:1.0;"/><polygon fill="#0000FF" points="255.06,725.0483,264.3015,721.6431,258.6452,721.5631,258.7252,715.9068,255.06,725.0483" style="stroke:#0000FF;stroke-width:1.0;"/><text fill="#0000FF" font-family="Helvetica" font-size="11" lengthAdjust="spacing" textLength="26" x="382" y="654.9585">Peer:</text><text fill="#333333" font-family="Helvetica" font-size="11" lengthAdjust="spacing" textLength="125" x="332.5" y="665.9585">Receive peer acceptance</text><text fill="#333333" font-family="Helvetica" font-size="11" lengthAdjust="spacing" textLength="49" x="370.5" y="676.9585">/Act: open</text></g><!--link hOffer to void--><g id="link_hOffer_void"><path d="M464.3,577.6283 C536.3,568.1083 648.12,539.9283 684.5,456.4883 C695.87,430.4183 696.34,418.3483 684.5,392.4883 C680.74,384.2683 595.57,312.8183 545.46,271.2083 " fill="none" id="hOffer-to-void" style="stroke:#0000FF;stroke-width:1.0;"/><polygon fill="#0000FF" points="541.89,268.2483,546.2465,277.0812,545.7323,271.4478,551.3657,270.9336,541.89,268.2483" style="stroke:#0000FF;stroke-width:1.0;"/><text fill="#0000FF" font-family="Helvetica" font-size="11" lengthAdjust="spacing" textLength="26" x="732.5" y="416.4585">Peer:</text><text fill="#333333" font-family="Helvetica" font-size="11" lengthAdjust="spacing" textLength="101" x="695" y="427.4585">Receive peer refusal</text><text fill="#333333" font-family="Helvetica" font-size="11" lengthAdjust="spacing" textLength="104" x="693.5" y="438.4585">/Act: void; Notify user</text></g><!--link hOffer to pOffer--><g id="link_hOffer_pOffer"><path d="M336.52,552.4983 C298.9,531.2683 254.19,499.0083 230.5,456.4883 C199.57,400.9683 201.73,324.6083 206.71,279.4183 " fill="none" id="hOffer-to-pOffer" style="stroke:#0000FF;stroke-width:1.0;"/><polygon fill="#0000FF" points="207.28,274.4883,202.2516,282.9568,206.6933,279.4537,210.1963,283.8955,207.28,274.4883" style="stroke:#0000FF;stroke-width:1.0;"/><text fill="#0000FF" font-family="Helvetica" font-size="11" lengthAdjust="spacing" textLength="26" x="271.5" y="416.4585">Peer:</text><text fill="#333333" font-family="Helvetica" font-size="11" lengthAdjust="spacing" textLength="105" x="232" y="427.4585">Receive modified tally</text><text fill="#333333" font-family="Helvetica" font-size="11" lengthAdjust="spacing" textLength="106" x="231.5" y="438.4585">/Act: offer; Notify user</text></g><!--link void to pOffer--><g id="link_void_pOffer"><path d="M446.83,240.4883 C407.47,240.4883 355.87,240.4883 311.11,240.4883 " fill="none" id="void-to-pOffer" style="stroke:#0000FF;stroke-width:1.0;"/><polygon fill="#0000FF" points="306.36,240.4883,315.36,244.4883,311.36,240.4883,315.36,236.4883,306.36,240.4883" style="stroke:#0000FF;stroke-width:1.0;"/><text fill="#0000FF" font-family="Helvetica" font-size="11" lengthAdjust="spacing" textLength="26" x="362.75" y="211.9585">Peer:</text><text fill="#333333" font-family="Helvetica" font-size="11" lengthAdjust="spacing" textLength="105" x="323.25" y="222.9585">Receive modified tally</text><text fill="#333333" font-family="Helvetica" font-size="11" lengthAdjust="spacing" textLength="106" x="322.75" y="233.9585">/Act: offer; Notify user</text></g><!--link open to close--><g id="link_open_close"><path d="M157.12,790.6983 C146.41,798.8583 136.77,808.7383 130.5,820.4883 C120.88,838.5283 120.13,848.8683 130.5,866.4883 C137.4,878.2083 147.77,887.6383 159.26,895.1483 " fill="none" id="open-to-close" style="stroke:#008000;stroke-width:1.0;"/><polygon fill="#008000" points="163.32,897.6683,157.7759,889.5281,159.0696,895.035,153.5627,896.3288,163.32,897.6683" style="stroke:#008000;stroke-width:1.0;"/><text fill="#008000" font-family="Helvetica" font-size="11" lengthAdjust="spacing" textLength="27" x="168.5" y="835.4585">User:</text><text fill="#333333" font-family="Helvetica" font-size="11" lengthAdjust="spacing" textLength="101" x="131.5" y="846.4585">Issues close/call chit</text><text fill="#333333" font-family="Helvetica" font-size="11" lengthAdjust="spacing" textLength="60" x="152" y="857.4585">/Set to close</text></g><!--link open to close--><g id="link_open_close"><path d="M231.37,790.8483 C233.89,800.2783 236.24,810.7183 237.5,820.4883 C240.11,840.7683 238.78,846.0883 237.5,866.4883 C237.02,874.0583 236.19,882.1783 235.25,889.8083 " fill="none" id="open-to-close-1" style="stroke:#0000FF;stroke-width:1.0;"/><polygon fill="#0000FF" points="234.64,894.5783,239.7642,886.1674,235.283,889.6198,231.8307,885.1386,234.64,894.5783" style="stroke:#0000FF;stroke-width:1.0;"/><text fill="#0000FF" font-family="Helvetica" font-size="11" lengthAdjust="spacing" textLength="26" x="259.5" y="829.9585">Peer:</text><text fill="#333333" font-family="Helvetica" font-size="11" lengthAdjust="spacing" textLength="65" x="240" y="840.9585">Receive peer</text><text fill="#333333" font-family="Helvetica" font-size="11" lengthAdjust="spacing" textLength="66" x="239.5" y="851.9585">close request</text><text fill="#333333" font-family="Helvetica" font-size="11" lengthAdjust="spacing" textLength="51" x="247" y="862.9585">/Act: close</text></g><!--link close to closed--><g id="link_close_closed"><path d="M296.36,922.9883 C332.91,922.9883 378.5,922.9883 416.42,922.9883 " fill="none" id="close-to-closed" style="stroke:#FF0000;stroke-width:1.0;"/><polygon fill="#FF0000" points="421.41,922.9883,412.41,918.9883,416.41,922.9883,412.41,926.9883,421.41,922.9883" style="stroke:#FF0000;stroke-width:1.0;"/><text fill="#000000" font-family="Helvetica" font-size="11" lengthAdjust="spacing" textLength="18" x="350.5" y="894.4585">DB:</text><text fill="#333333" font-family="Helvetica" font-size="11" lengthAdjust="spacing" textLength="90" x="314.5" y="905.4585">(No explicit action)</text><text fill="#333333" font-family="Helvetica" font-size="11" lengthAdjust="spacing" textLength="89" x="315" y="916.4585">[Tally sum is zero]</text></g><text fill="#888888" font-family="sans-serif" font-size="10" lengthAdjust="spacing" textLength="142" x="419.25" y="980.1563">Fri Feb 10 23:38:34 MST 2023</text><!--SRC=[dPHDRziu48Rl_1NJ8e2ZXPozUu42oURGFJGjqdGlJG-qH5j4AT8LAMUpY_tl7Gv9YPJZ5kZ9flZouV2TZrTIDsfi1JIcxus-EeozOkp2IQV4vGDNwXa-Eku4t4g-7tXVCKlBrn-kp6udXgkZaUrhu1OEx_twRrmcoKsKc8FG9BaXoNjS9aaxy9qBCbBS-ZMfs2fA_EchHXahIE5F_-bN4V5aXgzIx-4_1f13IKp_veqfLl-7_Hy9IkuStogH8wQG_P_vynm6_PiGoOtCYBJpDjlfYXr2mEM_OZ2mvOhhHbGpksLi5PnlXUDIMJOR31jAocWtGF0QxiMtJNXLeRhU2-tmnpdybKQ_OcpEmHaAlRXGlK2PyvHHoEr4ePSMidUZTT3neu3HuWShznhF3Q9KlN3PQifv7Z9-YtU5N1Ig5oWKtPbezQZK9FY4qI6KQ-XDAtVFDOLQOnwKS8AnOva1lymnSNj9OJ4pProdevFYWyWD0gFLyxmvatdJY0E-OH0xjBJ67XwrGzjPzzEhkfoslAhSVEBIMTYP0Gx2mysYTkP443bkpzdU6jVDDzWac9ynY6-ZG7N88siMcQPrVaCIt1czphid7csNPzkJmrvo4mw1jE0XKxkvWMihVT70C2fXD-ppRrzW_Vd2L-sNzHj8TN91oalwNfDJQ95zjaxqZvf45hHu0kUdQ9KetaDFcTAPC7wZlXUDaEYPFtSOp85Y9K1zv0eBQ_AnlcvSpEkZlZCEIupwgc9f8cOX5nrs6hU7skAQHWmEWmbveKkgr47P6vPEq1CUPFCL-oI6dP9Rl_Mbu0M13HI-8-qVKCIVJJ2ygztwcs9JfOlQhGzkGrznF8e6xwjNg_h1R_VI4TtlLbFRPMuK8x9muvuQALa1I8HaGg2TmivR-yxtlHJsJFvWOUyfkXZ21VgQ6l_dP3nQ5ID_CjIKL3GK4xMXhsSDZRZinHEkMpeGCqHlcuaBNgohReAbmbf4HtK5gJUeYCBeymqSqXIwWG8ynIsgf-Wqej40vIf3-IEBkZpb_hY7-v3_Dg-ckMaNy6Cizrz2_v0SvcrMLcby5XK5VrcBDHCsVsyG2qqdNOZwet3WJDYh9buATSaxiVTH1qaQ1RCJaHYsruFSTovLr3Id8_RsfbvTtXaG_noKRB22UEDdT8KrIdF6ZdqQvVZcLJo-HX8ENlOT]--></g></svg>