<?xml version="1.0" encoding="UTF-8" standalone="no"?><svg xmlns="http://www.w3.org/2000/svg" xmlns:xlink="http://www.w3.org/1999/xlink" contentStyleType="text/css" height="872px" preserveAspectRatio="none" style="width:796px;height:872px;background:#FFFFFF;" version="1.1" viewBox="0 0 796 872" width="796px" zoomAndPan="magnify"><defs/><g><text fill="#000000" font-family="sans-serif" font-size="14" font-weight="bold" lengthAdjust="spacing" textLength="206" x="288" y="23.5352">Stock Chit Consensus States</text><!--cluster stock--><g id="cluster_stock"><path d="M19.5,44.4883 L615.5,44.4883 A12.5,12.5 0 0 1 628,56.9883 L628,60.4883 L7,60.4883 L7,56.9883 A12.5,12.5 0 0 1 19.5,44.4883 " fill="#E8E8EA" style="stroke:#E8E8EA;stroke-width:1.0;"/><rect fill="none" height="803.72" rx="12.5" ry="12.5" style="stroke:#202024;stroke-width:0.5;" width="621" x="7" y="44.4883"/><line style="stroke:#202024;stroke-width:0.5;" x1="7" x2="628" y1="60.4883" y2="60.4883"/><text fill="#000033" font-family="Helvetica" font-size="11" lengthAdjust="spacing" textLength="87" x="274" y="56.9585">Stock Consensus</text></g><!--cluster chit--><g id="cluster_chit"><path d="M413.5,175.2083 L583.5,175.2083 A12.5,12.5 0 0 1 596,187.7083 L596,191.2083 L401,191.2083 L401,187.7083 A12.5,12.5 0 0 1 413.5,175.2083 " fill="#E8E8EA" style="stroke:#E8E8EA;stroke-width:1.0;"/><rect fill="none" height="301" rx="12.5" ry="12.5" style="stroke:#202024;stroke-width:0.5;" width="195" x="401" y="175.2083"/><line style="stroke:#202024;stroke-width:0.5;" x1="401" x2="596" y1="191.2083" y2="191.2083"/><text fill="#000033" font-family="Helvetica" font-size="11" lengthAdjust="spacing" textLength="62" x="467.5" y="187.6785">Chit Protocol</text></g><g id="stock.pending"><rect fill="#E8E8EA" height="64" rx="12.5" ry="12.5" style="stroke:#202024;stroke-width:0.5;" width="144" x="400" y="568.2083"/><line style="stroke:#202024;stroke-width:0.5;" x1="400" x2="544" y1="589.2083" y2="589.2083"/><text fill="#000033" font-family="Helvetica" font-size="11" lengthAdjust="spacing" textLength="39" x="452.5" y="581.6785">Pending</text><text fill="#000033" font-family="Helvetica" font-size="11" lengthAdjust="spacing" textLength="95" x="405" y="602.6785">Chain Index not null</text><text fill="#000033" font-family="Helvetica" font-size="11" lengthAdjust="spacing" textLength="124" x="405" y="613.6785">Chain Index &gt; Chain Conf</text><text fill="#000033" font-family="Helvetica" font-size="11" lengthAdjust="spacing" textLength="101" x="405" y="624.6785">No queued message</text></g><g id="stock.linked"><rect fill="#E8E8EA" height="53" rx="12.5" ry="12.5" style="stroke:#202024;stroke-width:0.5;" width="150" x="388" y="771.2083"/><line style="stroke:#202024;stroke-width:0.5;" x1="388" x2="538" y1="792.2083" y2="792.2083"/><text fill="#000033" font-family="Helvetica" font-size="11" lengthAdjust="spacing" textLength="32" x="447" y="784.6785">Linked</text><text fill="#000033" font-family="Helvetica" font-size="11" lengthAdjust="spacing" textLength="95" x="393" y="805.6785">Chain Index not null</text><text fill="#000033" font-family="Helvetica" font-size="11" lengthAdjust="spacing" textLength="130" x="393" y="816.6785">Chain Index &lt;= Chain Conf</text></g><g id="stock.chit.unlinked"><rect fill="#E8E8EA" height="50" rx="12.5" ry="12.5" style="stroke:#202024;stroke-width:0.5;" width="108" x="417" y="205.2083"/><line style="stroke:#202024;stroke-width:0.5;" x1="417" x2="525" y1="226.2083" y2="226.2083"/><text fill="#000033" font-family="Helvetica" font-size="11" lengthAdjust="spacing" textLength="42" x="450" y="218.6785">Unlinked</text><text fill="#000033" font-family="Helvetica" font-size="11" lengthAdjust="spacing" textLength="88" x="422" y="239.6785">Chain Index is null</text></g><g id="stock.chit.linking"><rect fill="#E8E8EA" height="75" rx="12.5" ry="12.5" style="stroke:#202024;stroke-width:0.5;" width="144" x="420" y="385.2083"/><line style="stroke:#202024;stroke-width:0.5;" x1="420" x2="564" y1="406.2083" y2="406.2083"/><text fill="#000033" font-family="Helvetica" font-size="11" lengthAdjust="spacing" textLength="34" x="475" y="398.6785">Linking</text><text fill="#000033" font-family="Helvetica" font-size="11" lengthAdjust="spacing" textLength="87" x="425" y="419.6785">Chit locally known</text><text fill="#000033" font-family="Helvetica" font-size="11" lengthAdjust="spacing" textLength="95" x="425" y="430.6785">Chain Index not null</text><text fill="#000033" font-family="Helvetica" font-size="11" lengthAdjust="spacing" textLength="124" x="425" y="441.6785">Chain Index &gt; Chain Conf</text><text fill="#000033" font-family="Helvetica" font-size="11" lengthAdjust="spacing" textLength="79" x="425" y="452.6785">Chit not yet sent</text></g><g id="error"><rect fill="#E8E8EA" height="50" rx="12.5" ry="12.5" style="stroke:#202024;stroke-width:0.5;" width="98" x="652" y="205.2083"/><line style="stroke:#202024;stroke-width:0.5;" x1="652" x2="750" y1="226.2083" y2="226.2083"/><text fill="#000033" font-family="Helvetica" font-size="11" lengthAdjust="spacing" textLength="24" x="689" y="218.6785">error</text><text fill="#000033" font-family="Helvetica" font-size="11" lengthAdjust="spacing" textLength="78" x="657" y="239.6785">Can't Consense</text></g><!--link stock to unlinked--><g id="link_stock_unlinked"><path d="M335.93,67.3583 C334.44,70.3683 311.03,118.9283 333,143.2083 C344.99,156.4583 397.46,142.3983 413,151.2083 C432.13,162.0483 446.81,182.0483 456.61,199.0883 " fill="none" id="stock-to-unlinked" style="stroke:#008000;stroke-width:1.0;"/><polygon fill="#008000" points="459.02,203.4083,458.1458,193.5983,456.5918,199.0375,451.1526,197.4834,459.02,203.4083" style="stroke:#008000;stroke-width:1.0;"/><text fill="#008000" font-family="Helvetica" font-size="11" lengthAdjust="spacing" textLength="27" x="367" y="112.1785">User:</text><text fill="#333333" font-family="Helvetica" font-size="11" lengthAdjust="spacing" textLength="93" x="334" y="123.1785">User signs/creates</text><text fill="#333333" font-family="Helvetica" font-size="11" lengthAdjust="spacing" textLength="72" x="344.5" y="134.1785">valid direct chit</text></g><!--link stock to unlinked--><g id="link_stock_unlinked"><path d="M336.73,67.1983 C343.95,67.1083 402.6,67.3483 432,97.2083 C458.65,124.2783 467.24,168.6283 469.93,198.3683 " fill="none" id="stock-to-unlinked-1" style="stroke:#000000;stroke-width:1.0;"/><polygon fill="#000000" points="470.32,203.3383,473.6139,194.0566,469.9343,198.3532,465.6377,194.6736,470.32,203.3383" style="stroke:#000000;stroke-width:1.0;"/><text fill="#000000" font-family="Helvetica" font-size="11" lengthAdjust="spacing" textLength="39" x="480" y="112.1785">Internal:</text><text fill="#333333" font-family="Helvetica" font-size="11" lengthAdjust="spacing" textLength="81" x="459" y="123.1785">Site creates new</text><text fill="#333333" font-family="Helvetica" font-size="11" lengthAdjust="spacing" textLength="69" x="465" y="134.1785">valid lift chit(s)</text></g><!--link stock to linked--><g id="link_stock_linked"><path d="M335.54,67.2383 C322.75,68.0283 50,86.5483 50,229.2083 C50,229.2083 50,229.2083 50,601.2083 C50,746.3583 260.99,783.8883 381.36,793.4983 " fill="none" id="stock-to-linked" style="stroke:#0000FF;stroke-width:1.0;"/><polygon fill="#0000FF" points="386.22,793.8683,377.5553,789.186,381.2349,793.4826,376.9383,797.1622,386.22,793.8683" style="stroke:#0000FF;stroke-width:1.0;"/><text fill="#0000FF" font-family="Helvetica" font-size="11" lengthAdjust="spacing" textLength="26" x="109.5" y="398.1785">Peer:</text><text fill="#333333" font-family="Helvetica" font-size="11" lengthAdjust="spacing" textLength="83" x="81" y="409.1785">Receive new chit</text><text fill="#333333" font-family="Helvetica" font-size="11" lengthAdjust="spacing" textLength="80" x="82.5" y="420.1785">from foil Act:new</text><text fill="#333333" font-family="Helvetica" font-size="11" lengthAdjust="spacing" textLength="120" x="62.5" y="431.1785">[Sent endHash matches]</text><text fill="#333333" font-family="Helvetica" font-size="11" lengthAdjust="spacing" textLength="102" x="71.5" y="442.1785">/Conform to foil chain</text><text fill="#333333" font-family="Helvetica" font-size="11" lengthAdjust="spacing" textLength="143" x="51" y="453.1785">Ratchet ackHash = newHash</text></g><!--link stock to linked--><g id="link_stock_linked"><path d="M335.8,67.4483 C331.63,72.4183 265,153.0583 265,229.2083 C265,229.2083 265,229.2083 265,601.2083 C265,678.7783 342.9,735.9483 400.97,767.7983 " fill="none" id="stock-to-linked-1" style="stroke:#0000FF;stroke-width:1.0;"/><polygon fill="#0000FF" points="405.19,770.0783,399.1848,762.2721,400.7945,767.695,395.3716,769.3048,405.19,770.0783" style="stroke:#0000FF;stroke-width:1.0;"/><text fill="#0000FF" font-family="Helvetica" font-size="11" lengthAdjust="spacing" textLength="26" x="312" y="392.6785">Peer:</text><text fill="#333333" font-family="Helvetica" font-size="11" lengthAdjust="spacing" textLength="83" x="283.5" y="403.6785">Receive new chit</text><text fill="#333333" font-family="Helvetica" font-size="11" lengthAdjust="spacing" textLength="80" x="285" y="414.6785">from foil Act:new</text><text fill="#333333" font-family="Helvetica" font-size="11" lengthAdjust="spacing" textLength="64" x="293" y="425.6785">[Chit collides]</text><text fill="#333333" font-family="Helvetica" font-size="11" lengthAdjust="spacing" textLength="102" x="274" y="436.6785">/Conform to foil chain</text><text fill="#333333" font-family="Helvetica" font-size="11" lengthAdjust="spacing" textLength="118" x="266" y="447.6785">Re-queue stray chits for</text><text fill="#333333" font-family="Helvetica" font-size="11" lengthAdjust="spacing" textLength="108" x="271" y="458.6785">standard resend to foil</text></g><!--link unlinked to linking--><g id="link_unlinked_linking"><path d="M473.66,255.3383 C477.06,286.1883 483.01,340.1783 487.21,378.2683 " fill="none" id="unlinked-to-linking" style="stroke:#000000;stroke-width:1.0;"/><polygon fill="#000000" points="487.76,383.2083,490.7594,373.8273,487.2172,378.2378,482.8067,374.6957,487.76,383.2083" style="stroke:#000000;stroke-width:1.0;"/><text fill="#000000" font-family="Helvetica" font-size="11" lengthAdjust="spacing" textLength="39" x="527.5" y="294.6785">Internal:</text><text fill="#333333" font-family="Helvetica" font-size="11" lengthAdjust="spacing" textLength="112" x="491" y="305.6785">Detected new valid chit</text><text fill="#333333" font-family="Helvetica" font-size="11" lengthAdjust="spacing" textLength="126" x="484" y="316.6785">/Add to chain provisionally</text><text fill="#333333" font-family="Helvetica" font-size="11" lengthAdjust="spacing" textLength="95" x="499.5" y="327.6785">Generate proposed</text><text fill="#333333" font-family="Helvetica" font-size="11" lengthAdjust="spacing" textLength="95" x="499.5" y="338.6785">endHash:propHash</text><text fill="#333333" font-family="Helvetica" font-size="11" lengthAdjust="spacing" textLength="123" x="485.5" y="349.6785">Queue message Act:new</text></g><!--link linking to pending--><g id="link_linking_pending"><path d="M487.81,460.4983 C484.43,490.1483 479.69,531.6883 476.29,561.5583 " fill="none" id="linking-to-pending" style="stroke:#FF0000;stroke-width:1.0;"/><polygon fill="#FF0000" points="475.76,566.2483,480.7375,557.7498,476.3169,561.2794,472.7872,556.8588,475.76,566.2483" style="stroke:#FF0000;stroke-width:1.0;"/><text fill="#FF0000" font-family="Helvetica" font-size="11" lengthAdjust="spacing" textLength="31" x="527.5" y="501.6785">Agent:</text><text fill="#333333" font-family="Helvetica" font-size="11" lengthAdjust="spacing" textLength="91" x="497.5" y="512.6785">Detect chit to send</text><text fill="#333333" font-family="Helvetica" font-size="11" lengthAdjust="spacing" textLength="118" x="484" y="523.6785">/Send chit to foil Act:new</text><text fill="#333333" font-family="Helvetica" font-size="11" lengthAdjust="spacing" textLength="104" x="491" y="534.6785">propHash = endHash</text></g><!--link pending to linked--><g id="link_pending_linked"><path d="M470.55,632.6183 C468.88,668.9383 466.14,728.4083 464.46,764.8983 " fill="none" id="pending-to-linked" style="stroke:#0000FF;stroke-width:1.0;"/><polygon fill="#0000FF" points="464.25,769.4783,468.658,760.6709,464.479,764.4835,460.6664,760.3045,464.25,769.4783" style="stroke:#0000FF;stroke-width:1.0;"/><text fill="#0000FF" font-family="Helvetica" font-size="11" lengthAdjust="spacing" textLength="26" x="546.5" y="671.6785">Peer:</text><text fill="#333333" font-family="Helvetica" font-size="11" lengthAdjust="spacing" textLength="110" x="504.5" y="682.6785">Receive end hash with</text><text fill="#333333" font-family="Helvetica" font-size="11" lengthAdjust="spacing" textLength="113" x="503" y="693.6785">optional chit list Act:upd</text><text fill="#333333" font-family="Helvetica" font-size="11" lengthAdjust="spacing" textLength="179" x="470" y="704.6785">[Chain now reconciles with endHash]</text><text fill="#333333" font-family="Helvetica" font-size="11" lengthAdjust="spacing" textLength="144" x="487.5" y="715.6785">/Ratchet ackHash = endHash</text><text fill="#333333" font-family="Helvetica" font-size="11" lengthAdjust="spacing" textLength="96" x="511.5" y="726.6785">Reque any unlinked</text><text fill="#333333" font-family="Helvetica" font-size="11" lengthAdjust="spacing" textLength="133" x="493" y="737.6785">valid chits for resend to Foil</text></g><!--link stock to error--><g id="link_stock_error"><path d="M628.3069,151.1738 C628.9743,151.7656 629.6385,152.3578 630.2994,152.9502 C632.943,155.32 635.5342,157.6939 638.0689,160.062 C643.1385,164.7982 647.9827,169.5113 652.5703,174.1217 C661.7456,183.3427 669.895,192.1533 676.77,199.9183 " fill="none" id="stock-to-error" style="stroke:#0000FF;stroke-width:1.0;"/><polygon fill="#0000FF" points="680.01,203.6083,677.0761,194.2066,676.7104,199.8516,671.0654,199.4859,680.01,203.6083" style="stroke:#0000FF;stroke-width:1.0;"/><text fill="#0000FF" font-family="Helvetica" font-size="11" lengthAdjust="spacing" textLength="26" x="690" y="106.6785">Peer:</text><text fill="#333333" font-family="Helvetica" font-size="11" lengthAdjust="spacing" textLength="116" x="645" y="117.6785">Receive chit list Act:upd</text><text fill="#333333" font-family="Helvetica" font-size="11" lengthAdjust="spacing" textLength="157" x="624.5" y="128.6785">[Cannot reconcile with endHash]</text><text fill="#333333" font-family="Helvetica" font-size="11" lengthAdjust="spacing" textLength="170" x="618" y="139.6785">/Send error report to peer and user</text></g><text fill="#888888" font-family="sans-serif" font-size="10" lengthAdjust="spacing" textLength="154" x="314" y="862.8763">Wed Nov 01 18:46:10 MDT 2023</text><!--SRC=[hLLDRnGn3BtFhp1LfMcbBTnNj18g0YeX15trn7084sytQjRP9fcM5Uf_n_PaPZ-HE71fCxRpRBzdPryvQdrd4TgmN0PwlUgMlgfEiyiUpsOvj0zmlN0PhWCbfDGbc6MJCPrNIVv3qf3V5K3_VQBHNsDWU_0dO1AqOf68CUQElAC7jEhkoiTsm6UsEBfNl-_Fx7xPPFcAP8U0LN-kwj7x9MGtNwkJz5Zj89V49UrBwUIaT3iqgZ7QNbNLsZHOpCRvDAqmnX2dS6se7gd1QkY47GlZ26x8uYzmN4JdVLNwcFPy-j0QxzVmGE6PjdsRYrpwmSsDzwfySVRv7hPSN6C6hYfNTSz0SKLSXenZtYtdaRn7lJjvnuXl7NPeOOafcNkSGhUoLT7bB-17lJlWOyIN08yx-DKnddVesdU-lTn67lJCqL1osGM2s7baOVjnllX-sYMCFowkOAFfgKQVgMS2T_mNahkdzAQDA1lHq9Fnpe9r4TkiKp-fw_C1yXZM3MMCPFm4PexBAK10-3o0UJVleSxI-JRQzzCLzWNkboVsoIssw9vGaFHsG_CObZ0FpiExDa_PFgbdF1x077yoQG5Bazi5fde2jL0KuX9ow2-qGbn3jngHmRGFUkDIqENqVwlICUMdWxkNSlvQ3LxeJF26HhDMkCG1iI7UPh8cMfvrNW0xNEGgnmLLDSQTsHVZFMOMaAEapbw68kQaVcSLK8k0LGnFBl7qo2Otz149eumLsrSXeMsei3iLYnmQqaKPvdZeccihrGY7zgSmE4x_GA7zMIhh7rIkGjhJgcRIvs3TfhEX8JFBLOeH8WhuFoic-0j1UNQPcmYhh5ttERrBMHFoqej-GWs_Bin_6wXrl5TwRSpF8tOuIyKfmhAkO6Wzhikm2wF6Myf-ACgMXsX3ttux6_PsdnBbJtDo4zo0wATJASWDILiH7oN5mOoN7u6ZX1qZnf0yKICh1wIeYWhAGQiGLKr1PJOioBF3PTG7PQZXtykOPUSzYydUSHtA0wFAOBzMnQHqftvQEFiV]--></g></svg>