<?xml version="1.0" encoding="UTF-8" standalone="no"?><svg xmlns="http://www.w3.org/2000/svg" xmlns:xlink="http://www.w3.org/1999/xlink" contentStyleType="text/css" height="918px" preserveAspectRatio="none" style="width:1117px;height:918px;background:#FFFFFF;" version="1.1" viewBox="0 0 1117 918" width="1117px" zoomAndPan="magnify"><defs/><g><text fill="#000000" font-family="sans-serif" font-size="14" font-weight="bold" lengthAdjust="spacing" textLength="74" x="514.5" y="23.5352">Lift States</text><!--cluster resolvable--><g id="cluster_resolvable"><path d="M432.5,631.4883 L805.5,631.4883 A12.5,12.5 0 0 1 818,643.9883 L818,647.4883 L420,647.4883 L420,643.9883 A12.5,12.5 0 0 1 432.5,631.4883 " fill="#E8E8EA" style="stroke:#E8E8EA;stroke-width:1.0;"/><rect fill="none" height="112" rx="12.5" ry="12.5" style="stroke:#202024;stroke-width:0.5;" width="398" x="420" y="631.4883"/><line style="stroke:#202024;stroke-width:0.5;" x1="420" x2="818" y1="647.4883" y2="647.4883"/><text fill="#000033" font-family="Helvetica" font-size="11" lengthAdjust="spacing" textLength="50" x="594" y="643.9585">resolvable</text></g><g id="resolvable.exec"><rect fill="#E8E8EA" height="50" rx="12.5" ry="12.5" style="stroke:#202024;stroke-width:0.5;" width="150" x="463" y="669.4883"/><line style="stroke:#202024;stroke-width:0.5;" x1="463" x2="613" y1="690.4883" y2="690.4883"/><text fill="#000033" font-family="Helvetica" font-size="11" lengthAdjust="spacing" textLength="24" x="526" y="682.9585">exec</text><text fill="#000033" font-family="Helvetica" font-size="11" lengthAdjust="spacing" textLength="130" x="468" y="703.9585">Status: exec, Request: null</text></g><g id="resolvable.part"><rect fill="#E8E8EA" height="50" rx="12.5" ry="12.5" style="stroke:#202024;stroke-width:0.5;" width="145" x="648.5" y="669.4883"/><line style="stroke:#202024;stroke-width:0.5;" x1="648.5" x2="793.5" y1="690.4883" y2="690.4883"/><text fill="#000033" font-family="Helvetica" font-size="11" lengthAdjust="spacing" textLength="19" x="711.5" y="682.9585">part</text><text fill="#000033" font-family="Helvetica" font-size="11" lengthAdjust="spacing" textLength="125" x="653.5" y="703.9585">Status: part, Request: null</text></g><g id="draftInit"><rect fill="#E8E8EA" height="50" rx="12.5" ry="12.5" style="stroke:#202024;stroke-width:0.5;" width="145" x="310.5" y="158.4883"/><line style="stroke:#202024;stroke-width:0.5;" x1="310.5" x2="455.5" y1="179.4883" y2="179.4883"/><text fill="#000033" font-family="Helvetica" font-size="11" lengthAdjust="spacing" textLength="38" x="364" y="171.9585">draft.init</text><text fill="#000033" font-family="Helvetica" font-size="11" lengthAdjust="spacing" textLength="125" x="315.5" y="192.9585">Status: draft, Request: init</text></g><g id="initSeek"><rect fill="#E8E8EA" height="50" rx="12.5" ry="12.5" style="stroke:#202024;stroke-width:0.5;" width="147" x="309.5" y="314.4883"/><line style="stroke:#202024;stroke-width:0.5;" x1="309.5" x2="456.5" y1="335.4883" y2="335.4883"/><text fill="#000033" font-family="Helvetica" font-size="11" lengthAdjust="spacing" textLength="40" x="363" y="327.9585">init.seek</text><text fill="#000033" font-family="Helvetica" font-size="11" lengthAdjust="spacing" textLength="127" x="314.5" y="348.9585">Status: init, Request: seek</text></g><g id="seekExec"><rect fill="#E8E8EA" height="50" rx="12.5" ry="12.5" style="stroke:#202024;stroke-width:0.5;" width="158" x="304" y="481.4883"/><line style="stroke:#202024;stroke-width:0.5;" x1="304" x2="462" y1="502.4883" y2="502.4883"/><text fill="#000033" font-family="Helvetica" font-size="11" lengthAdjust="spacing" textLength="51" x="357.5" y="494.9585">seek.exec</text><text fill="#000033" font-family="Helvetica" font-size="11" lengthAdjust="spacing" textLength="138" x="309" y="515.9585">Status: seek, Request: exec</text></g><g id="good"><rect fill="#E8E8EA" height="50" rx="12.5" ry="12.5" style="stroke:#202024;stroke-width:0.5;" width="150" x="662" y="843.4883"/><line style="stroke:#202024;stroke-width:0.5;" x1="662" x2="812" y1="864.4883" y2="864.4883"/><text fill="#000033" font-family="Helvetica" font-size="11" lengthAdjust="spacing" textLength="24" x="725" y="856.9585">good</text><text fill="#000033" font-family="Helvetica" font-size="11" lengthAdjust="spacing" textLength="130" x="667" y="877.9585">Status: good, Request: null</text></g><g id="void"><rect fill="#E8E8EA" height="50" rx="12.5" ry="12.5" style="stroke:#202024;stroke-width:0.5;" width="146" x="151" y="843.4883"/><line style="stroke:#202024;stroke-width:0.5;" x1="151" x2="297" y1="864.4883" y2="864.4883"/><text fill="#000033" font-family="Helvetica" font-size="11" lengthAdjust="spacing" textLength="20" x="214" y="856.9585">void</text><text fill="#000033" font-family="Helvetica" font-size="11" lengthAdjust="spacing" textLength="126" x="156" y="877.9585">Status: void, Request: null</text></g><ellipse cx="568" cy="53.4883" fill="#222222" rx="10" ry="10" style="stroke:none;stroke-width:1.0;"/><!--link *start to draftInit--><g id="link_*start_draftInit"><path d="M565.55,63.5683 C560.94,79.0183 549.53,110.4883 529,128.4883 C509.99,145.1583 485.37,156.8583 461.78,164.9983 " fill="none" id="*start-to-draftInit" style="stroke:#008000;stroke-width:1.0;"/><polygon fill="#008000" points="457.25,166.5083,467.0513,167.4747,461.9963,164.9357,464.5352,159.8807,457.25,166.5083" style="stroke:#008000;stroke-width:1.0;"/><text fill="#008000" font-family="Helvetica" font-size="11" lengthAdjust="spacing" textLength="27" x="593" y="102.9585">User:</text><text fill="#333333" font-family="Helvetica" font-size="11" lengthAdjust="spacing" textLength="105" x="554" y="113.9585">User initiates linear lift</text><text fill="#333333" font-family="Helvetica" font-size="11" lengthAdjust="spacing" textLength="57" x="578" y="124.9585">Request:init</text></g><!--link *start to draftInit--><g id="link_*start_draftInit"><path d="M557.62,54.9383 C521.07,56.7583 399.35,64.9083 376,93.4883 C362.87,109.5583 365.39,133.1583 370.78,152.0183 " fill="none" id="*start-to-draftInit-1" style="stroke:#000000;stroke-width:1.0;"/><polygon fill="#000000" points="372.25,156.7683,373.3935,146.986,370.7635,151.9944,365.7552,149.3644,372.25,156.7683" style="stroke:#000000;stroke-width:1.0;"/><text fill="#000000" font-family="Helvetica" font-size="11" lengthAdjust="spacing" textLength="31" x="433" y="102.9585">Agent:</text><text fill="#333333" font-family="Helvetica" font-size="11" lengthAdjust="spacing" textLength="143" x="377" y="113.9585">Automaton initiates circular lift</text><text fill="#333333" font-family="Helvetica" font-size="11" lengthAdjust="spacing" textLength="57" x="420" y="124.9585">Request:init</text></g><!--link draftInit to void--><g id="link_draftInit_void"><path d="M310.31,198.7483 C200.76,222.3483 6,273.4383 6,338.4883 C6,338.4883 6,338.4883 6,695.4883 C6,768.5783 82.46,815.4183 144.82,841.4683 " fill="none" id="draftInit-to-void" style="stroke:#FF0000;stroke-width:1.0;"/><polygon fill="#FF0000" points="149.4,843.3583,142.5932,836.2402,144.7745,841.4596,139.5552,843.6409,149.4,843.3583" style="stroke:#FF0000;stroke-width:1.0;"/><text fill="#FF0000" font-family="Helvetica" font-size="11" lengthAdjust="spacing" textLength="31" x="51" y="492.9585">Agent:</text><text fill="#333333" font-family="Helvetica" font-size="11" lengthAdjust="spacing" textLength="58" x="37.5" y="503.9585">init detected</text><text fill="#333333" font-family="Helvetica" font-size="11" lengthAdjust="spacing" textLength="101" x="16" y="514.9585">[Lift/signature invalid]</text><text fill="#333333" font-family="Helvetica" font-size="11" lengthAdjust="spacing" textLength="119" x="7" y="525.9585">/Disable payment record</text></g><!--link draftInit to initSeek--><g id="link_draftInit_initSeek"><path d="M383,208.8883 C383,235.6983 383,278.7983 383,307.8583 " fill="none" id="draftInit-to-initSeek" style="stroke:#FF0000;stroke-width:1.0;"/><polygon fill="#FF0000" points="383,312.6883,387,303.6883,383,307.6883,379,303.6883,383,312.6883" style="stroke:#FF0000;stroke-width:1.0;"/><text fill="#FF0000" font-family="Helvetica" font-size="11" lengthAdjust="spacing" textLength="31" x="423.5" y="247.9585">Agent:</text><text fill="#333333" font-family="Helvetica" font-size="11" lengthAdjust="spacing" textLength="58" x="410" y="258.9585">init detected</text><text fill="#333333" font-family="Helvetica" font-size="11" lengthAdjust="spacing" textLength="110" x="384" y="269.9585">[Payor signature good]</text><text fill="#333333" font-family="Helvetica" font-size="11" lengthAdjust="spacing" textLength="73" x="402.5" y="280.9585">/Agent signs lift</text></g><!--link initSeek to seekExec--><g id="link_initSeek_seekExec"><path d="M383,364.8383 C383,393.9583 383,442.7583 383,474.5283 " fill="none" id="initSeek-to-seekExec" style="stroke:#FF0000;stroke-width:1.0;"/><polygon fill="#FF0000" points="383,479.5283,387,470.5283,383,474.5283,379,470.5283,383,479.5283" style="stroke:#FF0000;stroke-width:1.0;"/><text fill="#FF0000" font-family="Helvetica" font-size="11" lengthAdjust="spacing" textLength="31" x="421.5" y="403.9585">Agent:</text><text fill="#333333" font-family="Helvetica" font-size="11" lengthAdjust="spacing" textLength="69" x="402.5" y="414.9585">seek detected</text><text fill="#333333" font-family="Helvetica" font-size="11" lengthAdjust="spacing" textLength="101" x="386.5" y="425.9585">[Delegate to chipNet]</text><text fill="#333333" font-family="Helvetica" font-size="11" lengthAdjust="spacing" textLength="106" x="384" y="436.9585">/Upon plan discovery,</text><text fill="#333333" font-family="Helvetica" font-size="11" lengthAdjust="spacing" textLength="55" x="409.5" y="447.9585">proceed to:</text></g><!--link initSeek to void--><g id="link_initSeek_void"><path d="M347.47,364.6883 C298.01,400.7983 210.58,473.9783 176,561.4883 C138.15,657.2683 183.8,781.0083 209.2,837.2583 " fill="none" id="initSeek-to-void" style="stroke:#FF0000;stroke-width:1.0;"/><polygon fill="#FF0000" points="211.26,841.7583,211.1656,831.9099,209.1856,837.2089,203.8866,835.2289,211.26,841.7583" style="stroke:#FF0000;stroke-width:1.0;"/><text fill="#FF0000" font-family="Helvetica" font-size="11" lengthAdjust="spacing" textLength="31" x="215" y="570.9585">Agent:</text><text fill="#333333" font-family="Helvetica" font-size="11" lengthAdjust="spacing" textLength="69" x="196" y="581.9585">seek detected</text><text fill="#333333" font-family="Helvetica" font-size="11" lengthAdjust="spacing" textLength="107" x="177" y="592.9585">[Delegated to chipNet]</text><text fill="#333333" font-family="Helvetica" font-size="11" lengthAdjust="spacing" textLength="100" x="180.5" y="603.9585">/Discovery timed out</text></g><!--link initSeek to good--><g id="link_initSeek_good"><path d="M456.86,362.3883 C558.69,397.1083 737.81,475.6283 810,615.4883 C839.35,672.3583 827.75,697.9983 810,759.4883 C801.4,789.2783 781.1,818.1183 764.08,838.4883 " fill="none" id="initSeek-to-good" style="stroke:#000000;stroke-width:1.0;"/><polygon fill="#000000" points="761.04,842.0683,769.9171,837.8024,764.2787,838.2589,763.8221,832.6205,761.04,842.0683" style="stroke:#000000;stroke-width:1.0;"/><text fill="#000000" font-family="Helvetica" font-size="11" lengthAdjust="spacing" textLength="38" x="836" y="570.9585">Trigger:</text><text fill="#333333" font-family="Helvetica" font-size="11" lengthAdjust="spacing" textLength="69" x="820.5" y="581.9585">seek detected</text><text fill="#333333" font-family="Helvetica" font-size="11" lengthAdjust="spacing" textLength="95" x="807.5" y="592.9585">[Inernal lift possible]</text><text fill="#333333" font-family="Helvetica" font-size="11" lengthAdjust="spacing" textLength="98" x="806" y="603.9585">/Lift executed locally</text></g><!--link seekExec to exec--><g id="link_seekExec_exec"><path d="M403.26,531.8083 C431.69,565.9183 483.34,627.8983 513.77,664.4083 " fill="none" id="seekExec-to-exec" style="stroke:#FF0000;stroke-width:1.0;"/><polygon fill="#FF0000" points="516.76,668.0083,514.0747,658.5326,513.5605,664.166,507.927,663.6518,516.76,668.0083" style="stroke:#FF0000;stroke-width:1.0;"/><text fill="#FF0000" font-family="Helvetica" font-size="11" lengthAdjust="spacing" textLength="31" x="508" y="570.9585">Agent:</text><text fill="#333333" font-family="Helvetica" font-size="11" lengthAdjust="spacing" textLength="69" x="489" y="581.9585">exec detected</text><text fill="#333333" font-family="Helvetica" font-size="11" lengthAdjust="spacing" textLength="115" x="466" y="592.9585">[DB/User selected plan]</text><text fill="#333333" font-family="Helvetica" font-size="11" lengthAdjust="spacing" textLength="113" x="467" y="603.9585">/chipNet has initiated lift</text></g><!--link seekExec to void--><g id="link_seekExec_void"><path d="M354.97,531.8183 C333.32,552.1083 304.22,582.8783 287,615.4883 C248.11,689.1483 232.54,787.6983 226.89,836.8783 " fill="none" id="seekExec-to-void" style="stroke:#FF0000;stroke-width:1.0;"/><polygon fill="#FF0000" points="226.35,841.6983,231.3302,833.2013,226.9084,836.7296,223.3802,832.3078,226.35,841.6983" style="stroke:#FF0000;stroke-width:1.0;"/><text fill="#FF0000" font-family="Helvetica" font-size="11" lengthAdjust="spacing" textLength="31" x="334" y="686.4585">Agent:</text><text fill="#333333" font-family="Helvetica" font-size="11" lengthAdjust="spacing" textLength="69" x="315" y="697.4585">exec detected</text><text fill="#333333" font-family="Helvetica" font-size="11" lengthAdjust="spacing" textLength="123" x="288" y="708.4585">[chipNet fails to initiate lift]</text></g><!--link *start to part--><g id="link_*start_part"><path d="M578.26,55.3483 C642.17,60.9683 983,95.0283 983,182.4883 C983,182.4883 983,182.4883 983,507.4883 C983,598.2783 877.1,648.8083 799.95,673.5683 " fill="none" id="*start-to-part" style="stroke:#0000FF;stroke-width:1.0;"/><polygon fill="#0000FF" points="795.43,674.9983,805.2153,676.1151,800.1999,673.4988,802.8161,668.4833,795.43,674.9983" style="stroke:#0000FF;stroke-width:1.0;"/><text fill="#0000FF" font-family="Helvetica" font-size="11" lengthAdjust="spacing" textLength="26" x="1033.5" y="331.4585">Peer:</text><text fill="#333333" font-family="Helvetica" font-size="11" lengthAdjust="spacing" textLength="125" x="984" y="342.4585">chipNet requests promise</text><text fill="#333333" font-family="Helvetica" font-size="11" lengthAdjust="spacing" textLength="106" x="993.5" y="353.4585">[Create lift, draft chits]</text></g><!--link resolvable to good--><g id="link_resolvable_good"><path d="M435.4217,743.6044 C435.4687,743.707 435.5159,743.8094 435.5634,743.9117 C435.6584,744.1163 435.7545,744.3203 435.8518,744.5237 C436.2409,745.3372 436.6483,746.1409 437.0748,746.9328 C437.9279,748.5166 438.8575,750.0531 439.8704,751.5267 C441.8963,754.4739 444.255,757.1695 447,759.4883 C458.29,769.0183 498.76,763.5483 513,767.4883 C575.58,784.8283 643.08,816.9883 687.44,840.1583 " fill="none" id="resolvable-to-good" style="stroke:#0000FF;stroke-width:1.0;"/><polygon fill="#0000FF" points="691.66,842.3783,685.5659,834.6412,687.2376,840.0454,681.8334,841.7171,691.66,842.3783" style="stroke:#0000FF;stroke-width:1.0;"/><text fill="#0000FF" font-family="Helvetica" font-size="11" lengthAdjust="spacing" textLength="26" x="686.5" y="776.9585">Peer:</text><text fill="#333333" font-family="Helvetica" font-size="11" lengthAdjust="spacing" textLength="109" x="645" y="787.9585">chipNet confirms good</text><text fill="#333333" font-family="Helvetica" font-size="11" lengthAdjust="spacing" textLength="68" x="665.5" y="798.9585">[Verified Valid]</text><text fill="#333333" font-family="Helvetica" font-size="11" lengthAdjust="spacing" textLength="135" x="632" y="809.9585">/Commit lift chits; Consense</text></g><!--link resolvable to void--><g id="link_resolvable_void"><path d="M419.9445,724.8707 C419.3369,726.5417 418.6905,728.2394 418.004,729.9511 C416.631,733.3743 415.0973,736.8531 413.3916,740.2848 C409.98,747.1483 405.88,753.8233 401,759.4883 C370.55,794.8383 325.55,822.0883 288.55,840.3583 " fill="none" id="resolvable-to-void" style="stroke:#0000FF;stroke-width:1.0;"/><polygon fill="#0000FF" points="284.51,842.3283,294.3532,841.9942,289.0075,840.1438,290.858,834.7981,284.51,842.3283" style="stroke:#0000FF;stroke-width:1.0;"/><text fill="#0000FF" font-family="Helvetica" font-size="11" lengthAdjust="spacing" textLength="26" x="436" y="776.9585">Peer:</text><text fill="#333333" font-family="Helvetica" font-size="11" lengthAdjust="spacing" textLength="110" x="394" y="787.9585">chipNet confirms failed</text><text fill="#333333" font-family="Helvetica" font-size="11" lengthAdjust="spacing" textLength="66" x="416" y="798.9585">[Verified Void]</text><text fill="#333333" font-family="Helvetica" font-size="11" lengthAdjust="spacing" textLength="79" x="409.5" y="809.9585">/Mark lift as void</text></g><text fill="#888888" font-family="sans-serif" font-size="10" lengthAdjust="spacing" textLength="151" x="476" y="908.1563">Mon Jun 03 13:37:47 MDT 2024</text><!--SRC=[VLHDRzim3BthLsX50DU3czupO43Nx51W6uPrxQNjGR6PbAWiUP8SB1ZstqVISUny3GXYy0FlaO-atg4hRLk1BdrTUpTjsjegDKcOB5n-mMNIzyaaYBcA_DKNLJ3BD4M7wKARgCMy8wkFSsGQ0TuapDOz6NsK0rFu3QL4sVfCnZOQ87gxDWiB-e_IkdDoyiveJ4Zghr8xrfcKryPPLqYXVy2l5YBvcLdrz4CQUqPPKMhRbZ5aiMUK9JM0PEnIs1obkDPQjVA-6gMmUPZ27OnIs3nCMNiSex1vcA8ocOfEmRY82RtJeRKGP-hf_Ok-Ufgq4SBBrKSz4ceYoPSIAXxeJxH07gwswC04-YpJi-kfHAeioplCas0tAt2fk6cJhqsY8WR44aFPslEOEookjbfmhLtVVPdLeX0uNK62CW5faF4-NaTSEL8c08NNncAL5NgEKTQcCPkQAg9DAdseJh8CA_4_fkzcuuCUg7YKn2FzYZjAO_bkmmQ2OPl61EmT4Sp1maecw7NvYiqte3N87XhIiB76wGfZwTSGDiMpQu8l0IfAdMMd28zrEqDMxRFDUmwTiAQWRzCUFa5t2xs5_XbmjQBTEOI_Sn2SiIA8RdoCIACej3mUV2KjCrjV6citkTfTsz007Ad5dd43dwvbOICrmXxHgEXRqQ_RXmQbnsuknop7CXsmz71BWpQoL3tc5hA_hGQws-fEkGTaxu0HkdsFcePNOoGviji0FLRHdH9dfqYQgz7BDoBOK_-0eFHkYQ6EsqVc4G8kaRf_v8iez2szvhJHCX9X-K0k5u5- -HcsVNtEiB4siCSdhzDN4zuwCXe50-Ng7m00]--></g></svg>