<?xml version="1.0" encoding="UTF-8" standalone="no"?><svg xmlns="http://www.w3.org/2000/svg" xmlns:xlink="http://www.w3.org/1999/xlink" contentStyleType="text/css" height="794px" preserveAspectRatio="none" style="width:1095px;height:794px;background:#FFFFFF;" version="1.1" viewBox="0 0 1095 794" width="1095px" zoomAndPan="magnify"><defs/><g><text fill="#000000" font-family="sans-serif" font-size="14" font-weight="bold" lengthAdjust="spacing" textLength="166" x="457.715" y="23.5352">Route Discovery States</text><!--cluster tryable--><g id="cluster_tryable"><path d="M309.92,630.8483 L643.92,630.8483 A12.5,12.5 0 0 1 656.42,643.3483 L656.42,673.8483 L297.42,673.8483 L297.42,643.3483 A12.5,12.5 0 0 1 309.92,630.8483 " fill="#E8E8EA" style="stroke:#E8E8EA;stroke-width:1.0;"/><rect fill="none" height="139" rx="12.5" ry="12.5" style="stroke:#202024;stroke-width:0.5;" width="359" x="297.42" y="630.8483"/><line style="stroke:#202024;stroke-width:0.5;" x1="297.42" x2="656.42" y1="673.8483" y2="673.8483"/><line style="stroke:#202024;stroke-width:0.5;" x1="297.42" x2="656.42" y1="646.8483" y2="646.8483"/><text fill="#000033" font-family="Helvetica" font-size="11" lengthAdjust="spacing" textLength="33" x="322.42" y="643.3185">tryable</text><text fill="#000033" font-family="Helvetica" font-size="11" lengthAdjust="spacing" textLength="305" x="302.42" y="657.8185">May retry upstream query for new information from time to time</text><text fill="#000033" font-family="Helvetica" font-size="11" lengthAdjust="spacing" textLength="309" x="302.42" y="668.8185">Routes also subject to optional deletion after long expiration time</text></g><!--cluster liftUpdate--><g id="cluster_liftUpdate"><path d="M415.92,163.4883 L854.92,163.4883 A12.5,12.5 0 0 1 867.42,175.9883 L867.42,195.4883 L403.42,195.4883 L403.42,175.9883 A12.5,12.5 0 0 1 415.92,163.4883 " fill="#E8E8EA" style="stroke:#E8E8EA;stroke-width:1.0;"/><rect fill="none" height="384.36" rx="12.5" ry="12.5" style="stroke:#202024;stroke-width:0.5;" width="464" x="403.42" y="163.4883"/><line style="stroke:#202024;stroke-width:0.5;" x1="403.42" x2="867.42" y1="195.4883" y2="195.4883"/><line style="stroke:#202024;stroke-width:0.5;" x1="403.42" x2="867.42" y1="179.4883" y2="179.4883"/><text fill="#000033" font-family="Helvetica" font-size="11" lengthAdjust="spacing" textLength="45" x="504.92" y="175.9585">liftUpdate</text><text fill="#000033" font-family="Helvetica" font-size="11" lengthAdjust="spacing" textLength="261" x="408.42" y="190.4585">Lift success/failure will provide more up-to-date status</text></g><g id="tryable.none"><rect fill="#E8E8EA" height="50" rx="12.5" ry="12.5" style="stroke:#202024;stroke-width:0.5;" width="119" x="512.92" y="695.8483"/><line style="stroke:#202024;stroke-width:0.5;" x1="512.92" x2="631.92" y1="716.8483" y2="716.8483"/><text fill="#000033" font-family="Helvetica" font-size="11" lengthAdjust="spacing" textLength="24" x="560.42" y="709.3185">none</text><text fill="#000033" font-family="Helvetica" font-size="11" lengthAdjust="spacing" textLength="99" x="517.92" y="730.3185">Stat: none, time: N/A</text></g><g id="tryable.timeout"><rect fill="#E8E8EA" height="50" rx="12.5" ry="12.5" style="stroke:#202024;stroke-width:0.5;" width="137" x="340.92" y="695.8483"/><line style="stroke:#202024;stroke-width:0.5;" x1="340.92" x2="477.92" y1="716.8483" y2="716.8483"/><text fill="#000033" font-family="Helvetica" font-size="11" lengthAdjust="spacing" textLength="34" x="392.42" y="709.3185">pend.X</text><text fill="#000033" font-family="Helvetica" font-size="11" lengthAdjust="spacing" textLength="117" x="345.92" y="730.3185">Stat: pend, time: expired</text></g><g id="liftUpdate.good"><rect fill="#E8E8EA" height="50" rx="12.5" ry="12.5" style="stroke:#202024;stroke-width:0.5;" width="117" x="593.92" y="317.8483"/><line style="stroke:#202024;stroke-width:0.5;" x1="593.92" x2="710.92" y1="338.8483" y2="338.8483"/><text fill="#000033" font-family="Helvetica" font-size="11" lengthAdjust="spacing" textLength="24" x="640.42" y="331.3185">good</text><text fill="#000033" font-family="Helvetica" font-size="11" lengthAdjust="spacing" textLength="97" x="598.92" y="352.3185">Stat: good, time: OK</text></g><g id="liftUpdate.pend"><rect fill="#E8E8EA" height="50" rx="12.5" ry="12.5" style="stroke:#202024;stroke-width:0.5;" width="117" x="427.92" y="473.8483"/><line style="stroke:#202024;stroke-width:0.5;" x1="427.92" x2="544.92" y1="494.8483" y2="494.8483"/><text fill="#000033" font-family="Helvetica" font-size="11" lengthAdjust="spacing" textLength="24" x="474.42" y="487.3185">pend</text><text fill="#000033" font-family="Helvetica" font-size="11" lengthAdjust="spacing" textLength="97" x="432.92" y="508.3185">Stat: pend, time: OK</text></g><g id="liftUpdate.stale"><rect fill="#E8E8EA" height="50" rx="12.5" ry="12.5" style="stroke:#202024;stroke-width:0.5;" width="137" x="705.92" y="473.8483"/><line style="stroke:#202024;stroke-width:0.5;" x1="705.92" x2="842.92" y1="494.8483" y2="494.8483"/><text fill="#000033" font-family="Helvetica" font-size="11" lengthAdjust="spacing" textLength="34" x="757.42" y="487.3185">good.X</text><text fill="#000033" font-family="Helvetica" font-size="11" lengthAdjust="spacing" textLength="117" x="710.92" y="508.3185">Stat: good, time: expired</text></g><g id="draft"><rect fill="#E8E8EA" height="50" rx="12.5" ry="12.5" style="stroke:#202024;stroke-width:0.5;" width="117" x="158.92" y="317.8483"/><line style="stroke:#202024;stroke-width:0.5;" x1="158.92" x2="275.92" y1="338.8483" y2="338.8483"/><text fill="#000033" font-family="Helvetica" font-size="11" lengthAdjust="spacing" textLength="22" x="206.42" y="331.3185">draft</text><text fill="#000033" font-family="Helvetica" font-size="11" lengthAdjust="spacing" textLength="97" x="163.92" y="352.3185">Stat: draft, time: N/A</text></g><ellipse cx="134.42" cy="201.8483" fill="#222222" rx="10" ry="10" style="stroke:none;stroke-width:1.0;"/><ellipse cx="134.42" cy="53.4883" fill="none" rx="10" ry="10" style="stroke:#222222;stroke-width:1.0;"/><ellipse cx="134.92" cy="53.9883" fill="#222222" rx="6" ry="6" style="stroke:none;stroke-width:1.0;"/><!--reverse link *end to *start--><g id="link_*end_*start"><path d="M118.56,58.4083 C101.98,63.4483 76.81,73.9683 65.42,93.4883 C55.12,111.1483 57.05,120.8383 65.42,139.4883 C78.03,167.5683 110.54,188.0383 126.01,196.5283 " fill="none" id="*end-backto-*start" style="stroke:#0000FF;stroke-width:1.0;"/><polygon fill="#0000FF" points="123.2,57.0983,113.4523,55.6902,118.3876,58.4549,115.6229,63.3902,123.2,57.0983" style="stroke:#0000FF;stroke-width:1.0;"/><text fill="#0000FF" font-family="Helvetica" font-size="11" lengthAdjust="spacing" textLength="26" x="98.42" y="102.9585">Peer:</text><text fill="#333333" font-family="Helvetica" font-size="11" lengthAdjust="spacing" textLength="90" x="66.42" y="113.9585">Receive Act:query</text><text fill="#333333" font-family="Helvetica" font-size="11" lengthAdjust="spacing" textLength="89" x="66.92" y="124.9585">[Route impossible]</text><text fill="#333333" font-family="Helvetica" font-size="11" lengthAdjust="spacing" textLength="80" x="71.42" y="135.9585">/Reply Act: none</text></g><!--reverse link *end to *start--><g id="link_*end_*start"><path d="M145.06,65.8383 C151.14,73.1283 158.19,83.1383 161.42,93.4883 C172.83,129.9983 150.19,174.6183 139.54,192.6783 " fill="none" id="*end-backto-*start-1" style="stroke:#0000FF;stroke-width:1.0;"/><polygon fill="#0000FF" points="142.06,62.3883,144.9737,71.7963,145.3515,66.1521,150.9957,66.5299,142.06,62.3883" style="stroke:#0000FF;stroke-width:1.0;"/><text fill="#0000FF" font-family="Helvetica" font-size="11" lengthAdjust="spacing" textLength="26" x="198.42" y="102.9585">Peer:</text><text fill="#333333" font-family="Helvetica" font-size="11" lengthAdjust="spacing" textLength="90" x="166.42" y="113.9585">Receive Act:query</text><text fill="#333333" font-family="Helvetica" font-size="11" lengthAdjust="spacing" textLength="92" x="165.42" y="124.9585">[Peer found locally]</text><text fill="#333333" font-family="Helvetica" font-size="11" lengthAdjust="spacing" textLength="80" x="171.42" y="135.9585">/Reply Act: good</text></g><!--link *start to draft--><g id="link_*start_draft"><path d="M131.3,211.7283 C126.16,227.9983 117.78,263.1683 131.42,287.8483 C137.16,298.2283 145.82,306.8783 155.47,313.9983 " fill="none" id="*start-to-draft" style="stroke:#008000;stroke-width:1.0;"/><polygon fill="#008000" points="159.36,316.7183,154.2827,308.279,155.2645,313.85,149.6935,314.8318,159.36,316.7183" style="stroke:#008000;stroke-width:1.0;"/><text fill="#008000" font-family="Helvetica" font-size="11" lengthAdjust="spacing" textLength="27" x="164.42" y="256.8185">User:</text><text fill="#333333" font-family="Helvetica" font-size="11" lengthAdjust="spacing" textLength="91" x="132.42" y="267.8185">User initiates route</text><text fill="#333333" font-family="Helvetica" font-size="11" lengthAdjust="spacing" textLength="87" x="134.42" y="278.8185">/Create new route</text></g><!--link *start to draft--><g id="link_*start_draft"><path d="M144.63,203.5583 C164.76,205.5683 209.29,213.1983 228.42,241.8483 C242.02,262.2083 237.43,290.2483 230.49,311.4583 " fill="none" id="*start-to-draft-1" style="stroke:#0000FF;stroke-width:1.0;"/><polygon fill="#0000FF" points="228.88,316.0983,235.6189,308.9159,230.5254,311.3768,228.0645,306.2832,228.88,316.0983" style="stroke:#0000FF;stroke-width:1.0;"/><text fill="#0000FF" font-family="Helvetica" font-size="11" lengthAdjust="spacing" textLength="26" x="279.42" y="251.3185">Peer:</text><text fill="#333333" font-family="Helvetica" font-size="11" lengthAdjust="spacing" textLength="90" x="247.42" y="262.3185">Receive Act:query</text><text fill="#333333" font-family="Helvetica" font-size="11" lengthAdjust="spacing" textLength="110" x="237.42" y="273.3185">[Peer not found locally]</text><text fill="#333333" font-family="Helvetica" font-size="11" lengthAdjust="spacing" textLength="89" x="247.92" y="284.3185">/Create draft route</text></g><!--link *start to draft--><g id="link_*start_draft"><path d="M124.11,202.6783 C100.64,202.9083 43.35,207.1683 18.42,241.8483 C6.49,258.4483 6,271.6083 18.42,287.8483 C34.8,309.2683 100.8,324.1683 152.36,332.8183 " fill="none" id="*start-to-draft-2" style="stroke:#000000;stroke-width:1.0;"/><polygon fill="#000000" points="157.07,333.5983,148.8424,328.1847,152.1369,332.7832,147.5383,336.0777,157.07,333.5983" style="stroke:#000000;stroke-width:1.0;"/><text fill="#000000" font-family="Helvetica" font-size="11" lengthAdjust="spacing" textLength="25" x="54.42" y="256.8185">cron:</text><text fill="#333333" font-family="Helvetica" font-size="11" lengthAdjust="spacing" textLength="95" x="19.42" y="267.8185">Agent initiates route</text><text fill="#333333" font-family="Helvetica" font-size="11" lengthAdjust="spacing" textLength="87" x="23.42" y="278.8185">/Create new route</text></g><!--link draft to pend--><g id="link_draft_pend"><path d="M230.52,368.0483 C244.08,390.8783 267.37,424.4083 296.42,443.8483 C333.76,468.8283 382.63,482.3783 421.46,489.6583 " fill="none" id="draft-to-pend" style="stroke:#FF0000;stroke-width:1.0;"/><polygon fill="#FF0000" points="426.12,490.5083,417.985,484.9566,421.2013,489.6101,416.5479,492.8265,426.12,490.5083" style="stroke:#FF0000;stroke-width:1.0;"/><text fill="#FF0000" font-family="Helvetica" font-size="11" lengthAdjust="spacing" textLength="56" x="341.92" y="412.8185">DB Trigger:</text><text fill="#333333" font-family="Helvetica" font-size="11" lengthAdjust="spacing" textLength="67" x="336.42" y="423.8185">draft detected</text><text fill="#333333" font-family="Helvetica" font-size="11" lengthAdjust="spacing" textLength="145" x="297.42" y="434.8185">/Forward Upstream Act:query</text></g><!--reverse link good to pend--><g id="link_good_pend"><path d="M587.31,353.5083 C537.6,362.3683 475.05,377.2483 459.42,397.8483 C442.69,419.9083 455.86,451.6183 469.01,473.3783 " fill="none" id="good-backto-pend" style="stroke:#0000FF;stroke-width:1.0;"/><polygon fill="#0000FF" points="592.12,352.6583,582.5677,350.2595,587.1939,353.515,583.9385,358.1412,592.12,352.6583" style="stroke:#0000FF;stroke-width:1.0;"/><text fill="#0000FF" font-family="Helvetica" font-size="11" lengthAdjust="spacing" textLength="26" x="490.42" y="407.3185">Peer:</text><text fill="#333333" font-family="Helvetica" font-size="11" lengthAdjust="spacing" textLength="86" x="460.42" y="418.3185">Receive Act:good</text><text fill="#333333" font-family="Helvetica" font-size="11" lengthAdjust="spacing" textLength="72" x="467.42" y="429.3185">[Local request]</text><text fill="#333333" font-family="Helvetica" font-size="11" lengthAdjust="spacing" textLength="56" x="475.42" y="440.3185">/Notify user</text></g><!--reverse link good to pend--><g id="link_good_pend"><path d="M611.91,372.2883 C602.09,380.0383 591.97,388.8083 583.42,397.8483 C566.31,415.9483 568.27,425.4983 551.42,443.8483 C541.8,454.3283 530.14,464.6183 519.36,473.3683 " fill="none" id="good-backto-pend-1" style="stroke:#0000FF;stroke-width:1.0;"/><polygon fill="#0000FF" points="615.81,369.2583,606.2519,371.6335,611.8655,372.331,611.1681,377.9446,615.81,369.2583" style="stroke:#0000FF;stroke-width:1.0;"/><text fill="#0000FF" font-family="Helvetica" font-size="11" lengthAdjust="spacing" textLength="26" x="642.42" y="407.3185">Peer:</text><text fill="#333333" font-family="Helvetica" font-size="11" lengthAdjust="spacing" textLength="86" x="612.42" y="418.3185">Receive Act:good</text><text fill="#333333" font-family="Helvetica" font-size="11" lengthAdjust="spacing" textLength="90" x="610.42" y="429.3185">[External Request]</text><text fill="#333333" font-family="Helvetica" font-size="11" lengthAdjust="spacing" textLength="142" x="584.42" y="440.3185">/Relay Downstream Act:good</text></g><!--link pend to timeout--><g id="link_pend_timeout"><path d="M458.32,524.0383 C445.4,536.8583 431.24,553.6983 423.42,571.8483 C407.08,609.7983 405.7,658.1783 406.97,689.0883 " fill="none" id="pend-to-timeout" style="stroke:#000000;stroke-width:1.0;"/><polygon fill="#000000" points="407.2,693.8983,410.7574,684.7143,406.9567,688.9042,402.7669,685.1036,407.2,693.8983" style="stroke:#000000;stroke-width:1.0;"/><text fill="#000000" font-family="Helvetica" font-size="11" lengthAdjust="spacing" textLength="27" x="454.92" y="586.8185">timer:</text><text fill="#333333" font-family="Helvetica" font-size="11" lengthAdjust="spacing" textLength="88" x="424.42" y="597.8185">Request times out</text></g><!--link pend to none--><g id="link_pend_none"><path d="M497.21,524.0483 C503.31,537.9583 510.99,555.8083 517.42,571.8483 C533.68,612.3983 551.01,659.8183 561.78,689.8383 " fill="none" id="pend-to-none" style="stroke:#0000FF;stroke-width:1.0;"/><polygon fill="#0000FF" points="563.33,694.1783,564.0567,684.3563,561.642,689.4718,556.5264,687.0571,563.33,694.1783" style="stroke:#0000FF;stroke-width:1.0;"/><text fill="#0000FF" font-family="Helvetica" font-size="11" lengthAdjust="spacing" textLength="26" x="560.42" y="581.3185">Peer:</text><text fill="#333333" font-family="Helvetica" font-size="11" lengthAdjust="spacing" textLength="86" x="530.42" y="592.3185">Receive Act:none</text><text fill="#333333" font-family="Helvetica" font-size="11" lengthAdjust="spacing" textLength="82" x="532.42" y="603.3185">[No further relay]</text></g><!--link good to stale--><g id="link_good_stale"><path d="M700.84,368.2083 C713.38,376.2983 725.98,386.2483 735.42,397.8483 C751.91,418.1083 762.03,446.1583 767.82,467.3983 " fill="none" id="good-to-stale" style="stroke:#000000;stroke-width:1.0;"/><polygon fill="#000000" points="769.02,472.0083,770.5964,462.2864,767.7468,467.1731,762.8601,464.3235,769.02,472.0083" style="stroke:#000000;stroke-width:1.0;"/><text fill="#000000" font-family="Helvetica" font-size="11" lengthAdjust="spacing" textLength="27" x="780.42" y="418.3185">timer:</text><text fill="#333333" font-family="Helvetica" font-size="11" lengthAdjust="spacing" textLength="67" x="760.42" y="429.3185">Time runs out</text></g><!--link liftUpdate to good--><g id="link_liftUpdate_good"><path d="M771.36,202.9083 C770.01,204.1383 748.26,224.1583 732.42,241.8483 C711.92,264.7583 690.22,292.0983 674.61,312.3883 " fill="none" id="liftUpdate-to-good" style="stroke:#000000;stroke-width:1.0;"/><polygon fill="#000000" points="671.69,316.1883,680.3471,311.492,674.7379,312.2246,674.0052,306.6154,671.69,316.1883" style="stroke:#000000;stroke-width:1.0;"/><text fill="#000000" font-family="Helvetica" font-size="11" lengthAdjust="spacing" textLength="15" x="796.92" y="256.8185">db:</text><text fill="#333333" font-family="Helvetica" font-size="11" lengthAdjust="spacing" textLength="142" x="733.42" y="267.8185">Lift succeeds using this route</text><text fill="#333333" font-family="Helvetica" font-size="11" lengthAdjust="spacing" textLength="98" x="755.42" y="278.8185">[Refresh timestamp]</text></g><!--link liftUpdate to none--><g id="link_liftUpdate_none"><path d="M867.4657,228.28 C872.3767,232.1792 876.775,236.672 880.42,241.8483 C923.39,302.8583 1088.43,210.0283 859.42,563.8483 C809.1,641.6083 706.17,683.6383 638.25,703.8883 " fill="none" id="liftUpdate-to-none" style="stroke:#000000;stroke-width:1.0;"/><polygon fill="#000000" points="633.65,705.2383,643.4136,706.5315,638.4461,703.8251,641.1525,698.8577,633.65,705.2383" style="stroke:#000000;stroke-width:1.0;"/><text fill="#000000" font-family="Helvetica" font-size="11" lengthAdjust="spacing" textLength="15" x="1003.42" y="418.3185">db:</text><text fill="#333333" font-family="Helvetica" font-size="11" lengthAdjust="spacing" textLength="113" x="954.42" y="429.3185">Lift fails using this route</text></g><!--link tryable to draft--><g id="link_tryable_draft"><path d="M297.1945,684.6888 C297.1083,684.3205 297.0215,683.9498 296.9342,683.5768 C296.7596,682.8307 296.5828,682.0751 296.4038,681.3103 C296.0458,679.7807 295.6792,678.214 295.3042,676.6117 C289.3047,650.9758 281.1769,616.247 272.4288,578.8683 C254.9325,504.1108 234.955,418.7533 224.56,374.3383 " fill="none" id="tryable-to-draft" style="stroke:#0000FF;stroke-width:1.0;"/><polygon fill="#0000FF" points="223.47,369.6983,221.6314,379.374,224.612,374.5661,229.4199,377.5468,223.47,369.6983" style="stroke:#0000FF;stroke-width:1.0;"/><text fill="#0000FF" font-family="Helvetica" font-size="11" lengthAdjust="spacing" textLength="26" x="311.42" y="485.3185">Peer:</text><text fill="#333333" font-family="Helvetica" font-size="11" lengthAdjust="spacing" textLength="93" x="277.92" y="496.3185">Receive Act: query</text><text fill="#333333" font-family="Helvetica" font-size="11" lengthAdjust="spacing" textLength="110" x="269.42" y="507.3185">[Peer not found locally]</text><text fill="#333333" font-family="Helvetica" font-size="11" lengthAdjust="spacing" textLength="89" x="279.92" y="518.3185">/Create draft route</text></g><text fill="#888888" font-family="sans-serif" font-size="10" lengthAdjust="spacing" textLength="142" x="469.715" y="784.5163">Fri Feb 10 23:38:46 MST 2023</text><!--SRC=[dLNVRzCm47xtNt5CbK9Hkhtd0MbYyC8sKDaGOjg3crnMWsC7ssbN8VvtxkoaQRTkWhsqzftz-RjVNrufK-gkGYXjqrXpt7QD5c8ILD3uUcwxW72cV6bNw3Rm9SY0VYgocpUtC9kzXPLLbH1PieDq21K6T8qoMC5Y0v9X5yh8eAm1MyDAwWvz3jBJoJeUMwB3GdY6WE0sSg4HVWk0P37Mu7PprAAfZhyTyVMW6YHw8jjtVe_EplmqTct4dnvNgpfSjnKlH-WxQwljXY-Fxx2hVuSi6WceZv83b4hxGbHErg68EIaWRl98ge3BarF1U8EJruFlqqV1u8EBrpkk-DWX7zwtoc4bE1s3dzUxJ_OPEVJgS3th4_FC6TewXRw0HjwBCMy5dDCQV5UMwFr9JJdegDnhfJMqpguKjL1ZoTAris1dCTMSpCwBlgW5NCWDEAGj7VB1eMpWLyTzLLi71jUW3AsQr2oriqra1i76_n4djYMrc_QM22r-O1dua6tvejHK8eqHWsg23hGrTocwX1p1Xd869urNqUuwJN6BsDjTUpDf4TqjDJaP2fZ4Ww-ZCPzZYMg5S5g68aQGPsbKLDDQxnMnpEXGgpVnIApKz8N0dybE2UfCHO6KKklD7ZGtoLGax9j9vnDotvi3DflpQ_gX35EiSLWT4ywpB7z7XU11e_n7stG06sW-07kMgB7X8TaUFwBilV08kdJMvATtQCA_yKmZo5Ih1HDDCpVmh1PvyhCabO4wcq0-MBUMheBheG6t0H0Stz-lK1hL9oEF4thEWL9V4ueF-QKDggO6fsHFNmZu_fwwbljutcFEKTFadD7Sxf1EXKyl4F1s-7jitZDsH8XU3-Id752WMResqagoyYIjg3G7MQJEVWdSfOMwSu7Kdt97o4IBGuh1z3Au5yeLIu7hp1Z6ZgZF7gQMYZ_g5LRqHV2AL20irT1HSwmT-cLAJP1D-mXmBue1a8NlCHgH7pvT_p4uIVtomuDpS6wolioHtrRB-mUkMBVp2taVHLRnxA0ibrZnlP5TcfKzxQ7WpbWp4Up2sxXmM5fNvLzPdgE0yijJyHS0]--></g></svg>