<?xml version="1.0" encoding="UTF-8" standalone="no"?><svg xmlns="http://www.w3.org/2000/svg" xmlns:xlink="http://www.w3.org/1999/xlink" contentStyleType="text/css" height="874px" preserveAspectRatio="none" style="width:1113px;height:874px;background:#FFFFFF;" version="1.1" viewBox="0 0 1113 874" width="1113px" zoomAndPan="magnify"><defs/><g><text fill="#000000" font-family="sans-serif" font-size="14" font-weight="bold" lengthAdjust="spacing" textLength="143" x="478.25" y="23.5352">Tally State Diagram</text><!--cluster working--><g id="cluster_working"><path d="M663,370.4883 L1010,370.4883 A12.5,12.5 0 0 1 1022.5,382.9883 L1022.5,386.4883 L650.5,386.4883 L650.5,382.9883 A12.5,12.5 0 0 1 663,370.4883 " fill="#E8E8EA" style="stroke:#E8E8EA;stroke-width:1.0;"/><rect fill="none" height="288.5" rx="12.5" ry="12.5" style="stroke:#202024;stroke-width:0.5;" width="372" x="650.5" y="370.4883"/><line style="stroke:#202024;stroke-width:0.5;" x1="650.5" x2="1022.5" y1="386.4883" y2="386.4883"/><text fill="#000033" font-family="Helvetica" font-size="11" lengthAdjust="spacing" textLength="38" x="817.5" y="382.9585">working</text></g><!--cluster tradable--><g id="cluster_tradable"><path d="M252,725.9883 L694,725.9883 A12.5,12.5 0 0 1 706.5,738.4883 L706.5,741.9883 L239.5,741.9883 L239.5,738.4883 A12.5,12.5 0 0 1 252,725.9883 " fill="#E8E8EA" style="stroke:#E8E8EA;stroke-width:1.0;"/><rect fill="none" height="124" rx="12.5" ry="12.5" style="stroke:#202024;stroke-width:0.5;" width="467" x="239.5" y="725.9883"/><line style="stroke:#202024;stroke-width:0.5;" x1="239.5" x2="706.5" y1="741.9883" y2="741.9883"/><text fill="#000033" font-family="Helvetica" font-size="11" lengthAdjust="spacing" textLength="39" x="453.5" y="738.4585">tradable</text></g><g id="working.pDraft"><rect fill="#E8E8EA" height="64" rx="12.5" ry="12.5" style="stroke:#202024;stroke-width:0.5;" width="166" x="741.5" y="578.9883"/><line style="stroke:#202024;stroke-width:0.5;" x1="741.5" x2="907.5" y1="599.9883" y2="599.9883"/><text fill="#000033" font-family="Helvetica" font-size="11" lengthAdjust="spacing" textLength="32" x="808.5" y="592.4585">P.draft</text><text fill="#000033" font-family="Helvetica" font-size="11" lengthAdjust="spacing" textLength="107" x="746.5" y="613.4585">Status: draft, Req: null</text><text fill="#000033" font-family="Helvetica" font-size="11" lengthAdjust="spacing" textLength="131" x="746.5" y="624.4585">Contains partner certificate</text><text fill="#000033" font-family="Helvetica" font-size="11" lengthAdjust="spacing" textLength="146" x="746.5" y="635.4585">User: can modify, delete, offer</text></g><g id="working.draft"><rect fill="#E8E8EA" height="53" rx="12.5" ry="12.5" style="stroke:#202024;stroke-width:0.5;" width="169" x="837" y="414.4883"/><line style="stroke:#202024;stroke-width:0.5;" x1="837" x2="1006" y1="435.4883" y2="435.4883"/><text fill="#000033" font-family="Helvetica" font-size="11" lengthAdjust="spacing" textLength="22" x="910.5" y="427.9585">draft</text><text fill="#000033" font-family="Helvetica" font-size="11" lengthAdjust="spacing" textLength="107" x="842" y="448.9585">Status: draft, Req: null</text><text fill="#000033" font-family="Helvetica" font-size="11" lengthAdjust="spacing" textLength="149" x="842" y="459.9585">User: can modify, delete, invite</text></g><g id="working.void"><rect fill="#E8E8EA" height="53" rx="12.5" ry="12.5" style="stroke:#202024;stroke-width:0.5;" width="135" x="667" y="414.4883"/><line style="stroke:#202024;stroke-width:0.5;" x1="667" x2="802" y1="435.4883" y2="435.4883"/><text fill="#000033" font-family="Helvetica" font-size="11" lengthAdjust="spacing" textLength="20" x="724.5" y="427.9585">void</text><text fill="#000033" font-family="Helvetica" font-size="11" lengthAdjust="spacing" textLength="105" x="672" y="448.9585">Status: void, Req: null</text><text fill="#000033" font-family="Helvetica" font-size="11" lengthAdjust="spacing" textLength="115" x="672" y="459.9585">User: can modify, clone</text></g><g id="tradable.open"><rect fill="#E8E8EA" height="64" rx="12.5" ry="12.5" style="stroke:#202024;stroke-width:0.5;" width="149" x="256" y="769.9883"/><line style="stroke:#202024;stroke-width:0.5;" x1="256" x2="405" y1="790.9883" y2="790.9883"/><text fill="#000033" font-family="Helvetica" font-size="11" lengthAdjust="spacing" textLength="24" x="318.5" y="783.4585">open</text><text fill="#000033" font-family="Helvetica" font-size="11" lengthAdjust="spacing" textLength="109" x="261" y="804.4585">Status: open, Req: null</text><text fill="#000033" font-family="Helvetica" font-size="11" lengthAdjust="spacing" textLength="129" x="261" y="815.4585">Must have both signatures</text><text fill="#000033" font-family="Helvetica" font-size="11" lengthAdjust="spacing" textLength="117" x="261" y="826.4585">User: can request close</text></g><g id="tradable.cOpen"><rect fill="#E8E8EA" height="64" rx="12.5" ry="12.5" style="stroke:#202024;stroke-width:0.5;" width="148" x="542.5" y="769.9883"/><line style="stroke:#202024;stroke-width:0.5;" x1="542.5" x2="690.5" y1="790.9883" y2="790.9883"/><text fill="#000033" font-family="Helvetica" font-size="11" lengthAdjust="spacing" textLength="35" x="599" y="783.4585">C.open</text><text fill="#000033" font-family="Helvetica" font-size="11" lengthAdjust="spacing" textLength="109" x="547.5" y="804.4585">Status: open, Req: null</text><text fill="#000033" font-family="Helvetica" font-size="11" lengthAdjust="spacing" textLength="96" x="547.5" y="815.4585">Closing chit present</text><text fill="#000033" font-family="Helvetica" font-size="11" lengthAdjust="spacing" textLength="128" x="547.5" y="826.4585">Can trade, waiting for zero</text></g><g id="offerVoid"><rect fill="#E8E8EA" height="53" rx="12.5" ry="12.5" style="stroke:#202024;stroke-width:0.5;" width="131" x="503" y="584.4883"/><line style="stroke:#202024;stroke-width:0.5;" x1="503" x2="634" y1="605.4883" y2="605.4883"/><text fill="#000033" font-family="Helvetica" font-size="11" lengthAdjust="spacing" textLength="45" x="546" y="597.9585">offer.void</text><text fill="#000033" font-family="Helvetica" font-size="11" lengthAdjust="spacing" textLength="111" x="508" y="618.9585">Status: offer, Req: void</text><text fill="#000033" font-family="Helvetica" font-size="11" lengthAdjust="spacing" textLength="103" x="508" y="629.9585">Agent: Action needed</text></g><g id="offerDraft"><rect fill="#E8E8EA" height="53" rx="12.5" ry="12.5" style="stroke:#202024;stroke-width:0.5;" width="133" x="197" y="584.4883"/><line style="stroke:#202024;stroke-width:0.5;" x1="197" x2="330" y1="605.4883" y2="605.4883"/><text fill="#000033" font-family="Helvetica" font-size="11" lengthAdjust="spacing" textLength="47" x="240" y="597.9585">offer.draft</text><text fill="#000033" font-family="Helvetica" font-size="11" lengthAdjust="spacing" textLength="113" x="202" y="618.9585">Status: offer, Req: draft</text><text fill="#000033" font-family="Helvetica" font-size="11" lengthAdjust="spacing" textLength="103" x="202" y="629.9585">Agent: Action needed</text></g><g id="offerOpen"><rect fill="#E8E8EA" height="53" rx="12.5" ry="12.5" style="stroke:#202024;stroke-width:0.5;" width="135" x="7" y="584.4883"/><line style="stroke:#202024;stroke-width:0.5;" x1="7" x2="142" y1="605.4883" y2="605.4883"/><text fill="#000033" font-family="Helvetica" font-size="11" lengthAdjust="spacing" textLength="49" x="50" y="597.9585">offer.open</text><text fill="#000033" font-family="Helvetica" font-size="11" lengthAdjust="spacing" textLength="115" x="12" y="618.9585">Status: offer, Req: open</text><text fill="#000033" font-family="Helvetica" font-size="11" lengthAdjust="spacing" textLength="103" x="12" y="629.9585">Agent: Action needed</text></g><g id="draftOffer"><rect fill="#E8E8EA" height="64" rx="12.5" ry="12.5" style="stroke:#202024;stroke-width:0.5;" width="136" x="783.5" y="44.4883"/><line style="stroke:#202024;stroke-width:0.5;" x1="783.5" x2="919.5" y1="65.4883" y2="65.4883"/><text fill="#000033" font-family="Helvetica" font-size="11" lengthAdjust="spacing" textLength="47" x="828" y="57.9585">draft.offer</text><text fill="#000033" font-family="Helvetica" font-size="11" lengthAdjust="spacing" textLength="113" x="788.5" y="78.9585">Status: draft, Req: offer</text><text fill="#000033" font-family="Helvetica" font-size="11" lengthAdjust="spacing" textLength="116" x="788.5" y="89.9585">Has only user signature</text><text fill="#000033" font-family="Helvetica" font-size="11" lengthAdjust="spacing" textLength="103" x="788.5" y="100.9585">Agent: Action needed</text></g><g id="pOffer"><rect fill="#E8E8EA" height="64" rx="12.5" ry="12.5" style="stroke:#202024;stroke-width:0.5;" width="177" x="94" y="408.9883"/><line style="stroke:#202024;stroke-width:0.5;" x1="94" x2="271" y1="429.9883" y2="429.9883"/><text fill="#000033" font-family="Helvetica" font-size="11" lengthAdjust="spacing" textLength="32" x="166.5" y="422.4585">P.offer</text><text fill="#000033" font-family="Helvetica" font-size="11" lengthAdjust="spacing" textLength="107" x="99" y="443.4585">Status: offer, Req: null</text><text fill="#000033" font-family="Helvetica" font-size="11" lengthAdjust="spacing" textLength="94" x="99" y="454.4585">Peer signature only</text><text fill="#000033" font-family="Helvetica" font-size="11" lengthAdjust="spacing" textLength="157" x="99" y="465.4585">User: can accept, refuse, revise</text></g><g id="hOffer"><rect fill="#E8E8EA" height="64" rx="12.5" ry="12.5" style="stroke:#202024;stroke-width:0.5;" width="127" x="507" y="203.4883"/><line style="stroke:#202024;stroke-width:0.5;" x1="507" x2="634" y1="224.4883" y2="224.4883"/><text fill="#000033" font-family="Helvetica" font-size="11" lengthAdjust="spacing" textLength="33" x="554" y="216.9585">H.offer</text><text fill="#000033" font-family="Helvetica" font-size="11" lengthAdjust="spacing" textLength="107" x="512" y="237.9585">Status: offer, Req: null</text><text fill="#000033" font-family="Helvetica" font-size="11" lengthAdjust="spacing" textLength="95" x="512" y="248.9585">User signature only</text><text fill="#000033" font-family="Helvetica" font-size="11" lengthAdjust="spacing" textLength="93" x="512" y="259.9585">User waits for peer</text></g><g id="close"><rect fill="#E8E8EA" height="75" rx="12.5" ry="12.5" style="stroke:#202024;stroke-width:0.5;" width="131" x="819" y="764.4883"/><line style="stroke:#202024;stroke-width:0.5;" x1="819" x2="950" y1="785.4883" y2="785.4883"/><text fill="#000033" font-family="Helvetica" font-size="11" lengthAdjust="spacing" textLength="26" x="871.5" y="777.9585">close</text><text fill="#000033" font-family="Helvetica" font-size="11" lengthAdjust="spacing" textLength="111" x="824" y="798.9585">Status: close, Req: null</text><text fill="#000033" font-family="Helvetica" font-size="11" lengthAdjust="spacing" textLength="87" x="824" y="809.9585">Non-zero balance</text><text fill="#000033" font-family="Helvetica" font-size="11" lengthAdjust="spacing" textLength="111" x="824" y="820.9585">Status: close, Req: null</text><text fill="#000033" font-family="Helvetica" font-size="11" lengthAdjust="spacing" textLength="75" x="824" y="831.9585">Balance is zero</text></g><g id="P"><rect fill="#E8E8EA" height="50" rx="12.5" ry="12.5" style="stroke:#202024;stroke-width:0.5;" width="50" x="157.5" y="210.4883"/><line style="stroke:#202024;stroke-width:0.5;" x1="157.5" x2="207.5" y1="231.4883" y2="231.4883"/><text fill="#000033" font-family="Helvetica" font-size="11" lengthAdjust="spacing" textLength="7" x="179" y="223.9585">P</text><text fill="#000033" font-family="Helvetica" font-size="11" lengthAdjust="spacing" textLength="26" x="162.5" y="244.9585">Entry</text></g><g id="H"><rect fill="#E8E8EA" height="50" rx="12.5" ry="12.5" style="stroke:#202024;stroke-width:0.5;" width="50" x="896.5" y="210.4883"/><line style="stroke:#202024;stroke-width:0.5;" x1="896.5" x2="946.5" y1="231.4883" y2="231.4883"/><text fill="#000033" font-family="Helvetica" font-size="11" lengthAdjust="spacing" textLength="8" x="917.5" y="223.9585">H</text><text fill="#000033" font-family="Helvetica" font-size="11" lengthAdjust="spacing" textLength="26" x="901.5" y="244.9585">Entry</text></g><!--link H to draft--><g id="link_H_draft"><path d="M921.5,260.6283 C921.5,297.3083 921.5,367.1083 921.5,407.9783 " fill="none" id="H-to-draft" style="stroke:#008000;stroke-width:1.0;"/><polygon fill="#008000" points="921.5,412.7683,925.5,403.7683,921.5,407.7683,917.5,403.7683,921.5,412.7683" style="stroke:#008000;stroke-width:1.0;"/><text fill="#008000" font-family="Helvetica" font-size="11" lengthAdjust="spacing" textLength="27" x="951" y="317.9585">User:</text><text fill="#333333" font-family="Helvetica" font-size="11" lengthAdjust="spacing" textLength="84" x="922.5" y="328.9585">User (or system)</text><text fill="#333333" font-family="Helvetica" font-size="11" lengthAdjust="spacing" textLength="73" x="928" y="339.9585">drafts new tally</text></g><!--link P to pOffer--><g id="link_P_pOffer"><path d="M182.5,260.6283 C182.5,295.6083 182.5,360.7083 182.5,402.1183 " fill="none" id="P-to-pOffer" style="stroke:#0000FF;stroke-width:1.0;"/><polygon fill="#0000FF" points="182.5,407.0383,186.5,398.0383,182.5,402.0383,178.5,398.0383,182.5,407.0383" style="stroke:#0000FF;stroke-width:1.0;"/><text fill="#0000FF" font-family="Helvetica" font-size="11" lengthAdjust="spacing" textLength="26" x="226" y="306.9585">Peer:</text><text fill="#333333" font-family="Helvetica" font-size="11" lengthAdjust="spacing" textLength="111" x="183.5" y="317.9585">Receive proposed tally</text><text fill="#333333" font-family="Helvetica" font-size="11" lengthAdjust="spacing" textLength="76" x="201" y="328.9585">[valid signature]</text><text fill="#333333" font-family="Helvetica" font-size="11" lengthAdjust="spacing" textLength="47" x="215.5" y="339.9585">/Act: offer</text><text fill="#333333" font-family="Helvetica" font-size="11" lengthAdjust="spacing" textLength="53" x="212.5" y="350.9585">Notify user</text></g><!--link draft to pDraft--><g id="link_draft_pDraft"><path d="M906.56,467.8683 C890.28,496.0583 864.11,541.3783 845.71,573.2483 " fill="none" id="draft-to-pDraft" style="stroke:#0000FF;stroke-width:1.0;"/><polygon fill="#0000FF" points="843.36,577.3283,851.325,571.5353,845.8607,572.9985,844.3974,567.5342,843.36,577.3283" style="stroke:#0000FF;stroke-width:1.0;"/><text fill="#0000FF" font-family="Helvetica" font-size="11" lengthAdjust="spacing" textLength="26" x="926" y="512.4585">Peer:</text><text fill="#333333" font-family="Helvetica" font-size="11" lengthAdjust="spacing" textLength="107" x="885.5" y="523.4585">Receive subject ticket</text><text fill="#333333" font-family="Helvetica" font-size="11" lengthAdjust="spacing" textLength="50" x="914" y="534.4585">[valid cert]</text><text fill="#333333" font-family="Helvetica" font-size="11" lengthAdjust="spacing" textLength="56" x="911" y="545.4585">/Notify user</text></g><!--link pDraft to draftOffer--><g id="link_pDraft_draftOffer"><path d="M907.96,598.2583 C941.04,589.6683 976.97,574.7783 1001.5,548.9883 C1025.73,523.5083 1018.56,507.8083 1023.5,472.9883 C1040.72,351.5883 1035.15,303.6983 964.5,203.4883 C941.55,170.9283 911.22,137.5283 887.76,113.2983 " fill="none" id="pDraft-to-draftOffer" style="stroke:#008000;stroke-width:1.0;"/><polygon fill="#008000" points="884.52,109.9683,887.9252,119.2097,888.0052,113.5535,893.6615,113.6334,884.52,109.9683" style="stroke:#008000;stroke-width:1.0;"/><text fill="#008000" font-family="Helvetica" font-size="11" lengthAdjust="spacing" textLength="27" x="1054.5" y="312.4585">User:</text><text fill="#333333" font-family="Helvetica" font-size="11" lengthAdjust="spacing" textLength="75" x="1030.5" y="323.4585">User signs tally</text><text fill="#333333" font-family="Helvetica" font-size="11" lengthAdjust="spacing" textLength="73" x="1031.5" y="334.4585">[valid sig/certs]</text><text fill="#333333" font-family="Helvetica" font-size="11" lengthAdjust="spacing" textLength="69" x="1033.5" y="345.4585">/Request offer</text></g><!--link pOffer to offerVoid--><g id="link_pOffer_offerVoid"><path d="M220.54,473.3983 C230.94,482.5683 241.96,492.8583 251.5,502.9883 C269.3,521.8883 265.51,535.1883 287.5,548.9883 C350.85,588.7283 436.27,602.8483 496.24,607.7183 " fill="none" id="pOffer-to-offerVoid" style="stroke:#008000;stroke-width:1.0;"/><polygon fill="#008000" points="501.19,608.0983,492.5253,603.416,496.2049,607.7126,491.9083,611.3922,501.19,608.0983" style="stroke:#008000;stroke-width:1.0;"/><text fill="#008000" font-family="Helvetica" font-size="11" lengthAdjust="spacing" textLength="27" x="308.5" y="517.9585">User:</text><text fill="#333333" font-family="Helvetica" font-size="11" lengthAdjust="spacing" textLength="63" x="290.5" y="528.9585">Refuses tally</text><text fill="#333333" font-family="Helvetica" font-size="11" lengthAdjust="spacing" textLength="67" x="288.5" y="539.9585">/Request void</text></g><!--link offerVoid to void--><g id="link_offerVoid_void"><path d="M602.33,584.1283 C615.32,573.6783 630.01,561.2183 642.5,548.9883 C667.23,524.7683 692.69,494.6783 710.54,472.5883 " fill="none" id="offerVoid-to-void" style="stroke:#FF0000;stroke-width:1.0;"/><polygon fill="#FF0000" points="713.51,468.8983,704.7582,473.4156,710.3813,472.7984,710.9985,478.4215,713.51,468.8983" style="stroke:#FF0000;stroke-width:1.0;"/><text fill="#FF0000" font-family="Helvetica" font-size="11" lengthAdjust="spacing" textLength="31" x="714" y="517.9585">Agent:</text><text fill="#333333" font-family="Helvetica" font-size="11" lengthAdjust="spacing" textLength="88" x="685.5" y="528.9585">Req:void detected</text><text fill="#333333" font-family="Helvetica" font-size="11" lengthAdjust="spacing" textLength="88" x="685.5" y="539.9585">/Transmit Act:void</text></g><!--link pOffer to offerDraft--><g id="link_pOffer_offerDraft"><path d="M169.36,473.3283 C162.13,495.6983 156.91,525.7983 169.5,548.9883 C176.41,561.6983 187.23,572.1783 199.12,580.6383 " fill="none" id="pOffer-to-offerDraft" style="stroke:#008000;stroke-width:1.0;"/><polygon fill="#008000" points="203.02,583.2983,197.8364,574.9239,198.8886,580.482,193.3304,581.5342,203.02,583.2983" style="stroke:#008000;stroke-width:1.0;"/><text fill="#008000" font-family="Helvetica" font-size="11" lengthAdjust="spacing" textLength="27" x="195" y="512.4585">User:</text><text fill="#333333" font-family="Helvetica" font-size="11" lengthAdjust="spacing" textLength="71" x="173" y="523.4585">Will revise tally</text><text fill="#333333" font-family="Helvetica" font-size="11" lengthAdjust="spacing" textLength="76" x="170.5" y="534.4585">[valid signature]</text><text fill="#333333" font-family="Helvetica" font-size="11" lengthAdjust="spacing" textLength="69" x="174" y="545.4585">/Request draft</text></g><!--link offerDraft to pDraft--><g id="link_offerDraft_pDraft"><path d="M283.3,584.1283 C301.54,561.8283 330.84,531.7283 364.5,518.6583 C430.89,492.8783 621.22,545.3983 735.19,581.2783 " fill="none" id="offerDraft-to-pDraft" style="stroke:#FF0000;stroke-width:1.0;"/><polygon fill="#FF0000" points="739.79,582.7383,732.4216,576.2032,735.0242,581.2258,730.0017,583.8284,739.79,582.7383" style="stroke:#FF0000;stroke-width:1.0;"/><text fill="#FF0000" font-family="Helvetica" font-size="11" lengthAdjust="spacing" textLength="31" x="395" y="517.9585">Agent:</text><text fill="#333333" font-family="Helvetica" font-size="11" lengthAdjust="spacing" textLength="90" x="365.5" y="528.9585">Req:draft detected</text><text fill="#333333" font-family="Helvetica" font-size="11" lengthAdjust="spacing" textLength="90" x="365.5" y="539.9585">/Transmit Act:draft</text></g><!--link pOffer to offerOpen--><g id="link_pOffer_offerOpen"><path d="M104.18,473.3583 C92.74,481.3183 82.48,491.0983 75.5,502.9883 C62.26,525.5383 63.28,555.6383 66.88,578.1683 " fill="none" id="pOffer-to-offerOpen" style="stroke:#008000;stroke-width:1.0;"/><polygon fill="#008000" points="67.69,582.8183,70.0888,573.266,66.8333,577.8922,62.2071,574.6367,67.69,582.8183" style="stroke:#008000;stroke-width:1.0;"/><text fill="#008000" font-family="Helvetica" font-size="11" lengthAdjust="spacing" textLength="27" x="101" y="512.4585">User:</text><text fill="#333333" font-family="Helvetica" font-size="11" lengthAdjust="spacing" textLength="62" x="83.5" y="523.4585">Accepts tally</text><text fill="#333333" font-family="Helvetica" font-size="11" lengthAdjust="spacing" textLength="76" x="76.5" y="534.4585">[valid signature]</text><text fill="#333333" font-family="Helvetica" font-size="11" lengthAdjust="spacing" textLength="71" x="79" y="545.4585">/Request open</text></g><!--link offerOpen to open--><g id="link_offerOpen_open"><path d="M109.56,637.8683 C154.57,671.1083 232.85,728.8983 283.13,766.0183 " fill="none" id="offerOpen-to-open" style="stroke:#FF0000;stroke-width:1.0;"/><polygon fill="#FF0000" points="287,768.8683,282.1314,760.3069,282.9762,765.9003,277.3827,766.7451,287,768.8683" style="stroke:#FF0000;stroke-width:1.0;"/><text fill="#FF0000" font-family="Helvetica" font-size="11" lengthAdjust="spacing" textLength="31" x="236" y="684.4585">Agent:</text><text fill="#333333" font-family="Helvetica" font-size="11" lengthAdjust="spacing" textLength="96" x="203.5" y="695.4585">Req:agree detected</text><text fill="#333333" font-family="Helvetica" font-size="11" lengthAdjust="spacing" textLength="92" x="205.5" y="706.4585">/Transmit Act:open</text></g><!--link draftOffer to hOffer--><g id="link_draftOffer_hOffer"><path d="M795.31,108.8783 C748.12,135.2483 680.79,172.8683 632.13,200.0483 " fill="none" id="draftOffer-to-hOffer" style="stroke:#FF0000;stroke-width:1.0;"/><polygon fill="#FF0000" points="627.91,202.4083,637.7165,201.496,632.2713,199.9631,633.8042,194.5179,627.91,202.4083" style="stroke:#FF0000;stroke-width:1.0;"/><text fill="#FF0000" font-family="Helvetica" font-size="11" lengthAdjust="spacing" textLength="31" x="766" y="147.9585">Agent:</text><text fill="#333333" font-family="Helvetica" font-size="11" lengthAdjust="spacing" textLength="90" x="736.5" y="158.9585">Req:offer detected</text><text fill="#333333" font-family="Helvetica" font-size="11" lengthAdjust="spacing" textLength="90" x="736.5" y="169.9585">/Transmit Act:offer</text></g><!--link hOffer to open--><g id="link_hOffer_open"><path d="M560.64,267.5683 C542.33,324.2983 500.99,448.0583 457.5,548.9883 C423.78,627.2383 377.25,715.4883 350.89,764.0283 " fill="none" id="hOffer-to-open" style="stroke:#0000FF;stroke-width:1.0;"/><polygon fill="#0000FF" points="348.5,768.4183,356.3062,762.4131,350.8833,764.0228,349.2735,758.5998,348.5,768.4183" style="stroke:#0000FF;stroke-width:1.0;"/><text fill="#0000FF" font-family="Helvetica" font-size="11" lengthAdjust="spacing" textLength="26" x="531.5" y="512.4585">Peer:</text><text fill="#333333" font-family="Helvetica" font-size="11" lengthAdjust="spacing" textLength="125" x="482" y="523.4585">Receive peer acceptance</text><text fill="#333333" font-family="Helvetica" font-size="11" lengthAdjust="spacing" textLength="49" x="520" y="534.4585">/Act: open</text><text fill="#333333" font-family="Helvetica" font-size="11" lengthAdjust="spacing" textLength="136" x="476.5" y="545.4585">Also transmit ack /Act: open</text></g><!--link hOffer to void--><g id="link_hOffer_void"><path d="M595.77,267.8383 C626.72,306.2483 678.84,370.9183 709.62,409.1083 " fill="none" id="hOffer-to-void" style="stroke:#0000FF;stroke-width:1.0;"/><polygon fill="#0000FF" points="712.68,412.9183,710.1473,403.4006,709.5426,409.0251,703.9182,408.4204,712.68,412.9183" style="stroke:#0000FF;stroke-width:1.0;"/><text fill="#0000FF" font-family="Helvetica" font-size="11" lengthAdjust="spacing" textLength="26" x="701.5" y="317.9585">Peer:</text><text fill="#333333" font-family="Helvetica" font-size="11" lengthAdjust="spacing" textLength="101" x="664" y="328.9585">Receive peer refusal</text><text fill="#333333" font-family="Helvetica" font-size="11" lengthAdjust="spacing" textLength="104" x="662.5" y="339.9585">/Act: void; Notify user</text></g><!--link hOffer to pOffer--><g id="link_hOffer_pOffer"><path d="M506.81,246.8783 C463.92,255.8083 407.23,271.4783 362.5,297.4883 C330.98,315.8183 331.58,331.2283 303.5,354.4883 C282.13,372.1783 257.29,390.1483 235.7,405.0083 " fill="none" id="hOffer-to-pOffer" style="stroke:#0000FF;stroke-width:1.0;"/><polygon fill="#0000FF" points="231.82,407.6583,241.5067,405.8786,235.9469,404.8354,236.9901,399.2755,231.82,407.6583" style="stroke:#0000FF;stroke-width:1.0;"/><text fill="#0000FF" font-family="Helvetica" font-size="11" lengthAdjust="spacing" textLength="26" x="403.5" y="317.9585">Peer:</text><text fill="#333333" font-family="Helvetica" font-size="11" lengthAdjust="spacing" textLength="105" x="364" y="328.9585">Receive modified tally</text><text fill="#333333" font-family="Helvetica" font-size="11" lengthAdjust="spacing" textLength="106" x="363.5" y="339.9585">/Act: offer; Notify user</text></g><!--link void to pOffer--><g id="link_void_pOffer"><path d="M666.58,440.9883 C568.96,440.9883 388.58,440.9883 277.71,440.9883 " fill="none" id="void-to-pOffer" style="stroke:#0000FF;stroke-width:1.0;"/><polygon fill="#0000FF" points="273.01,440.9883,282.01,444.9883,278.01,440.9883,282.01,436.9883,273.01,440.9883" style="stroke:#0000FF;stroke-width:1.0;"/><text fill="#0000FF" font-family="Helvetica" font-size="11" lengthAdjust="spacing" textLength="26" x="456" y="412.4585">Peer:</text><text fill="#333333" font-family="Helvetica" font-size="11" lengthAdjust="spacing" textLength="105" x="416.5" y="423.4585">Receive modified tally</text><text fill="#333333" font-family="Helvetica" font-size="11" lengthAdjust="spacing" textLength="106" x="416" y="434.4585">/Act: offer; Notify user</text></g><!--link open to cOpen--><g id="link_open_cOpen"><path d="M405.27,801.9883 C445.33,801.9883 494.72,801.9883 535.67,801.9883 " fill="none" id="open-to-cOpen" style="stroke:#008000;stroke-width:1.0;"/><polygon fill="#008000" points="540.65,801.9883,531.65,797.9883,535.65,801.9883,531.65,805.9883,540.65,801.9883" style="stroke:#008000;stroke-width:1.0;"/><text fill="#008000" font-family="Helvetica" font-size="11" lengthAdjust="spacing" textLength="27" x="460.25" y="773.4585">User:</text><text fill="#333333" font-family="Helvetica" font-size="11" lengthAdjust="spacing" textLength="101" x="423.25" y="784.4585">Issues close/call chit</text><text fill="#333333" font-family="Helvetica" font-size="11" lengthAdjust="spacing" textLength="76" x="435.75" y="795.4585">/Set closing flag</text></g><!--link cOpen to close--><g id="link_cOpen_close"><path d="M690.8,801.9883 C728.72,801.9883 774.67,801.9883 812.3,801.9883 " fill="none" id="cOpen-to-close" style="stroke:#000000;stroke-width:1.0;"/><polygon fill="#000000" points="817.23,801.9883,808.23,797.9883,812.23,801.9883,808.23,805.9883,817.23,801.9883" style="stroke:#000000;stroke-width:1.0;"/><text fill="#000000" font-family="Helvetica" font-size="11" lengthAdjust="spacing" textLength="39" x="735.25" y="773.4585">Internal:</text><text fill="#333333" font-family="Helvetica" font-size="11" lengthAdjust="spacing" textLength="90" x="709.75" y="784.4585">(No explicit action)</text><text fill="#333333" font-family="Helvetica" font-size="11" lengthAdjust="spacing" textLength="92" x="708.75" y="795.4585">[Tally sum hit zero]</text></g><text fill="#888888" font-family="sans-serif" font-size="10" lengthAdjust="spacing" textLength="150" x="474.75" y="864.6563">Tue Oct 24 13:31:22 MDT 2023</text><!--SRC=[dLP1J-ms4BxdLxW82I85k6-bIfIjn3iK4E-rFPGUlCxiniLhvzdEKbhrlxyPsqcSi06r9zQPyJVVp7mpvZkfXUfgOCBizqPVjjrU5SMfbrx1-HUkr2lxxBa7jfPyP_c-B5mudfZj5kpbmSZwX777ml5NF4tjjULRFpgiwJZrC2teqU4UJxqztBqCduD3ED_JCNcy6FiizOxzKp2MxZna4TiORR2Dbdfg69AW7yM_2TrRNlEDWXn-94iyXyytOnOYPD1Z89-HVvjpFxdDBCt48fHn4C7eLr6SnGxKuBbKhdXWA_QJzlQrk1r-3UN7B-JTkLKiQCKUuUigPfOxNUz0U_mZl3IQQO0Qwg8OcxI04oitSNi7YMgn01GAc3iTXwbdNC8vGUXEgS7X5mTsnGJNR6zgkNsji5mAF5HCweFqMCLs_H7Mu75ZD9PQOykuzHei4s2zt4g1RHYzbaE6l1BvqDg5gD5ludPBuj8uTHsYCoTt6gzPc3eThzLXsduwvjabyrlMg39DzPappTiLwzDxF43EBV0TZMC0BWIqcAk5BMP3Vm-IzDny6Ad9mUQHfiONBhrZMsDP2rHqCzCS7dFaPFwvSvur_01iOtmpHd2zmvY5XQyTe7SQHd7_Ve3UVeFkj9n48prh4HbRDXeHb_OB5eNuanzby3TOWn4eK1OXd2SXaiETqHTqXMsuubh0VxZwOxp1f4j1quv1Kjh982lRAN0ht34Nlv-I6F-u-87rqtOQ_Cx3zogquHpfkrVdOLy-wU3cK9WlpDCJKkBEGXHg4A4CKkbXo50zWW293McjQP5a7QzM1wvGjqE3AXHz4ioJlZCubN5KohG9yZ3h6Tj96DTj_WJXcPVY6NmAGtDUJL0JoBm6ymp6GX1JD-T-HS0EOqSf1VhbC78PUBwY9zYFOOPwO7Ps5heQq6Ymosov8roz8R335AVU485L-8fl2IOFTOL0NyYyHvLIQIFO4hFriVx_9fLAixtGiu5gg5sPlny3sJVTIdHZMnVv9iGbmcdU9dolmrfo7t6bmIxpXsoWQgQWYIZ-UmImJ3J1PUePy9gvcX9Y23qYpl2IXfe1hDVzZ5vGFHkcYrPtNCoq0AAIuapXjITzhPo9Mu02SV7ChWRhqMWpaKr7cOA5xSzL5eckVCycO_OMz_qb4TukEIo9B0kwDGC_fAduNz3l8iVNuiBANUD7vObZgcEVd4DTnPLy9H0xF0sH-cU8xqju21JVbUcbYCW4cVPsWloaFLYDHJqxlpCC_cgL5A5TjBbBL5xunzrrUqQl3stuilW6]--></g></svg>