<?xml version="1.0" encoding="UTF-8" standalone="no"?><svg xmlns="http://www.w3.org/2000/svg" xmlns:xlink="http://www.w3.org/1999/xlink" contentStyleType="text/css" height="791px" preserveAspectRatio="none" style="width:881px;height:791px;background:#FFFFFF;" version="1.1" viewBox="0 0 881 791" width="881px" zoomAndPan="magnify"><defs/><g><text fill="#000000" font-family="sans-serif" font-size="14" font-weight="bold" lengthAdjust="spacing" textLength="74" x="396.5" y="23.5352">Lift States</text><!--cluster resolvable--><g id="cluster_resolvable"><path d="M160.5,504.4883 L711.5,504.4883 A12.5,12.5 0 0 1 724,516.9883 L724,520.4883 L148,520.4883 L148,516.9883 A12.5,12.5 0 0 1 160.5,504.4883 " fill="#E8E8EA" style="stroke:#E8E8EA;stroke-width:1.0;"/><rect fill="none" height="112" rx="12.5" ry="12.5" style="stroke:#202024;stroke-width:0.5;" width="576" x="148" y="504.4883"/><line style="stroke:#202024;stroke-width:0.5;" x1="148" x2="724" y1="520.4883" y2="520.4883"/><text fill="#000033" font-family="Helvetica" font-size="11" lengthAdjust="spacing" textLength="50" x="411" y="516.9585">resolvable</text></g><g id="resolvable.exec"><rect fill="#E8E8EA" height="50" rx="12.5" ry="12.5" style="stroke:#202024;stroke-width:0.5;" width="150" x="191" y="542.4883"/><line style="stroke:#202024;stroke-width:0.5;" x1="191" x2="341" y1="563.4883" y2="563.4883"/><text fill="#000033" font-family="Helvetica" font-size="11" lengthAdjust="spacing" textLength="24" x="254" y="555.9585">exec</text><text fill="#000033" font-family="Helvetica" font-size="11" lengthAdjust="spacing" textLength="130" x="196" y="576.9585">Status: exec, Request: null</text></g><g id="resolvable.part"><rect fill="#E8E8EA" height="50" rx="12.5" ry="12.5" style="stroke:#202024;stroke-width:0.5;" width="145" x="376.5" y="542.4883"/><line style="stroke:#202024;stroke-width:0.5;" x1="376.5" x2="521.5" y1="563.4883" y2="563.4883"/><text fill="#000033" font-family="Helvetica" font-size="11" lengthAdjust="spacing" textLength="19" x="439.5" y="555.9585">part</text><text fill="#000033" font-family="Helvetica" font-size="11" lengthAdjust="spacing" textLength="125" x="381.5" y="576.9585">Status: part, Request: null</text></g><g id="resolvable.find"><rect fill="#E8E8EA" height="50" rx="12.5" ry="12.5" style="stroke:#202024;stroke-width:0.5;" width="143" x="556.5" y="542.4883"/><line style="stroke:#202024;stroke-width:0.5;" x1="556.5" x2="699.5" y1="563.4883" y2="563.4883"/><text fill="#000033" font-family="Helvetica" font-size="11" lengthAdjust="spacing" textLength="17" x="619.5" y="555.9585">find</text><text fill="#000033" font-family="Helvetica" font-size="11" lengthAdjust="spacing" textLength="123" x="561.5" y="576.9585">Status: find, Request: null</text></g><g id="draftInit"><rect fill="#E8E8EA" height="50" rx="12.5" ry="12.5" style="stroke:#202024;stroke-width:0.5;" width="145" x="193.5" y="172.9883"/><line style="stroke:#202024;stroke-width:0.5;" x1="193.5" x2="338.5" y1="193.9883" y2="193.9883"/><text fill="#000033" font-family="Helvetica" font-size="11" lengthAdjust="spacing" textLength="38" x="247" y="186.4585">draft.init</text><text fill="#000033" font-family="Helvetica" font-size="11" lengthAdjust="spacing" textLength="125" x="198.5" y="207.4585">Status: draft, Request: init</text></g><g id="initExec"><rect fill="#E8E8EA" height="50" rx="12.5" ry="12.5" style="stroke:#202024;stroke-width:0.5;" width="147" x="192.5" y="343.4883"/><line style="stroke:#202024;stroke-width:0.5;" x1="192.5" x2="339.5" y1="364.4883" y2="364.4883"/><text fill="#000033" font-family="Helvetica" font-size="11" lengthAdjust="spacing" textLength="40" x="246" y="356.9585">init.exec</text><text fill="#000033" font-family="Helvetica" font-size="11" lengthAdjust="spacing" textLength="127" x="197.5" y="377.9585">Status: init, Request: exec</text></g><g id="draftPart"><rect fill="#E8E8EA" height="50" rx="12.5" ry="12.5" style="stroke:#202024;stroke-width:0.5;" width="151" x="374.5" y="343.4883"/><line style="stroke:#202024;stroke-width:0.5;" x1="374.5" x2="525.5" y1="364.4883" y2="364.4883"/><text fill="#000033" font-family="Helvetica" font-size="11" lengthAdjust="spacing" textLength="44" x="428" y="356.9585">draft.part</text><text fill="#000033" font-family="Helvetica" font-size="11" lengthAdjust="spacing" textLength="131" x="379.5" y="377.9585">Status: draft, Request: part</text></g><g id="draftFind"><rect fill="#E8E8EA" height="50" rx="12.5" ry="12.5" style="stroke:#202024;stroke-width:0.5;" width="149" x="611.5" y="172.9883"/><line style="stroke:#202024;stroke-width:0.5;" x1="611.5" x2="760.5" y1="193.9883" y2="193.9883"/><text fill="#000033" font-family="Helvetica" font-size="11" lengthAdjust="spacing" textLength="42" x="665" y="186.4585">draft.find</text><text fill="#000033" font-family="Helvetica" font-size="11" lengthAdjust="spacing" textLength="129" x="616.5" y="207.4585">Status: draft, Request: find</text></g><g id="findTerm"><rect fill="#E8E8EA" height="50" rx="12.5" ry="12.5" style="stroke:#202024;stroke-width:0.5;" width="149" x="585.5" y="343.4883"/><line style="stroke:#202024;stroke-width:0.5;" x1="585.5" x2="734.5" y1="364.4883" y2="364.4883"/><text fill="#000033" font-family="Helvetica" font-size="11" lengthAdjust="spacing" textLength="42" x="639" y="356.9585">find.term</text><text fill="#000033" font-family="Helvetica" font-size="11" lengthAdjust="spacing" textLength="129" x="590.5" y="377.9585">Status: find, Request: term</text></g><g id="good"><rect fill="#E8E8EA" height="50" rx="12.5" ry="12.5" style="stroke:#202024;stroke-width:0.5;" width="150" x="7" y="343.4883"/><line style="stroke:#202024;stroke-width:0.5;" x1="7" x2="157" y1="364.4883" y2="364.4883"/><text fill="#000033" font-family="Helvetica" font-size="11" lengthAdjust="spacing" textLength="24" x="70" y="356.9585">good</text><text fill="#000033" font-family="Helvetica" font-size="11" lengthAdjust="spacing" textLength="130" x="12" y="377.9585">Status: good, Request: null</text></g><g id="void"><rect fill="#E8E8EA" height="50" rx="12.5" ry="12.5" style="stroke:#202024;stroke-width:0.5;" width="146" x="83" y="716.4883"/><line style="stroke:#202024;stroke-width:0.5;" x1="83" x2="229" y1="737.4883" y2="737.4883"/><text fill="#000033" font-family="Helvetica" font-size="11" lengthAdjust="spacing" textLength="20" x="146" y="729.9585">void</text><text fill="#000033" font-family="Helvetica" font-size="11" lengthAdjust="spacing" textLength="126" x="88" y="750.9585">Status: void, Request: null</text></g><ellipse cx="350" cy="53.4883" fill="#222222" rx="10" ry="10" style="stroke:none;stroke-width:1.0;"/><ellipse cx="806" cy="197.9883" fill="none" rx="10" ry="10" style="stroke:#222222;stroke-width:1.0;"/><ellipse cx="806.5" cy="198.4883" fill="#222222" rx="6" ry="6" style="stroke:none;stroke-width:1.0;"/><!--link *start to draftInit--><g id="link_*start_draftInit"><path d="M339.72,54.5283 C298.43,54.9283 145.42,58.7683 116,93.4883 C102.79,109.0883 104.42,122.6383 116,139.4883 C125.04,152.6283 155.94,165.5083 187.37,175.7383 " fill="none" id="*start-to-draftInit" style="stroke:#008000;stroke-width:1.0;"/><polygon fill="#008000" points="191.8,177.1483,184.4551,170.5868,187.0397,175.6187,182.0078,178.2033,191.8,177.1483" style="stroke:#008000;stroke-width:1.0;"/><text fill="#008000" font-family="Helvetica" font-size="11" lengthAdjust="spacing" textLength="27" x="156" y="108.4585">User:</text><text fill="#333333" font-family="Helvetica" font-size="11" lengthAdjust="spacing" textLength="105" x="117" y="119.4585">User initiates linear lift</text><text fill="#333333" font-family="Helvetica" font-size="11" lengthAdjust="spacing" textLength="57" x="141" y="130.4585">Request:init</text></g><!--link *start to draftInit--><g id="link_*start_draftInit"><path d="M339.94,55.5383 C321,58.1283 280.37,66.6783 263,93.4883 C249.13,114.9083 251.56,144.4083 256.49,166.4383 " fill="none" id="*start-to-draftInit-1" style="stroke:#000000;stroke-width:1.0;"/><polygon fill="#000000" points="257.65,171.2483,259.4284,161.5613,256.4777,166.3876,251.6514,163.437,257.65,171.2483" style="stroke:#000000;stroke-width:1.0;"/><text fill="#000000" font-family="Helvetica" font-size="11" lengthAdjust="spacing" textLength="31" x="320" y="108.4585">Agent:</text><text fill="#333333" font-family="Helvetica" font-size="11" lengthAdjust="spacing" textLength="143" x="264" y="119.4585">Automaton initiates circular lift</text><text fill="#333333" font-family="Helvetica" font-size="11" lengthAdjust="spacing" textLength="57" x="307" y="130.4585">Request:init</text></g><!--link draftInit to good--><g id="link_draftInit_good"><path d="M206.28,223.3783 C188.9,232.1983 170.66,243.3083 156,256.4883 C130.33,279.5683 109.46,313.3983 96.51,337.6383 " fill="none" id="draftInit-to-good" style="stroke:#FF0000;stroke-width:1.0;"/><polygon fill="#FF0000" points="94.26,341.9383,101.9735,335.8144,96.5758,337.5069,94.8833,332.1092,94.26,341.9383" style="stroke:#FF0000;stroke-width:1.0;"/><text fill="#FF0000" font-family="Helvetica" font-size="11" lengthAdjust="spacing" textLength="31" x="191.5" y="271.4585">Agent:</text><text fill="#333333" font-family="Helvetica" font-size="11" lengthAdjust="spacing" textLength="60" x="177" y="282.4585">request-&gt;init</text><text fill="#333333" font-family="Helvetica" font-size="11" lengthAdjust="spacing" textLength="100" x="157" y="293.4585">[Internal route found]</text><text fill="#333333" font-family="Helvetica" font-size="11" lengthAdjust="spacing" textLength="89" x="162.5" y="304.4585">/Execute lift locally</text></g><!--link draftInit to initExec--><g id="link_draftInit_initExec"><path d="M266,223.1283 C266,253.0783 266,304.1583 266,336.8383 " fill="none" id="draftInit-to-initExec" style="stroke:#FF0000;stroke-width:1.0;"/><polygon fill="#FF0000" points="266,341.6083,270,332.6083,266,336.6083,262,332.6083,266,341.6083" style="stroke:#FF0000;stroke-width:1.0;"/><text fill="#FF0000" font-family="Helvetica" font-size="11" lengthAdjust="spacing" textLength="31" x="313.5" y="265.9585">Agent:</text><text fill="#333333" font-family="Helvetica" font-size="11" lengthAdjust="spacing" textLength="60" x="299" y="276.9585">request-&gt;init</text><text fill="#333333" font-family="Helvetica" font-size="11" lengthAdjust="spacing" textLength="124" x="267" y="287.9585">[Internal route impossible]</text><text fill="#333333" font-family="Helvetica" font-size="11" lengthAdjust="spacing" textLength="123" x="267.5" y="298.9585">/Ask agent for external lift</text><text fill="#333333" font-family="Helvetica" font-size="11" lengthAdjust="spacing" textLength="68" x="295" y="309.9585">Request:exec</text></g><!--link initExec to exec--><g id="link_initExec_exec"><path d="M266,393.6483 C266,429.5383 266,496.9083 266,536.0983 " fill="none" id="initExec-to-exec" style="stroke:#FF0000;stroke-width:1.0;"/><polygon fill="#FF0000" points="266,540.6183,270,531.6183,266,535.6183,262,531.6183,266,540.6183" style="stroke:#FF0000;stroke-width:1.0;"/><text fill="#FF0000" font-family="Helvetica" font-size="11" lengthAdjust="spacing" textLength="31" x="316.5" y="443.9585">Agent:</text><text fill="#333333" font-family="Helvetica" font-size="11" lengthAdjust="spacing" textLength="70" x="297" y="454.9585">route detected</text><text fill="#333333" font-family="Helvetica" font-size="11" lengthAdjust="spacing" textLength="130" x="267" y="465.9585">/Task delegated to chipNet</text></g><!--link *start to *end--><g id="link_*start_*end"><path d="M360.18,54.8083 C410.42,56.4983 631.96,65.4783 694,93.4883 C740.02,114.2683 779.63,161.5283 796.84,184.2783 " fill="none" id="*start-to-*end" style="stroke:#0000FF;stroke-width:1.0;"/><polygon fill="#0000FF" points="799.64,188.0383,797.5005,178.4246,796.6652,184.0195,791.0704,183.1843,799.64,188.0383" style="stroke:#0000FF;stroke-width:1.0;"/><text fill="#0000FF" font-family="Helvetica" font-size="11" lengthAdjust="spacing" textLength="26" x="802.5" y="108.4585">Peer:</text><text fill="#333333" font-family="Helvetica" font-size="11" lengthAdjust="spacing" textLength="115" x="758" y="119.4585">Receive Action:promise</text><text fill="#333333" font-family="Helvetica" font-size="11" lengthAdjust="spacing" textLength="96" x="767.5" y="130.4585">[Won't commit to lift]</text></g><!--link *start to draftPart--><g id="link_*start_draftPart"><path d="M359.4,57.5083 C373.4,62.5383 399.44,74.0483 412,93.4883 C437.7,133.2683 446.35,274.3883 448.97,337.0883 " fill="none" id="*start-to-draftPart" style="stroke:#0000FF;stroke-width:1.0;"/><polygon fill="#0000FF" points="449.16,341.7483,452.7971,332.5956,448.9602,336.7523,444.8035,332.9153,449.16,341.7483" style="stroke:#0000FF;stroke-width:1.0;"/><text fill="#0000FF" font-family="Helvetica" font-size="11" lengthAdjust="spacing" textLength="26" x="500" y="178.9585">Peer:</text><text fill="#333333" font-family="Helvetica" font-size="11" lengthAdjust="spacing" textLength="115" x="455.5" y="189.9585">Receive Action:promise</text><text fill="#333333" font-family="Helvetica" font-size="11" lengthAdjust="spacing" textLength="85" x="470.5" y="200.9585">[Will commit to lift]</text><text fill="#333333" font-family="Helvetica" font-size="11" lengthAdjust="spacing" textLength="140" x="443" y="211.9585">/Store lift/chits; Request:part;</text><text fill="#333333" font-family="Helvetica" font-size="11" lengthAdjust="spacing" textLength="119" x="453.5" y="222.9585">Forward Action: promise</text></g><!--link *start to draftFind--><g id="link_*start_draftFind"><path d="M359.52,57.5483 C378.73,63.7883 423.38,78.6483 460,93.4883 C519.07,117.4283 585.2,148.1883 630.58,169.9383 " fill="none" id="*start-to-draftFind" style="stroke:#0000FF;stroke-width:1.0;"/><polygon fill="#0000FF" points="634.93,172.0283,628.5341,164.5388,630.4186,169.8725,625.0849,171.757,634.93,172.0283" style="stroke:#0000FF;stroke-width:1.0;"/><text fill="#0000FF" font-family="Helvetica" font-size="11" lengthAdjust="spacing" textLength="26" x="610.5" y="102.9585">Peer:</text><text fill="#333333" font-family="Helvetica" font-size="11" lengthAdjust="spacing" textLength="115" x="566" y="113.9585">Receive Action:promise</text><text fill="#333333" font-family="Helvetica" font-size="11" lengthAdjust="spacing" textLength="123" x="562" y="124.9585">[Destination found locally]</text><text fill="#333333" font-family="Helvetica" font-size="11" lengthAdjust="spacing" textLength="114" x="566.5" y="135.9585">/Store lift Request: term</text></g><!--link draftFind to findTerm--><g id="link_draftFind_findTerm"><path d="M682.27,223.1283 C677.65,253.0783 669.77,304.1583 664.73,336.8383 " fill="none" id="draftFind-to-findTerm" style="stroke:#FF0000;stroke-width:1.0;"/><polygon fill="#FF0000" points="663.99,341.6183,669.3066,333.3277,664.7471,336.6759,661.3988,332.1164,663.99,341.6183" style="stroke:#FF0000;stroke-width:1.0;"/><text fill="#FF0000" font-family="Helvetica" font-size="11" lengthAdjust="spacing" textLength="31" x="710.5" y="265.9585">Agent:</text><text fill="#333333" font-family="Helvetica" font-size="11" lengthAdjust="spacing" textLength="52" x="700" y="276.9585">Detect find</text><text fill="#333333" font-family="Helvetica" font-size="11" lengthAdjust="spacing" textLength="64" x="694" y="287.9585">/Build draft lift</text><text fill="#333333" font-family="Helvetica" font-size="11" lengthAdjust="spacing" textLength="96" x="678" y="298.9585">Notify correct agent</text><text fill="#333333" font-family="Helvetica" font-size="11" lengthAdjust="spacing" textLength="53" x="699.5" y="309.9585">Action: find</text></g><!--link findTerm to find--><g id="link_findTerm_find"><path d="M656.08,393.6483 C650.25,429.5383 639.3,496.9083 632.94,536.0983 " fill="none" id="findTerm-to-find" style="stroke:#FF0000;stroke-width:1.0;"/><polygon fill="#FF0000" points="632.2,540.6383,637.5866,532.393,632.9989,535.7025,629.6893,531.1148,632.2,540.6383" style="stroke:#FF0000;stroke-width:1.0;"/><text fill="#FF0000" font-family="Helvetica" font-size="11" lengthAdjust="spacing" textLength="31" x="682" y="432.9585">Agent:</text><text fill="#333333" font-family="Helvetica" font-size="11" lengthAdjust="spacing" textLength="57" x="669" y="443.9585">Detect term</text><text fill="#333333" font-family="Helvetica" font-size="11" lengthAdjust="spacing" textLength="91" x="652" y="454.9585">/Reply to originator</text><text fill="#333333" font-family="Helvetica" font-size="11" lengthAdjust="spacing" textLength="49" x="673" y="465.9585">Build chits</text><text fill="#333333" font-family="Helvetica" font-size="11" lengthAdjust="spacing" textLength="78" x="658.5" y="476.9585">Action: terminus</text></g><!--link draftPart to part--><g id="link_draftPart_part"><path d="M449.88,393.6483 C449.7,429.5383 449.35,496.9083 449.15,536.0983 " fill="none" id="draftPart-to-part" style="stroke:#FF0000;stroke-width:1.0;"/><polygon fill="#FF0000" points="449.13,540.6183,453.1814,531.6413,449.1586,535.6184,445.1815,531.5956,449.13,540.6183" style="stroke:#FF0000;stroke-width:1.0;"/><text fill="#FF0000" font-family="Helvetica" font-size="11" lengthAdjust="spacing" textLength="31" x="473" y="438.4585">Agent:</text><text fill="#333333" font-family="Helvetica" font-size="11" lengthAdjust="spacing" textLength="54" x="461.5" y="449.4585">Detect part</text><text fill="#333333" font-family="Helvetica" font-size="11" lengthAdjust="spacing" textLength="57" x="460" y="460.4585">/Forward lift</text><text fill="#333333" font-family="Helvetica" font-size="11" lengthAdjust="spacing" textLength="75" x="451" y="471.4585">Action: promise</text></g><!--link *start to good--><g id="link_*start_good"><path d="M339.85,55.0783 C298.28,57.6583 141.18,68.8683 99,93.4883 C61.83,115.1783 53.11,128.8283 39,169.4883 C18.88,227.4483 46.14,298.3483 65.55,337.6383 " fill="none" id="*start-to-good" style="stroke:#000000;stroke-width:1.0;"/><polygon fill="#000000" points="67.67,341.8483,67.1851,332.0114,65.4168,337.3847,60.0435,335.6164,67.67,341.8483" style="stroke:#000000;stroke-width:1.0;"/><text fill="#000000" font-family="Helvetica" font-size="11" lengthAdjust="spacing" textLength="31" x="92" y="178.9585">Agent:</text><text fill="#333333" font-family="Helvetica" font-size="11" lengthAdjust="spacing" textLength="96" x="59.5" y="189.9585">Call to local clearing</text><text fill="#333333" font-family="Helvetica" font-size="11" lengthAdjust="spacing" textLength="51" x="82" y="200.9585">lift function</text><text fill="#333333" font-family="Helvetica" font-size="11" lengthAdjust="spacing" textLength="73" x="71" y="211.9585">[Lift completes]</text><text fill="#333333" font-family="Helvetica" font-size="11" lengthAdjust="spacing" textLength="135" x="40" y="222.9585">/Commit lift chits; Consense</text></g><!--reverse link good to resolvable--><g id="link_good_resolvable"><path d="M92.25,399.9383 C99.9,422.3183 110.75,453.4283 121,480.4883 C128.08,499.1783 136.5125,519.9408 143.3263,536.382 C144.178,538.4372 145.0044,540.4248 145.7997,542.3325 C146.1974,543.2863 146.5873,544.2201 146.9687,545.1323 C147.1594,545.5885 147.3479,546.0392 147.5343,546.4843 C147.6275,546.7069 147.7201,546.9281 147.8122,547.1478 C147.8582,547.2577 147.9041,547.3672 147.9498,547.4764 " fill="none" id="good-backto-resolvable" style="stroke:#0000FF;stroke-width:1.0;"/><polygon fill="#0000FF" points="90.67,395.2983,89.7657,405.1055,92.2726,400.0345,97.3436,402.5414,90.67,395.2983" style="stroke:#0000FF;stroke-width:1.0;"/><text fill="#0000FF" font-family="Helvetica" font-size="11" lengthAdjust="spacing" textLength="26" x="176.5" y="438.4585">Peer:</text><text fill="#333333" font-family="Helvetica" font-size="11" lengthAdjust="spacing" textLength="126" x="126.5" y="449.4585">Receive referee signature</text><text fill="#333333" font-family="Helvetica" font-size="11" lengthAdjust="spacing" textLength="68" x="155.5" y="460.4585">[Verified Valid]</text><text fill="#333333" font-family="Helvetica" font-size="11" lengthAdjust="spacing" textLength="135" x="122" y="471.4585">/Commit lift chits; Consense</text></g><!--link resolvable to void--><g id="link_resolvable_void"><path d="M156,616.5583 C156,616.7767 156,616.9954 156,617.2146 C156,618.9677 156,620.7465 156,622.547 C156,651.3558 156,685.7383 156,709.9283 " fill="none" id="resolvable-to-void" style="stroke:#0000FF;stroke-width:1.0;"/><polygon fill="#0000FF" points="156,714.6683,160,705.6683,156,709.6683,152,705.6683,156,714.6683" style="stroke:#0000FF;stroke-width:1.0;"/><text fill="#0000FF" font-family="Helvetica" font-size="11" lengthAdjust="spacing" textLength="26" x="207" y="649.9585">Peer:</text><text fill="#333333" font-family="Helvetica" font-size="11" lengthAdjust="spacing" textLength="126" x="157" y="660.9585">Receive referee signature</text><text fill="#333333" font-family="Helvetica" font-size="11" lengthAdjust="spacing" textLength="66" x="187" y="671.9585">[Verified Void]</text><text fill="#333333" font-family="Helvetica" font-size="11" lengthAdjust="spacing" textLength="79" x="180.5" y="682.9585">/Mark lift as void</text></g><text fill="#888888" font-family="sans-serif" font-size="10" lengthAdjust="spacing" textLength="142" x="362.5" y="781.1563">Fri Feb 02 13:56:31 MST 2024</text><!--SRC=[bLPDJnin4Btlht0Hqh9L4kv1Gg9yI4YKLa3XG3WukxEfYsDlRIyjglhVEpFEVZOWE40qdl6yDpFFatnG9jTr0IAtwxKriwfUwoJP3IfesBjGPH3NGGRmMUBfK-mKJfPXfemAEq9wmUOvMesVF3Fu3JcxoJf5OtYxagvt-ojQGt-fJD7vpz1g_EIP1N1hTfDrWyR6wy1R_IIN6iIVH8XuI5HQWu1RWsudVvEaBM7EjTP-7d4duWf-rk3ndCf8cbgwC3hfHJ5KgZZJIp6crZffo-h5ZI6PNLDWBuwEUc7KYwHjuolvk7HW-cqCcMDkAslxjCWSXrH393B78UMmk15f3dcogXz2vZWaILby8ZXfl0hA6k5g3NwUt7zy4DFxtTg3UvWUYju8TpbuZrsJR_YF9w18mq8h0zBXHnaMfe7Y0QLf5dDkJNQq0XCcHtMmQncGH9SnLowlzSivqpOPqIsMH5ODU1RB2P-WUlckA2107W2RaQOJmT2YSe1T1h_lrSfuSS5WNvO_C52ScjmMI0N_WZAIkfGbMs3ZOFkm6yJfOTHeUcvGJKPguMnDxyFMfa0Af7cogKIXRIwrVjwAq3sGTw2eTMMzL_XegLh_A2HNN5g7yjn43fjBgitQrzZ1m__GZD0s5Fjv8n6X00qh75yXWXNvTrLTGiYIHbCLH4sXsMMZmyaLvA2UG1pbrEHvvUnQUPY8EslIm0iKku4fYMusJjTxesz9UgUq7gN4tbq7w-8Wzf5ty0VjWw57UB0mPzRzagveiebDkdGxdRY2taBdf1DNr4KZX06fuLf2q6xJTMFgTbflL2SyexWdIFQVQgMBI78p_KiRLFcCBN6E8bab2zFKIHUpTbqEmRO14Jy6ke9AFrE7hLChgj2wXOdetE4EWgueK_kiMxSTJZKOR8V3kv5mci74OaRZQSGtVgLnxuXZR3IBW5ekSeqxJ9dLmd3BozfmiWbl1P9CfH7RuxMe7exQgENO6W-60NjVbjEwweGnN1C3JJWemG48MaAuj1rA_nQSAXM-f5kfQN-_Yjc7x03Zzy3x0VdxuhDqZn4DVmvGfYpv1m00]--></g></svg>