<?xml version="1.0" encoding="UTF-8" standalone="no"?><svg xmlns="http://www.w3.org/2000/svg" xmlns:xlink="http://www.w3.org/1999/xlink" contentStyleType="text/css" height="909px" preserveAspectRatio="none" style="width:1250px;height:909px;background:#FFFFFF;" version="1.1" viewBox="0 0 1250 909" width="1250px" zoomAndPan="magnify"><defs/><g><text fill="#000000" font-family="sans-serif" font-size="14" font-weight="bold" lengthAdjust="spacing" textLength="143" x="546.5" y="23.5352">Tally State Diagram</text><!--cluster working--><g id="cluster_working"><path d="M800.5,370.4883 L1147.5,370.4883 A12.5,12.5 0 0 1 1160,382.9883 L1160,386.4883 L788,386.4883 L788,382.9883 A12.5,12.5 0 0 1 800.5,370.4883 " fill="#E8E8EA" style="stroke:#E8E8EA;stroke-width:1.0;"/><rect fill="none" height="299.5" rx="12.5" ry="12.5" style="stroke:#202024;stroke-width:0.5;" width="372" x="788" y="370.4883"/><line style="stroke:#202024;stroke-width:0.5;" x1="788" x2="1160" y1="386.4883" y2="386.4883"/><text fill="#000033" font-family="Helvetica" font-size="11" lengthAdjust="spacing" textLength="38" x="955" y="382.9585">working</text></g><!--cluster tradable--><g id="cluster_tradable"><path d="M19.5,744.9883 L839.5,744.9883 A12.5,12.5 0 0 1 852,757.4883 L852,760.9883 L7,760.9883 L7,757.4883 A12.5,12.5 0 0 1 19.5,744.9883 " fill="#E8E8EA" style="stroke:#E8E8EA;stroke-width:1.0;"/><rect fill="none" height="140" rx="12.5" ry="12.5" style="stroke:#202024;stroke-width:0.5;" width="845" x="7" y="744.9883"/><line style="stroke:#202024;stroke-width:0.5;" x1="7" x2="852" y1="760.9883" y2="760.9883"/><text fill="#000033" font-family="Helvetica" font-size="11" lengthAdjust="spacing" textLength="39" x="410" y="757.4585">tradable</text></g><g id="working.pDraft"><rect fill="#E8E8EA" height="64" rx="12.5" ry="12.5" style="stroke:#202024;stroke-width:0.5;" width="166" x="879" y="589.9883"/><line style="stroke:#202024;stroke-width:0.5;" x1="879" x2="1045" y1="610.9883" y2="610.9883"/><text fill="#000033" font-family="Helvetica" font-size="11" lengthAdjust="spacing" textLength="32" x="946" y="603.4585">P.draft</text><text fill="#000033" font-family="Helvetica" font-size="11" lengthAdjust="spacing" textLength="107" x="884" y="624.4585">Status: draft, Req: null</text><text fill="#000033" font-family="Helvetica" font-size="11" lengthAdjust="spacing" textLength="131" x="884" y="635.4585">Contains partner certificate</text><text fill="#000033" font-family="Helvetica" font-size="11" lengthAdjust="spacing" textLength="146" x="884" y="646.4585">User: can modify, delete, offer</text></g><g id="working.draft"><rect fill="#E8E8EA" height="53" rx="12.5" ry="12.5" style="stroke:#202024;stroke-width:0.5;" width="169" x="974.5" y="414.4883"/><line style="stroke:#202024;stroke-width:0.5;" x1="974.5" x2="1143.5" y1="435.4883" y2="435.4883"/><text fill="#000033" font-family="Helvetica" font-size="11" lengthAdjust="spacing" textLength="22" x="1048" y="427.9585">draft</text><text fill="#000033" font-family="Helvetica" font-size="11" lengthAdjust="spacing" textLength="107" x="979.5" y="448.9585">Status: draft, Req: null</text><text fill="#000033" font-family="Helvetica" font-size="11" lengthAdjust="spacing" textLength="149" x="979.5" y="459.9585">User: can modify, delete, invite</text></g><g id="working.void"><rect fill="#E8E8EA" height="53" rx="12.5" ry="12.5" style="stroke:#202024;stroke-width:0.5;" width="135" x="804.5" y="414.4883"/><line style="stroke:#202024;stroke-width:0.5;" x1="804.5" x2="939.5" y1="435.4883" y2="435.4883"/><text fill="#000033" font-family="Helvetica" font-size="11" lengthAdjust="spacing" textLength="20" x="862" y="427.9585">void</text><text fill="#000033" font-family="Helvetica" font-size="11" lengthAdjust="spacing" textLength="105" x="809.5" y="448.9585">Status: void, Req: null</text><text fill="#000033" font-family="Helvetica" font-size="11" lengthAdjust="spacing" textLength="115" x="809.5" y="459.9585">User: can modify, clone</text></g><g id="tradable.open"><rect fill="#E8E8EA" height="64" rx="12.5" ry="12.5" style="stroke:#202024;stroke-width:0.5;" width="149" x="393.5" y="796.9883"/><line style="stroke:#202024;stroke-width:0.5;" x1="393.5" x2="542.5" y1="817.9883" y2="817.9883"/><text fill="#000033" font-family="Helvetica" font-size="11" lengthAdjust="spacing" textLength="24" x="456" y="810.4585">open</text><text fill="#000033" font-family="Helvetica" font-size="11" lengthAdjust="spacing" textLength="109" x="398.5" y="831.4585">Status: open, Req: null</text><text fill="#000033" font-family="Helvetica" font-size="11" lengthAdjust="spacing" textLength="129" x="398.5" y="842.4585">Must have both signatures</text><text fill="#000033" font-family="Helvetica" font-size="11" lengthAdjust="spacing" textLength="117" x="398.5" y="853.4585">User: can request close</text></g><g id="tradable.openOpen"><rect fill="#E8E8EA" height="53" rx="12.5" ry="12.5" style="stroke:#202024;stroke-width:0.5;" width="137" x="140.5" y="802.4883"/><line style="stroke:#202024;stroke-width:0.5;" x1="140.5" x2="277.5" y1="823.4883" y2="823.4883"/><text fill="#000033" font-family="Helvetica" font-size="11" lengthAdjust="spacing" textLength="51" x="183.5" y="815.9585">open.open</text><text fill="#000033" font-family="Helvetica" font-size="11" lengthAdjust="spacing" textLength="117" x="145.5" y="836.9585">Status: open, Req: open</text><text fill="#000033" font-family="Helvetica" font-size="11" lengthAdjust="spacing" textLength="103" x="145.5" y="847.9585">Agent: Action needed</text></g><g id="tradable.cOpen"><rect fill="#E8E8EA" height="64" rx="12.5" ry="12.5" style="stroke:#202024;stroke-width:0.5;" width="148" x="680" y="796.9883"/><line style="stroke:#202024;stroke-width:0.5;" x1="680" x2="828" y1="817.9883" y2="817.9883"/><text fill="#000033" font-family="Helvetica" font-size="11" lengthAdjust="spacing" textLength="35" x="736.5" y="810.4585">C.open</text><text fill="#000033" font-family="Helvetica" font-size="11" lengthAdjust="spacing" textLength="109" x="685" y="831.4585">Status: open, Req: null</text><text fill="#000033" font-family="Helvetica" font-size="11" lengthAdjust="spacing" textLength="96" x="685" y="842.4585">Closing chit present</text><text fill="#000033" font-family="Helvetica" font-size="11" lengthAdjust="spacing" textLength="128" x="685" y="853.4585">Can trade, waiting for zero</text></g><g id="offerVoid"><rect fill="#E8E8EA" height="53" rx="12.5" ry="12.5" style="stroke:#202024;stroke-width:0.5;" width="131" x="640.5" y="595.4883"/><line style="stroke:#202024;stroke-width:0.5;" x1="640.5" x2="771.5" y1="616.4883" y2="616.4883"/><text fill="#000033" font-family="Helvetica" font-size="11" lengthAdjust="spacing" textLength="45" x="683.5" y="608.9585">offer.void</text><text fill="#000033" font-family="Helvetica" font-size="11" lengthAdjust="spacing" textLength="111" x="645.5" y="629.9585">Status: offer, Req: void</text><text fill="#000033" font-family="Helvetica" font-size="11" lengthAdjust="spacing" textLength="103" x="645.5" y="640.9585">Agent: Action needed</text></g><g id="offerDraft"><rect fill="#E8E8EA" height="53" rx="12.5" ry="12.5" style="stroke:#202024;stroke-width:0.5;" width="133" x="334.5" y="595.4883"/><line style="stroke:#202024;stroke-width:0.5;" x1="334.5" x2="467.5" y1="616.4883" y2="616.4883"/><text fill="#000033" font-family="Helvetica" font-size="11" lengthAdjust="spacing" textLength="47" x="377.5" y="608.9585">offer.draft</text><text fill="#000033" font-family="Helvetica" font-size="11" lengthAdjust="spacing" textLength="113" x="339.5" y="629.9585">Status: offer, Req: draft</text><text fill="#000033" font-family="Helvetica" font-size="11" lengthAdjust="spacing" textLength="103" x="339.5" y="640.9585">Agent: Action needed</text></g><g id="offerOpen"><rect fill="#E8E8EA" height="53" rx="12.5" ry="12.5" style="stroke:#202024;stroke-width:0.5;" width="135" x="144.5" y="595.4883"/><line style="stroke:#202024;stroke-width:0.5;" x1="144.5" x2="279.5" y1="616.4883" y2="616.4883"/><text fill="#000033" font-family="Helvetica" font-size="11" lengthAdjust="spacing" textLength="49" x="187.5" y="608.9585">offer.open</text><text fill="#000033" font-family="Helvetica" font-size="11" lengthAdjust="spacing" textLength="115" x="149.5" y="629.9585">Status: offer, Req: open</text><text fill="#000033" font-family="Helvetica" font-size="11" lengthAdjust="spacing" textLength="103" x="149.5" y="640.9585">Agent: Action needed</text></g><g id="draftOffer"><rect fill="#E8E8EA" height="64" rx="12.5" ry="12.5" style="stroke:#202024;stroke-width:0.5;" width="136" x="921" y="44.4883"/><line style="stroke:#202024;stroke-width:0.5;" x1="921" x2="1057" y1="65.4883" y2="65.4883"/><text fill="#000033" font-family="Helvetica" font-size="11" lengthAdjust="spacing" textLength="47" x="965.5" y="57.9585">draft.offer</text><text fill="#000033" font-family="Helvetica" font-size="11" lengthAdjust="spacing" textLength="113" x="926" y="78.9585">Status: draft, Req: offer</text><text fill="#000033" font-family="Helvetica" font-size="11" lengthAdjust="spacing" textLength="116" x="926" y="89.9585">Has only user signature</text><text fill="#000033" font-family="Helvetica" font-size="11" lengthAdjust="spacing" textLength="103" x="926" y="100.9585">Agent: Action needed</text></g><g id="pOffer"><rect fill="#E8E8EA" height="64" rx="12.5" ry="12.5" style="stroke:#202024;stroke-width:0.5;" width="177" x="231.5" y="408.9883"/><line style="stroke:#202024;stroke-width:0.5;" x1="231.5" x2="408.5" y1="429.9883" y2="429.9883"/><text fill="#000033" font-family="Helvetica" font-size="11" lengthAdjust="spacing" textLength="32" x="304" y="422.4585">P.offer</text><text fill="#000033" font-family="Helvetica" font-size="11" lengthAdjust="spacing" textLength="107" x="236.5" y="443.4585">Status: offer, Req: null</text><text fill="#000033" font-family="Helvetica" font-size="11" lengthAdjust="spacing" textLength="94" x="236.5" y="454.4585">Peer signature only</text><text fill="#000033" font-family="Helvetica" font-size="11" lengthAdjust="spacing" textLength="157" x="236.5" y="465.4585">User: can accept, refuse, revise</text></g><g id="hOffer"><rect fill="#E8E8EA" height="64" rx="12.5" ry="12.5" style="stroke:#202024;stroke-width:0.5;" width="127" x="644.5" y="203.4883"/><line style="stroke:#202024;stroke-width:0.5;" x1="644.5" x2="771.5" y1="224.4883" y2="224.4883"/><text fill="#000033" font-family="Helvetica" font-size="11" lengthAdjust="spacing" textLength="33" x="691.5" y="216.9585">H.offer</text><text fill="#000033" font-family="Helvetica" font-size="11" lengthAdjust="spacing" textLength="107" x="649.5" y="237.9585">Status: offer, Req: null</text><text fill="#000033" font-family="Helvetica" font-size="11" lengthAdjust="spacing" textLength="95" x="649.5" y="248.9585">User signature only</text><text fill="#000033" font-family="Helvetica" font-size="11" lengthAdjust="spacing" textLength="93" x="649.5" y="259.9585">User waits for peer</text></g><g id="close"><rect fill="#E8E8EA" height="75" rx="12.5" ry="12.5" style="stroke:#202024;stroke-width:0.5;" width="131" x="956.5" y="791.4883"/><line style="stroke:#202024;stroke-width:0.5;" x1="956.5" x2="1087.5" y1="812.4883" y2="812.4883"/><text fill="#000033" font-family="Helvetica" font-size="11" lengthAdjust="spacing" textLength="26" x="1009" y="804.9585">close</text><text fill="#000033" font-family="Helvetica" font-size="11" lengthAdjust="spacing" textLength="111" x="961.5" y="825.9585">Status: close, Req: null</text><text fill="#000033" font-family="Helvetica" font-size="11" lengthAdjust="spacing" textLength="87" x="961.5" y="836.9585">Non-zero balance</text><text fill="#000033" font-family="Helvetica" font-size="11" lengthAdjust="spacing" textLength="111" x="961.5" y="847.9585">Status: close, Req: null</text><text fill="#000033" font-family="Helvetica" font-size="11" lengthAdjust="spacing" textLength="75" x="961.5" y="858.9585">Balance is zero</text></g><g id="P"><rect fill="#E8E8EA" height="50" rx="12.5" ry="12.5" style="stroke:#202024;stroke-width:0.5;" width="50" x="295" y="210.4883"/><line style="stroke:#202024;stroke-width:0.5;" x1="295" x2="345" y1="231.4883" y2="231.4883"/><text fill="#000033" font-family="Helvetica" font-size="11" lengthAdjust="spacing" textLength="7" x="316.5" y="223.9585">P</text><text fill="#000033" font-family="Helvetica" font-size="11" lengthAdjust="spacing" textLength="26" x="300" y="244.9585">Entry</text></g><g id="H"><rect fill="#E8E8EA" height="50" rx="12.5" ry="12.5" style="stroke:#202024;stroke-width:0.5;" width="50" x="1034" y="210.4883"/><line style="stroke:#202024;stroke-width:0.5;" x1="1034" x2="1084" y1="231.4883" y2="231.4883"/><text fill="#000033" font-family="Helvetica" font-size="11" lengthAdjust="spacing" textLength="8" x="1055" y="223.9585">H</text><text fill="#000033" font-family="Helvetica" font-size="11" lengthAdjust="spacing" textLength="26" x="1039" y="244.9585">Entry</text></g><!--link H to draft--><g id="link_H_draft"><path d="M1059,260.6283 C1059,297.3083 1059,367.1083 1059,407.9783 " fill="none" id="H-to-draft" style="stroke:#008000;stroke-width:1.0;"/><polygon fill="#008000" points="1059,412.7683,1063,403.7683,1059,407.7683,1055,403.7683,1059,412.7683" style="stroke:#008000;stroke-width:1.0;"/><text fill="#008000" font-family="Helvetica" font-size="11" lengthAdjust="spacing" textLength="27" x="1088.5" y="317.9585">User:</text><text fill="#333333" font-family="Helvetica" font-size="11" lengthAdjust="spacing" textLength="84" x="1060" y="328.9585">User (or system)</text><text fill="#333333" font-family="Helvetica" font-size="11" lengthAdjust="spacing" textLength="73" x="1065.5" y="339.9585">drafts new tally</text></g><!--link P to pOffer--><g id="link_P_pOffer"><path d="M320,260.6283 C320,295.6083 320,360.7083 320,402.1183 " fill="none" id="P-to-pOffer" style="stroke:#0000FF;stroke-width:1.0;"/><polygon fill="#0000FF" points="320,407.0383,324,398.0383,320,402.0383,316,398.0383,320,407.0383" style="stroke:#0000FF;stroke-width:1.0;"/><text fill="#0000FF" font-family="Helvetica" font-size="11" lengthAdjust="spacing" textLength="26" x="363.5" y="306.9585">Peer:</text><text fill="#333333" font-family="Helvetica" font-size="11" lengthAdjust="spacing" textLength="111" x="321" y="317.9585">Receive proposed tally</text><text fill="#333333" font-family="Helvetica" font-size="11" lengthAdjust="spacing" textLength="76" x="338.5" y="328.9585">[valid signature]</text><text fill="#333333" font-family="Helvetica" font-size="11" lengthAdjust="spacing" textLength="47" x="353" y="339.9585">/Act: offer</text><text fill="#333333" font-family="Helvetica" font-size="11" lengthAdjust="spacing" textLength="53" x="350" y="350.9585">Notify user</text></g><!--link draft to pDraft--><g id="link_draft_pDraft"><path d="M1045.1,467.6383 C1028.54,498.1883 1000.76,549.4683 981.92,584.2383 " fill="none" id="draft-to-pDraft" style="stroke:#0000FF;stroke-width:1.0;"/><polygon fill="#0000FF" points="979.69,588.3383,987.4962,582.3331,982.0733,583.9428,980.4635,578.5198,979.69,588.3383" style="stroke:#0000FF;stroke-width:1.0;"/><text fill="#0000FF" font-family="Helvetica" font-size="11" lengthAdjust="spacing" textLength="26" x="1065.5" y="517.9585">Peer:</text><text fill="#333333" font-family="Helvetica" font-size="11" lengthAdjust="spacing" textLength="107" x="1025" y="528.9585">Receive subject ticket</text><text fill="#333333" font-family="Helvetica" font-size="11" lengthAdjust="spacing" textLength="50" x="1053.5" y="539.9585">[valid cert]</text><text fill="#333333" font-family="Helvetica" font-size="11" lengthAdjust="spacing" textLength="56" x="1050.5" y="550.9585">/Notify user</text></g><!--link pDraft to draftOffer--><g id="link_pDraft_draftOffer"><path d="M1045.27,610.5983 C1079.36,602.2383 1116.47,587.1683 1141,559.9883 C1167.58,530.5383 1156.53,512.4083 1161,472.9883 C1174.82,351.1583 1172.65,303.6983 1102,203.4883 C1079.05,170.9283 1048.72,137.5283 1025.26,113.2983 " fill="none" id="pDraft-to-draftOffer" style="stroke:#008000;stroke-width:1.0;"/><polygon fill="#008000" points="1022.02,109.9683,1025.4252,119.2097,1025.5052,113.5535,1031.1615,113.6334,1022.02,109.9683" style="stroke:#008000;stroke-width:1.0;"/><text fill="#008000" font-family="Helvetica" font-size="11" lengthAdjust="spacing" textLength="27" x="1191" y="312.4585">User:</text><text fill="#333333" font-family="Helvetica" font-size="11" lengthAdjust="spacing" textLength="75" x="1167" y="323.4585">User signs tally</text><text fill="#333333" font-family="Helvetica" font-size="11" lengthAdjust="spacing" textLength="73" x="1168" y="334.4585">[valid sig/certs]</text><text fill="#333333" font-family="Helvetica" font-size="11" lengthAdjust="spacing" textLength="69" x="1170" y="345.4585">/Request offer</text></g><!--link pOffer to offerVoid--><g id="link_pOffer_offerVoid"><path d="M359.44,473.4283 C369.63,482.4383 380.19,492.6383 389,502.9883 C408.42,525.8083 400.45,542.8083 425,559.9883 C458.15,583.1883 561.99,601.4683 633.71,611.7483 " fill="none" id="pOffer-to-offerVoid" style="stroke:#008000;stroke-width:1.0;"/><polygon fill="#008000" points="638.61,612.4483,630.2746,607.2022,633.6614,611.7332,629.1304,615.12,638.61,612.4483" style="stroke:#008000;stroke-width:1.0;"/><text fill="#008000" font-family="Helvetica" font-size="11" lengthAdjust="spacing" textLength="27" x="446" y="523.4585">User:</text><text fill="#333333" font-family="Helvetica" font-size="11" lengthAdjust="spacing" textLength="63" x="428" y="534.4585">Refuses tally</text><text fill="#333333" font-family="Helvetica" font-size="11" lengthAdjust="spacing" textLength="67" x="426" y="545.4585">/Request void</text></g><!--link offerVoid to void--><g id="link_offerVoid_void"><path d="M740.51,595.1383 C753.45,584.7883 767.92,572.3983 780,559.9883 C806.72,532.5283 833.2,497.5383 850.83,472.8083 " fill="none" id="offerVoid-to-void" style="stroke:#FF0000;stroke-width:1.0;"/><polygon fill="#FF0000" points="853.58,468.9283,845.1123,473.958,850.6887,473.0076,851.6391,478.584,853.58,468.9283" style="stroke:#FF0000;stroke-width:1.0;"/><text fill="#FF0000" font-family="Helvetica" font-size="11" lengthAdjust="spacing" textLength="31" x="856.5" y="523.4585">Agent:</text><text fill="#333333" font-family="Helvetica" font-size="11" lengthAdjust="spacing" textLength="88" x="828" y="534.4585">Req:void detected</text><text fill="#333333" font-family="Helvetica" font-size="11" lengthAdjust="spacing" textLength="88" x="828" y="545.4585">/Transmit Act:void</text></g><!--link pOffer to offerDraft--><g id="link_pOffer_offerDraft"><path d="M307.07,473.4683 C298.97,498.4083 292.54,533.3683 307,559.9883 C313.91,572.6983 324.73,583.1783 336.62,591.6383 " fill="none" id="pOffer-to-offerDraft" style="stroke:#008000;stroke-width:1.0;"/><polygon fill="#008000" points="340.52,594.2983,335.3364,585.9239,336.3886,591.482,330.8304,592.5342,340.52,594.2983" style="stroke:#008000;stroke-width:1.0;"/><text fill="#008000" font-family="Helvetica" font-size="11" lengthAdjust="spacing" textLength="27" x="332.5" y="517.9585">User:</text><text fill="#333333" font-family="Helvetica" font-size="11" lengthAdjust="spacing" textLength="71" x="310.5" y="528.9585">Will revise tally</text><text fill="#333333" font-family="Helvetica" font-size="11" lengthAdjust="spacing" textLength="76" x="308" y="539.9585">[valid signature]</text><text fill="#333333" font-family="Helvetica" font-size="11" lengthAdjust="spacing" textLength="69" x="311.5" y="550.9585">/Request draft</text></g><!--link offerDraft to pDraft--><g id="link_offerDraft_pDraft"><path d="M419.44,595.1983 C437.4,571.6883 467.05,539.1283 502,525.0683 C568.21,498.4483 758.6,553.4183 872.63,590.9383 " fill="none" id="offerDraft-to-pDraft" style="stroke:#FF0000;stroke-width:1.0;"/><polygon fill="#FF0000" points="877.24,592.4583,869.9368,585.8505,872.4895,590.8986,867.4413,593.4513,877.24,592.4583" style="stroke:#FF0000;stroke-width:1.0;"/><text fill="#FF0000" font-family="Helvetica" font-size="11" lengthAdjust="spacing" textLength="31" x="532.5" y="523.4585">Agent:</text><text fill="#333333" font-family="Helvetica" font-size="11" lengthAdjust="spacing" textLength="90" x="503" y="534.4585">Req:draft detected</text><text fill="#333333" font-family="Helvetica" font-size="11" lengthAdjust="spacing" textLength="90" x="503" y="545.4585">/Transmit Act:draft</text></g><!--link pOffer to offerOpen--><g id="link_pOffer_offerOpen"><path d="M240.6,473.3683 C229.17,481.3183 218.95,491.0883 212,502.9883 C196.86,528.9183 199.06,563.8383 203.7,588.9583 " fill="none" id="pOffer-to-offerOpen" style="stroke:#008000;stroke-width:1.0;"/><polygon fill="#008000" points="204.63,593.6383,206.8088,584.0334,203.6604,588.7332,198.9606,585.5848,204.63,593.6383" style="stroke:#008000;stroke-width:1.0;"/><text fill="#008000" font-family="Helvetica" font-size="11" lengthAdjust="spacing" textLength="27" x="237.5" y="517.9585">User:</text><text fill="#333333" font-family="Helvetica" font-size="11" lengthAdjust="spacing" textLength="62" x="220" y="528.9585">Accepts tally</text><text fill="#333333" font-family="Helvetica" font-size="11" lengthAdjust="spacing" textLength="76" x="213" y="539.9585">[valid signature]</text><text fill="#333333" font-family="Helvetica" font-size="11" lengthAdjust="spacing" textLength="71" x="215.5" y="550.9585">/Request open</text></g><!--link offerOpen to open--><g id="link_offerOpen_open"><path d="M244.42,648.9483 C289.91,685.3783 372.81,751.7683 423.88,792.6583 " fill="none" id="offerOpen-to-open" style="stroke:#FF0000;stroke-width:1.0;"/><polygon fill="#FF0000" points="427.54,795.5883,423.0031,786.8466,423.6329,792.4683,418.0112,793.098,427.54,795.5883" style="stroke:#FF0000;stroke-width:1.0;"/><text fill="#FF0000" font-family="Helvetica" font-size="11" lengthAdjust="spacing" textLength="31" x="365.5" y="695.4585">Agent:</text><text fill="#333333" font-family="Helvetica" font-size="11" lengthAdjust="spacing" textLength="96" x="333" y="706.4585">Req:agree detected</text><text fill="#333333" font-family="Helvetica" font-size="11" lengthAdjust="spacing" textLength="92" x="335" y="717.4585">/Transmit Act:open</text></g><!--link draftOffer to hOffer--><g id="link_draftOffer_hOffer"><path d="M932.81,108.8783 C885.62,135.2483 818.29,172.8683 769.63,200.0483 " fill="none" id="draftOffer-to-hOffer" style="stroke:#FF0000;stroke-width:1.0;"/><polygon fill="#FF0000" points="765.41,202.4083,775.2165,201.496,769.7713,199.9631,771.3042,194.5179,765.41,202.4083" style="stroke:#FF0000;stroke-width:1.0;"/><text fill="#FF0000" font-family="Helvetica" font-size="11" lengthAdjust="spacing" textLength="31" x="903.5" y="147.9585">Agent:</text><text fill="#333333" font-family="Helvetica" font-size="11" lengthAdjust="spacing" textLength="90" x="874" y="158.9585">Req:offer detected</text><text fill="#333333" font-family="Helvetica" font-size="11" lengthAdjust="spacing" textLength="90" x="874" y="169.9585">/Transmit Act:offer</text></g><!--link hOffer to open--><g id="link_hOffer_open"><path d="M698.33,267.6783 C680.02,325.8583 638.24,454.5883 595,559.9883 C560.47,644.1583 513.11,739.8083 487.07,790.9983 " fill="none" id="hOffer-to-open" style="stroke:#0000FF;stroke-width:1.0;"/><polygon fill="#0000FF" points="484.85,795.3583,492.5004,789.1557,487.1203,790.9034,485.3726,785.5233,484.85,795.3583" style="stroke:#0000FF;stroke-width:1.0;"/><text fill="#0000FF" font-family="Helvetica" font-size="11" lengthAdjust="spacing" textLength="26" x="673" y="512.4585">Peer:</text><text fill="#333333" font-family="Helvetica" font-size="11" lengthAdjust="spacing" textLength="119" x="626.5" y="523.4585">Receive fully signed tally</text><text fill="#333333" font-family="Helvetica" font-size="11" lengthAdjust="spacing" textLength="65" x="653.5" y="534.4585">[Tally is valid]</text><text fill="#333333" font-family="Helvetica" font-size="11" lengthAdjust="spacing" textLength="49" x="661.5" y="545.4585">/Act: open</text><text fill="#333333" font-family="Helvetica" font-size="11" lengthAdjust="spacing" textLength="136" x="618" y="556.4585">Also transmit ack /Act: open</text></g><!--link hOffer to void--><g id="link_hOffer_void"><path d="M733.27,267.8383 C764.22,306.2483 816.34,370.9183 847.12,409.1083 " fill="none" id="hOffer-to-void" style="stroke:#0000FF;stroke-width:1.0;"/><polygon fill="#0000FF" points="850.18,412.9183,847.6473,403.4006,847.0426,409.0251,841.4182,408.4204,850.18,412.9183" style="stroke:#0000FF;stroke-width:1.0;"/><text fill="#0000FF" font-family="Helvetica" font-size="11" lengthAdjust="spacing" textLength="26" x="839" y="317.9585">Peer:</text><text fill="#333333" font-family="Helvetica" font-size="11" lengthAdjust="spacing" textLength="101" x="801.5" y="328.9585">Receive peer refusal</text><text fill="#333333" font-family="Helvetica" font-size="11" lengthAdjust="spacing" textLength="104" x="800" y="339.9585">/Act: void; Notify user</text></g><!--link hOffer to pOffer--><g id="link_hOffer_pOffer"><path d="M644.31,246.8783 C601.42,255.8083 544.73,271.4783 500,297.4883 C468.48,315.8183 469.08,331.2283 441,354.4883 C419.63,372.1783 394.79,390.1483 373.2,405.0083 " fill="none" id="hOffer-to-pOffer" style="stroke:#0000FF;stroke-width:1.0;"/><polygon fill="#0000FF" points="369.32,407.6583,379.0067,405.8786,373.4469,404.8354,374.4901,399.2755,369.32,407.6583" style="stroke:#0000FF;stroke-width:1.0;"/><text fill="#0000FF" font-family="Helvetica" font-size="11" lengthAdjust="spacing" textLength="26" x="541" y="317.9585">Peer:</text><text fill="#333333" font-family="Helvetica" font-size="11" lengthAdjust="spacing" textLength="105" x="501.5" y="328.9585">Receive modified tally</text><text fill="#333333" font-family="Helvetica" font-size="11" lengthAdjust="spacing" textLength="106" x="501" y="339.9585">/Act: offer; Notify user</text></g><!--link void to pOffer--><g id="link_void_pOffer"><path d="M804.08,440.9883 C706.46,440.9883 526.08,440.9883 415.21,440.9883 " fill="none" id="void-to-pOffer" style="stroke:#0000FF;stroke-width:1.0;"/><polygon fill="#0000FF" points="410.51,440.9883,419.51,444.9883,415.51,440.9883,419.51,436.9883,410.51,440.9883" style="stroke:#0000FF;stroke-width:1.0;"/><text fill="#0000FF" font-family="Helvetica" font-size="11" lengthAdjust="spacing" textLength="26" x="593.5" y="412.4585">Peer:</text><text fill="#333333" font-family="Helvetica" font-size="11" lengthAdjust="spacing" textLength="105" x="554" y="423.4585">Receive modified tally</text><text fill="#333333" font-family="Helvetica" font-size="11" lengthAdjust="spacing" textLength="106" x="553.5" y="434.4585">/Act: offer; Notify user</text></g><!--link open to cOpen--><g id="link_open_cOpen"><path d="M542.77,828.9883 C582.83,828.9883 632.22,828.9883 673.17,828.9883 " fill="none" id="open-to-cOpen" style="stroke:#008000;stroke-width:1.0;"/><polygon fill="#008000" points="678.15,828.9883,669.15,824.9883,673.15,828.9883,669.15,832.9883,678.15,828.9883" style="stroke:#008000;stroke-width:1.0;"/><text fill="#008000" font-family="Helvetica" font-size="11" lengthAdjust="spacing" textLength="27" x="597.75" y="800.4585">User:</text><text fill="#333333" font-family="Helvetica" font-size="11" lengthAdjust="spacing" textLength="101" x="560.75" y="811.4585">Issues close/call chit</text><text fill="#333333" font-family="Helvetica" font-size="11" lengthAdjust="spacing" textLength="76" x="573.25" y="822.4585">/Set closing flag</text></g><!--link cOpen to close--><g id="link_cOpen_close"><path d="M828.3,828.9883 C866.22,828.9883 912.17,828.9883 949.8,828.9883 " fill="none" id="cOpen-to-close" style="stroke:#000000;stroke-width:1.0;"/><polygon fill="#000000" points="954.73,828.9883,945.73,824.9883,949.73,828.9883,945.73,832.9883,954.73,828.9883" style="stroke:#000000;stroke-width:1.0;"/><text fill="#000000" font-family="Helvetica" font-size="11" lengthAdjust="spacing" textLength="39" x="872.75" y="800.4585">Internal:</text><text fill="#333333" font-family="Helvetica" font-size="11" lengthAdjust="spacing" textLength="90" x="847.25" y="811.4585">(No explicit action)</text><text fill="#333333" font-family="Helvetica" font-size="11" lengthAdjust="spacing" textLength="92" x="846.25" y="822.4585">[Tally sum hit zero]</text></g><!--link tradable to openOpen--><g id="link_tradable_openOpen"><path d="M15.56,828.9883 C21.95,828.9883 82.28,828.9883 133.89,828.9883 " fill="none" id="tradable-to-openOpen" style="stroke:#000000;stroke-width:1.0;"/><polygon fill="#000000" points="138.62,828.9883,129.62,824.9883,133.62,828.9883,129.62,832.9883,138.62,828.9883" style="stroke:#000000;stroke-width:1.0;"/><text fill="#333333" font-family="Helvetica" font-size="11" lengthAdjust="spacing" textLength="89" x="33.43" y="822.4585">Consensus check</text></g><!--link openOpen to open--><g id="link_openOpen_open"><path d="M277.73,828.9883 C311.16,828.9883 351.59,828.9883 386.57,828.9883 " fill="none" id="openOpen-to-open" style="stroke:#FF0000;stroke-width:1.0;"/><polygon fill="#FF0000" points="391.52,828.9883,382.52,824.9883,386.52,828.9883,382.52,832.9883,391.52,828.9883" style="stroke:#FF0000;stroke-width:1.0;"/><text fill="#333333" font-family="Helvetica" font-size="11" lengthAdjust="spacing" textLength="79" x="296" y="822.4585">Re-transmit tally</text></g><text fill="#888888" font-family="sans-serif" font-size="10" lengthAdjust="spacing" textLength="145" x="545.5" y="899.6563">Fri Nov 03 11:44:28 MDT 2023</text><!--SRC=[dLPDR-Cs4BthLx1104U0dTnTe40Q5yWUcWJPRNjeUg2fiSL69hKYvJGj-jztXgGeKh4Ij2URck6RDz_yJYhHz1KmeGy7hIxR_j0KnRcLje6BBxnfNjbdoosmZUJxZX_AmhZZcTxjeBiyQbcTCMwOE_wAfrnUTNndHuKD7NCDtO8Q5UxnDCZTtKltsIcuypqTWyQBxfwbshD_2iR2dOV4OkkjHTaegN91T8B-5Fy6TDlnYcyRIE57iiGp-toPoUup-Sqe54uos42-etzjwjlPRIAfCubej04FHl-AOk4pL87biZ750rkpdvJjNelR-2-c1x-GTc_MFk1BzWXVrzxpLEbw3yhYZx1IAwO0AgYAOapY38wFRARs3XB5OWR81JXLEWrJJRYuSu1GVTD4XLyCT6ick687NSdTwnB3rO259PFgA2r6iTryX1KrRhJ2K2jC6U-iWeu9wApSIO5f6BNcJJg_0dcNsXchNYzJkwK2KzYLFQ8p8_SAhtMGAys4FDHb6d4yPW4VLKvZ7FCIecCQeI1-wpbMgg8OJxrDK-vZF6WyGEgVytaKZWQu4D1Yl3hOOKJezoYf9-eFBTKfsDHIBdpXqXgsqnrhWHAdPwFea8FuvzvOLlCZiAsszMZ130gZ5nryxG6rGqEB-_SD3F8RLAS1A6ffMOl8cB9HYBWqmp0en9_qo8E_eTDeWGmb5jmvCn4KxhHQqHMsvGrN0lx3rH_z3IPDC1hc599IHhgowle6p1hdrEhtSoheFrO_iA5ZpvtUXVk-T6cuGFhcrLWub4_AgHaip1TcQKsLEFSGXH94AB5K1XWIB1z1WCI4j9rkaMJbhowFlC6wZGbQOj67WdbITnexsxTR6QP9QcOpOPkPCVtsJn2MMIcUmGOpD2kM6Me0cSPWwi4O269gfjol2DYWRLzAZduPMou1JyTyXlteUcW0Pek5owf3eyOkamM1SDMMm8uvJhKb0clt5VSHEW_L4e6-aFY0LKgXzM1pp3Qdyl-RR9hGspCvYrHTxCfq1qMoRx8LwFgqpl8DY7E4GxzbVA_TM38VSQN6BjDb6Adg73GGnISOm3pH09TKJyIhfzKK49tf4N625sgeZc13tK_ekQfdGzdlUdesahknmzZ2loLn5hXWO6dv9aES9tNT6Et70bdcufbTHUb9yvEgotkR5eTR1xpnHUomwChtBEkxjxZlJmstp6JYK_I2Rat0Zw5D_XVqkyX-VQmwkQ_jM8hYL1coJyPWeVaPVIKGs-qAJ_qp-8NZDaF3zsLO7HwP8CCW3v2Vb8LEOL0N5tUQmLzj8uLB5uto4alHPTZq1qRhY4O-Seslw8YQl37m7OKho_H8i0RnF3u_1kUoNdY4LQmH5wRY6m00]--></g></svg>