<?xml version="1.0" encoding="UTF-8" standalone="no"?><svg xmlns="http://www.w3.org/2000/svg" xmlns:xlink="http://www.w3.org/1999/xlink" contentStyleType="text/css" height="1022px" preserveAspectRatio="none" style="width:1100px;height:1022px;background:#FFFFFF;" version="1.1" viewBox="0 0 1100 1022" width="1100px" zoomAndPan="magnify"><defs/><g><text fill="#000000" font-family="sans-serif" font-size="14" font-weight="bold" lengthAdjust="spacing" textLength="143" x="471.75" y="23.5352">Tally State Diagram</text><!--cluster working--><g id="cluster_working"><path d="M650,370.4883 L997,370.4883 A12.5,12.5 0 0 1 1009.5,382.9883 L1009.5,386.4883 L637.5,386.4883 L637.5,382.9883 A12.5,12.5 0 0 1 650,370.4883 " fill="#E8E8EA" style="stroke:#E8E8EA;stroke-width:1.0;"/><rect fill="none" height="288.5" rx="12.5" ry="12.5" style="stroke:#202024;stroke-width:0.5;" width="372" x="637.5" y="370.4883"/><line style="stroke:#202024;stroke-width:0.5;" x1="637.5" x2="1009.5" y1="386.4883" y2="386.4883"/><text fill="#000033" font-family="Helvetica" font-size="11" lengthAdjust="spacing" textLength="38" x="804.5" y="382.9585">working</text></g><!--cluster tradable--><g id="cluster_tradable"><path d="M301,873.9883 L743,873.9883 A12.5,12.5 0 0 1 755.5,886.4883 L755.5,889.9883 L288.5,889.9883 L288.5,886.4883 A12.5,12.5 0 0 1 301,873.9883 " fill="#E8E8EA" style="stroke:#E8E8EA;stroke-width:1.0;"/><rect fill="none" height="124" rx="12.5" ry="12.5" style="stroke:#202024;stroke-width:0.5;" width="467" x="288.5" y="873.9883"/><line style="stroke:#202024;stroke-width:0.5;" x1="288.5" x2="755.5" y1="889.9883" y2="889.9883"/><text fill="#000033" font-family="Helvetica" font-size="11" lengthAdjust="spacing" textLength="39" x="502.5" y="886.4585">tradable</text></g><g id="working.pDraft"><rect fill="#E8E8EA" height="64" rx="12.5" ry="12.5" style="stroke:#202024;stroke-width:0.5;" width="166" x="728.5" y="578.9883"/><line style="stroke:#202024;stroke-width:0.5;" x1="728.5" x2="894.5" y1="599.9883" y2="599.9883"/><text fill="#000033" font-family="Helvetica" font-size="11" lengthAdjust="spacing" textLength="32" x="795.5" y="592.4585">P.draft</text><text fill="#000033" font-family="Helvetica" font-size="11" lengthAdjust="spacing" textLength="107" x="733.5" y="613.4585">Status: draft, Req: null</text><text fill="#000033" font-family="Helvetica" font-size="11" lengthAdjust="spacing" textLength="131" x="733.5" y="624.4585">Contains partner certificate</text><text fill="#000033" font-family="Helvetica" font-size="11" lengthAdjust="spacing" textLength="146" x="733.5" y="635.4585">User: can modify, delete, offer</text></g><g id="working.draft"><rect fill="#E8E8EA" height="53" rx="12.5" ry="12.5" style="stroke:#202024;stroke-width:0.5;" width="169" x="824" y="414.4883"/><line style="stroke:#202024;stroke-width:0.5;" x1="824" x2="993" y1="435.4883" y2="435.4883"/><text fill="#000033" font-family="Helvetica" font-size="11" lengthAdjust="spacing" textLength="22" x="897.5" y="427.9585">draft</text><text fill="#000033" font-family="Helvetica" font-size="11" lengthAdjust="spacing" textLength="107" x="829" y="448.9585">Status: draft, Req: null</text><text fill="#000033" font-family="Helvetica" font-size="11" lengthAdjust="spacing" textLength="149" x="829" y="459.9585">User: can modify, delete, invite</text></g><g id="working.void"><rect fill="#E8E8EA" height="53" rx="12.5" ry="12.5" style="stroke:#202024;stroke-width:0.5;" width="135" x="654" y="414.4883"/><line style="stroke:#202024;stroke-width:0.5;" x1="654" x2="789" y1="435.4883" y2="435.4883"/><text fill="#000033" font-family="Helvetica" font-size="11" lengthAdjust="spacing" textLength="20" x="711.5" y="427.9585">void</text><text fill="#000033" font-family="Helvetica" font-size="11" lengthAdjust="spacing" textLength="105" x="659" y="448.9585">Status: void, Req: null</text><text fill="#000033" font-family="Helvetica" font-size="11" lengthAdjust="spacing" textLength="115" x="659" y="459.9585">User: can modify, clone</text></g><g id="tradable.open"><rect fill="#E8E8EA" height="64" rx="12.5" ry="12.5" style="stroke:#202024;stroke-width:0.5;" width="149" x="305" y="917.9883"/><line style="stroke:#202024;stroke-width:0.5;" x1="305" x2="454" y1="938.9883" y2="938.9883"/><text fill="#000033" font-family="Helvetica" font-size="11" lengthAdjust="spacing" textLength="24" x="367.5" y="931.4585">open</text><text fill="#000033" font-family="Helvetica" font-size="11" lengthAdjust="spacing" textLength="109" x="310" y="952.4585">Status: open, Req: null</text><text fill="#000033" font-family="Helvetica" font-size="11" lengthAdjust="spacing" textLength="129" x="310" y="963.4585">Must have both signatures</text><text fill="#000033" font-family="Helvetica" font-size="11" lengthAdjust="spacing" textLength="117" x="310" y="974.4585">User: can request close</text></g><g id="tradable.cOpen"><rect fill="#E8E8EA" height="64" rx="12.5" ry="12.5" style="stroke:#202024;stroke-width:0.5;" width="148" x="591.5" y="917.9883"/><line style="stroke:#202024;stroke-width:0.5;" x1="591.5" x2="739.5" y1="938.9883" y2="938.9883"/><text fill="#000033" font-family="Helvetica" font-size="11" lengthAdjust="spacing" textLength="35" x="648" y="931.4585">C.open</text><text fill="#000033" font-family="Helvetica" font-size="11" lengthAdjust="spacing" textLength="109" x="596.5" y="952.4585">Status: open, Req: null</text><text fill="#000033" font-family="Helvetica" font-size="11" lengthAdjust="spacing" textLength="96" x="596.5" y="963.4585">Closing chit present</text><text fill="#000033" font-family="Helvetica" font-size="11" lengthAdjust="spacing" textLength="128" x="596.5" y="974.4585">Can trade, waiting for zero</text></g><g id="pOfferVoid"><rect fill="#E8E8EA" height="53" rx="12.5" ry="12.5" style="stroke:#202024;stroke-width:0.5;" width="131" x="490" y="584.4883"/><line style="stroke:#202024;stroke-width:0.5;" x1="490" x2="621" y1="605.4883" y2="605.4883"/><text fill="#000033" font-family="Helvetica" font-size="11" lengthAdjust="spacing" textLength="55" x="528" y="597.9585">P.offer.void</text><text fill="#000033" font-family="Helvetica" font-size="11" lengthAdjust="spacing" textLength="111" x="495" y="618.9585">Status: offer, Req: void</text><text fill="#000033" font-family="Helvetica" font-size="11" lengthAdjust="spacing" textLength="103" x="495" y="629.9585">Agent: Action needed</text></g><g id="pOfferDraft"><rect fill="#E8E8EA" height="53" rx="12.5" ry="12.5" style="stroke:#202024;stroke-width:0.5;" width="133" x="200" y="584.4883"/><line style="stroke:#202024;stroke-width:0.5;" x1="200" x2="333" y1="605.4883" y2="605.4883"/><text fill="#000033" font-family="Helvetica" font-size="11" lengthAdjust="spacing" textLength="57" x="238" y="597.9585">P.offer.draft</text><text fill="#000033" font-family="Helvetica" font-size="11" lengthAdjust="spacing" textLength="113" x="205" y="618.9585">Status: offer, Req: draft</text><text fill="#000033" font-family="Helvetica" font-size="11" lengthAdjust="spacing" textLength="103" x="205" y="629.9585">Agent: Action needed</text></g><g id="BOfferAgree"><rect fill="#E8E8EA" height="53" rx="12.5" ry="12.5" style="stroke:#202024;stroke-width:0.5;" width="139" x="7" y="584.4883"/><line style="stroke:#202024;stroke-width:0.5;" x1="7" x2="146" y1="605.4883" y2="605.4883"/><text fill="#000033" font-family="Helvetica" font-size="11" lengthAdjust="spacing" textLength="63" x="45" y="597.9585">B.offer.agree</text><text fill="#000033" font-family="Helvetica" font-size="11" lengthAdjust="spacing" textLength="119" x="12" y="618.9585">Status: offer, Req: agree</text><text fill="#000033" font-family="Helvetica" font-size="11" lengthAdjust="spacing" textLength="103" x="12" y="629.9585">Agent: Action needed</text></g><g id="draftOffer"><rect fill="#E8E8EA" height="64" rx="12.5" ry="12.5" style="stroke:#202024;stroke-width:0.5;" width="136" x="800.5" y="44.4883"/><line style="stroke:#202024;stroke-width:0.5;" x1="800.5" x2="936.5" y1="65.4883" y2="65.4883"/><text fill="#000033" font-family="Helvetica" font-size="11" lengthAdjust="spacing" textLength="47" x="845" y="57.9585">draft.offer</text><text fill="#000033" font-family="Helvetica" font-size="11" lengthAdjust="spacing" textLength="113" x="805.5" y="78.9585">Status: draft, Req: offer</text><text fill="#000033" font-family="Helvetica" font-size="11" lengthAdjust="spacing" textLength="116" x="805.5" y="89.9585">Has only user signature</text><text fill="#000033" font-family="Helvetica" font-size="11" lengthAdjust="spacing" textLength="103" x="805.5" y="100.9585">Agent: Action needed</text></g><g id="pOffer"><rect fill="#E8E8EA" height="64" rx="12.5" ry="12.5" style="stroke:#202024;stroke-width:0.5;" width="177" x="132" y="408.9883"/><line style="stroke:#202024;stroke-width:0.5;" x1="132" x2="309" y1="429.9883" y2="429.9883"/><text fill="#000033" font-family="Helvetica" font-size="11" lengthAdjust="spacing" textLength="32" x="204.5" y="422.4585">P.offer</text><text fill="#000033" font-family="Helvetica" font-size="11" lengthAdjust="spacing" textLength="107" x="137" y="443.4585">Status: offer, Req: null</text><text fill="#000033" font-family="Helvetica" font-size="11" lengthAdjust="spacing" textLength="94" x="137" y="454.4585">Peer signature only</text><text fill="#000033" font-family="Helvetica" font-size="11" lengthAdjust="spacing" textLength="157" x="137" y="465.4585">User: can accept, refuse, revise</text></g><g id="hOffer"><rect fill="#E8E8EA" height="64" rx="12.5" ry="12.5" style="stroke:#202024;stroke-width:0.5;" width="127" x="466" y="203.4883"/><line style="stroke:#202024;stroke-width:0.5;" x1="466" x2="593" y1="224.4883" y2="224.4883"/><text fill="#000033" font-family="Helvetica" font-size="11" lengthAdjust="spacing" textLength="33" x="513" y="216.9585">H.offer</text><text fill="#000033" font-family="Helvetica" font-size="11" lengthAdjust="spacing" textLength="107" x="471" y="237.9585">Status: offer, Req: null</text><text fill="#000033" font-family="Helvetica" font-size="11" lengthAdjust="spacing" textLength="95" x="471" y="248.9585">User signature only</text><text fill="#000033" font-family="Helvetica" font-size="11" lengthAdjust="spacing" textLength="93" x="471" y="259.9585">User waits for peer</text></g><g id="hAgree"><rect fill="#E8E8EA" height="53" rx="12.5" ry="12.5" style="stroke:#202024;stroke-width:0.5;" width="133" x="241" y="739.9883"/><line style="stroke:#202024;stroke-width:0.5;" x1="241" x2="374" y1="760.9883" y2="760.9883"/><text fill="#000033" font-family="Helvetica" font-size="11" lengthAdjust="spacing" textLength="39" x="288" y="753.4585">H.agree</text><text fill="#000033" font-family="Helvetica" font-size="11" lengthAdjust="spacing" textLength="113" x="246" y="774.4585">Status: agree, Req: null</text><text fill="#000033" font-family="Helvetica" font-size="11" lengthAdjust="spacing" textLength="93" x="246" y="785.4585">Has user signature</text></g><g id="bAgree"><rect fill="#E8E8EA" height="64" rx="12.5" ry="12.5" style="stroke:#202024;stroke-width:0.5;" width="139" x="378" y="408.9883"/><line style="stroke:#202024;stroke-width:0.5;" x1="378" x2="517" y1="429.9883" y2="429.9883"/><text fill="#000033" font-family="Helvetica" font-size="11" lengthAdjust="spacing" textLength="38" x="428.5" y="422.4585">B.agree</text><text fill="#000033" font-family="Helvetica" font-size="11" lengthAdjust="spacing" textLength="113" x="383" y="443.4585">Status: agree, Req: null</text><text fill="#000033" font-family="Helvetica" font-size="11" lengthAdjust="spacing" textLength="98" x="383" y="454.4585">Has both signatures</text><text fill="#000033" font-family="Helvetica" font-size="11" lengthAdjust="spacing" textLength="119" x="383" y="465.4585">Has also local agent ack</text></g><g id="close"><rect fill="#E8E8EA" height="75" rx="12.5" ry="12.5" style="stroke:#202024;stroke-width:0.5;" width="131" x="868" y="912.4883"/><line style="stroke:#202024;stroke-width:0.5;" x1="868" x2="999" y1="933.4883" y2="933.4883"/><text fill="#000033" font-family="Helvetica" font-size="11" lengthAdjust="spacing" textLength="26" x="920.5" y="925.9585">close</text><text fill="#000033" font-family="Helvetica" font-size="11" lengthAdjust="spacing" textLength="111" x="873" y="946.9585">Status: close, Req: null</text><text fill="#000033" font-family="Helvetica" font-size="11" lengthAdjust="spacing" textLength="87" x="873" y="957.9585">Non-zero balance</text><text fill="#000033" font-family="Helvetica" font-size="11" lengthAdjust="spacing" textLength="111" x="873" y="968.9585">Status: close, Req: null</text><text fill="#000033" font-family="Helvetica" font-size="11" lengthAdjust="spacing" textLength="75" x="873" y="979.9585">Balance is zero</text></g><g id="P"><rect fill="#E8E8EA" height="50" rx="12.5" ry="12.5" style="stroke:#202024;stroke-width:0.5;" width="50" x="42.5" y="210.4883"/><line style="stroke:#202024;stroke-width:0.5;" x1="42.5" x2="92.5" y1="231.4883" y2="231.4883"/><text fill="#000033" font-family="Helvetica" font-size="11" lengthAdjust="spacing" textLength="7" x="64" y="223.9585">P</text><text fill="#000033" font-family="Helvetica" font-size="11" lengthAdjust="spacing" textLength="26" x="47.5" y="244.9585">Entry</text></g><g id="H"><rect fill="#E8E8EA" height="50" rx="12.5" ry="12.5" style="stroke:#202024;stroke-width:0.5;" width="50" x="883.5" y="210.4883"/><line style="stroke:#202024;stroke-width:0.5;" x1="883.5" x2="933.5" y1="231.4883" y2="231.4883"/><text fill="#000033" font-family="Helvetica" font-size="11" lengthAdjust="spacing" textLength="8" x="904.5" y="223.9585">H</text><text fill="#000033" font-family="Helvetica" font-size="11" lengthAdjust="spacing" textLength="26" x="888.5" y="244.9585">Entry</text></g><!--link H to draft--><g id="link_H_draft"><path d="M908.5,260.6283 C908.5,297.3083 908.5,367.1083 908.5,407.9783 " fill="none" id="H-to-draft" style="stroke:#008000;stroke-width:1.0;"/><polygon fill="#008000" points="908.5,412.7683,912.5,403.7683,908.5,407.7683,904.5,403.7683,908.5,412.7683" style="stroke:#008000;stroke-width:1.0;"/><text fill="#008000" font-family="Helvetica" font-size="11" lengthAdjust="spacing" textLength="27" x="938" y="317.9585">User:</text><text fill="#333333" font-family="Helvetica" font-size="11" lengthAdjust="spacing" textLength="84" x="909.5" y="328.9585">User (or system)</text><text fill="#333333" font-family="Helvetica" font-size="11" lengthAdjust="spacing" textLength="73" x="915" y="339.9585">drafts new tally</text></g><!--link P to pOffer--><g id="link_P_pOffer"><path d="M59.74,260.9783 C53.28,286.2583 47.58,325.9283 64.5,354.4883 C78.55,378.2083 101.76,395.7783 126.04,408.6083 " fill="none" id="P-to-pOffer" style="stroke:#0000FF;stroke-width:1.0;"/><polygon fill="#0000FF" points="130.22,410.7483,124.0369,403.0822,125.7709,408.4667,120.3864,410.2007,130.22,410.7483" style="stroke:#0000FF;stroke-width:1.0;"/><text fill="#0000FF" font-family="Helvetica" font-size="11" lengthAdjust="spacing" textLength="26" x="108" y="306.9585">Peer:</text><text fill="#333333" font-family="Helvetica" font-size="11" lengthAdjust="spacing" textLength="111" x="65.5" y="317.9585">Receive proposed tally</text><text fill="#333333" font-family="Helvetica" font-size="11" lengthAdjust="spacing" textLength="76" x="83" y="328.9585">[valid signature]</text><text fill="#333333" font-family="Helvetica" font-size="11" lengthAdjust="spacing" textLength="47" x="97.5" y="339.9585">/Act: offer</text><text fill="#333333" font-family="Helvetica" font-size="11" lengthAdjust="spacing" textLength="53" x="94.5" y="350.9585">Notify user</text></g><!--link draft to pDraft--><g id="link_draft_pDraft"><path d="M893.56,467.8683 C877.28,496.0583 851.11,541.3783 832.71,573.2483 " fill="none" id="draft-to-pDraft" style="stroke:#0000FF;stroke-width:1.0;"/><polygon fill="#0000FF" points="830.36,577.3283,838.325,571.5353,832.8607,572.9985,831.3974,567.5342,830.36,577.3283" style="stroke:#0000FF;stroke-width:1.0;"/><text fill="#0000FF" font-family="Helvetica" font-size="11" lengthAdjust="spacing" textLength="26" x="913" y="512.4585">Peer:</text><text fill="#333333" font-family="Helvetica" font-size="11" lengthAdjust="spacing" textLength="107" x="872.5" y="523.4585">Receive subject ticket</text><text fill="#333333" font-family="Helvetica" font-size="11" lengthAdjust="spacing" textLength="50" x="901" y="534.4585">[valid cert]</text><text fill="#333333" font-family="Helvetica" font-size="11" lengthAdjust="spacing" textLength="56" x="898" y="545.4585">/Notify user</text></g><!--link pDraft to draftOffer--><g id="link_pDraft_draftOffer"><path d="M894.96,598.2583 C928.04,589.6683 963.97,574.7783 988.5,548.9883 C1012.73,523.5083 1005.56,507.8083 1010.5,472.9883 C1021.46,395.6783 1026.3,371.8483 1002.5,297.4883 C988.01,252.2183 975.93,244.2583 951.5,203.4883 C933.09,172.7583 910.66,138.8983 893.76,114.0283 " fill="none" id="pDraft-to-draftOffer" style="stroke:#008000;stroke-width:1.0;"/><polygon fill="#008000" points="891.09,110.1083,892.8541,119.7979,893.9062,114.2397,899.4644,115.2919,891.09,110.1083" style="stroke:#008000;stroke-width:1.0;"/><text fill="#008000" font-family="Helvetica" font-size="11" lengthAdjust="spacing" textLength="27" x="1041.5" y="312.4585">User:</text><text fill="#333333" font-family="Helvetica" font-size="11" lengthAdjust="spacing" textLength="75" x="1017.5" y="323.4585">User signs tally</text><text fill="#333333" font-family="Helvetica" font-size="11" lengthAdjust="spacing" textLength="73" x="1018.5" y="334.4585">[valid sig/certs]</text><text fill="#333333" font-family="Helvetica" font-size="11" lengthAdjust="spacing" textLength="69" x="1020.5" y="345.4585">/Request offer</text></g><!--link pOffer to pOfferVoid--><g id="link_pOffer_pOfferVoid"><path d="M237.55,473.4083 C253.26,501.2783 276.25,539.0583 290.5,548.9883 C321.33,570.4783 416.29,588.8283 483.7,599.6383 " fill="none" id="pOffer-to-pOfferVoid" style="stroke:#008000;stroke-width:1.0;"/><polygon fill="#008000" points="488.23,600.3583,479.972,594.9913,483.2924,599.5711,478.7125,602.8915,488.23,600.3583" style="stroke:#008000;stroke-width:1.0;"/><text fill="#008000" font-family="Helvetica" font-size="11" lengthAdjust="spacing" textLength="27" x="311.5" y="517.9585">User:</text><text fill="#333333" font-family="Helvetica" font-size="11" lengthAdjust="spacing" textLength="63" x="293.5" y="528.9585">Refuses tally</text><text fill="#333333" font-family="Helvetica" font-size="11" lengthAdjust="spacing" textLength="67" x="291.5" y="539.9585">/Request void</text></g><!--link pOfferVoid to void--><g id="link_pOfferVoid_void"><path d="M581.1,584.0783 C610.85,553.9783 659.86,504.3683 691.4,472.4483 " fill="none" id="pOfferVoid-to-void" style="stroke:#FF0000;stroke-width:1.0;"/><polygon fill="#FF0000" points="694.86,468.9483,685.6892,472.5395,691.346,472.5052,691.3802,478.1619,694.86,468.9483" style="stroke:#FF0000;stroke-width:1.0;"/><text fill="#FF0000" font-family="Helvetica" font-size="11" lengthAdjust="spacing" textLength="31" x="687" y="517.9585">Agent:</text><text fill="#333333" font-family="Helvetica" font-size="11" lengthAdjust="spacing" textLength="88" x="658.5" y="528.9585">Req:void detected</text><text fill="#333333" font-family="Helvetica" font-size="11" lengthAdjust="spacing" textLength="88" x="658.5" y="539.9585">/Transmit Act:void</text></g><!--link pOffer to pOfferDraft--><g id="link_pOffer_pOfferDraft"><path d="M189.38,473.4283 C182.49,482.2883 176.16,492.4183 172.5,502.9883 C165.81,522.3083 162.74,531.0183 172.5,548.9883 C179.41,561.6983 190.23,572.1783 202.12,580.6383 " fill="none" id="pOffer-to-pOfferDraft" style="stroke:#008000;stroke-width:1.0;"/><polygon fill="#008000" points="206.02,583.2983,200.8364,574.9239,201.8886,580.482,196.3304,581.5342,206.02,583.2983" style="stroke:#008000;stroke-width:1.0;"/><text fill="#008000" font-family="Helvetica" font-size="11" lengthAdjust="spacing" textLength="27" x="198" y="512.4585">User:</text><text fill="#333333" font-family="Helvetica" font-size="11" lengthAdjust="spacing" textLength="71" x="176" y="523.4585">Will revise tally</text><text fill="#333333" font-family="Helvetica" font-size="11" lengthAdjust="spacing" textLength="76" x="173.5" y="534.4585">[valid signature]</text><text fill="#333333" font-family="Helvetica" font-size="11" lengthAdjust="spacing" textLength="69" x="177" y="545.4585">/Request draft</text></g><!--link pOfferDraft to pDraft--><g id="link_pOfferDraft_pDraft"><path d="M286.3,584.1283 C304.54,561.8283 333.84,531.7283 367.5,518.6583 C431.07,493.9783 611.9,544.9683 722.2,580.5283 " fill="none" id="pOfferDraft-to-pDraft" style="stroke:#FF0000;stroke-width:1.0;"/><polygon fill="#FF0000" points="726.94,582.0683,719.613,575.4868,722.1839,580.5258,717.145,583.0966,726.94,582.0683" style="stroke:#FF0000;stroke-width:1.0;"/><text fill="#FF0000" font-family="Helvetica" font-size="11" lengthAdjust="spacing" textLength="31" x="398" y="517.9585">Agent:</text><text fill="#333333" font-family="Helvetica" font-size="11" lengthAdjust="spacing" textLength="90" x="368.5" y="528.9585">Req:draft detected</text><text fill="#333333" font-family="Helvetica" font-size="11" lengthAdjust="spacing" textLength="90" x="368.5" y="539.9585">/Transmit Act:draft</text></g><!--link pOffer to BOfferAgree--><g id="link_pOffer_BOfferAgree"><path d="M131.73,462.6383 C111.33,471.6483 91.99,484.5483 79.5,502.9883 C64.74,524.7883 65.4,555.2283 68.93,578.0783 " fill="none" id="pOffer-to-BOfferAgree" style="stroke:#008000;stroke-width:1.0;"/><polygon fill="#008000" points="69.74,582.8083,72.1657,573.2628,68.8972,577.8798,64.2801,574.6113,69.74,582.8083" style="stroke:#008000;stroke-width:1.0;"/><text fill="#008000" font-family="Helvetica" font-size="11" lengthAdjust="spacing" textLength="27" x="105" y="512.4585">User:</text><text fill="#333333" font-family="Helvetica" font-size="11" lengthAdjust="spacing" textLength="62" x="87.5" y="523.4585">Accepts tally</text><text fill="#333333" font-family="Helvetica" font-size="11" lengthAdjust="spacing" textLength="76" x="80.5" y="534.4585">[valid signature]</text><text fill="#333333" font-family="Helvetica" font-size="11" lengthAdjust="spacing" textLength="75" x="81" y="545.4585">/Request agree</text></g><!--link BOfferAgree to hAgree--><g id="link_BOfferAgree_hAgree"><path d="M115.42,637.8583 C156.24,664.9783 220.27,707.5283 263.05,735.9483 " fill="none" id="BOfferAgree-to-hAgree" style="stroke:#FF0000;stroke-width:1.0;"/><polygon fill="#FF0000" points="267.16,738.6783,261.8903,730.3578,262.9997,735.9048,257.4527,737.0142,267.16,738.6783" style="stroke:#FF0000;stroke-width:1.0;"/><text fill="#FF0000" font-family="Helvetica" font-size="11" lengthAdjust="spacing" textLength="31" x="252" y="684.4585">Agent:</text><text fill="#333333" font-family="Helvetica" font-size="11" lengthAdjust="spacing" textLength="96" x="219.5" y="695.4585">Req:agree detected</text><text fill="#333333" font-family="Helvetica" font-size="11" lengthAdjust="spacing" textLength="96" x="219.5" y="706.4585">/Transmit Act:agree</text></g><!--link hAgree to open--><g id="link_hAgree_open"><path d="M309.05,793.1583 C310.81,811.6683 314.55,836.9883 322.5,857.9883 C329.73,877.0983 341.22,896.5283 352,912.4983 " fill="none" id="hAgree-to-open" style="stroke:#0000FF;stroke-width:1.0;"/><polygon fill="#0000FF" points="354.76,916.5283,352.9731,906.8429,351.934,912.4035,346.3734,911.3644,354.76,916.5283" style="stroke:#0000FF;stroke-width:1.0;"/><text fill="#0000FF" font-family="Helvetica" font-size="11" lengthAdjust="spacing" textLength="26" x="353.5" y="832.4585">Peer:</text><text fill="#333333" font-family="Helvetica" font-size="11" lengthAdjust="spacing" textLength="86" x="323.5" y="843.4585">Receive peer ack</text><text fill="#333333" font-family="Helvetica" font-size="11" lengthAdjust="spacing" textLength="49" x="342" y="854.4585">/Act: open</text></g><!--link draftOffer to hOffer--><g id="link_draftOffer_hOffer"><path d="M800.71,108.8783 C742.22,135.9683 658.08,174.9383 599.07,202.2683 " fill="none" id="draftOffer-to-hOffer" style="stroke:#FF0000;stroke-width:1.0;"/><polygon fill="#FF0000" points="594.81,204.2383,604.6574,204.0672,599.3431,202.1285,601.2818,196.8143,594.81,204.2383" style="stroke:#FF0000;stroke-width:1.0;"/><text fill="#FF0000" font-family="Helvetica" font-size="11" lengthAdjust="spacing" textLength="31" x="759" y="147.9585">Agent:</text><text fill="#333333" font-family="Helvetica" font-size="11" lengthAdjust="spacing" textLength="90" x="729.5" y="158.9585">Req:offer detected</text><text fill="#333333" font-family="Helvetica" font-size="11" lengthAdjust="spacing" textLength="90" x="729.5" y="169.9585">/Transmit Act:offer</text></g><!--link hOffer to bAgree--><g id="link_hOffer_bAgree"><path d="M465.8,242.7083 C429.98,249.8383 388.04,265.0583 365.5,297.4883 C341.2,332.4483 373.06,375.0483 403.88,404.5183 " fill="none" id="hOffer-to-bAgree" style="stroke:#0000FF;stroke-width:1.0;"/><polygon fill="#0000FF" points="407.31,407.7283,403.4977,398.6472,403.669,404.3015,398.0147,404.4728,407.31,407.7283" style="stroke:#0000FF;stroke-width:1.0;"/><text fill="#0000FF" font-family="Helvetica" font-size="11" lengthAdjust="spacing" textLength="26" x="421.5" y="312.4585">Peer:</text><text fill="#333333" font-family="Helvetica" font-size="11" lengthAdjust="spacing" textLength="125" x="372" y="323.4585">Receive peer acceptance</text><text fill="#333333" font-family="Helvetica" font-size="11" lengthAdjust="spacing" textLength="53" x="408" y="334.4585">/Act: agree</text><text fill="#333333" font-family="Helvetica" font-size="11" lengthAdjust="spacing" textLength="136" x="366.5" y="345.4585">Also transmit ack /Act: open</text></g><!--link bAgree to open--><g id="link_bAgree_open"><path d="M455.52,473.4483 C457.57,482.8783 459.48,493.2983 460.5,502.9883 C462.64,523.3183 462.01,528.5983 460.5,548.9883 C450.25,687.4583 449.86,723.7183 414.5,857.9883 C409.74,876.0683 402.57,895.4783 395.96,911.7183 " fill="none" id="bAgree-to-open" style="stroke:#0000FF;stroke-width:1.0;"/><polygon fill="#0000FF" points="394.13,916.1483,401.2481,909.3414,396.0287,911.5228,393.8473,906.3035,394.13,916.1483" style="stroke:#0000FF;stroke-width:1.0;"/><text fill="#0000FF" font-family="Helvetica" font-size="11" lengthAdjust="spacing" textLength="26" x="500" y="684.4585">Peer:</text><text fill="#333333" font-family="Helvetica" font-size="11" lengthAdjust="spacing" textLength="125" x="450.5" y="695.4585">Receive peer acceptance</text><text fill="#333333" font-family="Helvetica" font-size="11" lengthAdjust="spacing" textLength="49" x="488.5" y="706.4585">/Act: open</text></g><!--link hOffer to void--><g id="link_hOffer_void"><path d="M589.25,267.9683 C602.66,276.5283 616.23,286.5083 627.5,297.4883 C661.38,330.4883 689.54,377.7083 705.96,408.6083 " fill="none" id="hOffer-to-void" style="stroke:#0000FF;stroke-width:1.0;"/><polygon fill="#0000FF" points="708.18,412.8383,707.5319,403.0108,705.853,408.4128,700.451,406.7339,708.18,412.8383" style="stroke:#0000FF;stroke-width:1.0;"/><text fill="#0000FF" font-family="Helvetica" font-size="11" lengthAdjust="spacing" textLength="26" x="711.5" y="317.9585">Peer:</text><text fill="#333333" font-family="Helvetica" font-size="11" lengthAdjust="spacing" textLength="101" x="674" y="328.9585">Receive peer refusal</text><text fill="#333333" font-family="Helvetica" font-size="11" lengthAdjust="spacing" textLength="104" x="672.5" y="339.9585">/Act: void; Notify user</text></g><!--link hOffer to pOffer--><g id="link_hOffer_pOffer"><path d="M465.63,241.5383 C390.01,248.8983 270.51,265.3483 240.5,297.4883 C214.53,325.3083 212.38,370.4783 214.91,402.4983 " fill="none" id="hOffer-to-pOffer" style="stroke:#0000FF;stroke-width:1.0;"/><polygon fill="#0000FF" points="215.33,407.2183,218.518,397.8997,214.8876,402.2379,210.5494,398.6075,215.33,407.2183" style="stroke:#0000FF;stroke-width:1.0;"/><text fill="#0000FF" font-family="Helvetica" font-size="11" lengthAdjust="spacing" textLength="26" x="281.5" y="317.9585">Peer:</text><text fill="#333333" font-family="Helvetica" font-size="11" lengthAdjust="spacing" textLength="105" x="242" y="328.9585">Receive modified tally</text><text fill="#333333" font-family="Helvetica" font-size="11" lengthAdjust="spacing" textLength="106" x="241.5" y="339.9585">/Act: offer; Notify user</text></g><!--link void to pOffer--><g id="link_void_pOffer"><path d="M705.06,414.2983 C687.5,388.5983 657.04,351.3383 619.5,335.4083 C500.81,285.0383 351.86,357.6283 273.81,405.2183 " fill="none" id="void-to-pOffer" style="stroke:#0000FF;stroke-width:1.0;"/><polygon fill="#0000FF" points="269.61,407.8083,279.3725,406.5072,273.8707,405.1918,275.1861,399.69,269.61,407.8083" style="stroke:#0000FF;stroke-width:1.0;"/><text fill="#0000FF" font-family="Helvetica" font-size="11" lengthAdjust="spacing" textLength="26" x="552.5" y="317.9585">Peer:</text><text fill="#333333" font-family="Helvetica" font-size="11" lengthAdjust="spacing" textLength="105" x="513" y="328.9585">Receive modified tally</text><text fill="#333333" font-family="Helvetica" font-size="11" lengthAdjust="spacing" textLength="106" x="512.5" y="339.9585">/Act: offer; Notify user</text></g><!--link open to cOpen--><g id="link_open_cOpen"><path d="M454.27,949.9883 C494.33,949.9883 543.72,949.9883 584.67,949.9883 " fill="none" id="open-to-cOpen" style="stroke:#008000;stroke-width:1.0;"/><polygon fill="#008000" points="589.65,949.9883,580.65,945.9883,584.65,949.9883,580.65,953.9883,589.65,949.9883" style="stroke:#008000;stroke-width:1.0;"/><text fill="#008000" font-family="Helvetica" font-size="11" lengthAdjust="spacing" textLength="27" x="509.25" y="921.4585">User:</text><text fill="#333333" font-family="Helvetica" font-size="11" lengthAdjust="spacing" textLength="101" x="472.25" y="932.4585">Issues close/call chit</text><text fill="#333333" font-family="Helvetica" font-size="11" lengthAdjust="spacing" textLength="76" x="484.75" y="943.4585">/Set closing flag</text></g><!--link cOpen to close--><g id="link_cOpen_close"><path d="M739.8,949.9883 C777.72,949.9883 823.67,949.9883 861.3,949.9883 " fill="none" id="cOpen-to-close" style="stroke:#000000;stroke-width:1.0;"/><polygon fill="#000000" points="866.23,949.9883,857.23,945.9883,861.23,949.9883,857.23,953.9883,866.23,949.9883" style="stroke:#000000;stroke-width:1.0;"/><text fill="#000000" font-family="Helvetica" font-size="11" lengthAdjust="spacing" textLength="39" x="784.25" y="921.4585">Internal:</text><text fill="#333333" font-family="Helvetica" font-size="11" lengthAdjust="spacing" textLength="90" x="758.75" y="932.4585">(No explicit action)</text><text fill="#333333" font-family="Helvetica" font-size="11" lengthAdjust="spacing" textLength="92" x="757.75" y="943.4585">[Tally sum hit zero]</text></g><text fill="#888888" font-family="sans-serif" font-size="10" lengthAdjust="spacing" textLength="150" x="468.25" y="1012.6563">Tue Oct 17 15:40:02 MDT 2023</text><!--SRC=[dLTDRzms4BthLx21WRM0jNtV0WLiRm3d4CTmqlPGzq19iol6N58HgNNT8lyzCoGbaTgL5yt9IytZcpV3-O1_4QgKNGMirBkTLfTDjvDPTcQ5bN3-XKlvoZvRRe6j1T-sV9TdnXtVFLpgpGRQoxqMrJl63Mi-qVaFF4uXLSitDiAiwTo3RW88sG4SwCQ1hkdSWno31pg8EpjOGBpezbceBVilOspm7ldrBWVRQAbImn0D_SY-1tRRyeeN4c9wtO1oIFenVhwz70pb9x9ydsGZoaDlkOiizSGofgLECd8JMOh4Kafj_7VtAyiM_W4hi5n8apsm5NklRFkQtGs_nhV3JmJlp8evKKls2DzMFXq9wdeBokAVqWgjc0AeeCgow85dc7p2KznnhgWEPhXS2YQuurpLH94x1nRLIJa0VZVGhbZ95TlfIcnUbvWt2HQMJAYzi9ZEPdsAQq3SQeKvL_ZUlBKAMbP2QyL6bFWU8shUfOirY7T1pdZrk0HsHvMfi7ixP6T6R1LUQo457S_LFYq3EiRH1VEXQYmt1Nq9pBoOpq-FU81OczCx6aS7l2oXmLXRs60qz7SlgB3havxgc6pgAJM-S64Ds-YMDK19hwU5vuej8UyHbEj9chFYvFKYlbveMu_NJMhaqcWcTSabik2BOKAUiupcJ1mx7cFwOFxO6SjgleS35m4mfhc5RnqWEemDDxxUSD3RRn5EexUiXMKDCgF2qOYyD3qnSaemuIZ5_qAhqGCvYZouS-8Y0Ewrkg0hhE2IgnB-nzKRVuC94vo6QOYYb16kxjjEWbdXDBpuwuoUyU-BtrW_3iuSxjnzNxewEKVvvjLOsELFoi4CTiuBixGhSvoko48LH2n3BVSqP5W-GWa27wHfTOCYAtzrkUSI6sjue2LsPQZe9tMlSMpuNix3g8hTh2Tg4pUcAxv2QPaLvJFOu8O6qJ9X3IJJ74mZ61D1IirK-nKH6_JjIyd9puUP494dkoGXVtHTtZEpnS8zgwEZqPF7QmW9guBezYbHLP24bVkAUm_3Xsg9J5_8lCCwfUHwjcnnA6u-yeyqwmIOcJTZay3dubuVAwy_XPHXjfsYTmBpP8iEgJYeXf0CNpQpsGYKHoId-pMHVEqcyybikDcNfnjzq5jFcODUTsbUR-2i1xQ-6y9SItg13Jr76mV7fwyhtsA8pvCbEqgRra2Gvbvtb9OAwsk-7iXwPSKqqgFQAACqiYA9BjOdTKrxmFQ-C0fs5KLG_5GcZdWB2JdKFscoT9WHdLlGN4PSTELNbWoQGzwtn-JEjrmL3uHnDax8zs4g_1Jrcyn-NrwqOblRiJVwFPTq1VjW3DQzNqfNkBQbMuvU-cVm6zQjGictUTYLdfaem-OAb1-KXLPXKXVdzvh1FuqKfNjzsbqvDeNx7yrqEqRxbtPSdlq0]--></g></svg>