<?xml version="1.0" encoding="UTF-8" standalone="no"?><svg xmlns="http://www.w3.org/2000/svg" xmlns:xlink="http://www.w3.org/1999/xlink" contentStyleType="text/css" height="969px" preserveAspectRatio="none" style="width:1004px;height:969px;background:#FFFFFF;" version="1.1" viewBox="0 0 1004 969" width="1004px" zoomAndPan="magnify"><defs/><g><text fill="#000000" font-family="sans-serif" font-size="14" font-weight="bold" lengthAdjust="spacing" textLength="127" x="431.5" y="23.5352">Direct Chit States</text><!--cluster good--><g id="cluster_good"><path d="M84.5,674.4883 L617.5,674.4883 A12.5,12.5 0 0 1 630,686.9883 L630,717.4883 L72,717.4883 L72,686.9883 A12.5,12.5 0 0 1 84.5,674.4883 " fill="#E8E8EA" style="stroke:#E8E8EA;stroke-width:1.0;"/><rect fill="none" height="153" rx="12.5" ry="12.5" style="stroke:#202024;stroke-width:0.5;" width="558" x="72" y="674.4883"/><line style="stroke:#202024;stroke-width:0.5;" x1="72" x2="630" y1="717.4883" y2="717.4883"/><line style="stroke:#202024;stroke-width:0.5;" x1="72" x2="630" y1="690.4883" y2="690.4883"/><text fill="#000033" font-family="Helvetica" font-size="11" lengthAdjust="spacing" textLength="24" x="271" y="686.9585">good</text><text fill="#000033" font-family="Helvetica" font-size="11" lengthAdjust="spacing" textLength="61" x="77" y="701.4585">Status: good</text><text fill="#000033" font-family="Helvetica" font-size="11" lengthAdjust="spacing" textLength="160" x="77" y="712.4585">Commence consensus algorithm</text></g><g id="good.lGood"><rect fill="#E8E8EA" height="53" rx="12.5" ry="12.5" style="stroke:#202024;stroke-width:0.5;" width="169" x="115.5" y="744.9883"/><line style="stroke:#202024;stroke-width:0.5;" x1="115.5" x2="284.5" y1="765.9883" y2="765.9883"/><text fill="#000033" font-family="Helvetica" font-size="11" lengthAdjust="spacing" textLength="114" x="143" y="758.4585">L.good (and Hold.good)</text><text fill="#000033" font-family="Helvetica" font-size="11" lengthAdjust="spacing" textLength="149" x="120.5" y="779.4585">Liability: Peer has been notified</text><text fill="#000033" font-family="Helvetica" font-size="11" lengthAdjust="spacing" textLength="109" x="120.5" y="790.4585">Status: good, Req: null</text></g><g id="good.aGood"><rect fill="#E8E8EA" height="64" rx="12.5" ry="12.5" style="stroke:#202024;stroke-width:0.5;" width="170" x="436" y="739.4883"/><line style="stroke:#202024;stroke-width:0.5;" x1="436" x2="606" y1="760.4883" y2="760.4883"/><text fill="#000033" font-family="Helvetica" font-size="11" lengthAdjust="spacing" textLength="113" x="464.5" y="752.9585">A.good (and Part.good)</text><text fill="#000033" font-family="Helvetica" font-size="11" lengthAdjust="spacing" textLength="150" x="441" y="773.9585">Asset: Peer has agreed/signed</text><text fill="#000033" font-family="Helvetica" font-size="11" lengthAdjust="spacing" textLength="109" x="441" y="784.9585">Status: good, Req: null</text><text fill="#000033" font-family="Helvetica" font-size="11" lengthAdjust="spacing" textLength="61" x="441" y="795.9585">User: Notice</text></g><g id="good.liftGood"><rect fill="#E8E8EA" height="64" rx="12.5" ry="12.5" style="stroke:#202024;stroke-width:0.5;" width="81" x="319.5" y="739.4883"/><line style="stroke:#202024;stroke-width:0.5;" x1="319.5" x2="400.5" y1="760.4883" y2="760.4883"/><text fill="#000033" font-family="Helvetica" font-size="11" lengthAdjust="spacing" textLength="41" x="339.5" y="752.9585">Lift.good</text><text fill="#000033" font-family="Helvetica" font-size="11" lengthAdjust="spacing" textLength="41" x="324.5" y="773.9585">Type: lift</text><text fill="#000033" font-family="Helvetica" font-size="11" lengthAdjust="spacing" textLength="61" x="324.5" y="784.9585">Status: good</text><text fill="#000033" font-family="Helvetica" font-size="11" lengthAdjust="spacing" textLength="61" x="324.5" y="795.9585">User: Notice</text></g><g id="lPendGood"><rect fill="#E8E8EA" height="64" rx="12.5" ry="12.5" style="stroke:#202024;stroke-width:0.5;" width="188" x="15" y="521.4883"/><line style="stroke:#202024;stroke-width:0.5;" x1="15" x2="203" y1="542.4883" y2="542.4883"/><text fill="#000033" font-family="Helvetica" font-size="11" lengthAdjust="spacing" textLength="168" x="25" y="534.9585">L.pend.good (and Hold.pend.good)</text><text fill="#000033" font-family="Helvetica" font-size="11" lengthAdjust="spacing" textLength="158" x="20" y="555.9585">Liability: User has agreed/signed</text><text fill="#000033" font-family="Helvetica" font-size="11" lengthAdjust="spacing" textLength="117" x="20" y="566.9585">Status: pend, Req: good</text><text fill="#000033" font-family="Helvetica" font-size="11" lengthAdjust="spacing" textLength="79" x="20" y="577.9585">Agent: Attention!</text></g><g id="lPend"><rect fill="#E8E8EA" height="64" rx="12.5" ry="12.5" style="stroke:#202024;stroke-width:0.5;" width="175" x="21.5" y="362.4883"/><line style="stroke:#202024;stroke-width:0.5;" x1="21.5" x2="196.5" y1="383.4883" y2="383.4883"/><text fill="#000033" font-family="Helvetica" font-size="11" lengthAdjust="spacing" textLength="33" x="92.5" y="375.9585">L.pend</text><text fill="#000033" font-family="Helvetica" font-size="11" lengthAdjust="spacing" textLength="155" x="26.5" y="396.9585">Liability: Open invoice from peer</text><text fill="#000033" font-family="Helvetica" font-size="11" lengthAdjust="spacing" textLength="109" x="26.5" y="407.9585">Status: pend, Req: null</text><text fill="#000033" font-family="Helvetica" font-size="11" lengthAdjust="spacing" textLength="75" x="26.5" y="418.9585">User: Attention!</text></g><g id="lPendVoid"><rect fill="#E8E8EA" height="64" rx="12.5" ry="12.5" style="stroke:#202024;stroke-width:0.5;" width="146" x="36" y="44.4883"/><line style="stroke:#202024;stroke-width:0.5;" x1="36" x2="182" y1="65.4883" y2="65.4883"/><text fill="#000033" font-family="Helvetica" font-size="11" lengthAdjust="spacing" textLength="56" x="81" y="57.9585">L.pend.void</text><text fill="#000033" font-family="Helvetica" font-size="11" lengthAdjust="spacing" textLength="126" x="41" y="78.9585">Liability: User has refused</text><text fill="#000033" font-family="Helvetica" font-size="11" lengthAdjust="spacing" textLength="113" x="41" y="89.9585">Status: pend, Req: void</text><text fill="#000033" font-family="Helvetica" font-size="11" lengthAdjust="spacing" textLength="79" x="41" y="100.9585">Agent: Attention!</text></g><g id="lVoid"><rect fill="#E8E8EA" height="53" rx="12.5" ry="12.5" style="stroke:#202024;stroke-width:0.5;" width="169" x="213.5" y="203.4883"/><line style="stroke:#202024;stroke-width:0.5;" x1="213.5" x2="382.5" y1="224.4883" y2="224.4883"/><text fill="#000033" font-family="Helvetica" font-size="11" lengthAdjust="spacing" textLength="29" x="283.5" y="216.9585">L.void</text><text fill="#000033" font-family="Helvetica" font-size="11" lengthAdjust="spacing" textLength="149" x="218.5" y="237.9585">Liability: Peer has been notified</text><text fill="#000033" font-family="Helvetica" font-size="11" lengthAdjust="spacing" textLength="105" x="218.5" y="248.9585">Status: void, Req: null</text></g><g id="aDraftPend"><rect fill="#E8E8EA" height="64" rx="12.5" ry="12.5" style="stroke:#202024;stroke-width:0.5;" width="157" x="687.5" y="362.4883"/><line style="stroke:#202024;stroke-width:0.5;" x1="687.5" x2="844.5" y1="383.4883" y2="383.4883"/><text fill="#000033" font-family="Helvetica" font-size="11" lengthAdjust="spacing" textLength="59" x="736.5" y="375.9585">A.draft.pend</text><text fill="#000033" font-family="Helvetica" font-size="11" lengthAdjust="spacing" textLength="137" x="692.5" y="396.9585">Asset: User invoicing a peer</text><text fill="#000033" font-family="Helvetica" font-size="11" lengthAdjust="spacing" textLength="115" x="692.5" y="407.9585">Status: draft, Req: pend</text><text fill="#000033" font-family="Helvetica" font-size="11" lengthAdjust="spacing" textLength="79" x="692.5" y="418.9585">Agent: Attention!</text></g><g id="aPend"><rect fill="#E8E8EA" height="64" rx="12.5" ry="12.5" style="stroke:#202024;stroke-width:0.5;" width="168" x="682" y="521.4883"/><line style="stroke:#202024;stroke-width:0.5;" x1="682" x2="850" y1="542.4883" y2="542.4883"/><text fill="#000033" font-family="Helvetica" font-size="11" lengthAdjust="spacing" textLength="34" x="749" y="534.9585">A.pend</text><text fill="#000033" font-family="Helvetica" font-size="11" lengthAdjust="spacing" textLength="148" x="687" y="555.9585">Asset: Peer has been invoiced</text><text fill="#000033" font-family="Helvetica" font-size="11" lengthAdjust="spacing" textLength="109" x="687" y="566.9585">Status: pend, Req: null</text><text fill="#000033" font-family="Helvetica" font-size="11" lengthAdjust="spacing" textLength="141" x="687" y="577.9585">User: Notice, waiting for peer</text></g><g id="aVoid"><rect fill="#E8E8EA" height="64" rx="12.5" ry="12.5" style="stroke:#202024;stroke-width:0.5;" width="138" x="788" y="739.4883"/><line style="stroke:#202024;stroke-width:0.5;" x1="788" x2="926" y1="760.4883" y2="760.4883"/><text fill="#000033" font-family="Helvetica" font-size="11" lengthAdjust="spacing" textLength="30" x="842" y="752.9585">A.void</text><text fill="#000033" font-family="Helvetica" font-size="11" lengthAdjust="spacing" textLength="118" x="793" y="773.9585">Asset: Peer has refused</text><text fill="#000033" font-family="Helvetica" font-size="11" lengthAdjust="spacing" textLength="105" x="793" y="784.9585">Status: void, Req: null</text><text fill="#000033" font-family="Helvetica" font-size="11" lengthAdjust="spacing" textLength="61" x="793" y="795.9585">User: Notice</text></g><g id="liftPend"><rect fill="#E8E8EA" height="53" rx="12.5" ry="12.5" style="stroke:#202024;stroke-width:0.5;" width="81" x="238.5" y="526.9883"/><line style="stroke:#202024;stroke-width:0.5;" x1="238.5" x2="319.5" y1="547.9883" y2="547.9883"/><text fill="#000033" font-family="Helvetica" font-size="11" lengthAdjust="spacing" textLength="41" x="258.5" y="540.4585">Lift.pend</text><text fill="#000033" font-family="Helvetica" font-size="11" lengthAdjust="spacing" textLength="41" x="243.5" y="561.4585">Type: lift</text><text fill="#000033" font-family="Helvetica" font-size="11" lengthAdjust="spacing" textLength="61" x="243.5" y="572.4585">Status: pend</text></g><g id="liftVoid"><rect fill="#E8E8EA" height="53" rx="12.5" ry="12.5" style="stroke:#202024;stroke-width:0.5;" width="77" x="392.5" y="526.9883"/><line style="stroke:#202024;stroke-width:0.5;" x1="392.5" x2="469.5" y1="547.9883" y2="547.9883"/><text fill="#000033" font-family="Helvetica" font-size="11" lengthAdjust="spacing" textLength="37" x="412.5" y="540.4585">Lift.void</text><text fill="#000033" font-family="Helvetica" font-size="11" lengthAdjust="spacing" textLength="41" x="397.5" y="561.4585">Type: lift</text><text fill="#000033" font-family="Helvetica" font-size="11" lengthAdjust="spacing" textLength="57" x="397.5" y="572.4585">Status: void</text></g><g id="linked"><rect fill="#E8E8EA" height="50" rx="12.5" ry="12.5" style="stroke:#202024;stroke-width:0.5;" width="146" x="7" y="894.4883"/><line style="stroke:#202024;stroke-width:0.5;" x1="7" x2="153" y1="915.4883" y2="915.4883"/><text fill="#000033" font-family="Helvetica" font-size="11" lengthAdjust="spacing" textLength="28" x="66" y="907.9585">linked</text><text fill="#000033" font-family="Helvetica" font-size="11" lengthAdjust="spacing" textLength="126" x="12" y="928.9585">Chit linked into hash chain</text></g><ellipse cx="348" cy="394.4883" fill="#222222" rx="10" ry="10" style="stroke:none;stroke-width:1.0;"/><!--link *start to aDraftPend--><g id="link_*start_aDraftPend"><path d="M358.33,394.4883 C402.09,394.4883 574.76,394.4883 680.84,394.4883 " fill="none" id="*start-to-aDraftPend" style="stroke:#008000;stroke-width:1.0;"/><polygon fill="#008000" points="685.59,394.4883,676.59,390.4883,680.59,394.4883,676.59,398.4883,685.59,394.4883" style="stroke:#008000;stroke-width:1.0;"/><text fill="#008000" font-family="Helvetica" font-size="11" lengthAdjust="spacing" textLength="27" x="509.25" y="365.9585">User:</text><text fill="#333333" font-family="Helvetica" font-size="11" lengthAdjust="spacing" textLength="84" x="480.75" y="376.9585">Creates draft chit</text><text fill="#333333" font-family="Helvetica" font-size="11" lengthAdjust="spacing" textLength="63" x="491.25" y="387.9585">value --&gt; self</text></g><!--reverse link lPend to *start--><g id="link_lPend_*start"><path d="M203.32,394.4883 C255.61,394.4883 314.64,394.4883 337.85,394.4883 " fill="none" id="lPend-backto-*start" style="stroke:#0000FF;stroke-width:1.0;"/><polygon fill="#0000FF" points="198.49,394.4883,207.49,398.4883,203.49,394.4883,207.49,390.4883,198.49,394.4883" style="stroke:#0000FF;stroke-width:1.0;"/><text fill="#0000FF" font-family="Helvetica" font-size="11" lengthAdjust="spacing" textLength="26" x="254.25" y="365.9585">Peer:</text><text fill="#333333" font-family="Helvetica" font-size="11" lengthAdjust="spacing" textLength="77" x="228.75" y="376.9585">Receive invoice</text><text fill="#333333" font-family="Helvetica" font-size="11" lengthAdjust="spacing" textLength="105" x="214.75" y="387.9585">/Act:pend; Notify user</text></g><!--link *start to lPendGood--><g id="link_*start_lPendGood"><path d="M338.19,398.1383 C313.79,405.0283 249.07,425.1683 203,456.4883 C189.53,465.6483 162.77,493.3983 141.24,516.7183 " fill="none" id="*start-to-lPendGood" style="stroke:#008000;stroke-width:1.0;"/><polygon fill="#008000" points="138.03,520.1983,147.0718,516.2938,141.4196,516.5226,141.1908,510.8704,138.03,520.1983" style="stroke:#008000;stroke-width:1.0;"/><text fill="#008000" font-family="Helvetica" font-size="11" lengthAdjust="spacing" textLength="27" x="237.5" y="465.9585">User:</text><text fill="#333333" font-family="Helvetica" font-size="11" lengthAdjust="spacing" textLength="94" x="204" y="476.9585">Creates signed chit</text><text fill="#333333" font-family="Helvetica" font-size="11" lengthAdjust="spacing" textLength="71" x="215.5" y="487.9585">value-&gt;partner</text></g><!--link *start to aGood--><g id="link_*start_aGood"><path d="M356.4,400.1683 C381.31,414.5183 454.96,460.6883 487,521.4883 C522.9,589.5983 525.46,682.1083 523.59,733.0283 " fill="none" id="*start-to-aGood" style="stroke:#0000FF;stroke-width:1.0;"/><polygon fill="#0000FF" points="523.39,737.8183,527.7717,728.9978,523.6041,732.8229,519.779,728.6553,523.39,737.8183" style="stroke:#0000FF;stroke-width:1.0;"/><text fill="#0000FF" font-family="Helvetica" font-size="11" lengthAdjust="spacing" textLength="26" x="550.5" y="534.4585">Peer:</text><text fill="#333333" font-family="Helvetica" font-size="11" lengthAdjust="spacing" textLength="90" x="518.5" y="545.4585">Receive asset chit</text><text fill="#333333" font-family="Helvetica" font-size="11" lengthAdjust="spacing" textLength="66" x="530.5" y="556.4585">value-&gt;holder</text><text fill="#333333" font-family="Helvetica" font-size="11" lengthAdjust="spacing" textLength="77" x="525" y="567.4585">[Valid signature]</text><text fill="#333333" font-family="Helvetica" font-size="11" lengthAdjust="spacing" textLength="105" x="511" y="578.4585">/Act:good; Notify user</text></g><!--link aDraftPend to aPend--><g id="link_aDraftPend_aPend"><path d="M764.16,426.8183 C763.68,436.3483 763.24,446.8383 763,456.4883 C762.62,472.0383 762.62,475.9383 763,491.4883 C763.19,499.0283 763.5,507.0783 763.86,514.7783 " fill="none" id="aDraftPend-to-aPend" style="stroke:#FF0000;stroke-width:1.0;"/><polygon fill="#FF0000" points="764.09,519.6383,767.6487,510.4548,763.8474,514.6442,759.6581,510.8429,764.09,519.6383" style="stroke:#FF0000;stroke-width:1.0;"/><text fill="#FF0000" font-family="Helvetica" font-size="11" lengthAdjust="spacing" textLength="56" x="800.5" y="465.9585">DB Trigger:</text><text fill="#333333" font-family="Helvetica" font-size="11" lengthAdjust="spacing" textLength="92" x="782.5" y="476.9585">Req:pend detected</text><text fill="#333333" font-family="Helvetica" font-size="11" lengthAdjust="spacing" textLength="129" x="764" y="487.9585">/Transmit invoice Act:pend</text></g><!--link aPend to aVoid--><g id="link_aPend_aVoid"><path d="M772.09,585.8083 C776.31,604.8783 782.66,629.5283 791,650.4883 C802.64,679.7383 819.89,710.8183 833.84,734.0283 " fill="none" id="aPend-to-aVoid" style="stroke:#0000FF;stroke-width:1.0;"/><polygon fill="#0000FF" points="836.34,738.1583,835.1156,728.3858,833.757,733.8771,828.2657,732.5186,836.34,738.1583" style="stroke:#0000FF;stroke-width:1.0;"/><text fill="#0000FF" font-family="Helvetica" font-size="11" lengthAdjust="spacing" textLength="26" x="829.5" y="624.9585">Peer:</text><text fill="#333333" font-family="Helvetica" font-size="11" lengthAdjust="spacing" textLength="76" x="804.5" y="635.9585">Receive refusal</text><text fill="#333333" font-family="Helvetica" font-size="11" lengthAdjust="spacing" textLength="101" x="792" y="646.9585">/Act:void; Notify user</text></g><!--link aVoid to aDraftPend--><g id="link_aVoid_aDraftPend"><path d="M873.61,739.0383 C902.83,678.9583 955.16,545.8783 898,456.4883 C886.85,439.0483 869.29,426.5183 850.58,417.5483 " fill="none" id="aVoid-to-aDraftPend" style="stroke:#008000;stroke-width:1.0;"/><polygon fill="#008000" points="846.12,415.5083,852.6494,422.8817,850.6694,417.5827,855.9684,415.6027,846.12,415.5083" style="stroke:#008000;stroke-width:1.0;"/><text fill="#008000" font-family="Helvetica" font-size="11" lengthAdjust="spacing" textLength="27" x="946.5" y="545.4585">User:</text><text fill="#333333" font-family="Helvetica" font-size="11" lengthAdjust="spacing" textLength="60" x="930" y="556.4585">Modifies chit</text><text fill="#333333" font-family="Helvetica" font-size="11" lengthAdjust="spacing" textLength="72" x="924" y="567.4585">Requests draft</text></g><!--link aPend to aGood--><g id="link_aPend_aGood"><path d="M706.89,585.9383 C692.32,594.7283 677.13,604.8183 664,615.4883 C619.72,651.4683 576.36,701.0783 549.21,734.3983 " fill="none" id="aPend-to-aGood" style="stroke:#0000FF;stroke-width:1.0;"/><polygon fill="#0000FF" points="546.27,738.0083,555.0399,733.5262,549.4143,734.1207,548.8198,728.4952,546.27,738.0083" style="stroke:#0000FF;stroke-width:1.0;"/><text fill="#0000FF" font-family="Helvetica" font-size="11" lengthAdjust="spacing" textLength="26" x="704.5" y="624.9585">Peer:</text><text fill="#333333" font-family="Helvetica" font-size="11" lengthAdjust="spacing" textLength="100" x="667.5" y="635.9585">Receive acceptance</text><text fill="#333333" font-family="Helvetica" font-size="11" lengthAdjust="spacing" textLength="105" x="665" y="646.9585">/Act:good; Notify user</text></g><!--reverse link lPendVoid to lPend--><g id="link_lPendVoid_lPend"><path d="M104.87,114.9383 C102.32,139.9683 99.3,173.6583 98,203.4883 C95.56,259.4383 101.17,324.5983 105.25,362.2383 " fill="none" id="lPendVoid-backto-lPend" style="stroke:#008000;stroke-width:1.0;"/><polygon fill="#008000" points="105.35,110.2683,100.4451,118.8089,104.8355,115.2417,108.4027,119.6321,105.35,110.2683" style="stroke:#008000;stroke-width:1.0;"/><text fill="#008000" font-family="Helvetica" font-size="11" lengthAdjust="spacing" textLength="27" x="133.5" y="227.4585">User:</text><text fill="#333333" font-family="Helvetica" font-size="11" lengthAdjust="spacing" textLength="96" x="99" y="238.4585">Requests to decline</text></g><!--link lPendVoid to lVoid--><g id="link_lPendVoid_lVoid"><path d="M148.16,108.8783 C181.34,135.4783 228.58,173.3483 261.11,199.4183 " fill="none" id="lPendVoid-to-lVoid" style="stroke:#FF0000;stroke-width:1.0;"/><polygon fill="#FF0000" points="264.61,202.2283,260.0927,193.4765,260.7098,199.0996,255.0868,199.7168,264.61,202.2283" style="stroke:#FF0000;stroke-width:1.0;"/><text fill="#FF0000" font-family="Helvetica" font-size="11" lengthAdjust="spacing" textLength="56" x="261" y="147.9585">DB Trigger:</text><text fill="#333333" font-family="Helvetica" font-size="11" lengthAdjust="spacing" textLength="88" x="245" y="158.9585">Req:void detected</text><text fill="#333333" font-family="Helvetica" font-size="11" lengthAdjust="spacing" textLength="124" x="227" y="169.9585">/Transmit refusal Act:void</text></g><!--link lVoid to lPend--><g id="link_lVoid_lPend"><path d="M268.05,256.7383 C236.28,284.0583 185.84,327.4183 150.3,357.9783 " fill="none" id="lVoid-to-lPend" style="stroke:#0000FF;stroke-width:1.0;"/><polygon fill="#0000FF" points="146.76,361.0283,156.1965,358.2082,150.5563,357.7743,150.9901,352.1341,146.76,361.0283" style="stroke:#0000FF;stroke-width:1.0;"/><text fill="#0000FF" font-family="Helvetica" font-size="11" lengthAdjust="spacing" textLength="26" x="280" y="295.9585">Peer:</text><text fill="#333333" font-family="Helvetica" font-size="11" lengthAdjust="spacing" textLength="120" x="233" y="306.9585">Receive modified invoice</text><text fill="#333333" font-family="Helvetica" font-size="11" lengthAdjust="spacing" textLength="77" x="254.5" y="317.9585">[Valid signature]</text><text fill="#333333" font-family="Helvetica" font-size="11" lengthAdjust="spacing" textLength="105" x="240.5" y="328.9585">/Act:pend; Notify user</text></g><!--link lPend to lPendGood--><g id="link_lPend_lPendGood"><path d="M109,426.8783 C109,452.2283 109,487.9783 109,514.8683 " fill="none" id="lPend-to-lPendGood" style="stroke:#008000;stroke-width:1.0;"/><polygon fill="#008000" points="109,519.6383,113,510.6383,109,514.6383,105,510.6383,109,519.6383" style="stroke:#008000;stroke-width:1.0;"/><text fill="#008000" font-family="Helvetica" font-size="11" lengthAdjust="spacing" textLength="27" x="120" y="471.4585">User:</text><text fill="#333333" font-family="Helvetica" font-size="11" lengthAdjust="spacing" textLength="47" x="110" y="482.4585">Signs chit</text></g><!--link lPendGood to lGood--><g id="link_lPendGood_lGood"><path d="M117.75,585.6083 C123.41,604.6083 131.32,629.2483 140,650.4883 C152.65,681.4283 169.97,715.3883 182.75,739.2583 " fill="none" id="lPendGood-to-lGood" style="stroke:#FF0000;stroke-width:1.0;"/><polygon fill="#FF0000" points="185.01,743.4683,184.2612,733.6479,182.6378,739.0668,177.2189,737.4435,185.01,743.4683" style="stroke:#FF0000;stroke-width:1.0;"/><text fill="#FF0000" font-family="Helvetica" font-size="11" lengthAdjust="spacing" textLength="56" x="189" y="624.9585">DB Trigger:</text><text fill="#333333" font-family="Helvetica" font-size="11" lengthAdjust="spacing" textLength="92" x="171" y="635.9585">Req:good detected</text><text fill="#333333" font-family="Helvetica" font-size="11" lengthAdjust="spacing" textLength="152" x="141" y="646.9585">/Transmit acceptance Act:good</text></g><!--link good to linked--><g id="link_good_linked"><path d="M80,827.8554 C80,828.2374 80,828.6201 80,829.0035 C80,830.5368 80,832.0804 80,833.6313 C80,839.8349 80,846.1559 80,852.4086 C80,864.9139 80,877.1458 80,887.6183 " fill="none" id="good-to-linked" style="stroke:#000000;stroke-width:1.0;"/><polygon fill="#000000" points="80,892.5783,84,883.5783,80,887.5783,76,883.5783,80,892.5783" style="stroke:#000000;stroke-width:1.0;"/><text fill="#333333" font-family="Helvetica" font-size="11" lengthAdjust="spacing" textLength="134" x="81" y="860.9585">[When consensus reached]</text></g><!--link *start to liftPend--><g id="link_*start_liftPend"><path d="M344.29,403.9283 C334.75,425.6383 308.99,484.2583 292.82,521.0383 " fill="none" id="*start-to-liftPend" style="stroke:#000000;stroke-width:1.0;"/><polygon fill="#000000" points="290.92,525.3583,298.2018,518.7268,292.9308,520.7804,290.8772,515.5095,290.92,525.3583" style="stroke:#000000;stroke-width:1.0;"/><text fill="#333333" font-family="Helvetica" font-size="11" lengthAdjust="spacing" textLength="86" x="320" y="471.4585">System proposes</text><text fill="#333333" font-family="Helvetica" font-size="11" lengthAdjust="spacing" textLength="72" x="327" y="482.4585">or agrees to lift</text></g><!--link liftPend to liftVoid--><g id="link_liftPend_liftVoid"><path d="M319.73,553.4883 C340.13,553.4883 364.89,553.4883 385.87,553.4883 " fill="none" id="liftPend-to-liftVoid" style="stroke:#000000;stroke-width:1.0;"/><polygon fill="#000000" points="390.74,553.4883,381.74,549.4883,385.74,553.4883,381.74,557.4883,390.74,553.4883" style="stroke:#000000;stroke-width:1.0;"/><text fill="#333333" font-family="Helvetica" font-size="11" lengthAdjust="spacing" textLength="36" x="338" y="546.9585">Lift fails</text></g><!--link liftPend to liftGood--><g id="link_liftPend_liftGood"><path d="M288.61,580.1183 C302.86,618.1083 329.67,689.5983 346.07,733.3383 " fill="none" id="liftPend-to-liftGood" style="stroke:#000000;stroke-width:1.0;"/><polygon fill="#000000" points="347.78,737.8983,348.3553,728.0662,346.0197,733.2184,340.8675,730.8828,347.78,737.8983" style="stroke:#000000;stroke-width:1.0;"/><text fill="#333333" font-family="Helvetica" font-size="11" lengthAdjust="spacing" textLength="67" x="315" y="635.9585">Lift committed</text></g><text fill="#888888" font-family="sans-serif" font-size="10" lengthAdjust="spacing" textLength="142" x="424" y="959.1563">Fri Feb 10 23:38:39 MST 2023</text><!--SRC=[ZLPHRzis47xNhxWM0HmDTlRk0GMC56WViYveilOXpGCZdIoYDAMHL0PZs7_V7IMAf69dUJAeEtxtyUwxEx-Jkb93ZL1rXqEdh_hXe8hYmacdyFAZD5Wvk6wbWpid7DgoiFmBxs-kUjJrrRxhQhWKkeRFdQhZj_8z20lgbiwVw9ZVYhO5sdCd4-CtEaM7Q4k_xwvg8neNOSL7FgVOkyIOVvyXHHPAfdXAvcZU6hdGARdhi_5F0J2pNkGdIOrFo-ovIpnlXN69fyWzFG6spWIy_T-YMFaIGOrEI6MtXK_Y5cwaU99AkkCM_g1dWTH4lq9eJ7U07j44Hxu-s2tmszVm5V_QWXwK2kO_BPejx9n3xMIdtnN5NAKi2Fj1IzmCDeF5EdKx4O9pcRhizeI_YFCYnYrECPwGNgGx9nl9aV8e39q-f9ZrU9gms1l4-bShzphG7frFqEOAf2wdQBC5tiHxyWnn63mZ7bLD8Qn5Dx4UQodr7iHOojGneFaEcU3u1JdQIzuYYvDJdiHJ1wTpcX6fPhxGEojSmzz2EkRQT6PaM_Z6WvUnWdI2_Ln5WpsDGwXJEfUeUNt5_oGzs7Fi_SjBuTirJL3K5OzIRL7RWIAgVMUaQm-5aledUYyUfjD9QjSninQgLaXDafcc3VdT7tlS-lx-eTCi5w7bp_YCmem-6VqmhyxSzRsuucytHF2r067OE2EqbImSC8D2cZeFlpp2niXzwnukg8RcSVCX6Sg4UU7lN7hZ-jeWhvLHevG5IO6UXHeGDdJFechA4L5XGu2i6WPK2op-llwA5Sfd31fThrRhNUMsdBJVV0AQ8t3G2J7Iczlu7BjHCIczpOUUfhHEm08riG3Ag0bMP8xJqbuW3_Wc5DM58r6Q3NKBS-TSBxWdtSjXwoSVT96F-cdDGkQdypwW9Ourv-EUpGSIO5W28K5biHenDcVATIyFs0rk_QMZvkpLCQwFiX21p9o3IMCdS-1xMwXG7jRSuedZzSrRzFDxL_C8jLDEwT43MZVfYKAS8lTgWQeAUoTqbC-f4eposmpzGaEBPtk6C7EYNg-nejR7CYwyM4Erk4qrzDE84nIB24GBvZ9EkOIGo79SWUbpNssLmvY-UkwPfGhFD538m1jw2Eu8RAnF6HTcykp5fV1iFrHJxSPNnoBDJL9EavdbEu_QX-yjhQmuZQcRgnRhno8PKjv_rjRTqJeaMPkkxopQ7vesbTyQldhi64TqTd-g7VyvWuR_VYL-aylyRu077QqAIIjtchQV8lLvz8v-SLaK_m40]--></g></svg>