<?xml version="1.0" encoding="UTF-8" standalone="no"?><svg xmlns="http://www.w3.org/2000/svg" xmlns:xlink="http://www.w3.org/1999/xlink" contentStyleType="text/css" height="969px" preserveAspectRatio="none" style="width:1111px;height:969px;background:#FFFFFF;" version="1.1" viewBox="0 0 1111 969" width="1111px" zoomAndPan="magnify"><defs/><g><text fill="#000000" font-family="sans-serif" font-size="14" font-weight="bold" lengthAdjust="spacing" textLength="127" x="485" y="23.5352">Direct Chit States</text><!--cluster good--><g id="cluster_good"><path d="M84.5,674.4883 L724.5,674.4883 A12.5,12.5 0 0 1 737,686.9883 L737,717.4883 L72,717.4883 L72,686.9883 A12.5,12.5 0 0 1 84.5,674.4883 " fill="#E8E8EA" style="stroke:#E8E8EA;stroke-width:1.0;"/><rect fill="none" height="153" rx="12.5" ry="12.5" style="stroke:#202024;stroke-width:0.5;" width="665" x="72" y="674.4883"/><line style="stroke:#202024;stroke-width:0.5;" x1="72" x2="737" y1="717.4883" y2="717.4883"/><line style="stroke:#202024;stroke-width:0.5;" x1="72" x2="737" y1="690.4883" y2="690.4883"/><text fill="#000033" font-family="Helvetica" font-size="11" lengthAdjust="spacing" textLength="24" x="324.5" y="686.9585">good</text><text fill="#000033" font-family="Helvetica" font-size="11" lengthAdjust="spacing" textLength="61" x="77" y="701.4585">Status: good</text><text fill="#000033" font-family="Helvetica" font-size="11" lengthAdjust="spacing" textLength="160" x="77" y="712.4585">Commence consensus algorithm</text></g><g id="good.lGood"><rect fill="#E8E8EA" height="53" rx="12.5" ry="12.5" style="stroke:#202024;stroke-width:0.5;" width="169" x="222.5" y="744.9883"/><line style="stroke:#202024;stroke-width:0.5;" x1="222.5" x2="391.5" y1="765.9883" y2="765.9883"/><text fill="#000033" font-family="Helvetica" font-size="11" lengthAdjust="spacing" textLength="114" x="250" y="758.4585">L.good (and Hold.good)</text><text fill="#000033" font-family="Helvetica" font-size="11" lengthAdjust="spacing" textLength="149" x="227.5" y="779.4585">Liability: Peer has been notified</text><text fill="#000033" font-family="Helvetica" font-size="11" lengthAdjust="spacing" textLength="109" x="227.5" y="790.4585">Status: good, Req: null</text></g><g id="good.aGood"><rect fill="#E8E8EA" height="64" rx="12.5" ry="12.5" style="stroke:#202024;stroke-width:0.5;" width="170" x="543" y="739.4883"/><line style="stroke:#202024;stroke-width:0.5;" x1="543" x2="713" y1="760.4883" y2="760.4883"/><text fill="#000033" font-family="Helvetica" font-size="11" lengthAdjust="spacing" textLength="113" x="571.5" y="752.9585">A.good (and Part.good)</text><text fill="#000033" font-family="Helvetica" font-size="11" lengthAdjust="spacing" textLength="150" x="548" y="773.9585">Asset: Peer has agreed/signed</text><text fill="#000033" font-family="Helvetica" font-size="11" lengthAdjust="spacing" textLength="109" x="548" y="784.9585">Status: good, Req: null</text><text fill="#000033" font-family="Helvetica" font-size="11" lengthAdjust="spacing" textLength="61" x="548" y="795.9585">User: Notice</text></g><g id="good.liftGood"><rect fill="#E8E8EA" height="64" rx="12.5" ry="12.5" style="stroke:#202024;stroke-width:0.5;" width="81" x="426.5" y="739.4883"/><line style="stroke:#202024;stroke-width:0.5;" x1="426.5" x2="507.5" y1="760.4883" y2="760.4883"/><text fill="#000033" font-family="Helvetica" font-size="11" lengthAdjust="spacing" textLength="41" x="446.5" y="752.9585">Lift.good</text><text fill="#000033" font-family="Helvetica" font-size="11" lengthAdjust="spacing" textLength="41" x="431.5" y="773.9585">Type: lift</text><text fill="#000033" font-family="Helvetica" font-size="11" lengthAdjust="spacing" textLength="61" x="431.5" y="784.9585">Status: good</text><text fill="#000033" font-family="Helvetica" font-size="11" lengthAdjust="spacing" textLength="61" x="431.5" y="795.9585">User: Notice</text></g><g id="lPendGood"><rect fill="#E8E8EA" height="64" rx="12.5" ry="12.5" style="stroke:#202024;stroke-width:0.5;" width="188" x="122" y="521.4883"/><line style="stroke:#202024;stroke-width:0.5;" x1="122" x2="310" y1="542.4883" y2="542.4883"/><text fill="#000033" font-family="Helvetica" font-size="11" lengthAdjust="spacing" textLength="168" x="132" y="534.9585">L.pend.good (and Hold.pend.good)</text><text fill="#000033" font-family="Helvetica" font-size="11" lengthAdjust="spacing" textLength="158" x="127" y="555.9585">Liability: User has agreed/signed</text><text fill="#000033" font-family="Helvetica" font-size="11" lengthAdjust="spacing" textLength="117" x="127" y="566.9585">Status: pend, Req: good</text><text fill="#000033" font-family="Helvetica" font-size="11" lengthAdjust="spacing" textLength="79" x="127" y="577.9585">Agent: Attention!</text></g><g id="lPend"><rect fill="#E8E8EA" height="64" rx="12.5" ry="12.5" style="stroke:#202024;stroke-width:0.5;" width="175" x="128.5" y="362.4883"/><line style="stroke:#202024;stroke-width:0.5;" x1="128.5" x2="303.5" y1="383.4883" y2="383.4883"/><text fill="#000033" font-family="Helvetica" font-size="11" lengthAdjust="spacing" textLength="33" x="199.5" y="375.9585">L.pend</text><text fill="#000033" font-family="Helvetica" font-size="11" lengthAdjust="spacing" textLength="155" x="133.5" y="396.9585">Liability: Open invoice from peer</text><text fill="#000033" font-family="Helvetica" font-size="11" lengthAdjust="spacing" textLength="109" x="133.5" y="407.9585">Status: pend, Req: null</text><text fill="#000033" font-family="Helvetica" font-size="11" lengthAdjust="spacing" textLength="75" x="133.5" y="418.9585">User: Attention!</text></g><g id="lPendVoid"><rect fill="#E8E8EA" height="64" rx="12.5" ry="12.5" style="stroke:#202024;stroke-width:0.5;" width="146" x="143" y="44.4883"/><line style="stroke:#202024;stroke-width:0.5;" x1="143" x2="289" y1="65.4883" y2="65.4883"/><text fill="#000033" font-family="Helvetica" font-size="11" lengthAdjust="spacing" textLength="56" x="188" y="57.9585">L.pend.void</text><text fill="#000033" font-family="Helvetica" font-size="11" lengthAdjust="spacing" textLength="126" x="148" y="78.9585">Liability: User has refused</text><text fill="#000033" font-family="Helvetica" font-size="11" lengthAdjust="spacing" textLength="113" x="148" y="89.9585">Status: pend, Req: void</text><text fill="#000033" font-family="Helvetica" font-size="11" lengthAdjust="spacing" textLength="79" x="148" y="100.9585">Agent: Attention!</text></g><g id="lVoid"><rect fill="#E8E8EA" height="53" rx="12.5" ry="12.5" style="stroke:#202024;stroke-width:0.5;" width="169" x="320.5" y="203.4883"/><line style="stroke:#202024;stroke-width:0.5;" x1="320.5" x2="489.5" y1="224.4883" y2="224.4883"/><text fill="#000033" font-family="Helvetica" font-size="11" lengthAdjust="spacing" textLength="29" x="390.5" y="216.9585">L.void</text><text fill="#000033" font-family="Helvetica" font-size="11" lengthAdjust="spacing" textLength="149" x="325.5" y="237.9585">Liability: Peer has been notified</text><text fill="#000033" font-family="Helvetica" font-size="11" lengthAdjust="spacing" textLength="105" x="325.5" y="248.9585">Status: void, Req: null</text></g><g id="aDraftPend"><rect fill="#E8E8EA" height="64" rx="12.5" ry="12.5" style="stroke:#202024;stroke-width:0.5;" width="157" x="794.5" y="362.4883"/><line style="stroke:#202024;stroke-width:0.5;" x1="794.5" x2="951.5" y1="383.4883" y2="383.4883"/><text fill="#000033" font-family="Helvetica" font-size="11" lengthAdjust="spacing" textLength="59" x="843.5" y="375.9585">A.draft.pend</text><text fill="#000033" font-family="Helvetica" font-size="11" lengthAdjust="spacing" textLength="137" x="799.5" y="396.9585">Asset: User invoicing a peer</text><text fill="#000033" font-family="Helvetica" font-size="11" lengthAdjust="spacing" textLength="115" x="799.5" y="407.9585">Status: draft, Req: pend</text><text fill="#000033" font-family="Helvetica" font-size="11" lengthAdjust="spacing" textLength="79" x="799.5" y="418.9585">Agent: Attention!</text></g><g id="aPend"><rect fill="#E8E8EA" height="64" rx="12.5" ry="12.5" style="stroke:#202024;stroke-width:0.5;" width="168" x="789" y="521.4883"/><line style="stroke:#202024;stroke-width:0.5;" x1="789" x2="957" y1="542.4883" y2="542.4883"/><text fill="#000033" font-family="Helvetica" font-size="11" lengthAdjust="spacing" textLength="34" x="856" y="534.9585">A.pend</text><text fill="#000033" font-family="Helvetica" font-size="11" lengthAdjust="spacing" textLength="148" x="794" y="555.9585">Asset: Peer has been invoiced</text><text fill="#000033" font-family="Helvetica" font-size="11" lengthAdjust="spacing" textLength="109" x="794" y="566.9585">Status: pend, Req: null</text><text fill="#000033" font-family="Helvetica" font-size="11" lengthAdjust="spacing" textLength="141" x="794" y="577.9585">User: Notice, waiting for peer</text></g><g id="aVoid"><rect fill="#E8E8EA" height="64" rx="12.5" ry="12.5" style="stroke:#202024;stroke-width:0.5;" width="138" x="895" y="739.4883"/><line style="stroke:#202024;stroke-width:0.5;" x1="895" x2="1033" y1="760.4883" y2="760.4883"/><text fill="#000033" font-family="Helvetica" font-size="11" lengthAdjust="spacing" textLength="30" x="949" y="752.9585">A.void</text><text fill="#000033" font-family="Helvetica" font-size="11" lengthAdjust="spacing" textLength="118" x="900" y="773.9585">Asset: Peer has refused</text><text fill="#000033" font-family="Helvetica" font-size="11" lengthAdjust="spacing" textLength="105" x="900" y="784.9585">Status: void, Req: null</text><text fill="#000033" font-family="Helvetica" font-size="11" lengthAdjust="spacing" textLength="61" x="900" y="795.9585">User: Notice</text></g><g id="liftPend"><rect fill="#E8E8EA" height="53" rx="12.5" ry="12.5" style="stroke:#202024;stroke-width:0.5;" width="81" x="345.5" y="526.9883"/><line style="stroke:#202024;stroke-width:0.5;" x1="345.5" x2="426.5" y1="547.9883" y2="547.9883"/><text fill="#000033" font-family="Helvetica" font-size="11" lengthAdjust="spacing" textLength="41" x="365.5" y="540.4585">Lift.pend</text><text fill="#000033" font-family="Helvetica" font-size="11" lengthAdjust="spacing" textLength="41" x="350.5" y="561.4585">Type: lift</text><text fill="#000033" font-family="Helvetica" font-size="11" lengthAdjust="spacing" textLength="61" x="350.5" y="572.4585">Status: pend</text></g><g id="liftVoid"><rect fill="#E8E8EA" height="53" rx="12.5" ry="12.5" style="stroke:#202024;stroke-width:0.5;" width="77" x="499.5" y="526.9883"/><line style="stroke:#202024;stroke-width:0.5;" x1="499.5" x2="576.5" y1="547.9883" y2="547.9883"/><text fill="#000033" font-family="Helvetica" font-size="11" lengthAdjust="spacing" textLength="37" x="519.5" y="540.4585">Lift.void</text><text fill="#000033" font-family="Helvetica" font-size="11" lengthAdjust="spacing" textLength="41" x="504.5" y="561.4585">Type: lift</text><text fill="#000033" font-family="Helvetica" font-size="11" lengthAdjust="spacing" textLength="57" x="504.5" y="572.4585">Status: void</text></g><g id="linked"><rect fill="#E8E8EA" height="50" rx="12.5" ry="12.5" style="stroke:#202024;stroke-width:0.5;" width="146" x="7" y="894.4883"/><line style="stroke:#202024;stroke-width:0.5;" x1="7" x2="153" y1="915.4883" y2="915.4883"/><text fill="#000033" font-family="Helvetica" font-size="11" lengthAdjust="spacing" textLength="28" x="66" y="907.9585">linked</text><text fill="#000033" font-family="Helvetica" font-size="11" lengthAdjust="spacing" textLength="126" x="12" y="928.9585">Chit linked into hash chain</text></g><ellipse cx="455" cy="394.4883" fill="#222222" rx="10" ry="10" style="stroke:none;stroke-width:1.0;"/><!--link *start to aDraftPend--><g id="link_*start_aDraftPend"><path d="M465.33,394.4883 C509.09,394.4883 681.76,394.4883 787.84,394.4883 " fill="none" id="*start-to-aDraftPend" style="stroke:#008000;stroke-width:1.0;"/><polygon fill="#008000" points="792.59,394.4883,783.59,390.4883,787.59,394.4883,783.59,398.4883,792.59,394.4883" style="stroke:#008000;stroke-width:1.0;"/><text fill="#008000" font-family="Helvetica" font-size="11" lengthAdjust="spacing" textLength="27" x="616.25" y="365.9585">User:</text><text fill="#333333" font-family="Helvetica" font-size="11" lengthAdjust="spacing" textLength="84" x="587.75" y="376.9585">Creates draft chit</text><text fill="#333333" font-family="Helvetica" font-size="11" lengthAdjust="spacing" textLength="63" x="598.25" y="387.9585">value --&gt; self</text></g><!--reverse link lPend to *start--><g id="link_lPend_*start"><path d="M310.32,394.4883 C362.61,394.4883 421.64,394.4883 444.85,394.4883 " fill="none" id="lPend-backto-*start" style="stroke:#0000FF;stroke-width:1.0;"/><polygon fill="#0000FF" points="305.49,394.4883,314.49,398.4883,310.49,394.4883,314.49,390.4883,305.49,394.4883" style="stroke:#0000FF;stroke-width:1.0;"/><text fill="#0000FF" font-family="Helvetica" font-size="11" lengthAdjust="spacing" textLength="26" x="361.25" y="365.9585">Peer:</text><text fill="#333333" font-family="Helvetica" font-size="11" lengthAdjust="spacing" textLength="77" x="335.75" y="376.9585">Receive invoice</text><text fill="#333333" font-family="Helvetica" font-size="11" lengthAdjust="spacing" textLength="105" x="321.75" y="387.9585">/Act:pend; Notify user</text></g><!--link *start to lPendGood--><g id="link_*start_lPendGood"><path d="M445.19,398.1383 C420.79,405.0283 356.07,425.1683 310,456.4883 C296.53,465.6483 269.77,493.3983 248.24,516.7183 " fill="none" id="*start-to-lPendGood" style="stroke:#008000;stroke-width:1.0;"/><polygon fill="#008000" points="245.03,520.1983,254.0718,516.2938,248.4196,516.5226,248.1908,510.8704,245.03,520.1983" style="stroke:#008000;stroke-width:1.0;"/><text fill="#008000" font-family="Helvetica" font-size="11" lengthAdjust="spacing" textLength="27" x="344.5" y="465.9585">User:</text><text fill="#333333" font-family="Helvetica" font-size="11" lengthAdjust="spacing" textLength="94" x="311" y="476.9585">Creates signed chit</text><text fill="#333333" font-family="Helvetica" font-size="11" lengthAdjust="spacing" textLength="71" x="322.5" y="487.9585">value-&gt;partner</text></g><!--link *start to aGood--><g id="link_*start_aGood"><path d="M463.4,400.1683 C488.31,414.5183 561.96,460.6883 594,521.4883 C629.9,589.5983 632.46,682.1083 630.59,733.0283 " fill="none" id="*start-to-aGood" style="stroke:#0000FF;stroke-width:1.0;"/><polygon fill="#0000FF" points="630.39,737.8183,634.7717,728.9978,630.6041,732.8229,626.779,728.6553,630.39,737.8183" style="stroke:#0000FF;stroke-width:1.0;"/><text fill="#0000FF" font-family="Helvetica" font-size="11" lengthAdjust="spacing" textLength="26" x="657.5" y="534.4585">Peer:</text><text fill="#333333" font-family="Helvetica" font-size="11" lengthAdjust="spacing" textLength="90" x="625.5" y="545.4585">Receive asset chit</text><text fill="#333333" font-family="Helvetica" font-size="11" lengthAdjust="spacing" textLength="66" x="637.5" y="556.4585">value-&gt;holder</text><text fill="#333333" font-family="Helvetica" font-size="11" lengthAdjust="spacing" textLength="77" x="632" y="567.4585">[Valid signature]</text><text fill="#333333" font-family="Helvetica" font-size="11" lengthAdjust="spacing" textLength="105" x="618" y="578.4585">/Act:good; Notify user</text></g><!--link aDraftPend to aPend--><g id="link_aDraftPend_aPend"><path d="M871.16,426.8183 C870.68,436.3483 870.24,446.8383 870,456.4883 C869.62,472.0383 869.62,475.9383 870,491.4883 C870.19,499.0283 870.5,507.0783 870.86,514.7783 " fill="none" id="aDraftPend-to-aPend" style="stroke:#FF0000;stroke-width:1.0;"/><polygon fill="#FF0000" points="871.09,519.6383,874.6487,510.4548,870.8474,514.6442,866.6581,510.8429,871.09,519.6383" style="stroke:#FF0000;stroke-width:1.0;"/><text fill="#FF0000" font-family="Helvetica" font-size="11" lengthAdjust="spacing" textLength="31" x="920" y="465.9585">Agent:</text><text fill="#333333" font-family="Helvetica" font-size="11" lengthAdjust="spacing" textLength="92" x="889.5" y="476.9585">Req:pend detected</text><text fill="#333333" font-family="Helvetica" font-size="11" lengthAdjust="spacing" textLength="129" x="871" y="487.9585">/Transmit invoice Act:pend</text></g><!--link aPend to aVoid--><g id="link_aPend_aVoid"><path d="M879.09,585.8083 C883.31,604.8783 889.66,629.5283 898,650.4883 C909.64,679.7383 926.89,710.8183 940.84,734.0283 " fill="none" id="aPend-to-aVoid" style="stroke:#0000FF;stroke-width:1.0;"/><polygon fill="#0000FF" points="943.34,738.1583,942.1156,728.3858,940.757,733.8771,935.2657,732.5186,943.34,738.1583" style="stroke:#0000FF;stroke-width:1.0;"/><text fill="#0000FF" font-family="Helvetica" font-size="11" lengthAdjust="spacing" textLength="26" x="936.5" y="624.9585">Peer:</text><text fill="#333333" font-family="Helvetica" font-size="11" lengthAdjust="spacing" textLength="76" x="911.5" y="635.9585">Receive refusal</text><text fill="#333333" font-family="Helvetica" font-size="11" lengthAdjust="spacing" textLength="101" x="899" y="646.9585">/Act:void; Notify user</text></g><!--link aVoid to aDraftPend--><g id="link_aVoid_aDraftPend"><path d="M980.61,739.0383 C1009.83,678.9583 1062.16,545.8783 1005,456.4883 C993.85,439.0483 976.29,426.5183 957.58,417.5483 " fill="none" id="aVoid-to-aDraftPend" style="stroke:#008000;stroke-width:1.0;"/><polygon fill="#008000" points="953.12,415.5083,959.6494,422.8817,957.6694,417.5827,962.9684,415.6027,953.12,415.5083" style="stroke:#008000;stroke-width:1.0;"/><text fill="#008000" font-family="Helvetica" font-size="11" lengthAdjust="spacing" textLength="27" x="1053.5" y="545.4585">User:</text><text fill="#333333" font-family="Helvetica" font-size="11" lengthAdjust="spacing" textLength="60" x="1037" y="556.4585">Modifies chit</text><text fill="#333333" font-family="Helvetica" font-size="11" lengthAdjust="spacing" textLength="72" x="1031" y="567.4585">Requests draft</text></g><!--link aPend to aGood--><g id="link_aPend_aGood"><path d="M813.89,585.9383 C799.32,594.7283 784.13,604.8183 771,615.4883 C726.72,651.4683 683.36,701.0783 656.21,734.3983 " fill="none" id="aPend-to-aGood" style="stroke:#0000FF;stroke-width:1.0;"/><polygon fill="#0000FF" points="653.27,738.0083,662.0399,733.5262,656.4143,734.1207,655.8198,728.4952,653.27,738.0083" style="stroke:#0000FF;stroke-width:1.0;"/><text fill="#0000FF" font-family="Helvetica" font-size="11" lengthAdjust="spacing" textLength="26" x="811.5" y="624.9585">Peer:</text><text fill="#333333" font-family="Helvetica" font-size="11" lengthAdjust="spacing" textLength="100" x="774.5" y="635.9585">Receive acceptance</text><text fill="#333333" font-family="Helvetica" font-size="11" lengthAdjust="spacing" textLength="105" x="772" y="646.9585">/Act:good; Notify user</text></g><!--reverse link lPendVoid to lPend--><g id="link_lPendVoid_lPend"><path d="M211.87,114.9383 C209.32,139.9683 206.3,173.6583 205,203.4883 C202.56,259.4383 208.17,324.5983 212.25,362.2383 " fill="none" id="lPendVoid-backto-lPend" style="stroke:#008000;stroke-width:1.0;"/><polygon fill="#008000" points="212.35,110.2683,207.4451,118.8089,211.8355,115.2417,215.4027,119.6321,212.35,110.2683" style="stroke:#008000;stroke-width:1.0;"/><text fill="#008000" font-family="Helvetica" font-size="11" lengthAdjust="spacing" textLength="27" x="240.5" y="227.4585">User:</text><text fill="#333333" font-family="Helvetica" font-size="11" lengthAdjust="spacing" textLength="96" x="206" y="238.4585">Requests to decline</text></g><!--link lPendVoid to lVoid--><g id="link_lPendVoid_lVoid"><path d="M255.16,108.8783 C288.34,135.4783 335.58,173.3483 368.11,199.4183 " fill="none" id="lPendVoid-to-lVoid" style="stroke:#FF0000;stroke-width:1.0;"/><polygon fill="#FF0000" points="371.61,202.2283,367.0927,193.4765,367.7098,199.0996,362.0868,199.7168,371.61,202.2283" style="stroke:#FF0000;stroke-width:1.0;"/><text fill="#FF0000" font-family="Helvetica" font-size="11" lengthAdjust="spacing" textLength="31" x="380.5" y="147.9585">Agent:</text><text fill="#333333" font-family="Helvetica" font-size="11" lengthAdjust="spacing" textLength="88" x="352" y="158.9585">Req:void detected</text><text fill="#333333" font-family="Helvetica" font-size="11" lengthAdjust="spacing" textLength="124" x="334" y="169.9585">/Transmit refusal Act:void</text></g><!--link lVoid to lPend--><g id="link_lVoid_lPend"><path d="M375.05,256.7383 C343.28,284.0583 292.84,327.4183 257.3,357.9783 " fill="none" id="lVoid-to-lPend" style="stroke:#0000FF;stroke-width:1.0;"/><polygon fill="#0000FF" points="253.76,361.0283,263.1965,358.2082,257.5563,357.7743,257.9901,352.1341,253.76,361.0283" style="stroke:#0000FF;stroke-width:1.0;"/><text fill="#0000FF" font-family="Helvetica" font-size="11" lengthAdjust="spacing" textLength="26" x="387" y="295.9585">Peer:</text><text fill="#333333" font-family="Helvetica" font-size="11" lengthAdjust="spacing" textLength="120" x="340" y="306.9585">Receive modified invoice</text><text fill="#333333" font-family="Helvetica" font-size="11" lengthAdjust="spacing" textLength="77" x="361.5" y="317.9585">[Valid signature]</text><text fill="#333333" font-family="Helvetica" font-size="11" lengthAdjust="spacing" textLength="105" x="347.5" y="328.9585">/Act:pend; Notify user</text></g><!--link lPend to lPendGood--><g id="link_lPend_lPendGood"><path d="M216,426.8783 C216,452.2283 216,487.9783 216,514.8683 " fill="none" id="lPend-to-lPendGood" style="stroke:#008000;stroke-width:1.0;"/><polygon fill="#008000" points="216,519.6383,220,510.6383,216,514.6383,212,510.6383,216,519.6383" style="stroke:#008000;stroke-width:1.0;"/><text fill="#008000" font-family="Helvetica" font-size="11" lengthAdjust="spacing" textLength="27" x="227" y="471.4585">User:</text><text fill="#333333" font-family="Helvetica" font-size="11" lengthAdjust="spacing" textLength="47" x="217" y="482.4585">Signs chit</text></g><!--link lPendGood to lGood--><g id="link_lPendGood_lGood"><path d="M224.75,585.6083 C230.41,604.6083 238.32,629.2483 247,650.4883 C259.65,681.4283 276.97,715.3883 289.75,739.2583 " fill="none" id="lPendGood-to-lGood" style="stroke:#FF0000;stroke-width:1.0;"/><polygon fill="#FF0000" points="292.01,743.4683,291.2612,733.6479,289.6378,739.0668,284.2189,737.4435,292.01,743.4683" style="stroke:#FF0000;stroke-width:1.0;"/><text fill="#FF0000" font-family="Helvetica" font-size="11" lengthAdjust="spacing" textLength="31" x="308.5" y="624.9585">Agent:</text><text fill="#333333" font-family="Helvetica" font-size="11" lengthAdjust="spacing" textLength="92" x="278" y="635.9585">Req:good detected</text><text fill="#333333" font-family="Helvetica" font-size="11" lengthAdjust="spacing" textLength="152" x="248" y="646.9585">/Transmit acceptance Act:good</text></g><!--link good to linked--><g id="link_good_linked"><path d="M80,827.8554 C80,828.2374 80,828.6201 80,829.0035 C80,830.5368 80,832.0804 80,833.6313 C80,839.8349 80,846.1559 80,852.4086 C80,864.9139 80,877.1458 80,887.6183 " fill="none" id="good-to-linked" style="stroke:#000000;stroke-width:1.0;"/><polygon fill="#000000" points="80,892.5783,84,883.5783,80,887.5783,76,883.5783,80,892.5783" style="stroke:#000000;stroke-width:1.0;"/><text fill="#333333" font-family="Helvetica" font-size="11" lengthAdjust="spacing" textLength="134" x="81" y="860.9585">[When consensus reached]</text></g><!--link *start to liftPend--><g id="link_*start_liftPend"><path d="M451.29,403.9283 C441.75,425.6383 415.99,484.2583 399.82,521.0383 " fill="none" id="*start-to-liftPend" style="stroke:#000000;stroke-width:1.0;"/><polygon fill="#000000" points="397.92,525.3583,405.2018,518.7268,399.9308,520.7804,397.8772,515.5095,397.92,525.3583" style="stroke:#000000;stroke-width:1.0;"/><text fill="#333333" font-family="Helvetica" font-size="11" lengthAdjust="spacing" textLength="86" x="427" y="471.4585">System proposes</text><text fill="#333333" font-family="Helvetica" font-size="11" lengthAdjust="spacing" textLength="72" x="434" y="482.4585">or agrees to lift</text></g><!--link liftPend to liftVoid--><g id="link_liftPend_liftVoid"><path d="M426.73,553.4883 C447.13,553.4883 471.89,553.4883 492.87,553.4883 " fill="none" id="liftPend-to-liftVoid" style="stroke:#000000;stroke-width:1.0;"/><polygon fill="#000000" points="497.74,553.4883,488.74,549.4883,492.74,553.4883,488.74,557.4883,497.74,553.4883" style="stroke:#000000;stroke-width:1.0;"/><text fill="#333333" font-family="Helvetica" font-size="11" lengthAdjust="spacing" textLength="36" x="445" y="546.9585">Lift fails</text></g><!--link liftPend to liftGood--><g id="link_liftPend_liftGood"><path d="M395.61,580.1183 C409.86,618.1083 436.67,689.5983 453.07,733.3383 " fill="none" id="liftPend-to-liftGood" style="stroke:#000000;stroke-width:1.0;"/><polygon fill="#000000" points="454.78,737.8983,455.3553,728.0662,453.0197,733.2184,447.8675,730.8828,454.78,737.8983" style="stroke:#000000;stroke-width:1.0;"/><text fill="#333333" font-family="Helvetica" font-size="11" lengthAdjust="spacing" textLength="67" x="422" y="635.9585">Lift committed</text></g><!--link good to good--><g id="link_good_good"><path d="M744,770.9883 C755.87,749.8683 779.08,750.0283 779.08,771.4883 C779.08,792.9483 755.87,793.1083 744,771.9883 " fill="none" id="good-to-good" style="stroke:#000000;stroke-width:1.0;"/><polygon fill="#000000" points="744,771.9883,744.9225,781.7938,746.4497,776.347,751.8965,777.8743,744,771.9883" style="stroke:#000000;stroke-width:1.0;"/><text fill="#333333" font-family="Helvetica" font-size="11" lengthAdjust="spacing" textLength="77" x="785.08" y="763.4585">Re-transmit chit</text><text fill="#333333" font-family="Helvetica" font-size="11" lengthAdjust="spacing" textLength="72" x="787.58" y="774.4585">Error recovery</text><text fill="#333333" font-family="Helvetica" font-size="11" lengthAdjust="spacing" textLength="74" x="786.58" y="785.4585">chit consensus</text></g><text fill="#888888" font-family="sans-serif" font-size="10" lengthAdjust="spacing" textLength="145" x="476" y="959.1563">Fri Nov 03 09:25:16 MDT 2023</text><!--SRC=[ZLPDRziu4BthLqoB08uMTdht0WMCTD4UicsGPBk790T66bb4QSfBKYcCOl_xpb2aI2bsDYU3cgytCszc_4xgIlKrGjNjTfs-sFSxLHHdJZg5vv-amSh1PIiTt3hXq9Q5vLzuVtMnHrrVRBkkXdEXQ_ZIgJfzAz-3iA2kwVsPdbEh99jvU-va9lnEhwIGPFdtpKLjHEEIM_69txdlJIQSVXzTYaaecVjJSkhDInCMUcMslXg_2e0HzQm-MMbyMKRDJQPvBOpBDCLKqmDWwGZ0o_yjYeLl4TJeX5HsNVWYhk5AYYUff3kiuHkb1L8J_0gXCTqEzeWcAh9vRzV0kI_X1lzPW-wLYkA_B9erR9n3xMIdtnN5sAL94DQ3bh0PR7gBTQvs90JNCbVPRCd_BCwB6DSOOZmXPQGx9nl9aQPHs7MUI37oyJXWiJM8zGShjph27fIFmEOEv2h7OBC4teGxQCOux7m2FB6QGbYBBg0UUYdr5iJGobmnUlCJ4jnn1bDlBt6BIPmfv42UEYgTuep8EVELygnm2J-5T8orwSo0jl231ozZHUf4-QcEHdaUXxo6SiwzJlih_gVeKJxrlNrf5BzTqWP5NV4grHQrxIcYsdP6kdPNAAb_eDVYPHfUKhkEaRLGjK9geapODgHtTzZZsi_tWywhNCIHFw4p43FfJE37VNN2ri_YWhzT4S3N0iHbuupGLZ9nmFGAQUlS__O8AoEthRi_enwQnzN7R2cJppDlS-w5oqk3V5O6Zb8L90Lw5gf7M96THTMKWqU53Jbarh13DVF5tvStMA5yniZHvMAnt5HkpKNxtHUWEG073HuJl76CJw4R69F3MttSqvRMcRC8JSmSJQ09PkJKJqjtWJJWkr3K5uv4PJOqBOoTQpt3daqlXwsVVD1PFUgd9HEPK-TxG4SSQwx77OjtHC1u16A1oc8n-5YTQDUTt67Nk-NNZePphmxfV9I5Y6366WIE7Qs1dssXOdkOSxCK1_FLM_ZpPrVp2hMXffHqZzO5Fb68O-1URL1LuTu9dUXph0K3_LRzViQXMTeU8OoOQDPhh6ZqiKm7B_LGpQofXtuRSO5I4u5WmTZ6K4k8XIo74vYd- -gex8RorUFCp5buOe1Y1TumGt1BpeR-bEbWPcdFZ6BQVgdct4rPfoQDGrA6pSpq7LVj_TyjdQoqZMcQgnRhno9RKbv_vDRjmJeaMfjktrcq3vekbRyQldkic5Rqn3xqZl-SGSD_lpAze3B-6-15HwT2qiaDs_PpWZwkta4l7OiimN1lRd3bOaa6-lzX306c_-pTCvh3W_RcO_x5Vm00]--></g></svg>