<?xml version="1.0" encoding="UTF-8" standalone="no"?><svg xmlns="http://www.w3.org/2000/svg" xmlns:xlink="http://www.w3.org/1999/xlink" contentStyleType="text/css" height="1094px" preserveAspectRatio="none" style="width:1187px;height:1094px;background:#FFFFFF;" version="1.1" viewBox="0 0 1187 1094" width="1187px" zoomAndPan="magnify"><defs/><g><text fill="#000000" font-family="sans-serif" font-size="14" font-weight="bold" lengthAdjust="spacing" textLength="74" x="549.5" y="23.5352">Lift States</text><!--cluster signable--><g id="cluster_signable"><path d="M19.5,526.4883 L942.5,526.4883 A12.5,12.5 0 0 1 955,538.9883 L955,542.4883 L7,542.4883 L7,538.9883 A12.5,12.5 0 0 1 19.5,526.4883 " fill="#E8E8EA" style="stroke:#E8E8EA;stroke-width:1.0;"/><rect fill="none" height="535" rx="12.5" ry="12.5" style="stroke:#202024;stroke-width:0.5;" width="948" x="7" y="526.4883"/><line style="stroke:#202024;stroke-width:0.5;" x1="7" x2="955" y1="542.4883" y2="542.4883"/><text fill="#000033" font-family="Helvetica" font-size="11" lengthAdjust="spacing" textLength="40" x="461" y="538.9585">signable</text></g><!--cluster origin--><g id="cluster_origin"><path d="M51.5,572.4883 L601.5,572.4883 A12.5,12.5 0 0 1 614,584.9883 L614,604.4883 L39,604.4883 L39,584.9883 A12.5,12.5 0 0 1 51.5,572.4883 " fill="#E8E8EA" style="stroke:#E8E8EA;stroke-width:1.0;"/><rect fill="none" height="301" rx="12.5" ry="12.5" style="stroke:#202024;stroke-width:0.5;" width="575" x="39" y="572.4883"/><line style="stroke:#202024;stroke-width:0.5;" x1="39" x2="614" y1="604.4883" y2="604.4883"/><line style="stroke:#202024;stroke-width:0.5;" x1="39" x2="614" y1="588.4883" y2="588.4883"/><text fill="#000033" font-family="Helvetica" font-size="11" lengthAdjust="spacing" textLength="26" x="221" y="584.9585">origin</text><text fill="#000033" font-family="Helvetica" font-size="11" lengthAdjust="spacing" textLength="211" x="44" y="599.4585">Should not get affirmed but might get voided</text></g><!--cluster relay--><g id="cluster_relay"><path d="M650.5,572.4883 L902.5,572.4883 A12.5,12.5 0 0 1 915,584.9883 L915,604.4883 L638,604.4883 L638,584.9883 A12.5,12.5 0 0 1 650.5,572.4883 " fill="#E8E8EA" style="stroke:#E8E8EA;stroke-width:1.0;"/><rect fill="none" height="301" rx="12.5" ry="12.5" style="stroke:#202024;stroke-width:0.5;" width="277" x="638" y="572.4883"/><line style="stroke:#202024;stroke-width:0.5;" x1="638" x2="915" y1="604.4883" y2="604.4883"/><line style="stroke:#202024;stroke-width:0.5;" x1="638" x2="915" y1="588.4883" y2="588.4883"/><text fill="#000033" font-family="Helvetica" font-size="11" lengthAdjust="spacing" textLength="24" x="716.5" y="584.9585">relay</text><text fill="#000033" font-family="Helvetica" font-size="11" lengthAdjust="spacing" textLength="120" x="643" y="599.4585">Any non-originating node</text></g><g id="signable.call"><rect fill="#E8E8EA" height="50" rx="12.5" ry="12.5" style="stroke:#202024;stroke-width:0.5;" width="142" x="306" y="987.4883"/><line style="stroke:#202024;stroke-width:0.5;" x1="306" x2="448" y1="1008.4883" y2="1008.4883"/><text fill="#000033" font-family="Helvetica" font-size="11" lengthAdjust="spacing" textLength="16" x="369" y="1000.9585">call</text><text fill="#000033" font-family="Helvetica" font-size="11" lengthAdjust="spacing" textLength="122" x="311" y="1021.9585">Status: call, Request: null</text></g><g id="signable.callCall"><rect fill="#E8E8EA" height="50" rx="12.5" ry="12.5" style="stroke:#202024;stroke-width:0.5;" width="142" x="564" y="987.4883"/><line style="stroke:#202024;stroke-width:0.5;" x1="564" x2="706" y1="1008.4883" y2="1008.4883"/><text fill="#000033" font-family="Helvetica" font-size="11" lengthAdjust="spacing" textLength="35" x="617.5" y="1000.9585">call.call</text><text fill="#000033" font-family="Helvetica" font-size="11" lengthAdjust="spacing" textLength="122" x="569" y="1021.9585">Status: call, Request: call</text></g><g id="signable.origin.seek"><rect fill="#E8E8EA" height="50" rx="12.5" ry="12.5" style="stroke:#202024;stroke-width:0.5;" width="150" x="219" y="618.4883"/><line style="stroke:#202024;stroke-width:0.5;" x1="219" x2="369" y1="639.4883" y2="639.4883"/><text fill="#000033" font-family="Helvetica" font-size="11" lengthAdjust="spacing" textLength="24" x="282" y="631.9585">seek</text><text fill="#000033" font-family="Helvetica" font-size="11" lengthAdjust="spacing" textLength="130" x="224" y="652.9585">Status: seek, Request: null</text></g><g id="signable.origin.seekCheck"><rect fill="#E8E8EA" height="50" rx="12.5" ry="12.5" style="stroke:#202024;stroke-width:0.5;" width="164" x="98" y="807.4883"/><line style="stroke:#202024;stroke-width:0.5;" x1="98" x2="262" y1="828.4883" y2="828.4883"/><text fill="#000033" font-family="Helvetica" font-size="11" lengthAdjust="spacing" textLength="57" x="151.5" y="820.9585">seek.check</text><text fill="#000033" font-family="Helvetica" font-size="11" lengthAdjust="spacing" textLength="144" x="103" y="841.9585">Status: seek, Request: check</text></g><g id="signable.origin.seekCall"><rect fill="#E8E8EA" height="50" rx="12.5" ry="12.5" style="stroke:#202024;stroke-width:0.5;" width="150" x="302" y="807.4883"/><line style="stroke:#202024;stroke-width:0.5;" x1="302" x2="452" y1="828.4883" y2="828.4883"/><text fill="#000033" font-family="Helvetica" font-size="11" lengthAdjust="spacing" textLength="43" x="355.5" y="820.9585">seek.call</text><text fill="#000033" font-family="Helvetica" font-size="11" lengthAdjust="spacing" textLength="130" x="307" y="841.9585">Status: seek, Request: call</text></g><g id="signable.relay.pend"><rect fill="#E8E8EA" height="50" rx="12.5" ry="12.5" style="stroke:#202024;stroke-width:0.5;" width="150" x="658" y="618.4883"/><line style="stroke:#202024;stroke-width:0.5;" x1="658" x2="808" y1="639.4883" y2="639.4883"/><text fill="#000033" font-family="Helvetica" font-size="11" lengthAdjust="spacing" textLength="24" x="721" y="631.9585">pend</text><text fill="#000033" font-family="Helvetica" font-size="11" lengthAdjust="spacing" textLength="130" x="663" y="652.9585">Status: pend, Request: null</text></g><g id="signable.relay.pendCheck"><rect fill="#E8E8EA" height="50" rx="12.5" ry="12.5" style="stroke:#202024;stroke-width:0.5;" width="164" x="691" y="807.4883"/><line style="stroke:#202024;stroke-width:0.5;" x1="691" x2="855" y1="828.4883" y2="828.4883"/><text fill="#000033" font-family="Helvetica" font-size="11" lengthAdjust="spacing" textLength="57" x="744.5" y="820.9585">pend.check</text><text fill="#000033" font-family="Helvetica" font-size="11" lengthAdjust="spacing" textLength="144" x="696" y="841.9585">Status: pend, Request: check</text></g><g id="draftInit"><rect fill="#E8E8EA" height="50" rx="12.5" ry="12.5" style="stroke:#202024;stroke-width:0.5;" width="145" x="221.5" y="189.4883"/><line style="stroke:#202024;stroke-width:0.5;" x1="221.5" x2="366.5" y1="210.4883" y2="210.4883"/><text fill="#000033" font-family="Helvetica" font-size="11" lengthAdjust="spacing" textLength="38" x="275" y="202.9585">draft.init</text><text fill="#000033" font-family="Helvetica" font-size="11" lengthAdjust="spacing" textLength="125" x="226.5" y="223.9585">Status: draft, Request: init</text></g><g id="initSeek"><rect fill="#E8E8EA" height="50" rx="12.5" ry="12.5" style="stroke:#202024;stroke-width:0.5;" width="147" x="220.5" y="365.4883"/><line style="stroke:#202024;stroke-width:0.5;" x1="220.5" x2="367.5" y1="386.4883" y2="386.4883"/><text fill="#000033" font-family="Helvetica" font-size="11" lengthAdjust="spacing" textLength="40" x="274" y="378.9585">init.seek</text><text fill="#000033" font-family="Helvetica" font-size="11" lengthAdjust="spacing" textLength="127" x="225.5" y="399.9585">Status: init, Request: seek</text></g><g id="draftRelay"><rect fill="#E8E8EA" height="50" rx="12.5" ry="12.5" style="stroke:#202024;stroke-width:0.5;" width="156" x="674" y="365.4883"/><line style="stroke:#202024;stroke-width:0.5;" x1="674" x2="830" y1="386.4883" y2="386.4883"/><text fill="#000033" font-family="Helvetica" font-size="11" lengthAdjust="spacing" textLength="49" x="727.5" y="378.9585">draft.relay</text><text fill="#000033" font-family="Helvetica" font-size="11" lengthAdjust="spacing" textLength="136" x="679" y="399.9585">Status: draft, Request: relay</text></g><g id="draftFound"><rect fill="#E8E8EA" height="50" rx="12.5" ry="12.5" style="stroke:#202024;stroke-width:0.5;" width="159" x="494.5" y="189.4883"/><line style="stroke:#202024;stroke-width:0.5;" x1="494.5" x2="653.5" y1="210.4883" y2="210.4883"/><text fill="#000033" font-family="Helvetica" font-size="11" lengthAdjust="spacing" textLength="52" x="548" y="202.9585">draft.found</text><text fill="#000033" font-family="Helvetica" font-size="11" lengthAdjust="spacing" textLength="139" x="499.5" y="223.9585">Status: draft, Request: found</text></g><g id="foundTerm"><rect fill="#E8E8EA" height="50" rx="12.5" ry="12.5" style="stroke:#202024;stroke-width:0.5;" width="159" x="479.5" y="365.4883"/><line style="stroke:#202024;stroke-width:0.5;" x1="479.5" x2="638.5" y1="386.4883" y2="386.4883"/><text fill="#000033" font-family="Helvetica" font-size="11" lengthAdjust="spacing" textLength="52" x="533" y="378.9585">found.term</text><text fill="#000033" font-family="Helvetica" font-size="11" lengthAdjust="spacing" textLength="139" x="484.5" y="399.9585">Status: found, Request: term</text></g><g id="good"><rect fill="#E8E8EA" height="50" rx="12.5" ry="12.5" style="stroke:#202024;stroke-width:0.5;" width="150" x="872" y="365.4883"/><line style="stroke:#202024;stroke-width:0.5;" x1="872" x2="1022" y1="386.4883" y2="386.4883"/><text fill="#000033" font-family="Helvetica" font-size="11" lengthAdjust="spacing" textLength="24" x="935" y="378.9585">good</text><text fill="#000033" font-family="Helvetica" font-size="11" lengthAdjust="spacing" textLength="130" x="877" y="399.9585">Status: good, Request: null</text></g><g id="void"><rect fill="#E8E8EA" height="50" rx="12.5" ry="12.5" style="stroke:#202024;stroke-width:0.5;" width="146" x="979" y="807.4883"/><line style="stroke:#202024;stroke-width:0.5;" x1="979" x2="1125" y1="828.4883" y2="828.4883"/><text fill="#000033" font-family="Helvetica" font-size="11" lengthAdjust="spacing" textLength="20" x="1042" y="820.9585">void</text><text fill="#000033" font-family="Helvetica" font-size="11" lengthAdjust="spacing" textLength="126" x="984" y="841.9585">Status: void, Request: null</text></g><ellipse cx="659" cy="53.4883" fill="#222222" rx="10" ry="10" style="stroke:none;stroke-width:1.0;"/><ellipse cx="1129" cy="214.4883" fill="none" rx="10" ry="10" style="stroke:#222222;stroke-width:1.0;"/><ellipse cx="1129.5" cy="214.9883" fill="#222222" rx="6" ry="6" style="stroke:none;stroke-width:1.0;"/><!--link *start to draftInit--><g id="link_*start_draftInit"><path d="M648.66,54.2483 C616.82,53.9383 518.24,56.2483 449,93.4883 C418,110.1583 421.31,128.2783 394,150.4883 C378.13,163.3983 359.46,175.7983 342.57,186.1383 " fill="none" id="*start-to-draftInit" style="stroke:#008000;stroke-width:1.0;"/><polygon fill="#008000" points="338.68,188.4983,348.4476,187.2356,342.951,185.8985,344.288,180.402,338.68,188.4983" style="stroke:#008000;stroke-width:1.0;"/><text fill="#008000" font-family="Helvetica" font-size="11" lengthAdjust="spacing" textLength="27" x="489" y="113.9585">User:</text><text fill="#333333" font-family="Helvetica" font-size="11" lengthAdjust="spacing" textLength="105" x="450" y="124.9585">User initiates linear lift</text><text fill="#333333" font-family="Helvetica" font-size="11" lengthAdjust="spacing" textLength="57" x="474" y="135.9585">Request:init</text></g><!--link *start to draftInit--><g id="link_*start_draftInit"><path d="M648.63,54.6383 C586.88,55.6583 269.35,62.3783 241,93.4883 C217.18,119.6383 241.78,158.2383 264.81,184.5483 " fill="none" id="*start-to-draftInit-1" style="stroke:#000000;stroke-width:1.0;"/><polygon fill="#000000" points="268.07,188.1783,265.0225,178.8128,264.7252,184.4618,259.0761,184.1645,268.07,188.1783" style="stroke:#000000;stroke-width:1.0;"/><text fill="#000000" font-family="Helvetica" font-size="11" lengthAdjust="spacing" textLength="31" x="298" y="113.9585">Agent:</text><text fill="#333333" font-family="Helvetica" font-size="11" lengthAdjust="spacing" textLength="143" x="242" y="124.9585">Automaton initiates circular lift</text><text fill="#333333" font-family="Helvetica" font-size="11" lengthAdjust="spacing" textLength="57" x="285" y="135.9585">Request:init</text></g><!--link draftInit to initSeek--><g id="link_draftInit_initSeek"><path d="M294,239.6783 C294,270.8883 294,325.1783 294,359.1283 " fill="none" id="draftInit-to-initSeek" style="stroke:#FF0000;stroke-width:1.0;"/><polygon fill="#FF0000" points="294,363.7083,298,354.7083,294,358.7083,290,354.7083,294,363.7083" style="stroke:#FF0000;stroke-width:1.0;"/><text fill="#FF0000" font-family="Helvetica" font-size="11" lengthAdjust="spacing" textLength="56" x="332" y="287.9585">DB Trigger:</text><text fill="#333333" font-family="Helvetica" font-size="11" lengthAdjust="spacing" textLength="58" x="331" y="298.9585">init detected</text><text fill="#333333" font-family="Helvetica" font-size="11" lengthAdjust="spacing" textLength="130" x="295" y="309.9585">/Agent prepares Lift Object</text><text fill="#333333" font-family="Helvetica" font-size="11" lengthAdjust="spacing" textLength="98" x="311" y="320.9585">Encodes destination</text><text fill="#333333" font-family="Helvetica" font-size="11" lengthAdjust="spacing" textLength="68" x="326" y="331.9585">Request:seek</text></g><!--link initSeek to seek--><g id="link_initSeek_seek"><path d="M294,415.5583 C294,461.4483 294,561.3783 294,611.9183 " fill="none" id="initSeek-to-seek" style="stroke:#FF0000;stroke-width:1.0;"/><polygon fill="#FF0000" points="294,616.6083,298,607.6083,294,611.6083,290,607.6083,294,616.6083" style="stroke:#FF0000;stroke-width:1.0;"/><text fill="#FF0000" font-family="Helvetica" font-size="11" lengthAdjust="spacing" textLength="56" x="310" y="454.9585">DB Trigger:</text><text fill="#333333" font-family="Helvetica" font-size="11" lengthAdjust="spacing" textLength="69" x="303.5" y="465.9585">seek detected</text><text fill="#333333" font-family="Helvetica" font-size="11" lengthAdjust="spacing" textLength="79" x="298.5" y="476.9585">/Send Upstream</text><text fill="#333333" font-family="Helvetica" font-size="11" lengthAdjust="spacing" textLength="72" x="302" y="487.9585">Action:promise</text><text fill="#333333" font-family="Helvetica" font-size="11" lengthAdjust="spacing" textLength="86" x="295" y="498.9585">Agent starts timer</text></g><!--link seek to seekCall--><g id="link_seek_seekCall"><path d="M299.37,668.9583 C305.96,696.3783 318.57,741.6683 337,777.4883 C341.29,785.8383 346.84,794.2683 352.42,801.9083 " fill="none" id="seek-to-seekCall" style="stroke:#0000FF;stroke-width:1.0;"/><polygon fill="#0000FF" points="355.37,805.8483,353.17,796.2483,352.37,801.8483,346.77,801.0483,355.37,805.8483" style="stroke:#0000FF;stroke-width:1.0;"/><text fill="#0000FF" font-family="Helvetica" font-size="11" lengthAdjust="spacing" textLength="26" x="391" y="724.4585">Peer:</text><text fill="#333333" font-family="Helvetica" font-size="11" lengthAdjust="spacing" textLength="104" x="352" y="735.4585">Receive confirm from</text><text fill="#333333" font-family="Helvetica" font-size="11" lengthAdjust="spacing" textLength="130" x="339" y="746.4585">destination Action:terminus</text><text fill="#333333" font-family="Helvetica" font-size="11" lengthAdjust="spacing" textLength="132" x="338" y="757.4585">/Circuit good, freshen route</text></g><!--link seekCall to seek--><g id="link_seekCall_seek"><path d="M444.08,807.1783 C456.42,799.5983 467.69,789.8683 475,777.4883 C492.86,747.2583 495.98,726.6383 475,698.4883 C462.49,681.6983 417.41,668.2183 375.37,658.9283 " fill="none" id="seekCall-to-seek" style="stroke:#FF0000;stroke-width:1.0;"/><polygon fill="#FF0000" points="370.68,657.9083,378.6305,663.7211,375.5669,658.9657,380.3224,655.9021,370.68,657.9083" style="stroke:#FF0000;stroke-width:1.0;"/><text fill="#FF0000" font-family="Helvetica" font-size="11" lengthAdjust="spacing" textLength="56" x="504" y="718.9585">DB Trigger:</text><text fill="#333333" font-family="Helvetica" font-size="11" lengthAdjust="spacing" textLength="51" x="506.5" y="729.9585">Detect call</text><text fill="#333333" font-family="Helvetica" font-size="11" lengthAdjust="spacing" textLength="82" x="491" y="740.9585">[Change of mind]</text><text fill="#333333" font-family="Helvetica" font-size="11" lengthAdjust="spacing" textLength="69" x="497.5" y="751.9585">/want to abort;</text><text fill="#333333" font-family="Helvetica" font-size="11" lengthAdjust="spacing" textLength="80" x="492" y="762.9585">will await timeout</text></g><!--link seekCall to call--><g id="link_seekCall_call"><path d="M377,857.8683 C377,889.8683 377,946.0483 377,980.8783 " fill="none" id="seekCall-to-call" style="stroke:#FF0000;stroke-width:1.0;"/><polygon fill="#FF0000" points="377,985.6083,381,976.6083,377,980.6083,373,976.6083,377,985.6083" style="stroke:#FF0000;stroke-width:1.0;"/><text fill="#FF0000" font-family="Helvetica" font-size="11" lengthAdjust="spacing" textLength="56" x="393" y="898.9585">DB Trigger:</text><text fill="#333333" font-family="Helvetica" font-size="11" lengthAdjust="spacing" textLength="51" x="395.5" y="909.9585">Detect call</text><text fill="#333333" font-family="Helvetica" font-size="11" lengthAdjust="spacing" textLength="86" x="378" y="920.9585">[Want to proceed]</text><text fill="#333333" font-family="Helvetica" font-size="11" lengthAdjust="spacing" textLength="72" x="385" y="931.9585">/Query referee</text><text fill="#333333" font-family="Helvetica" font-size="11" lengthAdjust="spacing" textLength="82" x="380" y="942.9585">Request: commit</text><text fill="#333333" font-family="Helvetica" font-size="11" lengthAdjust="spacing" textLength="79" x="381.5" y="953.9585">Agent sets timer</text></g><!--link call to callCall--><g id="link_call_callCall"><path d="M416.01,1037.9483 C432.57,1047.2983 452.52,1056.7583 472,1061.4883 C501.37,1068.6183 510.63,1068.6183 540,1061.4883 C557.35,1057.2783 575.07,1049.3183 590.44,1041.0083 " fill="none" id="call-to-callCall" style="stroke:#000000;stroke-width:1.0;"/><polygon fill="#000000" points="594.66,1038.6783,584.8479,1039.5279,590.2832,1041.0956,588.7155,1046.5309,594.66,1038.6783" style="stroke:#000000;stroke-width:1.0;"/><text fill="#000000" font-family="Helvetica" font-size="11" lengthAdjust="spacing" textLength="31" x="490.5" y="1024.9585">Agent:</text><text fill="#333333" font-family="Helvetica" font-size="11" lengthAdjust="spacing" textLength="64" x="474" y="1035.9585">Local timeout</text><text fill="#333333" font-family="Helvetica" font-size="11" lengthAdjust="spacing" textLength="58" x="477" y="1046.9585">[Still in call?]</text><text fill="#333333" font-family="Helvetica" font-size="11" lengthAdjust="spacing" textLength="66" x="473" y="1057.9585">/Request: call</text></g><!--reverse link call to callCall--><g id="link_call_callCall"><path d="M454.58,1012.4883 C489.2,1012.4883 529.73,1012.4883 563.6,1012.4883 " fill="none" id="call-backto-callCall" style="stroke:#FF0000;stroke-width:1.0;"/><polygon fill="#FF0000" points="449.7,1012.4883,458.7,1016.4883,454.7,1012.4883,458.7,1008.4883,449.7,1012.4883" style="stroke:#FF0000;stroke-width:1.0;"/><text fill="#FF0000" font-family="Helvetica" font-size="11" lengthAdjust="spacing" textLength="56" x="478" y="950.9585">DB Trigger:</text><text fill="#333333" font-family="Helvetica" font-size="11" lengthAdjust="spacing" textLength="51" x="480.5" y="961.9585">Detect call</text><text fill="#333333" font-family="Helvetica" font-size="11" lengthAdjust="spacing" textLength="55" x="478.5" y="972.9585">[Still calling]</text><text fill="#333333" font-family="Helvetica" font-size="11" lengthAdjust="spacing" textLength="75" x="468.5" y="983.9585">/Query referee;</text><text fill="#333333" font-family="Helvetica" font-size="11" lengthAdjust="spacing" textLength="71" x="470.5" y="994.9585">Action: commit</text><text fill="#333333" font-family="Helvetica" font-size="11" lengthAdjust="spacing" textLength="79" x="466.5" y="1005.9585">Agent sets timer</text></g><!--link seek to seekCheck--><g id="link_seek_seekCheck"><path d="M249,668.9883 C237.51,677.0683 226.13,686.9883 218,698.4883 C196.27,729.1983 186.91,772.1283 182.91,800.8183 " fill="none" id="seek-to-seekCheck" style="stroke:#000000;stroke-width:1.0;"/><polygon fill="#000000" points="182.29,805.5783,187.4142,797.1674,182.933,800.6198,179.4807,796.1386,182.29,805.5783" style="stroke:#000000;stroke-width:1.0;"/><text fill="#000000" font-family="Helvetica" font-size="11" lengthAdjust="spacing" textLength="31" x="243.5" y="724.4585">Agent:</text><text fill="#333333" font-family="Helvetica" font-size="11" lengthAdjust="spacing" textLength="64" x="227" y="735.4585">Local timeout</text><text fill="#333333" font-family="Helvetica" font-size="11" lengthAdjust="spacing" textLength="65" x="226.5" y="746.4585">[Lift expired?]</text><text fill="#333333" font-family="Helvetica" font-size="11" lengthAdjust="spacing" textLength="80" x="219" y="757.4585">/Request: check</text></g><!--link seekCheck to seek--><g id="link_seekCheck_seek"><path d="M120.32,806.9883 C108.6,799.3283 97.83,789.6183 91,777.4883 C73.78,746.8883 69.6,726.3283 91,698.4883 C106.16,678.7683 162.81,664.7283 212.42,655.9183 " fill="none" id="seekCheck-to-seek" style="stroke:#FF0000;stroke-width:1.0;"/><polygon fill="#FF0000" points="217.25,655.0783,207.6977,652.6795,212.3239,655.935,209.0685,660.5612,217.25,655.0783" style="stroke:#FF0000;stroke-width:1.0;"/><text fill="#FF0000" font-family="Helvetica" font-size="11" lengthAdjust="spacing" textLength="56" x="107" y="713.4585">DB Trigger:</text><text fill="#333333" font-family="Helvetica" font-size="11" lengthAdjust="spacing" textLength="65" x="102.5" y="724.4585">Detect check</text><text fill="#333333" font-family="Helvetica" font-size="11" lengthAdjust="spacing" textLength="63" x="103.5" y="735.4585">[Still seeking]</text><text fill="#333333" font-family="Helvetica" font-size="11" lengthAdjust="spacing" textLength="75" x="97.5" y="746.4585">/Query referee;</text><text fill="#333333" font-family="Helvetica" font-size="11" lengthAdjust="spacing" textLength="66" x="102" y="757.4585">Action: check</text><text fill="#333333" font-family="Helvetica" font-size="11" lengthAdjust="spacing" textLength="86" x="92" y="768.4585">Agent starts timer</text></g><!--link *start to *end--><g id="link_*start_*end"><path d="M669.17,55.0683 C716.53,57.8483 915.55,70.7083 973,93.4883 C1036.13,118.5183 1095.26,177.0083 1118.56,201.9283 " fill="none" id="*start-to-*end" style="stroke:#0000FF;stroke-width:1.0;"/><polygon fill="#0000FF" points="1121.7,205.3283,1118.5392,196.0004,1118.3104,201.6526,1112.6582,201.4238,1121.7,205.3283" style="stroke:#0000FF;stroke-width:1.0;"/><text fill="#0000FF" font-family="Helvetica" font-size="11" lengthAdjust="spacing" textLength="26" x="1108.5" y="108.4585">Peer:</text><text fill="#333333" font-family="Helvetica" font-size="11" lengthAdjust="spacing" textLength="115" x="1064" y="119.4585">Receive Action:promise</text><text fill="#333333" font-family="Helvetica" font-size="11" lengthAdjust="spacing" textLength="108" x="1067.5" y="130.4585">[Destination not found]</text><text fill="#333333" font-family="Helvetica" font-size="11" lengthAdjust="spacing" textLength="68" x="1087.5" y="141.4585">/Give no reply</text></g><!--link *start to draftRelay--><g id="link_*start_draftRelay"><path d="M668.29,57.8283 C681.57,63.1383 705.62,74.8483 717,93.4883 C768.68,178.1083 762.6,301.8883 756.28,358.7983 " fill="none" id="*start-to-draftRelay" style="stroke:#0000FF;stroke-width:1.0;"/><polygon fill="#0000FF" points="755.72,363.5683,760.7216,355.0839,756.291,358.601,752.7739,354.1704,755.72,363.5683" style="stroke:#0000FF;stroke-width:1.0;"/><text fill="#0000FF" font-family="Helvetica" font-size="11" lengthAdjust="spacing" textLength="26" x="815" y="189.9585">Peer:</text><text fill="#333333" font-family="Helvetica" font-size="11" lengthAdjust="spacing" textLength="115" x="770.5" y="200.9585">Receive Action:promise</text><text fill="#333333" font-family="Helvetica" font-size="11" lengthAdjust="spacing" textLength="136" x="760" y="211.9585">[Route found for destination]</text><text fill="#333333" font-family="Helvetica" font-size="11" lengthAdjust="spacing" textLength="116" x="770" y="222.9585">/Store lift Request:relay;</text><text fill="#333333" font-family="Helvetica" font-size="11" lengthAdjust="spacing" textLength="119" x="768.5" y="233.9585">Forward Action: promise</text><text fill="#333333" font-family="Helvetica" font-size="11" lengthAdjust="spacing" textLength="79" x="788.5" y="244.9585">Agent sets timer</text></g><!--link *start to draftFound--><g id="link_*start_draftFound"><path d="M649,55.8683 C630.97,58.9583 593.4,68.2383 577,93.4883 C559.84,119.9083 561.9,156.9783 566.47,182.8983 " fill="none" id="*start-to-draftFound" style="stroke:#0000FF;stroke-width:1.0;"/><polygon fill="#0000FF" points="567.39,187.7483,569.6494,178.1621,566.4617,182.8352,561.7885,179.6474,567.39,187.7483" style="stroke:#0000FF;stroke-width:1.0;"/><text fill="#0000FF" font-family="Helvetica" font-size="11" lengthAdjust="spacing" textLength="26" x="632" y="102.9585">Peer:</text><text fill="#333333" font-family="Helvetica" font-size="11" lengthAdjust="spacing" textLength="115" x="587.5" y="113.9585">Receive Action:promise</text><text fill="#333333" font-family="Helvetica" font-size="11" lengthAdjust="spacing" textLength="123" x="583.5" y="124.9585">[Destination found locally]</text><text fill="#333333" font-family="Helvetica" font-size="11" lengthAdjust="spacing" textLength="134" x="578" y="135.9585">/Store lift Request: terminus</text><text fill="#333333" font-family="Helvetica" font-size="11" lengthAdjust="spacing" textLength="79" x="605.5" y="146.9585">Agent sets timer</text></g><!--link draftFound to foundTerm--><g id="link_draftFound_foundTerm"><path d="M571.91,239.6783 C569.22,270.8883 564.54,325.1783 561.62,359.1283 " fill="none" id="draftFound-to-foundTerm" style="stroke:#FF0000;stroke-width:1.0;"/><polygon fill="#FF0000" points="561.22,363.7083,565.9761,355.0839,561.6482,358.7267,558.0055,354.3988,561.22,363.7083" style="stroke:#FF0000;stroke-width:1.0;"/><text fill="#FF0000" font-family="Helvetica" font-size="11" lengthAdjust="spacing" textLength="56" x="590" y="287.9585">DB Trigger:</text><text fill="#333333" font-family="Helvetica" font-size="11" lengthAdjust="spacing" textLength="62" x="587" y="298.9585">Detect found</text><text fill="#333333" font-family="Helvetica" font-size="11" lengthAdjust="spacing" textLength="64" x="586" y="309.9585">/Build draft lift</text><text fill="#333333" font-family="Helvetica" font-size="11" lengthAdjust="spacing" textLength="96" x="570" y="320.9585">Notify correct agent</text><text fill="#333333" font-family="Helvetica" font-size="11" lengthAdjust="spacing" textLength="63" x="586.5" y="331.9585">Action: found</text></g><!--link foundTerm to pend--><g id="link_foundTerm_pend"><path d="M575.68,415.5583 C607.69,461.7283 677.62,562.6083 712.45,612.8383 " fill="none" id="foundTerm-to-pend" style="stroke:#FF0000;stroke-width:1.0;"/><polygon fill="#FF0000" points="715.25,616.8783,713.4246,607.2001,712.4077,612.7648,706.843,611.7478,715.25,616.8783" style="stroke:#FF0000;stroke-width:1.0;"/><text fill="#FF0000" font-family="Helvetica" font-size="11" lengthAdjust="spacing" textLength="56" x="654.5" y="454.9585">DB Trigger:</text><text fill="#333333" font-family="Helvetica" font-size="11" lengthAdjust="spacing" textLength="77" x="644" y="465.9585">Detect terminus</text><text fill="#333333" font-family="Helvetica" font-size="11" lengthAdjust="spacing" textLength="91" x="637" y="476.9585">/Reply to originator</text><text fill="#333333" font-family="Helvetica" font-size="11" lengthAdjust="spacing" textLength="49" x="658" y="487.9585">Build chits</text><text fill="#333333" font-family="Helvetica" font-size="11" lengthAdjust="spacing" textLength="78" x="643.5" y="498.9585">Action: terminus</text></g><!--link draftRelay to pend--><g id="link_draftRelay_pend"><path d="M750.18,415.5583 C746.7,461.4483 739.14,561.3783 735.31,611.9183 " fill="none" id="draftRelay-to-pend" style="stroke:#FF0000;stroke-width:1.0;"/><polygon fill="#FF0000" points="734.96,616.6183,739.6176,607.9403,735.3315,611.6321,731.6397,607.346,734.96,616.6183" style="stroke:#FF0000;stroke-width:1.0;"/><text fill="#FF0000" font-family="Helvetica" font-size="11" lengthAdjust="spacing" textLength="56" x="757.5" y="460.4585">DB Trigger:</text><text fill="#333333" font-family="Helvetica" font-size="11" lengthAdjust="spacing" textLength="59" x="756" y="471.4585">Detect relay</text><text fill="#333333" font-family="Helvetica" font-size="11" lengthAdjust="spacing" textLength="57" x="757" y="482.4585">/Forward lift</text><text fill="#333333" font-family="Helvetica" font-size="11" lengthAdjust="spacing" textLength="75" x="748" y="493.4585">Action: promise</text></g><!--link pend to pendCheck--><g id="link_pend_pendCheck"><path d="M705.28,668.8483 C697.52,677.3583 690.09,687.5483 686,698.4883 C673.69,731.3683 668.93,746.8083 686,777.4883 C691.74,787.8083 700.36,796.4083 709.97,803.4883 " fill="none" id="pend-to-pendCheck" style="stroke:#000000;stroke-width:1.0;"/><polygon fill="#000000" points="713.84,806.1783,708.743,797.7509,709.7378,803.3196,704.1691,804.3144,713.84,806.1783" style="stroke:#000000;stroke-width:1.0;"/><text fill="#000000" font-family="Helvetica" font-size="11" lengthAdjust="spacing" textLength="31" x="711.5" y="724.4585">Agent:</text><text fill="#333333" font-family="Helvetica" font-size="11" lengthAdjust="spacing" textLength="64" x="695" y="735.4585">Local timeout</text><text fill="#333333" font-family="Helvetica" font-size="11" lengthAdjust="spacing" textLength="63" x="695.5" y="746.4585">[Still pending]</text><text fill="#333333" font-family="Helvetica" font-size="11" lengthAdjust="spacing" textLength="80" x="687" y="757.4585">/Request: check</text></g><!--link pendCheck to pend--><g id="link_pendCheck_pend"><path d="M777.14,807.2383 C780.81,780.0283 783.93,734.9183 772,698.4883 C769.16,689.8283 764.38,681.3783 759.11,673.8383 " fill="none" id="pendCheck-to-pend" style="stroke:#FF0000;stroke-width:1.0;"/><polygon fill="#FF0000" points="756.3,669.9883,758.3789,679.6152,759.2494,674.0258,764.8388,674.8963,756.3,669.9883" style="stroke:#FF0000;stroke-width:1.0;"/><text fill="#FF0000" font-family="Helvetica" font-size="11" lengthAdjust="spacing" textLength="56" x="796" y="707.9585">DB Trigger:</text><text fill="#333333" font-family="Helvetica" font-size="11" lengthAdjust="spacing" textLength="65" x="791.5" y="718.9585">Detect check</text><text fill="#333333" font-family="Helvetica" font-size="11" lengthAdjust="spacing" textLength="63" x="792.5" y="729.9585">[Still pending]</text><text fill="#333333" font-family="Helvetica" font-size="11" lengthAdjust="spacing" textLength="75" x="786.5" y="740.9585">/Query partner,</text><text fill="#333333" font-family="Helvetica" font-size="11" lengthAdjust="spacing" textLength="86" x="781" y="751.9585">originator, referee</text><text fill="#333333" font-family="Helvetica" font-size="11" lengthAdjust="spacing" textLength="59" x="794.5" y="762.9585">in sequence</text><text fill="#333333" font-family="Helvetica" font-size="11" lengthAdjust="spacing" textLength="66" x="791" y="773.9585">Action: check</text></g><!--link *start to good--><g id="link_*start_good"><path d="M669.09,56.2683 C707.28,63.5883 843.79,95.0683 905,180.4883 C943.55,234.2883 948.74,314.8983 948.36,358.6183 " fill="none" id="*start-to-good" style="stroke:#000000;stroke-width:1.0;"/><polygon fill="#000000" points="948.29,363.5383,952.4182,354.5963,948.3614,358.5388,944.419,354.4821,948.29,363.5383" style="stroke:#000000;stroke-width:1.0;"/><text fill="#000000" font-family="Helvetica" font-size="11" lengthAdjust="spacing" textLength="31" x="988" y="200.9585">Agent:</text><text fill="#333333" font-family="Helvetica" font-size="11" lengthAdjust="spacing" textLength="109" x="949" y="211.9585">Call to local lift function</text><text fill="#333333" font-family="Helvetica" font-size="11" lengthAdjust="spacing" textLength="73" x="967" y="222.9585">[Lift completes]</text><text fill="#333333" font-family="Helvetica" font-size="11" lengthAdjust="spacing" textLength="135" x="936" y="233.9585">/Commit lift chits; Consense</text></g><!--reverse link good to signable--><g id="link_good_signable"><path d="M947,422.0283 C947,438.4833 947,460.1808 947,483.5464 C947,495.2292 947,507.3291 947,519.3991 C947,520.9079 947,522.4162 947,523.9232 C947,524.6766 947,525.4298 947,526.1825 " fill="none" id="good-backto-signable" style="stroke:#0000FF;stroke-width:1.0;"/><polygon fill="#0000FF" points="947,417.0683,943,426.0683,947,422.0683,951,426.0683,947,417.0683" style="stroke:#0000FF;stroke-width:1.0;"/><text fill="#0000FF" font-family="Helvetica" font-size="11" lengthAdjust="spacing" textLength="26" x="1002.5" y="460.4585">Peer:</text><text fill="#333333" font-family="Helvetica" font-size="11" lengthAdjust="spacing" textLength="126" x="952.5" y="471.4585">Receive referee signature</text><text fill="#333333" font-family="Helvetica" font-size="11" lengthAdjust="spacing" textLength="68" x="981.5" y="482.4585">[Verified Valid]</text><text fill="#333333" font-family="Helvetica" font-size="11" lengthAdjust="spacing" textLength="135" x="948" y="493.4585">/Commit lift chits; Consense</text></g><!--link signable to void--><g id="link_signable_void"><path d="M955.0889,658.8953 C955.2586,659.1976 955.4306,659.504 955.6049,659.8144 C956.3018,661.0557 957.0345,662.3607 957.8003,663.7247 C963.9269,674.6367 972.1763,689.3289 981.2575,705.502 C999.42,737.8483 1020.91,776.1183 1035.4,801.9183 " fill="none" id="signable-to-void" style="stroke:#0000FF;stroke-width:1.0;"/><polygon fill="#0000FF" points="1037.71,806.0383,1036.7733,796.2341,1035.2539,801.6831,1029.8049,800.1638,1037.71,806.0383" style="stroke:#0000FF;stroke-width:1.0;"/><text fill="#0000FF" font-family="Helvetica" font-size="11" lengthAdjust="spacing" textLength="26" x="1071" y="724.4585">Peer:</text><text fill="#333333" font-family="Helvetica" font-size="11" lengthAdjust="spacing" textLength="126" x="1021" y="735.4585">Receive referee signature</text><text fill="#333333" font-family="Helvetica" font-size="11" lengthAdjust="spacing" textLength="66" x="1051" y="746.4585">[Verified Void]</text><text fill="#333333" font-family="Helvetica" font-size="11" lengthAdjust="spacing" textLength="79" x="1044.5" y="757.4585">/Mark lift as void</text></g><text fill="#888888" font-family="sans-serif" font-size="10" lengthAdjust="spacing" textLength="142" x="515.5" y="1084.2863">Fri Feb 10 23:38:53 MST 2023</text><!--SRC=[bLVDZjis4BxhATZ50eeBsm_W1HfiDqrH86rHRvCUuXneQMIpaKcLeh8rYdttpWn5aTBQZdEnFUJ7-UQVz7TA5tLNWYZCuM3qikaETPRTEkLgUFLELKuyEkcWdMKjVOkRqihABPLMxaR8Lh3u2qfXdtQMBS1dtYRf4ONnQGkrFCRZQnB7YCfqkeo8joG61Eyj7TW30rZy4wL-lrKxBRSrYFyo8VoIiMgdD2-49R8m4Mz8NXPxABpT93wGz18Zwpf2K434yy1K-8N-04dn0FruIFSv32Eh6a0t4qQI4wj835OzPyzPDaH_nMdgsfMFrroiuPyEMbod36GX3H56AmcAmn53lH9dzN6uio7e2PBN4YHbA8i9lg3J-W9W0mSGYGb6TnYv8ItdSHojB2Jd0euoKOmX94ufGzREmrZJpfWqQYHEDL7s4WY9KyWNer88YQUqJ4CmKUL3u8iUCxutNLqARPpOWHEogfGzG2csdHC7jTlxPQA2ChC-K_VwY0VqmkkGJkaToYLaMSxZG3WhTQkSCbhOhePsbNty_fDOVBpjMh2V5Z-8f39l6VoAj-RlyOEBJz5K4RNI82r-LMwZWmDScta-ypfFAhlVWNRp-ywPWtHeHDHOA5jqzNcTWowojjoIhR4xWgdbTiwheWG7XGECRfxF1REAna8ZBLBnUFnz-pSYDledNM20S5uX6uVCwCXEjJSRkZ0ojozOQIMo8kaZvbQyRrfdGHus-huWpQl6ceDg0MKs2SU5TQrmwW1sbd7r4qa3FXcn6m8LxSppDHIWlj3irrGKeaAj6vru87ewQcMbkpOdYqJ-G376wFWghp0MUy12C9q3Z71Wk-3c6tQmRwI7lTGx7D8LbYFLyPD4ZvmHSckikzle9uMwv9D4Gd8GMKvn52F_fXn_zJenRWLGEl_em1vny5HW0MAY-1fKReWhnAWMJ6UfOtgwKKXzHOft1dU2dNFiK38Uxnx2lvuCZTamNCIYXifTvufNIR-nAoUEt0q5Si6HlZn2NVXPCl9Yx0INEVpRA0lbw-cOcSMPV4M-2HOy8D1b3mXzfiBxQHCA7CL9ROVI7lVBNBn9Yfj6Odzf_KnORT2AfZxEfkhJI-mQbZLrWbUDdpQT2TWzZyvOuF4qn9B7Bhh-rjWdQSkWJqpRVCXYVjh6_lA-niOq4DxIch9U7qzRAC88E6bBydI8LP2y4LwMWeyxJPCVEuNN4oleP_PlngdgY1LiBK4bySMou9Ep-0A9XFw2VSaLJ6UwDMMOHa6usupTQ6z3iLUkZKJXs2nvn7oTZ5F9J26Ptgb9IZ5cf87RCBdIhnWcXEQ-cJRYeEQ2aU9K9muQSz-AUBivZPMpqJ56ypWhSPgrHAqBc3Hh7ZeJgVs3QEmFZpeCFLUQhw-gquNl2nupEBMQ6ari4Sm3pACuCtUuf5lG7BpXbR_ecjW48z9n-VVc-xy7hhCu2pw0LPN2fz07MTD3wo9Z98nq_hdsxNJyhFjLsi-U2r_sf6cM_Gy0]--></g></svg>