<?xml version="1.0" encoding="UTF-8" standalone="no"?><svg xmlns="http://www.w3.org/2000/svg" xmlns:xlink="http://www.w3.org/1999/xlink" contentStyleType="text/css" height="936px" preserveAspectRatio="none" style="width:1158px;height:936px;background:#FFFFFF;" version="1.1" viewBox="0 0 1158 936" width="1158px" zoomAndPan="magnify"><defs/><g><text fill="#000000" font-family="sans-serif" font-size="14" font-weight="bold" lengthAdjust="spacing" textLength="74" x="535" y="23.5352">Lift States</text><!--cluster resolvable--><g id="cluster_resolvable"><path d="M446.5,633.4883 L819.5,633.4883 A12.5,12.5 0 0 1 832,645.9883 L832,665.4883 L434,665.4883 L434,645.9883 A12.5,12.5 0 0 1 446.5,633.4883 " fill="#E8E8EA" style="stroke:#E8E8EA;stroke-width:1.0;"/><rect fill="none" height="128" rx="12.5" ry="12.5" style="stroke:#202024;stroke-width:0.5;" width="398" x="434" y="633.4883"/><line style="stroke:#202024;stroke-width:0.5;" x1="434" x2="832" y1="665.4883" y2="665.4883"/><line style="stroke:#202024;stroke-width:0.5;" x1="434" x2="832" y1="649.4883" y2="649.4883"/><text fill="#000033" font-family="Helvetica" font-size="11" lengthAdjust="spacing" textLength="50" x="556.5" y="645.9585">resolvable</text><text fill="#000033" font-family="Helvetica" font-size="11" lengthAdjust="spacing" textLength="153" x="439" y="660.4585">Awaiting lift completion or failure</text></g><g id="resolvable.exec"><rect fill="#E8E8EA" height="50" rx="12.5" ry="12.5" style="stroke:#202024;stroke-width:0.5;" width="150" x="477" y="687.4883"/><line style="stroke:#202024;stroke-width:0.5;" x1="477" x2="627" y1="708.4883" y2="708.4883"/><text fill="#000033" font-family="Helvetica" font-size="11" lengthAdjust="spacing" textLength="24" x="540" y="700.9585">exec</text><text fill="#000033" font-family="Helvetica" font-size="11" lengthAdjust="spacing" textLength="130" x="482" y="721.9585">Status: exec, Request: null</text></g><g id="resolvable.part"><rect fill="#E8E8EA" height="50" rx="12.5" ry="12.5" style="stroke:#202024;stroke-width:0.5;" width="145" x="662.5" y="687.4883"/><line style="stroke:#202024;stroke-width:0.5;" x1="662.5" x2="807.5" y1="708.4883" y2="708.4883"/><text fill="#000033" font-family="Helvetica" font-size="11" lengthAdjust="spacing" textLength="19" x="725.5" y="700.9585">part</text><text fill="#000033" font-family="Helvetica" font-size="11" lengthAdjust="spacing" textLength="125" x="667.5" y="721.9585">Status: part, Request: null</text></g><g id="draftInit"><rect fill="#E8E8EA" height="53" rx="12.5" ry="12.5" style="stroke:#202024;stroke-width:0.5;" width="145" x="510.5" y="158.4883"/><line style="stroke:#202024;stroke-width:0.5;" x1="510.5" x2="655.5" y1="179.4883" y2="179.4883"/><text fill="#000033" font-family="Helvetica" font-size="11" lengthAdjust="spacing" textLength="38" x="564" y="171.9585">draft.init</text><text fill="#000033" font-family="Helvetica" font-size="11" lengthAdjust="spacing" textLength="125" x="515.5" y="192.9585">Status: draft, Request: init</text><text fill="#000033" font-family="Helvetica" font-size="11" lengthAdjust="spacing" textLength="91" x="515.5" y="203.9585">Need to validate lift</text></g><g id="initSeek"><rect fill="#E8E8EA" height="53" rx="12.5" ry="12.5" style="stroke:#202024;stroke-width:0.5;" width="147" x="311.5" y="317.4883"/><line style="stroke:#202024;stroke-width:0.5;" x1="311.5" x2="458.5" y1="338.4883" y2="338.4883"/><text fill="#000033" font-family="Helvetica" font-size="11" lengthAdjust="spacing" textLength="40" x="365" y="330.9585">init.seek</text><text fill="#000033" font-family="Helvetica" font-size="11" lengthAdjust="spacing" textLength="127" x="316.5" y="351.9585">Status: init, Request: seek</text><text fill="#000033" font-family="Helvetica" font-size="11" lengthAdjust="spacing" textLength="124" x="316.5" y="362.9585">Need to launch discovery</text></g><g id="seekExec"><rect fill="#E8E8EA" height="53" rx="12.5" ry="12.5" style="stroke:#202024;stroke-width:0.5;" width="158" x="306" y="478.4883"/><line style="stroke:#202024;stroke-width:0.5;" x1="306" x2="464" y1="499.4883" y2="499.4883"/><text fill="#000033" font-family="Helvetica" font-size="11" lengthAdjust="spacing" textLength="51" x="359.5" y="491.9585">seek.exec</text><text fill="#000033" font-family="Helvetica" font-size="11" lengthAdjust="spacing" textLength="138" x="311" y="512.9585">Status: seek, Request: exec</text><text fill="#000033" font-family="Helvetica" font-size="11" lengthAdjust="spacing" textLength="130" x="311" y="523.9585">Need to launch transaction</text></g><g id="good"><rect fill="#E8E8EA" height="50" rx="12.5" ry="12.5" style="stroke:#202024;stroke-width:0.5;" width="150" x="674" y="861.4883"/><line style="stroke:#202024;stroke-width:0.5;" x1="674" x2="824" y1="882.4883" y2="882.4883"/><text fill="#000033" font-family="Helvetica" font-size="11" lengthAdjust="spacing" textLength="24" x="737" y="874.9585">good</text><text fill="#000033" font-family="Helvetica" font-size="11" lengthAdjust="spacing" textLength="130" x="679" y="895.9585">Status: good, Request: null</text></g><g id="void"><rect fill="#E8E8EA" height="50" rx="12.5" ry="12.5" style="stroke:#202024;stroke-width:0.5;" width="146" x="151" y="861.4883"/><line style="stroke:#202024;stroke-width:0.5;" x1="151" x2="297" y1="882.4883" y2="882.4883"/><text fill="#000033" font-family="Helvetica" font-size="11" lengthAdjust="spacing" textLength="20" x="214" y="874.9585">void</text><text fill="#000033" font-family="Helvetica" font-size="11" lengthAdjust="spacing" textLength="126" x="156" y="895.9585">Status: void, Request: null</text></g><ellipse cx="730" cy="53.4883" fill="#222222" rx="10" ry="10" style="stroke:none;stroke-width:1.0;"/><!--link *start to draftInit--><g id="link_*start_draftInit"><path d="M719.78,55.5483 C688.87,58.9883 597.45,70.9283 580,93.4883 C567.39,109.7983 568.49,133.1583 572.56,152.0583 " fill="none" id="*start-to-draftInit" style="stroke:#008000;stroke-width:1.0;"/><polygon fill="#008000" points="573.69,156.8083,575.4954,147.1263,572.5313,151.9444,567.7132,148.9803,573.69,156.8083" style="stroke:#008000;stroke-width:1.0;"/><text fill="#008000" font-family="Helvetica" font-size="11" lengthAdjust="spacing" textLength="27" x="620" y="102.9585">User:</text><text fill="#333333" font-family="Helvetica" font-size="11" lengthAdjust="spacing" textLength="105" x="581" y="113.9585">User initiates linear lift</text><text fill="#333333" font-family="Helvetica" font-size="11" lengthAdjust="spacing" textLength="57" x="605" y="124.9585">Request:init</text></g><!--link *start to draftInit--><g id="link_*start_draftInit"><path d="M727.31,63.3083 C722.34,78.3783 710.4,109.2783 691,128.4883 C680.58,138.8083 667.84,147.6083 654.83,154.9683 " fill="none" id="*start-to-draftInit-1" style="stroke:#000000;stroke-width:1.0;"/><polygon fill="#000000" points="650.56,157.3083,660.3754,156.4968,654.9462,154.908,656.5349,149.4788,650.56,157.3083" style="stroke:#000000;stroke-width:1.0;"/><text fill="#000000" font-family="Helvetica" font-size="11" lengthAdjust="spacing" textLength="31" x="771" y="102.9585">Agent:</text><text fill="#333333" font-family="Helvetica" font-size="11" lengthAdjust="spacing" textLength="143" x="715" y="113.9585">Automaton initiates circular lift</text><text fill="#333333" font-family="Helvetica" font-size="11" lengthAdjust="spacing" textLength="57" x="758" y="124.9585">Request:init</text></g><!--link draftInit to void--><g id="link_draftInit_void"><path d="M510.21,190.4883 C355.1,202.0683 6,239.6283 6,342.9883 C6,342.9883 6,342.9883 6,713.4883 C6,786.5783 82.46,833.4183 144.82,859.4683 " fill="none" id="draftInit-to-void" style="stroke:#FF0000;stroke-width:1.0;"/><polygon fill="#FF0000" points="149.4,861.3583,142.5932,854.2402,144.7745,859.4596,139.5552,861.6409,149.4,861.3583" style="stroke:#FF0000;stroke-width:1.0;"/><text fill="#FF0000" font-family="Helvetica" font-size="11" lengthAdjust="spacing" textLength="31" x="51" y="491.4585">Agent:</text><text fill="#333333" font-family="Helvetica" font-size="11" lengthAdjust="spacing" textLength="41" x="46" y="502.4585">local_init</text><text fill="#333333" font-family="Helvetica" font-size="11" lengthAdjust="spacing" textLength="101" x="16" y="513.4585">[Lift/signature invalid]</text><text fill="#333333" font-family="Helvetica" font-size="11" lengthAdjust="spacing" textLength="119" x="7" y="524.4585">/Disable payment record</text></g><!--link draftInit to initSeek--><g id="link_draftInit_initSeek"><path d="M550.3,211.9183 C515.19,239.7483 459.49,283.9183 422.6,313.1783 " fill="none" id="draftInit-to-initSeek" style="stroke:#FF0000;stroke-width:1.0;"/><polygon fill="#FF0000" points="418.93,316.0883,428.4633,313.615,422.8427,312.9753,423.4824,307.3547,418.93,316.0883" style="stroke:#FF0000;stroke-width:1.0;"/><text fill="#FF0000" font-family="Helvetica" font-size="11" lengthAdjust="spacing" textLength="31" x="566" y="250.9585">Agent:</text><text fill="#333333" font-family="Helvetica" font-size="11" lengthAdjust="spacing" textLength="41" x="561" y="261.9585">local_init</text><text fill="#333333" font-family="Helvetica" font-size="11" lengthAdjust="spacing" textLength="85" x="539" y="272.9585">[Payor sign good]</text><text fill="#333333" font-family="Helvetica" font-size="11" lengthAdjust="spacing" textLength="147" x="508" y="283.9585">/Agent signs, advance to seek</text></g><!--link draftInit to good--><g id="link_draftInit_good"><path d="M655.68,193.5983 C741.87,207.1083 874,243.9683 874,342.9883 C874,342.9883 874,342.9883 874,713.4883 C874,773.1883 824.11,826.1083 787.36,856.9883 " fill="none" id="draftInit-to-good" style="stroke:#FF0000;stroke-width:1.0;"/><polygon fill="#FF0000" points="783.66,860.0483,793.1464,857.4011,787.5151,856.8642,788.052,851.2329,783.66,860.0483" style="stroke:#FF0000;stroke-width:1.0;"/><text fill="#FF0000" font-family="Helvetica" font-size="11" lengthAdjust="spacing" textLength="31" x="907" y="485.9585">Agent:</text><text fill="#333333" font-family="Helvetica" font-size="11" lengthAdjust="spacing" textLength="41" x="902" y="496.9585">local_init</text><text fill="#333333" font-family="Helvetica" font-size="11" lengthAdjust="spacing" textLength="79" x="883" y="507.9585">[Payor sig good]</text><text fill="#333333" font-family="Helvetica" font-size="11" lengthAdjust="spacing" textLength="95" x="875" y="518.9585">/Internal lift possible</text><text fill="#333333" font-family="Helvetica" font-size="11" lengthAdjust="spacing" textLength="95" x="875" y="529.9585">Lift executed locally</text></g><!--link initSeek to seekExec--><g id="link_initSeek_seekExec"><path d="M385,370.8883 C385,398.3783 385,441.8683 385,471.5983 " fill="none" id="initSeek-to-seekExec" style="stroke:#FF0000;stroke-width:1.0;"/><polygon fill="#FF0000" points="385,476.5883,389,467.5883,385,471.5883,381,467.5883,385,476.5883" style="stroke:#FF0000;stroke-width:1.0;"/><text fill="#FF0000" font-family="Helvetica" font-size="11" lengthAdjust="spacing" textLength="31" x="439" y="409.9585">Agent:</text><text fill="#333333" font-family="Helvetica" font-size="11" lengthAdjust="spacing" textLength="52" x="428.5" y="420.9585">local_seek</text><text fill="#333333" font-family="Helvetica" font-size="11" lengthAdjust="spacing" textLength="92" x="408.5" y="431.9585">[ChipNet launched]</text><text fill="#333333" font-family="Helvetica" font-size="11" lengthAdjust="spacing" textLength="137" x="386" y="442.9585">/Pathways/plans discovered</text></g><!--link initSeek to void--><g id="link_initSeek_void"><path d="M347.86,370.8583 C299.19,407.2983 216.14,478.8183 183,563.4883 C143.28,664.9583 186.95,796.8483 210.7,855.3083 " fill="none" id="initSeek-to-void" style="stroke:#FF0000;stroke-width:1.0;"/><polygon fill="#FF0000" points="212.5,859.6683,212.7459,849.8225,210.584,855.0499,205.3566,852.888,212.5,859.6683" style="stroke:#FF0000;stroke-width:1.0;"/><text fill="#FF0000" font-family="Helvetica" font-size="11" lengthAdjust="spacing" textLength="31" x="218.5" y="572.9585">Agent:</text><text fill="#333333" font-family="Helvetica" font-size="11" lengthAdjust="spacing" textLength="52" x="208" y="583.9585">local_seek</text><text fill="#333333" font-family="Helvetica" font-size="11" lengthAdjust="spacing" textLength="92" x="188" y="594.9585">[ChipNet launched]</text><text fill="#333333" font-family="Helvetica" font-size="11" lengthAdjust="spacing" textLength="100" x="184" y="605.9585">/Discovery timed out</text></g><!--link seekExec to exec--><g id="link_seekExec_exec"><path d="M405.81,531.5983 C436.98,569.9583 495.62,642.1183 528.37,682.4083 " fill="none" id="seekExec-to-exec" style="stroke:#FF0000;stroke-width:1.0;"/><polygon fill="#FF0000" points="531.27,685.9783,528.6991,676.4709,528.117,682.0977,522.4902,681.5156,531.27,685.9783" style="stroke:#FF0000;stroke-width:1.0;"/><text fill="#FF0000" font-family="Helvetica" font-size="11" lengthAdjust="spacing" textLength="31" x="511" y="572.9585">Agent:</text><text fill="#333333" font-family="Helvetica" font-size="11" lengthAdjust="spacing" textLength="52" x="500.5" y="583.9585">local_exec</text><text fill="#333333" font-family="Helvetica" font-size="11" lengthAdjust="spacing" textLength="115" x="469" y="594.9585">[DB/User selected plan]</text><text fill="#333333" font-family="Helvetica" font-size="11" lengthAdjust="spacing" textLength="94" x="479.5" y="605.9585">/ChipNet lift initiated</text></g><!--link seekExec to void--><g id="link_seekExec_void"><path d="M355.36,531.9583 C333.29,552.9083 304.12,584.2683 287,617.4883 C246.05,696.9383 231.31,803.3183 226.34,854.8883 " fill="none" id="seekExec-to-void" style="stroke:#FF0000;stroke-width:1.0;"/><polygon fill="#FF0000" points="225.89,859.6983,230.6951,851.1011,226.3465,854.7192,222.7285,850.3706,225.89,859.6983" style="stroke:#FF0000;stroke-width:1.0;"/><text fill="#FF0000" font-family="Helvetica" font-size="11" lengthAdjust="spacing" textLength="31" x="341" y="704.4585">Agent:</text><text fill="#333333" font-family="Helvetica" font-size="11" lengthAdjust="spacing" textLength="52" x="330.5" y="715.4585">local_exec</text><text fill="#333333" font-family="Helvetica" font-size="11" lengthAdjust="spacing" textLength="137" x="288" y="726.4585">[ChipNet lift initialization fails]</text></g><!--link *start to part--><g id="link_*start_part"><path d="M740.46,54.2183 C792.84,53.4783 1024,57.3783 1024,183.9883 C1024,183.9883 1024,183.9883 1024,505.9883 C1024,609.3983 899.58,665.5783 814.02,691.9883 " fill="none" id="*start-to-part" style="stroke:#0000FF;stroke-width:1.0;"/><polygon fill="#0000FF" points="809.38,693.3983,819.1549,694.6034,814.1632,691.9419,816.8247,686.9502,809.38,693.3983" style="stroke:#0000FF;stroke-width:1.0;"/><text fill="#0000FF" font-family="Helvetica" font-size="11" lengthAdjust="spacing" textLength="26" x="1074.5" y="335.9585">Peer:</text><text fill="#333333" font-family="Helvetica" font-size="11" lengthAdjust="spacing" textLength="125" x="1025" y="346.9585">chipNet requests promise</text><text fill="#333333" font-family="Helvetica" font-size="11" lengthAdjust="spacing" textLength="106" x="1034.5" y="357.9585">[Create lift, draft chits]</text></g><!--link resolvable to good--><g id="link_resolvable_good"><path d="M449.4217,761.6044 C449.4687,761.707 449.5159,761.8094 449.5634,761.9117 C449.6584,762.1163 449.7545,762.3203 449.8518,762.5237 C450.2409,763.3372 450.6483,764.1409 451.0748,764.9328 C451.9279,766.5166 452.8575,768.0531 453.8704,769.5267 C455.8963,772.4739 458.255,775.1695 461,777.4883 C472.29,787.0183 512.77,781.5183 527,785.4883 C589.09,802.7983 655.97,834.9683 699.91,858.1483 " fill="none" id="resolvable-to-good" style="stroke:#0000FF;stroke-width:1.0;"/><polygon fill="#0000FF" points="704.08,860.3583,698.0055,852.6058,699.6635,858.0142,694.2551,859.6722,704.08,860.3583" style="stroke:#0000FF;stroke-width:1.0;"/><text fill="#0000FF" font-family="Helvetica" font-size="11" lengthAdjust="spacing" textLength="26" x="699.5" y="794.9585">Peer:</text><text fill="#333333" font-family="Helvetica" font-size="11" lengthAdjust="spacing" textLength="109" x="658" y="805.9585">chipNet confirms good</text><text fill="#333333" font-family="Helvetica" font-size="11" lengthAdjust="spacing" textLength="68" x="678.5" y="816.9585">[Verified Valid]</text><text fill="#333333" font-family="Helvetica" font-size="11" lengthAdjust="spacing" textLength="135" x="645" y="827.9585">/Commit lift chits; Consense</text></g><!--link resolvable to void--><g id="link_resolvable_void"><path d="M433.9909,743.3284 C433.9528,743.4333 433.9146,743.5382 433.8762,743.6432 C433.7995,743.8533 433.7222,744.0637 433.6442,744.2745 C433.4882,744.6961 433.3297,745.1191 433.1687,745.5433 C432.8466,746.3917 432.5144,747.2449 432.1719,748.1013 C430.8017,751.527 429.2657,755.0037 427.5505,758.4269 C424.12,765.2733 419.9725,771.9058 415,777.4883 C382.76,813.6783 335.38,840.5783 295.88,858.4783 " fill="none" id="resolvable-to-void" style="stroke:#0000FF;stroke-width:1.0;"/><polygon fill="#0000FF" points="291.49,860.4383,301.3389,860.444,296.0602,858.4102,298.094,853.1316,291.49,860.4383" style="stroke:#0000FF;stroke-width:1.0;"/><text fill="#0000FF" font-family="Helvetica" font-size="11" lengthAdjust="spacing" textLength="26" x="450" y="794.9585">Peer:</text><text fill="#333333" font-family="Helvetica" font-size="11" lengthAdjust="spacing" textLength="110" x="408" y="805.9585">chipNet confirms failed</text><text fill="#333333" font-family="Helvetica" font-size="11" lengthAdjust="spacing" textLength="66" x="430" y="816.9585">[Verified Void]</text><text fill="#333333" font-family="Helvetica" font-size="11" lengthAdjust="spacing" textLength="79" x="423.5" y="827.9585">/Mark lift as void</text></g><text fill="#888888" font-family="sans-serif" font-size="10" lengthAdjust="spacing" textLength="151" x="496.5" y="926.1563">Mon Jun 24 17:47:20 MDT 2024</text><!--SRC=[XLLTQnin47pNhr13m76vEEyk1DAu3u4sb8Rc9Gb5qQrj4PrqrOTJj_I_TrUoxiwEZuA9MUrcPdOrAxzJHkfO0vUsQQoPjR7HZ9q65JISVLRBmE-22E2dpDCtFwcTM8QPCYgSSE5v2cymAddAp3p0IqfJT8T1oL9Y1hz0fYn5dp3OPHrugpVYMGF_mpZFXrJS1QrmWVrbh6ET9tdHpxEGYd-3dn4ydXFpiEuMeER1yetGgYOiZSsneg_7ePC134aSL1KKBQAHQruhB-q6t9QLLdeWEXa0fJxwgWEWu8JnGWPb3ODKqE5GEC0nKMksihOUb51uM4AZ6fHGU5YoiMg8Gk5XINybStxrAbHGPfKcHtvfDP1WRXrV2gMZ0yOcoIwv7vMoBchmS_Rm_ecVFvn63-xf_98FRkOq5P-bLFKT_wGxKEGwf38WN69yD4LQkgB9P9enZu9ThS24wYe6suY08df4gPoCUXopmoArzJDfpNCgCkldYcihXVwHhJAXBRdmQcLmZ0wGAbbiKl65yidChTWsA0VzBQshZrBq3Xkb-IgsE6ZYIVUD-9FKPJho5HVrHXW9P2gosV5Mid7-pz5Ht9W0pWYTBxsrtYjiwT6afu6i6GCQEO7eBNAMHdhAtlDlQVEENAzLUmjXjmjG9o5X_Igs_gBL-2_Tda5zb6BiWaRX5sLlUL0DwhSn872tdZqoZ0ZFIxduU97ywa63f3cGsW4XpQWu3-_zBVoOy0n_14Uhto9j5IqSFifbhLh8QvMtlW3IQSNb3iPbgtlUEjie3pY7QmVbAQpo5b5ry3ICmMiy8DWtq3w1j6QfNEDtxz4zEBLKE9LxsWTi1tzXrAwRnF81Zum7_4n7sFRdCy96eu0zllIGVH7k9PFXBmq1JTa_]--></g></svg>