<?xml version="1.0" encoding="UTF-8" standalone="no"?><svg xmlns="http://www.w3.org/2000/svg" xmlns:xlink="http://www.w3.org/1999/xlink" contentStyleType="text/css" height="687px" preserveAspectRatio="none" style="width:785px;height:687px;background:#FFFFFF;" version="1.1" viewBox="0 0 785 687" width="785px" zoomAndPan="magnify"><defs/><g><text fill="#000000" font-family="sans-serif" font-size="14" font-weight="bold" lengthAdjust="spacing" textLength="194" x="288.5" y="23.5352">Foil Chit Consensus States</text><!--cluster foil--><g id="cluster_foil"><path d="M19.5,44.4883 L632.5,44.4883 A12.5,12.5 0 0 1 645,56.9883 L645,60.4883 L7,60.4883 L7,56.9883 A12.5,12.5 0 0 1 19.5,44.4883 " fill="#E8E8EA" style="stroke:#E8E8EA;stroke-width:1.0;"/><rect fill="none" height="618.72" rx="12.5" ry="12.5" style="stroke:#202024;stroke-width:0.5;" width="638" x="7" y="44.4883"/><line style="stroke:#202024;stroke-width:0.5;" x1="7" x2="645" y1="60.4883" y2="60.4883"/><text fill="#000033" font-family="Helvetica" font-size="11" lengthAdjust="spacing" textLength="76" x="288" y="56.9585">Foil Consensus</text></g><!--cluster chit--><g id="cluster_chit"><path d="M433.5,175.2083 L600.5,175.2083 A12.5,12.5 0 0 1 613,187.7083 L613,191.2083 L421,191.2083 L421,187.7083 A12.5,12.5 0 0 1 433.5,175.2083 " fill="#E8E8EA" style="stroke:#E8E8EA;stroke-width:1.0;"/><rect fill="none" height="308" rx="12.5" ry="12.5" style="stroke:#202024;stroke-width:0.5;" width="192" x="421" y="175.2083"/><line style="stroke:#202024;stroke-width:0.5;" x1="421" x2="613" y1="191.2083" y2="191.2083"/><text fill="#000033" font-family="Helvetica" font-size="11" lengthAdjust="spacing" textLength="62" x="486" y="187.6785">Chit Protocol</text></g><g id="foil.linked"><rect fill="#E8E8EA" height="53" rx="12.5" ry="12.5" style="stroke:#202024;stroke-width:0.5;" width="150" x="328" y="586.2083"/><line style="stroke:#202024;stroke-width:0.5;" x1="328" x2="478" y1="607.2083" y2="607.2083"/><text fill="#000033" font-family="Helvetica" font-size="11" lengthAdjust="spacing" textLength="32" x="387" y="599.6785">Linked</text><text fill="#000033" font-family="Helvetica" font-size="11" lengthAdjust="spacing" textLength="95" x="333" y="620.6785">Chain Index not null</text><text fill="#000033" font-family="Helvetica" font-size="11" lengthAdjust="spacing" textLength="130" x="333" y="631.6785">Chain Index &lt;= Chain Conf</text></g><g id="foil.notify"><rect fill="#E8E8EA" height="75" rx="12.5" ry="12.5" style="stroke:#202024;stroke-width:0.5;" width="144" x="256" y="392.2083"/><line style="stroke:#202024;stroke-width:0.5;" x1="256" x2="400" y1="413.2083" y2="413.2083"/><text fill="#000033" font-family="Helvetica" font-size="11" lengthAdjust="spacing" textLength="28" x="314" y="405.6785">Notify</text><text fill="#000033" font-family="Helvetica" font-size="11" lengthAdjust="spacing" textLength="99" x="261" y="426.6785">Chit remotely known</text><text fill="#000033" font-family="Helvetica" font-size="11" lengthAdjust="spacing" textLength="95" x="261" y="437.6785">Chain Index not null</text><text fill="#000033" font-family="Helvetica" font-size="11" lengthAdjust="spacing" textLength="124" x="261" y="448.6785">Chain Index &gt; Chain Conf</text><text fill="#000033" font-family="Helvetica" font-size="11" lengthAdjust="spacing" textLength="111" x="261" y="459.6785">Queued message: upd</text></g><g id="foil.chit.unlinked"><rect fill="#E8E8EA" height="50" rx="12.5" ry="12.5" style="stroke:#202024;stroke-width:0.5;" width="108" x="440" y="205.2083"/><line style="stroke:#202024;stroke-width:0.5;" x1="440" x2="548" y1="226.2083" y2="226.2083"/><text fill="#000033" font-family="Helvetica" font-size="11" lengthAdjust="spacing" textLength="42" x="473" y="218.6785">Unlinked</text><text fill="#000033" font-family="Helvetica" font-size="11" lengthAdjust="spacing" textLength="88" x="445" y="239.6785">Chain Index is null</text></g><g id="foil.chit.linking"><rect fill="#E8E8EA" height="75" rx="12.5" ry="12.5" style="stroke:#202024;stroke-width:0.5;" width="144" x="437" y="392.2083"/><line style="stroke:#202024;stroke-width:0.5;" x1="437" x2="581" y1="413.2083" y2="413.2083"/><text fill="#000033" font-family="Helvetica" font-size="11" lengthAdjust="spacing" textLength="34" x="492" y="405.6785">Linking</text><text fill="#000033" font-family="Helvetica" font-size="11" lengthAdjust="spacing" textLength="87" x="442" y="426.6785">Chit locally known</text><text fill="#000033" font-family="Helvetica" font-size="11" lengthAdjust="spacing" textLength="95" x="442" y="437.6785">Chain Index not null</text><text fill="#000033" font-family="Helvetica" font-size="11" lengthAdjust="spacing" textLength="124" x="442" y="448.6785">Chain Index &gt; Chain Conf</text><text fill="#000033" font-family="Helvetica" font-size="11" lengthAdjust="spacing" textLength="79" x="442" y="459.6785">Chit not yet sent</text></g><g id="error"><rect fill="#E8E8EA" height="50" rx="12.5" ry="12.5" style="stroke:#202024;stroke-width:0.5;" width="98" x="669" y="205.2083"/><line style="stroke:#202024;stroke-width:0.5;" x1="669" x2="767" y1="226.2083" y2="226.2083"/><text fill="#000033" font-family="Helvetica" font-size="11" lengthAdjust="spacing" textLength="24" x="706" y="218.6785">error</text><text fill="#000033" font-family="Helvetica" font-size="11" lengthAdjust="spacing" textLength="78" x="674" y="239.6785">Can't Consense</text></g><!--link foil to unlinked--><g id="link_foil_unlinked"><path d="M358.93,67.3583 C357.44,70.3683 334.03,118.9283 356,143.2083 C367.99,156.4583 420.46,142.3983 436,151.2083 C455.13,162.0483 469.81,182.0483 479.61,199.0883 " fill="none" id="foil-to-unlinked" style="stroke:#008000;stroke-width:1.0;"/><polygon fill="#008000" points="482.02,203.4083,481.1458,193.5983,479.5918,199.0375,474.1526,197.4834,482.02,203.4083" style="stroke:#008000;stroke-width:1.0;"/><text fill="#008000" font-family="Helvetica" font-size="11" lengthAdjust="spacing" textLength="27" x="390" y="112.1785">User:</text><text fill="#333333" font-family="Helvetica" font-size="11" lengthAdjust="spacing" textLength="93" x="357" y="123.1785">User signs/creates</text><text fill="#333333" font-family="Helvetica" font-size="11" lengthAdjust="spacing" textLength="72" x="367.5" y="134.1785">valid direct chit</text></g><!--link foil to unlinked--><g id="link_foil_unlinked"><path d="M359.73,67.1983 C366.95,67.1083 425.6,67.3483 455,97.2083 C481.65,124.2783 490.24,168.6283 492.93,198.3683 " fill="none" id="foil-to-unlinked-1" style="stroke:#000000;stroke-width:1.0;"/><polygon fill="#000000" points="493.32,203.3383,496.6139,194.0566,492.9343,198.3532,488.6377,194.6736,493.32,203.3383" style="stroke:#000000;stroke-width:1.0;"/><text fill="#000000" font-family="Helvetica" font-size="11" lengthAdjust="spacing" textLength="39" x="503" y="112.1785">Internal:</text><text fill="#333333" font-family="Helvetica" font-size="11" lengthAdjust="spacing" textLength="81" x="482" y="123.1785">Site creates new</text><text fill="#333333" font-family="Helvetica" font-size="11" lengthAdjust="spacing" textLength="55" x="495" y="134.1785">valid lift chit</text></g><!--link foil to notify--><g id="link_foil_notify"><path d="M358.3,67.2983 C343.99,69.1783 114.36,100.0483 77,151.2083 C44.5,195.7183 50.05,227.1383 77,275.2083 C113.59,340.4683 190.47,381.2983 249.57,404.2983 " fill="none" id="foil-to-notify" style="stroke:#0000FF;stroke-width:1.0;"/><polygon fill="#0000FF" points="254.18,406.0583,247.2015,399.1084,249.5096,404.273,244.345,406.581,254.18,406.0583" style="stroke:#0000FF;stroke-width:1.0;"/><text fill="#0000FF" font-family="Helvetica" font-size="11" lengthAdjust="spacing" textLength="26" x="131.5" y="194.6785">Peer:</text><text fill="#333333" font-family="Helvetica" font-size="11" lengthAdjust="spacing" textLength="89" x="100" y="205.6785">Received new chit</text><text fill="#333333" font-family="Helvetica" font-size="11" lengthAdjust="spacing" textLength="94" x="97.5" y="216.6785">from stock Act:new</text><text fill="#333333" font-family="Helvetica" font-size="11" lengthAdjust="spacing" textLength="133" x="78" y="227.6785">[Agree with proposed hash]</text><text fill="#333333" font-family="Helvetica" font-size="11" lengthAdjust="spacing" textLength="83" x="103" y="238.6785">/Add chit to chain</text><text fill="#333333" font-family="Helvetica" font-size="11" lengthAdjust="spacing" textLength="104" x="92.5" y="249.6785">endHash = propHash</text><text fill="#333333" font-family="Helvetica" font-size="11" lengthAdjust="spacing" textLength="121" x="84" y="260.6785">Queue message Act:upd</text><text fill="#333333" font-family="Helvetica" font-size="11" lengthAdjust="spacing" textLength="114" x="87.5" y="271.6785">No missing chits = ACK</text></g><!--link foil to notify--><g id="link_foil_notify"><path d="M358.57,67.4283 C352.84,70.4583 291.27,103.8283 271,151.2083 C237.24,230.1183 275.99,330.3883 304.08,386.2383 " fill="none" id="foil-to-notify-1" style="stroke:#0000FF;stroke-width:1.0;"/><polygon fill="#0000FF" points="306.25,390.4883,305.7274,380.6533,303.9797,386.0334,298.5996,384.2857,306.25,390.4883" style="stroke:#0000FF;stroke-width:1.0;"/><text fill="#0000FF" font-family="Helvetica" font-size="11" lengthAdjust="spacing" textLength="26" x="333" y="194.6785">Peer:</text><text fill="#333333" font-family="Helvetica" font-size="11" lengthAdjust="spacing" textLength="89" x="301.5" y="205.6785">Received new chit</text><text fill="#333333" font-family="Helvetica" font-size="11" lengthAdjust="spacing" textLength="94" x="299" y="216.6785">from stock Act:new</text><text fill="#333333" font-family="Helvetica" font-size="11" lengthAdjust="spacing" textLength="148" x="272" y="227.6785">[Disagree with proposed hash]</text><text fill="#333333" font-family="Helvetica" font-size="11" lengthAdjust="spacing" textLength="83" x="304.5" y="238.6785">/Add chit to chain</text><text fill="#333333" font-family="Helvetica" font-size="11" lengthAdjust="spacing" textLength="102" x="295" y="249.6785">endHash = newHash</text><text fill="#333333" font-family="Helvetica" font-size="11" lengthAdjust="spacing" textLength="121" x="285.5" y="260.6785">Queue message Act:upd</text><text fill="#333333" font-family="Helvetica" font-size="11" lengthAdjust="spacing" textLength="133" x="279.5" y="271.6785">Send missing chits = NACK</text></g><!--link unlinked to linking--><g id="link_unlinked_linking"><path d="M495.84,255.4283 C498.3,287.7883 502.69,345.6883 505.73,385.5883 " fill="none" id="unlinked-to-linking" style="stroke:#000000;stroke-width:1.0;"/><polygon fill="#000000" points="506.08,390.3283,509.4003,381.056,505.7085,385.3421,501.4224,381.6503,506.08,390.3283" style="stroke:#000000;stroke-width:1.0;"/><text fill="#000000" font-family="Helvetica" font-size="11" lengthAdjust="spacing" textLength="39" x="546" y="314.6785">Internal:</text><text fill="#333333" font-family="Helvetica" font-size="11" lengthAdjust="spacing" textLength="112" x="509.5" y="325.6785">Detected new valid chit</text><text fill="#333333" font-family="Helvetica" font-size="11" lengthAdjust="spacing" textLength="63" x="534" y="336.6785">/Add to chain</text><text fill="#333333" font-family="Helvetica" font-size="11" lengthAdjust="spacing" textLength="93" x="519" y="347.6785">Generate endHash</text><text fill="#333333" font-family="Helvetica" font-size="11" lengthAdjust="spacing" textLength="123" x="504" y="358.6785">Queue message Act:new</text></g><!--link linking to linked--><g id="link_linking_linked"><path d="M488.17,467.6583 C473.94,492.7483 454.55,526.6083 437,556.2083 C432.32,564.1083 427.18,572.5783 422.35,580.4683 " fill="none" id="linking-to-linked" style="stroke:#FF0000;stroke-width:1.0;"/><polygon fill="#FF0000" points="419.86,584.5383,427.97,578.95,422.4701,580.2736,421.1465,574.7738,419.86,584.5383" style="stroke:#FF0000;stroke-width:1.0;"/><text fill="#FF0000" font-family="Helvetica" font-size="11" lengthAdjust="spacing" textLength="31" x="525" y="508.6785">Agent:</text><text fill="#333333" font-family="Helvetica" font-size="11" lengthAdjust="spacing" textLength="91" x="495" y="519.6785">Detect chit to send</text><text fill="#333333" font-family="Helvetica" font-size="11" lengthAdjust="spacing" textLength="91" x="495" y="530.6785">/Send chit to Stock</text><text fill="#333333" font-family="Helvetica" font-size="11" lengthAdjust="spacing" textLength="110" x="485.5" y="541.6785">Send new chit Act:new</text><text fill="#333333" font-family="Helvetica" font-size="11" lengthAdjust="spacing" textLength="143" x="469" y="552.6785">Ratchet ackHash = newHash</text></g><!--link notify to linked--><g id="link_notify_linked"><path d="M300.49,467.6783 C284.63,493.8483 270.92,528.9983 288,556.2083 C296.27,569.3883 308.65,579.5083 322.27,587.2583 " fill="none" id="notify-to-linked" style="stroke:#FF0000;stroke-width:1.0;"/><polygon fill="#FF0000" points="326.41,589.5083,320.4048,581.7021,322.0145,587.125,316.5916,588.7348,326.41,589.5083" style="stroke:#FF0000;stroke-width:1.0;"/><text fill="#FF0000" font-family="Helvetica" font-size="11" lengthAdjust="spacing" textLength="31" x="345" y="514.1785">Agent:</text><text fill="#333333" font-family="Helvetica" font-size="11" lengthAdjust="spacing" textLength="119" x="301" y="525.1785">Detect queued message</text><text fill="#333333" font-family="Helvetica" font-size="11" lengthAdjust="spacing" textLength="119" x="301" y="536.1785">/Send message to Stock</text><text fill="#333333" font-family="Helvetica" font-size="11" lengthAdjust="spacing" textLength="143" x="289" y="547.1785">Ratchet ackHash = newHash</text></g><!--link foil to error--><g id="link_foil_error"><path d="M645.2445,148.0592 C645.4074,148.2067 645.5701,148.3542 645.7326,148.5017 C646.0577,148.7968 646.382,149.0921 646.7055,149.3875 C647.9995,150.569 649.281,151.7529 650.5495,152.9378 C653.0865,155.3077 655.5715,157.6817 658.0011,160.0499 C662.8602,164.7863 667.4974,169.4997 671.8845,174.1105 C680.6588,183.332 688.4325,192.1433 694.98,199.9083 " fill="none" id="foil-to-error" style="stroke:#0000FF;stroke-width:1.0;"/><polygon fill="#0000FF" points="698.05,203.5783,695.3647,194.1026,694.8505,199.736,689.217,199.2218,698.05,203.5783" style="stroke:#0000FF;stroke-width:1.0;"/><text fill="#0000FF" font-family="Helvetica" font-size="11" lengthAdjust="spacing" textLength="26" x="695" y="106.6785">Peer:</text><text fill="#333333" font-family="Helvetica" font-size="11" lengthAdjust="spacing" textLength="99" x="658.5" y="117.6785">Receive error report</text><text fill="#333333" font-family="Helvetica" font-size="11" lengthAdjust="spacing" textLength="89" x="663.5" y="128.6785">from Stock Act:err</text><text fill="#333333" font-family="Helvetica" font-size="11" lengthAdjust="spacing" textLength="138" x="639" y="139.6785">/Notify my local user of error</text></g><text fill="#888888" font-family="sans-serif" font-size="10" lengthAdjust="spacing" textLength="154" x="308.5" y="677.8763">Wed Nov 01 18:54:34 MDT 2023</text><!--SRC=[hLLDRzim3BtxLt1503T0kjs3jK2GObkneTWQz5Jtu5fq8aIcCabk5mpzxwC-x2IDMmp3BgsbH_6zHrBAEqcLQWL2fPj6q_jDswXivAHJUFf9ImNpbNGmrsIHR6jXuKg7Tfnbrdz0xKD-Pm1nUHAYlnljTANL2PGMAh_Z8_gOMrAIrYW2tAR5Vi0ttf6q3BYAtmm_PmS1wNn_Ea7Nsibw6o0AdzbpadeIxNHEGeYNdsLvC0K2NIcLdMPeZ3PJc9UKzzOnwvGoi2ebmHK9_0MIULgbiY6C1RmEVZnFIoQeisHp6ikjT5KgjOKrwIVQnrx9VOHUl9xR7zoY0pRbibYYX1XijCEUTeSDi0w11wHTm8yMMnJGeBNb4gVGRaHVS6TAij99JM1QXLpvC4vdTwFMeha_ku1TpKSX-3GW4xZbls3bako7og2Vo88UIoK526cmSc7g9da-JXc7KbsHGqEbci12ifYK1mYVkbnAraUPxaORZDewXvqolp-vmGhb8nlcDE5eGRNH3K-dhjOmgzoKWKa-Mnf4U99k1HkZDzhoYLLfL_a4yfaGyT8upV-ve0KXYI-Cmdc8zfy5XS9sTGsPkRG5NMjefBNSxv34yfdP_Ej_bdyfcVGV7N22DmqiEFJ8mdNqqD_1qD5-hbysz18Tpq1o4LkPkfZ4xNHzHaBZPp4979B5MPWxiVaIYeVxHBy_cU8X4VVU-Og9I1fCTTiBNynajAjpHrJGJUcg5T_FibeVLemrn9xzZOIV1zTkJqHdRAVZBS8iVpasVZqyDFvg-qeQP7BRJSwYdnpUtzF1xrlgBZUwmewze5FDDtk3bQmb6v3-PHaNL8OZLeU2fLuD37LwkGVb1OpLRRGv5iTW51T_Fw3PnaSO_7i3kewdcV4F]--></g></svg>