<svg xmlns="http://www.w3.org/2000/svg" xmlns:xlink="http://www.w3.org/1999/xlink" xmlns:lucid="lucid" width="1781" height="1001"><g transform="translate(260.5011009850843 -379.4988990149157)" lucid:page-tab-id="0_0"><path d="M600 400c0 11.05-8.95 20-20 20s-20-8.95-20-20 8.95-20 20-20 20 8.95 20 20z" stroke="#3a414a"/><path d="M772 500c-17.67 0-32 14.33-32 32v96c0 17.67 14.33 32 32 32h356c17.67 0 32-14.33 32-32v-96c0-17.67-14.33-32-32-32z" stroke="#3a414a" fill="#fff"/><path d="M740 544h420" stroke="#3a414a" fill="none"/><use xlink:href="#a" transform="matrix(1,0,0,1,824,500) translate(59.641975308641975 26.444444444444443)"/><use xlink:href="#b" transform="matrix(1,0,0,1,824,500) translate(143.4691358024691 26.444444444444443)"/><use xlink:href="#c" transform="matrix(1,0,0,1,782,560) translate(113.18518518518519 46.44444444444444)"/><use xlink:href="#d" transform="matrix(1,0,0,1,782,560) translate(176.0246913580247 46.44444444444444)"/><path d="M402 740c-17.67 0-32 14.33-32 32v96c0 17.67 14.33 32 32 32h356c17.67 0 32-14.33 32-32v-96c0-17.67-14.33-32-32-32z" stroke="#3a414a" fill="#fff"/><path d="M370 784h420" stroke="#3a414a" fill="none"/><use xlink:href="#e" transform="matrix(1,0,0,1,454,740) translate(98.8395061728395 26.444444444444443)"/><use xlink:href="#f" transform="matrix(1,0,0,1,412,800) translate(95.96296296296296 46.44444444444444)"/><use xlink:href="#g" transform="matrix(1,0,0,1,412,800) translate(146.39506172839506 46.44444444444444)"/><use xlink:href="#h" transform="matrix(1,0,0,1,412,800) translate(168.55555555555554 46.44444444444444)"/><path d="M402 980c-17.67 0-32 14.33-32 32v96c0 17.67 14.33 32 32 32h356c17.67 0 32-14.33 32-32v-96c0-17.67-14.33-32-32-32z" stroke="#3a414a" fill="#fff"/><path d="M370 1024h420" stroke="#3a414a" fill="none"/><use xlink:href="#i" transform="matrix(1,0,0,1,454,980) translate(89.05555555555556 26.444444444444443)"/><use xlink:href="#j" transform="matrix(1,0,0,1,412,1040) translate(33.03086419753086 46.44444444444444)"/><use xlink:href="#k" transform="matrix(1,0,0,1,412,1040) translate(68.7716049382716 46.44444444444444)"/><use xlink:href="#l" transform="matrix(1,0,0,1,412,1040) translate(93.46296296296296 46.44444444444444)"/><use xlink:href="#k" transform="matrix(1,0,0,1,412,1040) translate(130.5 46.44444444444444)"/><use xlink:href="#m" transform="matrix(1,0,0,1,412,1040) translate(155.19135802469134 46.44444444444444)"/><use xlink:href="#n" transform="matrix(1,0,0,1,412,1040) translate(206.91975308641975 46.44444444444444)"/><use xlink:href="#o" transform="matrix(1,0,0,1,412,1040) translate(257.35185185185185 46.44444444444444)"/><path d="M402 1220c-17.67 0-32 14.33-32 32v96c0 17.67 14.33 32 32 32h356c17.67 0 32-14.33 32-32v-96c0-17.67-14.33-32-32-32z" stroke="#3a414a" fill="#fff"/><path d="M370 1264h420" stroke="#3a414a" fill="none"/><use xlink:href="#p" transform="matrix(1,0,0,1,454,1220) translate(91.49382716049382 26.444444444444443)"/><use xlink:href="#q" transform="matrix(1,0,0,1,412,1280) translate(131.02469135802468 46.44444444444444)"/><path d="M1520 580c0 11.05-8.95 20-20 20s-20-8.95-20-20 8.95-20 20-20 20 8.95 20 20z" stroke="#3a414a" fill="#fff"/><path d="M1485.86 565.86l28.28 28.28m0-28.28l-28.28 28.28" stroke="#3a414a" fill="none"/><path d="M190.5 483.12h-1v-29.2h1zM559 400.5H196.02l-.88.07-.84.2-.8.33-.73.45-.66.56-.55.67-.45.73-.33.8-.2.84-.07.88v26.57h-1v-26.62l.08-1 .24-1 .4-.93.52-.87.66-.78.78-.66.87-.53.94-.38.98-.24 1-.08H559z" stroke="#008a0e" stroke-width=".05" fill="#008a0e"/><path d="M559.5 399.98l.02.52H559v-1h.56z" fill="#008a0e"/><path d="M559.52 399.98l.02.54h-.58v-1.04h.63zm-.5-.46v.96h.47l-.03-.5.06-.46z" stroke="#008a0e" stroke-width=".05" fill="#008a0e"/><path d="M190 497.88l-4.63-14.26h9.26z" fill="#008a0e"/><path d="M190 499.5l-5.32-16.38h10.64zm-3.95-15.38l3.95 12.14 3.95-12.14z" stroke="#008a0e" stroke-width=".05" fill="#008a0e"/><use xlink:href="#r" transform="matrix(1,0,0,1,110.29629629629628,432.59332939152654) translate(0 14.222222222222223)"/><use xlink:href="#s" transform="matrix(1,0,0,1,110.29629629629628,432.59332939152654) translate(50.271604938271615 14.222222222222223)"/><use xlink:href="#t" transform="matrix(1,0,0,1,110.29629629629628,432.59332939152654) translate(120.29629629629633 14.222222222222223)"/><path d="M950.5 483.12h-1v-29h1zm-5.48-83.54l1 .24.93.4.87.52.78.66.66.78.53.87.38.94.24.98.08 1v26.8h-1v-26.76l-.07-.88-.2-.84-.33-.8-.45-.73-.56-.66-.67-.55-.73-.45-.8-.33-.84-.2-.88-.07H601v-1h343.02z" stroke="#1071e5" stroke-width=".05" fill="#1071e5"/><path d="M601 400.5h-.56l.06-.48-.02-.52h.53z" fill="#1071e5"/><path d="M601.04 400.52h-.63l.08-.5-.02-.54h.58zm-.53-1l.03.5-.06.46h.52v-.96z" stroke="#1071e5" stroke-width=".05" fill="#1071e5"/><path d="M950 497.88l-4.63-14.26h9.26z" fill="#1071e5"/><path d="M950 499.5l-5.32-16.38h10.64zm-3.95-15.38l3.95 12.14 3.95-12.14z" stroke="#1071e5" stroke-width=".05" fill="#1071e5"/><use xlink:href="#u" transform="matrix(1,0,0,1,859.7777777777777,432.78950914902003) translate(0 14.222222222222223)"/><use xlink:href="#v" transform="matrix(1,0,0,1,859.7777777777777,432.78950914902003) translate(49.33333333333334 14.222222222222223)"/><use xlink:href="#w" transform="matrix(1,0,0,1,859.7777777777777,432.78950914902003) translate(138.0740740740741 14.222222222222223)"/><path d="M12 500c-17.67 0-32 14.33-32 32v96c0 17.67 14.33 32 32 32h356c17.67 0 32-14.33 32-32v-96c0-17.67-14.33-32-32-32z" stroke="#3a414a" fill="#fff"/><path d="M-20 544h420" stroke="#3a414a" fill="none"/><use xlink:href="#x" transform="matrix(1,0,0,1,64,500) translate(71.95679012345678 26.444444444444443)"/><use xlink:href="#b" transform="matrix(1,0,0,1,64,500) translate(131.15432098765433 26.444444444444443)"/><use xlink:href="#y" transform="matrix(1,0,0,1,22,560) translate(97.78395061728396 46.44444444444444)"/><use xlink:href="#b" transform="matrix(1,0,0,1,22,560) translate(189.32716049382714 46.44444444444444)"/><path d="M479.78 551.78H401v-1h78.78zm243.34 0h-62.9v-1h62.9z" stroke="#1071e5" stroke-width=".05" fill="#1071e5"/><path d="M401 551.78h-.5v-1h.5z" fill="#1071e5"/><path d="M401.04 551.8h-.56v-1.04h.56zm-.52-1v.96h.47v-.95z" stroke="#1071e5" stroke-width=".05" fill="#1071e5"/><path d="M737.88 551.28l-14.26 4.64v-9.27z" fill="#1071e5"/><path d="M739.5 551.28l-16.38 5.33v-10.64zm-15.38 3.95l12.14-3.95-12.14-3.94z" stroke="#1071e5" stroke-width=".05" fill="#1071e5"/><use xlink:href="#u" transform="matrix(1,0,0,1,479.77777777777777,540.6168208402845) translate(0 14.222222222222223)"/><use xlink:href="#v" transform="matrix(1,0,0,1,479.77777777777777,540.6168208402845) translate(49.33333333333334 14.222222222222223)"/><use xlink:href="#w" transform="matrix(1,0,0,1,479.77777777777777,540.6168208402845) translate(138.0740740740741 14.222222222222223)"/><path d="M440.9 620.86h-24.02v-1h24zm298.1 0h-39.9v-1H739z" stroke="#008a0e" stroke-width=".05" fill="#008a0e"/><path d="M739.5 620.86h-.5v-1h.5z" fill="#008a0e"/><path d="M739.52 620.9h-.56v-1.06h.56zm-.5-1v.94h.46v-.95z" stroke="#008a0e" stroke-width=".05" fill="#008a0e"/><path d="M416.38 625l-14.26-4.64 14.26-4.63z" fill="#008a0e"/><path d="M416.88 625.68l-16.38-5.32 16.38-5.32zm-13.14-5.32l12.14 3.95v-7.9z" stroke="#008a0e" stroke-width=".05" fill="#008a0e"/><use xlink:href="#r" transform="matrix(1,0,0,1,440.88888888888886,609.6945247216464) translate(0 14.222222222222223)"/><use xlink:href="#z" transform="matrix(1,0,0,1,440.88888888888886,609.6945247216464) translate(50.271604938271615 14.222222222222223)"/><use xlink:href="#A" transform="matrix(1,0,0,1,440.88888888888886,609.6945247216464) translate(127.11111111111114 14.222222222222223)"/><use xlink:href="#B" transform="matrix(1,0,0,1,440.88888888888886,609.6945247216464) translate(136.9876543209877 14.222222222222223)"/><use xlink:href="#w" transform="matrix(1,0,0,1,440.88888888888886,609.6945247216464) translate(215.8518518518519 14.222222222222223)"/><path d="M-220 580c0 11.05-8.95 20-20 20s-20-8.95-20-20 8.95-20 20-20 20 8.95 20 20z" stroke="#3a414a" fill="#fff"/><path d="M-254.14 565.86l28.28 28.28m0-28.28l-28.28 28.28" stroke="#3a414a" fill="none"/><path d="M-164.6 580.5h-38.52v-1h38.53zm143.6 0h-31.15v-1H-21z" stroke="#1071e5" stroke-width=".05" fill="#1071e5"/><path d="M-20.5 580.5h-.5v-1h.5z" fill="#1071e5"/><path d="M-20.48 580.52h-.56v-1.04h.56zm-.5-1v.96h.46v-.96z" stroke="#1071e5" stroke-width=".05" fill="#1071e5"/><path d="M-203.62 584.63l-14.26-4.63 14.26-4.63z" fill="#1071e5"/><path d="M-203.12 585.32L-219.5 580l16.38-5.32zm-13.14-5.32l12.14 3.95v-7.9z" stroke="#1071e5" stroke-width=".05" fill="#1071e5"/><use xlink:href="#u" transform="matrix(1,0,0,1,-164.59222359564757,569.3333333333334) translate(0 14.222222222222223)"/><use xlink:href="#C" transform="matrix(1,0,0,1,-164.59222359564757,569.3333333333334) translate(49.33333333333334 14.222222222222223)"/><path d="M1189.85 580.5H1161v-1h28.85zm273.27 0h-12.97v-1h12.97z" stroke="#008a0e" stroke-width=".05" fill="#008a0e"/><path d="M1161 580.5h-.5v-1h.5z" fill="#008a0e"/><path d="M1161.04 580.52h-.57v-1.04h.57zm-.5-1v.96h.45v-.96z" stroke="#008a0e" stroke-width=".05" fill="#008a0e"/><path d="M1477.88 580l-14.26 4.63v-9.26z" fill="#008a0e"/><path d="M1479.5 580l-16.38 5.32v-10.64zm-15.38 3.95l12.14-3.95-12.14-3.95z" stroke="#008a0e" stroke-width=".05" fill="#008a0e"/><use xlink:href="#r" transform="matrix(1,0,0,1,1189.851695924896,569.3333333333334) translate(0 14.222222222222223)"/><use xlink:href="#D" transform="matrix(1,0,0,1,1189.851695924896,569.3333333333334) translate(50.271604938271615 14.222222222222223)"/><use xlink:href="#A" transform="matrix(1,0,0,1,1189.851695924896,569.3333333333334) translate(118.32098765432102 14.222222222222223)"/><use xlink:href="#B" transform="matrix(1,0,0,1,1189.851695924896,569.3333333333334) translate(128.19753086419757 14.222222222222223)"/><use xlink:href="#E" transform="matrix(1,0,0,1,1189.851695924896,569.3333333333334) translate(207.06172839506178 14.222222222222223)"/><path d="M451.3 699.5l1 .08 1 .24.93.4.87.52.78.66.66.78.53.87.4.94.23.98.08 1v17.14h-1v-17.1l-.07-.88-.2-.84-.32-.8-.45-.73-.56-.66-.66-.55-.73-.45-.8-.33-.83-.2-.88-.07H357v-1zm-391.17-4.64l.2.84.33.8.45.73.57.66.66.55.73.45.8.33.84.2.88.07h94.25v1h-94.3l-1-.08-.98-.24-.94-.4-.86-.52-.78-.66-.66-.78-.53-.87-.4-.94-.23-.98-.08-1V661h1v32.98z" stroke="#1071e5" stroke-width=".05" fill="#1071e5"/><path d="M60.06 661h-1v-.5h1z" fill="#1071e5"/><path d="M60.08 661.04h-1.05v-.56h1.05zm-1-.5v.45h.95v-.48z" stroke="#1071e5" stroke-width=".05" fill="#1071e5"/><path d="M457.28 737.88l-4.64-14.26h9.27z" fill="#1071e5"/><path d="M457.28 739.5l-5.32-16.38h10.64zm-3.95-15.38l3.95 12.14 3.95-12.14z" stroke="#1071e5" stroke-width=".05" fill="#1071e5"/><g><use xlink:href="#u" transform="matrix(1,0,0,1,159.82615777072488,689.3333333333334) translate(0 14.222222222222223)"/><use xlink:href="#v" transform="matrix(1,0,0,1,159.82615777072488,689.3333333333334) translate(49.33333333333334 14.222222222222223)"/><use xlink:href="#F" transform="matrix(1,0,0,1,159.82615777072488,689.3333333333334) translate(138.0740740740741 14.222222222222223)"/></g><path d="M730.34 700.5h-26l-.87.07-.84.2-.8.33-.73.45-.65.56-.56.67-.47.73-.32.8-.2.84-.06.88v17.1h-1v-17.14l.07-1 .25-1 .4-.93.53-.87.66-.78.77-.66.88-.53.95-.38 1-.24 1-.08h26zm331.16-6.48l-.07 1-.24 1-.4.93-.54.87-.66.78-.77.66-.87.53-.95.38-.98.24-1 .08H1029v-1h25.98l.88-.07.84-.2.8-.33.74-.45.65-.56.55-.67.45-.73.33-.8.2-.84.07-.88V661h1z" stroke="#008a0e" stroke-width=".05" fill="#008a0e"/><path d="M1061.5 661h-1v-.5h1z" fill="#008a0e"/><path d="M1061.53 661.04h-1.05v-.56h1.05zm-1-.5v.45h.95v-.48z" stroke="#008a0e" stroke-width=".05" fill="#008a0e"/><path d="M698.34 737.88l-4.64-14.26h9.27z" fill="#008a0e"/><path d="M698.34 739.5L693 723.12h10.66zm-3.95-15.38l3.94 12.14 3.94-12.14z" stroke="#008a0e" stroke-width=".05" fill="#008a0e"/><g><use xlink:href="#r" transform="matrix(1,0,0,1,730.335991474644,689.3333333333334) translate(0 14.222222222222223)"/><use xlink:href="#G" transform="matrix(1,0,0,1,730.335991474644,689.3333333333334) translate(50.271604938271615 14.222222222222223)"/><use xlink:href="#H" transform="matrix(1,0,0,1,730.335991474644,689.3333333333334) translate(103.50617283950619 14.222222222222223)"/><use xlink:href="#A" transform="matrix(1,0,0,1,730.335991474644,689.3333333333334) translate(150.81481481481484 14.222222222222223)"/><use xlink:href="#B" transform="matrix(1,0,0,1,730.335991474644,689.3333333333334) translate(160.6913580246914 14.222222222222223)"/><use xlink:href="#F" transform="matrix(1,0,0,1,730.335991474644,689.3333333333334) translate(239.5555555555556 14.222222222222223)"/></g><path d="M460.07 963.12h-1v-20.07h1zm0-41.4h-1V901h1z" stroke="#1071e5" stroke-width=".05" fill="#1071e5"/><path d="M460.07 901h-1v-.5h1z" fill="#1071e5"/><path d="M460.1 901.04h-1.05v-.56h1.05zm-1-.5v.45h.95v-.48z" stroke="#1071e5" stroke-width=".05" fill="#1071e5"/><path d="M459.57 977.88l-4.63-14.26h9.27z" fill="#1071e5"/><path d="M459.57 979.5l-5.32-16.38h10.65zm-3.94-15.38l3.94 12.14 3.95-12.14z" stroke="#1071e5" stroke-width=".05" fill="#1071e5"/><g><use xlink:href="#u" transform="matrix(1,0,0,1,388.5362520421868,921.7189914561719) translate(0 14.222222222222223)"/><use xlink:href="#I" transform="matrix(1,0,0,1,388.5362520421868,921.7189914561719) translate(49.33333333333334 14.222222222222223)"/><use xlink:href="#J" transform="matrix(1,0,0,1,388.5362520421868,921.7189914561719) translate(109.53086419753089 14.222222222222223)"/></g><path d="M700.86 963.12h-1v-17.04h1zm0-38.38h-1V901h1z" stroke="#008a0e" stroke-width=".05" fill="#008a0e"/><path d="M700.86 901h-1v-.5h1z" fill="#008a0e"/><path d="M700.9 901.04h-1.06v-.56h1.05zm-1-.5v.45h.94v-.48z" stroke="#008a0e" stroke-width=".05" fill="#008a0e"/><path d="M700.36 977.88l-4.63-14.26H705z" fill="#008a0e"/><path d="M700.36 979.5l-5.32-16.38h10.65zm-3.95-15.38l3.96 12.14 3.95-12.14z" stroke="#008a0e" stroke-width=".05" fill="#008a0e"/><g><use xlink:href="#r" transform="matrix(1,0,0,1,628.8562313484699,924.743762447649) translate(0 14.222222222222223)"/><use xlink:href="#I" transform="matrix(1,0,0,1,628.8562313484699,924.743762447649) translate(50.271604938271615 14.222222222222223)"/><use xlink:href="#K" transform="matrix(1,0,0,1,628.8562313484699,924.743762447649) translate(110.46913580246915 14.222222222222223)"/></g><path d="M580.5 1203.12h-1v-12.45h1zm0-33.8h-1V1141h1z" stroke="#3a414a" stroke-width=".05" fill="#3a414a"/><path d="M580.5 1141h-1v-.5h1z" fill="#3a414a"/><path d="M580.52 1141.04h-1.04v-.57h1.04zm-1-.5v.45h.96v-.47z" stroke="#3a414a" stroke-width=".05" fill="#3a414a"/><path d="M580 1217.88l-4.63-14.26h9.26z" fill="#3a414a"/><path d="M580 1219.5l-5.32-16.38h10.64zm-3.95-15.38l3.95 12.14 3.95-12.14z" stroke="#3a414a" stroke-width=".05" fill="#3a414a"/><g><use xlink:href="#L" transform="matrix(1,0,0,1,507.18518518518516,1169.3333333333333) translate(0 14.222222222222223)"/><use xlink:href="#M" transform="matrix(1,0,0,1,507.18518518518516,1169.3333333333333) translate(44.04938271604939 14.222222222222223)"/><use xlink:href="#N" transform="matrix(1,0,0,1,507.18518518518516,1169.3333333333333) translate(87.4567901234568 14.222222222222223)"/><use xlink:href="#O" transform="matrix(1,0,0,1,507.18518518518516,1169.3333333333333) translate(107.20987654320989 14.222222222222223)"/></g><defs><path fill="#3a414a" d="M233-177c-1 41-23 64-60 70L243 0h-38l-65-103H63V0H30v-248c88 3 205-21 203 71zM63-129c60-2 137 13 137-47 0-61-80-42-137-45v92" id="P"/><path fill="#3a414a" d="M100-194c63 0 86 42 84 106H49c0 40 14 67 53 68 26 1 43-12 49-29l28 8c-11 28-37 45-77 45C44 4 14-33 15-96c1-61 26-98 85-98zm52 81c6-60-76-77-97-28-3 7-6 17-6 28h103" id="Q"/><path fill="#3a414a" d="M210-169c-67 3-38 105-44 169h-31v-121c0-29-5-50-35-48C34-165 62-65 56 0H25l-1-190h30c1 10-1 24 2 32 10-44 99-50 107 0 11-21 27-35 58-36 85-2 47 119 55 194h-31v-121c0-29-5-49-35-48" id="R"/><path fill="#3a414a" d="M100-194c62-1 85 37 85 99 1 63-27 99-86 99S16-35 15-95c0-66 28-99 85-99zM99-20c44 1 53-31 53-75 0-43-8-75-51-75s-53 32-53 75 10 74 51 75" id="S"/><path fill="#3a414a" d="M59-47c-2 24 18 29 38 22v24C64 9 27 4 27-40v-127H5v-23h24l9-43h21v43h35v23H59v120" id="T"/><g id="a"><use transform="matrix(0.06172839506172839,0,0,0.06172839506172839,0,0)" xlink:href="#P"/><use transform="matrix(0.06172839506172839,0,0,0.06172839506172839,15.987654320987653,0)" xlink:href="#Q"/><use transform="matrix(0.06172839506172839,0,0,0.06172839506172839,28.333333333333332,0)" xlink:href="#R"/><use transform="matrix(0.06172839506172839,0,0,0.06172839506172839,46.79012345679012,0)" xlink:href="#S"/><use transform="matrix(0.06172839506172839,0,0,0.06172839506172839,59.1358024691358,0)" xlink:href="#T"/><use transform="matrix(0.06172839506172839,0,0,0.06172839506172839,65.30864197530863,0)" xlink:href="#Q"/></g><path fill="#3a414a" d="M140-251c81 0 123 46 123 126C263-46 219 4 140 4 59 4 17-45 17-125s42-126 123-126zm0 227c63 0 89-41 89-101s-29-99-89-99c-61 0-89 39-89 99S79-25 140-24" id="U"/><path fill="#3a414a" d="M101-234c-31-9-42 10-38 44h38v23H63V0H32v-167H5v-23h27c-7-52 17-82 69-68v24" id="V"/><path fill="#3a414a" d="M114-163C36-179 61-72 57 0H25l-1-190h30c1 12-1 29 2 39 6-27 23-49 58-41v29" id="W"/><g id="b"><use transform="matrix(0.06172839506172839,0,0,0.06172839506172839,0,0)" xlink:href="#U"/><use transform="matrix(0.06172839506172839,0,0,0.06172839506172839,17.28395061728395,0)" xlink:href="#V"/><use transform="matrix(0.06172839506172839,0,0,0.06172839506172839,23.02469135802469,0)" xlink:href="#V"/><use transform="matrix(0.06172839506172839,0,0,0.06172839506172839,29.197530864197528,0)" xlink:href="#Q"/><use transform="matrix(0.06172839506172839,0,0,0.06172839506172839,41.54320987654321,0)" xlink:href="#W"/></g><path fill="#3a414a" d="M190 0L58-211 59 0H30v-248h39L202-35l-2-213h31V0h-41" id="X"/><path fill="#3a414a" d="M24-231v-30h32v30H24zM24 0v-190h32V0H24" id="Y"/><path fill="#3a414a" d="M179-190L93 31C79 59 56 82 12 73V49c39 6 53-20 64-50L1-190h34L92-34l54-156h33" id="Z"/><g id="c"><use transform="matrix(0.06172839506172839,0,0,0.06172839506172839,0,0)" xlink:href="#X"/><use transform="matrix(0.06172839506172839,0,0,0.06172839506172839,15.987654320987653,0)" xlink:href="#S"/><use transform="matrix(0.06172839506172839,0,0,0.06172839506172839,28.333333333333332,0)" xlink:href="#T"/><use transform="matrix(0.06172839506172839,0,0,0.06172839506172839,34.50617283950617,0)" xlink:href="#Y"/><use transform="matrix(0.06172839506172839,0,0,0.06172839506172839,39.382716049382715,0)" xlink:href="#V"/><use transform="matrix(0.06172839506172839,0,0,0.06172839506172839,45.55555555555556,0)" xlink:href="#Z"/></g><path fill="#3a414a" d="M232-93c-1 65-40 97-104 97C67 4 28-28 28-90v-158h33c8 89-33 224 67 224 102 0 64-133 71-224h33v155" id="aa"/><path fill="#3a414a" d="M135-143c-3-34-86-38-87 0 15 53 115 12 119 90S17 21 10-45l28-5c4 36 97 45 98 0-10-56-113-15-118-90-4-57 82-63 122-42 12 7 21 19 24 35" id="ab"/><g id="d"><use transform="matrix(0.06172839506172839,0,0,0.06172839506172839,0,0)" xlink:href="#aa"/><use transform="matrix(0.06172839506172839,0,0,0.06172839506172839,15.987654320987653,0)" xlink:href="#ab"/><use transform="matrix(0.06172839506172839,0,0,0.06172839506172839,27.098765432098766,0)" xlink:href="#Q"/><use transform="matrix(0.06172839506172839,0,0,0.06172839506172839,39.44444444444444,0)" xlink:href="#W"/></g><path fill="#3a414a" d="M115-194c55 1 70 41 70 98S169 2 115 4C84 4 66-9 55-30l1 105H24l-1-265h31l2 30c10-21 28-34 59-34zm-8 174c40 0 45-34 45-75s-6-73-45-74c-42 0-51 32-51 76 0 43 10 73 51 73" id="ac"/><path fill="#3a414a" d="M117-194c89-4 53 116 60 194h-32v-121c0-31-8-49-39-48C34-167 62-67 57 0H25l-1-190h30c1 10-1 24 2 32 11-22 29-35 61-36" id="ad"/><g id="e"><use transform="matrix(0.06172839506172839,0,0,0.06172839506172839,0,0)" xlink:href="#U"/><use transform="matrix(0.06172839506172839,0,0,0.06172839506172839,17.28395061728395,0)" xlink:href="#ac"/><use transform="matrix(0.06172839506172839,0,0,0.06172839506172839,29.629629629629626,0)" xlink:href="#Q"/><use transform="matrix(0.06172839506172839,0,0,0.06172839506172839,41.9753086419753,0)" xlink:href="#ad"/></g><path fill="#3a414a" d="M127-220V0H93v-220H8v-28h204v28h-85" id="ae"/><path fill="#3a414a" d="M141-36C126-15 110 5 73 4 37 3 15-17 15-53c-1-64 63-63 125-63 3-35-9-54-41-54-24 1-41 7-42 31l-33-3c5-37 33-52 76-52 45 0 72 20 72 64v82c-1 20 7 32 28 27v20c-31 9-61-2-59-35zM48-53c0 20 12 33 32 33 41-3 63-29 60-74-43 2-92-5-92 41" id="af"/><path fill="#3a414a" d="M24 0v-261h32V0H24" id="ag"/><g id="f"><use transform="matrix(0.06172839506172839,0,0,0.06172839506172839,0,0)" xlink:href="#ae"/><use transform="matrix(0.06172839506172839,0,0,0.06172839506172839,11.049382716049381,0)" xlink:href="#af"/><use transform="matrix(0.06172839506172839,0,0,0.06172839506172839,23.39506172839506,0)" xlink:href="#ag"/><use transform="matrix(0.06172839506172839,0,0,0.06172839506172839,28.2716049382716,0)" xlink:href="#ag"/><use transform="matrix(0.06172839506172839,0,0,0.06172839506172839,33.148148148148145,0)" xlink:href="#Z"/></g><g id="g"><use transform="matrix(0.06172839506172839,0,0,0.06172839506172839,0,0)" xlink:href="#Y"/><use transform="matrix(0.06172839506172839,0,0,0.06172839506172839,4.876543209876543,0)" xlink:href="#ab"/></g><path fill="#3a414a" d="M30 0v-248h33v221h125V0H30" id="ah"/><path fill="#3a414a" d="M115-194c53 0 69 39 70 98 0 66-23 100-70 100C84 3 66-7 56-30L54 0H23l1-261h32v101c10-23 28-34 59-34zm-8 174c40 0 45-34 45-75 0-40-5-75-45-74-42 0-51 32-51 76 0 43 10 73 51 73" id="ai"/><g id="h"><use transform="matrix(0.06172839506172839,0,0,0.06172839506172839,0,0)" xlink:href="#ah"/><use transform="matrix(0.06172839506172839,0,0,0.06172839506172839,12.345679012345679,0)" xlink:href="#Y"/><use transform="matrix(0.06172839506172839,0,0,0.06172839506172839,17.22222222222222,0)" xlink:href="#V"/><use transform="matrix(0.06172839506172839,0,0,0.06172839506172839,23.39506172839506,0)" xlink:href="#T"/><use transform="matrix(0.06172839506172839,0,0,0.06172839506172839,29.5679012345679,0)" xlink:href="#af"/><use transform="matrix(0.06172839506172839,0,0,0.06172839506172839,41.913580246913575,0)" xlink:href="#ai"/><use transform="matrix(0.06172839506172839,0,0,0.06172839506172839,54.25925925925925,0)" xlink:href="#ag"/><use transform="matrix(0.06172839506172839,0,0,0.06172839506172839,59.1358024691358,0)" xlink:href="#Q"/></g><path fill="#3a414a" d="M212-179c-10-28-35-45-73-45-59 0-87 40-87 99 0 60 29 101 89 101 43 0 62-24 78-52l27 14C228-24 195 4 139 4 59 4 22-46 18-125c-6-104 99-153 187-111 19 9 31 26 39 46" id="aj"/><path fill="#3a414a" d="M177-190C167-65 218 103 67 71c-23-6-38-20-44-43l32-5c15 47 100 32 89-28v-30C133-14 115 1 83 1 29 1 15-40 15-95c0-56 16-97 71-98 29-1 48 16 59 35 1-10 0-23 2-32h30zM94-22c36 0 50-32 50-73 0-42-14-75-50-75-39 0-46 34-46 75s6 73 46 73" id="ak"/><g id="i"><use transform="matrix(0.06172839506172839,0,0,0.06172839506172839,0,0)" xlink:href="#aj"/><use transform="matrix(0.06172839506172839,0,0,0.06172839506172839,15.987654320987653,0)" xlink:href="#ag"/><use transform="matrix(0.06172839506172839,0,0,0.06172839506172839,20.864197530864196,0)" xlink:href="#S"/><use transform="matrix(0.06172839506172839,0,0,0.06172839506172839,33.20987654320987,0)" xlink:href="#ab"/><use transform="matrix(0.06172839506172839,0,0,0.06172839506172839,44.32098765432099,0)" xlink:href="#Y"/><use transform="matrix(0.06172839506172839,0,0,0.06172839506172839,49.19753086419753,0)" xlink:href="#ad"/><use transform="matrix(0.06172839506172839,0,0,0.06172839506172839,61.54320987654321,0)" xlink:href="#ak"/></g><g id="j"><use transform="matrix(0.06172839506172839,0,0,0.06172839506172839,0,0)" xlink:href="#ah"/><use transform="matrix(0.06172839506172839,0,0,0.06172839506172839,12.345679012345679,0)" xlink:href="#Y"/><use transform="matrix(0.06172839506172839,0,0,0.06172839506172839,17.22222222222222,0)" xlink:href="#V"/><use transform="matrix(0.06172839506172839,0,0,0.06172839506172839,23.39506172839506,0)" xlink:href="#T"/></g><g id="k"><use transform="matrix(0.06172839506172839,0,0,0.06172839506172839,0,0)" xlink:href="#T"/><use transform="matrix(0.06172839506172839,0,0,0.06172839506172839,6.172839506172839,0)" xlink:href="#S"/></g><g id="l"><use transform="matrix(0.06172839506172839,0,0,0.06172839506172839,0,0)" xlink:href="#ak"/><use transform="matrix(0.06172839506172839,0,0,0.06172839506172839,12.345679012345679,0)" xlink:href="#Q"/><use transform="matrix(0.06172839506172839,0,0,0.06172839506172839,24.691358024691358,0)" xlink:href="#T"/></g><path fill="#3a414a" d="M209 0H11v-25l151-195H24v-28h176v25L50-27h159V0" id="al"/><g id="m"><use transform="matrix(0.06172839506172839,0,0,0.06172839506172839,0,0)" xlink:href="#al"/><use transform="matrix(0.06172839506172839,0,0,0.06172839506172839,13.518518518518517,0)" xlink:href="#Q"/><use transform="matrix(0.06172839506172839,0,0,0.06172839506172839,25.864197530864196,0)" xlink:href="#W"/><use transform="matrix(0.06172839506172839,0,0,0.06172839506172839,33.20987654320987,0)" xlink:href="#S"/></g><g id="n"><use transform="matrix(0.06172839506172839,0,0,0.06172839506172839,0,0)" xlink:href="#ae"/><use transform="matrix(0.06172839506172839,0,0,0.06172839506172839,11.049382716049381,0)" xlink:href="#af"/><use transform="matrix(0.06172839506172839,0,0,0.06172839506172839,23.39506172839506,0)" xlink:href="#ag"/><use transform="matrix(0.06172839506172839,0,0,0.06172839506172839,28.2716049382716,0)" xlink:href="#ag"/><use transform="matrix(0.06172839506172839,0,0,0.06172839506172839,33.148148148148145,0)" xlink:href="#Z"/></g><path fill="#3a414a" d="M185-189c-5-48-123-54-124 2 14 75 158 14 163 119 3 78-121 87-175 55-17-10-28-26-33-46l33-7c5 56 141 63 141-1 0-78-155-14-162-118-5-82 145-84 179-34 5 7 8 16 11 25" id="am"/><path fill="#3a414a" d="M84 4C-5 8 30-112 23-190h32v120c0 31 7 50 39 49 72-2 45-101 50-169h31l1 190h-30c-1-10 1-25-2-33-11 22-28 36-60 37" id="an"/><g id="o"><use transform="matrix(0.06172839506172839,0,0,0.06172839506172839,0,0)" xlink:href="#am"/><use transform="matrix(0.06172839506172839,0,0,0.06172839506172839,14.814814814814813,0)" xlink:href="#an"/><use transform="matrix(0.06172839506172839,0,0,0.06172839506172839,27.160493827160494,0)" xlink:href="#R"/></g><path fill="#3a414a" d="M85-194c31 0 48 13 60 33l-1-100h32l1 261h-30c-2-10 0-23-3-31C134-8 116 4 85 4 32 4 16-35 15-94c0-66 23-100 70-100zm9 24c-40 0-46 34-46 75 0 40 6 74 45 74 42 0 51-32 51-76 0-42-9-74-50-73" id="ao"/><g id="p"><use transform="matrix(0.06172839506172839,0,0,0.06172839506172839,0,0)" xlink:href="#aj"/><use transform="matrix(0.06172839506172839,0,0,0.06172839506172839,15.987654320987653,0)" xlink:href="#ag"/><use transform="matrix(0.06172839506172839,0,0,0.06172839506172839,20.864197530864196,0)" xlink:href="#S"/><use transform="matrix(0.06172839506172839,0,0,0.06172839506172839,33.20987654320987,0)" xlink:href="#ab"/><use transform="matrix(0.06172839506172839,0,0,0.06172839506172839,44.32098765432099,0)" xlink:href="#Q"/><use transform="matrix(0.06172839506172839,0,0,0.06172839506172839,56.666666666666664,0)" xlink:href="#ao"/></g><path fill="#3a414a" d="M205 0l-28-72H64L36 0H1l101-248h38L239 0h-34zm-38-99l-47-123c-12 45-31 82-46 123h93" id="ap"/><path fill="#3a414a" d="M96-169c-40 0-48 33-48 73s9 75 48 75c24 0 41-14 43-38l32 2c-6 37-31 61-74 61-59 0-76-41-82-99-10-93 101-131 147-64 4 7 5 14 7 22l-32 3c-4-21-16-35-41-35" id="aq"/><path fill="#3a414a" d="M106-169C34-169 62-67 57 0H25v-261h32l-1 103c12-21 28-36 61-36 89 0 53 116 60 194h-32v-121c2-32-8-49-39-48" id="ar"/><path fill="#3a414a" d="M108 0H70L1-190h34L89-25l56-165h34" id="as"/><g id="q"><use transform="matrix(0.06172839506172839,0,0,0.06172839506172839,0,0)" xlink:href="#ap"/><use transform="matrix(0.06172839506172839,0,0,0.06172839506172839,14.814814814814813,0)" xlink:href="#W"/><use transform="matrix(0.06172839506172839,0,0,0.06172839506172839,22.160493827160494,0)" xlink:href="#aq"/><use transform="matrix(0.06172839506172839,0,0,0.06172839506172839,33.27160493827161,0)" xlink:href="#ar"/><use transform="matrix(0.06172839506172839,0,0,0.06172839506172839,45.617283950617285,0)" xlink:href="#Y"/><use transform="matrix(0.06172839506172839,0,0,0.06172839506172839,50.49382716049383,0)" xlink:href="#as"/><use transform="matrix(0.06172839506172839,0,0,0.06172839506172839,61.60493827160494,0)" xlink:href="#Q"/></g><path fill="#333" d="M238-95c0 69-44 99-111 99C63 4 22-25 22-93v-155h51v151c-1 38 19 59 55 60 90 1 49-130 58-211h52v153" id="at"/><path fill="#333" d="M137-138c1-29-70-34-71-4 15 46 118 7 119 86 1 83-164 76-172 9l43-7c4 19 20 25 44 25 33 8 57-30 24-41C81-84 22-81 20-136c-2-80 154-74 161-7" id="au"/><path fill="#333" d="M185-48c-13 30-37 53-82 52C43 2 14-33 14-96s30-98 90-98c62 0 83 45 84 108H66c0 31 8 55 39 56 18 0 30-7 34-22zm-45-69c5-46-57-63-70-21-2 6-4 13-4 21h74" id="av"/><path fill="#333" d="M135-150c-39-12-60 13-60 57V0H25l-1-190h47c2 13-1 29 3 40 6-28 27-53 61-41v41" id="aw"/><path fill="#333" d="M35-132v-50h50v50H35zM35 0v-49h50V0H35" id="ax"/><g id="r"><use transform="matrix(0.04938271604938272,0,0,0.04938271604938272,0,0)" xlink:href="#at"/><use transform="matrix(0.04938271604938272,0,0,0.04938271604938272,12.790123456790125,0)" xlink:href="#au"/><use transform="matrix(0.04938271604938272,0,0,0.04938271604938272,22.66666666666667,0)" xlink:href="#av"/><use transform="matrix(0.04938271604938272,0,0,0.04938271604938272,32.543209876543216,0)" xlink:href="#aw"/><use transform="matrix(0.04938271604938272,0,0,0.04938271604938272,39.4567901234568,0)" xlink:href="#ax"/></g><path fill="#333" d="M67-125c0 53 21 87 73 88 37 1 54-22 65-47l45 17C233-25 199 4 140 4 58 4 20-42 15-125 8-235 124-281 211-232c18 10 29 29 36 50l-46 12c-8-25-30-41-62-41-52 0-71 34-72 86" id="ay"/><path fill="#333" d="M133-34C117-15 103 5 69 4 32 3 11-16 11-54c-1-60 55-63 116-61 1-26-3-47-28-47-18 1-26 9-28 27l-52-2c7-38 36-58 82-57s74 22 75 68l1 82c-1 14 12 18 25 15v27c-30 8-71 5-69-32zm-48 3c29 0 43-24 42-57-32 0-66-3-65 30 0 17 8 27 23 27" id="az"/><path fill="#333" d="M115-3C79 11 28 4 28-45v-112H4v-33h27l15-45h31v45h36v33H77v99c-1 23 16 31 38 25v30" id="aA"/><g id="s"><use transform="matrix(0.04938271604938272,0,0,0.04938271604938272,0,0)" xlink:href="#ay"/><use transform="matrix(0.04938271604938272,0,0,0.04938271604938272,12.790123456790125,0)" xlink:href="#aw"/><use transform="matrix(0.04938271604938272,0,0,0.04938271604938272,19.703703703703706,0)" xlink:href="#av"/><use transform="matrix(0.04938271604938272,0,0,0.04938271604938272,29.58024691358025,0)" xlink:href="#az"/><use transform="matrix(0.04938271604938272,0,0,0.04938271604938272,39.4567901234568,0)" xlink:href="#aA"/><use transform="matrix(0.04938271604938272,0,0,0.04938271604938272,45.33333333333334,0)" xlink:href="#av"/><use transform="matrix(0.04938271604938272,0,0,0.04938271604938272,55.209876543209894,0)" xlink:href="#au"/></g><path fill="#333" d="M136-208V0H84v-208H4v-40h212v40h-80" id="aB"/><path fill="#333" d="M25 0v-261h50V0H25" id="aC"/><path fill="#333" d="M123 10C108 53 80 86 19 72V37c35 8 53-11 59-39L3-190h52l48 148c12-52 28-100 44-148h51" id="aD"/><g id="t"><use transform="matrix(0.04938271604938272,0,0,0.04938271604938272,0,0)" xlink:href="#aB"/><use transform="matrix(0.04938271604938272,0,0,0.04938271604938272,9.481481481481481,0)" xlink:href="#az"/><use transform="matrix(0.04938271604938272,0,0,0.04938271604938272,19.358024691358025,0)" xlink:href="#aC"/><use transform="matrix(0.04938271604938272,0,0,0.04938271604938272,24.296296296296298,0)" xlink:href="#aC"/><use transform="matrix(0.04938271604938272,0,0,0.04938271604938272,29.23456790123457,0)" xlink:href="#aD"/></g><path fill="#333" d="M24-248c93 1 206-16 204 79-1 75-69 88-152 82V0H24v-248zm52 121c47 0 100 7 100-41 0-47-54-39-100-39v80" id="aE"/><g id="u"><use transform="matrix(0.04938271604938272,0,0,0.04938271604938272,0,0)" xlink:href="#aE"/><use transform="matrix(0.04938271604938272,0,0,0.04938271604938272,11.851851851851853,0)" xlink:href="#av"/><use transform="matrix(0.04938271604938272,0,0,0.04938271604938272,21.7283950617284,0)" xlink:href="#av"/><use transform="matrix(0.04938271604938272,0,0,0.04938271604938272,31.60493827160494,0)" xlink:href="#aw"/><use transform="matrix(0.04938271604938272,0,0,0.04938271604938272,38.518518518518526,0)" xlink:href="#ax"/></g><path fill="#333" d="M135-194c87-1 58 113 63 194h-50c-7-57 23-157-34-157-59 0-34 97-39 157H25l-1-190h47c2 12-1 28 3 38 12-26 28-41 61-42" id="aF"/><path fill="#333" d="M220-157c-53 9-28 100-34 157h-49v-107c1-27-5-49-29-50C55-147 81-57 75 0H25l-1-190h47c2 12-1 28 3 38 10-53 101-56 108 0 13-22 24-43 59-42 82 1 51 116 57 194h-49v-107c-1-25-5-48-29-50" id="aG"/><path fill="#333" d="M25-224v-37h50v37H25zM25 0v-190h50V0H25" id="aH"/><g id="v"><use transform="matrix(0.04938271604938272,0,0,0.04938271604938272,0,0)" xlink:href="#aB"/><use transform="matrix(0.04938271604938272,0,0,0.04938271604938272,9.82716049382716,0)" xlink:href="#aw"/><use transform="matrix(0.04938271604938272,0,0,0.04938271604938272,16.74074074074074,0)" xlink:href="#az"/><use transform="matrix(0.04938271604938272,0,0,0.04938271604938272,26.617283950617285,0)" xlink:href="#aF"/><use transform="matrix(0.04938271604938272,0,0,0.04938271604938272,37.4320987654321,0)" xlink:href="#au"/><use transform="matrix(0.04938271604938272,0,0,0.04938271604938272,47.308641975308646,0)" xlink:href="#aG"/><use transform="matrix(0.04938271604938272,0,0,0.04938271604938272,63.111111111111114,0)" xlink:href="#aH"/><use transform="matrix(0.04938271604938272,0,0,0.04938271604938272,68.0493827160494,0)" xlink:href="#aA"/><use transform="matrix(0.04938271604938272,0,0,0.04938271604938272,73.92592592592594,0)" xlink:href="#au"/></g><path fill="#333" d="M140-251c80 0 125 45 125 126S219 4 139 4C58 4 15-44 15-125s44-126 125-126zm-1 214c52 0 73-35 73-88 0-50-21-86-72-86-52 0-73 35-73 86s22 88 72 88" id="aI"/><path fill="#333" d="M121-226c-27-7-43 5-38 36h38v33H83V0H34v-157H6v-33h28c-9-59 32-81 87-68v32" id="aJ"/><g id="w"><use transform="matrix(0.04938271604938272,0,0,0.04938271604938272,0,0)" xlink:href="#aI"/><use transform="matrix(0.04938271604938272,0,0,0.04938271604938272,13.827160493827162,0)" xlink:href="#aJ"/><use transform="matrix(0.04938271604938272,0,0,0.04938271604938272,19.703703703703706,0)" xlink:href="#aJ"/><use transform="matrix(0.04938271604938272,0,0,0.04938271604938272,25.58024691358025,0)" xlink:href="#av"/><use transform="matrix(0.04938271604938272,0,0,0.04938271604938272,35.4567901234568,0)" xlink:href="#aw"/></g><g id="x"><use transform="matrix(0.06172839506172839,0,0,0.06172839506172839,0,0)" xlink:href="#ah"/><use transform="matrix(0.06172839506172839,0,0,0.06172839506172839,12.345679012345679,0)" xlink:href="#S"/><use transform="matrix(0.06172839506172839,0,0,0.06172839506172839,24.691358024691358,0)" xlink:href="#aq"/><use transform="matrix(0.06172839506172839,0,0,0.06172839506172839,35.80246913580247,0)" xlink:href="#af"/><use transform="matrix(0.06172839506172839,0,0,0.06172839506172839,48.148148148148145,0)" xlink:href="#ag"/></g><g id="y"><use transform="matrix(0.06172839506172839,0,0,0.06172839506172839,0,0)" xlink:href="#ae"/><use transform="matrix(0.06172839506172839,0,0,0.06172839506172839,12.716049382716047,0)" xlink:href="#W"/><use transform="matrix(0.06172839506172839,0,0,0.06172839506172839,20.061728395061728,0)" xlink:href="#af"/><use transform="matrix(0.06172839506172839,0,0,0.06172839506172839,32.407407407407405,0)" xlink:href="#ad"/><use transform="matrix(0.06172839506172839,0,0,0.06172839506172839,44.75308641975308,0)" xlink:href="#ab"/><use transform="matrix(0.06172839506172839,0,0,0.06172839506172839,55.86419753086419,0)" xlink:href="#R"/><use transform="matrix(0.06172839506172839,0,0,0.06172839506172839,74.32098765432097,0)" xlink:href="#Y"/><use transform="matrix(0.06172839506172839,0,0,0.06172839506172839,79.19753086419752,0)" xlink:href="#T"/></g><path fill="#333" d="M230 0l2-204L168 0h-37L68-204 70 0H24v-248h70l56 185 57-185h69V0h-46" id="aK"/><path fill="#333" d="M110-194c64 0 96 36 96 99 0 64-35 99-97 99-61 0-95-36-95-99 0-62 34-99 96-99zm-1 164c35 0 45-28 45-65 0-40-10-65-43-65-34 0-45 26-45 65 0 36 10 65 43 65" id="aL"/><path fill="#333" d="M88-194c31-1 46 15 58 34l-1-101h50l1 261h-48c-2-10 0-23-3-31C134-8 116 4 84 4 32 4 16-41 15-95c0-56 19-97 73-99zm17 164c33 0 40-30 41-66 1-37-9-64-41-64s-38 30-39 65c0 43 13 65 39 65" id="aM"/><g id="z"><use transform="matrix(0.04938271604938272,0,0,0.04938271604938272,0,0)" xlink:href="#aK"/><use transform="matrix(0.04938271604938272,0,0,0.04938271604938272,14.765432098765434,0)" xlink:href="#aL"/><use transform="matrix(0.04938271604938272,0,0,0.04938271604938272,25.58024691358025,0)" xlink:href="#aM"/><use transform="matrix(0.04938271604938272,0,0,0.04938271604938272,36.39506172839506,0)" xlink:href="#aH"/><use transform="matrix(0.04938271604938272,0,0,0.04938271604938272,41.333333333333336,0)" xlink:href="#aJ"/><use transform="matrix(0.04938271604938272,0,0,0.04938271604938272,47.20987654320988,0)" xlink:href="#aH"/><use transform="matrix(0.04938271604938272,0,0,0.04938271604938272,52.14814814814815,0)" xlink:href="#av"/><use transform="matrix(0.04938271604938272,0,0,0.04938271604938272,62.0246913580247,0)" xlink:href="#au"/></g><path fill="#333" d="M4 7l51-268h42L46 7H4" id="aN"/><use transform="matrix(0.04938271604938272,0,0,0.04938271604938272,0,0)" xlink:href="#aN" id="A"/><g id="B"><use transform="matrix(0.04938271604938272,0,0,0.04938271604938272,0,0)" xlink:href="#aB"/><use transform="matrix(0.04938271604938272,0,0,0.04938271604938272,9.82716049382716,0)" xlink:href="#aw"/><use transform="matrix(0.04938271604938272,0,0,0.04938271604938272,16.74074074074074,0)" xlink:href="#az"/><use transform="matrix(0.04938271604938272,0,0,0.04938271604938272,26.617283950617285,0)" xlink:href="#aF"/><use transform="matrix(0.04938271604938272,0,0,0.04938271604938272,37.4320987654321,0)" xlink:href="#au"/><use transform="matrix(0.04938271604938272,0,0,0.04938271604938272,47.308641975308646,0)" xlink:href="#aG"/><use transform="matrix(0.04938271604938272,0,0,0.04938271604938272,63.111111111111114,0)" xlink:href="#aH"/><use transform="matrix(0.04938271604938272,0,0,0.04938271604938272,68.0493827160494,0)" xlink:href="#aA"/></g><path fill="#333" d="M240-174c0 40-23 61-54 70L253 0h-59l-57-94H76V0H24v-248c93 4 217-23 216 74zM76-134c48-2 112 12 112-38 0-48-66-32-112-35v73" id="aO"/><path fill="#333" d="M25-224v-37h50v37H25zM75 22c2 45-34 59-81 51V38c22 5 31-5 31-27v-201h50V22" id="aP"/><path fill="#333" d="M190-63c-7 42-38 67-86 67-59 0-84-38-90-98-12-110 154-137 174-36l-49 2c-2-19-15-32-35-32-30 0-35 28-38 64-6 74 65 87 74 30" id="aQ"/><g id="C"><use transform="matrix(0.04938271604938272,0,0,0.04938271604938272,0,0)" xlink:href="#aO"/><use transform="matrix(0.04938271604938272,0,0,0.04938271604938272,12.790123456790125,0)" xlink:href="#av"/><use transform="matrix(0.04938271604938272,0,0,0.04938271604938272,22.66666666666667,0)" xlink:href="#aP"/><use transform="matrix(0.04938271604938272,0,0,0.04938271604938272,27.604938271604947,0)" xlink:href="#av"/><use transform="matrix(0.04938271604938272,0,0,0.04938271604938272,37.48148148148149,0)" xlink:href="#aQ"/><use transform="matrix(0.04938271604938272,0,0,0.04938271604938272,47.35802469135803,0)" xlink:href="#aA"/><use transform="matrix(0.04938271604938272,0,0,0.04938271604938272,53.23456790123457,0)" xlink:href="#au"/></g><g id="D"><use transform="matrix(0.04938271604938272,0,0,0.04938271604938272,0,0)" xlink:href="#aO"/><use transform="matrix(0.04938271604938272,0,0,0.04938271604938272,12.790123456790125,0)" xlink:href="#av"/><use transform="matrix(0.04938271604938272,0,0,0.04938271604938272,22.66666666666667,0)" xlink:href="#aP"/><use transform="matrix(0.04938271604938272,0,0,0.04938271604938272,27.604938271604947,0)" xlink:href="#av"/><use transform="matrix(0.04938271604938272,0,0,0.04938271604938272,37.48148148148149,0)" xlink:href="#aQ"/><use transform="matrix(0.04938271604938272,0,0,0.04938271604938272,47.35802469135803,0)" xlink:href="#aA"/><use transform="matrix(0.04938271604938272,0,0,0.04938271604938272,53.23456790123457,0)" xlink:href="#au"/></g><g id="E"><use transform="matrix(0.04938271604938272,0,0,0.04938271604938272,0,0)" xlink:href="#aO"/><use transform="matrix(0.04938271604938272,0,0,0.04938271604938272,12.790123456790125,0)" xlink:href="#av"/><use transform="matrix(0.04938271604938272,0,0,0.04938271604938272,22.66666666666667,0)" xlink:href="#aP"/><use transform="matrix(0.04938271604938272,0,0,0.04938271604938272,27.604938271604947,0)" xlink:href="#av"/><use transform="matrix(0.04938271604938272,0,0,0.04938271604938272,37.48148148148149,0)" xlink:href="#aQ"/><use transform="matrix(0.04938271604938272,0,0,0.04938271604938272,47.35802469135803,0)" xlink:href="#aA"/></g><path fill="#333" d="M169-182c-1-43-94-46-97-3 18 66 151 10 154 114 3 95-165 93-204 36-6-8-10-19-12-30l50-8c3 46 112 56 116 5-17-69-150-10-154-114-4-87 153-88 188-35 5 8 8 18 10 28" id="aR"/><path fill="#333" d="M195-6C206 82 75 100 31 46c-4-6-6-13-8-21l49-6c3 16 16 24 34 25 40 0 42-37 40-79-11 22-30 35-61 35-53 0-70-43-70-97 0-56 18-96 73-97 30 0 46 14 59 34l2-30h47zm-90-29c32 0 41-27 41-63 0-35-9-62-40-62-32 0-39 29-40 63 0 36 9 62 39 62" id="aS"/><g id="F"><use transform="matrix(0.04938271604938272,0,0,0.04938271604938272,0,0)" xlink:href="#aR"/><use transform="matrix(0.04938271604938272,0,0,0.04938271604938272,11.851851851851853,0)" xlink:href="#aH"/><use transform="matrix(0.04938271604938272,0,0,0.04938271604938272,16.790123456790127,0)" xlink:href="#aS"/><use transform="matrix(0.04938271604938272,0,0,0.04938271604938272,27.604938271604947,0)" xlink:href="#aF"/><use transform="matrix(0.04938271604938272,0,0,0.04938271604938272,38.41975308641976,0)" xlink:href="#av"/><use transform="matrix(0.04938271604938272,0,0,0.04938271604938272,48.296296296296305,0)" xlink:href="#aM"/></g><g id="G"><use transform="matrix(0.04938271604938272,0,0,0.04938271604938272,0,0)" xlink:href="#aR"/><use transform="matrix(0.04938271604938272,0,0,0.04938271604938272,11.851851851851853,0)" xlink:href="#aH"/><use transform="matrix(0.04938271604938272,0,0,0.04938271604938272,16.790123456790127,0)" xlink:href="#aS"/><use transform="matrix(0.04938271604938272,0,0,0.04938271604938272,27.604938271604947,0)" xlink:href="#aF"/><use transform="matrix(0.04938271604938272,0,0,0.04938271604938272,38.41975308641976,0)" xlink:href="#au"/></g><g id="H"><use transform="matrix(0.04938271604938272,0,0,0.04938271604938272,0,0)" xlink:href="#aI"/><use transform="matrix(0.04938271604938272,0,0,0.04938271604938272,13.827160493827162,0)" xlink:href="#aJ"/><use transform="matrix(0.04938271604938272,0,0,0.04938271604938272,19.703703703703706,0)" xlink:href="#aJ"/><use transform="matrix(0.04938271604938272,0,0,0.04938271604938272,25.58024691358025,0)" xlink:href="#av"/><use transform="matrix(0.04938271604938272,0,0,0.04938271604938272,35.4567901234568,0)" xlink:href="#aw"/></g><path fill="#333" d="M24 0v-248h52V0H24" id="aT"/><path fill="#333" d="M85 4C-2 5 27-109 22-190h50c7 57-23 150 33 157 60-5 35-97 40-157h50l1 190h-47c-2-12 1-28-3-38-12 25-28 42-61 42" id="aU"/><g id="I"><use transform="matrix(0.04938271604938272,0,0,0.04938271604938272,0,0)" xlink:href="#aT"/><use transform="matrix(0.04938271604938272,0,0,0.04938271604938272,4.938271604938272,0)" xlink:href="#au"/><use transform="matrix(0.04938271604938272,0,0,0.04938271604938272,14.814814814814817,0)" xlink:href="#au"/><use transform="matrix(0.04938271604938272,0,0,0.04938271604938272,24.69135802469136,0)" xlink:href="#aU"/><use transform="matrix(0.04938271604938272,0,0,0.04938271604938272,35.50617283950618,0)" xlink:href="#av"/><use transform="matrix(0.04938271604938272,0,0,0.04938271604938272,45.38271604938272,0)" xlink:href="#au"/></g><g id="J"><use transform="matrix(0.04938271604938272,0,0,0.04938271604938272,0,0)" xlink:href="#ay"/><use transform="matrix(0.04938271604938272,0,0,0.04938271604938272,12.790123456790125,0)" xlink:href="#az"/><use transform="matrix(0.04938271604938272,0,0,0.04938271604938272,22.66666666666667,0)" xlink:href="#aC"/><use transform="matrix(0.04938271604938272,0,0,0.04938271604938272,27.604938271604947,0)" xlink:href="#aC"/></g><g id="K"><use transform="matrix(0.04938271604938272,0,0,0.04938271604938272,0,0)" xlink:href="#ay"/><use transform="matrix(0.04938271604938272,0,0,0.04938271604938272,12.790123456790125,0)" xlink:href="#az"/><use transform="matrix(0.04938271604938272,0,0,0.04938271604938272,22.66666666666667,0)" xlink:href="#aC"/><use transform="matrix(0.04938271604938272,0,0,0.04938271604938272,27.604938271604947,0)" xlink:href="#aC"/></g><g id="L"><use transform="matrix(0.04938271604938272,0,0,0.04938271604938272,0,0)" xlink:href="#aB"/><use transform="matrix(0.04938271604938272,0,0,0.04938271604938272,9.481481481481481,0)" xlink:href="#az"/><use transform="matrix(0.04938271604938272,0,0,0.04938271604938272,19.358024691358025,0)" xlink:href="#aC"/><use transform="matrix(0.04938271604938272,0,0,0.04938271604938272,24.296296296296298,0)" xlink:href="#aC"/><use transform="matrix(0.04938271604938272,0,0,0.04938271604938272,29.23456790123457,0)" xlink:href="#aD"/></g><g id="M"><use transform="matrix(0.04938271604938272,0,0,0.04938271604938272,0,0)" xlink:href="#aR"/><use transform="matrix(0.04938271604938272,0,0,0.04938271604938272,11.851851851851853,0)" xlink:href="#aU"/><use transform="matrix(0.04938271604938272,0,0,0.04938271604938272,22.666666666666668,0)" xlink:href="#aG"/></g><g id="N"><use transform="matrix(0.04938271604938272,0,0,0.04938271604938272,0,0)" xlink:href="#aH"/><use transform="matrix(0.04938271604938272,0,0,0.04938271604938272,4.938271604938272,0)" xlink:href="#au"/></g><path fill="#333" d="M210 0H11v-37l134-170H24v-41h178v36L68-41h142V0" id="aV"/><g id="O"><use transform="matrix(0.04938271604938272,0,0,0.04938271604938272,0,0)" xlink:href="#aV"/><use transform="matrix(0.04938271604938272,0,0,0.04938271604938272,10.814814814814815,0)" xlink:href="#av"/><use transform="matrix(0.04938271604938272,0,0,0.04938271604938272,20.69135802469136,0)" xlink:href="#aw"/><use transform="matrix(0.04938271604938272,0,0,0.04938271604938272,27.604938271604947,0)" xlink:href="#aL"/></g></defs></g></svg>