<?xml version="1.0" encoding="UTF-8" standalone="no"?><svg xmlns="http://www.w3.org/2000/svg" xmlns:xlink="http://www.w3.org/1999/xlink" contentStyleType="text/css" height="390px" preserveAspectRatio="none" style="width:474px;height:390px;background:#FFFFFF;" version="1.1" viewBox="0 0 474 390" width="474px" zoomAndPan="magnify"><defs/><g><text fill="#000000" font-family="sans-serif" font-size="14" font-weight="bold" lengthAdjust="spacing" textLength="133" x="163.75" y="23.5352">Referee Lift States</text><ellipse cx="150" cy="53.4883" fill="#222222" rx="10" ry="10" style="stroke:none;stroke-width:1.0;"/><g id="none"><rect fill="#E8E8EA" height="50" rx="12.5" ry="12.5" style="stroke:#202024;stroke-width:0.5;" width="83" x="108.5" y="127.4883"/><line style="stroke:#202024;stroke-width:0.5;" x1="108.5" x2="191.5" y1="148.4883" y2="148.4883"/><text fill="#000033" font-family="Helvetica" font-size="11" lengthAdjust="spacing" textLength="63" x="118.5" y="140.9585">Lift Unknown</text></g><g id="good"><rect fill="#E8E8EA" height="50" rx="12.5" ry="12.5" style="stroke:#202024;stroke-width:0.5;" width="50" x="7" y="311.4883"/><line style="stroke:#202024;stroke-width:0.5;" x1="7" x2="57" y1="332.4883" y2="332.4883"/><text fill="#000033" font-family="Helvetica" font-size="11" lengthAdjust="spacing" textLength="24" x="20" y="324.9585">good</text></g><g id="timeout"><rect fill="#E8E8EA" height="50" rx="12.5" ry="12.5" style="stroke:#202024;stroke-width:0.5;" width="55" x="241.5" y="311.4883"/><line style="stroke:#202024;stroke-width:0.5;" x1="241.5" x2="296.5" y1="332.4883" y2="332.4883"/><text fill="#000033" font-family="Helvetica" font-size="11" lengthAdjust="spacing" textLength="35" x="251.5" y="324.9585">timeout</text></g><!--link *start to none--><g id="link_*start_none"><path d="M150,63.7883 C150,76.8283 150,101.1483 150,120.8783 " fill="none" id="*start-to-none" style="stroke:#000000;stroke-width:1.0;"/><polygon fill="#000000" points="150,125.8583,154,116.8583,150,120.8583,146,116.8583,150,125.8583" style="stroke:#000000;stroke-width:1.0;"/></g><!--link none to good--><g id="link_none_good"><path d="M110.71,177.7983 C98.58,186.8483 86.05,197.9883 77,210.4883 C56.34,239.0283 44.31,278.0083 37.97,304.8183 " fill="none" id="none-to-good" style="stroke:#0000FF;stroke-width:1.0;"/><polygon fill="#0000FF" points="36.89,309.5383,42.7961,301.6568,38.0049,304.6642,34.9975,299.873,36.89,309.5383" style="stroke:#0000FF;stroke-width:1.0;"/><text fill="#0000FF" font-family="Helvetica" font-size="11" lengthAdjust="spacing" textLength="26" x="130" y="219.9585">Peer:</text><text fill="#333333" font-family="Helvetica" font-size="11" lengthAdjust="spacing" textLength="130" x="78" y="230.9585">Receive originator Req:call</text><text fill="#333333" font-family="Helvetica" font-size="11" lengthAdjust="spacing" textLength="58" x="114" y="241.9585">[Within time]</text><text fill="#333333" font-family="Helvetica" font-size="11" lengthAdjust="spacing" textLength="97" x="94.5" y="252.9585">/Generate signature</text><text fill="#333333" font-family="Helvetica" font-size="11" lengthAdjust="spacing" textLength="53" x="116.5" y="263.9585">Store:good</text><text fill="#333333" font-family="Helvetica" font-size="11" lengthAdjust="spacing" textLength="74" x="106" y="274.9585">Reply Act:good</text></g><!--link none to timeout--><g id="link_none_timeout"><path d="M182.01,177.8983 C192.82,187.2483 204.33,198.5583 213,210.4883 C234.35,239.8783 250.16,278.6983 259.44,305.2283 " fill="none" id="none-to-timeout" style="stroke:#0000FF;stroke-width:1.0;"/><polygon fill="#0000FF" points="261.05,309.9383,261.9012,300.1263,259.4218,305.2108,254.3373,302.7314,261.05,309.9383" style="stroke:#0000FF;stroke-width:1.0;"/><text fill="#0000FF" font-family="Helvetica" font-size="11" lengthAdjust="spacing" textLength="26" x="312.5" y="225.4585">Peer:</text><text fill="#333333" font-family="Helvetica" font-size="11" lengthAdjust="spacing" textLength="153" x="249" y="236.4585">Receive request Req:call/query</text><text fill="#333333" font-family="Helvetica" font-size="11" lengthAdjust="spacing" textLength="69" x="291" y="247.4585">[Time expired]</text><text fill="#333333" font-family="Helvetica" font-size="11" lengthAdjust="spacing" textLength="67" x="292" y="258.4585">/Store:timeout</text><text fill="#333333" font-family="Helvetica" font-size="11" lengthAdjust="spacing" textLength="85" x="283" y="269.4585">Reply Act:timeout</text></g><!--link timeout to timeout--><g id="link_timeout_timeout"><path d="M296.96,320.5283 C314.61,316.5283 331.5,321.8483 331.5,336.4883 C331.5,349.4183 318.33,355.0783 303.11,353.4683 " fill="none" id="timeout-to-timeout" style="stroke:#0000FF;stroke-width:1.0;"/><polygon fill="#0000FF" points="298.45,352.6983,306.6649,358.1311,303.3812,353.5249,307.9874,350.2412,298.45,352.6983" style="stroke:#0000FF;stroke-width:1.0;"/><text fill="#0000FF" font-family="Helvetica" font-size="11" lengthAdjust="spacing" textLength="26" x="386.5" y="322.9585">Peer:</text><text fill="#333333" font-family="Helvetica" font-size="11" lengthAdjust="spacing" textLength="124" x="337.5" y="333.9585">Receive request Req:N/A</text><text fill="#333333" font-family="Helvetica" font-size="11" lengthAdjust="spacing" textLength="109" x="345" y="344.9585">[Already ruled expired]</text><text fill="#333333" font-family="Helvetica" font-size="11" lengthAdjust="spacing" textLength="88" x="355.5" y="355.9585">/Reply Act:timeout</text></g><!--link good to good--><g id="link_good_good"><path d="M57.28,320.9183 C74.77,316.2083 92,321.3983 92,336.4883 C92,349.8083 78.57,355.4183 63.39,353.3083 " fill="none" id="good-to-good" style="stroke:#0000FF;stroke-width:1.0;"/><polygon fill="#0000FF" points="58.76,352.3583,66.7784,358.0771,63.659,353.3581,68.3781,350.2387,58.76,352.3583" style="stroke:#0000FF;stroke-width:1.0;"/><text fill="#0000FF" font-family="Helvetica" font-size="11" lengthAdjust="spacing" textLength="26" x="144.5" y="322.9585">Peer:</text><text fill="#333333" font-family="Helvetica" font-size="11" lengthAdjust="spacing" textLength="119" x="98" y="333.9585">Receive peer Req:query</text><text fill="#333333" font-family="Helvetica" font-size="11" lengthAdjust="spacing" textLength="78" x="118.5" y="344.9585">[Already signed]</text><text fill="#333333" font-family="Helvetica" font-size="11" lengthAdjust="spacing" textLength="85" x="115" y="355.9585">/Reply Act:signed</text></g><!--link none to none--><g id="link_none_none"><path d="M191.71,141.6883 C210.36,140.6583 226.5,144.2583 226.5,152.4883 C226.5,159.7483 213.92,163.4083 198.14,163.4583 " fill="none" id="none-to-none" style="stroke:#0000FF;stroke-width:1.0;"/><polygon fill="#0000FF" points="193.22,163.3283,202.1142,167.5583,198.2183,163.4568,202.3198,159.561,193.22,163.3283" style="stroke:#0000FF;stroke-width:1.0;"/><text fill="#0000FF" font-family="Helvetica" font-size="11" lengthAdjust="spacing" textLength="26" x="279" y="138.9585">Peer:</text><text fill="#333333" font-family="Helvetica" font-size="11" lengthAdjust="spacing" textLength="119" x="232.5" y="149.9585">Receive peer Req:query</text><text fill="#333333" font-family="Helvetica" font-size="11" lengthAdjust="spacing" textLength="87" x="248.5" y="160.9585">[Time not expired]</text><text fill="#333333" font-family="Helvetica" font-size="11" lengthAdjust="spacing" textLength="91" x="246.5" y="171.9585">/Reply Act:pending</text></g><text fill="#888888" font-family="sans-serif" font-size="10" lengthAdjust="spacing" textLength="142" x="159.25" y="380.1563">Fri Feb 10 23:38:55 MST 2023</text><!--SRC=[dP0nJyCm48Lt_ugZgkGMfNJFWDI91J6a88QsGuXVWrNdd3fE8V-Us0rLHOk4sFpkpk-xUpUQ2zCgK66hol9TtLP6YB7Ntc2IOGi7qAFUUbhwtAEPYjNjXcQpUsBB44qeqYWElF2ExGUFA6-EJI6FVoXt80KFLsc6ehSk5LAvVElJw9hImMgLK8PzIh4kP0FiKXhQGGpjf_b2oE1qQWPnrXoWv5tEZVRQChdMe4b5s8bcgt4Dk4r_G6cjIcaS1oUnccGee0yWwtIfEVVMHUCYDoQHhzg_QoQlAyY4v0COBf0QNVQZhSEQb_qFfC5upHbgqz6Yy57BwGK_6DdM_xA2mxv5uq_yUIzTbyZd_XVXizOEAgnnH0vUvzIXr8E7r__OVQQ9N1Y7N7KnINLEluOJuTu_1Xr4n0pNVOD2fZy9G-qooA3_w1_JO-kltr23bUQoHtm1]--></g></svg>