<?xml version="1.0" encoding="UTF-8" standalone="no"?><svg xmlns="http://www.w3.org/2000/svg" xmlns:xlink="http://www.w3.org/1999/xlink" contentStyleType="text/css" height="898px" preserveAspectRatio="none" style="width:820px;height:898px;background:#FFFFFF;" version="1.1" viewBox="0 0 820 898" width="820px" zoomAndPan="magnify"><defs/><g><text fill="#000000" font-family="sans-serif" font-size="14" font-weight="bold" lengthAdjust="spacing" textLength="143" x="328.5" y="23.5352">Tally State Diagram</text><!--cluster Syncing--><g id="cluster_Syncing"><path d="M65.5,44.4883 L642.5,44.4883 A12.5,12.5 0 0 1 655,56.9883 L655,60.4883 L53,60.4883 L53,56.9883 A12.5,12.5 0 0 1 65.5,44.4883 " fill="#E8E8EA" style="stroke:#E8E8EA;stroke-width:1.0;"/><rect fill="none" height="587" rx="12.5" ry="12.5" style="stroke:#202024;stroke-width:0.5;" width="602" x="53" y="44.4883"/><line style="stroke:#202024;stroke-width:0.5;" x1="53" x2="655" y1="60.4883" y2="60.4883"/><text fill="#000033" font-family="Helvetica" font-size="11" lengthAdjust="spacing" textLength="39" x="334.5" y="56.9585">Syncing</text></g><!--cluster TheirCourt--><g id="cluster_TheirCourt"><path d="M445.5,98.4883 L602.5,98.4883 A12.5,12.5 0 0 1 615,110.9883 L615,114.4883 L433,114.4883 L433,110.9883 A12.5,12.5 0 0 1 445.5,98.4883 " fill="#E8E8EA" style="stroke:#E8E8EA;stroke-width:1.0;"/><rect fill="none" height="235" rx="12.5" ry="12.5" style="stroke:#202024;stroke-width:0.5;" width="182" x="433" y="98.4883"/><line style="stroke:#202024;stroke-width:0.5;" x1="433" x2="615" y1="114.4883" y2="114.4883"/><text fill="#000033" font-family="Helvetica" font-size="11" lengthAdjust="spacing" textLength="52" x="498" y="110.9585">TheirCourt</text></g><!--cluster YourCourt--><g id="cluster_YourCourt"><path d="M198.5,139.1283 L380.5,139.1283 A12.5,12.5 0 0 1 393,151.6283 L393,155.1283 L186,155.1283 L186,151.6283 A12.5,12.5 0 0 1 198.5,139.1283 " fill="#E8E8EA" style="stroke:#E8E8EA;stroke-width:1.0;"/><rect fill="none" height="335.36" rx="12.5" ry="12.5" style="stroke:#202024;stroke-width:0.5;" width="207" x="186" y="139.1283"/><line style="stroke:#202024;stroke-width:0.5;" x1="186" x2="393" y1="155.1283" y2="155.1283"/><text fill="#000033" font-family="Helvetica" font-size="11" lengthAdjust="spacing" textLength="50" x="264.5" y="151.5985">YourCourt</text></g><!--cluster Tradable--><g id="cluster_Tradable"><path d="M699.5,527.4883 L794.5,527.4883 A12.5,12.5 0 0 1 807,539.9883 L807,543.4883 L687,543.4883 L687,539.9883 A12.5,12.5 0 0 1 699.5,527.4883 " fill="#E8E8EA" style="stroke:#E8E8EA;stroke-width:1.0;"/><rect fill="none" height="237" rx="12.5" ry="12.5" style="stroke:#202024;stroke-width:0.5;" width="120" x="687" y="527.4883"/><line style="stroke:#202024;stroke-width:0.5;" x1="687" x2="807" y1="543.4883" y2="543.4883"/><text fill="#000033" font-family="Helvetica" font-size="11" lengthAdjust="spacing" textLength="43" x="725.5" y="539.9585">Tradable</text></g><g id="Syncing.SendingOffer"><rect fill="#E8E8EA" height="50" rx="12.5" ry="12.5" style="stroke:#202024;stroke-width:0.5;" width="84" x="435" y="557.4883"/><line style="stroke:#202024;stroke-width:0.5;" x1="435" x2="519" y1="578.4883" y2="578.4883"/><text fill="#000033" font-family="Helvetica" font-size="11" lengthAdjust="spacing" textLength="64" x="445" y="570.9585">SendingOffer</text></g><g id="Syncing.SendingApproval"><rect fill="#E8E8EA" height="50" rx="12.5" ry="12.5" style="stroke:#202024;stroke-width:0.5;" width="102" x="417" y="400.4883"/><line style="stroke:#202024;stroke-width:0.5;" x1="417" x2="519" y1="421.4883" y2="421.4883"/><text fill="#000033" font-family="Helvetica" font-size="11" lengthAdjust="spacing" textLength="82" x="427" y="413.9585">SendingApproval</text></g><g id="Syncing.TheirCourt.Waiting"><rect fill="#E8E8EA" height="50" rx="12.5" ry="12.5" style="stroke:#202024;stroke-width:0.5;" width="55" x="476.5" y="136.4883"/><line style="stroke:#202024;stroke-width:0.5;" x1="476.5" x2="531.5" y1="157.4883" y2="157.4883"/><text fill="#000033" font-family="Helvetica" font-size="11" lengthAdjust="spacing" textLength="35" x="486.5" y="149.9585">Waiting</text></g><g id="Syncing.TheirCourt.Abandoned"><rect fill="#E8E8EA" height="50" rx="12.5" ry="12.5" style="stroke:#202024;stroke-width:0.5;" width="75" x="495.5" y="259.4883"/><line style="stroke:#202024;stroke-width:0.5;" x1="495.5" x2="570.5" y1="280.4883" y2="280.4883"/><text fill="#000033" font-family="Helvetica" font-size="11" lengthAdjust="spacing" textLength="55" x="505.5" y="272.9585">Abandoned</text></g><g id="Syncing.YourCourt.Voided"><rect fill="#E8E8EA" height="50" rx="12.5" ry="12.5" style="stroke:#202024;stroke-width:0.5;" width="53" x="315.5" y="259.4883"/><line style="stroke:#202024;stroke-width:0.5;" x1="315.5" x2="368.5" y1="280.4883" y2="280.4883"/><text fill="#000033" font-family="Helvetica" font-size="11" lengthAdjust="spacing" textLength="33" x="325.5" y="272.9585">Voided</text></g><g id="Syncing.YourCourt.Reviewing"><rect fill="#E8E8EA" height="50" rx="12.5" ry="12.5" style="stroke:#202024;stroke-width:0.5;" width="70" x="210" y="259.4883"/><line style="stroke:#202024;stroke-width:0.5;" x1="210" x2="280" y1="280.4883" y2="280.4883"/><text fill="#000033" font-family="Helvetica" font-size="11" lengthAdjust="spacing" textLength="50" x="220" y="272.9585">Reviewing</text></g><g id="Syncing.YourCourt.Drafting"><rect fill="#E8E8EA" height="50" rx="12.5" ry="12.5" style="stroke:#202024;stroke-width:0.5;" width="58" x="216" y="400.4883"/><line style="stroke:#202024;stroke-width:0.5;" x1="216" x2="274" y1="421.4883" y2="421.4883"/><text fill="#000033" font-family="Helvetica" font-size="11" lengthAdjust="spacing" textLength="38" x="226" y="413.9585">Drafting</text></g><g id="Tradable.Open"><rect fill="#E8E8EA" height="50" rx="12.5" ry="12.5" style="stroke:#202024;stroke-width:0.5;" width="50" x="703" y="557.4883"/><line style="stroke:#202024;stroke-width:0.5;" x1="703" x2="753" y1="578.4883" y2="578.4883"/><text fill="#000033" font-family="Helvetica" font-size="11" lengthAdjust="spacing" textLength="27" x="714.5" y="570.9585">Open</text></g><g id="Tradable.ClosePending"><rect fill="#E8E8EA" height="50" rx="12.5" ry="12.5" style="stroke:#202024;stroke-width:0.5;" width="87" x="703.5" y="698.4883"/><line style="stroke:#202024;stroke-width:0.5;" x1="703.5" x2="790.5" y1="719.4883" y2="719.4883"/><text fill="#000033" font-family="Helvetica" font-size="11" lengthAdjust="spacing" textLength="67" x="713.5" y="711.9585">ClosePending</text></g><g id="Closed"><rect fill="#E8E8EA" height="50" rx="12.5" ry="12.5" style="stroke:#202024;stroke-width:0.5;" width="54" x="720" y="823.4883"/><line style="stroke:#202024;stroke-width:0.5;" x1="720" x2="774" y1="844.4883" y2="844.4883"/><text fill="#000033" font-family="Helvetica" font-size="11" lengthAdjust="spacing" textLength="34" x="730" y="836.9585">Closed</text></g><ellipse cx="16" cy="161.4883" fill="#222222" rx="10" ry="10" style="stroke:none;stroke-width:1.0;"/><!--link *start to Drafting--><g id="link_*start_Drafting"><path d="M20.41,170.6183 C35.45,197.9483 87.13,288.1583 146,349.4883 C165.33,369.6183 190.42,388.5683 210.5,402.3783 " fill="none" id="*start-to-Drafting" style="stroke:#000000;stroke-width:1.0;"/><polygon fill="#000000" points="214.51,405.1083,209.3264,396.7339,210.3786,402.292,204.8204,403.3442,214.51,405.1083" style="stroke:#000000;stroke-width:1.0;"/><text fill="#333333" font-family="Helvetica" font-size="11" lengthAdjust="spacing" textLength="45" x="147" y="287.4585">NewTally</text></g><!--link *start to Reviewing--><g id="link_*start_Reviewing"><path d="M22.88,168.7683 C28.59,173.8383 37.03,180.9983 45,186.4883 C67.29,201.8383 79.06,197.1483 98,216.4883 C102.59,221.1783 100.08,225.1483 105,229.4883 C120.1,242.7983 168,259.7183 203.59,271.0383 " fill="none" id="*start-to-Reviewing" style="stroke:#000000;stroke-width:1.0;"/><polygon fill="#000000" points="208.19,272.4883,200.8216,265.9532,203.4242,270.9758,198.4017,273.5784,208.19,272.4883" style="stroke:#000000;stroke-width:1.0;"/><text fill="#333333" font-family="Helvetica" font-size="11" lengthAdjust="spacing" textLength="71" x="106" y="225.9585">OfferReceived</text></g><!--link YourCourt to Voided--><g id="link_YourCourt_Voided"><path d="M304.98,162.6383 C304.53,165.7583 297.48,215.7783 302,229.4883 C304.85,238.1283 309.68,246.5183 315.01,254.0083 " fill="none" id="YourCourt-to-Voided" style="stroke:#000000;stroke-width:1.0;"/><polygon fill="#000000" points="317.86,257.8283,315.6764,248.2245,314.8668,253.8232,309.2682,253.0136,317.86,257.8283" style="stroke:#000000;stroke-width:1.0;"/><text fill="#333333" font-family="Helvetica" font-size="11" lengthAdjust="spacing" textLength="21" x="303" y="225.9585">Void</text></g><!--link Drafting to SendingOffer--><g id="link_Drafting_SendingOffer"><path d="M253.07,450.8283 C258.43,463.9383 266.6,479.6183 278,490.4883 C320.66,531.1883 384.74,555.9783 428.58,569.1983 " fill="none" id="Drafting-to-SendingOffer" style="stroke:#000000;stroke-width:1.0;"/><polygon fill="#000000" points="433.18,570.5583,425.6826,564.1716,428.385,569.1413,423.4154,571.8436,433.18,570.5583" style="stroke:#000000;stroke-width:1.0;"/><text fill="#333333" font-family="Helvetica" font-size="11" lengthAdjust="spacing" textLength="47" x="301" y="507.9585">Approved</text></g><!--link SendingOffer to Waiting--><g id="link_SendingOffer_Waiting"><path d="M498.71,557.2483 C512.65,539.9883 529.5,515.4983 537,490.4883 C548.49,452.1783 553.64,436.8683 537,400.4883 C522.58,368.9683 492.42,381.0083 478,349.4883 C454.45,297.9983 474.52,230.8383 490.07,192.6083 " fill="none" id="SendingOffer-to-Waiting" style="stroke:#000000;stroke-width:1.0;"/><polygon fill="#000000" points="491.94,188.1283,484.7787,194.8896,490.0119,192.7416,492.16,197.9747,491.94,188.1283" style="stroke:#000000;stroke-width:1.0;"/><text fill="#333333" font-family="Helvetica" font-size="11" lengthAdjust="spacing" textLength="47" x="498" y="366.9585">OfferSent</text></g><!--link Reviewing to SendingApproval--><g id="link_Reviewing_SendingApproval"><path d="M260.9,309.7583 C270.43,322.8483 283.5,338.5283 298,349.4883 C331.93,375.1383 376.02,394.2683 410.79,406.7783 " fill="none" id="Reviewing-to-SendingApproval" style="stroke:#000000;stroke-width:1.0;"/><polygon fill="#000000" points="415.3,408.3783,408.154,401.6007,410.5874,406.7075,405.4807,409.1409,415.3,408.3783" style="stroke:#000000;stroke-width:1.0;"/><text fill="#333333" font-family="Helvetica" font-size="11" lengthAdjust="spacing" textLength="41" x="328" y="366.9585">Approve</text></g><!--link Reviewing to Drafting--><g id="link_Reviewing_Drafting"><path d="M232.16,309.8383 C224.79,326.7283 217.78,349.8183 222,370.4883 C223.64,378.5283 226.52,386.8483 229.7,394.4783 " fill="none" id="Reviewing-to-Drafting" style="stroke:#000000;stroke-width:1.0;"/><polygon fill="#000000" points="231.57,398.7783,231.6385,388.9297,229.5712,394.1952,224.3056,392.1278,231.57,398.7783" style="stroke:#000000;stroke-width:1.0;"/><text fill="#333333" font-family="Helvetica" font-size="11" lengthAdjust="spacing" textLength="31" x="223" y="366.9585">Reject</text></g><!--link TheirCourt to Reviewing--><g id="link_TheirCourt_Reviewing"><path d="M432.8653,167.3755 C432.6682,167.4938 432.4683,167.6138 432.2657,167.7354 C430.6451,168.7084 428.8528,169.7842 426.9363,170.9345 C419.27,175.5358 409.615,181.3283 401,186.4883 C369.02,205.6283 362.04,212.2383 329,229.4883 C315.6,236.4883 311,235.7783 298,243.4883 C292.08,246.9983 286.04,251.0483 280.25,255.1983 " fill="none" id="TheirCourt-to-Reviewing" style="stroke:#000000;stroke-width:1.0;"/><polygon fill="#000000" points="276.24,258.1283,285.8704,256.0656,280.2824,255.1857,281.1624,249.5977,276.24,258.1283" style="stroke:#000000;stroke-width:1.0;"/><text fill="#333333" font-family="Helvetica" font-size="11" lengthAdjust="spacing" textLength="71" x="352" y="225.9585">OfferReceived</text></g><!--link TheirCourt to Open--><g id="link_TheirCourt_Open"><path d="M615.1146,223.9483 C615.4921,224.3124 615.8684,224.6777 616.2434,225.0443 C619.2436,227.9771 622.1636,230.9885 625.0054,234.0729 C630.6891,240.2417 636.0603,246.7021 641.1363,253.4075 C651.2882,266.8184 660.2588,281.2091 668.1852,296.2061 C684.0378,326.2002 695.7131,358.6195 704.3063,390.4758 C721.4925,454.1883 726.35,515.6483 727.64,550.9483 " fill="none" id="TheirCourt-to-Open" style="stroke:#000000;stroke-width:1.0;"/><polygon fill="#000000" points="727.8,555.9383,731.5153,546.8171,727.6429,550.9407,723.5193,547.0684,727.8,555.9383" style="stroke:#000000;stroke-width:1.0;"/><text fill="#333333" font-family="Helvetica" font-size="11" lengthAdjust="spacing" textLength="75" x="698" y="366.9585">AgreeReceived</text></g><!--link Waiting to Abandoned--><g id="link_Waiting_Abandoned"><path d="M509.87,186.9783 C514.43,205.9983 520.78,232.4983 525.67,252.9083 " fill="none" id="Waiting-to-Abandoned" style="stroke:#000000;stroke-width:1.0;"/><polygon fill="#000000" points="526.79,257.5683,528.5954,247.8863,525.6313,252.7044,520.8132,249.7403,526.79,257.5683" style="stroke:#000000;stroke-width:1.0;"/><text fill="#333333" font-family="Helvetica" font-size="11" lengthAdjust="spacing" textLength="89" x="520" y="225.9585">AbandonReceived</text></g><!--link SendingApproval to Open--><g id="link_SendingApproval_Open"><path d="M499.98,450.8183 C526.88,470.1183 567.08,496.2883 606,511.4883 C623.29,518.2383 630.07,511.8683 647,519.4883 C665.43,527.7783 683.52,540.9983 697.91,553.1083 " fill="none" id="SendingApproval-to-Open" style="stroke:#000000;stroke-width:1.0;"/><polygon fill="#000000" points="701.5,556.1783,697.2699,547.2841,697.7037,552.9243,692.0635,553.3582,701.5,556.1783" style="stroke:#000000;stroke-width:1.0;"/><text fill="#333333" font-family="Helvetica" font-size="11" lengthAdjust="spacing" textLength="89" x="607" y="507.9585">ApprovalReceived</text></g><!--link Open to ClosePending--><g id="link_Open_ClosePending"><path d="M731.31,607.6983 C734.5,631.0783 739.35,666.5583 742.82,691.8783 " fill="none" id="Open-to-ClosePending" style="stroke:#000000;stroke-width:1.0;"/><polygon fill="#000000" points="743.46,696.5883,746.2158,687.1328,742.7889,691.6335,738.2882,688.2066,743.46,696.5883" style="stroke:#000000;stroke-width:1.0;"/><text fill="#333333" font-family="Helvetica" font-size="11" lengthAdjust="spacing" textLength="28" x="740" y="664.9585">Close</text></g><!--link ClosePending to Closed--><g id="link_ClosePending_Closed"><path d="M747,748.7883 C747,768.3283 747,795.8983 747,816.9383 " fill="none" id="ClosePending-to-Closed" style="stroke:#000000;stroke-width:1.0;"/><polygon fill="#000000" points="747,821.7283,751,812.7283,747,816.7283,743,812.7283,747,821.7283" style="stroke:#000000;stroke-width:1.0;"/><text fill="#333333" font-family="Helvetica" font-size="11" lengthAdjust="spacing" textLength="34" x="748" y="789.9585">Closed</text></g><!--link Syncing to Syncing--><g id="link_Syncing_Syncing"><path d="M661,161.1283 C672.87,146.1183 696.08,146.2383 696.08,161.4883 C696.08,176.7383 672.87,176.8583 661,161.8483 " fill="none" id="Syncing-to-Syncing" style="stroke:#000000;stroke-width:1.0;"/><polygon fill="#000000" points="661,161.8483,663.4451,171.3888,664.1014,165.7702,669.7201,166.4265,661,161.8483" style="stroke:#000000;stroke-width:1.0;"/><text fill="#333333" font-family="Helvetica" font-size="11" lengthAdjust="spacing" textLength="55" x="702.08" y="164.4585">OutOfSync</text></g><text fill="#888888" font-family="sans-serif" font-size="10" lengthAdjust="spacing" textLength="150" x="325" y="888.1563">Tue Oct 17 18:47:53 MDT 2023</text><!--SRC=[VPBBQWCX58RtFeM5GY-GFe2BGaZMdPA4bbAwCEEPYSNHmJW9eUJTwstKJ4fdC_gVp_zSz8RBMWmCSAswJicdVkW4GhU66m7t6oh42QyDDO2NdBQQTWy8xVr-VP8rbot-GTX-GTliWEk56hI9SWwzKsuiFb7dMogPai2yVYwiFgpBtqvlYhDu88ihE70uNYTOQjgalAN_6YIpUjKqeA_bUTzhTQ02dMEt6qqPtGguQBVgGHRRXL1xU0q6wQ0N6KAVZrzufdcxCxFdL1N1Bt3qGmvn6qgD4EnhMq4D_E0SyaGS5wP0_1-DVZvITaPmwCITBtKFnYk9YMpO89JIbrRZD9BR1CljhE0RQcjJF8H_cvfmRg0sIQi1Sj-nJ0-azqB6PUOcnPQ6KSgiqprGtXa9EuHACLECfCkyIw__Sew3gHeNSSe4AaSmOa6RWEF59Yg-zqkg6CGKBB6uBY3q2m00]--></g></svg>