<?xml version="1.0" encoding="UTF-8" standalone="no"?><svg xmlns="http://www.w3.org/2000/svg" xmlns:xlink="http://www.w3.org/1999/xlink" contentStyleType="text/css" height="660px" preserveAspectRatio="none" style="width:926px;height:660px;background:#FFFFFF;" version="1.1" viewBox="0 0 926 660" width="926px" zoomAndPan="magnify"><defs/><g><line style="stroke:#44AAFF;stroke-width:0.5;stroke-dasharray:5.0,5.0;" x1="127.5" x2="127.5" y1="69.9766" y2="591.9766"/><line style="stroke:#44AAFF;stroke-width:0.5;stroke-dasharray:5.0,5.0;" x1="172.5" x2="172.5" y1="69.9766" y2="591.9766"/><line style="stroke:#44AAFF;stroke-width:0.5;stroke-dasharray:5.0,5.0;" x1="211.5" x2="211.5" y1="69.9766" y2="591.9766"/><line style="stroke:#44AAFF;stroke-width:0.5;stroke-dasharray:5.0,5.0;" x1="251.5" x2="251.5" y1="69.9766" y2="591.9766"/><line style="stroke:#44AAFF;stroke-width:0.5;stroke-dasharray:5.0,5.0;" x1="312" x2="312" y1="69.9766" y2="591.9766"/><line style="stroke:#44AAFF;stroke-width:0.5;stroke-dasharray:5.0,5.0;" x1="373.5" x2="373.5" y1="69.9766" y2="591.9766"/><line style="stroke:#44AAFF;stroke-width:0.5;stroke-dasharray:5.0,5.0;" x1="500.5" x2="500.5" y1="69.9766" y2="591.9766"/><line style="stroke:#44AAFF;stroke-width:0.5;stroke-dasharray:5.0,5.0;" x1="628.5" x2="628.5" y1="69.9766" y2="591.9766"/><line style="stroke:#44AAFF;stroke-width:0.5;stroke-dasharray:5.0,5.0;" x1="689" x2="689" y1="69.9766" y2="591.9766"/><line style="stroke:#44AAFF;stroke-width:0.5;stroke-dasharray:5.0,5.0;" x1="750.5" x2="750.5" y1="69.9766" y2="591.9766"/><line style="stroke:#44AAFF;stroke-width:0.5;stroke-dasharray:5.0,5.0;" x1="789.5" x2="789.5" y1="69.9766" y2="591.9766"/><line style="stroke:#44AAFF;stroke-width:0.5;stroke-dasharray:5.0,5.0;" x1="829.5" x2="829.5" y1="69.9766" y2="591.9766"/><line style="stroke:#44AAFF;stroke-width:0.5;stroke-dasharray:5.0,5.0;" x1="885.5" x2="885.5" y1="69.9766" y2="591.9766"/><text fill="#000000" font-family="sans-serif" font-size="14" lengthAdjust="spacing" textLength="21" x="114" y="50.5352">Lift</text><text fill="#000000" font-family="sans-serif" font-size="14" lengthAdjust="spacing" textLength="44" x="102.5" y="67.0234">Bound</text><ellipse cx="127.5" cy="21" fill="#E2E2F0" rx="12" ry="12" style="stroke:#181818;stroke-width:0.5;"/><line style="stroke:#181818;stroke-width:0.5;" x1="115.5" x2="139.5" y1="35" y2="35"/><text fill="#000000" font-family="sans-serif" font-size="14" lengthAdjust="spacing" textLength="21" x="114" y="604.5117">Lift</text><text fill="#000000" font-family="sans-serif" font-size="14" lengthAdjust="spacing" textLength="44" x="102.5" y="621">Bound</text><ellipse cx="127.5" cy="639.9531" fill="#E2E2F0" rx="12" ry="12" style="stroke:#181818;stroke-width:0.5;"/><line style="stroke:#181818;stroke-width:0.5;" x1="115.5" x2="139.5" y1="653.9531" y2="653.9531"/><rect fill="#E8E8EA" height="25" rx="2.5" ry="2.5" style="stroke:#202024;stroke-width:0.5;" width="20" x="162.5" y="43.9766"/><text fill="#000033" font-family="Helvetica" font-size="11" lengthAdjust="spacing" textLength="6" x="169.5" y="59.4468">a</text><rect fill="#E8E8EA" height="25" rx="2.5" ry="2.5" style="stroke:#202024;stroke-width:0.5;" width="20" x="162.5" y="590.9766"/><text fill="#000033" font-family="Helvetica" font-size="11" lengthAdjust="spacing" textLength="6" x="169.5" y="606.4468">a</text><text fill="#000000" font-family="sans-serif" font-size="14" lengthAdjust="spacing" textLength="32" x="193" y="50.5352">Tally</text><text fill="#000000" font-family="sans-serif" font-size="14" lengthAdjust="spacing" textLength="33" x="192.5" y="67.0234">Limit</text><ellipse cx="212" cy="21" fill="#E2E2F0" rx="12" ry="12" style="stroke:#181818;stroke-width:0.5;"/><line style="stroke:#181818;stroke-width:0.5;" x1="200" x2="224" y1="35" y2="35"/><text fill="#000000" font-family="sans-serif" font-size="14" lengthAdjust="spacing" textLength="32" x="193" y="604.5117">Tally</text><text fill="#000000" font-family="sans-serif" font-size="14" lengthAdjust="spacing" textLength="33" x="192.5" y="621">Limit</text><ellipse cx="212" cy="639.9531" fill="#E2E2F0" rx="12" ry="12" style="stroke:#181818;stroke-width:0.5;"/><line style="stroke:#181818;stroke-width:0.5;" x1="200" x2="224" y1="653.9531" y2="653.9531"/><rect fill="#E8E8EA" height="25" rx="2.5" ry="2.5" style="stroke:#202024;stroke-width:0.5;" width="20" x="241.5" y="43.9766"/><text fill="#000033" font-family="Helvetica" font-size="11" lengthAdjust="spacing" textLength="6" x="248.5" y="59.4468">b</text><rect fill="#E8E8EA" height="25" rx="2.5" ry="2.5" style="stroke:#202024;stroke-width:0.5;" width="20" x="241.5" y="590.9766"/><text fill="#000033" font-family="Helvetica" font-size="11" lengthAdjust="spacing" textLength="6" x="248.5" y="606.4468">b</text><text fill="#000000" font-family="sans-serif" font-size="14" lengthAdjust="spacing" textLength="21" x="299" y="50.5352">Lift</text><text fill="#000000" font-family="sans-serif" font-size="14" lengthAdjust="spacing" textLength="45" x="287" y="67.0234">Target</text><ellipse cx="312.5" cy="21" fill="#E2E2F0" rx="12" ry="12" style="stroke:#181818;stroke-width:0.5;"/><line style="stroke:#181818;stroke-width:0.5;" x1="300.5" x2="324.5" y1="35" y2="35"/><text fill="#000000" font-family="sans-serif" font-size="14" lengthAdjust="spacing" textLength="21" x="299" y="604.5117">Lift</text><text fill="#000000" font-family="sans-serif" font-size="14" lengthAdjust="spacing" textLength="45" x="287" y="621">Target</text><ellipse cx="312.5" cy="639.9531" fill="#E2E2F0" rx="12" ry="12" style="stroke:#181818;stroke-width:0.5;"/><line style="stroke:#181818;stroke-width:0.5;" x1="300.5" x2="324.5" y1="653.9531" y2="653.9531"/><rect fill="#E8E8EA" height="25" rx="2.5" ry="2.5" style="stroke:#202024;stroke-width:0.5;" width="20" x="363.5" y="43.9766"/><text fill="#000033" font-family="Helvetica" font-size="11" lengthAdjust="spacing" textLength="6" x="370.5" y="59.4468">c</text><rect fill="#E8E8EA" height="25" rx="2.5" ry="2.5" style="stroke:#202024;stroke-width:0.5;" width="20" x="363.5" y="590.9766"/><text fill="#000033" font-family="Helvetica" font-size="11" lengthAdjust="spacing" textLength="6" x="370.5" y="606.4468">c</text><rect fill="#E8E8EA" height="25" rx="2.5" ry="2.5" style="stroke:#202024;stroke-width:0.5;" width="37" x="482.5" y="43.9766"/><text fill="#000033" font-family="Helvetica" font-size="11" lengthAdjust="spacing" textLength="23" x="489.5" y="59.4468">Zero</text><rect fill="#E8E8EA" height="25" rx="2.5" ry="2.5" style="stroke:#202024;stroke-width:0.5;" width="37" x="482.5" y="590.9766"/><text fill="#000033" font-family="Helvetica" font-size="11" lengthAdjust="spacing" textLength="23" x="489.5" y="606.4468">Zero</text><rect fill="#E8E8EA" height="25" rx="2.5" ry="2.5" style="stroke:#202024;stroke-width:0.5;" width="20" x="618.5" y="43.9766"/><text fill="#000033" font-family="Helvetica" font-size="11" lengthAdjust="spacing" textLength="6" x="625.5" y="59.4468">x</text><rect fill="#E8E8EA" height="25" rx="2.5" ry="2.5" style="stroke:#202024;stroke-width:0.5;" width="20" x="618.5" y="590.9766"/><text fill="#000033" font-family="Helvetica" font-size="11" lengthAdjust="spacing" textLength="6" x="625.5" y="606.4468">x</text><text fill="#000000" font-family="sans-serif" font-size="14" lengthAdjust="spacing" textLength="34" x="669.5" y="50.5352">Drop</text><text fill="#000000" font-family="sans-serif" font-size="14" lengthAdjust="spacing" textLength="45" x="664" y="67.0234">Target</text><ellipse cx="689.5" cy="21" fill="#E2E2F0" rx="12" ry="12" style="stroke:#181818;stroke-width:0.5;"/><line style="stroke:#181818;stroke-width:0.5;" x1="677.5" x2="701.5" y1="35" y2="35"/><text fill="#000000" font-family="sans-serif" font-size="14" lengthAdjust="spacing" textLength="34" x="669.5" y="604.5117">Drop</text><text fill="#000000" font-family="sans-serif" font-size="14" lengthAdjust="spacing" textLength="45" x="664" y="621">Target</text><ellipse cx="689.5" cy="639.9531" fill="#E2E2F0" rx="12" ry="12" style="stroke:#181818;stroke-width:0.5;"/><line style="stroke:#181818;stroke-width:0.5;" x1="677.5" x2="701.5" y1="653.9531" y2="653.9531"/><rect fill="#E8E8EA" height="25" rx="2.5" ry="2.5" style="stroke:#202024;stroke-width:0.5;" width="20" x="740.5" y="43.9766"/><text fill="#000033" font-family="Helvetica" font-size="11" lengthAdjust="spacing" textLength="6" x="747.5" y="59.4468">y</text><rect fill="#E8E8EA" height="25" rx="2.5" ry="2.5" style="stroke:#202024;stroke-width:0.5;" width="20" x="740.5" y="590.9766"/><text fill="#000033" font-family="Helvetica" font-size="11" lengthAdjust="spacing" textLength="6" x="747.5" y="606.4468">y</text><text fill="#000000" font-family="sans-serif" font-size="14" lengthAdjust="spacing" textLength="32" x="771" y="50.5352">Tally</text><text fill="#000000" font-family="sans-serif" font-size="14" lengthAdjust="spacing" textLength="33" x="770.5" y="67.0234">Limit</text><ellipse cx="790" cy="21" fill="#E2E2F0" rx="12" ry="12" style="stroke:#181818;stroke-width:0.5;"/><line style="stroke:#181818;stroke-width:0.5;" x1="778" x2="802" y1="35" y2="35"/><text fill="#000000" font-family="sans-serif" font-size="14" lengthAdjust="spacing" textLength="32" x="771" y="604.5117">Tally</text><text fill="#000000" font-family="sans-serif" font-size="14" lengthAdjust="spacing" textLength="33" x="770.5" y="621">Limit</text><ellipse cx="790" cy="639.9531" fill="#E2E2F0" rx="12" ry="12" style="stroke:#181818;stroke-width:0.5;"/><line style="stroke:#181818;stroke-width:0.5;" x1="778" x2="802" y1="653.9531" y2="653.9531"/><rect fill="#E8E8EA" height="25" rx="2.5" ry="2.5" style="stroke:#202024;stroke-width:0.5;" width="20" x="819.5" y="43.9766"/><text fill="#000033" font-family="Helvetica" font-size="11" lengthAdjust="spacing" textLength="6" x="826.5" y="59.4468">z</text><rect fill="#E8E8EA" height="25" rx="2.5" ry="2.5" style="stroke:#202024;stroke-width:0.5;" width="20" x="819.5" y="590.9766"/><text fill="#000033" font-family="Helvetica" font-size="11" lengthAdjust="spacing" textLength="6" x="826.5" y="606.4468">z</text><text fill="#000000" font-family="sans-serif" font-size="14" lengthAdjust="spacing" textLength="34" x="865.5" y="50.5352">Drop</text><text fill="#000000" font-family="sans-serif" font-size="14" lengthAdjust="spacing" textLength="44" x="860.5" y="67.0234">Bound</text><ellipse cx="885.5" cy="21" fill="#E2E2F0" rx="12" ry="12" style="stroke:#181818;stroke-width:0.5;"/><line style="stroke:#181818;stroke-width:0.5;" x1="873.5" x2="897.5" y1="35" y2="35"/><text fill="#000000" font-family="sans-serif" font-size="14" lengthAdjust="spacing" textLength="34" x="865.5" y="604.5117">Drop</text><text fill="#000000" font-family="sans-serif" font-size="14" lengthAdjust="spacing" textLength="44" x="860.5" y="621">Bound</text><ellipse cx="885.5" cy="639.9531" fill="#E2E2F0" rx="12" ry="12" style="stroke:#181818;stroke-width:0.5;"/><line style="stroke:#181818;stroke-width:0.5;" x1="873.5" x2="897.5" y1="653.9531" y2="653.9531"/><path d="M94,84.9766 L94,105.9766 L161,105.9766 L161,94.9766 L151,84.9766 L94,84.9766 " fill="#E8E8EA" style="stroke:#202024;stroke-width:0.5;"/><path d="M151,84.9766 L151,94.9766 L161,94.9766 L151,84.9766 " fill="#E8E8EA" style="stroke:#202024;stroke-width:0.5;"/><text fill="#000033" font-family="Helvetica" font-size="11" lengthAdjust="spacing" textLength="46" x="100" y="98.4468">b &lt;= zero</text><path d="M180,84.9766 L180,105.9766 L243,105.9766 L243,94.9766 L233,84.9766 L180,84.9766 " fill="#E8E8EA" style="stroke:#202024;stroke-width:0.5;"/><path d="M233,84.9766 L233,94.9766 L243,94.9766 L233,84.9766 " fill="#E8E8EA" style="stroke:#202024;stroke-width:0.5;"/><text fill="#000033" font-family="Helvetica" font-size="11" lengthAdjust="spacing" textLength="42" x="186" y="98.4468">l &lt;= zero</text><path d="M256,84.9766 L256,105.9766 L368,105.9766 L368,94.9766 L358,84.9766 L256,84.9766 " fill="#E8E8EA" style="stroke:#202024;stroke-width:0.5;"/><path d="M358,84.9766 L358,94.9766 L368,94.9766 L358,84.9766 " fill="#E8E8EA" style="stroke:#202024;stroke-width:0.5;"/><text fill="#000033" font-family="Helvetica" font-size="11" lengthAdjust="spacing" textLength="91" x="262" y="98.4468">bound &lt;= t &lt;= zero</text><path d="M633,84.9766 L633,105.9766 L745,105.9766 L745,94.9766 L735,84.9766 L633,84.9766 " fill="#E8E8EA" style="stroke:#202024;stroke-width:0.5;"/><path d="M735,84.9766 L735,94.9766 L745,94.9766 L735,84.9766 " fill="#E8E8EA" style="stroke:#202024;stroke-width:0.5;"/><text fill="#000033" font-family="Helvetica" font-size="11" lengthAdjust="spacing" textLength="91" x="639" y="98.4468">zero &lt;= t &lt;= bound</text><path d="M758,84.9766 L758,105.9766 L821,105.9766 L821,94.9766 L811,84.9766 L758,84.9766 " fill="#E8E8EA" style="stroke:#202024;stroke-width:0.5;"/><path d="M811,84.9766 L811,94.9766 L821,94.9766 L811,84.9766 " fill="#E8E8EA" style="stroke:#202024;stroke-width:0.5;"/><text fill="#000033" font-family="Helvetica" font-size="11" lengthAdjust="spacing" textLength="42" x="764" y="98.4468">zero &lt;= l</text><path d="M852,84.9766 L852,105.9766 L919,105.9766 L919,94.9766 L909,84.9766 L852,84.9766 " fill="#E8E8EA" style="stroke:#202024;stroke-width:0.5;"/><path d="M909,84.9766 L909,94.9766 L919,94.9766 L909,84.9766 " fill="#E8E8EA" style="stroke:#202024;stroke-width:0.5;"/><text fill="#000033" font-family="Helvetica" font-size="11" lengthAdjust="spacing" textLength="46" x="858" y="98.4468">zero &lt;= b</text><path d="M112,115.9766 L112,158.9766 L388,158.9766 L388,125.9766 L378,115.9766 L112,115.9766 " fill="#FFCCCC" style="stroke:#202024;stroke-width:0.5;"/><path d="M378,115.9766 L378,125.9766 L388,125.9766 L378,115.9766 " fill="#FFCCCC" style="stroke:#202024;stroke-width:0.5;"/><text fill="#000033" font-family="Helvetica" font-size="11" lengthAdjust="spacing" textLength="117" x="146.5" y="129.4468">- Negative Tally balance</text><text fill="#000033" font-family="Helvetica" font-size="11" lengthAdjust="spacing" textLength="198" x="146.5" y="140.4468">Client owed by vendor (client &lt;-- vendor)</text><text fill="#000033" font-family="Helvetica" font-size="11" lengthAdjust="spacing" textLength="173" x="146.5" y="151.4468">Client/Foil maintains these variables</text><path d="M613,115.9766 L613,158.9766 L900,158.9766 L900,125.9766 L890,115.9766 L613,115.9766 " fill="#CCCCFF" style="stroke:#202024;stroke-width:0.5;"/><path d="M890,115.9766 L890,125.9766 L900,125.9766 L890,115.9766 " fill="#CCCCFF" style="stroke:#202024;stroke-width:0.5;"/><text fill="#000033" font-family="Helvetica" font-size="11" lengthAdjust="spacing" textLength="114" x="656" y="129.4468">+ Positive Tally balance</text><text fill="#000033" font-family="Helvetica" font-size="11" lengthAdjust="spacing" textLength="183" x="656" y="140.4468">Client owes vendor (client --&gt; vendor)</text><text fill="#000033" font-family="Helvetica" font-size="11" lengthAdjust="spacing" textLength="192" x="656" y="151.4468">Vendor/Stock maintains these variables</text><path d="M105,168.9766 L105,189.9766 L908,189.9766 L908,178.9766 L898,168.9766 L105,168.9766 " fill="#E8E8EA" style="stroke:#202024;stroke-width:0.5;"/><path d="M898,168.9766 L898,178.9766 L908,178.9766 L898,168.9766 " fill="#E8E8EA" style="stroke:#202024;stroke-width:0.5;"/><text fill="#000033" font-family="Helvetica" font-size="11" lengthAdjust="spacing" textLength="124" x="440" y="182.4468">Normal Chit Transactions</text><polygon fill="#000000" points="223,207.9766,213,211.9766,223,215.9766,219,211.9766" style="stroke:#000000;stroke-width:1.0;"/><polygon fill="#000000" points="778,207.9766,788,211.9766,778,215.9766,782,211.9766" style="stroke:#000000;stroke-width:1.0;"/><line style="stroke:#000000;stroke-width:1.0;" x1="217" x2="784" y1="211.9766" y2="211.9766"/><text fill="#333333" font-family="Helvetica" font-size="11" lengthAdjust="spacing" textLength="203" x="229" y="207.4468">Normal range for manual chit transactions</text><polygon fill="#000000" points="778,232.9766,788,236.9766,778,240.9766,782,236.9766" style="stroke:#000000;stroke-width:1.0;"/><line style="stroke:#000000;stroke-width:1.0;" x1="373.5" x2="784" y1="236.9766" y2="236.9766"/><text fill="#333333" font-family="Helvetica" font-size="11" lengthAdjust="spacing" textLength="272" x="380.5" y="232.4468">Client payment pledge for services can go up to this limit</text><polygon fill="#000000" points="223,257.9766,213,261.9766,223,265.9766,219,261.9766" style="stroke:#000000;stroke-width:1.0;"/><line style="stroke:#000000;stroke-width:1.0;" x1="217" x2="627.5" y1="261.9766" y2="261.9766"/><text fill="#333333" font-family="Helvetica" font-size="11" lengthAdjust="spacing" textLength="223" x="229" y="257.4468">Vendor refund/credit pledge can go to this limit</text><path d="M105,274.9766 L105,295.9766 L908,295.9766 L908,284.9766 L898,274.9766 L105,274.9766 " fill="#E8E8EA" style="stroke:#202024;stroke-width:0.5;"/><path d="M898,274.9766 L898,284.9766 L908,284.9766 L898,274.9766 " fill="#E8E8EA" style="stroke:#202024;stroke-width:0.5;"/><text fill="#000033" font-family="Helvetica" font-size="11" lengthAdjust="spacing" textLength="160" x="422" y="288.4468">Lifts (Decreases to tally balance)</text><polygon fill="#000000" points="384.5,313.9766,374.5,317.9766,384.5,321.9766,380.5,317.9766" style="stroke:#000000;stroke-width:1.0;"/><line style="stroke:#000000;stroke-width:1.0;" x1="378.5" x2="627.5" y1="317.9766" y2="317.9766"/><text fill="#333333" font-family="Helvetica" font-size="11" lengthAdjust="spacing" textLength="48" x="390.5" y="313.4468">Typical lift</text><polygon fill="#000000" points="323.5,338.9766,313.5,342.9766,323.5,346.9766,319.5,342.9766" style="stroke:#000000;stroke-width:1.0;"/><line style="stroke:#000000;stroke-width:1.0;" x1="317.5" x2="884.5" y1="342.9766" y2="342.9766"/><text fill="#333333" font-family="Helvetica" font-size="11" lengthAdjust="spacing" textLength="365" x="329.5" y="338.4468">Lift in this range must be honored by Client with no charge (= honoring IOU)</text><polygon fill="#FF0000" points="138.5,363.9766,128.5,367.9766,138.5,371.9766,134.5,367.9766" style="stroke:#FF0000;stroke-width:1.0;"/><line style="stroke:#FF0000;stroke-width:1.0;" x1="132.5" x2="311.5" y1="367.9766" y2="367.9766"/><text fill="#333333" font-family="Helvetica" font-size="11" lengthAdjust="spacing" textLength="152" x="144.5" y="363.4468">Client may charge lift (+reward)</text><polygon fill="#008000" points="138.5,388.9766,128.5,392.9766,138.5,396.9766,134.5,392.9766" style="stroke:#008000;stroke-width:1.0;"/><line style="stroke:#008000;stroke-width:1.0;" x1="132.5" x2="884.5" y1="392.9766" y2="392.9766"/><text fill="#333333" font-family="Helvetica" font-size="11" lengthAdjust="spacing" textLength="332" x="144.5" y="388.4468">Client may bump lift (-reward); This is a service to Vendor's interests</text><polygon fill="#EE82EE" points="138.5,413.9766,128.5,417.9766,138.5,421.9766,134.5,417.9766" style="stroke:#EE82EE;stroke-width:1.0;"/><line style="stroke:#EE82EE;stroke-width:1.0;" x1="132.5" x2="884.5" y1="417.9766" y2="417.9766"/><text fill="#333333" font-family="Helvetica" font-size="11" lengthAdjust="spacing" textLength="490" x="144.5" y="413.4468">Vendor may charge or bump lift (+/- clutch); +clutch allows Vendor to retain holdings by restricting lifts</text><path d="M105,430.9766 L105,451.9766 L908,451.9766 L908,440.9766 L898,430.9766 L105,430.9766 " fill="#E8E8EA" style="stroke:#202024;stroke-width:0.5;"/><path d="M898,430.9766 L898,440.9766 L908,440.9766 L898,430.9766 " fill="#E8E8EA" style="stroke:#202024;stroke-width:0.5;"/><text fill="#000033" font-family="Helvetica" font-size="11" lengthAdjust="spacing" textLength="165" x="419.5" y="444.4468">Drops (Increases to tally balance)</text><polygon fill="#000000" points="616.5,469.9766,626.5,473.9766,616.5,477.9766,620.5,473.9766" style="stroke:#000000;stroke-width:1.0;"/><line style="stroke:#000000;stroke-width:1.0;" x1="373.5" x2="622.5" y1="473.9766" y2="473.9766"/><text fill="#333333" font-family="Helvetica" font-size="11" lengthAdjust="spacing" textLength="60" x="380.5" y="469.4468">Typical drop</text><polygon fill="#000000" points="677.5,494.9766,687.5,498.9766,677.5,502.9766,681.5,498.9766" style="stroke:#000000;stroke-width:1.0;"/><line style="stroke:#000000;stroke-width:1.0;" x1="127.5" x2="683.5" y1="498.9766" y2="498.9766"/><text fill="#333333" font-family="Helvetica" font-size="11" lengthAdjust="spacing" textLength="373" x="134.5" y="494.4468">Drop in this range must be honored by Vendor at no charge (= honoring IOU)</text><polygon fill="#FF0000" points="873.5,519.9766,883.5,523.9766,873.5,527.9766,877.5,523.9766" style="stroke:#FF0000;stroke-width:1.0;"/><line style="stroke:#FF0000;stroke-width:1.0;" x1="689.5" x2="879.5" y1="523.9766" y2="523.9766"/><text fill="#333333" font-family="Helvetica" font-size="11" lengthAdjust="spacing" textLength="172" x="696.5" y="519.4468">Vendor may charge drop (+reward)</text><polygon fill="#008000" points="873.5,544.9766,883.5,548.9766,873.5,552.9766,877.5,548.9766" style="stroke:#008000;stroke-width:1.0;"/><line style="stroke:#008000;stroke-width:1.0;" x1="127.5" x2="879.5" y1="548.9766" y2="548.9766"/><text fill="#333333" font-family="Helvetica" font-size="11" lengthAdjust="spacing" textLength="344" x="134.5" y="544.4468">Vendor may bump drop (-reward); This is a service to Client's interests</text><polygon fill="#EE82EE" points="873.5,569.9766,883.5,573.9766,873.5,577.9766,877.5,573.9766" style="stroke:#EE82EE;stroke-width:1.0;"/><line style="stroke:#EE82EE;stroke-width:1.0;" x1="127.5" x2="879.5" y1="573.9766" y2="573.9766"/><text fill="#333333" font-family="Helvetica" font-size="11" lengthAdjust="spacing" textLength="498" x="134.5" y="569.4468">Client may charge or bump drop (+/- clutch); +clutch allows Client to retain holdings by restricting drops</text><!--SRC=[XLJHRjem57tFLzor3wEY6U-ivM6j9bMgkabZU-ZQ1yUv0MkE7TbE8FtwNMC74g0f0iN4znoVUyvDFWd5PPqZS5sMMdsfwb8c2IedN0iNZw9mB-gRhbL-0Sm2p_mogPXnWekAAGTiNxnaKhOlwb6KmeLgwPU3wko8UidC2cErswq7vNpmxncDzfLlT1riRFUizqPN0zRc36lxlkJcLFBR4Vd1ZIQuaIZj47I39lepXmnkReFC6VHsT-HpaETtWr82UmvVuixMDLsTtzcN1Ic3kdXQLoQ7kr5fjvkTjd4D72wBWjDd3YayuOevqI3iJ8ECIQOulgWxASWWq1lC8MkXGPLh0nCURj-aQRnrrPNElciXeMH2EVfPS6kq20qpWcKIxK3czZe8XKileoZcC8MVsefn8VPOHPek3Yh-x1QpNqxpVoCoJlteF7lIfcGIxjR2mT8mPHbtGYk2X8IfwSNU_bXCPIk4WZILJDLqWtkqwwCvz62ncOgrvUugCOzuYwOHd7haJC5AGrs1qwHUM0Z3k_KytQo5Pi5WGT9dt60kzcoHO8X-lst_n5gOt2EnC4i2FB0VmHKPGBt3TWxBjXASkfI4IU9a-wq-5mWL3WxUbBMbzmF2MYjjmYn54pR2hMaco3BF0vFRK2FK2Xv-_BvAU7nY_buIxZKzF4aHNxAsmtezC9aQt32Jzv4hWwXU3m9xqAmkgmXC8_0hBBrm-h8k3-z6CFipRIY71gsplHCQeIMwtX4ncfuw-jSxR3gZLcJj-9hEcuOLaDzwOpiidMdGZoyv8dCon7hR_Cb6q5IHGPvgR9RzEur2VL2ZeT90zKBD2TCrvaUsizjpVHngbCxSMAIH4zAGwMB4DA_cDDAqY_GiTETo07uGQPY3Sv6c-qWNvwRcADAeSYJIYFquKazba_y0]--></g></svg>