<?xml version="1.0" encoding="UTF-8" standalone="no"?><svg xmlns="http://www.w3.org/2000/svg" xmlns:xlink="http://www.w3.org/1999/xlink" contentStyleType="text/css" height="423px" preserveAspectRatio="none" style="width:610px;height:423px;background:#FFFFFF;" version="1.1" viewBox="0 0 610 423" width="610px" zoomAndPan="magnify"><defs/><g><text fill="#000000" font-family="sans-serif" font-size="14" font-weight="bold" lengthAdjust="spacing" textLength="103" x="246.5" y="23.5352">Lift Use Cases</text><!--entity originator--><g id="elem_originator"><polygon fill="#F1F1F1" points="16,245.9883,26,235.9883,127,235.9883,127,272.4766,117,282.4766,16,282.4766,16,245.9883" style="stroke:#181818;stroke-width:0.5;"/><line style="stroke:#181818;stroke-width:0.5;" x1="117" x2="127" y1="245.9883" y2="235.9883"/><line style="stroke:#181818;stroke-width:0.5;" x1="16" x2="117" y1="245.9883" y2="245.9883"/><line style="stroke:#181818;stroke-width:0.5;" x1="117" x2="117" y1="245.9883" y2="282.4766"/><text fill="#000000" font-family="sans-serif" font-size="14" lengthAdjust="spacing" textLength="71" x="31" y="269.5234">Originator</text></g><!--entity referee--><g id="elem_referee"><polygon fill="#F1F1F1" points="25.5,86.9883,35.5,76.9883,117.5,76.9883,117.5,113.4766,107.5,123.4766,25.5,123.4766,25.5,86.9883" style="stroke:#181818;stroke-width:0.5;"/><line style="stroke:#181818;stroke-width:0.5;" x1="107.5" x2="117.5" y1="86.9883" y2="76.9883"/><line style="stroke:#181818;stroke-width:0.5;" x1="25.5" x2="107.5" y1="86.9883" y2="86.9883"/><line style="stroke:#181818;stroke-width:0.5;" x1="107.5" x2="107.5" y1="86.9883" y2="123.4766"/><text fill="#000000" font-family="sans-serif" font-size="14" lengthAdjust="spacing" textLength="52" x="40.5" y="110.5234">Referee</text></g><!--entity relayNodes--><g id="elem_relayNodes"><polygon fill="#F1F1F1" points="470,204.9883,480,194.9883,593,194.9883,593,231.4766,583,241.4766,470,241.4766,470,204.9883" style="stroke:#181818;stroke-width:0.5;"/><line style="stroke:#181818;stroke-width:0.5;" x1="583" x2="593" y1="204.9883" y2="194.9883"/><line style="stroke:#181818;stroke-width:0.5;" x1="470" x2="583" y1="204.9883" y2="204.9883"/><line style="stroke:#181818;stroke-width:0.5;" x1="583" x2="583" y1="204.9883" y2="241.4766"/><text fill="#000000" font-family="sans-serif" font-size="14" lengthAdjust="spacing" textLength="83" x="485" y="228.5234">Relay Nodes</text></g><!--entity destNode--><g id="elem_destNode"><polygon fill="#F1F1F1" points="472.5,285.9883,482.5,275.9883,590.5,275.9883,590.5,312.4766,580.5,322.4766,472.5,322.4766,472.5,285.9883" style="stroke:#181818;stroke-width:0.5;"/><line style="stroke:#181818;stroke-width:0.5;" x1="580.5" x2="590.5" y1="285.9883" y2="275.9883"/><line style="stroke:#181818;stroke-width:0.5;" x1="472.5" x2="580.5" y1="285.9883" y2="285.9883"/><line style="stroke:#181818;stroke-width:0.5;" x1="580.5" x2="580.5" y1="285.9883" y2="322.4766"/><text fill="#000000" font-family="sans-serif" font-size="14" lengthAdjust="spacing" textLength="78" x="487.5" y="309.5234">Destination</text></g><g id="elem_proposed"><ellipse cx="298.477" cy="218.1837" fill="#E8E8EA" rx="111.477" ry="24.6954" style="stroke:#202024;stroke-width:0.5;"/><text fill="#000033" font-family="Helvetica" font-size="11" lengthAdjust="spacing" textLength="12" x="292.477" y="213.6539">#1</text><text fill="#000033" font-family="Helvetica" font-size="11" lengthAdjust="spacing" textLength="175" x="210.977" y="224.6539">Propose a lift using a named referee</text></g><g id="elem_confirm"><ellipse cx="298.5054" cy="377.0894" fill="#E8E8EA" rx="96.0054" ry="21.6011" style="stroke:#202024;stroke-width:0.5;"/><text fill="#000033" font-family="Helvetica" font-size="11" lengthAdjust="spacing" textLength="12" x="292.5054" y="372.5596">#2</text><text fill="#000033" font-family="Helvetica" font-size="11" lengthAdjust="spacing" textLength="138" x="229.5054" y="383.5596">Confirm lift circuit completion</text></g><g id="elem_ratify"><ellipse cx="298.7009" cy="136.9285" fill="#E8E8EA" rx="95.2009" ry="21.4402" style="stroke:#202024;stroke-width:0.5;"/><text fill="#000033" font-family="Helvetica" font-size="11" lengthAdjust="spacing" textLength="12" x="292.7009" y="132.3987">#3</text><text fill="#000033" font-family="Helvetica" font-size="11" lengthAdjust="spacing" textLength="136" x="230.7009" y="143.3987">Ask the referee to ratify a lift</text></g><g id="elem_commit"><ellipse cx="298.6026" cy="299.0088" fill="#E8E8EA" rx="95.6026" ry="21.5205" style="stroke:#202024;stroke-width:0.5;"/><text fill="#000033" font-family="Helvetica" font-size="11" lengthAdjust="spacing" textLength="12" x="292.6026" y="294.479">#4</text><text fill="#000033" font-family="Helvetica" font-size="11" lengthAdjust="spacing" textLength="137" x="230.1026" y="305.479">Transmit commit information</text></g><g id="elem_query"><ellipse cx="298.5036" cy="62.0446" fill="#E8E8EA" rx="73.0036" ry="18.5563" style="stroke:#202024;stroke-width:0.5;"/><text fill="#000033" font-family="Helvetica" font-size="11" lengthAdjust="spacing" textLength="12" x="292.5036" y="57.5148">#5</text><text fill="#000033" font-family="Helvetica" font-size="11" lengthAdjust="spacing" textLength="87" x="255.0036" y="68.5148">Query the referee</text></g><!--link originator to proposed--><g id="link_originator_proposed"><path d="M127.25,249.0083 C152.62,244.3883 183.36,238.7883 211.7,233.6283 " fill="none" id="originator-proposed" style="stroke:#000000;stroke-width:1.0;"/></g><!--link proposed to relayNodes--><g id="link_proposed_relayNodes"><path d="M410.26,217.9883 C430.76,217.9883 451.45,217.9883 469.76,217.9883 " fill="none" id="proposed-relayNodes" style="stroke:#000000;stroke-width:1.0;"/></g><!--link proposed to destNode--><g id="link_proposed_destNode"><path d="M359.29,238.9483 C394.05,251.1383 437.65,266.4283 472.16,278.5283 " fill="none" id="proposed-destNode" style="stroke:#000000;stroke-width:1.0;"/></g><!--link originator to confirm--><g id="link_originator_confirm"><path d="M101.75,282.4083 C124.11,299.4883 156.23,322.2983 187,337.9883 C203.4,346.3483 222.02,353.6783 239.23,359.6483 " fill="none" id="originator-confirm" style="stroke:#000000;stroke-width:1.0;"/></g><!--link confirm to destNode--><g id="link_confirm_destNode"><path d="M353.08,358.8983 C388.8,346.8383 435.73,330.9883 472.36,318.6183 " fill="none" id="confirm-destNode" style="stroke:#000000;stroke-width:1.0;"/></g><!--link originator to ratify--><g id="link_originator_ratify"><path d="M99.72,235.7783 C122.03,217.6383 155.04,192.7583 187,175.9883 C203.3,167.4283 221.89,160.0483 239.11,154.0883 " fill="none" id="originator-ratify" style="stroke:#000000;stroke-width:1.0;"/></g><!--link referee to ratify--><g id="link_referee_ratify"><path d="M117.76,107.4283 C147.28,112.2883 186.55,118.7383 220.85,124.3883 " fill="none" id="referee-ratify" style="stroke:#000000;stroke-width:1.0;"/></g><!--link originator to commit--><g id="link_originator_commit"><path d="M127.25,268.7183 C155.87,273.8083 191.33,280.1083 222.46,285.6483 " fill="none" id="originator-commit" style="stroke:#000000;stroke-width:1.0;"/></g><!--link commit to relayNodes--><g id="link_commit_relayNodes"><path d="M351.63,280.7083 C386.63,268.4383 432.87,252.2283 469.56,239.3583 " fill="none" id="commit-relayNodes" style="stroke:#000000;stroke-width:1.0;"/></g><!--link commit to destNode--><g id="link_commit_destNode"><path d="M394.46,298.9883 C420.84,298.9883 448.7,298.9883 472.29,298.9883 " fill="none" id="commit-destNode" style="stroke:#000000;stroke-width:1.0;"/></g><!--link referee to query--><g id="link_referee_query"><path d="M117.76,92.3483 C152.02,86.5583 199.43,78.5483 236.96,72.2183 " fill="none" id="referee-query" style="stroke:#000000;stroke-width:1.0;"/></g><!--link query to relayNodes--><g id="link_query_relayNodes"><path d="M354.26,74.3183 C372.78,79.8983 393.05,87.6183 410,97.9883 C452.56,124.0283 491.44,167.9883 512.95,194.8583 " fill="none" id="query-relayNodes" style="stroke:#000000;stroke-width:1.0;"/></g><!--link query to destNode--><g id="link_query_destNode"><path d="M361.52,71.7383 C378.96,77.0583 396.75,85.2783 410,97.9883 C465.11,150.8483 422.48,199.2083 470,258.9883 C474.94,265.1983 481.11,270.7783 487.61,275.6483 " fill="none" id="query-destNode" style="stroke:#000000;stroke-width:1.0;"/></g><text fill="#888888" font-family="sans-serif" font-size="10" lengthAdjust="spacing" textLength="142" x="227" y="413.3584">Fri Feb 10 23:38:48 MST 2023</text><!--SRC=[VL2xJWCn4Apjhp210eeWyVe054h4Iz1TO_ds4WjxVTY-8d_F-f4xGn2LTsTcPtPzeb6PgGUXdBKEByV96duMTJHm_gY7A3u2Y8qC42wu0UgZ4rvlTr7qseEAsY7dwCXWzKouHXcTNmaPX9lRoh_101uWaxxKCsFaNZnH7IfBVMwhu052J5wKbWN4nCHpFWLGj9rOdLvr-EBTwAYHmgJLfw1nImrA2_qXCi-FHTWtuzSTRXmEsjiohBHNauxfNqO3Sx8gccRmfiFxy2dY3WuH-OzesM5VDob7PQGPlEtmtKiCjgIaH-FWl9LDMeARcRiENoVm-pOkAxyIoldowMozPlEPZCqruUt__cAMZ_tfT3YRvBLa_ydhhNL1ra17lld0R9igThnUGonnhNCvdPIv-CDXmMU3Rm00]--></g></svg>