<?xml version="1.0" encoding="UTF-8" standalone="no"?><svg xmlns="http://www.w3.org/2000/svg" xmlns:xlink="http://www.w3.org/1999/xlink" contentStyleType="text/css" height="338px" preserveAspectRatio="none" style="width:624px;height:338px;background:#FFFFFF;" version="1.1" viewBox="0 0 624 338" width="624px" zoomAndPan="magnify"><defs/><g><text fill="#000000" font-family="sans-serif" font-size="14" font-weight="bold" lengthAdjust="spacing" textLength="195" x="207.5" y="23.5352">Route Discovery Use Cases</text><!--entity user--><g id="elem_user"><ellipse cx="74" cy="93.9883" fill="#44AAFF" rx="8" ry="8" style="stroke:#2277DD;stroke-width:0.5;"/><path d="M74,101.9883 L74,128.9883 M61,109.9883 L87,109.9883 M74,128.9883 L61,143.9883 M74,128.9883 L87,143.9883 " fill="none" style="stroke:#2277DD;stroke-width:0.5;"/><text fill="#000033" font-family="Helvetica" font-size="11" lengthAdjust="spacing" textLength="24" x="62" y="153.9585">User</text></g><!--entity userAgent--><g id="elem_userAgent"><polygon fill="#F1F1F1" points="16,201.9883,26,191.9883,132,191.9883,132,228.4766,122,238.4766,16,238.4766,16,201.9883" style="stroke:#181818;stroke-width:0.5;"/><line style="stroke:#181818;stroke-width:0.5;" x1="122" x2="132" y1="201.9883" y2="191.9883"/><line style="stroke:#181818;stroke-width:0.5;" x1="16" x2="122" y1="201.9883" y2="201.9883"/><line style="stroke:#181818;stroke-width:0.5;" x1="122" x2="122" y1="201.9883" y2="238.4766"/><text fill="#000000" font-family="sans-serif" font-size="14" lengthAdjust="spacing" textLength="76" x="31" y="225.5234">User Agent</text></g><!--entity forPeer--><g id="elem_forPeer"><polygon fill="#F1F1F1" points="449.5,53.4883,459.5,43.4883,576.5,43.4883,576.5,96.4648,566.5,106.4648,449.5,106.4648,449.5,53.4883" style="stroke:#181818;stroke-width:0.5;"/><line style="stroke:#181818;stroke-width:0.5;" x1="566.5" x2="576.5" y1="53.4883" y2="43.4883"/><line style="stroke:#181818;stroke-width:0.5;" x1="449.5" x2="566.5" y1="53.4883" y2="53.4883"/><line style="stroke:#181818;stroke-width:0.5;" x1="566.5" x2="566.5" y1="53.4883" y2="106.4648"/><text fill="#000000" font-family="sans-serif" font-size="14" lengthAdjust="spacing" textLength="87" x="464.5" y="77.0234">Foreign Peer</text><text fill="#000000" font-family="sans-serif" font-size="14" lengthAdjust="spacing" textLength="41" x="464.5" y="93.5117">Agent</text></g><!--entity upPart--><g id="elem_upPart"><polygon fill="#F1F1F1" points="429,151.4883,439,141.4883,597,141.4883,597,194.4648,587,204.4648,429,204.4648,429,151.4883" style="stroke:#181818;stroke-width:0.5;"/><line style="stroke:#181818;stroke-width:0.5;" x1="587" x2="597" y1="151.4883" y2="141.4883"/><line style="stroke:#181818;stroke-width:0.5;" x1="429" x2="587" y1="151.4883" y2="151.4883"/><line style="stroke:#181818;stroke-width:0.5;" x1="587" x2="587" y1="151.4883" y2="204.4648"/><text fill="#000000" font-family="sans-serif" font-size="14" lengthAdjust="spacing" textLength="128" x="444" y="175.0234">Up-stream Partner</text><text fill="#000000" font-family="sans-serif" font-size="14" lengthAdjust="spacing" textLength="41" x="444" y="191.5117">Agent</text></g><!--entity downPart--><g id="elem_downPart"><polygon fill="#F1F1F1" points="419,249.4883,429,239.4883,607,239.4883,607,292.4648,597,302.4648,419,302.4648,419,249.4883" style="stroke:#181818;stroke-width:0.5;"/><line style="stroke:#181818;stroke-width:0.5;" x1="597" x2="607" y1="249.4883" y2="239.4883"/><line style="stroke:#181818;stroke-width:0.5;" x1="419" x2="597" y1="249.4883" y2="249.4883"/><line style="stroke:#181818;stroke-width:0.5;" x1="597" x2="597" y1="249.4883" y2="302.4648"/><text fill="#000000" font-family="sans-serif" font-size="14" lengthAdjust="spacing" textLength="148" x="434" y="273.0234">Down-stream Partner</text><text fill="#000000" font-family="sans-serif" font-size="14" lengthAdjust="spacing" textLength="41" x="434" y="289.5117">Agent</text></g><g id="elem_findLinear"><ellipse cx="275.6598" cy="132.1202" fill="#E8E8EA" rx="83.6598" ry="19.132" style="stroke:#202024;stroke-width:0.5;"/><text fill="#000033" font-family="Helvetica" font-size="11" lengthAdjust="spacing" textLength="106" x="222.6598" y="127.5905">I Need a Linear Route</text><text fill="#000033" font-family="Helvetica" font-size="11" lengthAdjust="spacing" textLength="84" x="233.6598" y="138.5905">to a Foreign Peer</text></g><g id="elem_findCircuit"><ellipse cx="275.2965" cy="215.0446" fill="#E8E8EA" rx="72.2965" ry="18.5563" style="stroke:#202024;stroke-width:0.5;"/><text fill="#000033" font-family="Helvetica" font-size="11" lengthAdjust="spacing" textLength="86" x="232.2965" y="210.5148">My User Needs a</text><text fill="#000033" font-family="Helvetica" font-size="11" lengthAdjust="spacing" textLength="63" x="243.7965" y="221.5148">Circuit Route</text></g><!--link user to findLinear--><g id="link_user_findLinear"><path d="M87.78,121.6883 C109.11,122.8683 153.58,125.3183 193.78,127.5383 " fill="none" id="user-findLinear" style="stroke:#000000;stroke-width:1.0;"/></g><!--link userAgent to findLinear--><g id="link_userAgent_findLinear"><path d="M131.37,191.5383 C164.09,177.9183 204.55,161.0883 234.1,148.7983 " fill="none" id="userAgent-findLinear" style="stroke:#000000;stroke-width:1.0;"/></g><!--link findLinear to upPart--><g id="link_findLinear_upPart"><path d="M343.04,143.5683 C369.7,148.2183 400.71,153.6083 428.83,158.5083 " fill="none" id="findLinear-upPart" style="stroke:#000000;stroke-width:1.0;"/></g><!--link findLinear to forPeer--><g id="link_findLinear_forPeer"><path d="M334.11,118.0483 C368.97,109.6083 413.44,98.8383 449.2,90.1883 " fill="none" id="findLinear-forPeer" style="stroke:#000000;stroke-width:1.0;"/></g><!--link userAgent to findCircuit--><g id="link_userAgent_findCircuit"><path d="M132.44,214.9883 C154.31,214.9883 179.51,214.9883 202.56,214.9883 " fill="none" id="userAgent-findCircuit" style="stroke:#000000;stroke-width:1.0;"/></g><!--link findCircuit to upPart--><g id="link_findCircuit_upPart"><path d="M335.93,204.3883 C364,199.3883 397.98,193.3183 428.58,187.8683 " fill="none" id="findCircuit-upPart" style="stroke:#000000;stroke-width:1.0;"/></g><!--link findCircuit to downPart--><g id="link_findCircuit_downPart"><path d="M329.64,227.6283 C355.96,233.8883 388.52,241.6283 418.8,248.8283 " fill="none" id="findCircuit-downPart" style="stroke:#000000;stroke-width:1.0;"/></g><text fill="#888888" font-family="sans-serif" font-size="10" lengthAdjust="spacing" textLength="142" x="234" y="328.1328">Fri Feb 10 23:38:41 MST 2023</text><!--SRC=[VL3BJiCm43p7Nx6DEC0X_0DgXOG4g4BYbelbR8EbP3TQhuluUrpdqPH8tBmpuzcTsNboNMmG7FSzq-CG-yxSgTSExpyuAiB11yTdb1_u30Xx6p0yc0vF2ieWllrIQBoWKyzaZ7NA0cMIIWasG4mFGvmMP0oUMYHTc3nDz3CB-fRWY2WrNNKdbWiqcmnLK47Rmz6Aqgqq3XTmKXxuc_xHDedEQfCESIaLb2_mZjY0XLTFQ0Lo_ffIJ0lhwyQpF3MZxchmbZkIR1F0rhJtugBNqMdvDg5vinH5LHMtPcCjV_2YM4s9cyDkyBclhTEyT_eoZLkl5R6qz0i0]--></g></svg>