<?xml version="1.0" encoding="UTF-8" standalone="no"?><svg xmlns="http://www.w3.org/2000/svg" xmlns:xlink="http://www.w3.org/1999/xlink" contentStyleType="text/css" height="565px" preserveAspectRatio="none" style="width:427px;height:565px;background:#FFFFFF;" version="1.1" viewBox="0 0 427 565" width="427px" zoomAndPan="magnify"><defs/><g><text fill="#000000" font-family="sans-serif" font-size="14" font-weight="bold" lengthAdjust="spacing" textLength="293" x="60" y="23.5352">Payments/Chits On an Established Tally</text><!--entity user--><g id="elem_user"><ellipse cx="32.5" cy="274.4883" fill="#44AAFF" rx="8" ry="8" style="stroke:#2277DD;stroke-width:0.5;"/><path d="M32.5,282.4883 L32.5,309.4883 M19.5,290.4883 L45.5,290.4883 M32.5,309.4883 L19.5,324.4883 M32.5,309.4883 L45.5,324.4883 " fill="none" style="stroke:#2277DD;stroke-width:0.5;"/><text fill="#000033" font-family="Helvetica" font-size="11" lengthAdjust="spacing" textLength="53" x="6" y="334.4585">Local User</text></g><!--entity partner--><g id="elem_partner"><ellipse cx="382" cy="280.4883" fill="#44AAFF" rx="8" ry="8" style="stroke:#2277DD;stroke-width:0.5;"/><path d="M382,288.4883 L382,315.4883 M369,296.4883 L395,296.4883 M382,315.4883 L369,330.4883 M382,315.4883 L395,330.4883 " fill="none" style="stroke:#2277DD;stroke-width:0.5;"/><text fill="#000033" font-family="Helvetica" font-size="11" lengthAdjust="spacing" textLength="68" x="348" y="340.4585">Direct Partner</text></g><!--entity peer--><g id="elem_peer"><ellipse cx="382" cy="396.4883" fill="#44AAFF" rx="8" ry="8" style="stroke:#2277DD;stroke-width:0.5;"/><path d="M382,404.4883 L382,431.4883 M369,412.4883 L395,412.4883 M382,431.4883 L369,446.4883 M382,431.4883 L395,446.4883 " fill="none" style="stroke:#2277DD;stroke-width:0.5;"/><text fill="#000033" font-family="Helvetica" font-size="11" lengthAdjust="spacing" textLength="76" x="344" y="456.4585">Indirect Peer(s)</text></g><g id="elem_sendDirPmt"><ellipse cx="201.5692" cy="62.4021" fill="#E8E8EA" rx="82.5692" ry="18.9138" style="stroke:#202024;stroke-width:0.5;"/><text fill="#000033" font-family="Helvetica" font-size="11" lengthAdjust="spacing" textLength="103" x="150.0692" y="57.8723">Send Direct Payment</text><text fill="#000033" font-family="Helvetica" font-size="11" lengthAdjust="spacing" textLength="76" x="163.5692" y="68.8723">or Issue Setting</text></g><g id="elem_reqDirPay"><ellipse cx="201.5387" cy="133.696" fill="#E8E8EA" rx="74.0387" ry="17.2077" style="stroke:#202024;stroke-width:0.5;"/><text fill="#000033" font-family="Helvetica" font-size="11" lengthAdjust="spacing" textLength="119" x="142.0387" y="134.6662">Request Direct Payment</text></g><g id="elem_reqDirInv"><ellipse cx="201.3684" cy="202.462" fill="#E8E8EA" rx="70.3684" ry="16.4737" style="stroke:#202024;stroke-width:0.5;"/><text fill="#000033" font-family="Helvetica" font-size="11" lengthAdjust="spacing" textLength="111" x="145.8684" y="203.4322">Request Direct Invoice</text></g><g id="elem_payDir"><ellipse cx="201.5022" cy="268.4887" fill="#E8E8EA" rx="60.5022" ry="14.5004" style="stroke:#202024;stroke-width:0.5;"/><text fill="#000033" font-family="Helvetica" font-size="11" lengthAdjust="spacing" textLength="89" x="157.0022" y="269.4589">Pay Direct Invoice</text></g><g id="elem_sendPmt"><ellipse cx="201.5636" cy="459.401" fill="#E8E8EA" rx="60.0636" ry="14.4127" style="stroke:#202024;stroke-width:0.5;"/><text fill="#000033" font-family="Helvetica" font-size="11" lengthAdjust="spacing" textLength="88" x="157.5636" y="460.3712">Send Lift Payment</text></g><g id="elem_reqPmt"><ellipse cx="201.6892" cy="525.3261" fill="#E8E8EA" rx="67.1892" ry="15.8378" style="stroke:#202024;stroke-width:0.5;"/><text fill="#000033" font-family="Helvetica" font-size="11" lengthAdjust="spacing" textLength="104" x="149.6892" y="526.2963">Request Lift Payment</text></g><g id="elem_reqInv"><ellipse cx="201.5991" cy="333.6081" fill="#E8E8EA" rx="63.5991" ry="15.1198" style="stroke:#202024;stroke-width:0.5;"/><text fill="#000033" font-family="Helvetica" font-size="11" lengthAdjust="spacing" textLength="96" x="153.5991" y="334.5783">Request Lift Invoice</text></g><g id="elem_payInv"><ellipse cx="201.5416" cy="396.6966" fill="#E8E8EA" rx="54.0416" ry="13.2083" style="stroke:#202024;stroke-width:0.5;"/><text fill="#000033" font-family="Helvetica" font-size="11" lengthAdjust="spacing" textLength="74" x="164.5416" y="397.6668">Pay Lift Invoice</text></g><!--link user to sendDirPmt--><g id="link_user_sendDirPmt"><path d="M40.1,265.7983 C50.01,221.3483 72.76,145.5383 119,98.4883 C127.67,89.6583 138.89,82.8383 150.2,77.6283 " fill="none" id="user-sendDirPmt" style="stroke:#000000;stroke-width:1.0;"/></g><!--link sendDirPmt to partner--><g id="link_sendDirPmt_partner"><path d="M252.58,77.8483 C263.9,83.0583 275.17,89.8183 284,98.4883 C333.53,147.1083 360.48,225.8183 372.7,271.5083 " fill="none" id="sendDirPmt-partner" style="stroke:#000000;stroke-width:1.0;"/></g><!--link user to reqDirPay--><g id="link_user_reqDirPay"><path d="M49.17,265.6483 C63.62,236.1783 87.58,195.0983 119,168.4883 C129.69,159.4383 143.08,152.3983 155.9,147.0783 " fill="none" id="user-reqDirPay" style="stroke:#000000;stroke-width:1.0;"/></g><!--link reqDirPay to partner--><g id="link_reqDirPay_partner"><path d="M246.89,147.3383 C259.7,152.6583 273.14,159.6383 284,168.4883 C318.79,196.8283 346.56,240.7283 363.32,271.5983 " fill="none" id="reqDirPay-partner" style="stroke:#000000;stroke-width:1.0;"/></g><!--link user to reqDirInv--><g id="link_user_reqDirInv"><path d="M59.24,279.1583 C75.61,265.6683 97.67,248.7783 119,236.4883 C132.28,228.8383 147.63,221.9783 161.39,216.4483 " fill="none" id="user-reqDirInv" style="stroke:#000000;stroke-width:1.0;"/></g><!--link reqDirInv to partner--><g id="link_reqDirInv_partner"><path d="M241.12,216.4183 C254.98,221.9883 270.51,228.8783 284,236.4883 C306.36,249.0983 329.62,265.9783 347.76,280.1183 " fill="none" id="reqDirInv-partner" style="stroke:#000000;stroke-width:1.0;"/></g><!--link user to payDir--><g id="link_user_payDir"><path d="M59.23,296.4083 C84.39,291.4283 123.28,283.7483 153.89,277.6983 " fill="none" id="user-payDir" style="stroke:#000000;stroke-width:1.0;"/></g><!--link payDir to partner--><g id="link_payDir_partner"><path d="M247.08,278.2283 C278.27,285.0383 319.26,293.9983 347.63,300.1983 " fill="none" id="payDir-partner" style="stroke:#000000;stroke-width:1.0;"/></g><!--link user to sendPmt--><g id="link_user_sendPmt"><path d="M50.29,337.3683 C64.96,365.2783 88.65,403.2283 119,427.4883 C130.75,436.8883 145.61,443.7983 159.4,448.7483 " fill="none" id="user-sendPmt" style="stroke:#000000;stroke-width:1.0;"/></g><!--link sendPmt to partner--><g id="link_sendPmt_partner"><path d="M242.33,448.4883 C256.32,443.4583 271.62,436.5683 284,427.4883 C315,404.7583 341.73,369.8083 359.23,343.4783 " fill="none" id="sendPmt-partner" style="stroke:#000000;stroke-width:1.0;"/></g><!--link sendPmt to peer--><g id="link_sendPmt_peer"><path d="M248.47,450.2183 C278.01,444.2583 315.9,436.6183 343.6,431.0283 " fill="none" id="sendPmt-peer" style="stroke:#000000;stroke-width:1.0;"/></g><!--link user to reqPmt--><g id="link_user_reqPmt"><path d="M41.14,337.2683 C51.82,379.3083 75.05,448.7383 119,491.4883 C129.11,501.3183 142.48,508.4783 155.46,513.6183 " fill="none" id="user-reqPmt" style="stroke:#000000;stroke-width:1.0;"/></g><!--link reqPmt to partner--><g id="link_reqPmt_partner"><path d="M247.32,513.3783 C260.29,508.2383 273.71,501.1283 284,491.4883 C327.8,450.4483 315.45,423.2883 344,370.4883 C348.83,361.5583 354.25,352.0583 359.43,343.2183 " fill="none" id="reqPmt-partner" style="stroke:#000000;stroke-width:1.0;"/></g><!--link reqPmt to peer--><g id="link_reqPmt_peer"><path d="M239.4,512.0583 C253.65,506.3683 269.9,499.2483 284,491.4883 C304.54,480.1783 326.02,465.4583 343.53,452.6083 " fill="none" id="reqPmt-peer" style="stroke:#000000;stroke-width:1.0;"/></g><!--link user to reqInv--><g id="link_user_reqInv"><path d="M59.23,306.4183 C83.66,311.0983 121.03,318.2583 151.19,324.0383 " fill="none" id="user-reqInv" style="stroke:#000000;stroke-width:1.0;"/></g><!--link reqInv to partner--><g id="link_reqInv_partner"><path d="M256.54,325.6183 C286.2,321.2983 322.03,316.0783 347.61,312.3483 " fill="none" id="reqInv-partner" style="stroke:#000000;stroke-width:1.0;"/></g><!--link reqInv to peer--><g id="link_reqInv_peer"><path d="M237.09,346.1983 C251.77,351.9283 268.94,359.0683 284,366.4883 C304.32,376.5083 326.14,389.1483 343.93,399.9783 " fill="none" id="reqInv-peer" style="stroke:#000000;stroke-width:1.0;"/></g><!--link user to payInv--><g id="link_user_payInv"><path d="M59.43,324.4483 C75.69,337.9983 97.58,354.7483 119,366.4883 C133.81,374.6083 151.26,381.3583 166.21,386.3983 " fill="none" id="user-payInv" style="stroke:#000000;stroke-width:1.0;"/></g><!--link payInv to partner--><g id="link_payInv_partner"><path d="M235.22,386.0683 C250.35,380.8383 268.38,374.0283 284,366.4883 C306.01,355.8683 329.46,341.6883 347.78,329.8983 " fill="none" id="payInv-partner" style="stroke:#000000;stroke-width:1.0;"/></g><!--link payInv to peer--><g id="link_payInv_peer"><path d="M248,403.3683 C277.65,407.8583 315.85,413.6383 343.7,417.8483 " fill="none" id="payInv-peer" style="stroke:#000000;stroke-width:1.0;"/></g><text fill="#888888" font-family="sans-serif" font-size="10" lengthAdjust="spacing" textLength="142" x="135.5" y="555.8319">Fri Feb 10 23:38:35 MST 2023</text><!--SRC=[TP7FRW8X4CRFy1HJqqGzs3v4suE9IOssjrueEogH1ONP9llsPV_WmhhUlXb-t_0nF2aZTLKWI5kMrhnSgbBpPrAaSR4LTOc6_ElRIP67JmF2m8SdyQkLFs41NqBhUiar7WZ8WbF74q6X74fIrd0k95a7iusLGiEtHpS3uQ4A8Xwzjp1iXIFJ7ryw7OcrANe6qItyicE2vZmCai8ZpFPe2hYDQaF_c61UUryXx958cMDhz84CuBQamRt3QuMUHWDQtE6reKNza5wRFwia9dJe37ImJf4NKOVkw04RTSXlRy9E9hqZmysFmL74ktntK4ZNG7E0922UuusminLXdn3FRTL-XcEh5Kisp9AYEOe_6z5XkspGZy4c4nlq5DZlbVLY2ebBPL6bKDx4F4BdwaHkIdeZpotpA73Mm_m5dQSJkIVfDPvvDF4vOoaPomRw1m00]--></g></svg>