<?xml version="1.0" encoding="UTF-8" standalone="no"?><svg xmlns="http://www.w3.org/2000/svg" xmlns:xlink="http://www.w3.org/1999/xlink" contentStyleType="text/css" height="338px" preserveAspectRatio="none" style="width:630px;height:338px;background:#FFFFFF;" version="1.1" viewBox="0 0 630 338" width="630px" zoomAndPan="magnify"><defs/><g><text fill="#000000" font-family="sans-serif" font-size="14" font-weight="bold" lengthAdjust="spacing" textLength="195" x="210.5" y="23.5352">Route Discovery Use Cases</text><!--entity user--><g id="elem_user"><ellipse cx="74" cy="93.9883" fill="#44AAFF" rx="8" ry="8" style="stroke:#2277DD;stroke-width:0.5;"/><path d="M74,101.9883 L74,128.9883 M61,109.9883 L87,109.9883 M74,128.9883 L61,143.9883 M74,128.9883 L87,143.9883 " fill="none" style="stroke:#2277DD;stroke-width:0.5;"/><text fill="#000033" font-family="Helvetica" font-size="11" lengthAdjust="spacing" textLength="24" x="62" y="153.9585">User</text></g><!--entity userAgent--><g id="elem_userAgent"><polygon fill="#F1F1F1" points="16,201.9883,26,191.9883,132,191.9883,132,228.4766,122,238.4766,16,238.4766,16,201.9883" style="stroke:#181818;stroke-width:0.5;"/><line style="stroke:#181818;stroke-width:0.5;" x1="122" x2="132" y1="201.9883" y2="191.9883"/><line style="stroke:#181818;stroke-width:0.5;" x1="16" x2="122" y1="201.9883" y2="201.9883"/><line style="stroke:#181818;stroke-width:0.5;" x1="122" x2="122" y1="201.9883" y2="238.4766"/><text fill="#000000" font-family="sans-serif" font-size="14" lengthAdjust="spacing" textLength="76" x="31" y="225.5234">User Agent</text></g><!--entity forPeer--><g id="elem_forPeer"><polygon fill="#F1F1F1" points="455.5,53.4883,465.5,43.4883,582.5,43.4883,582.5,96.4648,572.5,106.4648,455.5,106.4648,455.5,53.4883" style="stroke:#181818;stroke-width:0.5;"/><line style="stroke:#181818;stroke-width:0.5;" x1="572.5" x2="582.5" y1="53.4883" y2="43.4883"/><line style="stroke:#181818;stroke-width:0.5;" x1="455.5" x2="572.5" y1="53.4883" y2="53.4883"/><line style="stroke:#181818;stroke-width:0.5;" x1="572.5" x2="572.5" y1="53.4883" y2="106.4648"/><text fill="#000000" font-family="sans-serif" font-size="14" lengthAdjust="spacing" textLength="87" x="470.5" y="77.0234">Foreign Peer</text><text fill="#000000" font-family="sans-serif" font-size="14" lengthAdjust="spacing" textLength="41" x="470.5" y="93.5117">Agent</text></g><!--entity upPart--><g id="elem_upPart"><polygon fill="#F1F1F1" points="435,151.4883,445,141.4883,603,141.4883,603,194.4648,593,204.4648,435,204.4648,435,151.4883" style="stroke:#181818;stroke-width:0.5;"/><line style="stroke:#181818;stroke-width:0.5;" x1="593" x2="603" y1="151.4883" y2="141.4883"/><line style="stroke:#181818;stroke-width:0.5;" x1="435" x2="593" y1="151.4883" y2="151.4883"/><line style="stroke:#181818;stroke-width:0.5;" x1="593" x2="593" y1="151.4883" y2="204.4648"/><text fill="#000000" font-family="sans-serif" font-size="14" lengthAdjust="spacing" textLength="128" x="450" y="175.0234">Up-stream Partner</text><text fill="#000000" font-family="sans-serif" font-size="14" lengthAdjust="spacing" textLength="41" x="450" y="191.5117">Agent</text></g><!--entity downPart--><g id="elem_downPart"><polygon fill="#F1F1F1" points="425,249.4883,435,239.4883,613,239.4883,613,292.4648,603,302.4648,425,302.4648,425,249.4883" style="stroke:#181818;stroke-width:0.5;"/><line style="stroke:#181818;stroke-width:0.5;" x1="603" x2="613" y1="249.4883" y2="239.4883"/><line style="stroke:#181818;stroke-width:0.5;" x1="425" x2="603" y1="249.4883" y2="249.4883"/><line style="stroke:#181818;stroke-width:0.5;" x1="603" x2="603" y1="249.4883" y2="302.4648"/><text fill="#000000" font-family="sans-serif" font-size="14" lengthAdjust="spacing" textLength="148" x="440" y="273.0234">Down-stream Partner</text><text fill="#000000" font-family="sans-serif" font-size="14" lengthAdjust="spacing" textLength="41" x="440" y="289.5117">Agent</text></g><g id="elem_findLinear"><ellipse cx="278.6598" cy="131.1202" fill="#E8E8EA" rx="83.6598" ry="19.132" style="stroke:#202024;stroke-width:0.5;"/><text fill="#000033" font-family="Helvetica" font-size="11" lengthAdjust="spacing" textLength="106" x="225.6598" y="126.5905">I Need a Linear Route</text><text fill="#000033" font-family="Helvetica" font-size="11" lengthAdjust="spacing" textLength="91" x="233.1598" y="137.5905">to a Specified Peer</text></g><g id="elem_findCircuit"><ellipse cx="278.2541" cy="215.1391" fill="#E8E8EA" rx="86.2541" ry="19.6508" style="stroke:#202024;stroke-width:0.5;"/><text fill="#000033" font-family="Helvetica" font-size="11" lengthAdjust="spacing" textLength="86" x="235.2541" y="210.6093">My User Needs a</text><text fill="#000033" font-family="Helvetica" font-size="11" lengthAdjust="spacing" textLength="113" x="221.7541" y="221.6093">Circular Clearing Route</text></g><!--link user to findLinear--><g id="link_user_findLinear"><path d="M87.98,121.6283 C109.8,122.7083 155.5,124.9683 196.55,126.9883 " fill="none" id="user-findLinear" style="stroke:#000000;stroke-width:1.0;"/></g><!--link userAgent to findLinear--><g id="link_userAgent_findLinear"><path d="M131.41,191.5883 C164.88,177.7083 206.54,160.4283 236.8,147.8683 " fill="none" id="userAgent-findLinear" style="stroke:#000000;stroke-width:1.0;"/></g><!--link findLinear to upPart--><g id="link_findLinear_upPart"><path d="M345.62,142.6283 C373.19,147.4883 405.52,153.1783 434.69,158.3183 " fill="none" id="findLinear-upPart" style="stroke:#000000;stroke-width:1.0;"/></g><!--link findLinear to forPeer--><g id="link_findLinear_forPeer"><path d="M337.84,117.2883 C373.42,108.9383 418.89,98.2583 455.25,89.7183 " fill="none" id="findLinear-forPeer" style="stroke:#000000;stroke-width:1.0;"/></g><!--link userAgent to findCircuit--><g id="link_userAgent_findCircuit"><path d="M132.49,214.9883 C150.84,214.9883 171.58,214.9883 191.51,214.9883 " fill="none" id="userAgent-findCircuit" style="stroke:#000000;stroke-width:1.0;"/></g><!--link findCircuit to upPart--><g id="link_findCircuit_upPart"><path d="M347.84,202.9483 C374.96,198.1783 406.4,192.6383 434.82,187.6383 " fill="none" id="findCircuit-upPart" style="stroke:#000000;stroke-width:1.0;"/></g><!--link findCircuit to downPart--><g id="link_findCircuit_downPart"><path d="M339.68,229.1183 C365.49,235.1783 396.23,242.3983 424.86,249.1183 " fill="none" id="findCircuit-downPart" style="stroke:#000000;stroke-width:1.0;"/></g><text fill="#888888" font-family="sans-serif" font-size="10" lengthAdjust="spacing" textLength="146" x="235" y="328.1328">Tue Jan 23 13:25:30 MST 2024</text><!--SRC=[VP3DIiKm48NNpLECnOKkwZj8Bu9mbOlYhfkGJkj0EYcJHF7jJTEVUwy5TvbpJhxvkI4sDhO8nWs3uuSn3bRT1WeMxzvS30W7yiPzeVp0XqUejKT_hons0O83eVupG4k29f1ZfRG9Jg1CKIb1UuZfeTYb1bc3nnuvR4wk5ll92LBFS4AKXi-vpiaahP2nya5G3t3I4lWw6iT9N987zyt_PDjavxHAWvYq5PJFy8hOWeOZCMg1l7_3QKqDxoCQwYZPqp3pOCJjd3mZNlAL98Cyw8Ph4XDjWjKs1OdxcRe1ia_p558KLLLSO-SJ_T6Bug9AthhuJbzljoUjVPSlIxbdNHZRnNu1]--></g></svg>