<svg width="17" height="12" viewBox="0 0 17 12" fill="none" xmlns="http://www.w3.org/2000/svg">
<path d="M16.8178 5.05042C15.8807 3.60117 14.6649 2.37008 13.3021 1.48998C11.7944 0.515313 10.1298 0 8.48861 0C6.9827 0 5.50194 0.430313 4.08741 1.2789C2.6449 2.14412 1.33803 3.40815 0.202934 5.03554C0.0747921 5.21946 0.00421928 5.43733 0.000183327 5.66145C-0.00385262 5.88557 0.0588306 6.10583 0.180268 6.29425C1.11562 7.75802 2.31942 8.99087 3.66099 9.85894C5.1715 10.8375 6.79712 11.3333 8.48861 11.3333C10.1429 11.3333 11.811 10.8223 13.3123 9.85575C14.6744 8.97848 15.8878 7.74279 16.8214 6.2815C16.9386 6.09746 17.0006 5.88365 17 5.66544C16.9994 5.44723 16.9361 5.23377 16.8178 5.05042ZM8.50065 9.06667C7.8282 9.06667 7.17084 8.86726 6.61172 8.49366C6.0526 8.12007 5.61682 7.58906 5.35948 6.96779C5.10214 6.34652 5.03481 5.6629 5.166 5.00336C5.29719 4.34382 5.62101 3.738 6.0965 3.2625C6.572 2.78701 7.17781 2.46319 7.83734 2.332C8.49688 2.20081 9.1805 2.26814 9.80176 2.52548C10.423 2.78281 10.954 3.2186 11.3276 3.77773C11.7012 4.33685 11.9006 4.99421 11.9006 5.66667C11.8996 6.56809 11.5411 7.43229 10.9037 8.06969C10.2663 8.70709 9.40206 9.06564 8.50065 9.06667Z" fill="#636363"/>
<path d="M8.49997 7.93324C9.75182 7.93324 10.7666 6.91841 10.7666 5.66657C10.7666 4.41472 9.75182 3.3999 8.49997 3.3999C7.24813 3.3999 6.23331 4.41472 6.23331 5.66657C6.23331 6.91841 7.24813 7.93324 8.49997 7.93324Z" fill="#636363"/>
</svg>
