<svg width="18" height="18" viewBox="0 0 18 18" fill="none" xmlns="http://www.w3.org/2000/svg">
<path d="M9 0C4.03745 0 0 4.03745 0 9C0 13.9625 4.03745 18 9 18C13.9625 18 18 13.9625 18 9C18 4.03745 13.9625 0 9 0ZM13.6839 5.9837L7.86851 12.9068C7.80472 12.9828 7.72534 13.0441 7.63576 13.0868C7.54617 13.1294 7.44848 13.1523 7.34928 13.1538H7.3376C7.24056 13.1538 7.14461 13.1334 7.05598 13.0939C6.96735 13.0544 6.88802 12.9967 6.82313 12.9245L4.33082 10.1553C4.26752 10.0882 4.21828 10.009 4.186 9.92261C4.15371 9.83618 4.13903 9.74416 4.14282 9.65197C4.1466 9.55978 4.16877 9.46928 4.20803 9.38578C4.24729 9.30228 4.30285 9.22747 4.37144 9.16575C4.44002 9.10403 4.52025 9.05665 4.60741 9.02638C4.69457 8.99611 4.7869 8.98356 4.87898 8.98948C4.97106 8.99541 5.06102 9.01968 5.14359 9.06086C5.22615 9.10205 5.29965 9.15933 5.35976 9.22933L7.31942 11.4066L12.6238 5.09322C12.7428 4.95566 12.9111 4.87044 13.0924 4.856C13.2737 4.84155 13.4534 4.89903 13.5927 5.01601C13.732 5.133 13.8196 5.30009 13.8367 5.48116C13.8537 5.66224 13.7989 5.84276 13.6839 5.9837Z" fill="#23C320"/>
</svg>
