<svg width="54" height="53" viewBox="0 0 54 53" fill="none" xmlns="http://www.w3.org/2000/svg">
<g clip-path="url(#clip0_1401_3035)">
<path d="M42.0652 33.3325C44.9617 33.2293 46.0289 30.8393 46.0883 29.2267L46.1946 22.2714C46.2275 19.3622 43.9027 18.4255 42.2927 18.4481L38.3417 18.6006L35.3868 15.7052C33.2191 13.5812 30.7877 13.552 28.796 14.3065L18.5075 14.6733L13.8021 19.4755L12.1686 19.5221C9.2603 19.6374 8.20492 22.0154 8.14552 23.6279L8.03917 30.5832C8.02002 31.8352 8.44647 32.7237 9.07397 33.3385C9.884 34.1323 11.0373 34.4387 11.941 34.4065L18.2093 34.1714L22.3052 38.1848C24.2447 40.0852 26.4728 39.7741 28.0499 38.8721C29.692 39.7752 31.411 39.4358 32.6843 38.7068C34.9233 39.9594 37.3142 38.843 38.5258 37.6065L42.0549 34.0049L41.3818 33.3453L42.0652 33.3325ZM36.2441 35.3706C35.7147 35.9109 34.8509 36.3588 33.9268 35.4533L32.7859 34.3353L31.6096 35.5359C31.0802 36.0761 30.2165 36.524 29.2923 35.6185L28.1514 34.5006L26.9751 35.7011C26.4457 36.2413 25.582 36.6892 24.6578 35.7837L19.6265 30.8537L12.0259 31.1247C11.3311 31.1263 11.3257 30.721 11.3296 30.4659L11.4239 23.5458C11.4577 22.8494 11.8634 22.8234 12.1183 22.8143L15.1193 22.6957L19.8247 17.8936L24.4591 17.7284L22.5888 19.6372C21.1654 21.0899 19.9724 24.1331 22.4824 26.5926C24.9924 29.052 28.0108 27.7974 29.4341 26.3447L37.4204 34.1701L36.2441 35.3706ZM42.1155 30.0404L38.1644 30.1928L29.505 21.7078L27.1523 24.1089C26.623 24.6491 25.7592 25.097 24.8351 24.1915C23.911 23.286 24.3412 22.4133 24.8705 21.8731L28.3996 18.2715C28.9407 17.7192 30.9462 16.0605 33.0341 18.1062L36.9245 21.9183L42.2078 21.73C42.9026 21.7284 42.908 22.1337 42.9041 22.3887L42.8099 29.3089C42.7761 30.0052 42.3704 30.0313 42.1155 30.0404Z" fill="#344054"/>
</g>
<defs>
<clipPath id="clip0_1401_3035">
<rect width="36.4147" height="38.32" fill="white" transform="translate(27.5211) rotate(44.4171)"/>
</clipPath>
</defs>
</svg>
