<svg width="35" height="35" viewBox="0 0 35 35" fill="none" xmlns="http://www.w3.org/2000/svg">
  <path
    d="M31.2109 17.0242C31.2109 24.8553 24.8553 31.211 17.0241 31.211C9.19303 31.211 2.83734 24.8553 2.83734 17.0242C2.83734 9.19306 9.19303 2.83737 17.0241 2.83737"
    stroke="currentColor" stroke-width="2.12802" stroke-linecap="round" stroke-linejoin="round" />
  <path d="M24.1176 4.25604V9.93076H29.7923" stroke="currentColor" stroke-width="2.12802"
    stroke-linecap="round" stroke-linejoin="round" />
  <path d="M31.211 2.83737L24.1176 9.93077" stroke="currentColor" stroke-width="2.12802"
    stroke-linecap="round" stroke-linejoin="round" />
  <path
    d="M17.0332 17.1647C20.5463 15.7659 22.7107 13.7337 22.3989 12.3799C22.053 10.882 18.7225 10.4128 16.8743 10.4416C15.2737 10.466 12.0111 10.9056 11.6675 12.3799C11.3542 13.7256 13.5186 15.7385 17.0332 17.1647Z"
    stroke="currentColor" stroke-width="1.92132" stroke-miterlimit="10" />
  <path
    d="M17.0133 17.1906C13.4972 18.5887 11.3357 20.6238 11.6498 21.9754C11.9949 23.4726 15.3254 23.9418 17.1736 23.9137C18.7742 23.8894 22.0368 23.4497 22.3804 21.9754C22.6922 20.629 20.5278 18.6168 17.0133 17.1906Z"
    stroke="currentColor" stroke-width="1.92132" stroke-miterlimit="10" />
  <path d="M15.6846 8.26306H14.6848V26.0397H15.6846V8.26306Z" fill="currentColor" />
  <path d="M19.3662 8.26306H18.3663V26.0397H19.3662V8.26306Z" fill="currentColor" />
</svg>
  