<svg width="18" height="32" viewBox="0 0 18 32" fill="none" xmlns="http://www.w3.org/2000/svg">
  <path
    d="M9.01343 16.0242C14.2136 13.5061 17.4176 9.84796 16.956 7.41098C16.444 4.7146 11.514 3.86991 8.77825 3.92178C6.40895 3.96568 1.57955 4.75717 1.07091 7.41098C0.60711 9.83332 3.81103 13.4569 9.01343 16.0242Z"
    stroke="currentColor" stroke-width="2" stroke-miterlimit="10" />
  <path
    d="M8.98391 16.0703C3.77932 18.5871 0.579776 22.2506 1.04467 24.6835C1.5555 27.3786 6.48553 28.2233 9.22128 28.1727C11.5906 28.1288 16.42 27.3374 16.9286 24.6835C17.3902 22.2599 14.1863 18.6377 8.98391 16.0703Z"
    stroke="currentColor" stroke-width="2" stroke-miterlimit="10" />
  <path d="M7.01716 0H5.53717V32H7.01716V0Z" fill="currentColor" />
  <path d="M12.4668 0H10.9868V32H12.4668V0Z" fill="currentColor" />
</svg>
  