<svg width="13" height="10" viewBox="0 0 13 10" fill="none" xmlns="http://www.w3.org/2000/svg">
<path d="M10.0357 1.53857H12M1 1.53857H7.28571M10.0357 8.46165H12M1 8.46165H7.28571M5.71429 5.00011H12M1 5.00011H2.96429" stroke="#636363" stroke-linecap="round" stroke-linejoin="round"/>
<path d="M9.9285 1.53846C9.9285 2.10205 9.45885 2.57692 8.85707 2.57692C8.25529 2.57692 7.78564 2.10205 7.78564 1.53846C7.78564 0.974876 8.25529 0.5 8.85707 0.5C9.45885 0.5 9.9285 0.974876 9.9285 1.53846Z" stroke="#636363"/>
<path d="M5.21415 5.07752C5.21415 5.64111 4.7445 6.11599 4.14272 6.11599C3.54094 6.11599 3.07129 5.64111 3.07129 5.07752C3.07129 4.51394 3.54094 4.03906 4.14272 4.03906C4.7445 4.03906 5.21415 4.51394 5.21415 5.07752Z" stroke="#636363"/>
<path d="M9.9285 8.46131C9.9285 9.0249 9.45885 9.49977 8.85707 9.49977C8.25529 9.49977 7.78564 9.0249 7.78564 8.46131C7.78564 7.89773 8.25529 7.42285 8.85707 7.42285C9.45885 7.42285 9.9285 7.89773 9.9285 8.46131Z" stroke="#636363"/>
</svg>
