<svg width="13" height="10" viewBox="0 0 13 10" fill="none" xmlns="http://www.w3.org/2000/svg">
  <path
    d="M10.0357 1.53857H12M1 1.53857H7.28571M10.0357 8.46165H12M1 8.46165H7.28571M5.71429 5.00011H12M1 5.00011H2.96429"
    stroke="#636363" stroke-linecap="round" stroke-linejoin="round" />
  <path
    d="M9.92862 1.53846C9.92862 2.10205 9.45898 2.57692 8.8572 2.57692C8.25541 2.57692 7.78577 2.10205 7.78577 1.53846C7.78577 0.974876 8.25541 0.5 8.8572 0.5C9.45898 0.5 9.92862 0.974876 9.92862 1.53846Z"
    stroke="#636363" />
  <path
    d="M5.21433 5.07752C5.21433 5.64111 4.74468 6.11599 4.1429 6.11599C3.54112 6.11599 3.07147 5.64111 3.07147 5.07752C3.07147 4.51394 3.54112 4.03906 4.1429 4.03906C4.74468 4.03906 5.21433 4.51394 5.21433 5.07752Z"
    stroke="#636363" />
  <path
    d="M9.92862 8.46131C9.92862 9.0249 9.45898 9.49977 8.8572 9.49977C8.25541 9.49977 7.78577 9.0249 7.78577 8.46131C7.78577 7.89773 8.25541 7.42285 8.8572 7.42285C9.45898 7.42285 9.92862 7.89773 9.92862 8.46131Z"
    stroke="#636363" />
</svg>
  