<svg width="32" height="32" viewBox="0 0 32 32" fill="none" xmlns="http://www.w3.org/2000/svg">
  <path
    d="M23.3169 13.704C24.3232 12.6978 23.8643 11.5225 23.3169 10.9509L20.9018 8.53595C19.8875 7.5297 18.7201 7.98855 18.1486 8.53595L16.78 9.91249H14.695C13.1654 9.91249 12.2798 10.7175 11.829 11.6432L8.25465 15.2174V18.4374L7.68307 19.0009C6.67677 20.0152 7.13565 21.1824 7.68307 21.754L10.0982 24.169C10.5329 24.6037 10.9998 24.7647 11.4426 24.7647C12.0142 24.7647 12.5375 24.4829 12.8514 24.169L15.025 21.9874H17.9151C19.2837 21.9874 19.976 21.1341 20.2256 20.2969C21.1353 20.0554 21.6344 19.3631 21.8356 18.6869C23.0835 18.3649 23.5504 17.1816 23.5504 16.3525V13.9375H23.0754L23.3169 13.704ZM21.9403 16.3525C21.9403 16.7147 21.7873 17.1575 21.1353 17.1575H20.3302V17.9624C20.3302 18.3247 20.1773 18.7674 19.5252 18.7674H18.7201V19.5724C18.7201 19.9347 18.5672 20.3774 17.9151 20.3774H14.3649L11.7244 23.0178C11.4748 23.2513 11.3299 23.1144 11.2413 23.0259L8.83428 20.627C8.60082 20.3774 8.73767 20.2325 8.82623 20.144L9.86473 19.0975V15.8775L11.4748 14.2675V15.5475C11.4748 16.5215 12.1188 17.9624 13.8899 17.9624C15.661 17.9624 16.305 16.5215 16.305 15.5475H21.9403V16.3525ZM22.1738 12.5609L20.8052 13.9375H14.695V15.5475C14.695 15.9097 14.542 16.3525 13.8899 16.3525C13.2378 16.3525 13.0849 15.9097 13.0849 15.5475V13.1325C13.0849 12.7622 13.2217 11.5225 14.695 11.5225H17.4401L19.2756 9.68709C19.5252 9.45364 19.6701 9.59049 19.7586 9.67904L22.1657 12.0779C22.3992 12.3275 22.2623 12.4724 22.1738 12.5609Z"
    fill="currentColor" />
  <path
    d="M16.1597 1.83794C23.9904 1.91276 30.2851 8.32887 30.2103 16.1596C30.1355 23.9904 23.7194 30.2851 15.8886 30.2102C8.05785 30.1354 1.76317 23.7193 1.83799 15.8886"
    stroke="currentColor" stroke-width="2.12802" stroke-linecap="round" stroke-linejoin="round" />
  <path d="M10.415 6.11851L1.99999 6.29641" stroke="currentColor" stroke-width="1.7855"
    stroke-linecap="round" stroke-linejoin="round" />
  <path d="M6.25249 1.99995L6.46334 10.7158" stroke="currentColor" stroke-width="1.84945"
    stroke-linecap="round" stroke-linejoin="round" />
</svg>
  