<svg width="35" height="35" viewBox="0 0 35 35" fill="none" xmlns="http://www.w3.org/2000/svg">
  <g clip-path="url(#clip0_818_16024)">
    <path
      d="M24.3169 14.704C25.3232 13.6978 24.8644 12.5225 24.3169 11.9509L21.9018 9.53595C20.8875 8.5297 19.7202 8.98855 19.1486 9.53595L17.78 10.9125H15.695C14.1654 10.9125 13.2799 11.7175 12.829 12.6432L9.25468 16.2174V19.4374L8.6831 20.0009C7.6768 21.0152 8.13568 22.1824 8.6831 22.754L11.0982 25.169C11.5329 25.6037 11.9999 25.7647 12.4426 25.7647C13.0142 25.7647 13.5375 25.4829 13.8514 25.169L16.0251 22.9874H18.9151C20.2837 22.9874 20.976 22.1341 21.2256 21.2969C22.1353 21.0554 22.6344 20.3631 22.8357 19.6869C24.0835 19.3649 24.5504 18.1816 24.5504 17.3525V14.9375H24.0754L24.3169 14.704ZM22.9403 17.3525C22.9403 17.7147 22.7874 18.1575 22.1353 18.1575H21.3303V18.9624C21.3303 19.3247 21.1773 19.7674 20.5252 19.7674H19.7202V20.5724C19.7202 20.9347 19.5672 21.3774 18.9151 21.3774H15.3649L12.7244 24.0178C12.4748 24.2513 12.3299 24.1144 12.2414 24.0259L9.83431 21.627C9.60085 21.3774 9.7377 21.2325 9.82626 21.144L10.8648 20.0975V16.8775L12.4748 15.2675V16.5475C12.4748 17.5215 13.1189 18.9624 14.8899 18.9624C16.661 18.9624 17.3051 17.5215 17.3051 16.5475H22.9403V17.3525ZM23.1738 13.5609L21.8052 14.9375H15.695V16.5475C15.695 16.9097 15.542 17.3525 14.8899 17.3525C14.2379 17.3525 14.0849 16.9097 14.0849 16.5475V14.1325C14.0849 13.7622 14.2218 12.5225 15.695 12.5225H18.4402L20.2757 10.6871C20.5252 10.4536 20.6701 10.5905 20.7587 10.679L23.1657 13.0779C23.3992 13.3275 23.2623 13.4724 23.1738 13.5609Z"
      fill="currentColor" />
  </g>
  <path
    d="M17.1597 2.83794C24.9904 2.91276 31.2851 9.32887 31.2103 17.1596C31.1355 24.9904 24.7194 31.2851 16.8886 31.2102C9.05785 31.1354 2.76317 24.7193 2.83799 16.8886"
    stroke="currentColor" stroke-width="2.12802" stroke-linecap="round" stroke-linejoin="round" />
  <path d="M11.415 7.11851L2.99996 7.29641" stroke="currentColor" stroke-width="1.7855"
    stroke-linecap="round" stroke-linejoin="round" />
  <path d="M7.25249 2.99995L7.46334 11.7158" stroke="currentColor" stroke-width="1.84945"
    stroke-linecap="round" stroke-linejoin="round" />
  <defs>
    <clipPath id="clip0_818_16024">
      <rect width="18.3529" height="18.3529" fill="white" transform="translate(7.32355 8.17642)" />
    </clipPath>
  </defs>
</svg>
  