<svg width="25" height="26" viewBox="0 0 25 26" fill="none" xmlns="http://www.w3.org/2000/svg">
<path d="M9.97948 7.30821C9.97948 8.10524 9.97948 8.87776 10.2299 9.60122C7.5976 12.7035 0 21.5261 0 21.5261L0.177114 23.7517C0.177114 23.7517 2.30249 25.7749 2.62007 25.4684C3.56061 24.5487 4.1347 23.9233 4.1347 23.9233L4.57688 21.2655L7.45407 21.0528L7.68493 18.1835L10.716 18.1252L10.746 15.0542L13.9639 15.1829L14.5136 14.0278C15.4603 14.4386 16.3214 14.6042 17.4268 14.6042C21.6104 14.6042 25 11.3302 25 7.29595C25 3.26172 21.608 0 17.4244 0C13.2408 0 9.97948 3.27398 9.97948 7.30821ZM21.5072 5.88581C21.5072 6.3569 21.368 6.81742 21.1073 7.20913C20.8466 7.60083 20.476 7.90612 20.0425 8.0864C19.6089 8.26669 19.1318 8.31386 18.6716 8.22195C18.2113 8.13004 17.7885 7.90319 17.4567 7.57007C17.1249 7.23696 16.8989 6.81254 16.8073 6.35049C16.7158 5.88845 16.7628 5.40952 16.9424 4.97429C17.1219 4.53905 17.4261 4.16705 17.8162 3.90532C18.2064 3.64359 18.6652 3.50389 19.1345 3.50389C19.4461 3.50357 19.7548 3.56496 20.0428 3.68455C20.3309 3.80414 20.5926 3.97957 20.8129 4.20082C21.0333 4.42207 21.2081 4.68477 21.3272 4.97391C21.4464 5.26304 21.5075 5.57292 21.5072 5.88581Z" fill="#DBC44E"/>
</svg>
