<svg width="19" height="21" viewBox="0 0 19 21" fill="none" xmlns="http://www.w3.org/2000/svg">
<path d="M17.7551 14.4989C17.6768 14.4052 17.5998 14.3114 17.5243 14.2209C16.4861 12.9736 15.858 12.2208 15.858 8.68969C15.858 6.86156 15.4178 5.36156 14.5499 4.23656C13.91 3.40547 13.045 2.775 11.9049 2.30906C11.8902 2.30096 11.8771 2.29032 11.8662 2.27766C11.4561 0.913594 10.3339 0 9.0683 0C7.80265 0 6.68094 0.913594 6.27086 2.27625C6.25991 2.28845 6.24699 2.29875 6.23263 2.30672C3.57204 3.39469 2.27903 5.48203 2.27903 8.68828C2.27903 12.2208 1.65187 12.9736 0.61274 14.2195C0.537235 14.31 0.460315 14.4019 0.381979 14.4975C0.179627 14.7399 0.0514208 15.0348 0.0125324 15.3473C-0.026356 15.6598 0.0257014 15.9769 0.162544 16.2609C0.453708 16.8703 1.07426 17.2486 1.78259 17.2486H16.3592C17.0642 17.2486 17.6805 16.8708 17.9726 16.2642C18.1101 15.9801 18.1626 15.6628 18.1241 15.3499C18.0855 15.037 17.9575 14.7417 17.7551 14.4989ZM9.0683 21C9.75022 20.9995 10.4193 20.8156 11.0045 20.4679C11.5897 20.1202 12.0693 19.6217 12.3924 19.0252C12.4076 18.9966 12.4151 18.9646 12.4142 18.9322C12.4133 18.8999 12.404 18.8684 12.3872 18.8407C12.3703 18.813 12.3466 18.7901 12.3183 18.7742C12.2899 18.7583 12.2579 18.75 12.2253 18.75H5.91221C5.87961 18.7499 5.84754 18.7582 5.81912 18.774C5.7907 18.7899 5.7669 18.8128 5.75003 18.8405C5.73316 18.8682 5.7238 18.8997 5.72287 18.9321C5.72193 18.9645 5.72945 18.9965 5.74469 19.0252C6.06772 19.6216 6.54723 20.1201 7.13237 20.4678C7.71751 20.8155 8.38646 20.9994 9.0683 21Z" fill="#636363"/>
</svg>
