<svg width="29" height="36" viewBox="0 0 29 36" fill="none" xmlns="http://www.w3.org/2000/svg">
<path d="M20.75 13.0769H23.875C24.7038 13.0769 25.4987 13.4011 26.0847 13.9781C26.6708 14.5552 27 15.3378 27 16.1538V30.9231C27 31.7391 26.6708 32.5218 26.0847 33.0988C25.4987 33.6758 24.7038 34 23.875 34H5.125C4.2962 34 3.50134 33.6758 2.91529 33.0988C2.32924 32.5218 2 31.7391 2 30.9231V16.1538C2 15.3378 2.32924 14.5552 2.91529 13.9781C3.50134 13.4011 4.2962 13.0769 5.125 13.0769H8.25M20.75 8.15385L14.5 2M14.5 2L8.25 8.15385M14.5 2V23" stroke="white" stroke-width="3" stroke-linecap="round" stroke-linejoin="round"/>
</svg>
