<svg width="30" height="30" viewBox="0 0 30 30" fill="none" xmlns="http://www.w3.org/2000/svg">
  <path
    d="M17.6014 3.42322L18.9108 3.29229V3.29229L17.6014 3.42322ZM17.4009 2.34444L18.5704 1.74126L18.5704 1.74126L17.4009 2.34444ZM17.9895 5.33978L19.0357 4.54167L19.0357 4.54167L17.9895 5.33978ZM19.2111 5.8458L19.3866 7.14993L19.3866 7.14993L19.2111 5.8458ZM20.8407 4.76501L21.674 5.78344V5.78344L20.8407 4.76501ZM21.7453 4.14398L21.3449 2.89052L21.3449 2.89052L21.7453 4.14398ZM22.669 4.19005L22.1458 5.39745L22.669 4.19005ZM23.5073 4.898L24.4377 3.96754L24.4377 3.96754L23.5073 4.898ZM24.6829 6.07369L23.7525 7.00416V7.00416L24.6829 6.07369ZM25.3909 6.91202L26.5983 6.38886L26.5983 6.38885L25.3909 6.91202ZM25.437 7.83562L24.1835 7.43519V7.43519L25.437 7.83562ZM24.8159 8.74024L23.7975 7.90697L24.8159 8.74024ZM23.7351 10.3699L22.431 10.1945V10.1945L23.7351 10.3699ZM24.2411 11.5915L25.0393 10.5453L25.0393 10.5453L24.2411 11.5915ZM26.1577 11.9796L26.0268 13.2889H26.0268L26.1577 11.9796ZM27.2366 12.1801L26.6334 13.3496L26.6334 13.3496L27.2366 12.1801ZM27.8571 12.8658L29.0808 12.3819L29.0808 12.3819L27.8571 12.8658ZM27.8571 16.7151L29.0809 17.1988L29.0809 17.1988L27.8571 16.7151ZM27.2365 17.4009L26.6334 16.2314V16.2314L27.2365 17.4009ZM26.1579 17.6014L26.0269 16.2921L26.0108 16.2937L25.9946 16.2957L26.1579 17.6014ZM26.1578 17.6014L26.2888 18.9108L26.3049 18.9091L26.321 18.9071L26.1578 17.6014ZM24.2418 17.9893L23.4439 16.9429L23.4439 16.9429L24.2418 17.9893ZM23.7356 19.2113L22.4315 19.387V19.387L23.7356 19.2113ZM24.8161 20.8403L25.8436 20.0183L25.8391 20.0127L25.8345 20.0071L24.8161 20.8403ZM24.8161 20.8404L23.7886 21.6624L23.7931 21.668L23.7977 21.6736L24.8161 20.8404ZM25.437 21.7446L24.1836 22.1452V22.1452L25.437 21.7446ZM25.3909 22.6686L26.5982 23.1919V23.1919L25.3909 22.6686ZM23.5073 24.6824L24.4377 25.6129L24.4377 25.6129L23.5073 24.6824ZM22.669 25.3904L23.1922 26.5978L23.1922 26.5978L22.669 25.3904ZM21.7454 25.4364L22.1458 24.183L22.1458 24.183L21.7454 25.4364ZM20.8408 24.8154L20.0075 25.8339H20.0075L20.8408 24.8154ZM19.2112 23.7346L19.3866 22.4305L19.2112 23.7346ZM17.9895 24.2407L19.0357 25.0388L19.0358 25.0388L17.9895 24.2407ZM17.6014 26.1575L16.2921 26.0265V26.0265L17.6014 26.1575ZM17.4008 27.2367L16.2314 26.6334L16.2314 26.6334L17.4008 27.2367ZM16.7154 27.8571L16.2314 26.6334L16.2314 26.6334L16.7154 27.8571ZM12.8658 27.8571L13.3496 26.6334L13.3496 26.6334L12.8658 27.8571ZM12.1801 27.2366L13.3496 26.6334L13.3496 26.6334L12.1801 27.2366ZM11.9796 26.1578L10.6703 26.2887L11.9796 26.1578ZM11.5915 24.2411L10.5453 25.0393L10.5453 25.0393L11.5915 24.2411ZM10.3699 23.7351L10.5453 25.0393L10.3699 23.7351ZM8.7402 24.816L7.90694 23.7976H7.90694L8.7402 24.816ZM7.83555 25.437L8.23595 26.6905L8.23596 26.6905L7.83555 25.437ZM6.91198 25.391L7.43513 24.1836H7.43513L6.91198 25.391ZM6.07362 24.683L5.14315 25.6135H5.14315L6.07362 24.683ZM4.89796 23.5073L5.82843 22.5769H5.82842L4.89796 23.5073ZM4.18998 22.669L5.39739 22.1458L5.39739 22.1458L4.18998 22.669ZM4.14392 21.7454L2.89045 21.345L2.89045 21.345L4.14392 21.7454ZM4.76495 20.8408L3.77466 19.9743L3.76031 19.9907L3.74652 20.0075L4.76495 20.8408ZM4.76497 20.8408L5.75527 21.7073L5.76961 21.6909L5.7834 21.674L4.76497 20.8408ZM5.84579 19.2111L4.54166 19.0357L4.54166 19.0357L5.84579 19.2111ZM5.33977 17.9895L4.54165 19.0357L4.54166 19.0357L5.33977 17.9895ZM3.42324 17.6014L3.55417 16.2921L3.53602 16.2903L3.51783 16.2889L3.42324 17.6014ZM3.4232 17.6014L3.29226 18.9108L3.31041 18.9126L3.3286 18.9139L3.4232 17.6014ZM2.34441 17.4009L2.94759 16.2314L2.94759 16.2314L2.34441 17.4009ZM1.72389 16.7152L2.94759 16.2314H2.94759L1.72389 16.7152ZM1.72394 12.8657L0.500282 12.3817H0.500282L1.72394 12.8657ZM2.34429 12.1802L1.74099 11.0108H1.74099L2.34429 12.1802ZM3.42334 11.9796L3.55427 13.2889L3.59498 13.2849L3.63537 13.2783L3.42334 11.9796ZM3.42335 11.9796L3.29242 10.6702L3.25171 10.6743L3.21132 10.6809L3.42335 11.9796ZM5.34041 11.5914L6.13867 12.6375L5.34041 11.5914ZM5.8463 10.37L4.54214 10.5453L4.54214 10.5453L5.8463 10.37ZM4.76518 8.73986L3.74675 9.57313L3.74675 9.57313L4.76518 8.73986ZM4.1439 7.83485L5.39743 7.4346L4.1439 7.83485ZM4.18995 6.9116L2.98247 6.38861L2.98247 6.38861L4.18995 6.9116ZM4.89816 6.07293L5.82863 7.0034L4.89816 6.07293ZM6.07365 4.89744L7.00412 5.82791L7.00412 5.82791L6.07365 4.89744ZM6.91203 4.18944L6.38888 2.98202L6.38888 2.98202L6.91203 4.18944ZM7.83558 4.14338L8.23599 2.8899L7.83558 4.14338ZM8.74035 4.76453L9.57361 3.7461L9.57361 3.7461L8.74035 4.76453ZM10.3697 5.84528L10.5454 4.54117H10.5454L10.3697 5.84528ZM11.5917 5.33913L10.5454 4.54117L10.5454 4.54117L11.5917 5.33913ZM11.9796 3.42306L13.289 3.55399L13.2955 3.48869V3.42306H11.9796ZM11.9796 3.42305L10.6703 3.29211L10.6637 3.35742V3.42305H11.9796ZM12.1801 2.34456L11.0105 1.7415L11.0105 1.7415L12.1801 2.34456ZM12.8659 1.72387L12.3822 0.500115L12.3822 0.500116L12.8659 1.72387ZM16.7152 1.72392L16.2314 2.94762V2.94762L16.7152 1.72392ZM18.9108 3.29229C18.884 3.02435 18.8581 2.75936 18.8206 2.53549C18.7808 2.29868 18.7155 2.02263 18.5704 1.74126L16.2314 2.94762C16.2012 2.88906 16.2076 2.86707 16.2251 2.97128C16.2448 3.08844 16.2618 3.25144 16.2921 3.55416L18.9108 3.29229ZM19.0357 4.54167C19.1189 4.65079 19.0924 4.69906 19.0463 4.44238C19.0023 4.19828 18.967 3.85445 18.9108 3.29229L16.2921 3.55416C16.3439 4.07215 16.3895 4.53844 16.4561 4.90849C16.5204 5.26597 16.634 5.73245 16.9433 6.13788L19.0357 4.54167ZM19.0357 4.54167V4.54167L16.9433 6.13788C17.5168 6.88966 18.4495 7.276 19.3866 7.14993L19.0357 4.54167ZM20.0075 3.74658C19.5702 4.10433 19.3021 4.32245 19.0984 4.464C18.8843 4.61283 18.8997 4.55997 19.0357 4.54167L19.3866 7.14993C19.892 7.08194 20.3021 6.83239 20.6004 6.6251C20.9091 6.41052 21.2711 6.11309 21.674 5.78344L20.0075 3.74658ZM21.3449 2.89052C21.0433 2.98686 20.8019 3.13589 20.6064 3.27523C20.4215 3.40695 20.2159 3.57606 20.0075 3.74658L21.674 5.78344C21.9095 5.5908 22.0367 5.48755 22.1335 5.41862C22.2195 5.3573 22.2085 5.3774 22.1458 5.39745L21.3449 2.89052ZM23.1921 2.98265C22.6078 2.72946 21.9515 2.69672 21.3449 2.89052L22.1458 5.39745V5.39745L23.1921 2.98265ZM24.4377 3.96754C24.2473 3.77713 24.0595 3.58839 23.8887 3.43893C23.708 3.28083 23.4826 3.10852 23.1921 2.98265L22.1458 5.39745C22.0853 5.37125 22.0764 5.35016 22.1559 5.41973C22.2453 5.49795 22.3617 5.61335 22.5768 5.82847L24.4377 3.96754ZM25.6134 5.14323L24.4377 3.96754L22.5768 5.82847L23.7525 7.00416L25.6134 5.14323ZM26.5983 6.38885C26.4725 6.09836 26.3001 5.87302 26.142 5.69228C25.9926 5.52142 25.8038 5.33364 25.6134 5.14323L23.7525 7.00416C23.9676 7.21928 24.083 7.33565 24.1612 7.42507C24.2308 7.5046 24.2097 7.49566 24.1835 7.43519L26.5983 6.38885ZM26.6905 8.23605C26.8842 7.62945 26.8515 6.97316 26.5983 6.38886L24.1835 7.43519L24.1835 7.43519L26.6905 8.23605ZM25.8344 9.5735C26.0049 9.36509 26.174 9.15946 26.3057 8.97457C26.4451 8.779 26.5941 8.53763 26.6905 8.23605L24.1835 7.43519C24.2036 7.37242 24.2237 7.36142 24.1623 7.44748C24.0934 7.54424 23.9902 7.67151 23.7975 7.90697L25.8344 9.5735ZM25.0393 10.5453C25.021 10.6813 24.9681 10.6967 25.1169 10.4826C25.2585 10.2789 25.4766 10.0108 25.8344 9.5735L23.7975 7.90697C23.4678 8.30989 23.1704 8.67189 22.9558 8.98066C22.7485 9.27893 22.499 9.68908 22.431 10.1945L25.0393 10.5453ZM25.0393 10.5453V10.5453L22.431 10.1945C22.3049 11.1316 22.6913 12.0642 23.443 12.6377L25.0393 10.5453ZM26.2887 10.6703C25.7265 10.614 25.3827 10.5787 25.1385 10.5347C24.8819 10.4886 24.9301 10.4621 25.0393 10.5453L23.443 12.6377C23.8484 12.947 24.3149 13.0606 24.6724 13.1249C25.0425 13.1915 25.5088 13.2371 26.0268 13.2889L26.2887 10.6703ZM27.8398 11.0106C27.5584 10.8655 27.2823 10.8002 27.0455 10.7605C26.8216 10.7229 26.5566 10.6971 26.2887 10.6703L26.0268 13.2889C26.3295 13.3192 26.4926 13.3362 26.6097 13.3559C26.7139 13.3734 26.6919 13.3798 26.6334 13.3496L27.8398 11.0106ZM29.0808 12.3819C28.8466 11.7898 28.4057 11.3026 27.8398 11.0106L26.6334 13.3496H26.6334L29.0808 12.3819ZM29.2651 13.9592C29.2651 13.6899 29.2658 13.4237 29.2507 13.1971C29.2347 12.9575 29.1972 12.6764 29.0808 12.3819L26.6334 13.3496C26.6091 13.2883 26.6177 13.2671 26.6248 13.3725C26.6327 13.4911 26.6334 13.655 26.6334 13.9592H29.2651ZM29.2651 15.622V13.9592H26.6334V15.622H29.2651ZM29.0809 17.1988C29.1972 16.9045 29.2347 16.6234 29.2507 16.3838C29.2658 16.1574 29.2651 15.8912 29.2651 15.622H26.6334C26.6334 15.9261 26.6327 16.09 26.6248 16.2085C26.6177 16.3139 26.6092 16.2927 26.6334 16.2314L29.0809 17.1988ZM27.8395 18.5705C28.4057 18.2786 28.8467 17.7912 29.0809 17.1988L26.6334 16.2314L26.6334 16.2314L27.8395 18.5705ZM26.2888 18.9107C26.5567 18.884 26.8216 18.8581 27.0455 18.8206C27.2822 18.7808 27.5582 18.7156 27.8395 18.5705L26.6334 16.2314C26.6919 16.2012 26.7139 16.2076 26.6097 16.2251C26.4926 16.2448 26.3296 16.2618 26.0269 16.2921L26.2888 18.9107ZM26.321 18.9071L26.3211 18.9071L25.9946 16.2957L25.9946 16.2957L26.321 18.9071ZM25.0397 19.0357C24.9306 19.1189 24.8824 19.0924 25.139 19.0462C25.383 19.0023 25.7268 18.9669 26.2888 18.9108L26.0269 16.2921C25.5091 16.3438 25.0429 16.3895 24.673 16.456C24.3156 16.5203 23.8493 16.6338 23.4439 16.9429L25.0397 19.0357ZM25.0397 19.0357L25.0397 19.0357L23.4439 16.9429C22.6918 17.5165 22.3053 18.4496 22.4315 19.387L25.0397 19.0357ZM25.8345 20.0071C25.4769 19.57 25.2589 19.302 25.1174 19.0984C24.9686 18.8843 25.0214 18.8997 25.0397 19.0357L22.4315 19.387C22.4996 19.8922 22.7491 20.3022 22.9563 20.6003C23.1708 20.909 23.4681 21.2708 23.7977 21.6736L25.8345 20.0071ZM25.8437 20.0183L25.8436 20.0183L23.7886 21.6624L23.7886 21.6624L25.8437 20.0183ZM26.6904 21.344C26.594 21.0426 26.445 20.8013 26.3057 20.6058C26.1741 20.421 26.005 20.2154 25.8346 20.0071L23.7977 21.6736C23.9903 21.909 24.0935 22.0362 24.1624 22.1329C24.2237 22.219 24.2036 22.208 24.1836 22.1452L26.6904 21.344ZM26.5982 23.1919C26.8516 22.6074 26.8843 21.9508 26.6904 21.344L24.1836 22.1452L24.1836 22.1452L26.5982 23.1919ZM25.6136 24.437C25.8039 24.2467 25.9926 24.059 26.142 23.8882C26.3001 23.7075 26.4723 23.4823 26.5982 23.1919L24.1836 22.1452C24.2098 22.0848 24.2308 22.0759 24.1613 22.1554C24.0831 22.2447 23.9677 22.3611 23.7527 22.5761L25.6136 24.437ZM24.4378 25.6129L25.6136 24.437L23.7527 22.5761L22.5768 23.752L24.4378 25.6129ZM24.4377 25.6129L24.4378 25.6129L22.5768 23.752L22.5768 23.752L24.4377 25.6129ZM23.1922 26.5978C23.4827 26.4719 23.708 26.2996 23.8887 26.1415C24.0596 25.992 24.2473 25.8033 24.4377 25.6129L22.5768 23.752C22.3617 23.9671 22.2453 24.0825 22.1559 24.1607C22.0764 24.2303 22.0853 24.2092 22.1458 24.183L23.1922 26.5978ZM21.3449 26.6899C21.9515 26.8837 22.6079 26.851 23.1922 26.5978L22.1458 24.183L21.3449 26.6899ZM20.0075 25.8339C20.2159 26.0044 20.4215 26.1735 20.6064 26.3052C20.802 26.4445 21.0433 26.5936 21.3449 26.6899L22.1458 24.183C22.2086 24.203 22.2196 24.2231 22.1335 24.1618C22.0368 24.0929 21.9095 23.9896 21.674 23.797L20.0075 25.8339ZM19.0357 25.0388C18.8997 25.0205 18.8843 24.9676 19.0985 25.1164C19.3021 25.258 19.5703 25.4761 20.0075 25.8339L21.674 23.797C21.2712 23.4673 20.9092 23.1699 20.6004 22.9553C20.3021 22.7481 19.892 22.4985 19.3866 22.4305L19.0357 25.0388ZM19.0358 25.0388L19.0357 25.0388L19.3866 22.4305C18.4495 22.3044 17.5168 22.6908 16.9433 23.4426L19.0358 25.0388ZM18.9108 26.2884C18.967 25.7262 19.0024 25.3823 19.0463 25.1381C19.0925 24.8813 19.119 24.9296 19.0357 25.0388L16.9433 23.4426C16.634 23.848 16.5205 24.3145 16.4562 24.672C16.3896 25.0421 16.3439 25.5085 16.2921 26.0265L18.9108 26.2884ZM18.5702 27.84C18.7154 27.5586 18.7808 27.2824 18.8205 27.0455C18.8582 26.8216 18.884 26.5565 18.9108 26.2884L16.2921 26.0265C16.2618 26.3294 16.2448 26.4925 16.2251 26.6097C16.2076 26.714 16.2012 26.692 16.2314 26.6334L18.5702 27.84ZM17.1993 29.0807C17.7913 28.8466 18.2784 28.4058 18.5702 27.84L16.2314 26.6334L16.2314 26.6334L17.1993 29.0807ZM15.6217 29.2652C15.891 29.2652 16.1573 29.2658 16.3839 29.2507C16.6236 29.2347 16.9048 29.1972 17.1993 29.0807L16.2314 26.6334C16.2927 26.6092 16.3139 26.6178 16.2085 26.6248C16.0899 26.6327 15.926 26.6334 15.6217 26.6334V29.2652ZM13.9592 29.2652H15.6217V26.6334H13.9592V29.2652ZM12.3819 29.0808C12.6763 29.1972 12.9575 29.2347 13.1971 29.2507C13.4237 29.2658 13.6899 29.2652 13.9592 29.2652V26.6334C13.655 26.6334 13.4911 26.6327 13.3725 26.6248C13.2671 26.6178 13.2883 26.6092 13.3496 26.6334L12.3819 29.0808ZM11.0106 27.8398C11.3025 28.4057 11.7897 28.8467 12.3819 29.0808L13.3496 26.6334V26.6334L11.0106 27.8398ZM10.6703 26.2887C10.697 26.5567 10.7229 26.8217 10.7605 27.0455C10.8002 27.2824 10.8655 27.5584 11.0106 27.8398L13.3496 26.6334C13.3798 26.692 13.3734 26.714 13.3559 26.6097C13.3362 26.4926 13.3192 26.3296 13.2889 26.0268L10.6703 26.2887ZM10.5453 25.0393C10.4621 24.9302 10.4886 24.8819 10.5347 25.1386C10.5787 25.3827 10.614 25.7265 10.6703 26.2887L13.2889 26.0268C13.2371 25.5088 13.1915 25.0425 13.1249 24.6724C13.0606 24.3149 12.947 23.8484 12.6377 23.443L10.5453 25.0393ZM10.5453 25.0393L12.6377 23.443C12.0642 22.6913 11.1316 22.305 10.1945 22.431L10.5453 25.0393ZM9.57346 25.8344C10.0107 25.4766 10.2789 25.2585 10.4826 25.117C10.6967 24.9681 10.6813 25.021 10.5453 25.0393L10.1945 22.431C9.6891 22.499 9.27894 22.7485 8.98065 22.9558C8.67188 23.1704 8.30986 23.4679 7.90694 23.7976L9.57346 25.8344ZM8.23596 26.6905C8.53755 26.5942 8.77893 26.4451 8.97451 26.3058C9.1594 26.1741 9.36504 26.0049 9.57346 25.8344L7.90694 23.7976C7.67146 23.9902 7.54418 24.0935 7.44743 24.1624C7.36136 24.2237 7.37235 24.2036 7.43513 24.1836L8.23596 26.6905ZM6.38883 26.5984C6.97312 26.8516 7.62938 26.8843 8.23595 26.6905L7.43514 24.1836H7.43513L6.38883 26.5984ZM5.14315 25.6135C5.33357 25.8039 5.52136 25.9926 5.69223 26.1421C5.87297 26.3002 6.09832 26.4725 6.38883 26.5984L7.43513 24.1836C7.4956 24.2098 7.50454 24.2309 7.425 24.1613C7.33559 24.0831 7.21922 23.9677 7.00408 23.7525L5.14315 25.6135ZM3.96749 24.4378L5.14315 25.6135L7.00408 23.7525L5.82843 22.5769L3.96749 24.4378ZM2.98258 23.1922C3.10845 23.4827 3.28076 23.708 3.43887 23.8887C3.58834 24.0596 3.77708 24.2474 3.9675 24.4378L5.82842 22.5769C5.6133 22.3617 5.49789 22.2454 5.41968 22.156C5.3501 22.0764 5.37119 22.0854 5.39739 22.1458L2.98258 23.1922ZM2.89045 21.345C2.69667 21.9516 2.7294 22.6079 2.98258 23.1922L5.39739 22.1458L5.39739 22.1458L2.89045 21.345ZM3.74652 20.0075C3.576 20.2159 3.40688 20.4216 3.27516 20.6065C3.13582 20.802 2.98679 21.0434 2.89045 21.345L5.39739 22.1458C5.37734 22.2086 5.35724 22.2196 5.41855 22.1335C5.48749 22.0368 5.59074 21.9095 5.78339 21.674L3.74652 20.0075ZM3.77467 19.9743L3.77466 19.9743L5.75525 21.7073L5.75527 21.7073L3.77467 19.9743ZM4.54166 19.0357C4.55995 18.8997 4.61282 18.8843 4.46398 19.0984C4.32243 19.3021 4.1043 19.5702 3.74654 20.0075L5.7834 21.674C6.11306 21.2711 6.4105 20.9091 6.62508 20.6004C6.83237 20.3021 7.08194 19.8919 7.14992 19.3865L4.54166 19.0357ZM4.54166 19.0357L4.54166 19.0357L7.14992 19.3865C7.27597 18.4495 6.88964 17.5168 6.13789 16.9433L4.54166 19.0357ZM3.2923 18.9108C3.85446 18.967 4.19828 19.0023 4.44238 19.0463C4.69905 19.0924 4.65077 19.1189 4.54165 19.0357L6.13789 16.9433C5.73245 16.634 5.26598 16.5204 4.9085 16.4561C4.53844 16.3895 4.07216 16.3439 3.55417 16.2921L3.2923 18.9108ZM3.3286 18.9139L3.32864 18.9139L3.51783 16.2889L3.51779 16.2889L3.3286 18.9139ZM1.74122 18.5704C2.02259 18.7155 2.29864 18.7808 2.53546 18.8206C2.75933 18.8581 3.02432 18.884 3.29226 18.9108L3.55413 16.2921C3.25141 16.2618 3.08841 16.2448 2.97125 16.2251C2.86704 16.2076 2.88903 16.2012 2.94759 16.2314L1.74122 18.5704ZM0.500186 17.1991C0.734329 17.7913 1.17526 18.2785 1.74122 18.5704L2.94759 16.2314L2.94759 16.2314L0.500186 17.1991ZM0.315837 15.6218C0.315837 15.8911 0.315156 16.1574 0.330284 16.3839C0.346285 16.6235 0.383782 16.9046 0.500186 17.1991L2.94759 16.2314C2.97182 16.2927 2.96323 16.3139 2.95619 16.2085C2.94827 16.09 2.94759 15.9261 2.94759 15.6218H0.315837ZM0.315837 13.9593V15.6218H2.94759V13.9593H0.315837ZM0.500282 12.3817C0.383818 12.6762 0.346301 12.9574 0.330291 13.1971C0.315156 13.4237 0.315837 13.69 0.315837 13.9593H2.94759C2.94759 13.655 2.94827 13.4911 2.95619 13.3725C2.96324 13.2671 2.97183 13.2883 2.94759 13.3496L0.500282 12.3817ZM1.74099 11.0108C1.17521 11.3026 0.734417 11.7897 0.500282 12.3817L2.94759 13.3496L2.94759 13.3496L1.74099 11.0108ZM3.2924 10.6702C3.0244 10.697 2.75934 10.7229 2.53541 10.7605C2.29854 10.8002 2.02242 10.8656 1.74099 11.0108L2.94759 13.3496C2.88901 13.3798 2.86702 13.3734 2.97125 13.3559C3.08843 13.3362 3.25148 13.3192 3.55427 13.2889L3.2924 10.6702ZM3.21132 10.6809L3.21131 10.6809L3.63537 13.2783L3.63538 13.2783L3.21132 10.6809ZM4.54214 10.5453C4.65127 10.462 4.69957 10.4885 4.44283 10.5347C4.19866 10.5786 3.85474 10.614 3.29242 10.6702L3.55429 13.2889C4.07242 13.2371 4.53884 13.1915 4.90899 13.1248C5.26657 13.0605 5.73317 12.9469 6.13867 12.6375L4.54214 10.5453ZM4.54214 10.5453L4.54214 10.5453L6.13867 12.6375C6.89013 12.064 7.27634 11.1316 7.15045 10.1948L4.54214 10.5453ZM3.74675 9.57313C4.10463 10.0105 4.32283 10.2788 4.46443 10.4825C4.61332 10.6967 4.56042 10.6813 4.54214 10.5453L7.15045 10.1948C7.08252 9.68924 6.8329 9.27897 6.62555 8.98062C6.41091 8.67176 6.11338 8.30965 5.78362 7.9066L3.74675 9.57313ZM2.89037 8.2351C2.98671 8.53681 3.1358 8.77829 3.27519 8.97394C3.40696 9.1589 3.57616 9.36462 3.74675 9.57313L5.78362 7.9066C5.59088 7.67103 5.48758 7.5437 5.41861 7.4469C5.35726 7.36079 5.37738 7.37179 5.39743 7.4346L2.89037 8.2351ZM2.98247 6.38861C2.72948 6.97271 2.69676 7.62872 2.89037 8.2351L5.39743 7.4346H5.39743L2.98247 6.38861ZM3.9677 5.14247C3.77722 5.33295 3.5884 5.52081 3.43888 5.69173C3.28071 5.87255 3.10835 6.09798 2.98247 6.38861L5.39743 7.4346C5.37123 7.49509 5.35012 7.50404 5.41973 7.42447C5.49797 7.33502 5.61342 7.21861 5.82863 7.0034L3.9677 5.14247ZM5.14319 3.96698L3.9677 5.14247L5.82863 7.0034L7.00412 5.82791L5.14319 3.96698ZM6.38888 2.98202C6.09837 3.1079 5.87301 3.28022 5.69227 3.43833C5.5214 3.5878 5.33361 3.77656 5.14319 3.96698L7.00412 5.82791C7.21926 5.61277 7.33563 5.49736 7.42505 5.41914C7.50459 5.34956 7.49564 5.37065 7.43517 5.39685L6.38888 2.98202ZM8.23599 2.8899C7.62941 2.69614 6.97316 2.72887 6.38888 2.98202L7.43517 5.39685L7.43517 5.39685L8.23599 2.8899ZM9.57361 3.7461C9.36516 3.57554 9.15949 3.40639 8.97458 3.27465C8.779 3.1353 8.5376 2.98624 8.23599 2.8899L7.43517 5.39685C7.37238 5.37679 7.36138 5.35669 7.44748 5.41804C7.54427 5.48699 7.67158 5.59028 7.90709 5.78297L9.57361 3.7461ZM10.5454 4.54117C10.6814 4.55949 10.6968 4.61234 10.4826 4.46348C10.2789 4.32194 10.0108 4.10382 9.57361 3.7461L7.90709 5.78297C8.30996 6.11259 8.67191 6.40998 8.98061 6.62454C9.2788 6.83179 9.68885 7.08134 10.1941 7.14938L10.5454 4.54117ZM10.5454 4.54117V4.54117L10.1941 7.14938C11.1315 7.27562 12.0645 6.88915 12.638 6.13708L10.5454 4.54117ZM10.6703 3.29212C10.6141 3.85413 10.5787 4.19787 10.5348 4.44191C10.4886 4.69852 10.4622 4.65027 10.5454 4.54117L12.638 6.13708C12.9472 5.73171 13.0607 5.26536 13.125 4.90797C13.1915 4.53801 13.2372 4.07184 13.289 3.55399L10.6703 3.29212ZM10.6637 3.42305V3.42306H13.2955V3.42305H10.6637ZM11.0105 1.7415C10.8655 2.0228 10.8002 2.29878 10.7604 2.53553C10.7229 2.75934 10.6971 3.02425 10.6703 3.29211L13.289 3.55398C13.3192 3.25135 13.3362 3.0884 13.3559 2.97127C13.3734 2.86709 13.3798 2.88907 13.3496 2.94762L11.0105 1.7415ZM12.3822 0.500116C11.7898 0.734266 11.3024 1.17533 11.0105 1.7415L13.3496 2.94762L13.3496 2.94762L12.3822 0.500116ZM13.959 0.315867C13.6898 0.315867 13.4236 0.315187 13.1972 0.330306C12.9577 0.346299 12.6766 0.383775 12.3822 0.500115L13.3496 2.94762C13.2883 2.97184 13.2671 2.96325 13.3725 2.95621C13.491 2.9483 13.6549 2.94762 13.959 2.94762V0.315867ZM15.6218 0.315867H13.959V2.94762H15.6218V0.315867ZM17.199 0.500214C16.9046 0.383812 16.6235 0.346315 16.3839 0.330314C16.1574 0.315187 15.8911 0.315867 15.6218 0.315867V2.94762C15.9261 2.94762 16.09 2.9483 16.2085 2.95622C16.3139 2.96326 16.2927 2.97185 16.2314 2.94762L17.199 0.500214ZM18.5704 1.74126C18.2785 1.17529 17.7913 0.734357 17.199 0.500214L16.2314 2.94762V2.94762L18.5704 1.74126ZM18.7381 14.7905C18.7381 16.9707 16.9707 18.7381 14.7905 18.7381V21.3699C18.4242 21.3699 21.3699 18.4242 21.3699 14.7905H18.7381ZM14.7905 10.8429C16.9707 10.8429 18.7381 12.6103 18.7381 14.7905H21.3699C21.3699 11.1568 18.4242 8.21113 14.7905 8.21113V10.8429ZM10.8429 14.7905C10.8429 12.6103 12.6103 10.8429 14.7905 10.8429V8.21113C11.1568 8.21113 8.21113 11.1568 8.21113 14.7905H10.8429ZM14.7905 18.7381C12.6103 18.7381 10.8429 16.9707 10.8429 14.7905H8.21113C8.21113 18.4242 11.1568 21.3699 14.7905 21.3699V18.7381Z"
    fill="currentColor" />
</svg>
  