<svg width="24" height="24" viewBox="0 0 24 24" fill="none" xmlns="http://www.w3.org/2000/svg">
  <path
    d="M0.576369 8.11112H2.27776C2.41144 8.11112 2.52081 8.00175 2.52081 7.86807V2.52084H7.86803C8.00172 2.52084 8.11109 2.41147 8.11109 2.27779V0.576399C8.11109 0.442718 8.00172 0.333344 7.86803 0.333344H2.39929C1.25692 0.333344 0.333313 1.25695 0.333313 2.39932V7.86807C0.333313 8.00175 0.442688 8.11112 0.576369 8.11112ZM16.1319 2.52084H21.4791V7.86807C21.4791 8.00175 21.5885 8.11112 21.7222 8.11112H23.4236C23.5573 8.11112 23.6666 8.00175 23.6666 7.86807V2.39932C23.6666 1.25695 22.743 0.333344 21.6007 0.333344H16.1319C15.9982 0.333344 15.8889 0.442718 15.8889 0.576399V2.27779C15.8889 2.41147 15.9982 2.52084 16.1319 2.52084ZM7.86803 21.4792H2.52081V16.132C2.52081 15.9983 2.41144 15.8889 2.27776 15.8889H0.576369C0.442688 15.8889 0.333313 15.9983 0.333313 16.132V21.6007C0.333313 22.7431 1.25692 23.6667 2.39929 23.6667H7.86803C8.00172 23.6667 8.11109 23.5573 8.11109 23.4236V21.7222C8.11109 21.5886 8.00172 21.4792 7.86803 21.4792ZM23.4236 15.8889H21.7222C21.5885 15.8889 21.4791 15.9983 21.4791 16.132V21.4792H16.1319C15.9982 21.4792 15.8889 21.5886 15.8889 21.7222V23.4236C15.8889 23.5573 15.9982 23.6667 16.1319 23.6667H21.6007C22.743 23.6667 23.6666 22.7431 23.6666 21.6007V16.132C23.6666 15.9983 23.5573 15.8889 23.4236 15.8889ZM17.4282 10.9063H6.57174C6.43806 10.9063 6.32868 11.0156 6.32868 11.1493V12.8507C6.32868 12.9844 6.43806 13.0938 6.57174 13.0938H17.4282C17.5619 13.0938 17.6713 12.9844 17.6713 12.8507V11.1493C17.6713 11.0156 17.5619 10.9063 17.4282 10.9063Z"
    fill="currentColor" />
</svg>