<svg width="8" height="11" viewBox="0 0 8 11" fill="none" xmlns="http://www.w3.org/2000/svg">
  <path
    d="M1.70011 10H6.29972C6.71222 10 7.04035 9.64757 6.99597 9.24149C6.70951 6.625 4.99992 6.66827 4.99992 5.5C4.99992 4.33173 6.73139 4.39663 6.99576 1.75851C7.03743 1.35221 6.71222 1 6.29972 1H1.70011C1.28761 1 0.96323 1.35221 1.00406 1.75851C1.26844 4.39663 2.99991 4.3101 2.99991 5.5C2.99991 6.6899 1.29032 6.625 1.00406 9.24149C0.95948 9.64757 1.28761 10 1.70011 10Z"
    stroke="currentColor" stroke-linecap="round" stroke-linejoin="round" />
  <path
    d="M1.70011 10H6.29972C6.71222 10 7.04035 9.64757 6.99597 9.24149C6.70951 6.625 4.99992 6.66827 4.99992 5.5C4.99992 4.33173 6.73139 4.39663 6.99576 1.75851C7.03743 1.35221 6.71222 1 6.29972 1H1.70011C1.28761 1 0.96323 1.35221 1.00406 1.75851C1.26844 4.39663 2.99991 4.3101 2.99991 5.5C2.99991 6.6899 1.29032 6.625 1.00406 9.24149C0.95948 9.64757 1.28761 10 1.70011 10Z"
    stroke="currentColor" stroke-linecap="round" stroke-linejoin="round" />
  <path
    d="M5.71176 9H2.29638C1.99048 9 1.90419 8.625 2.11872 8.3925C2.63798 7.83333 3.68611 7.43292 3.68611 6.79167V4.66667C3.68611 4.25313 2.94095 3.9375 2.47993 3.26667C2.40384 3.15604 2.41149 3 2.60484 3H5.4037C5.56861 3 5.6043 3.15479 5.5292 3.26562C5.07485 3.9375 4.31361 4.25104 4.31361 4.66667V6.79167C4.31361 7.42771 5.40605 7.77083 5.89021 8.39313C6.08532 8.64396 6.01708 9 5.71176 9Z"
    fill="currentColor" />
</svg>
  