<svg width="27" height="27" viewBox="0 0 27 27" fill="none" xmlns="http://www.w3.org/2000/svg">
<path d="M11.104 17.7982H19.1873M11.104 13.2513H19.1873M11.104 8.76762H19.1873" stroke="#636363" stroke-width="2" stroke-linecap="round" stroke-linejoin="round"/>
<path d="M25.25 13.125C25.25 19.819 19.819 25.25 13.125 25.25C6.43099 25.25 1 19.819 1 13.125C1 6.43099 6.43099 1 13.125 1C19.819 1 25.25 6.43099 25.25 13.125Z" stroke="#636363" stroke-width="2" stroke-miterlimit="10"/>
<path d="M7.56771 17.2929C7.84673 17.2929 8.07292 17.5191 8.07292 17.7981C8.07292 18.0772 7.84673 18.3033 7.56771 18.3033C7.28869 18.3033 7.0625 18.0772 7.0625 17.7981C7.0625 17.5191 7.28869 17.2929 7.56771 17.2929Z" stroke="#636363" stroke-width="2" stroke-linecap="round" stroke-linejoin="round"/>
<path d="M7.56771 12.6829C7.84673 12.6829 8.07292 12.9091 8.07292 13.1882C8.07292 13.4672 7.84673 13.6934 7.56771 13.6934C7.28869 13.6934 7.0625 13.4672 7.0625 13.1882C7.0625 12.9091 7.28869 12.6829 7.56771 12.6829Z" stroke="#636363" stroke-width="2" stroke-linecap="round" stroke-linejoin="round"/>
<path d="M7.56771 8.19918C7.84673 8.19918 8.07292 8.42537 8.07292 8.70439C8.07292 8.98341 7.84673 9.20959 7.56771 9.20959C7.28869 9.20959 7.0625 8.98341 7.0625 8.70439C7.0625 8.42537 7.28869 8.19918 7.56771 8.19918Z" stroke="#636363" stroke-width="2" stroke-linecap="round" stroke-linejoin="round"/>
</svg>
