<svg width="40" height="40" viewBox="0 0 40 40" fill="none" xmlns="http://www.w3.org/2000/svg">
  <path
    d="M20 0C8.97211 0 0 8.97211 0 20C0 31.0279 8.97211 40 20 40C31.0279 40 40 31.0279 40 20C40 8.97211 31.0279 0 20 0ZM15.1712 11.2327C16.3894 9.94135 18.1038 9.23077 20 9.23077C21.8962 9.23077 23.5952 9.94615 24.8183 11.2442C26.0577 12.5596 26.6606 14.3269 26.5183 16.2269C26.2337 20 23.3106 23.0769 20 23.0769C16.6894 23.0769 13.7606 20 13.4817 16.226C13.3404 14.3106 13.9423 12.5375 15.1712 11.2327ZM20 36.9231C17.7408 36.9246 15.5044 36.4724 13.4232 35.5934C11.3421 34.7143 9.45866 33.4263 7.88462 31.8058C8.78611 30.5202 9.93476 29.4271 11.2635 28.5904C13.7144 27.0192 16.8163 26.1538 20 26.1538C23.1837 26.1538 26.2856 27.0192 28.7337 28.5904C30.0635 29.4267 31.2131 30.5198 32.1154 31.8058C30.5415 33.4265 28.6581 34.7146 26.5769 35.5937C24.4957 36.4727 22.2592 36.9248 20 36.9231Z"
    fill="#ADADAD" />
</svg>
  