<svg width="22" height="32" viewBox="0 0 22 32" fill="none" xmlns="http://www.w3.org/2000/svg">
<path d="M7.73283 32C7.35478 32 7.0111 31.8609 6.77052 31.5826L0.37805 25.113C0.103104 24.8348 0 24.487 0 24.1391C0 23.7913 0.171841 23.4087 0.412416 23.1652C0.962307 22.6087 1.85588 22.6087 2.40577 23.1652L6.52994 27.2348V13.6348C6.52994 12.8696 7.14857 12.2435 7.90467 12.2435C8.66077 12.2435 9.27939 12.8696 9.27939 13.6348V27.2348L13.2317 23.1652C13.7816 22.6087 14.5721 22.6087 15.0876 23.1652C15.6375 23.7217 15.6375 24.5913 15.0876 25.1478L8.69514 31.6174C8.45456 31.8609 8.11088 32 7.73283 32ZM12.7162 4.76522L12.7162 18.3652C12.7162 19.1304 13.3348 19.7565 14.0909 19.7565C14.847 19.7565 15.4657 19.1304 15.4657 18.3652V4.76522L19.5898 8.83478C20.1397 9.3913 21.0333 9.3913 21.5832 8.83478C22.1331 8.27826 22.1331 7.4087 21.6176 6.85217L15.2251 0.417391C14.9845 0.13913 14.6408 0 14.2628 0C13.8847 0 13.541 0.13913 13.3005 0.417391L6.90799 6.88696C6.63305 7.16522 6.49558 7.51304 6.49558 7.86087C6.49558 8.2087 6.63305 8.5913 6.90799 8.83478C7.45788 9.3913 8.24835 9.3913 8.76387 8.83478L12.7162 4.76522Z" fill="#BBBBBB"/>
</svg>
