<svg width="65" height="65" viewBox="0 0 65 65" fill="none" xmlns="http://www.w3.org/2000/svg">
<path d="M32.5 0C14.5797 0 0 14.5797 0 32.5C0 50.4203 14.5797 65 32.5 65C50.4203 65 65 50.4203 65 32.5C65 14.5797 50.4203 0 32.5 0ZM49.4141 21.6078L28.4141 46.6078C28.1837 46.8822 27.8971 47.1039 27.5736 47.2578C27.2501 47.4117 26.8973 47.4943 26.5391 47.5H26.4969C26.1465 47.4999 25.8 47.4261 25.4799 47.2834C25.1599 47.1408 24.8734 46.9324 24.6391 46.6719L15.6391 36.6719C15.4105 36.4295 15.2327 36.1438 15.1161 35.8317C14.9995 35.5195 14.9465 35.1872 14.9602 34.8543C14.9738 34.5214 15.0539 34.1946 15.1957 33.8931C15.3375 33.5916 15.5381 33.3214 15.7857 33.0986C16.0334 32.8757 16.3231 32.7046 16.6379 32.5952C16.9526 32.4859 17.286 32.4406 17.6185 32.462C17.951 32.4834 18.2759 32.571 18.5741 32.7198C18.8722 32.8685 19.1376 33.0754 19.3547 33.3281L26.4313 41.1906L45.5859 18.3922C46.0156 17.8954 46.6235 17.5877 47.2782 17.5355C47.9329 17.4834 48.5819 17.6909 49.0848 18.1134C49.5877 18.5358 49.9041 19.1392 49.9658 19.7931C50.0274 20.447 49.8292 21.0989 49.4141 21.6078Z" fill="#155CEF"/>
</svg>
